<svg width="151" height="28" viewBox="0 0 151 28" fill="none" xmlns="http://www.w3.org/2000/svg">
<path d="M26.064 9.712V8.488C26.064 7.408 26.328 6.592 26.904 6.04C27.456 5.488 28.32 5.2 29.496 5.2H31.992V7.48H29.856C29.424 7.48 29.136 7.576 28.944 7.768C28.752 7.96 28.68 8.272 28.68 8.68V9.712H31.968V11.992H28.68V22H26.064V11.992H23.928V9.712H26.064ZM34.7886 21.376C33.8286 20.848 33.1086 20.128 32.5806 19.168C32.0526 18.208 31.8126 17.104 31.8126 15.856C31.8126 14.632 32.0526 13.552 32.5806 12.592C33.1086 11.632 33.8286 10.888 34.7886 10.36C35.7486 9.832 36.8286 9.568 38.0766 9.568C39.3006 9.568 40.3806 9.832 41.3406 10.36C42.3006 10.888 43.0206 11.632 43.5486 12.592C44.0766 13.552 44.3406 14.632 44.3406 15.856C44.3406 17.104 44.0766 18.208 43.5486 19.168C43.0206 20.128 42.3006 20.848 41.3406 21.376C40.3806 21.904 39.3006 22.144 38.0766 22.144C36.8286 22.144 35.7486 21.904 34.7886 21.376ZM40.6926 18.808C41.3646 18.04 41.7006 17.056 41.7006 15.856C41.7006 14.656 41.3646 13.696 40.6926 12.928C40.0206 12.16 39.1566 11.776 38.0766 11.776C36.9726 11.776 36.1086 12.16 35.4606 12.928C34.7886 13.696 34.4766 14.656 34.4766 15.856C34.4766 17.056 34.7886 18.04 35.4606 18.808C36.1086 19.576 36.9726 19.936 38.0766 19.936C39.1566 19.936 40.0206 19.576 40.6926 18.808ZM56.9608 9.712V22H54.6808L54.3928 20.44C53.4568 21.592 52.1848 22.144 50.6008 22.144C49.1608 22.144 47.9848 21.712 47.0968 20.8C46.1848 19.912 45.7528 18.472 45.7528 16.48V9.712H48.3448V16.216C48.3448 17.416 48.5848 18.328 49.0648 18.952C49.5448 19.576 50.2408 19.888 51.2008 19.888C52.1848 19.888 52.9528 19.528 53.5288 18.808C54.0808 18.088 54.3688 17.08 54.3688 15.808V9.712H56.9608ZM65.8271 9.712V12.136H64.6751C63.5951 12.136 62.8271 12.496 62.3471 13.192C61.8671 13.888 61.6271 14.776 61.6271 15.832V22H59.0351V9.712H61.3391L61.6271 11.56C61.9631 10.984 62.4191 10.552 62.9951 10.216C63.5471 9.88 64.2911 9.712 65.2511 9.712H65.8271ZM84.4646 10.888C85.3046 11.752 85.7366 13.144 85.7366 15.064V22H83.1446V15.088C83.1446 14.032 82.9286 13.216 82.4966 12.64C82.0646 12.088 81.4166 11.8 80.5766 11.8C79.6646 11.8 78.9686 12.136 78.4406 12.76C77.9126 13.384 77.6726 14.248 77.6726 15.352V22H75.0566V15.088C75.0566 14.008 74.8166 13.192 74.3846 12.64C73.9526 12.088 73.3046 11.8 72.4646 11.8C71.5766 11.8 70.8806 12.136 70.3526 12.784C69.8246 13.456 69.5846 14.32 69.5846 15.424V22H66.9926V9.712H69.2486L69.5366 11.32C70.4006 10.168 71.6006 9.592 73.1366 9.568C74.0006 9.568 74.7446 9.76 75.4166 10.12C76.0646 10.504 76.5686 11.056 76.9286 11.8C77.3606 11.104 77.9126 10.552 78.6326 10.168C79.3286 9.784 80.1686 9.568 81.1766 9.568C82.5206 9.568 83.6006 10.024 84.4646 10.888ZM87.8944 12.568C88.3984 11.608 89.0944 10.888 90.0064 10.36C90.9184 9.832 91.9504 9.568 93.1264 9.568C94.3024 9.568 95.3344 9.808 96.2464 10.288C97.1584 10.768 97.8544 11.464 98.3824 12.328C98.9104 13.216 99.1744 14.248 99.1984 15.424C99.1984 15.76 99.1744 16.072 99.1264 16.408H89.8624V16.552C89.9104 17.632 90.2464 18.472 90.8704 19.096C91.4704 19.72 92.2864 20.032 93.2944 20.032C94.0864 20.032 94.7584 19.864 95.3104 19.48C95.8384 19.096 96.1984 18.568 96.3904 17.872H98.9824C98.7424 19.12 98.1424 20.152 97.1584 20.944C96.1744 21.76 94.9504 22.144 93.4864 22.144C92.1904 22.144 91.0864 21.904 90.1264 21.376C89.1664 20.848 88.4464 20.128 87.9184 19.168C87.3904 18.232 87.1504 17.128 87.1504 15.88C87.1504 14.632 87.3904 13.528 87.8944 12.568ZM96.5584 14.512C96.4384 13.624 96.0784 12.928 95.4784 12.424C94.8784 11.92 94.1344 11.656 93.2224 11.656C92.3584 11.656 91.6384 11.92 91.0144 12.448C90.3904 12.976 90.0544 13.648 89.9584 14.512H96.5584ZM101.512 11.992H99.3761V9.712H101.512V6.28H104.128V9.712H107.08V11.992H104.128V18.4C104.128 18.88 104.224 19.24 104.416 19.432C104.608 19.624 104.92 19.72 105.4 19.72H107.368V22H104.872C103.696 22 102.832 21.736 102.304 21.184C101.776 20.656 101.512 19.816 101.512 18.664V11.992ZM119.899 19.744V22H118.531C117.715 22 117.139 21.832 116.803 21.496C116.443 21.16 116.275 20.68 116.275 20.032C115.339 21.448 113.995 22.144 112.219 22.144C110.827 22.144 109.723 21.832 108.907 21.184C108.067 20.56 107.659 19.672 107.659 18.544C107.659 17.296 108.091 16.312 109.003 15.64C109.891 14.968 111.187 14.608 112.915 14.608H116.011V13.864C116.011 13.192 115.771 12.64 115.291 12.256C114.811 11.872 114.139 11.656 113.299 11.656C112.531 11.656 111.907 11.824 111.427 12.16C110.947 12.496 110.659 12.928 110.563 13.456H108.019C108.139 12.232 108.691 11.272 109.651 10.6C110.611 9.928 111.859 9.568 113.419 9.568C115.051 9.568 116.323 9.952 117.235 10.72C118.123 11.488 118.579 12.592 118.579 14.032V18.88C118.579 19.456 118.843 19.744 119.395 19.744H119.899ZM116.011 16.528H112.795C111.979 16.528 111.379 16.696 110.947 17.008C110.515 17.32 110.299 17.776 110.299 18.376C110.299 18.904 110.491 19.336 110.899 19.648C111.307 19.984 111.859 20.128 112.579 20.128C113.635 20.128 114.475 19.84 115.075 19.264C115.675 18.688 115.987 17.92 116.011 16.96V16.528Z" fill="#E3E3E3"/>
<path d="M121 7.93045C121 9.65608 122.302 10.8376 123.923 10.8376C125.536 10.8376 126.837 9.65608 126.837 7.93045C126.837 6.19705 125.536 5 123.923 5C122.302 5 121 6.19705 121 7.93045ZM121.647 7.93045C121.647 6.5313 122.644 5.59075 123.923 5.59075C125.224 5.59075 126.191 6.5313 126.191 7.93045C126.191 9.29852 125.224 10.2546 123.923 10.2546C122.644 10.2546 121.647 9.29852 121.647 7.93045ZM123.424 8.2647H123.876L124.53 9.37625H125.466L124.71 8.14033C125.045 8.00819 125.279 7.75167 125.279 7.28529C125.279 6.47689 124.663 6.26701 123.829 6.26701H122.582V9.37625H123.424V8.2647ZM124.437 7.28529C124.437 7.47184 124.32 7.61953 124.039 7.61953H123.424V6.91995H124.039C124.32 6.91995 124.437 7.10651 124.437 7.28529Z" fill="#E3E3E3"/>
</svg>
