<svg width="145" height="96" viewBox="0 0 145 96" fill="none" xmlns="http://www.w3.org/2000/svg">
<path d="M8.96328 38.2133C9.60548 38.2919 10.0679 38.3704 10.4018 38.4489C11.0697 38.606 11.4036 38.8154 11.4807 39.6269C11.5321 40.5954 11.5064 43.658 11.5064 45.2286C11.5064 47.4275 11.5321 49.3645 11.455 50.9875C11.4036 51.8513 11.0954 52.1131 10.6073 52.2439C10.1449 52.3486 9.63117 52.4534 8.68071 52.5057C8.55227 52.6366 8.57796 53.3434 8.68071 53.5528H9.45135C11.6605 53.5789 14.3064 53.6313 15.8476 53.6313C18.7504 53.6313 20.7797 52.9507 22.3467 51.7466C23.9136 50.5948 25.4806 48.5531 25.4806 45.0192C25.4806 42.5325 24.6072 40.4907 22.9632 39.0248C21.6017 37.8207 19.7008 37.1925 17.4403 37.1925C14.7431 37.1925 13.7412 37.271 12.3027 37.271C11.5321 37.271 9.50273 37.1925 9.06603 37.1925C8.93759 37.3495 8.9119 38.0563 8.96328 38.2133ZM14.0495 50.6472C13.9981 50.2807 13.9981 47.2442 13.9981 45.0716C13.9981 42.9513 13.9981 39.3651 14.0495 38.8939C14.0495 38.7892 14.2036 38.5798 14.2807 38.5275C14.5632 38.3966 15.0513 38.3704 15.5394 38.3704C17.2091 38.3704 18.6733 38.6583 19.8036 39.3913C21.8072 40.6478 22.7834 42.7942 22.7834 45.438C22.7834 48.1866 21.9614 49.9142 20.754 51.0398C19.5724 52.1392 18.3651 52.3748 17.132 52.3748C16.1816 52.3748 15.1027 52.1916 14.5632 51.7466C14.2293 51.511 14.0752 50.9613 14.0495 50.6472Z" fill="black"/>
<path d="M26.172 52.5057C26.0692 52.6366 26.0692 53.4219 26.172 53.5528C26.66 53.5528 27.5078 53.4742 29.1775 53.4742C30.8986 53.4742 32.2343 53.5528 32.7481 53.5528C32.8765 53.4219 32.9279 52.6366 32.8251 52.5057C32.3628 52.4534 31.7976 52.3748 31.4637 52.2963C30.7187 52.1131 30.616 51.9298 30.616 51.4325C30.616 50.9089 31.2839 49.2075 31.8233 47.7154C31.8233 47.6631 32.0031 47.4798 32.1316 47.4798C32.4141 47.4536 32.5683 47.4536 34.2123 47.4536C35.1628 47.4536 36.3444 47.4536 36.8068 47.4798C36.8582 47.4798 37.0123 47.5322 37.0637 47.6631C37.4747 48.6839 38.1425 50.4639 38.4765 51.5633C38.5279 51.7466 38.4765 52.0869 38.1682 52.2178C37.7829 52.3486 37.2435 52.4272 36.6783 52.5057C36.5499 52.6366 36.5756 53.4219 36.6783 53.5528C37.1921 53.5528 38.8618 53.4742 40.4031 53.4742C41.8673 53.4742 43.1003 53.5266 43.7682 53.5528C43.871 53.4219 43.9737 52.6104 43.8196 52.5057C41.8673 52.2439 41.6618 52.0869 40.8398 50.2283C39.838 47.8986 36.9866 40.2551 36.4728 38.7892C36.293 38.2657 36.1389 37.7683 36.0105 37.2448C35.882 37.271 35.5994 37.271 34.9829 37.271C34.4949 37.271 34.1609 37.271 34.0325 37.2448C33.9554 37.6636 33.7242 38.3442 33.5187 38.9463C32.9536 40.6478 30.4619 47.2181 29.3316 49.9666C28.4325 52.0869 28.0729 52.2439 26.172 52.5057ZM34.4692 40.3598C34.9059 41.4069 35.9334 44.3125 36.4215 45.6736C36.4471 45.8045 36.3701 45.9354 36.293 45.9354C35.9591 45.9616 35.2398 45.9616 34.5976 45.9616C33.8527 45.9616 32.8508 45.9616 32.5683 45.9354C32.4912 45.9092 32.4655 45.8307 32.4655 45.7522C32.9536 44.1816 33.8784 41.7733 34.3151 40.386C34.3664 40.3336 34.4435 40.3598 34.4692 40.3598Z" fill="black"/>
<path d="M44.2047 38.2133C45.1808 38.318 45.7717 38.5013 46.2597 38.6583C46.9276 38.9463 47.0561 39.5483 47.0561 39.9933C46.979 45.5428 46.9276 49.3645 46.7992 50.8566C46.7478 51.6419 46.4395 52.0083 45.8487 52.2178C45.4377 52.3486 44.8983 52.4272 44.2818 52.5057C44.179 52.6366 44.1533 53.4742 44.2818 53.5528C44.8469 53.5528 45.9258 53.4742 47.7753 53.4742C49.3423 53.4742 50.5239 53.5528 51.2432 53.5528C51.3716 53.3957 51.423 52.6889 51.2946 52.5057C50.5753 52.401 50.0102 52.3486 49.6249 52.2178C48.8799 52.0345 48.5973 51.6419 48.546 50.8042C48.4432 49.286 48.4689 43.7628 48.4946 40.988C48.4946 40.9619 48.5973 40.9357 48.623 40.988C50.4982 43.3701 56.8432 51.5372 58.3074 53.6313C58.5643 53.5789 60.0541 53.5528 60.3367 53.6051C60.311 52.7151 60.2853 51.1707 60.2853 49.9404C60.3624 43.7628 60.3367 41.9828 60.4908 39.941C60.5679 39.1819 60.722 38.763 61.4413 38.5275C61.7239 38.4227 62.1606 38.318 62.6486 38.2133C62.7771 38.0563 62.8028 37.3233 62.6486 37.1925C62.289 37.1925 60.5936 37.271 59.6431 37.271C57.7422 37.271 56.5092 37.1925 55.867 37.1925C55.7386 37.3233 55.7386 38.0825 55.867 38.2133C56.612 38.318 57.2285 38.4489 57.7422 38.5798C58.5643 38.7892 58.7184 39.1295 58.7698 39.941C58.8725 41.9566 58.8468 45.8307 58.8468 49.5216C58.8468 49.5739 58.7954 49.6001 58.7441 49.5739C57.3826 47.9248 52.5276 41.9304 50.0359 38.6845C49.368 37.8207 49.2652 37.6113 49.1625 37.271H47.9808C46.3368 37.271 45.001 37.1925 44.2047 37.1925C44.0763 37.3233 44.0506 38.0825 44.2047 38.2133Z" fill="black"/>
<path d="M69.8246 38.2133C70.6723 38.3442 71.1347 38.4227 71.6227 38.5536C72.342 38.763 72.4191 39.2342 72.4704 39.9148C72.5475 41.2236 72.5475 49.4431 72.5218 52.7936C72.4961 55.071 72.3934 55.9348 71.6998 56.851C71.2631 57.4007 70.698 57.5578 70.0815 57.5578C69.2595 57.5578 67.7952 56.9034 67.0246 56.3798C66.8448 56.7725 66.4852 57.8719 66.4081 58.3692C66.4081 58.4216 66.4852 58.7095 66.5108 58.7881C66.7677 59.3116 67.6668 59.7042 68.6429 59.7042C70.364 59.7042 72.5475 58.3692 73.909 55.9086C74.6539 54.5736 74.8851 53.1078 74.9879 51.0398C75.0649 48.6839 75.0649 40.6216 75.1163 39.496C75.142 38.8677 75.2961 38.6322 75.7328 38.5013C76.0667 38.4227 76.5291 38.318 77.12 38.2133C77.2741 38.1086 77.2741 37.2972 77.1456 37.1925C76.375 37.1925 75.3989 37.271 73.8319 37.271C71.5714 37.271 70.5952 37.1925 69.876 37.1925C69.7475 37.2972 69.6962 38.0563 69.8246 38.2133Z" fill="black"/>
<path d="M87.5918 53.9454C90.1606 53.9454 92.7808 52.7936 94.4762 50.5425C95.555 49.0504 96.0945 47.4013 96.0945 44.9669C96.0945 40.7263 93.3973 36.7998 88.0799 36.7998C85.3569 36.7998 82.557 38.1348 81.1441 40.0457C79.9882 41.5378 79.3973 43.2392 79.3973 45.2286C79.3973 47.7154 80.0652 49.8619 81.6579 51.6157C83.045 53.1078 84.9716 53.9454 87.5918 53.9454ZM88.5679 52.5057C87.3349 52.5057 86.4101 52.2701 85.5111 51.7204C83.3019 50.3331 82.2487 47.4798 82.2487 44.6266C82.2487 41.9828 83.1478 39.6792 84.9716 38.6583C85.5881 38.318 86.3074 38.1086 87.1294 38.1086C88.4395 38.1086 89.4927 38.4489 90.3918 39.051C92.3698 40.4122 93.3202 43.0298 93.3202 45.9616C93.3202 48.3436 92.7808 50.4378 91.2138 51.6681C90.5716 52.2178 89.5955 52.5057 88.5679 52.5057Z" fill="black"/>
<path d="M98.4213 38.2133C99.1662 38.318 99.7057 38.3966 100.117 38.5275C100.707 38.7107 100.81 38.9986 100.862 39.7316C100.887 40.2027 100.887 42.768 100.887 45.3072C100.887 47.5845 100.887 49.5478 100.862 50.4378C100.81 51.6419 100.656 52.0345 99.9368 52.2439C99.5515 52.3486 99.1148 52.401 98.4469 52.5057C98.3442 52.6628 98.3442 53.4219 98.4726 53.5528C98.9607 53.5528 100.296 53.4742 102.172 53.4742C104.227 53.4742 105.588 53.5528 105.871 53.5528C105.999 53.4742 106.153 52.6628 106.025 52.5057C105.254 52.401 104.715 52.2701 104.329 52.1654C103.636 51.9822 103.456 51.7204 103.405 50.8304C103.379 50.3069 103.379 47.6107 103.379 46.1448C103.379 46.1186 103.43 46.0139 103.482 46.0139C103.713 45.9616 105.691 45.9616 107.695 45.9616C109.159 45.9616 111.188 45.9616 111.753 45.9878C111.882 45.9878 111.959 46.1186 111.959 46.171C111.959 47.8201 111.984 50.3069 111.933 51.1183C111.882 51.7728 111.728 52.0607 111.291 52.2178C110.931 52.3225 110.495 52.4272 109.647 52.5057C109.518 52.6889 109.518 53.4481 109.647 53.5528C110.366 53.5266 111.702 53.4742 113.115 53.4742C114.528 53.4742 116.377 53.5528 116.994 53.5528C117.199 53.4742 117.251 52.6628 117.148 52.5057C116.3 52.4272 115.709 52.2963 115.324 52.1916C114.81 52.0345 114.605 51.7466 114.553 51.0398C114.476 50.1236 114.476 47.3489 114.476 45.0192C114.476 42.0089 114.476 40.831 114.528 39.9148C114.579 39.0772 114.63 38.7107 115.221 38.5013C115.581 38.3704 116.069 38.2919 116.685 38.2133C116.84 38.0825 116.84 37.3495 116.685 37.1925C116.3 37.1925 114.579 37.271 113.218 37.271C111.83 37.271 110.392 37.1925 109.75 37.1925C109.596 37.3233 109.544 38.0825 109.724 38.2133C110.546 38.318 111.085 38.3966 111.419 38.5536C111.779 38.6845 111.907 38.9725 111.933 39.3651C111.959 40.3598 111.959 42.8466 111.959 44.2078C111.959 44.3125 111.882 44.4172 111.779 44.4172C111.548 44.4433 110.983 44.4433 107.72 44.4695C104.381 44.4695 103.79 44.4695 103.559 44.4433C103.456 44.391 103.379 44.2339 103.379 44.1292C103.379 41.4854 103.353 40.5692 103.405 39.6792C103.43 38.9201 103.585 38.6583 104.098 38.5013C104.407 38.4227 104.895 38.318 105.485 38.2133C105.614 38.1086 105.64 37.3495 105.511 37.1925C104.818 37.1925 103.918 37.271 101.941 37.271C100.194 37.271 98.9864 37.1925 98.4726 37.1925C98.3442 37.3233 98.2928 38.0563 98.4213 38.2133Z" fill="black"/>
<path d="M118.559 38.2133C119.535 38.318 120.126 38.5013 120.614 38.6583C121.282 38.9463 121.411 39.5483 121.411 39.9933C121.333 45.5428 121.282 49.3645 121.154 50.8566C121.102 51.6419 120.794 52.0083 120.203 52.2178C119.792 52.3486 119.253 52.4272 118.636 52.5057C118.533 52.6366 118.508 53.4742 118.636 53.5528C119.201 53.5528 120.28 53.4742 122.13 53.4742C123.697 53.4742 124.878 53.5528 125.598 53.5528C125.726 53.3957 125.777 52.6889 125.649 52.5057C124.93 52.401 124.365 52.3486 123.979 52.2178C123.234 52.0345 122.952 51.6419 122.9 50.8042C122.798 49.286 122.823 43.7628 122.849 40.988C122.849 40.9619 122.952 40.9357 122.978 40.988C124.853 43.3701 131.198 51.5372 132.662 53.6313C132.919 53.5789 134.409 53.5528 134.691 53.6051C134.666 52.7151 134.64 51.1707 134.64 49.9404C134.717 43.7628 134.691 41.9828 134.845 39.941C134.922 39.1819 135.077 38.763 135.796 38.5275C136.078 38.4227 136.515 38.318 137.003 38.2133C137.132 38.0563 137.157 37.3233 137.003 37.1925C136.643 37.1925 134.948 37.271 133.998 37.271C132.097 37.271 130.864 37.1925 130.222 37.1925C130.093 37.3233 130.093 38.0825 130.222 38.2133C130.966 38.318 131.583 38.4489 132.097 38.5798C132.919 38.7892 133.073 39.1295 133.124 39.941C133.227 41.9566 133.201 45.8307 133.201 49.5216C133.201 49.5739 133.15 49.6001 133.099 49.5739C131.737 47.9248 126.882 41.9304 124.39 38.6845C123.722 37.8207 123.62 37.6113 123.517 37.271H122.335C120.691 37.271 119.356 37.1925 118.559 37.1925C118.431 37.3233 118.405 38.0825 118.559 38.2133Z" fill="black"/>
</svg>
