<svg width="144" height="96" viewBox="0 0 144 96" fill="none" xmlns="http://www.w3.org/2000/svg">
<path fill-rule="evenodd" clip-rule="evenodd" d="M37.3373 49.733C37.3525 49.733 37.3555 49.7655 37.3789 49.7442C37.4022 49.7228 37.4073 49.6792 37.4073 49.6365C37.4367 49.202 37.4591 48.7583 37.4997 48.3228C37.5968 47.0409 37.8956 45.7824 38.385 44.5937C38.8581 43.4414 39.5754 42.4053 40.4876 41.5571C41.4666 40.6708 42.6253 40.0062 43.8847 39.6088C44.7164 39.3312 45.5755 39.1437 46.4472 39.0493C46.9263 38.9931 47.4097 38.9818 47.8909 39.0158C48.6679 39.0668 49.4244 39.2872 50.1072 39.6615C50.2029 39.7155 50.3015 39.764 50.4027 39.8067C50.421 39.6362 50.4392 39.492 50.4484 39.3356C50.489 38.959 50.5336 38.5914 50.56 38.2188C50.559 38.2006 50.5615 38.1823 50.5676 38.1651C50.5737 38.1478 50.5831 38.132 50.5954 38.1184C50.6077 38.1049 50.6226 38.094 50.6392 38.0863C50.6558 38.0786 50.6738 38.0743 50.692 38.0737C51.7438 37.828 52.7926 37.5853 53.8394 37.3346C54.8861 37.0838 55.9633 36.832 57.0242 36.5822C57.0659 36.5711 57.1095 36.5487 57.144 36.5386C57.1632 36.5413 57.1827 36.5413 57.2019 36.5386C57.7535 36.4157 58.2981 36.2636 58.8334 36.0827C59.7995 35.751 60.7933 35.5067 61.8031 35.3527C62.5239 35.2187 63.259 35.1284 63.99 35.0126C64.2362 34.9852 64.4788 34.9317 64.7138 34.8532C66.9326 33.9552 69.2907 33.4498 71.6826 33.3598C71.7699 33.3537 71.8542 33.3395 71.9435 33.3334C72.2359 33.376 72.5364 33.3598 72.8349 33.3811C73.8767 33.4311 74.9018 33.662 75.8645 34.0634C75.966 34.105 76.0675 34.1527 76.1873 34.2004C76.2168 33.9974 76.2422 33.8024 76.2726 33.6106C76.3376 33.1029 76.4076 32.6024 76.4665 32.0968C76.4807 31.9851 76.5467 31.9699 76.6249 31.9526L77.8219 31.6694C78.8257 31.4365 79.8274 31.1996 80.8271 30.9587C82.5602 30.5526 84.2902 30.1465 86.0212 29.7333C86.9562 29.514 87.8832 29.3038 88.8091 29.0682C89.136 28.9891 89.4406 28.8489 89.7604 28.7423C90.6395 28.4552 91.5366 28.2263 92.4458 28.0571C93.1006 27.923 93.7656 27.8164 94.4276 27.7362C94.7585 27.6936 95.0915 27.6631 95.4245 27.6408C96.0186 27.588 96.6152 27.5693 97.2114 27.5849C98.6414 27.5951 100.058 27.8613 101.394 28.3708C102.323 28.7321 103.179 29.2549 103.925 29.915C104.883 30.7818 105.614 31.8686 106.057 33.0816C106.293 33.7302 106.459 34.402 106.553 35.0857C106.553 35.1223 106.532 35.1984 106.619 35.1558V38.3722C106.604 38.3468 106.579 38.3346 106.564 38.361C106.555 38.3902 106.551 38.4208 106.553 38.4513C106.505 38.8635 106.451 39.2636 106.373 39.6697C106.198 40.5374 106.02 41.4054 105.838 42.2738C105.55 43.6602 105.1 45.0079 104.497 46.2892C103.823 47.7481 102.928 49.0938 101.842 50.2782C101.258 50.9148 100.618 51.4982 99.9303 52.0214C99.039 52.7061 98.0759 53.2919 97.0581 53.7687C96.3743 54.0943 95.6703 54.3758 94.9504 54.6114C94.0881 54.8923 93.2093 55.1195 92.3189 55.2916C91.4373 55.4627 90.5474 55.5874 89.6528 55.6652C89.2294 55.7017 88.8111 55.7302 88.3918 55.7495C88.138 55.7667 87.8842 55.7667 87.6294 55.7718C87.409 55.7718 87.1826 55.7617 86.9613 55.7495C86.8811 55.7495 86.8598 55.7718 86.8415 55.851C86.74 56.6064 86.6263 57.3566 86.5136 58.1089C86.4222 58.7486 86.3288 59.3872 86.2384 60.0268C86.1481 60.6664 86.0466 61.3111 85.9532 61.9558C85.8516 62.6797 85.7501 63.4046 85.6384 64.1264C85.5217 64.9265 85.4019 65.7305 85.2861 66.5346C85.2425 66.8281 85.1998 67.1276 85.1582 67.4149C85.1399 67.5519 85.1227 67.5682 84.9734 67.552C84.8321 67.5334 84.6895 67.5259 84.547 67.5296C84.3683 67.5296 84.1856 67.5296 84.0069 67.5154C83.6262 67.4677 83.2373 67.488 82.8546 67.4565C82.4414 67.4311 82.0231 67.4403 81.6088 67.4149C81.4474 67.4088 81.285 67.4149 81.1235 67.4037C80.7225 67.3611 80.3205 67.3783 79.9164 67.3448C79.5123 67.3113 79.1042 67.3225 78.6981 67.3022C78.5356 67.2971 78.3752 67.3022 78.2158 67.292C77.9008 67.2597 77.584 67.2489 77.2676 67.2595C77.2292 67.2394 77.186 67.2299 77.1427 67.2321C76.9396 67.2321 76.7305 67.2321 76.5275 67.2159C75.8076 67.1905 75.0868 67.1529 74.366 67.1276C73.5355 67.088 72.7091 67.0636 71.8847 67.0372C71.7395 67.0321 71.7395 67.0321 71.7527 66.8809C71.7892 66.6148 71.8278 66.3539 71.8623 66.0889C71.9578 65.3955 72.0511 64.7082 72.1456 64.0168C72.1882 63.7224 72.2227 63.43 72.2623 63.1325C72.176 63.1115 72.087 63.104 71.9984 63.1102C71.5506 63.1041 71.11 63.1041 70.6684 63.0899C70.4044 63.0848 70.1445 63.0736 69.8836 63.0899C69.032 63.1748 68.1722 63.0658 67.3688 62.7711C67.2946 62.7406 67.2114 62.7406 67.1373 62.7711C66.5375 62.9849 65.9048 63.0914 65.2682 63.0858C64.9819 63.0858 64.6966 63.0533 64.4103 63.0472C63.5341 63.032 62.6569 63.0371 61.7797 63.0371C61.6425 63.0253 61.5044 63.0274 61.3675 63.0431C61.3017 63.0236 61.2326 63.0177 61.1645 63.0259H59.9106C59.7627 63.0085 59.6138 63.0014 59.4649 63.0046C59.0945 63.0526 58.7198 63.0581 58.3481 63.0208C58.2466 63.0157 58.1451 62.9954 58.0375 62.9954C57.7126 63.0005 57.3836 63.0157 57.0628 63.0046C56.1866 62.9792 55.3115 63.0046 54.4353 62.9903C54.3612 62.9903 54.3226 63.0046 54.3196 63.0919C54.2871 63.4218 54.2485 63.7538 54.212 64.0879C54.1937 64.2391 54.1906 64.2442 54.0434 64.2391C53.5622 64.2178 53.086 64.2178 52.6119 64.2117C51.756 64.1965 50.9083 64.1752 50.0524 64.164C49.8006 64.164 49.5448 64.1589 49.2889 64.1549C49.1742 64.1549 49.1641 64.1498 49.1742 64.0239C49.1955 63.8015 49.226 63.5792 49.2463 63.3589C49.3235 62.5568 49.4006 61.7578 49.4808 60.9537C49.5417 60.3293 49.6016 59.6958 49.6676 59.0664C49.6991 58.7374 49.7367 58.4064 49.7692 58.0775C49.7895 57.8897 49.8027 57.7028 49.8209 57.5171C49.8301 57.4541 49.8067 57.4104 49.7265 57.4267C49.6954 57.4294 49.6642 57.4294 49.6331 57.4267C49.3559 57.4379 49.0757 57.449 48.8006 57.4622C48.7052 57.4683 48.6757 57.4318 48.692 57.3455C48.7102 57.1424 48.7326 56.9262 48.7549 56.716C48.763 56.6368 48.763 56.5536 48.7681 56.4561C48.4554 56.6429 48.1661 56.8084 47.8615 56.9526C46.7258 57.4559 45.5063 57.7434 44.2654 57.8003C43.6713 57.8359 43.0751 57.8121 42.4857 57.7292C41.8257 57.6492 41.1823 57.4663 40.579 57.1871C39.5389 56.6854 38.6984 55.8477 38.1931 54.8093C37.7923 53.9958 37.5377 53.1181 37.4408 52.2163C37.4195 52.0732 37.4154 51.9189 37.3972 51.7767C37.3972 51.7402 37.3972 51.6752 37.3281 51.7168L37.3373 49.733ZM57.0171 57.2114L57.0263 57.2054C57.0709 57.248 57.0354 57.2845 57.0171 57.3211C56.9735 57.4226 56.9217 57.515 56.8872 57.6094C56.7301 58.0756 56.6612 58.5669 56.6841 59.0582C56.6736 59.3579 56.7717 59.6513 56.9603 59.8845C57.1489 60.1177 57.4153 60.2749 57.7105 60.3273C58.364 60.4968 59.0537 60.4614 59.6862 60.2258C59.9618 60.1296 60.2103 59.9688 60.411 59.7568C60.6117 59.5448 60.7586 59.2879 60.8396 59.0075C61.0062 58.4668 61.0628 57.8982 61.0061 57.3353C61.0428 57.3145 61.085 57.3056 61.1269 57.3099C61.2355 57.2988 61.2457 57.3099 61.2284 57.4226C61.1269 58.2633 61.0193 59.1059 60.9188 59.9517C60.8886 60.0772 60.8767 60.2065 60.8832 60.3354C61.3665 60.3304 61.8386 60.3466 62.3117 60.3151C62.394 60.309 62.4133 60.2715 62.4133 60.1974C62.4427 59.9395 62.4823 59.6806 62.5148 59.4247C62.596 58.7638 62.6721 58.1049 62.7544 57.448C62.7808 57.2206 62.7848 57.2206 63.0255 57.245C63.0255 57.2561 63.0326 57.2724 63.0255 57.2815C62.8394 57.7822 62.7516 58.3141 62.7666 58.8481C62.7603 59.1556 62.8575 59.4563 63.0427 59.7019C63.2708 59.9778 63.5877 60.1658 63.9392 60.2339C64.4825 60.3452 65.0421 60.3521 65.588 60.2542C65.9386 60.1984 66.2751 60.0754 66.5789 59.8918C66.7522 59.7737 66.9125 59.6376 67.0571 59.4857C67.182 59.667 67.3428 59.8208 67.5294 59.9376C67.7161 60.0544 67.9247 60.1318 68.1424 60.1649C68.8946 60.3203 69.674 60.2805 70.4064 60.0491C70.7129 59.9645 70.9968 59.813 71.2376 59.6055C71.4785 59.398 71.6703 59.1396 71.7994 58.8491C71.856 58.7623 71.8873 58.6613 71.8897 58.5577C71.7454 58.5538 71.601 58.5586 71.4572 58.5719C71.0044 58.577 70.5506 58.5821 70.0998 58.6085C70.0145 58.6135 69.9079 58.5882 69.8389 58.6308C69.7698 58.6734 69.7922 58.7811 69.7567 58.8653C69.7465 58.8745 69.7465 58.8968 69.7394 58.913C69.7082 59.0386 69.6313 59.1479 69.5237 59.2197C69.4161 59.2914 69.2855 59.3204 69.1577 59.3009C69.1053 59.2976 69.0548 59.2801 69.0116 59.2503C68.9685 59.2204 68.9344 59.1792 68.913 59.1313C68.8599 59.0315 68.8393 58.9175 68.8541 58.8054C68.8988 58.4592 68.9434 58.109 68.9932 57.7577C69.0079 57.5095 69.0512 57.2639 69.1221 57.0257C69.1612 56.9024 69.2397 56.7954 69.3455 56.7211C69.415 56.672 69.4967 56.6431 69.5817 56.6376C69.6666 56.632 69.7514 56.65 69.8267 56.6896C69.976 56.7576 69.9993 56.9028 69.9902 57.0571V57.1323C69.9902 57.2846 69.9668 57.2957 70.1557 57.2906C70.5465 57.2795 70.9364 57.2703 71.3273 57.249C71.5859 57.2492 71.8443 57.2332 72.1009 57.2013C72.0938 57.0856 72.0887 56.9678 72.0826 56.8449C72.1699 56.8389 72.2441 56.8389 72.3263 56.8348C72.2705 57.2287 72.2146 57.6176 72.1598 57.9932C72.0654 58.6643 71.9699 59.3374 71.8755 60.0034C71.8501 60.1659 71.8471 60.177 72.0136 60.1659C72.5425 60.1344 73.0695 60.1771 73.5994 60.1344C73.6928 60.1243 73.7121 60.0816 73.7203 60.0075C73.7994 59.4745 73.8715 58.9415 73.9477 58.4095C74.0238 57.8775 74.103 57.3648 74.1781 56.8439C74.1852 56.7921 74.1954 56.7515 74.2675 56.7515C74.4086 56.7515 74.5497 56.7201 74.6929 56.7322C74.8177 56.7322 74.9406 56.7211 75.0665 56.715C75.1051 56.7089 75.1345 56.7089 75.1467 56.6581C75.2036 56.2591 75.2604 55.854 75.3223 55.4398C75.2208 55.4398 75.1335 55.4347 75.0462 55.4398C74.8787 55.451 74.7162 55.4652 74.5467 55.4713C74.3771 55.4774 74.3842 55.4713 74.4096 55.318C74.436 55.1149 74.4746 54.92 74.5 54.7149C74.5371 54.5418 74.5528 54.3649 74.5467 54.188C73.969 54.2266 73.4106 54.2601 72.8492 54.2895C72.6928 54.3007 72.6898 54.2895 72.6735 54.4388C72.6268 54.7728 72.5771 55.1078 72.5334 55.454C72.5192 55.5454 72.4928 55.587 72.3852 55.5931C72.1567 55.5931 71.9273 55.6144 71.6988 55.6246C71.6308 55.6246 71.5973 55.6398 71.5973 55.7149C71.5892 55.8165 71.5659 55.918 71.5506 56.0195C71.5274 56.0149 71.5049 56.0074 71.4836 55.9972C71.0908 55.779 70.6477 55.6673 70.1983 55.6733C69.7333 55.6564 69.2682 55.7046 68.8165 55.8165C68.4158 55.9087 68.0413 56.0906 67.721 56.3485C67.6246 56.4287 67.5393 56.519 67.4388 56.6094C67.3146 56.4295 67.1531 56.2784 66.9653 56.1665C66.7775 56.0545 66.5678 55.9843 66.3505 55.9606C66.0313 55.909 65.707 55.897 65.3849 55.9251C64.8053 55.9301 64.2387 56.0976 63.7493 56.4084C63.727 56.4185 63.7047 56.4307 63.6834 56.4185C63.6641 56.2977 63.7128 56.1799 63.7057 56.0459C63.4438 56.0622 63.192 56.0886 62.9351 56.0835C62.9849 55.6896 63.0366 55.318 63.0823 54.9281C62.9808 54.9281 62.8935 54.919 62.8011 54.9281C62.4336 54.9667 62.0589 54.9809 61.6914 54.9982C61.534 55.0093 61.5249 55.0185 61.5046 55.1677C61.4711 55.4601 61.4406 55.7596 61.4031 56.052C61.3899 56.181 61.3848 56.181 61.2538 56.1871C61.1036 56.1871 60.9564 56.1931 60.8081 56.1982C60.6599 56.2033 60.6396 56.2236 60.6173 56.3667C60.6081 56.4459 60.6376 56.5261 60.5705 56.6013C60.4012 56.4806 60.2113 56.3919 60.0101 56.3393C59.5253 56.2307 59.0231 56.2252 58.536 56.3231C58.3333 56.3656 58.1336 56.4209 57.938 56.4886C57.9136 56.3292 57.9136 56.3292 57.7715 56.3292C57.4307 56.3137 57.0908 56.3758 56.7775 56.5109C56.7126 56.5373 56.6689 56.5475 56.6658 56.4581C56.6658 56.4185 56.6263 56.4185 56.5917 56.4185C56.5381 56.4335 56.4829 56.4423 56.4273 56.4449C56.0892 56.4571 55.7501 56.4835 55.412 56.4937C55.3105 56.4937 55.2891 56.5363 55.2841 56.6256C55.2587 56.9089 55.2272 57.1912 55.1907 57.4998C55.146 57.3682 55.0914 57.2403 55.0272 57.117C54.9273 56.9434 54.7824 56.7998 54.6079 56.7014C54.4334 56.603 54.2356 56.5533 54.0353 56.5576C53.7191 56.5159 53.3977 56.5734 53.1155 56.7221C53.0941 56.7333 53.0576 56.7444 53.0556 56.717C53.0556 56.58 52.9398 56.6328 52.8728 56.6328C52.5368 56.6439 52.1946 56.6642 51.8515 56.6805C51.7763 56.6855 51.7611 56.717 51.756 56.7891C51.7408 56.9779 51.7164 57.1658 51.6951 57.3566C51.62 58.0754 51.5449 58.8004 51.4738 59.5192C51.4027 60.238 51.3276 60.9852 51.2555 61.7131C51.2712 61.7252 51.2897 61.7329 51.3093 61.7355H52.4261C52.5043 61.7355 52.5226 61.7081 52.5276 61.64C52.5449 61.4268 52.5672 61.2228 52.5946 61.0106C52.6221 60.7984 52.6261 60.5832 52.6718 60.3618C52.9482 60.4945 53.2587 60.5389 53.5612 60.4887C53.8637 60.4576 54.1532 60.3492 54.4018 60.174C54.6282 59.989 54.8156 59.7609 54.9531 59.5029C54.9308 59.7852 54.8993 60.0583 54.8699 60.3151C54.8546 60.4309 54.8698 60.442 54.9856 60.4481C55.278 60.4481 55.5673 60.4055 55.8618 60.4207C55.948 60.4258 56.0354 60.4207 56.1237 60.4207C56.212 60.4207 56.2374 60.3882 56.2455 60.304C56.2922 59.841 56.3471 59.377 56.3938 58.9171C56.4303 58.5993 56.4618 58.2734 56.5095 57.9587C56.5153 57.798 56.5659 57.6421 56.6556 57.5087C56.7453 57.3752 56.8705 57.2694 57.0171 57.2033M87.2588 32.9049C87.21 32.8865 87.1563 32.8865 87.1075 32.9049C86.2618 33.0806 85.41 33.2623 84.5592 33.4441L81.4484 34.0989C80.6982 34.2593 79.9458 34.4248 79.1915 34.5771C79.169 34.5777 79.1469 34.5828 79.1264 34.5921C79.1058 34.6013 79.0874 34.6146 79.072 34.631C79.0566 34.6474 79.0446 34.6667 79.0367 34.6878C79.0288 34.7088 79.0252 34.7313 79.026 34.7537C78.9864 35.1101 78.9306 35.4644 78.8798 35.8177C78.7722 36.5731 78.6646 37.3305 78.5549 38.0818C78.4768 38.6574 78.3976 39.2392 78.3163 39.8138C78.2148 40.5631 78.0991 41.3195 77.9945 42.0779C77.893 42.816 77.7915 43.5632 77.6828 44.3044C77.5742 45.0455 77.4686 45.7999 77.363 46.5461C77.2574 47.2923 77.1549 48.0527 77.0463 48.8101C76.9204 49.7421 76.7813 50.6731 76.6493 51.6052C76.5599 52.26 76.4686 52.9169 76.3762 53.5788C76.2747 54.3342 76.1589 55.0845 76.0564 55.8419C75.9741 56.4094 75.8929 56.9911 75.8117 57.5678C75.7102 58.3242 75.6005 59.0755 75.4888 59.8319C75.3873 60.572 75.2858 61.3182 75.1843 62.0573C75.0888 62.7142 74.9914 63.368 74.902 64.029C74.8919 64.0655 74.8624 64.1071 74.9162 64.1569C75.3528 64.1741 75.7924 64.163 76.2361 64.1741C77.0432 64.2005 77.8503 64.1945 78.6626 64.2117C79.4748 64.229 80.2748 64.2219 81.086 64.2594C81.4779 64.2696 81.8677 64.2422 82.2596 64.2696C82.3865 64.2696 82.3916 64.2696 82.4079 64.1376C82.4475 63.833 82.4901 63.5193 82.5327 63.2147C82.616 62.633 82.7033 62.0492 82.7815 61.4674C82.8759 60.8126 82.9642 60.1557 83.0556 59.4968C83.1927 58.5577 83.3236 57.6115 83.4617 56.6683C83.5571 56.0134 83.6465 55.3484 83.7338 54.6976C83.8211 54.0469 83.9247 53.3717 84.0171 52.7108C84.0567 52.4346 84.0962 52.1625 84.1358 51.8904C84.1967 51.8742 84.2374 51.9107 84.2729 51.927C84.9724 52.2015 85.7114 52.3619 86.4618 52.4021C87.0367 52.4413 87.6137 52.4363 88.1878 52.3869C88.6467 52.3534 89.1015 52.3169 89.5604 52.2529C90.4327 52.1392 91.2967 51.9697 92.1473 51.7453C93.3023 51.4503 94.4189 51.0213 95.4743 50.467C96.7044 49.8198 97.8126 48.9637 98.7495 47.937C99.4277 47.184 100.005 46.3457 100.466 45.4435C101.028 44.3511 101.44 43.1885 101.693 41.9865C101.836 41.3317 101.963 40.6717 102.093 40.0169C102.335 38.9281 102.444 37.814 102.417 36.699C102.393 35.9847 102.258 35.2785 102.018 34.6055C101.739 33.8162 101.247 33.1194 100.596 32.5922C100.109 32.2034 99.5557 31.9056 98.9627 31.713C98.1249 31.4389 97.2511 31.2904 96.3698 31.2724C95.8308 31.2486 95.2908 31.2612 94.7535 31.31C94.0885 31.3628 93.4336 31.4419 92.7788 31.5567C91.7797 31.7092 90.7964 31.9511 89.8406 32.2795C89.0119 32.5806 88.2159 32.965 87.4649 33.4268C87.3634 33.4847 87.2618 33.5425 87.142 33.6217C87.1806 33.3659 87.2192 33.1385 87.2507 32.911M76.1609 47.2872C76.0777 47.2395 75.9965 47.2872 75.9152 47.2923C75.4259 47.339 74.9304 47.3938 74.4441 47.4497C73.7416 47.537 73.0407 47.6223 72.3415 47.7055C71.8674 47.7583 71.3902 47.8121 70.9201 47.8669C70.4125 47.9238 69.9049 47.9888 69.3972 48.0466C69.0419 48.0944 68.6866 48.1482 68.3292 48.1756C68.2094 48.1867 68.185 48.2436 68.1718 48.3289C68.1397 48.5895 68.076 48.8452 67.982 49.0903C67.8559 49.4746 67.6232 49.8151 67.3109 50.0721C66.9459 50.3499 66.4962 50.4933 66.0378 50.4782C65.7925 50.4914 65.5508 50.4152 65.3574 50.2638C65.164 50.1124 65.032 49.8961 64.9859 49.6548C64.8897 49.2835 64.8639 48.8975 64.9098 48.5167C64.9646 47.9949 65.0336 47.4781 65.0976 46.9664C65.1088 46.871 65.1433 46.8507 65.2205 46.8435C65.5403 46.806 65.8601 46.7643 66.1779 46.7217C66.8012 46.6354 67.4155 46.5501 68.0399 46.4699C68.649 46.3958 69.251 46.3176 69.8673 46.2415C70.5699 46.14 71.2765 46.0496 71.9831 45.9542C72.6898 45.8587 73.4045 45.7724 74.1223 45.6821C74.9467 45.5704 75.7731 45.4577 76.6036 45.3511C76.6858 45.342 76.7183 45.3196 76.7285 45.2354C76.7894 44.7704 76.8645 44.3145 76.9315 43.8546C77.0917 43.0029 77.1658 42.1373 77.1529 41.2708C77.1312 40.6922 77.0392 40.1184 76.8787 39.5621C76.7109 38.972 76.4131 38.427 76.0073 37.9669C75.6015 37.5068 75.0979 37.1433 74.5335 36.9031C73.7814 36.5892 72.9784 36.4148 72.1638 36.3883C71.6798 36.3614 71.1944 36.3664 70.711 36.4036C70.0864 36.4447 69.4648 36.5217 68.849 36.634C67.6248 36.8373 66.422 37.1534 65.256 37.5782C64.2282 37.9479 63.253 38.4503 62.3554 39.0727C62.3029 39.1284 62.2344 39.1663 62.1594 39.1813C62.1879 38.8006 62.261 38.4382 62.2731 38.0645C62.1452 38.0848 62.0406 38.1011 61.9361 38.1122C61.3828 38.2077 60.8264 38.3255 60.2761 38.4351C59.3778 38.6082 58.5192 38.9462 57.7441 39.4321C57.6009 39.5245 57.4537 39.6199 57.2994 39.7133C57.3168 39.5447 57.3243 39.3752 57.3217 39.2057C57.2771 39.2139 57.232 39.2193 57.1867 39.2219C56.6983 39.3235 56.2161 39.425 55.7308 39.5357C54.9785 39.69 54.2252 39.8504 53.4779 40.0047C53.0942 40.0829 52.7124 40.1763 52.3297 40.2545C52.2525 40.2707 52.217 40.291 52.2098 40.3814C52.156 40.9905 52.085 41.5855 52.0302 42.1926C51.9581 42.9337 51.8799 43.6749 51.8068 44.411C51.7205 45.2841 51.6332 46.1501 51.5438 47.0141C51.4667 47.7593 51.3946 48.4944 51.3185 49.2355C51.2352 50.0305 51.1641 50.8224 51.0799 51.6204C51.024 52.1849 50.9601 52.7494 50.9063 53.3199C50.8596 53.8093 50.82 54.3068 50.759 54.7951C50.7479 54.8672 50.7793 54.8966 50.8382 54.8814C50.9925 54.8702 51.1499 54.8611 51.3022 54.8499C51.5885 54.8286 51.8708 54.8164 52.1571 54.7951L53.4383 54.6997C53.7135 54.6794 53.9937 54.6682 54.2698 54.6479C54.6759 54.6205 55.0902 54.5789 55.4881 54.5525C55.6577 54.5413 55.6577 54.5413 55.678 54.3697C55.7382 53.8093 55.8012 53.2506 55.8668 52.6935C55.9399 52.0052 56.0151 51.3239 56.0882 50.6406C56.1897 49.6863 56.2912 48.7279 56.3927 47.7806C56.4679 47.0699 56.54 46.3643 56.6293 45.6486C56.6901 44.9954 56.8464 44.3547 57.0933 43.747C57.2587 43.3426 57.5 42.9735 57.804 42.6596C58.3244 42.1796 59.0027 41.9069 59.7106 41.8931C59.6984 41.9205 59.6923 41.9408 59.6862 41.952C59.1616 42.8706 58.7899 43.8684 58.5857 44.9064C58.4803 45.4296 58.4054 45.9584 58.3613 46.4902C58.2964 47.139 58.205 47.7776 58.1857 48.4355C58.1569 49.0532 58.2091 49.672 58.341 50.2762C58.4867 50.9748 58.8003 51.6275 59.2548 52.1778C59.7904 52.8041 60.4885 53.2707 61.2721 53.526C62.2554 53.847 63.2836 54.0087 64.3179 54.0052C64.5549 54.0135 64.7922 54.0081 65.0286 53.989C65.4519 53.9799 65.8824 53.9514 66.3088 53.9149C67.0239 53.8505 67.7343 53.7417 68.4358 53.589C69.881 53.2995 71.2613 52.749 72.509 51.9645C73.1677 51.5364 73.768 51.0244 74.2949 50.4416C75.0309 49.6289 75.6155 48.6908 76.0208 47.672C76.0826 47.5422 76.13 47.406 76.162 47.2659M51.153 45.6202C51.1428 45.5389 51.1347 45.4689 51.1286 45.4059C51.1052 44.8477 51.0026 44.2957 50.824 43.7663C50.6301 43.1728 50.2743 42.6454 49.7966 42.2434C49.1189 41.7076 48.2797 41.417 47.4158 41.419C46.795 41.3961 46.1737 41.4444 45.5639 41.5631C44.5074 41.7339 43.486 42.0769 42.5405 42.5784C41.4539 43.1539 40.5542 44.0278 39.9475 45.0973C39.389 46.1123 39.0435 47.2306 38.9322 48.3837C38.8784 48.8325 38.849 49.2731 38.8175 49.7147C38.7942 50.0883 38.7769 50.4609 38.7546 50.8315C38.7434 51.0021 38.7718 51.1777 38.7769 51.3483C38.7919 52.0194 38.9296 52.6821 39.183 53.3037C39.4841 54.0499 40.0488 54.6594 40.7699 55.0165C41.3997 55.3102 42.0824 55.4736 42.777 55.4967C43.1796 55.5185 43.5832 55.5138 43.9852 55.4825C44.8354 55.4258 45.674 55.255 46.4787 54.9748C47.4394 54.6404 48.3033 54.0753 48.9945 53.3291C49.8557 52.3628 50.4478 51.1871 50.7113 49.9198C50.7113 49.8995 50.7235 49.8721 50.6707 49.8508C50.4443 49.8772 50.1935 49.9076 49.9418 49.935C49.3935 49.998 48.8473 50.0579 48.298 50.1269C47.4026 50.2284 46.5051 50.3493 45.6076 50.4579C45.5142 50.4681 45.4878 50.4833 45.4787 50.5787C45.452 51.0192 45.349 51.4518 45.1741 51.8569C45.1143 52.0248 45.0187 52.1776 44.8939 52.3047C44.769 52.4319 44.618 52.5302 44.4512 52.593C44.3469 52.6442 44.2323 52.6709 44.1162 52.6711C44 52.6713 43.8853 52.645 43.7808 52.5942C43.6764 52.5434 43.5849 52.4694 43.5133 52.3779C43.4418 52.2864 43.392 52.1797 43.3679 52.0661C43.3067 51.8505 43.2726 51.6281 43.2664 51.4041C43.2542 50.9635 43.3182 50.5259 43.3486 50.0843C43.372 49.7269 43.4024 49.3736 43.437 49.0122C43.4796 48.5248 43.5263 48.0385 43.5659 47.5512C43.6025 47.1451 43.6177 46.739 43.6867 46.3329C43.7367 45.9377 43.8621 45.5558 44.0563 45.2079C44.1572 45.0134 44.3117 44.8518 44.5015 44.7423C44.6913 44.6327 44.9084 44.5798 45.1274 44.5897C45.2353 44.5898 45.3413 44.6187 45.4344 44.6733C45.5275 44.7279 45.6045 44.8062 45.6573 44.9003C45.7384 45.0279 45.7904 45.1717 45.8096 45.3217C45.8661 45.594 45.8811 45.8733 45.8543 46.1501C45.8371 46.2585 45.8412 46.3692 45.8665 46.476C47.632 46.1928 49.3874 45.9075 51.1459 45.6252" fill="black"/>
<path fill-rule="evenodd" clip-rule="evenodd" d="M78.7113 78.4233C78.69 78.3654 78.6321 78.3492 78.5854 78.3218C75.6838 76.5193 72.7825 74.7186 69.8816 72.9195C69.8372 72.8837 69.7818 72.8641 69.7247 72.8641C69.6676 72.8641 69.6123 72.8837 69.5679 72.9195C67.4043 74.2394 65.2368 75.5501 63.0763 76.8669C63.0174 76.8994 62.9585 76.937 62.8823 76.9796C62.8549 76.7187 62.8265 76.4781 62.795 76.2435C62.7158 75.4496 62.6255 74.6607 62.5412 73.8678C62.46 73.1135 62.3838 72.3601 62.3026 71.6048C62.2214 70.8494 62.1382 70.1022 62.059 69.358C61.9899 68.7234 61.924 68.0848 61.8559 67.4462C61.7879 66.8076 61.7148 66.1731 61.6478 65.5335C61.5808 64.8939 61.5128 64.2603 61.4447 63.6207C61.4285 63.4237 61.4062 63.2258 61.3828 63.0298C61.5197 63.014 61.6577 63.012 61.795 63.0238C62.6732 63.0238 63.5504 63.0187 64.4266 63.0339C64.7129 63.039 64.9982 63.0715 65.2845 63.0715C65.9211 63.077 66.5538 62.9705 67.1536 62.7567C67.2277 62.7263 67.3109 62.7263 67.385 62.7567C68.1885 63.0515 69.0482 63.1605 69.8998 63.0755C70.1608 63.0552 70.4207 63.0664 70.6846 63.0755C71.1263 63.0897 71.5669 63.0897 72.0146 63.0958C72.1033 63.0898 72.1923 63.0973 72.2786 63.1182C72.238 63.4156 72.2045 63.708 72.1609 64.0025C72.0664 64.6939 71.973 65.3812 71.8786 66.0746C71.8441 66.3396 71.8055 66.6005 71.7689 66.8665C71.7557 67.0178 71.7557 67.0178 71.9009 67.0229C72.7253 67.0493 73.5528 67.0736 74.3822 67.1132C75.1041 67.1386 75.8249 67.1762 76.5437 67.2016C76.7468 67.2178 76.9499 67.2178 77.159 67.2178C77.2023 67.2156 77.2454 67.2251 77.2839 67.2452C77.3509 67.8036 77.423 68.362 77.4981 68.9113C77.5773 69.5296 77.6626 70.1418 77.7458 70.7591C77.8473 71.4697 77.9306 72.1804 78.0281 72.8799C78.1083 73.4891 78.1895 74.1064 78.2687 74.7074C78.3651 75.411 78.4565 76.1075 78.5489 76.8121C78.6159 77.3065 78.6788 77.7949 78.7519 78.2913C78.7519 78.334 78.7519 78.3766 78.7519 78.4193L78.7113 78.4233ZM67.5099 69.3956C67.5678 69.3478 67.5932 69.3275 67.6114 69.3052C67.9048 69.0077 68.2023 68.7194 68.4937 68.4148C68.5216 68.3836 68.5587 68.3622 68.5996 68.3536C68.6405 68.345 68.6831 68.3498 68.7211 68.3671C69.0257 68.4859 69.3394 68.5894 69.6511 68.6981C69.7029 68.7184 69.7526 68.76 69.8267 68.7346C69.8501 68.7072 69.8267 68.6808 69.8267 68.6635C69.7181 68.2209 69.6237 67.7752 69.5039 67.3437C69.4898 67.2968 69.4861 67.2475 69.4931 67.1991C69.5002 67.1507 69.5177 67.1044 69.5445 67.0635C69.773 66.6838 69.9993 66.3051 70.2207 65.9213C70.2657 65.8712 70.2931 65.8077 70.2988 65.7406L70.0775 65.7579C69.7516 65.8056 69.4227 65.8421 69.0988 65.8908C69.0615 65.9029 69.0209 65.9002 68.9855 65.8834C68.95 65.8666 68.9223 65.837 68.9079 65.8005C68.7171 65.4543 68.5211 65.1152 68.3282 64.771C68.31 64.7345 68.3008 64.6817 68.248 64.6695C68.2115 64.6857 68.2165 64.7213 68.2064 64.7487C68.0835 65.2086 67.9587 65.6624 67.8399 66.1183C67.8306 66.169 67.8087 66.2167 67.776 66.2566C67.7433 66.2966 67.701 66.3276 67.6531 66.3467C67.3566 66.4919 67.0622 66.6391 66.7667 66.7894C66.7038 66.8218 66.6277 66.833 66.581 66.9011C66.5891 66.9112 66.5942 66.9234 66.6033 66.9345C66.8185 67.1153 67.0348 67.2899 67.247 67.4767C67.3566 67.566 67.516 67.63 67.5515 67.765C67.5761 67.9112 67.5761 68.0605 67.5515 68.2067C67.5373 68.5833 67.519 68.9742 67.5018 69.3996" fill="black"/>
<path fill-rule="evenodd" clip-rule="evenodd" d="M71.9516 33.3241C71.8622 33.3302 71.778 33.3444 71.6907 33.3505C69.2987 33.4405 66.9407 33.9459 64.7219 34.8439C64.4869 34.9224 64.2442 34.9758 63.998 35.0033C63.267 35.1191 62.532 35.2064 61.8111 35.3434C60.8014 35.4974 59.8075 35.7417 58.8415 36.0734C58.3061 36.2542 57.7615 36.4064 57.21 36.5293C57.1908 36.532 57.1713 36.532 57.1521 36.5293C57.0323 35.6886 56.9084 34.8429 56.7876 34.0013L56.4363 31.5463C56.3165 30.724 56.1947 29.9057 56.08 29.0833C55.9784 28.3493 55.8708 27.6203 55.7632 26.8893C55.6556 26.1583 55.553 25.407 55.4434 24.6679C55.3957 24.3065 55.3419 23.943 55.2891 23.5613C55.4718 23.6344 55.6322 23.7044 55.7886 23.7735C57.8766 24.6534 59.9617 25.5333 62.0436 26.4131C62.2061 26.4812 62.2061 26.4812 62.3198 26.3522C64.7862 23.5995 67.2543 20.8447 69.7241 18.088C69.7566 18.0494 69.7891 18.0108 69.8419 17.958C69.8883 18.1147 69.9166 18.2761 69.9261 18.4392C70.0419 19.2372 70.1485 20.0383 70.2531 20.8393C70.3627 21.6191 70.4642 22.3917 70.5698 23.1673C70.6754 23.943 70.783 24.7065 70.8856 25.4811C70.9871 26.1675 71.0785 26.8548 71.1648 27.536C71.2724 28.3097 71.381 29.0853 71.4866 29.864C71.58 30.5514 71.6724 31.2336 71.7648 31.921C71.8196 32.3271 71.8785 32.7332 71.9323 33.1393C71.9427 33.2005 71.9498 33.2621 71.9536 33.3241M62.5289 33.0266C62.599 33.0266 62.6142 32.9931 62.6386 32.9677C62.934 32.6794 63.2254 32.3921 63.5107 32.0976C63.5375 32.0647 63.5747 32.0418 63.6161 32.0326C63.6575 32.0234 63.7009 32.0284 63.7391 32.0469C64.0589 32.1697 64.3818 32.2753 64.7057 32.387C64.7503 32.4032 64.7909 32.4398 64.8539 32.4032C64.8468 32.3657 64.8437 32.323 64.8356 32.2814C64.7341 31.8753 64.6326 31.4611 64.531 31.0509C64.5124 30.9963 64.5068 30.9381 64.5147 30.881C64.5226 30.8238 64.5439 30.7694 64.5767 30.7219C64.8031 30.3483 65.0204 29.9757 65.2427 29.598C65.2864 29.5465 65.3131 29.4826 65.3189 29.4153C64.9189 29.463 64.5259 29.5056 64.1351 29.5676C64.092 29.5804 64.0457 29.5772 64.0048 29.5585C63.964 29.5399 63.9312 29.507 63.9127 29.4661C63.732 29.1199 63.5361 28.7899 63.3472 28.4508C63.3269 28.4142 63.3178 28.3493 63.2528 28.3391C63.2356 28.3868 63.2183 28.4295 63.2071 28.4772C63.0944 28.9046 62.9787 29.3249 62.87 29.7554C62.8605 29.8159 62.8359 29.873 62.7984 29.9214C62.761 29.9699 62.7119 30.0081 62.6558 30.0326C62.3381 30.1767 62.0304 30.3372 61.7177 30.4905C61.6781 30.5108 61.6233 30.5219 61.5979 30.592C61.6629 30.6438 61.7208 30.6935 61.7827 30.7443C62.0172 30.9423 62.2497 31.1382 62.4863 31.3311C62.5236 31.3569 62.5529 31.3926 62.5709 31.4343C62.5888 31.4759 62.5947 31.5218 62.5878 31.5666C62.5594 32.056 62.5462 32.5413 62.5279 33.0307" fill="black"/>
<path fill-rule="evenodd" clip-rule="evenodd" d="M87.2652 32.9086C87.2327 33.1391 87.1952 33.3665 87.1556 33.6193C87.2754 33.5401 87.3789 33.4823 87.4784 33.4244C88.2295 32.9627 89.0255 32.5783 89.8542 32.2771C90.8099 31.9487 91.7933 31.7068 92.7923 31.5543C93.4482 31.4406 94.102 31.3604 94.767 31.3076C95.3043 31.2587 95.8443 31.2462 96.3833 31.27C97.2646 31.2879 98.1385 31.4364 98.9763 31.7106C99.5692 31.9032 100.123 32.201 100.61 32.5898C101.26 33.1169 101.752 33.8137 102.031 34.6031C102.27 35.2784 102.403 35.9867 102.424 36.7027C102.451 37.8177 102.342 38.9318 102.1 40.0206C101.971 40.6754 101.843 41.3404 101.7 41.9902C101.448 43.1921 101.035 44.3548 100.474 45.4472C100.012 46.3495 99.4352 47.1877 98.757 47.9407C97.8201 48.9674 96.7118 49.8235 95.4817 50.4707C94.4263 51.025 93.3097 51.4539 92.1547 51.7489C91.3042 51.9733 90.4401 52.1429 89.5678 52.2566C89.112 52.3216 88.6541 52.3581 88.1952 52.3906C87.6211 52.44 87.0441 52.4451 86.4692 52.4058C85.7189 52.3656 84.9798 52.2051 84.2803 51.9307C84.2407 51.9144 84.2042 51.8769 84.1433 51.8931C84.1037 52.1662 84.063 52.4383 84.0234 52.7134C83.93 53.3744 83.8346 54.0394 83.7402 54.6993C83.6458 55.3592 83.5635 56.0192 83.4681 56.6699C83.3341 57.6131 83.2042 58.5594 83.062 59.4985C82.9696 60.1584 82.8813 60.8183 82.7869 61.4691C82.7087 62.0509 82.6214 62.6346 82.5381 63.2164C82.4944 63.521 82.4528 63.8306 82.4132 64.1393C82.396 64.2662 82.3919 64.2753 82.265 64.2712C81.8731 64.2438 81.4833 64.2713 81.0914 64.2611C80.2792 64.2245 79.4741 64.2388 78.6679 64.2144C77.8618 64.19 77.0435 64.2032 76.2415 64.1768C75.7998 64.1657 75.3602 64.1768 74.9216 64.1596C74.8688 64.1098 74.8973 64.0682 74.9074 64.0317C74.9978 63.3717 75.0952 62.7169 75.1896 62.06C75.2912 61.3209 75.3927 60.5747 75.4942 59.8345C75.6059 59.0792 75.7115 58.3269 75.8171 57.5705C75.8983 56.9948 75.9795 56.4141 76.0618 55.8445C76.1633 55.0872 76.276 54.3369 76.3816 53.5815C76.474 52.9185 76.5653 52.2617 76.6547 51.6078C76.7867 50.6758 76.9248 49.7448 77.0517 48.8128C77.1603 48.0564 77.2608 47.3051 77.3684 46.5488C77.476 45.7924 77.5806 45.0522 77.6882 44.307C77.7958 43.5618 77.8913 42.8197 77.9999 42.0806C78.1014 41.3222 78.2172 40.5668 78.3217 39.8165C78.403 39.2409 78.4822 38.6591 78.5603 38.0845C78.669 37.3342 78.7776 36.5768 78.8852 35.8204C78.936 35.4691 78.9928 35.1097 79.0314 34.7564C79.03 34.7111 79.0467 34.667 79.0777 34.6339C79.1087 34.6008 79.1516 34.5814 79.1969 34.5798C79.9513 34.4275 80.7036 34.262 81.4538 34.1016L84.5646 33.4467C85.4144 33.265 86.2662 33.0833 87.1119 32.9076C87.1606 32.8891 87.2145 32.8891 87.2632 32.9076M90.8572 38.2561C90.8752 37.9968 90.8464 37.7365 90.7719 37.4875C90.7113 37.238 90.5735 37.0141 90.378 36.8476C90.1826 36.6811 89.9395 36.5807 89.6836 36.5606C89.4178 36.5365 89.15 36.5516 88.8886 36.6052C88.4054 36.6838 87.9482 36.8778 87.5559 37.1706C87.1635 37.4635 86.8475 37.8466 86.6347 38.2875C86.3276 38.9197 86.1269 39.5982 86.0408 40.2957C85.8885 41.247 85.7261 42.2004 85.5748 43.1547C85.4093 44.1832 85.2062 45.1995 85.0936 46.2391C85.0456 46.5977 85.0608 46.9619 85.1382 47.3153C85.1843 47.6237 85.3404 47.9051 85.5778 48.1074C85.8152 48.3097 86.1178 48.4193 86.4296 48.4158C86.6718 48.4358 86.9156 48.4235 87.1546 48.3793C87.8112 48.2781 88.4077 47.9392 88.8308 47.427C89.1848 46.9774 89.4407 46.4586 89.5821 45.9041C89.6846 45.5133 89.7649 45.117 89.8227 44.7172C89.9587 43.8888 90.111 43.0715 90.2551 42.245C90.3993 41.4186 90.5465 40.5709 90.6877 39.7353C90.7971 39.2497 90.8546 38.7538 90.8593 38.2561" fill="white"/>
<path fill-rule="evenodd" clip-rule="evenodd" d="M76.1708 47.2847C76.1388 47.4249 76.0915 47.5611 76.0297 47.6908C75.6244 48.7097 75.0398 49.6477 74.3037 50.4605C73.7769 51.0433 73.1766 51.5552 72.5179 51.9834C71.2701 52.7679 69.8898 53.3184 68.4446 53.6078C67.7431 53.7605 67.0327 53.8693 66.3176 53.9337C65.8912 53.9702 65.4607 53.9976 65.0374 54.0078C64.801 54.0269 64.5637 54.0323 64.3267 54.024C63.2924 54.0275 62.2642 53.8658 61.2809 53.5448C60.4973 53.2895 59.7993 52.823 59.2636 52.1966C58.8091 51.6463 58.4955 50.9936 58.3499 50.295C58.2181 49.6908 58.1658 49.072 58.1945 48.4543C58.2138 47.7964 58.3052 47.1578 58.3702 46.5091C58.4142 45.9772 58.4891 45.4484 58.5945 44.9252C58.7986 43.8872 59.1703 42.8894 59.6951 41.9708C59.7012 41.9596 59.7073 41.9383 59.7195 41.9119C59.0116 41.9257 58.3332 42.1984 57.8128 42.6784C57.5088 42.9923 57.2676 43.3614 57.1021 43.7658C56.8552 44.3735 56.6989 45.0142 56.6381 45.6674C56.5488 46.3781 56.4767 47.0888 56.4016 47.7995C56.3 48.7477 56.1985 49.7051 56.097 50.6605C56.0239 51.3427 55.9488 52.025 55.8757 52.7133C55.808 53.2717 55.745 53.8305 55.6868 54.3895C55.6665 54.5611 55.6665 54.5611 55.497 54.5723C55.0909 54.5987 54.6848 54.6403 54.2786 54.6677C54.0015 54.688 53.7223 54.6992 53.4471 54.7195L52.1659 54.815C51.8796 54.8373 51.5973 54.8485 51.311 54.8698L50.847 54.9012C50.7882 54.9114 50.7567 54.886 50.7679 54.815C50.8288 54.3266 50.8694 53.8301 50.9151 53.3398C50.9679 52.7692 51.0318 52.2047 51.0887 51.6402C51.173 50.8422 51.244 50.0503 51.3273 49.2553C51.4034 48.5142 51.4755 47.7792 51.5527 47.0339C51.642 46.1689 51.7293 45.308 51.8156 44.4308C51.8887 43.6947 51.9669 42.9536 52.039 42.2124C52.0928 41.6033 52.1639 41.0093 52.2187 40.4012C52.2268 40.3108 52.2623 40.2905 52.3385 40.2743C52.7212 40.1961 53.103 40.1027 53.4867 40.0245C54.234 39.8702 54.9873 39.7098 55.7396 39.5555C56.2259 39.4489 56.7082 39.3423 57.1955 39.2428C57.2408 39.2402 57.2859 39.2348 57.3305 39.2265C57.3332 39.396 57.3257 39.5656 57.3082 39.7342C57.4625 39.6408 57.6128 39.5453 57.7529 39.4529C58.5281 38.9672 59.3866 38.6292 60.2849 38.456C60.8352 38.3463 61.3916 38.2285 61.9449 38.1331C62.0464 38.1219 62.153 38.1057 62.282 38.0854C62.2718 38.457 62.1957 38.8194 62.1672 39.2022C62.2422 39.1871 62.3107 39.1492 62.3632 39.0935C63.2608 38.4712 64.236 37.9688 65.2638 37.5991C66.4298 37.1743 67.6326 36.8582 68.8568 36.6549C69.4726 36.5425 70.0942 36.4656 70.7188 36.4244C71.2022 36.3872 71.6876 36.3821 72.1716 36.4092C72.9862 36.4356 73.7892 36.61 74.5413 36.9239C75.1058 37.1642 75.6093 37.5276 76.0151 37.9877C76.4209 38.4478 76.7187 38.9928 76.8865 39.5829C77.0473 40.1392 77.1397 40.713 77.1617 41.2916C77.1745 42.1581 77.1003 43.0237 76.9403 43.8754C76.8693 44.3354 76.7942 44.7892 76.7373 45.2562C76.7261 45.3405 76.6946 45.3638 76.6124 45.3719C75.7819 45.4735 74.9545 45.5912 74.1311 45.7029C73.4133 45.7933 72.7006 45.8826 71.9919 45.975C71.2833 46.0674 70.5787 46.1649 69.8762 46.2623C69.267 46.3375 68.6578 46.4167 68.0487 46.4908C67.4243 46.571 66.8101 46.6563 66.1867 46.7426C65.8689 46.7852 65.5491 46.8268 65.2293 46.8644C65.1521 46.8705 65.1166 46.8918 65.1064 46.9872C65.0435 47.4949 64.9745 48.0147 64.9186 48.5376C64.8727 48.9184 64.8985 49.3044 64.9947 49.6757C65.0408 49.9169 65.1728 50.1333 65.3662 50.2847C65.5596 50.4361 65.8013 50.5122 66.0466 50.499C66.505 50.5141 66.9547 50.3707 67.3197 50.0929C67.632 49.836 67.8648 49.4955 67.9908 49.1112C68.0849 48.866 68.1486 48.6103 68.1806 48.3497C68.1938 48.2655 68.2172 48.2076 68.338 48.1974C68.6954 48.17 69.0487 48.1162 69.4061 48.0685C69.9137 48.0106 70.4213 47.9457 70.929 47.8888C71.4031 47.834 71.8803 47.7802 72.3503 47.7274C73.0502 47.6428 73.7511 47.5575 74.453 47.4715C74.9393 47.4187 75.4357 47.3609 75.9241 47.3142C76.0053 47.3091 76.0865 47.2603 76.1698 47.3091M68.9949 42.1109C69.0076 41.7852 68.9679 41.4595 68.8771 41.1464C68.8345 40.9635 68.7359 40.7984 68.595 40.6741C68.4542 40.5499 68.2781 40.4725 68.0913 40.453C67.7797 40.4182 67.4643 40.4592 67.1719 40.5725C66.8795 40.6858 66.6188 40.868 66.4121 41.1038C66.1133 41.4527 65.8949 41.8631 65.7724 42.3059C65.64 42.8088 65.5474 43.3214 65.4953 43.8389C65.4811 43.9242 65.5044 43.9455 65.5968 43.9293C66.2141 43.8338 66.8303 43.7435 67.4497 43.647C67.8862 43.579 68.3197 43.5059 68.7553 43.4348C68.8264 43.4237 68.8568 43.3983 68.871 43.3333C68.939 42.9303 68.9804 42.5234 68.9949 42.115" fill="white"/>
<path fill-rule="evenodd" clip-rule="evenodd" d="M51.1592 45.6391C49.3967 45.9213 47.6403 46.2066 45.8798 46.4899C45.8546 46.3831 45.8504 46.2723 45.8676 46.1639C45.8944 45.8871 45.8794 45.6078 45.823 45.3355C45.8037 45.1856 45.7517 45.0417 45.6707 44.9142C45.6178 44.8201 45.5408 44.7417 45.4477 44.6871C45.3546 44.6325 45.2486 44.6037 45.1407 44.6035C44.9218 44.5936 44.7046 44.6466 44.5148 44.7561C44.325 44.8657 44.1705 45.0273 44.0696 45.2218C43.8755 45.5696 43.75 45.9515 43.7 46.3467C43.631 46.7528 43.6148 47.1589 43.5792 47.565C43.5396 48.0523 43.4929 48.5397 43.4503 49.026C43.4158 49.3834 43.3853 49.7367 43.362 50.0981C43.3315 50.5397 43.2676 50.9773 43.2797 51.418C43.2859 51.642 43.32 51.8643 43.3813 52.0799C43.4054 52.1935 43.4551 52.3002 43.5266 52.3917C43.5982 52.4832 43.6897 52.5572 43.7942 52.608C43.8986 52.6589 44.0133 52.6852 44.1295 52.6849C44.2457 52.6847 44.3603 52.658 44.4645 52.6068C44.6313 52.5441 44.7824 52.4457 44.9072 52.3186C45.0321 52.1915 45.1277 52.0386 45.1874 51.8708C45.3623 51.4656 45.4654 51.033 45.492 50.5925C45.5011 50.4971 45.5275 50.4819 45.6209 50.4717C46.5184 50.3631 47.4159 50.2464 48.3114 50.1408C48.8606 50.0717 49.4069 50.0118 49.9551 49.9489C50.2069 49.9214 50.4577 49.891 50.6841 49.8646C50.7369 49.8849 50.7287 49.9123 50.7247 49.9336C50.4611 51.2009 49.8691 52.3766 49.0079 53.3429C48.3166 54.0892 47.4527 54.6543 46.492 54.9887C45.6874 55.2688 44.8487 55.4396 43.9985 55.4963C43.5966 55.5276 43.193 55.5324 42.7904 55.5105C42.0958 55.4875 41.413 55.3241 40.7832 55.0303C40.0622 54.6732 39.4974 54.0637 39.1963 53.3175C38.9429 52.6959 38.8052 52.0332 38.7902 51.3621C38.7902 51.1915 38.7567 51.0169 38.7679 50.8454C38.7902 50.4717 38.8075 50.0991 38.8308 49.7286C38.8623 49.2869 38.8907 48.8463 38.9456 48.3975C39.0568 47.2444 39.4023 46.1261 39.9608 45.1111C40.5675 44.0416 41.4672 43.1677 42.5538 42.5923C43.4993 42.0907 44.5207 41.7477 45.5773 41.577C46.187 41.4582 46.8083 41.4098 47.4291 41.4328C48.293 41.4308 49.1322 41.7214 49.8099 42.2572C50.2876 42.6592 50.6435 43.1867 50.8374 43.7801C51.016 44.3095 51.1185 44.8615 51.1419 45.4197C51.148 45.4827 51.1561 45.5527 51.1663 45.634" fill="white"/>
<path fill-rule="evenodd" clip-rule="evenodd" d="M63.6877 56.4161C63.709 56.4273 63.7314 56.4161 63.7537 56.406C64.243 56.0951 64.8096 55.9277 65.3893 55.9227C65.7113 55.8947 66.0357 55.9066 66.3548 55.9583C66.5722 55.9819 66.7818 56.0521 66.9696 56.1641C67.1574 56.276 67.319 56.4271 67.4432 56.607C67.5447 56.5177 67.63 56.4273 67.7254 56.3461C68.0456 56.0882 68.4202 55.9063 68.8209 55.8141C69.2725 55.7022 69.7376 55.654 70.2026 55.6709C70.652 55.665 71.0951 55.7766 71.488 55.9948C71.5092 56.0052 71.5317 56.0127 71.555 56.0171C71.5712 55.9105 71.5946 55.8141 71.6017 55.7126C71.6098 55.6364 71.6392 55.6212 71.7032 55.6212C71.9316 55.611 72.1611 55.5897 72.3895 55.5897C72.4972 55.5846 72.5236 55.543 72.5378 55.4506C72.5814 55.1075 72.6312 54.7734 72.6779 54.4354C72.6941 54.2861 72.6971 54.2973 72.8535 54.2861C73.4149 54.2556 73.9703 54.2221 74.551 54.1846C74.5572 54.3615 74.5415 54.5384 74.5043 54.7115C74.4789 54.9146 74.4404 55.1176 74.414 55.3146C74.3886 55.4679 74.3937 55.4679 74.551 55.4679C74.7084 55.4679 74.883 55.4476 75.0505 55.4364C75.1388 55.4313 75.2241 55.4364 75.3267 55.4364C75.2647 55.8486 75.2089 56.2486 75.151 56.6547C75.1388 56.7055 75.1104 56.7055 75.0708 56.7116C74.945 56.7167 74.8221 56.7288 74.6972 56.7288C74.5551 56.7177 74.414 56.7481 74.2718 56.7481C74.1997 56.7481 74.1896 56.7897 74.1825 56.8405C74.1074 57.3624 74.0281 57.8842 73.952 58.4071C73.8759 58.9299 73.8038 59.4721 73.7246 60.0051C73.7154 60.0792 73.6972 60.1219 73.6038 60.132C73.0748 60.1736 72.5469 60.132 72.0179 60.1635C71.8514 60.1747 71.8545 60.1635 71.8799 60C71.9753 59.334 72.0707 58.6609 72.1641 57.9898C72.219 57.6131 72.2748 57.2253 72.3306 56.8314C72.2484 56.8314 72.1743 56.8314 72.087 56.8415C72.0931 56.9644 72.0981 57.0822 72.1052 57.1979C71.8486 57.2299 71.5902 57.2458 71.3316 57.2456C70.9407 57.268 70.5509 57.2771 70.16 57.2872C69.9712 57.2933 69.9945 57.2821 69.9945 57.1299V57.0547C70.0037 56.9004 69.9803 56.7501 69.8311 56.6872C69.7557 56.6477 69.6709 56.6298 69.586 56.6353C69.5011 56.6409 69.4194 56.6697 69.3498 56.7187C69.2439 56.7929 69.1655 56.8999 69.1265 57.0232C69.0556 57.2615 69.0123 57.5071 68.9975 57.7553C68.9478 58.1065 68.9031 58.4568 68.8584 58.803C68.8437 58.9151 68.8643 59.029 68.9173 59.1289C68.9387 59.1768 68.9729 59.218 69.016 59.2479C69.0591 59.2777 69.1096 59.2953 69.162 59.2985C69.29 59.318 69.4206 59.2888 69.5283 59.2169C69.6359 59.1449 69.7128 59.0353 69.7437 58.9096C69.7509 58.8924 69.7509 58.871 69.761 58.8619C69.7965 58.7776 69.7712 58.6589 69.8432 58.6274C69.9153 58.5959 70.0189 58.6111 70.1042 58.605C70.5539 58.5786 71.0088 58.5736 71.4616 58.5675C71.6053 58.5542 71.7498 58.5494 71.8941 58.5533C71.8917 58.6569 71.8604 58.7578 71.8037 58.8446C71.6746 59.1352 71.4828 59.3935 71.2419 59.601C71.0011 59.8085 70.7172 59.96 70.4108 60.0447C69.6784 60.276 68.8989 60.3159 68.1467 60.1604C67.9291 60.1273 67.7205 60.0499 67.5338 59.9331C67.3472 59.8163 67.1864 59.6625 67.0614 59.4812C66.9169 59.6332 66.7566 59.7693 66.5832 59.8873C66.2794 60.0709 65.9429 60.194 65.5923 60.2498C65.0464 60.3476 64.4869 60.3407 63.9436 60.2295C63.5921 60.1614 63.2752 59.9733 63.0471 59.6975C62.8614 59.452 62.7638 59.1513 62.7699 58.8436C62.7549 58.3097 62.8428 57.7778 63.0288 57.2771C63.0359 57.2679 63.0288 57.2517 63.0288 57.2405C62.7872 57.2212 62.7831 57.2212 62.7567 57.4436C62.6745 58.1055 62.5983 58.7634 62.5171 59.4203C62.4876 59.6762 62.4481 59.935 62.4156 60.1929C62.4085 60.266 62.3912 60.3046 62.3141 60.3097C61.8409 60.3422 61.3688 60.3249 60.8856 60.33C60.879 60.201 60.891 60.0718 60.9211 59.9462C61.0226 59.1005 61.1241 58.2578 61.2307 57.4172C61.248 57.3085 61.2369 57.2943 61.1292 57.3045C61.0873 57.3002 61.0451 57.3091 61.0084 57.3299C61.0651 57.8928 61.0085 58.4613 60.8419 59.002C60.7609 59.2824 60.614 59.5394 60.4133 59.7513C60.2127 59.9633 59.9641 60.1241 59.6886 60.2203C59.056 60.4559 58.3663 60.4914 57.7129 60.3219C57.4175 60.2697 57.151 60.1125 56.9624 59.8792C56.7737 59.646 56.6757 59.3525 56.6864 59.0528C56.6636 58.5614 56.7324 58.0701 56.8895 57.604C56.925 57.5086 56.9758 57.4131 57.0195 57.3157C57.0377 57.2781 57.0733 57.2426 57.0286 57.205C57.0286 57.2162 57.0144 57.2527 57.0519 57.2314C57.042 57.2215 57.0312 57.2127 57.0195 57.205C56.8728 57.271 56.7475 57.3767 56.6578 57.5102C56.5681 57.6437 56.5175 57.7996 56.5118 57.9603C56.4651 58.2751 56.4336 58.601 56.3961 58.9188C56.3463 59.3787 56.2945 59.8416 56.2478 60.3056C56.2397 60.3899 56.2133 60.4275 56.126 60.4224C56.0387 60.4173 55.9504 60.4275 55.8641 60.4224C55.5697 60.4072 55.2803 60.4548 54.9879 60.4498C54.8722 60.4447 54.8579 60.4325 54.8721 60.3168C54.9016 60.0559 54.9331 59.7838 54.9554 59.5046C54.8177 59.7622 54.6304 59.9899 54.4041 60.1746C54.1555 60.3499 53.866 60.4582 53.5635 60.4894C53.261 60.5395 52.9505 60.4952 52.6741 60.3625C52.6274 60.5848 52.6254 60.798 52.5969 61.0112C52.5685 61.2244 52.5472 61.4265 52.53 61.6397C52.5198 61.7077 52.5015 61.7351 52.4284 61.7351H51.3116C51.2921 61.7325 51.2735 61.7248 51.2578 61.7128C51.3299 60.9848 51.402 60.2467 51.4761 59.5188C51.5502 58.7908 51.6223 58.0751 51.6974 57.3563C51.7188 57.1654 51.7431 56.9776 51.7583 56.7887C51.7583 56.7166 51.7786 56.6872 51.8538 56.6801C52.1969 56.6639 52.5391 56.6425 52.8751 56.6324C52.9411 56.6324 53.0528 56.5796 53.0579 56.7177C53.0579 56.7461 53.0975 56.7339 53.1178 56.7227C53.4 56.574 53.7214 56.5166 54.0376 56.5583C54.2379 56.554 54.4357 56.6036 54.6102 56.702C54.7848 56.8005 54.9296 56.944 55.0295 57.1177C55.0937 57.2409 55.1483 57.3689 55.193 57.5004C55.2295 57.1958 55.261 56.9095 55.2864 56.6263C55.2864 56.5369 55.3158 56.4943 55.4143 56.4943C55.7565 56.4831 56.0956 56.4577 56.4296 56.4456C56.4852 56.443 56.5404 56.4342 56.5941 56.4192C56.6286 56.4192 56.6641 56.4192 56.6682 56.4588C56.6682 56.5481 56.7149 56.538 56.7809 56.5116C57.0941 56.3764 57.434 56.3142 57.7748 56.3298C57.9169 56.3298 57.9169 56.3298 57.9413 56.4892C58.137 56.4216 58.3367 56.3663 58.5393 56.3237C59.0264 56.2259 59.5286 56.2314 60.0135 56.34C60.2146 56.3925 60.4045 56.4813 60.5739 56.6019C60.6409 56.5258 60.6115 56.4456 60.6206 56.3674C60.6429 56.2232 60.6581 56.209 60.8115 56.1989C60.9648 56.1887 61.1069 56.1877 61.2571 56.1877C61.3881 56.1826 61.3932 56.1826 61.4064 56.0527C61.4429 55.7613 61.4744 55.4608 61.5079 55.1684C61.5282 55.0191 61.5374 55.01 61.6947 54.9988C62.0623 54.9826 62.4369 54.9673 62.8044 54.9288C62.8978 54.9196 62.9872 54.9288 63.0857 54.9288C63.0369 55.3186 62.9841 55.6902 62.9384 56.0841C63.1953 56.0892 63.4461 56.0638 63.709 56.0466C63.7161 56.1806 63.6684 56.2984 63.6867 56.4192C63.6694 56.409 63.6623 56.4192 63.6643 56.4303C63.6643 56.4303 63.6643 56.4415 63.6775 56.4415C63.6907 56.4415 63.6968 56.4304 63.6907 56.4192M58.3444 59.1046H58.3525V59.2C58.3458 59.2751 58.3636 59.3503 58.4031 59.4145C58.4426 59.4787 58.5018 59.5285 58.5718 59.5564C58.6571 59.5783 58.7474 59.5708 58.8279 59.5351C58.9084 59.4993 58.9745 59.4374 59.0155 59.3594C59.0732 59.2598 59.1118 59.1503 59.1292 59.0365C59.1759 58.6304 59.2307 58.2304 59.2723 57.8375C59.2929 57.6886 59.2929 57.5376 59.2723 57.3888C59.2681 57.3162 59.2355 57.2483 59.1815 57.1996C59.1276 57.151 59.0566 57.1255 58.984 57.1288C58.913 57.1246 58.8422 57.14 58.7795 57.1735C58.7167 57.2071 58.6645 57.2573 58.6286 57.3187C58.5808 57.4054 58.5466 57.4989 58.5271 57.5959C58.4947 57.7599 58.4724 57.9256 58.4601 58.0923C58.4165 58.4324 58.384 58.7685 58.3454 59.1076M52.7828 59.2507C52.7828 59.3046 52.7827 59.3523 52.7939 59.3959C52.7982 59.4374 52.8071 59.4782 52.8203 59.5178C52.8338 59.5741 52.8672 59.6237 52.9145 59.6573C52.9617 59.6909 53.0195 59.7063 53.0772 59.7005C53.1386 59.7018 53.1992 59.6867 53.2527 59.6567C53.3063 59.6267 53.3508 59.583 53.3818 59.53C53.437 59.4369 53.4716 59.333 53.4833 59.2254C53.5371 58.7726 53.5848 58.3228 53.6335 57.871C53.6437 57.7794 53.6329 57.6868 53.6021 57.5999C53.5946 57.5648 53.5799 57.5315 53.559 57.5023C53.5381 57.473 53.5113 57.4484 53.4805 57.4299C53.4496 57.4114 53.4153 57.3995 53.3796 57.3948C53.3439 57.3902 53.3077 57.393 53.2731 57.403C53.2101 57.4181 53.1518 57.4489 53.1039 57.4926C53.056 57.5362 53.0199 57.5913 52.999 57.6527C52.9583 57.7499 52.9319 57.8525 52.9208 57.9573C52.9046 58.1197 52.8853 58.2771 52.868 58.4385C52.8396 58.7147 52.8091 58.9898 52.7817 59.2568M66.8695 58.802C66.8695 58.6893 66.8604 58.5888 66.8695 58.4974C66.8838 58.3594 66.8888 58.3593 66.768 58.3593H66.6513L65.6543 58.3959C65.4238 58.3959 65.1923 58.3959 64.9649 58.406C64.6816 58.4172 64.6817 58.4223 64.6603 58.6924C64.6603 58.7259 64.6471 58.7634 64.6441 58.8C64.6282 58.9278 64.6354 59.0575 64.6654 59.1827C64.6754 59.2292 64.6971 59.2723 64.7286 59.3078C64.7601 59.3434 64.8002 59.3703 64.8451 59.3858C64.9417 59.4189 65.0463 59.4201 65.1437 59.3894C65.2411 59.3587 65.3261 59.2977 65.3862 59.2152C65.4379 59.1421 65.4706 59.0573 65.4817 58.9685C65.4949 58.867 65.5527 58.8467 65.6492 58.8467C66.0492 58.8416 66.4523 58.8467 66.8777 58.8041M65.6593 57.6365C65.7085 57.4465 65.7134 57.2479 65.6735 57.0557C65.6606 56.998 65.6302 56.9456 65.5864 56.9058C65.5426 56.8661 65.4876 56.8408 65.4289 56.8334C65.3293 56.8158 65.2267 56.8316 65.1369 56.8782C65.0472 56.9248 64.9753 56.9997 64.9324 57.0913C64.8406 57.2703 64.7962 57.4699 64.8035 57.671C65.0918 57.6659 65.3761 57.6487 65.6593 57.6375" fill="white"/>
<path fill-rule="evenodd" clip-rule="evenodd" d="M67.499 69.3967C67.5172 68.9713 67.5355 68.5844 67.5487 68.2037C67.5732 68.0575 67.5732 67.9083 67.5487 67.7621C67.5081 67.627 67.3457 67.559 67.2441 67.4737C67.033 67.2869 66.8157 67.1123 66.6005 66.9316C66.5913 66.9204 66.5862 66.9082 66.5781 66.8981C66.6238 66.8301 66.701 66.8189 66.7639 66.7864C67.0593 66.6361 67.3538 66.4889 67.6502 66.3437C67.698 66.3245 67.7401 66.2934 67.7726 66.2535C67.8051 66.2135 67.8269 66.166 67.836 66.1153C67.9558 65.6554 68.0797 65.2016 68.2026 64.7457C68.2127 64.7183 68.2025 64.6817 68.2442 64.6665C68.297 64.6827 68.3061 64.7355 68.3244 64.768C68.5173 65.1122 68.7132 65.4523 68.9041 65.7975C68.9185 65.834 68.9462 65.8637 68.9817 65.8805C69.0171 65.8973 69.0576 65.8999 69.095 65.8879C69.4199 65.8402 69.7488 65.8026 70.0737 65.7549L70.295 65.7376C70.2893 65.8048 70.2618 65.8682 70.2168 65.9183C69.9955 66.3031 69.7691 66.6818 69.5407 67.0605C69.5139 67.1014 69.4963 67.1477 69.4893 67.1961C69.4823 67.2445 69.4859 67.2939 69.5 67.3407C69.6158 67.7732 69.7143 68.2179 69.8229 68.6606C69.8229 68.6778 69.8483 68.7042 69.8229 68.7317C69.7539 68.757 69.7001 68.7154 69.6473 68.6941C69.3356 68.5854 69.0229 68.4809 68.7173 68.3631C68.6792 68.3458 68.6366 68.341 68.5957 68.3496C68.5548 68.3582 68.5177 68.3797 68.4899 68.4108C68.1985 68.7154 67.902 69.0027 67.6076 69.3012C67.5843 69.3235 67.5599 69.3439 67.5061 69.3916" fill="white"/>
<path fill-rule="evenodd" clip-rule="evenodd" d="M62.5159 33.028C62.5342 32.5386 62.5484 32.0523 62.5758 31.564C62.5826 31.5191 62.5767 31.4733 62.5587 31.4317C62.5408 31.39 62.5115 31.3543 62.4743 31.3284C62.2377 31.1355 62.0052 30.9396 61.7707 30.7416C61.7098 30.6888 61.6519 30.6401 61.5859 30.5893C61.6123 30.5223 61.6672 30.5111 61.7058 30.4878C62.0185 30.3335 62.3261 30.173 62.6438 30.0299C62.6999 30.0054 62.749 29.9672 62.7864 29.9187C62.8239 29.8703 62.8485 29.8132 62.8581 29.7527C62.9667 29.3223 63.0824 28.9009 63.1951 28.4745C63.2073 28.4268 63.2246 28.3852 63.2408 28.3364C63.3058 28.3476 63.3149 28.4116 63.3352 28.4481C63.5241 28.7831 63.72 29.1141 63.9007 29.4634C63.9193 29.5043 63.952 29.5372 63.9929 29.5558C64.0337 29.5745 64.08 29.5777 64.1231 29.5649C64.514 29.504 64.9069 29.4634 65.3069 29.4126C65.3011 29.4799 65.2744 29.5438 65.2307 29.5954C65.0084 29.972 64.7911 30.3456 64.5637 30.7193C64.5309 30.7667 64.5097 30.8212 64.5017 30.8783C64.4938 30.9354 64.4994 30.9936 64.518 31.0482C64.6195 31.4543 64.7211 31.8696 64.8226 32.2787C64.8307 32.3203 64.8338 32.363 64.8409 32.4005C64.7779 32.4371 64.7393 32.4005 64.6926 32.3843C64.3688 32.2726 64.0459 32.167 63.7261 32.0442C63.6879 32.0257 63.6445 32.0207 63.6031 32.0299C63.5616 32.0391 63.5245 32.062 63.4977 32.0949C63.2124 32.3894 62.921 32.6767 62.6256 32.965C62.6012 32.9904 62.587 33.027 62.5159 33.0239" fill="white"/>
<path fill-rule="evenodd" clip-rule="evenodd" d="M90.8624 38.2599C90.8577 38.7576 90.8002 39.2535 90.6909 39.7391C90.5498 40.5757 90.4036 41.4102 90.2584 42.2488C90.1132 43.0875 89.9629 43.8926 89.8258 44.72C89.768 45.1198 89.6877 45.5161 89.5852 45.9068C89.4442 46.4613 89.1887 46.9801 88.835 47.4298C88.412 47.942 87.8154 48.2809 87.1588 48.3821C86.9198 48.4263 86.676 48.4386 86.4338 48.4186C86.122 48.422 85.8194 48.3125 85.582 48.1102C85.3447 47.9079 85.1885 47.6265 85.1425 47.3181C85.0648 46.9647 85.0497 46.6005 85.0978 46.2419C85.2105 45.2033 85.4135 44.186 85.579 43.1575C85.7303 42.2032 85.8927 41.2508 86.045 40.2985C86.1312 39.601 86.3319 38.9225 86.639 38.2903C86.8518 37.8494 87.1677 37.4663 87.5601 37.1734C87.9524 36.8806 88.4096 36.6866 88.8928 36.608C89.1542 36.5544 89.422 36.5393 89.6878 36.5633C89.9437 36.5835 90.1868 36.6839 90.3822 36.8504C90.5777 37.0169 90.7156 37.2408 90.7762 37.4903C90.8506 37.7393 90.8794 37.9996 90.8614 38.2588" fill="black"/>
<path fill-rule="evenodd" clip-rule="evenodd" d="M68.9957 42.0856C68.9811 42.4939 68.9398 42.9009 68.8718 43.3039C68.8616 43.3739 68.8281 43.3993 68.756 43.4054C68.3205 43.4765 67.887 43.5496 67.4504 43.6176C66.8311 43.7191 66.2148 43.8044 65.5976 43.8998C65.5052 43.9161 65.4818 43.8998 65.496 43.8095C65.5481 43.292 65.6408 42.7794 65.7732 42.2764C65.8957 41.8337 66.1141 41.4233 66.4128 41.0743C66.6195 40.8388 66.88 40.6566 67.1722 40.5433C67.4644 40.43 67.7796 40.3889 68.091 40.4236C68.2779 40.4431 68.4539 40.5204 68.5948 40.6447C68.7356 40.769 68.8342 40.9341 68.8769 41.117C68.968 41.43 69.0081 41.7557 68.9957 42.0815" fill="black"/>
<path fill-rule="evenodd" clip-rule="evenodd" d="M58.3359 59.1059C58.3745 58.7699 58.407 58.4348 58.4496 58.0907C58.4619 57.924 58.4843 57.7582 58.5167 57.5942C58.5361 57.4968 58.5703 57.403 58.6182 57.316C58.6541 57.2546 58.7063 57.2044 58.769 57.1709C58.8318 57.1374 58.9026 57.1219 58.9735 57.1262C59.0461 57.1229 59.1171 57.1483 59.1711 57.1969C59.225 57.2456 59.2577 57.3135 59.2619 57.3861C59.2824 57.535 59.2824 57.686 59.2619 57.8348C59.2213 58.2288 59.1654 58.6278 59.1187 59.0339C59.1013 59.1477 59.0627 59.2572 59.005 59.3567C58.9641 59.4348 58.898 59.4967 58.8175 59.5324C58.7369 59.5682 58.6467 59.5757 58.5613 59.5537C58.4913 59.5258 58.4321 59.476 58.3926 59.4118C58.3531 59.3476 58.3354 59.2724 58.342 59.1973V59.1019L58.3359 59.1059Z" fill="black"/>
<path fill-rule="evenodd" clip-rule="evenodd" d="M52.7734 59.248C52.8008 58.981 52.8313 58.7058 52.8598 58.4297C52.877 58.2683 52.8963 58.1109 52.9126 57.9484C52.9236 57.8437 52.95 57.741 52.9907 57.6438C53.0116 57.5824 53.0477 57.5273 53.0956 57.4837C53.1435 57.44 53.2018 57.4092 53.2648 57.3941C53.2994 57.3841 53.3356 57.3813 53.3713 57.386C53.407 57.3906 53.4413 57.4025 53.4722 57.421C53.503 57.4395 53.5298 57.4641 53.5507 57.4934C53.5716 57.5226 53.5863 57.5559 53.5938 57.591C53.6251 57.6781 53.6363 57.7712 53.6263 57.8631C53.5796 58.3149 53.5298 58.7647 53.476 59.2175C53.4644 59.3252 53.4298 59.429 53.3745 59.5221C53.3436 59.5752 53.2991 59.619 53.2455 59.649C53.1919 59.679 53.1313 59.6941 53.0699 59.6927C53.0122 59.6984 52.9544 59.6831 52.9072 59.6495C52.86 59.6159 52.8265 59.5663 52.813 59.5099C52.7998 59.4707 52.791 59.4302 52.7866 59.3891C52.7795 59.3464 52.7795 59.2977 52.7755 59.2439" fill="black"/>
<path fill-rule="evenodd" clip-rule="evenodd" d="M66.8746 58.8065C66.4482 58.8492 66.0462 58.8441 65.6461 58.8492C65.5497 58.8492 65.4918 58.8664 65.4786 58.971C65.4677 59.0598 65.4349 59.1446 65.3832 59.2177C65.323 59.3002 65.238 59.3612 65.1407 59.3919C65.0433 59.4226 64.9387 59.4213 64.8421 59.3883C64.7971 59.3728 64.7569 59.346 64.7254 59.3104C64.694 59.2748 64.6722 59.2317 64.6624 59.1852C64.6323 59.0599 64.6251 58.9303 64.641 58.8025C64.641 58.7659 64.6573 58.7293 64.6573 58.6948C64.6827 58.4238 64.6826 58.4197 64.9618 58.4085C65.1893 58.4035 65.4208 58.4035 65.6512 58.3984L66.6482 58.3618H66.765C66.8888 58.3618 66.8837 58.3618 66.8665 58.4999C66.8574 58.5953 66.8665 58.6969 66.8665 58.8045" fill="black"/>
<path fill-rule="evenodd" clip-rule="evenodd" d="M65.6535 57.6441C65.3703 57.6553 65.086 57.6725 64.7976 57.6776C64.7904 57.4765 64.8348 57.2769 64.9266 57.0979C64.9695 57.0063 65.0414 56.9314 65.1311 56.8848C65.2209 56.8382 65.3235 56.8224 65.4231 56.84C65.4818 56.8474 65.5368 56.8727 65.5806 56.9125C65.6244 56.9522 65.6548 57.0046 65.6677 57.0623C65.7076 57.2545 65.7027 57.4531 65.6535 57.6431" fill="black"/>
<path fill-rule="evenodd" clip-rule="evenodd" d="M63.6922 56.4196C63.6986 56.4315 63.6922 56.4434 63.6781 56.4434C63.6641 56.4434 63.6641 56.4315 63.6641 56.4315C63.6641 56.4142 63.6641 56.4077 63.6878 56.4196H63.6922Z" fill="black"/>
<path fill-rule="evenodd" clip-rule="evenodd" d="M57.0156 57.2087C57.0277 57.2166 57.0389 57.2257 57.0491 57.2359C57.0104 57.2579 57.025 57.2202 57.025 57.2087C57.025 57.1972 57.0156 57.2087 57.0156 57.2087Z" fill="black"/>
</svg>
