<svg width="145" height="96" viewBox="0 0 145 96" fill="none" xmlns="http://www.w3.org/2000/svg">
<path fill-rule="evenodd" clip-rule="evenodd" d="M110.42 68.8045C109.895 66.3959 106.985 65.3659 105.086 66.9331C103.995 67.8333 103.661 69.0271 103.925 70.3884C104.271 72.1692 106.067 73.3395 107.832 72.9621C109.436 72.6186 110.509 71.2696 110.504 69.5426C110.499 69.3321 110.477 69.0665 110.42 68.8045M60.3306 57.3436V72.8125H64.6242V57.3228C64.1323 57.2676 60.5108 57.288 60.3306 57.3436ZM95.7901 72.8127H100.045C100.085 72.7045 100.067 72.6063 100.067 72.5104C100.068 70.2394 100.065 67.9685 100.069 65.6976C100.072 64.5797 100.566 63.7348 101.525 63.1678C101.927 62.9297 102.37 62.8044 102.83 62.7297C103.163 62.6754 103.498 62.6794 103.834 62.6831V58.5761C103.217 58.5797 102.628 58.6363 102.054 58.8069C101.253 59.0445 100.581 59.4636 100.13 60.1904C100.125 60.1981 100.1 60.194 100.062 60.1976V58.8377H95.7612C95.7034 59.7355 95.7318 72.6072 95.7901 72.8127ZM37.6622 50.0077C38.0367 50.0077 38.399 50.0108 38.7608 50.0068C39.5789 49.9986 40.3938 49.9592 41.1897 49.7438C42.5422 49.3786 43.4077 48.5364 43.7411 47.1566C43.9163 46.4325 43.971 45.6975 43.9714 44.9589C43.9769 39.0209 43.9746 33.0824 43.9737 27.1444C43.9733 27.0575 43.9936 26.9675 43.9466 26.8683H39.6475C39.601 26.9797 39.6231 27.0874 39.6231 27.1915C39.6218 33.0317 39.6222 38.872 39.6218 44.7123C39.6218 44.8815 39.62 45.0508 39.6128 45.2196C39.6042 45.4156 39.5707 45.6083 39.5152 45.7966C39.3765 46.2659 39.0549 46.5216 38.581 46.5922C38.4496 46.6112 38.3149 46.609 38.1821 46.6112C38.015 46.6144 37.8479 46.6121 37.6622 46.6121L37.6622 50.0077ZM45.2504 60.0245C44.674 59.4946 44.0167 59.09 43.2804 58.8325C40.7507 57.9477 38.2979 58.1441 35.9629 59.4593C34.4763 60.2965 33.4445 61.5537 32.8672 63.1657C32.4151 64.4293 32.3085 65.7326 32.5153 67.0577C32.893 69.4758 34.165 71.272 36.3284 72.3948C38.2211 73.3768 40.2322 73.5782 42.3078 73.1166C43.4001 72.874 44.3867 72.4061 45.2251 71.6498C45.3028 71.5797 45.3936 71.5191 45.4406 71.4046C44.4779 70.3917 43.5135 69.3776 42.5504 68.3647C42.428 68.4851 42.3349 68.5801 42.2383 68.6716C41.862 69.0255 41.4292 69.2775 40.9215 69.3884C40.5524 69.4694 40.1802 69.4631 39.8084 69.4124C38.4578 69.2273 37.5037 68.5317 37.0592 67.217C36.7444 66.287 36.7607 65.3448 37.0628 64.4116C37.2128 63.9487 37.4572 63.5382 37.7996 63.1888C38.3733 62.6037 39.083 62.3217 39.8848 62.2307C40.9201 62.1131 41.7951 62.4081 42.4786 63.2155C42.4948 63.2345 42.5165 63.2499 42.554 63.2839C43.5166 62.2715 44.4761 61.2614 45.4428 60.2445C45.3886 60.1359 45.315 60.0838 45.2504 60.0245M60.5954 38.5223C61.2093 39.5351 62.1186 40.1701 63.2141 40.5588C64.3244 40.953 65.4691 41.0322 66.6291 40.8661C67.5353 40.7362 68.3863 40.4398 69.152 39.9239C70.0044 39.35 70.6228 38.5934 70.9444 37.6063C71.1409 37.004 71.1829 36.3853 71.1319 35.7599C71.0556 34.8331 70.6874 34.0469 69.9818 33.4301C69.5694 33.0699 69.0978 32.8069 68.5986 32.5897C67.9296 32.2978 67.2304 32.0982 66.5297 31.9027C66.0676 31.7737 65.6105 31.6312 65.1791 31.418C64.9392 31.299 64.7097 31.1623 64.5376 30.9505C64.2661 30.617 64.3154 30.2047 64.6537 29.9386C64.7531 29.8608 64.8651 29.806 64.9862 29.7743C65.3028 29.6911 65.619 29.7042 65.9321 29.7983C66.2506 29.8938 66.4403 30.1042 66.5067 30.4333C66.527 30.5337 66.5162 30.6442 66.5659 30.7324C67.4752 30.7881 70.5514 30.7614 70.7466 30.6971C70.747 30.6885 70.7488 30.6795 70.7479 30.6709C70.7339 30.5469 70.7226 30.4229 70.7046 30.2998C70.4751 28.7398 69.7103 27.5423 68.2693 26.8639C66.5347 26.0475 64.7454 25.9909 62.9733 26.7236C61.4194 27.3663 60.3966 28.499 60.1252 30.2101C59.9499 31.3148 60.2394 32.2906 61.0223 33.1047C61.4858 33.5862 62.0369 33.941 62.6485 34.1972C63.1147 34.3927 63.5931 34.5579 64.0656 34.7371C64.6876 34.9724 65.3204 35.1806 65.9303 35.4476C66.1665 35.5508 66.3983 35.6657 66.588 35.8458C67.0045 36.2409 66.9638 36.856 66.4922 37.1804C66.1155 37.4398 65.6945 37.5081 65.2464 37.4284C64.6677 37.3253 64.3108 36.9917 64.1871 36.4129C64.1744 36.3527 64.1563 36.2934 64.1401 36.2314H59.907C59.9725 37.0863 60.2132 37.891 60.5954 38.5223M89.3087 52.7877C87.5705 53.4539 85.6371 52.4772 85.1014 50.6534C84.815 49.6786 84.8854 48.7237 85.3932 47.8399C86.0653 46.6696 87.1021 46.074 88.4473 46.193C89.8364 46.3161 90.7524 47.1203 91.2281 48.4273C91.3632 48.7984 91.4093 49.1871 91.4124 49.5813C91.4219 51.0223 90.5831 52.2994 89.3087 52.7877ZM89.4146 56.6976C91.0643 56.4582 92.503 55.7803 93.5926 54.5059C95.46 52.3209 95.9501 49.8241 95.025 47.1007C94.3212 45.0302 92.9254 43.5725 90.8547 42.8258C89.3992 42.3008 87.9017 42.2524 86.3921 42.5746C85.0536 42.8606 83.8764 43.4671 82.9468 44.4758C81.1331 46.4435 80.5156 48.7629 81.1299 51.3674C81.5663 53.2165 82.5867 54.6941 84.2089 55.7174C85.4159 56.479 86.7553 56.7727 88.2618 56.7904C88.5838 56.7782 89.0003 56.7578 89.4146 56.6976M51.0128 62.6247C52.7614 61.95 54.7129 62.937 55.2265 64.7798C55.5802 66.0483 55.3715 67.2304 54.4626 68.2125C52.8473 69.9584 50.0321 69.3891 49.1585 67.1607C48.9904 66.7326 48.9204 66.2877 48.9033 65.8316C48.9285 64.2304 49.8275 63.0818 51.0128 62.6247ZM53.3592 72.9433C54.9994 72.7089 56.4309 72.04 57.5264 70.7828C59.3337 68.7069 59.8708 66.3075 59.0947 63.665C58.4768 61.561 57.1555 60.0232 55.1092 59.1801C53.5783 58.5493 51.9864 58.4755 50.3746 58.8131C49.0077 59.0996 47.8084 59.7227 46.8692 60.7627C45.0316 62.7974 44.4484 65.1706 45.1513 67.8226C45.6261 69.6139 46.6547 71.0308 48.2466 72.0052C49.4387 72.7352 50.7541 73.0185 52.224 73.0316C52.5461 73.0198 52.9535 73.0013 53.3592 72.9433M49.0035 34.4108C48.7876 33.4184 48.924 32.4784 49.481 31.6222C50.7639 29.6499 53.6274 29.6947 54.8588 31.6996C55.7144 33.0921 55.5021 34.9548 54.3601 36.0781C53.7656 36.6628 52.9823 36.985 52.1512 36.9873C50.646 36.9909 49.331 35.9179 49.0035 34.4108ZM50.6294 26.5062C49.3524 26.7416 48.2136 27.2665 47.2424 28.1386C45.2634 29.9158 44.3139 32.9299 45.192 35.7317C45.899 37.9859 47.3264 39.5816 49.5783 40.369C50.9059 40.8329 52.2764 40.8868 53.6542 40.6451C55.045 40.4012 56.2891 39.8223 57.2725 38.7968C59.2339 36.7526 59.8613 34.326 59.1463 31.5867C58.6728 29.7737 57.6267 28.3463 56.0113 27.3729C54.8237 26.6574 53.5178 26.3705 52.061 26.3795C51.6327 26.3732 51.1286 26.4144 50.6294 26.5062M70.8438 63.1067C72.2482 61.9744 74.2977 62.2577 75.375 63.7226C76.2685 64.9378 76.2834 66.7136 75.3764 67.9179C74.613 68.9311 73.5803 69.39 72.3196 69.1896C71.085 68.9931 70.2628 68.2509 69.8016 67.096C69.7289 66.9141 69.6801 66.7245 69.644 66.5321C69.5988 66.2959 69.5708 66.0574 69.5807 65.8139C69.5988 64.7237 69.9841 63.7996 70.8438 63.1067ZM74.0755 72.9379C75.5097 72.7216 76.7805 72.1545 77.8411 71.1517C79.8856 69.2183 80.6341 66.1341 79.6963 63.4373C78.9478 61.2836 77.5294 59.768 75.3548 59.0226C74.0782 58.585 72.7619 58.5203 71.4352 58.7348C69.9359 58.9774 68.6101 59.5978 67.5743 60.7224C65.7385 62.7155 65.1323 65.0607 65.7805 67.6919C66.2137 69.45 67.1844 70.8684 68.7081 71.8758C69.9562 72.7017 71.3498 73.0203 72.9177 73.0316C73.2448 73.0189 73.6617 73.0004 74.0755 72.9379M70.8429 46.8714C72.2093 45.7698 74.192 46.0029 75.2928 47.3805C76.2893 48.6273 76.3105 50.5204 75.3122 51.7662C74.5249 52.7497 73.4823 53.1723 72.2419 52.9415C70.9815 52.7076 70.1662 51.916 69.751 50.7095C69.6259 50.3461 69.5685 49.9673 69.5803 49.579C69.5975 48.4879 69.9846 47.5638 70.8429 46.8714ZM74.3894 56.6401C75.7496 56.3772 76.9435 55.788 77.9337 54.8091C79.9163 52.8481 80.6097 49.8332 79.6728 47.1608C78.918 45.008 77.4878 43.5033 75.3105 42.7683C74.0317 42.3366 72.7144 42.2782 71.3891 42.4977C69.968 42.733 68.6968 43.3105 67.6886 44.3545C65.7516 46.3612 65.1083 48.7529 65.7746 51.4583C66.2322 53.3147 67.2834 54.7806 68.9312 55.7803C70.1184 56.5003 71.427 56.7759 72.8951 56.7899C73.3333 56.7759 73.8645 56.7415 74.3894 56.6401M80.9904 59.1513C80.9904 61.5463 80.9918 63.9412 80.9895 66.3362C80.9891 66.9684 80.994 67.6002 81.055 68.2301C81.1237 68.9402 81.2402 69.6403 81.4801 70.3155C81.9124 71.5333 82.6939 72.4136 83.9343 72.839C84.9805 73.1974 86.0588 73.2734 87.1407 73.0824C88.3328 72.8725 89.3144 72.285 90.0285 71.2849C90.0457 71.2609 90.0597 71.2174 90.1207 71.2428C90.1243 71.7655 90.118 72.2941 90.1239 72.8159H94.4148C94.4568 72.4511 94.4442 59.045 94.404 58.8481C93.8786 58.7992 90.3208 58.8205 90.1216 58.8766V59.1654C90.1216 61.3553 90.122 63.5457 90.1211 65.7356C90.1211 65.9492 90.1229 66.1633 90.1098 66.3764C90.0732 66.9729 90.0005 67.563 89.7444 68.1143C89.4914 68.6582 89.0894 69.0366 88.5166 69.2248C88.0699 69.3715 87.6095 69.4018 87.1474 69.3434C86.3465 69.2425 85.8212 68.7931 85.5578 68.0319C85.5262 67.9396 85.4995 67.8454 85.4752 67.7509C85.3351 67.2033 85.3098 66.6439 85.3098 66.0823C85.3098 63.7674 85.3103 61.4526 85.3085 59.1378C85.3085 59.0432 85.3338 58.9436 85.2791 58.8422H80.9904V59.1513ZM84.817 40.2167C84.8139 37.4742 84.8148 34.7317 84.8039 31.9892C84.8012 31.3131 84.7755 30.6351 84.6196 29.9726C84.2948 28.5932 83.5725 27.5034 82.2652 26.8839C81.0591 26.3123 79.792 26.1955 78.4978 26.5214C77.6531 26.7336 76.9435 27.1672 76.4606 27.9202C76.4434 27.9469 76.4308 27.9849 76.3535 27.9741V22.666H72.0671C72.0237 22.9738 72.0314 40.1484 72.0721 40.3416H76.3598V40.0311C76.3598 37.5289 76.3607 35.0267 76.358 32.5245C76.358 32.3186 76.3765 32.1159 76.4131 31.9145C76.6548 30.5799 77.921 29.8314 79.2089 30.2613C79.9913 30.5224 80.4972 31.2501 80.4976 32.1267C80.4995 34.7715 80.4981 37.4162 80.4995 40.0605C80.4995 40.1551 80.4809 40.2533 80.5189 40.3515H84.808C84.8125 40.2859 84.817 40.2511 84.817 40.2167M102.206 46.4726C103.317 45.9336 105.081 45.9766 106.144 47.0895C107.195 48.1887 107.406 49.4867 106.882 50.895C106.394 52.2061 105.275 52.9687 103.872 53.0144C102.956 53.0442 102.129 52.808 101.437 52.1925C100.656 51.4992 100.337 50.5995 100.313 49.4278C100.372 48.1892 100.921 47.0958 102.206 46.4726M106.87 43.9042C106.497 43.5317 106.087 43.2099 105.618 42.9687C104.513 42.3994 103.335 42.2564 102.121 42.4243C99.7535 42.7528 98.0085 43.9919 96.9925 46.1602C96.0642 48.1424 96.0358 50.2065 96.7079 52.2738C97.2193 53.8455 98.1733 55.0937 99.6139 55.9255C101.134 56.8034 102.774 57.0003 104.48 56.6636C105.453 56.4717 106.275 56.0074 106.89 55.2086C106.903 55.1905 106.919 55.1887 106.959 55.2204V56.3626H111.255V38.6997C110.897 38.6486 107.129 38.6649 106.924 38.7228V43.8847C106.906 43.891 106.888 43.8974 106.87 43.9041M49.9371 42.8365C50.6102 45.2075 51.281 47.5703 51.9518 49.9335C51.9667 49.9358 51.9816 49.9381 51.9965 49.9399C52.7329 47.5766 53.4687 45.2133 54.2095 42.8365H57.6305C58.3717 45.1943 59.1139 47.5558 59.8566 49.9172C59.8751 49.9177 59.8941 49.9181 59.913 49.9186C60.5834 47.5608 61.2542 45.2025 61.9277 42.8333H66.099C64.7727 47.3535 63.4509 51.8592 62.1283 56.3671H58.2037C57.4507 54.0355 56.6981 51.7067 55.946 49.3773C55.9284 49.3769 55.9112 49.3769 55.894 49.3769C55.1428 51.7021 54.3916 54.0278 53.6372 56.3626H49.7099C48.3886 51.8587 47.0682 47.3589 45.741 42.8365L49.9371 42.8365Z" fill="black"/>
</svg>
