<svg width="145" height="96" viewBox="0 0 145 96" fill="none" xmlns="http://www.w3.org/2000/svg">
<path d="M127.205 48.4007C126.805 48.4007 126.565 48.3207 126.645 47.8407C126.725 47.2007 126.645 46.5607 126.645 45.9207C126.645 45.2007 126.645 44.4807 126.645 43.6807C128.645 43.6807 130.565 43.6807 132.565 43.6807C132.565 43.2007 132.565 42.7207 132.565 42.2407C130.565 42.2407 128.645 42.2407 126.645 42.2407C126.645 40.8007 126.645 39.3607 126.645 37.9207C126.645 37.6007 126.885 37.6007 127.125 37.6007C128.645 37.6007 130.165 37.6007 131.605 37.6007C132.005 37.6007 132.325 37.6007 132.725 37.6007C132.725 37.1207 132.725 36.6407 132.725 36.2407C130.165 36.2407 127.605 36.2407 125.125 36.2407C125.125 40.8007 125.125 45.2807 125.125 49.8407C127.765 49.8407 130.405 49.8407 132.965 49.8407C132.965 49.3607 132.965 48.8807 132.965 48.4007C130.965 48.4007 129.045 48.4007 127.205 48.4007Z" fill="black"/>
<path d="M120.077 46.9607C119.837 46.7207 119.677 46.5607 119.597 46.4007C116.797 43.2007 114.077 40.0807 111.358 36.8007C110.798 36.1607 110.237 36.0007 109.438 36.1607C109.438 40.7207 109.438 45.2007 109.438 49.6807C109.997 49.6807 110.477 49.6807 111.037 49.6807C111.037 46.0807 111.037 42.5607 111.037 38.8807C111.277 39.1207 111.357 39.2007 111.437 39.3607C114.237 42.6407 117.117 45.8407 119.917 49.1207C120.477 49.7607 121.037 49.7607 121.757 49.6807C121.757 45.1207 121.757 40.6407 121.757 36.1607C121.197 36.1607 120.717 36.1607 120.157 36.1607C120.077 39.7607 120.077 43.2807 120.077 46.9607Z" fill="black"/>
<path d="M24.6447 36.1615C24.0847 36.0815 23.7647 36.3215 23.4447 36.7215C22.4847 37.9215 21.5247 39.0415 20.5647 40.2415C20.0847 40.8015 19.6047 41.3615 19.1247 42.0015C18.9647 41.8415 18.8047 41.6815 18.6447 41.4415C17.2847 39.7615 15.9247 38.0815 14.4847 36.4015C14.4047 36.2415 14.2447 36.0815 14.0847 36.0815C13.6847 36.0015 13.2847 36.0815 12.8047 36.0815C12.8047 40.6415 12.8047 45.1215 12.8047 49.6815C13.3647 49.6815 13.8447 49.6815 14.4047 49.6815C14.4047 46.0815 14.4047 42.4815 14.4047 38.8815H14.4847C16.0047 40.7215 17.5247 42.5615 19.0447 44.4815C20.5647 42.5615 22.0847 40.7215 23.6047 38.8815C23.6847 38.8815 23.6847 38.8815 23.7647 38.9615C23.7647 42.5615 23.7647 46.1615 23.7647 49.7615C24.3247 49.7615 24.8047 49.7615 25.3647 49.7615C25.3647 45.2015 25.3647 40.7215 25.3647 36.1615C25.1247 36.1615 24.8847 36.1615 24.6447 36.1615Z" fill="black"/>
<path d="M69.2825 47.0404C69.0425 46.8004 68.9625 46.6404 68.8025 46.5604C66.0025 43.2804 63.1225 40.0804 60.3225 36.8004C59.7625 36.1604 59.2025 36.2404 58.5625 36.3204C58.5625 40.8804 58.5625 45.3604 58.5625 49.8404C59.1225 49.8404 59.6025 49.8404 60.1625 49.8404C60.1625 48.0804 60.1625 46.3204 60.1625 44.5604C60.1625 42.8004 60.1625 40.9604 60.1625 39.0404C60.4025 39.2804 60.4825 39.3604 60.5625 39.5204C63.4425 42.8004 66.3225 46.0804 69.1225 49.3604C69.6825 50.0004 70.1625 49.9204 70.8025 49.8404C70.8025 45.2804 70.8025 40.8004 70.8025 36.3204C70.2425 36.3204 69.7625 36.3204 69.2025 36.3204C69.2825 39.7604 69.2825 43.3604 69.2825 47.0404Z" fill="black"/>
<path d="M98.8797 36.001C94.8797 36.001 91.6797 39.041 91.6797 42.961C91.6797 46.881 94.7997 49.921 98.7997 49.921C102.88 49.921 106 46.881 106 42.961C106.08 39.121 102.96 36.001 98.8797 36.001ZM98.8797 48.401C95.7597 48.401 93.3597 46.001 93.3597 42.961C93.3597 39.921 95.7597 37.521 98.8797 37.521C102 37.521 104.4 39.921 104.4 42.961C104.4 46.081 102 48.401 98.8797 48.401Z" fill="black"/>
<path d="M55.2865 43.2806C53.8465 43.2806 52.4065 43.2806 51.0465 43.2806C51.0465 43.7606 51.0465 44.1606 51.0465 44.7206C51.9265 44.7206 52.8065 44.7206 53.7665 44.7206C53.7665 45.6006 53.7665 46.4806 53.7665 47.2806C53.7665 47.6006 53.6065 47.7606 53.3665 47.9206C52.1665 48.4006 50.8865 48.4806 49.6065 48.4006C46.8865 48.1606 44.8865 46.0806 44.8065 43.2806C44.7265 40.4806 46.4865 38.1606 49.2065 37.6806C51.1265 37.3606 52.8865 37.8406 54.5665 38.8006C54.7265 38.8806 54.9665 38.9606 55.2065 39.1206C55.2065 38.5606 55.2065 38.0006 55.2065 37.5206C55.2065 37.3606 55.0465 37.2006 54.9665 37.2006C53.1265 36.4006 51.2065 35.9206 49.2065 36.1606C46.0065 36.6406 43.5265 39.1206 43.2065 42.3206C42.8866 45.6006 44.8065 48.6406 47.9265 49.6006C50.4865 50.4006 52.8865 50.0006 55.2865 48.9606C55.4465 48.8806 55.5265 48.6406 55.5265 48.4806C55.5265 46.8806 55.5265 45.2806 55.5265 43.7606C55.2865 43.5206 55.2865 43.4406 55.2865 43.2806Z" fill="black"/>
<path d="M35.7681 36.4796C35.6081 36.1596 35.4481 36.0796 35.0481 36.0796C34.6481 36.0796 34.4881 36.2396 34.4081 36.5596C32.4881 40.7996 30.4881 45.0396 28.5681 49.3596C28.4881 49.5196 28.4081 49.6796 28.3281 49.8396C28.8081 49.8396 29.2081 49.8396 29.6081 49.8396C29.9281 49.8396 30.0881 49.7596 30.1681 49.4396C30.7281 48.1596 31.2881 46.9596 31.8481 45.6796C32.0081 45.3596 32.1681 45.2796 32.4881 45.2796C34.1681 45.2796 35.9281 45.2796 37.6081 45.2796C37.9281 45.2796 38.0881 45.4396 38.2481 45.6796C38.6481 46.6396 39.1281 47.5996 39.5281 48.4796C40.1681 49.8396 40.1681 49.8396 41.6881 49.7596C41.6881 49.7596 41.6881 49.7596 41.7681 49.7596C41.6881 49.5996 41.6881 49.4396 41.6081 49.3596C39.6881 45.0396 37.7681 40.7996 35.7681 36.4796ZM32.8081 43.8396C33.6081 42.1596 34.3281 40.5596 35.1281 38.7996C35.9281 40.5596 36.6481 42.1596 37.4481 43.8396C35.8481 43.8396 34.4081 43.8396 32.8081 43.8396Z" fill="black"/>
<path d="M79.6094 37.6007C79.8494 37.6007 80.0094 37.6007 80.1694 37.6007C81.3694 37.6007 82.4894 37.6007 83.6894 37.6007C84.5694 37.6007 84.4094 37.5207 84.4094 38.4007C84.4094 42.0007 84.4094 45.6007 84.4094 49.2007C84.4094 49.3607 84.4094 49.6007 84.4094 49.7607C84.9694 49.7607 85.4494 49.7607 86.0094 49.7607C86.0094 49.5207 86.0094 49.2807 86.0094 49.1207C86.0094 45.4407 86.0094 41.8407 86.0094 38.1607C86.0094 37.7607 86.0894 37.6007 86.5694 37.6007C87.5294 37.6007 88.5694 37.6007 89.5294 37.6007C90.0094 37.6007 90.4893 37.6007 90.8893 37.6007C90.8893 37.1207 90.8893 36.6407 90.8893 36.2407C87.1294 36.2407 83.3694 36.2407 79.6094 36.2407C79.6094 36.6407 79.6094 37.1207 79.6094 37.6007Z" fill="black"/>
<path d="M76.2544 36.1626C75.7744 36.1626 75.2944 36.1626 74.7344 36.1626C74.7344 39.5226 74.7344 42.8826 74.7344 46.2426C75.2944 46.2426 75.7744 46.2426 76.2544 46.2426C76.2544 42.8826 76.2544 39.5226 76.2544 36.1626Z" fill="black"/>
<path d="M69.3709 55.1235C69.2909 55.2035 69.1309 55.2835 69.1309 55.4435C69.1309 55.9235 69.1309 56.4035 69.1309 56.8835C69.1309 57.6035 69.1309 58.3235 69.1309 59.2035C68.8909 58.9635 68.8109 58.8835 68.7309 58.7235C67.7709 57.6835 66.8909 56.5635 65.9309 55.5235C65.8509 55.4435 65.7709 55.2835 65.6909 55.2835C65.5309 55.2035 65.4509 55.1235 65.2909 55.2035C65.2109 55.2035 65.2109 55.4435 65.2109 55.5235C65.2109 56.2435 65.2109 56.9635 65.2109 57.6035C65.2109 58.4035 65.2109 59.2035 65.2109 60.0835C65.3709 60.0835 65.5309 60.0835 65.7709 60.0835C65.7709 58.8035 65.7709 57.5235 65.7709 56.0835C66.0109 56.3235 66.0909 56.4035 66.1709 56.5635C67.1309 57.6835 68.0909 58.7235 69.0509 59.8435C69.2109 60.0035 69.3709 60.0835 69.5309 60.1635C69.6109 60.1635 69.6109 60.0835 69.6909 60.0835C69.6909 58.5635 69.6909 56.9635 69.6909 55.4435C69.6909 55.2835 69.5309 55.2035 69.3709 55.1235Z" fill="black"/>
<path d="M96.3259 55.1235C96.2459 55.2035 96.0859 55.3635 96.0859 55.4435C96.0859 56.4835 96.0859 57.5235 96.0859 58.5635C96.0859 58.7235 96.0859 58.8835 96.0859 59.2035C95.8459 58.9635 95.7659 58.8835 95.6059 58.7235C94.6459 57.6035 93.6859 56.4835 92.7259 55.4435C92.6459 55.2835 92.4059 55.2835 92.2459 55.2035C92.1659 55.3635 92.0859 55.5235 92.0859 55.6835C92.0859 56.7235 92.0859 57.7635 92.0859 58.8035C92.0859 59.2035 92.0859 59.6835 92.0859 60.0835C92.4859 60.2435 92.5659 60.1635 92.5659 59.7635C92.5659 58.7235 92.5659 57.6835 92.5659 56.6435C92.5659 56.4835 92.5659 56.3235 92.6459 56.0835C92.8859 56.3235 92.9659 56.4835 93.1259 56.6435C94.0859 57.6835 94.9659 58.8035 95.9259 59.8435C96.0859 60.0035 96.2459 60.0835 96.4859 60.1635C96.5659 60.0835 96.5659 60.0835 96.6459 60.0035C96.6459 58.4835 96.6459 56.9635 96.6459 55.4435C96.5659 55.3635 96.4059 55.2035 96.3259 55.1235Z" fill="black"/>
<path d="M58.3197 55.042C56.7997 55.042 55.6797 56.162 55.6797 57.602C55.6797 59.042 56.8797 60.162 58.3197 60.162C59.7597 60.162 60.9597 59.042 60.9597 57.602C60.9597 56.162 59.8397 55.042 58.3197 55.042ZM58.3197 59.682C57.1197 59.682 56.2397 58.722 56.2397 57.602C56.2397 56.482 57.1997 55.602 58.3197 55.602C59.4397 55.602 60.3997 56.482 60.3997 57.682C60.3997 58.722 59.5197 59.682 58.3197 59.682Z" fill="black"/>
<path d="M85.2025 55.042C83.6825 55.042 82.5625 56.162 82.5625 57.602C82.5625 59.042 83.6825 60.162 85.2025 60.162C86.6425 60.162 87.8425 59.042 87.8425 57.602C87.8425 56.162 86.7225 55.042 85.2025 55.042ZM85.2025 59.682C84.0025 59.682 83.1225 58.722 83.1225 57.602C83.1225 56.482 84.0825 55.602 85.2025 55.602C86.4025 55.602 87.2825 56.482 87.2825 57.682C87.2825 58.722 86.4025 59.682 85.2025 59.682Z" fill="black"/>
<path d="M76.7319 55.202C75.9319 55.042 75.0519 55.122 74.1719 55.042C74.1719 56.802 74.1719 58.402 74.1719 60.082C75.0519 60.002 75.9319 60.082 76.8119 59.922C78.0119 59.682 78.5719 58.722 78.5719 57.442C78.5719 56.322 77.8519 55.362 76.7319 55.202ZM76.1719 59.602C75.6919 59.682 75.2119 59.602 74.6519 59.602C74.6519 59.202 74.6519 58.802 74.6519 58.402C74.6519 57.602 74.6519 56.802 74.6519 56.002C74.6519 55.682 74.7319 55.522 75.0519 55.602C75.4519 55.602 75.7719 55.602 76.1719 55.602C77.2919 55.682 78.0119 56.562 78.0119 57.602C78.0119 58.722 77.2919 59.522 76.1719 59.602Z" fill="black"/>
<path d="M50.085 59.6808C49.685 59.6808 49.605 59.6008 49.605 59.2008C49.605 58.0008 49.605 56.8008 49.605 55.5208C49.605 55.1208 49.445 55.0408 49.125 55.2008C49.125 56.8008 49.125 58.4808 49.125 60.0808C50.085 60.0808 51.045 60.0808 51.925 60.0808C51.925 60.0008 52.005 60.0008 52.005 59.9208C51.925 59.8408 51.765 59.6808 51.685 59.6808C51.125 59.6008 50.645 59.6008 50.085 59.6808Z" fill="black"/>
<path d="M76.2544 48.2407C75.6944 48.2407 75.2144 48.2407 74.7344 48.2407C74.7344 48.7207 74.7344 49.2007 74.7344 49.7607C75.2944 49.7607 75.7744 49.7607 76.2544 49.7607C76.2544 49.2007 76.2544 48.7207 76.2544 48.2407Z" fill="black"/>
</svg>
