<svg width="144" height="96" viewBox="0 0 144 96" fill="none" xmlns="http://www.w3.org/2000/svg">
<path fill-rule="evenodd" clip-rule="evenodd" d="M112.931 34.667C107.002 34.667 102.12 39.5097 102.12 45.5852C102.12 51.5726 106.915 56.5033 112.931 56.5033C118.859 56.5033 123.741 51.6606 123.741 45.5852C123.741 39.5097 118.859 34.667 112.931 34.667ZM121.3 39.5097C120.777 39.8619 120.167 40.2141 119.557 40.5663C119.208 39.8619 118.772 39.1575 118.249 38.5412C118.601 38.3279 118.953 38.0573 119.259 37.8219L119.26 37.821L119.263 37.8186C119.335 37.7636 119.404 37.7106 119.469 37.6607C120.254 38.1009 120.864 38.8053 121.3 39.5097ZM116.767 35.8997C117.639 36.2519 118.423 36.6921 119.208 37.3085C118.859 37.6607 118.423 37.9248 117.987 38.189C117.464 37.5726 116.854 37.0443 116.244 36.516C116.418 36.2519 116.592 36.0758 116.767 35.8997ZM117.639 38.3651C117.232 38.5999 116.825 38.7564 116.418 38.913C116.215 38.9912 116.011 39.0695 115.808 39.1575C115.546 38.5412 115.285 37.9248 114.936 37.3965C115.285 37.2204 115.633 37.0443 115.895 36.7802C116.505 37.2204 117.115 37.7487 117.639 38.3651ZM115.514 36.0278L115.514 36.0278C115.054 35.7537 114.613 35.4913 114.064 35.2833C114.849 35.2833 115.633 35.4594 116.331 35.7236C116.156 35.8997 115.982 36.0758 115.895 36.2519C115.765 36.1769 115.639 36.102 115.514 36.0278ZM115.546 36.516L115.546 36.5161C115.285 36.6922 115.023 36.8682 114.761 36.9563C114.587 36.6923 114.413 36.4502 114.239 36.2082L114.238 36.2079L114.238 36.2079C114.064 35.9657 113.89 35.7236 113.715 35.4594C114.326 35.7236 114.936 36.0758 115.546 36.516ZM113.105 35.5475C113.541 35.9877 113.89 36.516 114.238 37.1324C113.89 37.2204 113.541 37.3085 113.105 37.3085V35.5475ZM113.105 37.7487C113.541 37.7487 114.064 37.6607 114.5 37.4846C114.849 38.0129 115.11 38.6292 115.372 39.2456C114.674 39.4217 113.89 39.5097 113.105 39.5978V37.7487ZM112.669 35.5475V37.3085C112.38 37.3085 112.091 37.2481 111.753 37.1773C111.683 37.1626 111.61 37.1475 111.536 37.1324C111.972 36.6041 112.32 36.0758 112.669 35.5475ZM111.187 36.9563C110.925 36.8682 110.577 36.6921 110.402 36.516C111.013 36.1638 111.623 35.8116 112.233 35.5475C111.797 35.9877 111.448 36.428 111.187 36.9563ZM111.797 35.1953C111.187 35.4594 110.577 35.8116 109.966 36.1638C109.792 35.9877 109.618 35.8116 109.53 35.6355C110.228 35.4594 111.013 35.2833 111.797 35.1953ZM119.208 53.8618C117.813 53.0694 117.726 51.9248 117.813 51.5726C117.881 51.2268 118.057 51.2612 118.214 51.2919C118.257 51.3003 118.299 51.3084 118.336 51.3084C119.295 51.3084 120.254 51.0443 121.475 49.7235C122.87 48.3147 123.306 45.1449 121.126 43.1198C118.859 40.9185 116.418 41.2707 114.849 43.2959C114.5 43.7361 113.715 44.0003 113.105 44.0003C112.294 44.0003 112.531 44.4768 112.678 44.773C112.721 44.8587 112.756 44.9293 112.756 44.9688C112.756 45.1449 112.582 45.233 112.495 45.233C112.21 45.161 112.274 45.5005 112.307 45.6752C112.314 45.7143 112.32 45.7452 112.32 45.7613C112.32 45.8493 112.146 46.0254 112.146 46.0254C111.71 46.0254 111.797 46.3776 111.884 46.5537C111.884 46.6418 111.884 46.8179 111.71 46.9059C111.536 46.994 111.448 47.3462 111.448 47.6103C111.448 48.0506 111.884 48.4028 112.582 48.9311C113.279 49.4594 113.367 49.9877 113.367 50.3399C113.367 50.6921 113.454 51.3084 113.541 51.6606C113.715 52.1009 113.715 52.9813 112.756 52.9813C111.536 53.0694 109.443 53.9499 109.269 54.0379C108.571 54.3021 107.7 54.3901 107.002 54.214L107.002 54.214C106.653 53.9499 106.305 53.6857 105.956 53.3335C105.782 52.8933 106.043 52.365 106.305 52.0128C106.681 52.3933 107.123 52.3792 107.462 52.3683C107.515 52.3666 107.565 52.365 107.612 52.365C107.961 52.365 109.53 52.1009 109.792 52.0128C110.054 51.9248 110.141 51.9248 110.228 52.0128C110.838 52.277 111.71 52.277 112.059 51.1323C112.408 49.8996 111.623 50.2518 111.448 50.3399C111.361 50.4279 111.187 50.3399 111.274 50.2518C111.448 49.9877 111.187 49.9877 111.1 49.9877C110.751 49.9877 110.315 50.3399 110.228 50.4279C110.054 50.516 109.966 50.516 109.879 50.516C109.716 50.4171 109.431 50.4046 109.115 50.3907C108.587 50.3674 107.972 50.3404 107.7 49.8996C107.7 49.7235 107.351 46.8179 107.176 46.2896C107.176 46.2706 107.172 46.2476 107.168 46.2214L107.168 46.2213C107.151 46.1257 107.127 45.9875 107.264 45.8493C107.5 45.491 107.977 45.6187 108.423 45.738C108.635 45.7946 108.839 45.8493 109.007 45.8493C109.509 45.8493 109.657 45.6706 109.791 45.5092L109.791 45.5091C109.82 45.4743 109.848 45.4403 109.879 45.4091C109.981 45.3059 110.054 45.2934 110.113 45.283C110.156 45.2757 110.192 45.2694 110.228 45.233C110.286 45.1743 110.267 45.1156 110.247 45.0569C110.238 45.0275 110.228 44.9982 110.228 44.9688C110.228 44.9248 110.25 44.9248 110.282 44.9248C110.315 44.9248 110.359 44.9248 110.402 44.8808C110.463 44.8194 110.439 44.7152 110.419 44.6279C110.41 44.59 110.402 44.5552 110.402 44.5286C110.464 44.4347 110.548 44.3964 110.623 44.3624C110.758 44.3006 110.863 44.2528 110.751 43.9122C110.664 43.56 110.838 43.2078 111.013 43.0317C111.274 42.6795 112.408 41.0946 110.489 39.4217C108.659 37.8368 106.741 38.0129 105.52 39.3336C104.441 40.5017 104.793 42.1518 104.949 42.8832L104.949 42.8836C104.97 42.979 104.987 43.0588 104.997 43.1198C105.084 43.6481 104.735 44.0883 104.299 44.2644C103.951 44.4405 103.166 44.9688 102.643 45.4091C102.73 41.1827 105.258 37.4846 109.095 35.9877C109.182 36.0758 109.269 36.1859 109.356 36.2959L109.356 36.2961C109.443 36.4061 109.53 36.5161 109.618 36.6041C109.182 36.9563 108.223 37.7487 108.223 37.7487C108.223 37.7487 108.31 37.7487 108.484 37.8368C108.571 37.8368 108.746 37.9248 108.746 37.9248C108.746 37.9248 109.53 37.2204 109.966 36.9563C110.228 37.2204 110.577 37.3965 110.925 37.5726C110.751 37.9248 110.228 38.8053 110.228 38.8053C110.228 38.8053 110.315 38.8934 110.402 38.8934C110.489 38.9814 110.577 38.9814 110.577 38.9814C110.577 38.9814 111.1 38.0129 111.274 37.6607C111.71 37.8368 112.146 37.9248 112.582 37.9248V39.6858C112.32 39.6858 111.71 39.6858 111.448 39.5978H111.274L111.361 39.7739C111.405 39.8179 111.427 39.8619 111.448 39.906C111.47 39.95 111.492 39.994 111.536 40.038H112.582V43.2959H113.018V42.5034C113.645 42.5034 114.131 42.4323 114.666 42.3539L114.849 42.3273L115.459 41.799H115.11L115.044 41.8074L114.85 41.8323L114.849 41.8324C114.259 41.908 113.736 41.9751 113.279 41.9751H113.018V39.95C113.802 39.95 114.674 39.8619 115.459 39.5978L116.069 41.4468L116.505 41.2707L115.895 39.4217C116.391 39.2963 116.844 39.0818 117.283 38.8732L117.283 38.8732L117.283 38.8731C117.461 38.7887 117.637 38.7053 117.813 38.6292C118.336 39.2456 118.772 39.95 119.121 40.6544C118.772 40.8305 118.249 41.0066 118.249 41.0066C118.685 41.0946 119.033 41.1827 119.033 41.1827C119.033 41.1827 119.208 41.0946 119.295 41.0946C119.295 41.1827 119.382 41.3588 119.382 41.3588L119.993 41.6229L119.905 41.4468C119.905 41.4468 119.731 41.0066 119.644 40.9185C120.254 40.6544 120.864 40.3022 121.475 39.8619C122.608 41.5349 123.131 43.56 123.131 45.5852C123.306 48.9311 121.649 51.9248 119.208 53.8618ZM101.166 37.5721L100.992 37.7482C100.381 38.2765 98.8993 39.7733 99.1608 41.4463V41.5343L99.248 41.8865L99.4224 41.7104C100.294 40.918 100.992 39.5092 101.253 37.9243L101.34 37.484L101.166 37.5721ZM98.1152 40.5666L98.2024 40.3905V40.3024L98.3768 40.6546C98.8127 41.7993 99.0743 44.3527 98.8999 45.5854L98.7255 46.2898L98.6383 46.1137L98.5512 45.9376C97.6793 44.7929 97.5921 43.2081 97.7665 42.1515C97.8537 41.4471 98.028 40.8307 98.1152 40.5666ZM97.1409 44.7918V44.9679C97.0537 46.0245 97.1409 48.7541 99.3205 50.2509L99.582 50.427V50.0748C99.582 49.0182 98.3615 45.9365 97.4896 44.8799L97.2281 44.5277L97.1409 44.7918ZM97.4948 49.8109V49.6348V49.4587L97.7563 49.6348C99.1513 50.5153 101.331 53.2448 101.767 54.3894L101.854 54.7416L101.505 54.6536C99.2385 53.8612 97.8435 51.3958 97.4948 49.8109ZM102.114 39.9517L102.095 39.9579L102.114 39.8636V39.9517ZM102.095 39.9579L102.027 40.3039C101.765 41.3605 100.545 43.2975 99.673 44.09L99.4115 44.2661V43.9139C99.4115 42.329 100.196 41.0963 101.853 40.0397L102.095 39.9579ZM100.982 43.4735L101.069 43.2974L101.156 43.2093V43.5615C101.244 44.7062 100.372 47.1716 99.6742 48.1401L99.4998 48.4042L99.4127 48.1401C99.3255 47.8759 99.2383 47.5238 99.2383 47.2596C99.1511 45.4106 100.546 43.9137 100.982 43.4735ZM101.159 46.5539L101.072 46.73C100.375 47.7866 100.026 48.8432 100.026 49.8998C100.026 50.6042 100.288 51.3086 100.724 52.013L100.898 52.2771L100.985 52.013C101.247 51.3966 101.508 49.5476 101.508 48.0507C101.508 47.5224 101.421 47.0822 101.334 46.818L101.247 46.4658L101.159 46.5539ZM101.852 50.1624L101.94 49.9863L102.027 49.8102L102.201 50.0744C102.899 50.9549 103.771 53.9486 103.771 55.0932V55.3574L103.683 55.6215L103.509 55.5335C102.288 54.741 101.591 53.5964 101.591 52.1876C101.51 51.5339 101.654 50.956 101.815 50.3132L101.852 50.1624ZM99.582 54.5669L99.6692 54.743C100.541 56.2398 102.11 58.265 104.987 57.7367H105.249L105.075 57.5606C104.551 56.7681 101.064 54.743 99.8435 54.5669L99.4948 54.4788L99.582 54.5669ZM103.422 58.528L103.858 58.44C107.869 57.3866 110.995 57.8991 112.963 58.6738C114.863 57.8991 117.995 57.3866 122.087 58.44L122.523 58.528L122.087 58.7041C120.256 59.4966 117.902 59.6727 116.594 59.2324C116.158 59.0563 115.809 58.7922 115.461 58.44C114.812 58.4885 114.177 58.6773 113.57 58.9585L113.634 58.9969C114.188 59.3267 115.838 60.3083 116.935 61.7859L117.023 61.8739L116.935 61.962C116.848 62.05 116.674 62.2261 116.499 62.3142H116.412L116.325 62.2261C115.491 61.2149 114.301 60.0603 112.938 59.2884C111.604 60.064 110.44 61.2317 109.619 62.2261L109.532 62.3142H109.445C109.401 62.2702 109.314 62.2041 109.227 62.1381C109.14 62.072 109.053 62.006 109.009 61.962L108.922 61.8739L109.009 61.7859C110.106 60.3082 111.756 59.2645 112.31 58.9669C111.722 58.6985 111.109 58.5102 110.484 58.44C110.135 58.7922 109.873 59.0563 109.35 59.2324C107.955 59.6727 105.689 59.4966 103.858 58.7041L103.422 58.528ZM103.947 53.687C104.208 55.448 104.906 57.7373 107.87 57.4731H108.044L107.957 57.297C107.783 56.5046 105.08 54.2153 104.121 53.599L103.859 53.4229L103.947 53.5109V53.687ZM124.613 37.8351L124.526 37.3949L124.7 37.4829L124.875 37.659C125.485 38.1873 126.967 39.6842 126.706 41.3571V41.4451L126.618 41.7973L126.444 41.6212C125.572 40.8288 124.875 39.42 124.613 37.8351ZM127.568 40.2119L127.394 40.5641C126.958 41.7088 126.784 44.2622 126.871 45.4949L127.045 46.1993L127.132 46.1112L127.219 45.9352C128.179 44.7905 128.179 43.2937 128.004 42.149C127.917 41.3566 127.743 40.8283 127.655 40.5641L127.568 40.388V40.2119ZM128.441 44.9665L128.703 44.6143L128.79 44.8784V45.0545C128.877 46.1992 128.79 48.9287 126.611 50.3375L126.349 50.5136V50.1614C126.349 49.1048 127.57 46.1111 128.441 44.9665ZM128.358 49.4587L128.009 49.6348C126.614 50.5153 124.435 53.2448 123.999 54.3894L123.911 54.7416L124.26 54.6536C126.527 53.9492 128.009 51.3958 128.271 49.8109V49.6348L128.358 49.4587ZM123.822 40.214L123.734 39.7738L123.909 39.9499L124.083 40.0379C125.74 41.0945 126.524 42.3272 126.437 43.9121V44.2643L126.176 44.0882C125.217 43.2958 124.17 41.3587 123.822 40.214ZM124.698 43.2093V43.5615C124.611 44.7062 125.57 47.2596 126.18 48.1401L126.355 48.4042L126.442 48.1401C126.46 48.0668 126.478 47.9974 126.496 47.931L126.496 47.9304L126.496 47.9303C126.562 47.6776 126.616 47.4686 126.616 47.2596C126.704 45.4106 125.309 43.9137 124.873 43.4735L124.785 43.3854L124.698 43.2093ZM124.523 46.7301L124.611 46.3779L124.698 46.466L124.785 46.6421C125.482 47.6987 125.831 48.8433 125.831 49.8119C125.831 50.6043 125.57 51.3087 125.134 51.9251L124.959 52.1892L124.872 51.9251C124.523 51.3087 124.349 49.4597 124.349 47.9628C124.349 47.4345 124.436 46.9943 124.523 46.7301ZM123.822 49.8102L123.647 50.0744C122.95 50.9549 122.078 53.9486 122.078 55.0932V55.3574L122.165 55.6215L122.34 55.5335C123.56 54.741 124.171 53.5964 124.258 52.1876C124.258 51.5712 124.171 50.8668 123.996 50.1624L123.909 49.9863L123.822 49.8102ZM126.004 54.481L126.353 54.3929L126.266 54.481L126.179 54.6571C125.307 56.1539 123.738 58.179 120.861 57.6507H120.599L120.773 57.4746C121.296 56.6822 124.784 54.6571 126.004 54.481ZM121.647 53.5085L121.909 53.3324L121.822 53.4204V53.5965C121.473 55.3575 120.775 57.6468 117.898 57.3826H117.724L117.811 57.2065C118.073 56.4141 120.688 54.1248 121.647 53.5085ZM48.3281 35.7236H51.9899V39.0695H48.3281V35.7236ZM48.6769 42.9437H51.7283V59.321H48.6769V42.9437ZM28.6213 42.9469H25.5699H25.4827V51.3117C25.4827 51.7519 25.4827 53.689 24.8724 55.1859C24.2621 56.9469 22.5184 57.5632 21.2979 57.5632C18.3336 57.5632 17.7233 55.45 17.7233 52.6324V42.9469H14.6719V53.9532C14.6719 57.211 16.5899 59.8525 19.9901 59.8525C22.2569 59.8525 24.3493 58.972 25.5699 56.9469H25.6571V59.3242H28.6213V42.9469ZM34.7233 45.3207C35.8567 43.2955 38.0363 42.415 39.6928 42.415C40.8262 42.415 45.7957 42.6792 45.7957 47.9622V59.2325H42.7442V48.9307C42.7442 46.2012 41.6108 44.7924 38.9953 44.7924C38.9953 44.7924 37.3388 44.7043 36.0311 46.0251C36.0106 46.0457 35.9892 46.067 35.967 46.089C35.5153 46.537 34.7233 47.3225 34.7233 50.4276V59.3206H31.6719V42.9433H34.7233V45.3207ZM61.2349 44.7043C63.4145 44.7043 64.3735 46.1131 64.5479 48.1383H67.5122C67.3378 44.6163 64.8095 42.415 61.4093 42.415C56.2654 42.415 53.9115 46.3773 53.9115 51.132C53.9115 55.8867 56.0039 59.5847 61.1477 59.5847C64.7223 59.5847 67.425 57.3835 67.6865 53.6854H64.6351C64.4607 56.0628 63.2401 57.3835 61.2349 57.3835C58.3578 57.3835 57.2244 54.8301 57.2244 51.0439C57.2244 47.2578 58.3578 44.7043 61.2349 44.7043ZM72.2102 51.6621C71.9486 54.4797 73.1692 57.4733 76.2206 57.4733C78.5746 57.4733 79.7952 56.5048 80.1439 54.1275H83.3697C82.8466 57.8255 80.0567 59.6746 76.2206 59.6746C71.0768 59.6746 68.9844 55.9765 68.9844 51.2218C68.9844 46.4671 71.3383 42.5049 76.4822 42.5049C81.2773 42.5929 83.5441 45.6747 83.5441 50.1652V51.6621H72.2102ZM80.4055 49.5489C80.4927 46.8193 79.2721 44.7061 76.3078 44.7061C73.7795 44.7061 72.2974 46.9074 72.2974 49.5489H80.4055ZM87.0347 45.0551V59.1431H90.0861V45.0551H93.835V42.9419H90.0861V39.9482C89.9989 38.1872 90.958 37.747 92.7016 37.747C92.9632 37.747 93.2247 37.769 93.4863 37.791C93.7478 37.813 94.0094 37.835 94.271 37.835V35.2816C93.5735 35.1055 92.7888 34.9294 92.0914 34.9294C89.8246 34.9294 87.1219 35.8979 87.0347 39.4199V42.9419H84.2448V45.0551H87.0347Z" fill="black"/>
</svg>
