<svg width="145" height="96" viewBox="0 0 145 96" fill="none" xmlns="http://www.w3.org/2000/svg">
<path d="M72.6409 19.2942C73.488 19.2893 74.3318 19.0974 75.1724 19.2763C78.8939 19.6063 82.5633 20.629 85.8736 22.3719C90.1561 24.5651 93.8402 27.8997 96.5129 31.8961C99.2395 35.9607 100.854 40.7471 101.218 45.6247C101.158 46.9156 101.12 48.2146 101.246 49.5023C100.979 53.2108 100.051 56.8885 98.3956 60.2279C96.5082 64.1088 93.7131 67.5426 90.3104 70.196C86.0702 73.5208 80.8675 75.6003 75.499 76.0931C74.6814 76.1516 73.8649 76.3028 73.0425 76.2394C72.4977 76.2034 71.94 76.3776 71.4167 76.1547C73.4215 70.5148 75.4244 64.873 77.4469 59.2378C79.6481 59.1972 81.8513 59.2524 84.0525 59.2118C85.4574 59.163 86.8459 58.3077 87.3076 56.9421C89.1692 51.7004 91.0779 46.4733 92.881 41.2089C93.1769 40.4138 93.3411 39.5278 93.1053 38.6953C92.7867 37.6402 91.8211 36.8939 90.7836 36.6142C89.8831 36.3346 88.9317 36.437 88.0051 36.4208C85.1794 36.4126 82.3537 36.4354 79.5296 36.4078C79.4841 36.5021 79.3913 36.689 79.3459 36.7817C74.7706 49.6323 70.2038 62.4864 65.6108 75.3304C60.8926 74.1061 56.4964 71.6543 52.9911 68.2661C48.7688 64.2257 45.8374 58.8525 44.753 53.1084C44.4132 51.3834 44.2896 49.6275 44.1953 47.8764C44.2717 44.2297 44.87 40.5667 46.2439 37.1752C49.5947 28.6086 57.3483 21.863 66.362 19.9348C61.7478 32.7285 57.241 45.5612 52.6285 58.3566C52.9228 58.446 53.2317 58.4119 53.5341 58.415C55.2152 58.4068 56.898 58.4184 58.5791 58.4117C58.8083 58.4101 58.7839 58.0914 58.8799 57.9451C60.9057 52.2254 62.9558 46.5138 64.9881 40.7974C65.1101 40.4429 65.2239 40.0852 65.3865 39.7487C66.44 39.7666 67.4935 39.7438 68.5471 39.7601C66.3376 45.9562 64.1476 52.162 61.9055 58.3465C62.1397 58.4408 62.3949 58.4116 62.6404 58.4166C64.4061 58.4002 66.1717 58.4278 67.9374 58.4036C69.9323 52.7733 71.9516 47.1528 73.9515 41.5257C74.379 40.3747 74.4164 39.0138 73.7369 37.9521C73.1435 37.0124 72.0168 36.5637 70.9421 36.5198C69.4723 36.4759 68.001 36.523 66.5296 36.497C68.552 30.758 70.6347 25.0399 72.6409 19.2942Z" fill="black"/>
<path d="M84.3484 39.8233C84.5238 39.6249 84.8361 39.7452 85.0701 39.7111C85.8863 39.7257 86.7023 39.7046 87.5188 39.7225C85.618 45.1479 83.628 50.5424 81.7583 55.9792C80.7015 56.054 79.6365 56.0085 78.5781 56.002C80.508 50.6123 82.4183 45.2146 84.3484 39.8233Z" fill="black"/>
</svg>
