<svg width="256" height="220" viewBox="0 0 256 220" fill="none" xmlns="http://www.w3.org/2000/svg">
<path d="M92.125 7.94514C92.125 7.94514 101.902 1.85766 102.514 1.43439C103.238 0.929854 104.236 0.822828 105.113 1.33783L185.365 48.7124C186.475 49.3682 187.159 50.5615 187.159 51.8515V209.916C187.159 210.683 186.813 211.331 186.298 211.763C185.574 212.363 175.41 218.636 175.41 218.636L102.916 167.415C102.007 166.775 101.443 165.759 101.379 164.652L92.125 7.94514Z" fill="white" stroke="#AEAEB7" stroke-width="2" stroke-miterlimit="10" stroke-linejoin="round"/>
<path d="M90.9297 9.91657C90.9297 8.10521 92.9012 6.98105 94.4623 7.90162L175.462 55.7155C176.171 56.1364 176.613 56.9024 176.613 57.7304V216.656C176.613 218.44 174.69 219.567 173.137 218.701L92.1367 173.696C91.3884 173.283 90.9297 172.5 90.9297 171.65V9.91657Z" fill="white" stroke="#AEAEB7" stroke-width="2" stroke-miterlimit="10" stroke-linejoin="round"/>
<path d="M176.026 56.0975L186.833 49.9287C186.833 49.9287 187.163 50.7101 187.163 51.1454V209.916C187.163 210.683 186.817 211.332 186.302 211.763C185.577 212.363 175.414 218.637 175.414 218.637L176.026 56.0975Z" fill="white" stroke="#AEAEB7" stroke-width="2" stroke-miterlimit="10" stroke-linejoin="round"/>
<path d="M175.837 91.0662L175.885 71.3408L90.8936 21.8516L70.1406 51.3169L157.57 100.463L175.837 91.0662Z" fill="white" stroke="#AEAEB7" stroke-width="2" stroke-miterlimit="10" stroke-linejoin="round"/>
<path d="M175.845 71.3038L164.386 64.6152L144.703 93.2437L157.16 100.362L175.845 71.3038Z" fill="white" stroke="#AEAEB7" stroke-width="2" stroke-miterlimit="10" stroke-linejoin="round"/>
<path d="M164.4 64.6603L152.023 57.3955L132.18 86.1817L144.725 93.2235L164.4 64.6603Z" fill="white" stroke="#AEAEB7" stroke-width="2" stroke-miterlimit="10" stroke-linejoin="round"/>
<path d="M152.05 57.3991L140.132 50.498L119.773 79.1338L132.23 86.2521L152.05 57.3991Z" fill="white" stroke="#AEAEB7" stroke-width="2" stroke-miterlimit="10" stroke-linejoin="round"/>
<path d="M140.07 50.5486L128.193 43.6025L107.352 72.2093L119.808 79.3276L140.07 50.5486Z" fill="white" stroke="#AEAEB7" stroke-width="2" stroke-miterlimit="10" stroke-linejoin="round"/>
<path d="M128.232 43.5329L115.815 36.417L95.0703 65.2104L107.455 72.4639L128.232 43.5329Z" fill="white" stroke="#AEAEB7" stroke-width="2" stroke-miterlimit="10" stroke-linejoin="round"/>
<path d="M115.805 36.3396L103.42 29.0596L82.5469 58.1596L95.0035 65.2787L115.805 36.3396Z" fill="white" stroke="#AEAEB7" stroke-width="2" stroke-miterlimit="10" stroke-linejoin="round"/>
<path d="M103.366 29.0318L90.8936 21.8516L70.1406 51.3169L82.4926 58.2654L103.366 29.0318Z" fill="white" stroke="#AEAEB7" stroke-width="2" stroke-miterlimit="10" stroke-linejoin="round"/>
<path d="M144.538 93.0234L157.349 100.515V106.23C157.349 107.855 156.585 112.198 151.37 111.606C146.156 111.014 144.297 103.956 144.297 100.716L144.538 93.0234Z" fill="white" stroke="#AEAEB7" stroke-width="2" stroke-miterlimit="10" stroke-linejoin="round"/>
<path d="M132.283 86.1084L144.724 93.2009L144.265 99.7576C144.265 101.384 144.136 105.542 138.922 104.95C133.707 104.358 132.219 99.3206 132.219 96.0809L132.283 86.1084Z" fill="white" stroke="#AEAEB7" stroke-width="2" stroke-miterlimit="10" stroke-linejoin="round"/>
<path d="M119.854 79.1875L132.238 86.2575L132.278 92.625C132.278 94.2505 131.683 98.6771 126.477 98.0848C121.262 97.4918 119.766 92.4552 119.766 89.2147L119.854 79.1875Z" fill="white" stroke="#AEAEB7" stroke-width="2" stroke-miterlimit="10" stroke-linejoin="round"/>
<path d="M107.506 72.3389L119.818 79.2262L119.713 86.7267C119.713 88.3522 119.222 91.3601 114.008 90.7671C108.793 90.1748 107.305 85.1383 107.305 81.8978L107.506 72.3389Z" fill="white" stroke="#AEAEB7" stroke-width="2" stroke-miterlimit="10" stroke-linejoin="round"/>
<path d="M95.0531 65.2266L107.598 72.439L107.284 78.2601C107.284 79.8856 106.753 84.5142 101.539 83.9219C96.3326 83.3297 94.8359 78.2923 94.8359 75.0526L95.0531 65.2266Z" fill="white" stroke="#AEAEB7" stroke-width="2" stroke-miterlimit="10" stroke-linejoin="round"/>
<path d="M82.4348 58.2227L95.0765 65.2573L94.811 72.0979C94.811 73.7234 94.1752 77.4008 88.9608 76.8086C83.7545 76.2163 82.2578 71.179 82.2578 67.9393L82.4348 58.2227Z" fill="white" stroke="#AEAEB7" stroke-width="2" stroke-miterlimit="10" stroke-linejoin="round"/>
<path d="M70.2105 51.2666L82.482 58.2851L82.3453 64.5432C82.3453 66.1695 81.9831 70.7449 76.7687 70.1527C71.5543 69.5604 69.6875 64.717 69.6875 61.4773L70.2105 51.2666Z" fill="white" stroke="#AEAEB7" stroke-width="2" stroke-miterlimit="10" stroke-linejoin="round"/>
<path d="M115.891 174.814L130.576 183.331Z" fill="white"/>
<path d="M115.891 174.814L130.576 183.331" stroke="#AEAEB7" stroke-width="2" stroke-miterlimit="10" stroke-linejoin="round"/>
<path d="M142.112 148.018L149.185 131.486L117.078 113.604L121.448 136.414L142.112 148.018Z" fill="white" stroke="#AEAEB7" stroke-width="2" stroke-miterlimit="10" stroke-linejoin="round"/>
<path d="M108.812 99.1406L115.25 103.432L121.43 136.648" fill="white"/>
<path d="M108.812 99.1406L115.25 103.432L121.43 136.648" stroke="#AEAEB7" stroke-width="2" stroke-miterlimit="10" stroke-linejoin="round"/>
<path d="M134.5 151.311C134.017 149.037 134.821 146.94 136.294 146.627C137.775 146.312 139.36 147.9 139.843 150.174C140.326 152.448 139.521 154.545 138.048 154.859C136.568 155.172 134.982 153.584 134.5 151.311Z" fill="white" stroke="#AEAEB7" stroke-width="2" stroke-miterlimit="10" stroke-linejoin="round"/>
<path d="M123.999 145.782C123.517 143.509 124.321 141.411 125.802 141.097C127.275 140.783 128.868 142.372 129.351 144.645C129.834 146.918 129.029 149.016 127.548 149.33C126.076 149.644 124.49 148.055 123.999 145.782Z" fill="white" stroke="#AEAEB7" stroke-width="2" stroke-miterlimit="10" stroke-linejoin="round"/>
</svg>
