<svg width="256" height="218" viewBox="0 0 256 218" fill="none" xmlns="http://www.w3.org/2000/svg">
<path d="M87.2057 74.9395L63.0625 89.5446L98.079 109.805L87.596 137.338L109.918 150.06L117.224 148.471C117.224 148.471 118.004 150.094 122.489 154.901C126.981 159.708 130.055 160.851 130.055 160.851L132.157 176.737L145.174 182.762L154.185 187.993L178.828 173.299L172.905 157.414L191.468 148.191L193.152 135.352L154.13 113.106C151.651 123.712 145.783 131.169 138.929 131.169C129.843 131.169 122.469 118.036 122.469 101.835C122.469 99.5825 122.647 97.412 122.914 95.3031L87.2057 74.9395Z" fill="white" stroke="#AEAEB7" stroke-width="2" stroke-miterlimit="10" stroke-linejoin="round"/>
<path d="M62.3012 89.1738L62 99.6774L76.1326 114.139C76.1326 114.139 75.9272 116.857 77.1665 125.546C78.4059 134.228 79.6246 137.625 79.6246 137.625L74.859 143.965L85.0134 164.294L92.3194 162.706C92.3194 162.706 93.0999 164.335 97.5848 169.142C102.07 173.942 105.144 175.092 105.144 175.092L107.246 190.971L120.27 196.996L125.672 181.597C125.672 181.597 127.007 181.323 128.342 180.885C129.684 180.44 132.348 179.844 132.348 179.844L143.55 195.319L153.923 187.534L146.337 169.409C146.337 169.409 147.419 167.677 148.678 165.862C149.932 164.048 151.938 159.96 151.938 159.96L166.276 160.501L168.248 149.587L129.226 127.347C126.747 137.946 120.879 145.41 114.025 145.41C104.932 145.41 97.5642 132.27 97.5642 116.07C97.5642 113.817 97.7423 111.646 98.0093 109.537L62.3012 89.1738Z" fill="white" stroke="#AEAEB7" stroke-width="2" stroke-miterlimit="10" stroke-linejoin="round"/>
<path d="M168.325 149.042L166.305 160.634L191.591 148.569L193.146 135.43L168.325 149.042Z" fill="white" stroke="#AEAEB7" stroke-width="2" stroke-miterlimit="10" stroke-linejoin="round"/>
<path d="M146.555 169.65L166.446 160.674Z" fill="white"/>
<path d="M146.555 169.65L166.446 160.674" stroke="#AEAEB7" stroke-width="2" stroke-miterlimit="10" stroke-linejoin="round"/>
<path d="M132.356 179.803C132.356 179.803 130.918 180.22 129.247 180.624C127.576 181.028 125.652 181.494 125.652 181.494L120.359 196.907L139.812 190.163L132.356 179.803Z" fill="white" stroke="#AEAEB7" stroke-width="2" stroke-miterlimit="10" stroke-linejoin="round"/>
<path d="M62.3203 57.7126L76.7884 36.4932L88.7162 74.5977L88.456 104.41L62.4367 89.6547L62.3203 57.7126Z" fill="white" stroke="#AEAEB7" stroke-width="2" stroke-miterlimit="10" stroke-linejoin="round"/>
<path d="M88.7079 74.9541L88.1875 104.253L114.741 119.707L114.131 89.9495L88.7079 74.9541Z" fill="white" stroke="#AEAEB7" stroke-width="2" stroke-miterlimit="10" stroke-linejoin="round"/>
<path d="M88.7422 75.2256L116.412 60.8945L114.871 90.3237L88.7422 75.2256Z" fill="white" stroke="#AEAEB7" stroke-width="2" stroke-miterlimit="10" stroke-linejoin="round"/>
<path d="M76.875 36.5572L99.9364 23.7598L114.973 61.7L88.7891 75.2507L76.875 36.5572Z" fill="white" stroke="#AEAEB7" stroke-width="2" stroke-miterlimit="10" stroke-linejoin="round"/>
<path d="M125.698 36.4932L113.927 59.1642L112.969 118.851L140.981 134.326L140.72 72.3861L125.698 36.4932Z" fill="white" stroke="#AEAEB7" stroke-width="2" stroke-miterlimit="10" stroke-linejoin="round"/>
<path d="M152.821 21L125.891 36.7554L140.592 72.4292L166.734 58.9266L152.821 21Z" fill="white" stroke="#AEAEB7" stroke-width="2" stroke-miterlimit="10" stroke-linejoin="round"/>
<path d="M141.392 133.265L165.453 118.496L166.665 58.5078L140.57 72.2912L141.392 133.265Z" fill="white" stroke="#AEAEB7" stroke-width="2" stroke-miterlimit="10" stroke-linejoin="round"/>
<path d="M193.29 114.991L168.134 128.234L140.766 87.623L166.087 76.3047L193.29 114.991Z" fill="white" stroke="#AEAEB7" stroke-width="2" stroke-miterlimit="10" stroke-linejoin="round"/>
<path d="M193.119 135.481L168.319 149.799L168.086 128.052L193.229 114.844L193.119 135.481Z" fill="white" stroke="#AEAEB7" stroke-width="2" stroke-miterlimit="10" stroke-linejoin="round"/>
<path d="M140.773 87.4648L140.986 134.368L168.231 149.672L168.032 127.808L140.773 87.4648Z" fill="white" stroke="#AEAEB7" stroke-width="2" stroke-miterlimit="10" stroke-linejoin="round"/>
</svg>
