<svg width="256" height="218" viewBox="0 0 256 218" fill="none" xmlns="http://www.w3.org/2000/svg">
<path d="M62.6199 71.1009C80.0877 64.0208 100.85 58.4524 123.414 55.2983C143.916 52.4324 163.531 51.8922 180.995 53.3298" stroke="#AEAEB7" stroke-width="2" stroke-miterlimit="10" stroke-linejoin="round"/>
<path d="M88.5811 111.723C88.6167 114.742 89.0105 120.651 89.0105 120.651L100.453 124.245L102.842 136.526L95.349 149.707L86.9066 162.753L101.929 163.567L112.04 156.599C112.04 156.599 113.048 158.239 114.257 159.803C115.475 161.366 116.894 162.856 116.894 162.856L112.345 185.199L127.603 186.045L132.935 172.407C132.935 172.407 134.781 172.934 136.912 172.974C139.044 173.015 141.463 172.722 141.463 172.722L131.437 184.788L146.38 185.696L157.029 179.798L156.172 165.465C156.172 165.465 157.495 164.295 159.23 162.364C160.974 160.432 163.121 157.738 163.121 157.738L171.351 162.402L177.961 147.126L172.113 137.662C172.113 137.662 173.22 134.693 173.977 130.835C174.733 126.977 175.131 122.226 175.131 122.226L183.141 118.504L182.951 102.419L174.508 97.6005C174.508 97.6005 173.693 93.0516 172.543 88.9579C171.393 84.8642 170.029 81.2071 170.029 81.2071L176.563 72.6014L169.916 58.5838L155.065 57.932L153.904 57.7109L154.978 41.6341L143.828 36.0749L129.001 35.3579L138.98 51.6191C138.98 51.6191 137.35 51.4822 135.682 51.5522C134.014 51.623 132.316 51.8984 132.316 51.8984L126.524 36.2233L111.429 35.5205L117.746 60.0012L113.244 65.0581L101.075 58.9063L86.1826 58.1461L94.1454 74.4895L102.604 87.5396L100.7 97.1628L89.0553 103.159C89.0553 103.159 88.5441 108.594 88.5811 111.723ZM121.795 111.953C121.6 95.4905 128.985 82.0578 138.285 81.939C147.585 81.8202 155.292 95.0601 155.487 111.522C155.681 127.983 148.288 141.429 138.988 141.547C129.688 141.666 121.989 128.414 121.795 111.953Z" fill="white" stroke="#AEAEB7" stroke-width="2" stroke-miterlimit="10" stroke-linejoin="round"/>
<path d="M73.6329 111.003C73.6685 114.022 74.0623 119.931 74.0623 119.931L85.5046 123.525L87.8938 135.805L80.4008 148.987L86.9814 162.847L97.0917 155.879C97.0917 155.879 98.0996 157.519 99.3091 159.083C100.527 160.646 101.946 162.136 101.946 162.136L101.534 180.795L112.655 185.325L117.988 171.687C117.988 171.687 119.833 172.214 121.965 172.255C124.096 172.295 126.515 172.002 126.515 172.002L131.432 184.977L142.082 179.079L141.224 164.745C141.224 164.745 142.547 163.575 144.283 161.644C146.018 159.712 148.174 157.018 148.174 157.018L156.404 161.682L163.013 146.406L157.165 136.942C157.165 136.942 158.273 133.973 159.029 130.115C159.786 126.258 160.184 121.506 160.184 121.506L168.193 117.784C168.193 117.784 168.39 112.489 168.358 109.793C168.326 107.058 168.004 101.699 168.004 101.699L159.561 96.8801C159.561 96.8801 158.746 92.332 157.595 88.2383C156.445 84.1446 155.081 80.4867 155.081 80.4867L161.616 71.8817L154.968 57.864L145.429 63.1059C145.429 63.1059 143.82 61.3059 142.319 59.8169C140.827 58.3278 138.956 56.9912 138.956 56.9912L140.03 40.9143L128.881 35.3551L124.033 50.8994C124.033 50.8994 122.403 50.7624 120.734 50.8324C119.066 50.9025 117.368 51.1779 117.368 51.1779L111.576 35.5034L100.183 41.5317L102.798 59.2807L98.2964 64.3376L86.1271 58.1866L79.1973 73.7691L87.6561 86.8192L85.7521 96.4432L74.107 102.438C74.107 102.438 73.5959 107.873 73.6329 111.003ZM106.847 111.232C106.652 94.7702 114.037 81.3382 123.337 81.2194C132.637 81.1006 140.345 94.3398 140.539 110.802C140.733 127.264 133.341 140.708 124.041 140.827C114.741 140.946 107.041 127.694 106.847 111.232Z" fill="white" stroke="#AEAEB7" stroke-width="2" stroke-miterlimit="10" stroke-linejoin="round"/>
<path d="M131.507 185.03L146.51 185.593L157.196 179.83L142.302 179.003L131.507 185.03Z" fill="white" stroke="#AEAEB7" stroke-width="2" stroke-miterlimit="10" stroke-linejoin="round"/>
<path d="M156.378 161.615L171.429 162.503L178.051 147.146L162.813 146.165L156.378 161.615Z" fill="white" stroke="#AEAEB7" stroke-width="2" stroke-miterlimit="10" stroke-linejoin="round"/>
<path d="M141.397 164.876L156.173 165.471Z" fill="white"/>
<path d="M141.397 164.876L156.173 165.471" stroke="#AEAEB7" stroke-width="2" stroke-miterlimit="10" stroke-linejoin="round"/>
<path d="M157.263 136.959L172.007 137.643Z" fill="white"/>
<path d="M157.263 136.959L172.007 137.643" stroke="#AEAEB7" stroke-width="2" stroke-miterlimit="10" stroke-linejoin="round"/>
<path d="M160.124 121.597L175.134 122.14Z" fill="white"/>
<path d="M160.124 121.597L175.134 122.14" stroke="#AEAEB7" stroke-width="2" stroke-miterlimit="10" stroke-linejoin="round"/>
<path d="M168.175 117.833L183.153 118.535L182.997 102.592L167.828 101.501L168.175 117.833Z" fill="white" stroke="#AEAEB7" stroke-width="2" stroke-miterlimit="10" stroke-linejoin="round"/>
<path d="M154.85 57.8933L161.614 71.7743L176.45 72.3425L169.89 58.574L154.85 57.8933Z" fill="white" stroke="#AEAEB7" stroke-width="2" stroke-miterlimit="10" stroke-linejoin="round"/>
<path d="M159.511 96.8489L174.606 97.7047Z" fill="white"/>
<path d="M159.511 96.8489L174.606 97.7047" stroke="#AEAEB7" stroke-width="2" stroke-miterlimit="10" stroke-linejoin="round"/>
<path d="M155.199 80.4658L170.204 81.2664Z" fill="white"/>
<path d="M155.199 80.4658L170.204 81.2664" stroke="#AEAEB7" stroke-width="2" stroke-miterlimit="10" stroke-linejoin="round"/>
<path d="M138.991 57.0369L153.685 57.5861Z" fill="white"/>
<path d="M138.991 57.0369L153.685 57.5861" stroke="#AEAEB7" stroke-width="2" stroke-miterlimit="10" stroke-linejoin="round"/>
<path d="M128.868 35.3327L139.994 40.8384L154.829 41.5573L143.749 35.8363L128.868 35.3327Z" fill="white" stroke="#AEAEB7" stroke-width="2" stroke-miterlimit="10" stroke-linejoin="round"/>
<path d="M215.258 132.346C213.882 122.438 220.729 113.283 230.551 111.91C240.374 110.537 249.453 117.465 250.829 127.373C252.205 137.29 245.36 146.444 235.536 147.817C225.714 149.19 216.635 142.263 215.258 132.346Z" fill="white" stroke="#AEAEB7" stroke-width="2" stroke-miterlimit="10" stroke-linejoin="round"/>
<path d="M29.6652 80.122C28.2883 70.2052 35.1349 61.0509 44.9573 59.6779C54.7805 58.3048 63.8591 65.2329 65.236 75.1497C66.6117 85.0578 59.7659 94.2118 49.9427 95.585C40.1203 96.958 31.0409 90.0301 29.6652 80.122Z" fill="white" stroke="#AEAEB7" stroke-width="2" stroke-miterlimit="10" stroke-linejoin="round"/>
<path d="M34.6503 144.184L33.5888 177.119L53.9854 178.66L34.6503 144.184Z" fill="white" stroke="#AEAEB7" stroke-width="2" stroke-miterlimit="10" stroke-linejoin="round"/>
<path d="M64.861 161.047L34.4062 143.891L54.123 178.876L64.861 161.047Z" fill="white" stroke="#AEAEB7" stroke-width="2" stroke-miterlimit="10" stroke-linejoin="round"/>
<path d="M179.94 52.7061L186.192 70.5037L205.857 73.7555L199.401 55.9344L179.94 52.7061Z" fill="white" stroke="#AEAEB7" stroke-width="2" stroke-miterlimit="10" stroke-linejoin="round"/>
<path d="M211.759 40.3184L199.312 55.8965L205.959 73.9058L219.027 58.6388L211.759 40.3184Z" fill="white" stroke="#AEAEB7" stroke-width="2" stroke-miterlimit="10" stroke-linejoin="round"/>
<path d="M193.198 35.9555L179.902 52.6782L199.36 55.9173L211.745 40.2415L193.198 35.9555Z" fill="white" stroke="#AEAEB7" stroke-width="2" stroke-miterlimit="10" stroke-linejoin="round"/>
<path d="M34.3967 156.854C20.1217 149.642 11.0072 139.819 9.37966 128.098C7.10722 111.731 19.8999 94.9083 42.1869 81.26" stroke="#AEAEB7" stroke-width="2" stroke-miterlimit="10" stroke-linejoin="round"/>
<path d="M220.951 141.919C200.415 154.201 171.996 163.922 139.908 168.407C105.213 173.257 72.9761 171.037 49.2422 163.551" stroke="#AEAEB7" stroke-width="2" stroke-miterlimit="10" stroke-linejoin="round"/>
<path d="M210.914 59.1348C235.241 66.1767 251.458 78.5065 253.659 94.3558C255.263 105.913 249.192 117.712 237.46 128.468" stroke="#AEAEB7" stroke-width="2" stroke-miterlimit="10" stroke-linejoin="round"/>
</svg>
