<svg width="256" height="218" viewBox="0 0 256 218" fill="none" xmlns="http://www.w3.org/2000/svg">
<g clip-path="url(#clip0_1453_13868)">
<path d="M161.852 95.9971L163.407 128.386L189.587 113.487L161.852 95.9971Z" fill="white" stroke="#AEAEB7" stroke-width="2" stroke-miterlimit="10" stroke-linejoin="round"/>
<path d="M97.1938 98.9023L95.6401 131.292L69.4609 116.393L97.1938 98.9023Z" fill="white" stroke="#AEAEB7" stroke-width="2" stroke-miterlimit="10" stroke-linejoin="round"/>
<path d="M147.446 174.119C143.363 174.119 139.67 175.726 136.898 178.316C134.768 177.45 132.441 176.962 129.995 176.962C128.184 176.962 126.479 177.301 124.83 177.789C122.546 176.623 119.971 175.903 117.2 175.903C108.469 175.907 101.408 182.478 100.983 190.719C98.537 193.472 96.875 197.37 96.875 201.35C96.8746 205.39 98.5669 209.43 101.108 212.127C103.978 215.171 107.968 216.62 112.512 216.62C116.864 216.62 120.794 214.809 123.609 211.907C125.605 212.651 127.735 213.111 129.995 213.111C130.291 213.111 130.566 213.041 130.858 213.029C133.649 215.754 137.461 217.443 141.662 217.443C150.226 217.443 157.164 210.473 157.164 201.866C157.164 201.827 157.152 201.787 157.152 201.744C160.656 198.89 162.948 194.586 162.948 189.7C162.948 181.092 156.01 174.119 147.446 174.119Z" fill="white" stroke="#AEAEB7" stroke-width="2" stroke-miterlimit="10" stroke-linejoin="round"/>
<path d="M91.9141 152.849C91.9141 152.849 97.5328 170.78 132.256 169.721C166.98 168.662 165.917 153.472 165.917 153.472C165.917 153.472 162.196 89.8545 159.168 69.9398C156.14 50.0247 141.843 0.087916 126.318 0.000111355C110.796 -0.088087 99.5401 52.2403 96.9611 73.065C94.3816 93.8896 91.9141 152.849 91.9141 152.849Z" fill="white" stroke="#AEAEB7" stroke-width="2" stroke-miterlimit="10" stroke-linejoin="round"/>
<path d="M128.638 39.0806C145.136 37.9313 147.581 27.9172 147.581 27.9172C147.581 27.9172 146.306 24.7287 145.644 23.188C140.065 10.2071 133.316 0.0394857 126.319 0.000111414C119.74 -0.0372941 113.924 9.34833 109.213 21.7603C108.42 23.8487 106.93 28.2527 106.93 28.2527C106.93 28.2527 112.142 40.23 128.638 39.0806Z" fill="white" stroke="#AEAEB7" stroke-width="2" stroke-miterlimit="10" stroke-linejoin="round"/>
<path d="M162.488 122.473L157.531 125.213L162.488 164.186L186.101 183.975L190.712 180.412L162.488 122.473Z" fill="white" stroke="#AEAEB7" stroke-width="2" stroke-miterlimit="10" stroke-linejoin="round"/>
<path d="M94.1672 121.403L99.1264 124.144L94.1672 163.116L70.5568 182.906L65.9453 179.343L94.1672 121.403Z" fill="white" stroke="#AEAEB7" stroke-width="2" stroke-miterlimit="10" stroke-linejoin="round"/>
<path d="M157.531 125.568V167.285L186.211 184.094L157.531 125.568Z" fill="white" stroke="#AEAEB7" stroke-width="2" stroke-miterlimit="10" stroke-linejoin="round"/>
<path d="M99.1447 124.501V166.218L70.4609 183.027L99.1447 124.501Z" fill="white" stroke="#AEAEB7" stroke-width="2" stroke-miterlimit="10" stroke-linejoin="round"/>
<path d="M131.547 85.6684C131.547 76.4032 136.516 68.8926 142.646 68.8926C148.781 68.8926 153.75 76.4032 153.75 85.6684C153.75 94.9331 148.781 102.442 142.646 102.442C136.516 102.442 131.547 94.9331 131.547 85.6684Z" fill="white" stroke="#AEAEB7" stroke-width="2" stroke-miterlimit="10" stroke-linejoin="round"/>
<path d="M142.647 68.8926C142.033 68.8926 141.438 69.0182 140.852 69.1631C146.332 70.1896 150.585 77.1781 150.585 85.7373C150.585 94.0602 146.565 100.918 141.304 102.237C141.749 102.32 142.186 102.446 142.647 102.446C148.778 102.446 153.747 94.9284 153.747 85.6636C153.747 76.3985 148.778 68.8926 142.647 68.8926Z" fill="white" stroke="#AEAEB7" stroke-width="2" stroke-miterlimit="10" stroke-linejoin="round"/>
<path d="M101.094 190.575C101.558 182.374 108.356 175.865 116.675 175.865C119.411 175.865 121.982 176.57 124.218 177.806" fill="white"/>
<path d="M101.094 190.575C101.558 182.374 108.356 175.865 116.675 175.865C119.411 175.865 121.982 176.57 124.218 177.806" stroke="#AEAEB7" stroke-width="2" stroke-miterlimit="10" stroke-linejoin="round"/>
<path d="M136.938 178.015C139.706 175.499 143.387 173.963 147.427 173.963C156.05 173.963 163.035 180.952 163.035 189.571C163.035 194.512 160.735 198.918 157.148 201.781" fill="white"/>
<path d="M136.938 178.015C139.706 175.499 143.387 173.963 147.427 173.963C156.05 173.963 163.035 180.952 163.035 189.571C163.035 194.512 160.735 198.918 157.148 201.781" stroke="#AEAEB7" stroke-width="2" stroke-miterlimit="10" stroke-linejoin="round"/>
<path d="M154.346 192.721C156.122 195.252 157.161 198.339 157.161 201.667C157.161 210.286 150.176 217.271 141.557 217.271C137.423 217.271 133.667 215.664 130.875 213.042" fill="white"/>
<path d="M154.346 192.721C156.122 195.252 157.161 198.339 157.161 201.667C157.161 210.286 150.176 217.271 141.557 217.271C137.423 217.271 133.667 215.664 130.875 213.042" stroke="#AEAEB7" stroke-width="2" stroke-miterlimit="10" stroke-linejoin="round"/>
<path d="M123.858 211.877C121.003 214.98 116.912 216.925 112.365 216.925C103.745 216.925 96.7578 209.936 96.7578 201.317C96.7578 192.698 103.745 185.713 112.365 185.713C115.186 185.713 117.832 186.461 120.117 187.768" fill="white"/>
<path d="M123.858 211.877C121.003 214.98 116.912 216.925 112.365 216.925C103.745 216.925 96.7578 209.936 96.7578 201.317C96.7578 192.698 103.745 185.713 112.365 185.713C115.186 185.713 117.832 186.461 120.117 187.768" stroke="#AEAEB7" stroke-width="2" stroke-miterlimit="10" stroke-linejoin="round"/>
<path d="M114.406 185.853C117.534 180.416 123.402 176.754 130.127 176.754C137.222 176.754 143.36 180.829 146.337 186.767" fill="white"/>
<path d="M114.406 185.853C117.534 180.416 123.402 176.754 130.127 176.754C137.222 176.754 143.36 180.829 146.337 186.767" stroke="#AEAEB7" stroke-width="2" stroke-miterlimit="10" stroke-linejoin="round"/>
<path d="M140.845 209.498C137.844 211.699 134.139 213.002 130.131 213.002C124.63 213.002 119.701 210.549 116.375 206.679" fill="white"/>
<path d="M140.845 209.498C137.844 211.699 134.139 213.002 130.131 213.002C124.63 213.002 119.701 210.549 116.375 206.679" stroke="#AEAEB7" stroke-width="2" stroke-miterlimit="10" stroke-linejoin="round"/>
</g>
<defs>
<clipPath id="clip0_1453_13868">
<rect width="256" height="218" fill="white"/>
</clipPath>
</defs>
</svg>
