<svg width="256" height="218" viewBox="0 0 256 218" fill="none" xmlns="http://www.w3.org/2000/svg">
<path d="M108.81 155.499C108.81 151.343 108.703 140.499 108.703 140.499C108.703 140.499 139.867 120.181 163.74 120.181C187.534 120.181 218.719 141.343 218.719 141.343C218.719 141.343 218.677 151.29 218.677 155.499C218.677 175.004 194.078 190.816 163.74 190.816C133.401 190.816 108.81 175.004 108.81 155.499Z" fill="white" stroke="#AEAEB7" stroke-width="2" stroke-miterlimit="10" stroke-linejoin="round"/>
<path d="M51.8512 89.5503L128.15 46.5752C128.15 46.5752 159.406 31.0167 173.797 57.7276C188.187 84.4378 161.078 101.176 161.078 101.176L87.1765 147.563C87.1765 147.563 55.5005 162.424 41.5866 133.607C27.6799 104.789 51.8512 89.5503 51.8512 89.5503Z" fill="white" stroke="#AEAEB7" stroke-width="2" stroke-miterlimit="10" stroke-linejoin="round"/>
<path d="M51.8512 89.5481L87.7455 69.3325C87.7455 69.3325 113.076 60.9998 125.987 84.4521C138.898 107.904 123.946 124.279 123.946 124.279L87.1765 147.561C87.1765 147.561 55.5005 162.422 41.5866 133.605C27.6799 104.787 51.8512 89.5481 51.8512 89.5481Z" fill="white" stroke="#AEAEB7" stroke-width="2" stroke-miterlimit="10" stroke-linejoin="round"/>
<path d="M108.812 141.488C108.812 133.824 112.127 127.099 118.579 121.31C119.07 120.869 120.222 122.503 121.688 121.507C124.064 119.891 123.466 117.441 123.466 117.441C123.466 117.441 124.611 116.692 125.337 116.238C135.239 110.01 148.797 106.171 163.742 106.171C194.081 106.171 218.679 121.983 218.679 141.488C218.679 149.452 214.582 156.8 207.661 162.708C206.899 163.358 205.278 164.606 205.278 164.606C205.278 164.606 206.451 168.677 203.2 170.004C200.142 171.254 200.341 167.829 200.341 167.829C200.341 167.829 198.321 168.949 197.261 169.472C187.985 174.071 176.362 176.806 163.742 176.806C133.404 176.806 108.812 160.994 108.812 141.488Z" fill="white" stroke="#AEAEB7" stroke-width="2" stroke-miterlimit="10" stroke-linejoin="round"/>
<path d="M118.383 121.254L200.08 167.795Z" fill="white"/>
<path d="M118.383 121.254L200.08 167.795" stroke="#AEAEB7" stroke-width="2" stroke-miterlimit="10" stroke-linejoin="round"/>
<path d="M123.562 117.488L205.253 164.514Z" fill="white"/>
<path d="M123.562 117.488L205.253 164.514" stroke="#AEAEB7" stroke-width="2" stroke-miterlimit="10" stroke-linejoin="round"/>
</svg>
