<svg width="256" height="218" viewBox="0 0 256 218" fill="none" xmlns="http://www.w3.org/2000/svg">
<path d="M186.204 198.791L186.29 209.998L61.6256 138.493L61.4609 126.971L186.204 198.791Z" fill="white" stroke="#AEAEB7" stroke-width="2" stroke-miterlimit="10" stroke-linejoin="round"/>
<path d="M175.805 85.6684L185.391 79.8613L185.402 168.287L175.586 174.323L175.805 85.6684Z" fill="white" stroke="#AEAEB7" stroke-width="2" stroke-miterlimit="10" stroke-linejoin="round"/>
<path d="M137.929 107.955L147.515 102.148L147.527 146.608L137.711 152.644L137.929 107.955Z" fill="white" stroke="#AEAEB7" stroke-width="2" stroke-miterlimit="10" stroke-linejoin="round"/>
<path d="M99.3744 67.7025L108.961 61.8955L108.972 125.1L99.1562 131.136L99.3744 67.7025Z" fill="white" stroke="#AEAEB7" stroke-width="2" stroke-miterlimit="10" stroke-linejoin="round"/>
<path d="M194.055 194.775L186.24 198.766L61.5078 127.036L68.8 122.843L194.055 194.775Z" fill="white" stroke="#AEAEB7" stroke-width="2" stroke-miterlimit="10" stroke-linejoin="round"/>
<path d="M168.333 80.9775L175.762 85.6511L175.614 174.25L168.281 170.129L168.333 80.9775Z" fill="white" stroke="#AEAEB7" stroke-width="2" stroke-miterlimit="10" stroke-linejoin="round"/>
<path d="M130.459 103.271L137.887 107.945L137.739 152.578L130.406 148.457L130.459 103.271Z" fill="white" stroke="#AEAEB7" stroke-width="2" stroke-miterlimit="10" stroke-linejoin="round"/>
<path d="M91.92 63.0127L99.3484 67.6862L99.2007 131.064L91.8672 126.943L91.92 63.0127Z" fill="white" stroke="#AEAEB7" stroke-width="2" stroke-miterlimit="10" stroke-linejoin="round"/>
<path d="M193.663 206.139L194.012 194.809L186.314 198.792L186.266 209.945L193.663 206.139Z" fill="white" stroke="#AEAEB7" stroke-width="2" stroke-miterlimit="10" stroke-linejoin="round"/>
<path d="M178.304 75.499L168.391 80.9951L175.751 85.5717L185.359 79.9077L178.304 75.499Z" fill="white" stroke="#AEAEB7" stroke-width="2" stroke-miterlimit="10" stroke-linejoin="round"/>
<path d="M140.429 97.792L130.516 103.288L137.876 107.865L147.485 102.201L140.429 97.792Z" fill="white" stroke="#AEAEB7" stroke-width="2" stroke-miterlimit="10" stroke-linejoin="round"/>
<path d="M101.867 57.5332L91.9531 63.0293L99.313 67.6059L108.922 61.9418L101.867 57.5332Z" fill="white" stroke="#AEAEB7" stroke-width="2" stroke-miterlimit="10" stroke-linejoin="round"/>
<path d="M109.675 19.8376L143.912 67.4057L174.704 19.3139L170.509 15.3917L181.787 8L183.903 10.0515L180.56 30.5581L175.215 27.4049L145.791 74.2995L138.577 78.3233L109.353 30.6373L98.4968 48.4229L93.5469 51.0612L105.08 20.2347L109.675 19.8376Z" fill="white" stroke="#AEAEB7" stroke-width="2" stroke-miterlimit="10" stroke-linejoin="round"/>
<path d="M104.776 20.3669L139.014 67.9343L166.971 22.577L161.952 19.6542L181.698 8.12207L178.198 29.1076L172.427 25.6475L138.41 78.1968L104.91 31.7459L93.6606 51.1068L89.4844 47.1216L104.776 20.3669Z" fill="white" stroke="#AEAEB7" stroke-width="2" stroke-miterlimit="10" stroke-linejoin="round"/>
</svg>
