<svg width="198" height="76" viewBox="0 0 198 76" fill="none" xmlns="http://www.w3.org/2000/svg">
<path d="M54.2373 25.4613H56.1021L59.3443 33.3779H59.4636L62.7059 25.4613H64.5706V35.6455H63.1087V28.2759H63.0142L60.0106 35.6306H58.7973L55.7938 28.2709H55.6993V35.6455H54.2373V25.4613ZM69.3425 35.7997C68.6265 35.7997 68.0015 35.6356 67.4678 35.3074C66.9341 34.9792 66.5197 34.52 66.2246 33.9299C65.9296 33.3398 65.782 32.6503 65.782 31.8613C65.782 31.0689 65.9296 30.3761 66.2246 29.7827C66.5197 29.1892 66.9341 28.7284 67.4678 28.4002C68.0015 28.072 68.6265 27.9079 69.3425 27.9079C70.0586 27.9079 70.6835 28.072 71.2172 28.4002C71.751 28.7284 72.1654 29.1892 72.4604 29.7827C72.7555 30.3761 72.903 31.0689 72.903 31.8613C72.903 32.6503 72.7555 33.3398 72.4604 33.9299C72.1654 34.52 71.751 34.9792 71.2172 35.3074C70.6835 35.6356 70.0586 35.7997 69.3425 35.7997ZM69.3475 34.5515C69.8116 34.5515 70.1962 34.4288 70.5012 34.1835C70.8062 33.9382 71.0316 33.6117 71.1775 33.2039C71.3266 32.7961 71.4012 32.3469 71.4012 31.8563C71.4012 31.369 71.3266 30.9214 71.1775 30.5136C71.0316 30.1026 70.8062 29.7727 70.5012 29.5241C70.1962 29.2754 69.8116 29.1511 69.3475 29.1511C68.8801 29.1511 68.4922 29.2754 68.1839 29.5241C67.8789 29.7727 67.6518 30.1026 67.5026 30.5136C67.3567 30.9214 67.2838 31.369 67.2838 31.8563C67.2838 32.3469 67.3567 32.7961 67.5026 33.2039C67.6518 33.6117 67.8789 33.9382 68.1839 34.1835C68.4922 34.4288 68.8801 34.5515 69.3475 34.5515ZM79.7261 29.8722L78.3785 30.1109C78.3222 29.9385 78.2327 29.7744 78.11 29.6186C77.9907 29.4627 77.8282 29.3351 77.6227 29.2357C77.4171 29.1362 77.1602 29.0865 76.8519 29.0865C76.4309 29.0865 76.0795 29.181 75.7977 29.3699C75.5159 29.5556 75.375 29.7959 75.375 30.091C75.375 30.3462 75.4695 30.5518 75.6584 30.7076C75.8474 30.8634 76.1524 30.991 76.5734 31.0905L77.7868 31.369C78.4896 31.5314 79.0134 31.7817 79.3582 32.1198C79.7029 32.458 79.8753 32.8972 79.8753 33.4376C79.8753 33.8951 79.7427 34.3029 79.4775 34.6609C79.2156 35.0156 78.8493 35.2941 78.3785 35.4963C77.9111 35.6986 77.3691 35.7997 76.7524 35.7997C75.8971 35.7997 75.1993 35.6173 74.6589 35.2527C74.1186 34.8847 73.787 34.3625 73.6644 33.6863L75.1015 33.4675C75.191 33.8421 75.375 34.1255 75.6535 34.3178C75.9319 34.5068 76.295 34.6012 76.7425 34.6012C77.2298 34.6012 77.6194 34.5001 77.9111 34.2979C78.2028 34.0924 78.3487 33.8421 78.3487 33.547C78.3487 33.3083 78.2592 33.1078 78.0802 32.9453C77.9045 32.7829 77.6343 32.6602 77.2696 32.5773L75.9767 32.2939C75.2639 32.1314 74.7368 31.8729 74.3954 31.5181C74.0572 31.1634 73.8882 30.7142 73.8882 30.1705C73.8882 29.7197 74.0141 29.3252 74.2661 28.987C74.518 28.6489 74.8661 28.3853 75.3104 28.1964C75.7546 28.0041 76.2635 27.9079 76.837 27.9079C77.6625 27.9079 78.3122 28.087 78.7863 28.445C79.2604 28.7997 79.5736 29.2754 79.7261 29.8722ZM84.5154 28.0074V29.2008H80.3433V28.0074H84.5154ZM81.4622 26.1774H82.949V33.4028C82.949 33.6912 82.9921 33.9084 83.0783 34.0542C83.1645 34.1968 83.2756 34.2946 83.4115 34.3476C83.5507 34.3974 83.7016 34.4222 83.864 34.4222C83.9833 34.4222 84.0878 34.4139 84.1773 34.3974C84.2668 34.3808 84.3364 34.3675 84.3861 34.3576L84.6547 35.5858C84.5685 35.619 84.4458 35.6521 84.2867 35.6853C84.1276 35.7218 83.9286 35.7416 83.69 35.745C83.2988 35.7516 82.9341 35.682 82.596 35.5361C82.2578 35.3902 81.9843 35.1648 81.7755 34.8598C81.5666 34.5548 81.4622 34.1719 81.4622 33.7111V26.1774ZM88.7458 35.6455V28.0074H90.183V29.2207H90.2625C90.4018 28.8097 90.6471 28.4864 90.9985 28.2511C91.3532 28.0124 91.7543 27.893 92.2019 27.893C92.2947 27.893 92.4041 27.8963 92.5301 27.903C92.6594 27.9096 92.7605 27.9179 92.8334 27.9278V29.35C92.7737 29.3335 92.6677 29.3152 92.5152 29.2953C92.3627 29.2721 92.2102 29.2605 92.0577 29.2605C91.7063 29.2605 91.393 29.3351 91.1178 29.4843C90.846 29.6302 90.6305 29.834 90.4714 30.0959C90.3122 30.3545 90.2327 30.6496 90.2327 30.9811V35.6455H88.7458ZM96.5784 35.7997C95.8259 35.7997 95.1778 35.6389 94.6341 35.3173C94.0937 34.9924 93.676 34.5366 93.381 33.9498C93.0892 33.3597 92.9434 32.6685 92.9434 31.8762C92.9434 31.0938 93.0892 30.4042 93.381 29.8075C93.676 29.2108 94.0871 28.745 94.6142 28.4102C95.1446 28.0753 95.7646 27.9079 96.474 27.9079C96.905 27.9079 97.3227 27.9792 97.7271 28.1218C98.1316 28.2643 98.4946 28.4881 98.8162 28.7931C99.1377 29.0981 99.3913 29.4942 99.577 29.9816C99.7626 30.4656 99.8555 31.054 99.8555 31.7469V32.274H93.7838V31.1601H98.3985C98.3985 30.7689 98.3189 30.4225 98.1598 30.1208C98.0006 29.8158 97.7769 29.5755 97.4884 29.3998C97.2033 29.2241 96.8685 29.1362 96.484 29.1362C96.0662 29.1362 95.7016 29.239 95.39 29.4445C95.0816 29.6467 94.843 29.9119 94.6739 30.2401C94.5081 30.565 94.4252 30.9181 94.4252 31.2993V32.1696C94.4252 32.6801 94.5148 33.1144 94.6938 33.4724C94.8761 33.8305 95.1297 34.104 95.4546 34.2929C95.7795 34.4786 96.1591 34.5714 96.5934 34.5714C96.8751 34.5714 97.1321 34.5316 97.3641 34.4521C97.5962 34.3692 97.7968 34.2465 97.9658 34.0841C98.1349 33.9216 98.2642 33.7211 98.3537 33.4824L99.761 33.736C99.6483 34.1504 99.446 34.5134 99.1543 34.825C98.8659 35.1333 98.5029 35.3737 98.0653 35.5461C97.631 35.7151 97.1354 35.7997 96.5784 35.7997ZM107.26 28.0074L104.491 35.6455H102.899L100.125 28.0074H101.721L103.655 33.8852H103.735L105.664 28.0074H107.26ZM108.098 35.6455V28.0074H109.584V35.6455H108.098ZM108.849 26.8289C108.59 26.8289 108.368 26.7427 108.182 26.5703C108 26.3946 107.909 26.1857 107.909 25.9437C107.909 25.6984 108 25.4895 108.182 25.3171C108.368 25.1414 108.59 25.0536 108.849 25.0536C109.107 25.0536 109.328 25.1414 109.51 25.3171C109.696 25.4895 109.788 25.6984 109.788 25.9437C109.788 26.1857 109.696 26.3946 109.51 26.5703C109.328 26.7427 109.107 26.8289 108.849 26.8289ZM114.317 35.7997C113.564 35.7997 112.916 35.6389 112.372 35.3173C111.832 34.9924 111.414 34.5366 111.119 33.9498C110.827 33.3597 110.682 32.6685 110.682 31.8762C110.682 31.0938 110.827 30.4042 111.119 29.8075C111.414 29.2108 111.825 28.745 112.352 28.4102C112.883 28.0753 113.503 27.9079 114.212 27.9079C114.643 27.9079 115.061 27.9792 115.465 28.1218C115.87 28.2643 116.233 28.4881 116.554 28.7931C116.876 29.0981 117.129 29.4942 117.315 29.9816C117.501 30.4656 117.594 31.054 117.594 31.7469V32.274H111.522V31.1601H116.137C116.137 30.7689 116.057 30.4225 115.898 30.1208C115.739 29.8158 115.515 29.5755 115.227 29.3998C114.941 29.2241 114.607 29.1362 114.222 29.1362C113.804 29.1362 113.44 29.239 113.128 29.4445C112.82 29.6467 112.581 29.9119 112.412 30.2401C112.246 30.565 112.163 30.9181 112.163 31.2993V32.1696C112.163 32.6801 112.253 33.1144 112.432 33.4724C112.614 33.8305 112.868 34.104 113.193 34.2929C113.518 34.4786 113.897 34.5714 114.331 34.5714C114.613 34.5714 114.87 34.5316 115.102 34.4521C115.334 34.3692 115.535 34.2465 115.704 34.0841C115.873 33.9216 116.002 33.7211 116.092 33.4824L117.499 33.736C117.386 34.1504 117.184 34.5134 116.892 34.825C116.604 35.1333 116.241 35.3737 115.803 35.5461C115.369 35.7151 114.874 35.7997 114.317 35.7997ZM120.325 35.6455L118.078 28.0074H119.614L121.111 33.6166H121.186L122.687 28.0074H124.224L125.716 33.5918H125.79L127.277 28.0074H128.814L126.571 35.6455H125.054L123.503 30.1307H123.389L121.837 35.6455H120.325ZM132.724 35.7997C131.972 35.7997 131.324 35.6389 130.78 35.3173C130.24 34.9924 129.822 34.5366 129.527 33.9498C129.235 33.3597 129.089 32.6685 129.089 31.8762C129.089 31.0938 129.235 30.4042 129.527 29.8075C129.822 29.2108 130.233 28.745 130.76 28.4102C131.29 28.0753 131.91 27.9079 132.62 27.9079C133.051 27.9079 133.468 27.9792 133.873 28.1218C134.277 28.2643 134.64 28.4881 134.962 28.7931C135.284 29.0981 135.537 29.4942 135.723 29.9816C135.908 30.4656 136.001 31.054 136.001 31.7469V32.274H129.93V31.1601H134.544C134.544 30.7689 134.465 30.4225 134.306 30.1208C134.146 29.8158 133.923 29.5755 133.634 29.3998C133.349 29.2241 133.014 29.1362 132.63 29.1362C132.212 29.1362 131.847 29.239 131.536 29.4445C131.227 29.6467 130.989 29.9119 130.82 30.2401C130.654 30.565 130.571 30.9181 130.571 31.2993V32.1696C130.571 32.6801 130.661 33.1144 130.84 33.4724C131.022 33.8305 131.276 34.104 131.6 34.2929C131.925 34.4786 132.305 34.5714 132.739 34.5714C133.021 34.5714 133.278 34.5316 133.51 34.4521C133.742 34.3692 133.943 34.2465 134.112 34.0841C134.281 33.9216 134.41 33.7211 134.5 33.4824L135.907 33.736C135.794 34.1504 135.592 34.5134 135.3 34.825C135.012 35.1333 134.649 35.3737 134.211 35.5461C133.777 35.7151 133.281 35.7997 132.724 35.7997ZM139.95 35.7947C139.334 35.7947 138.783 35.6372 138.299 35.3223C137.819 35.004 137.441 34.5515 137.165 33.9647C136.894 33.3746 136.758 32.6668 136.758 31.8414C136.758 31.0159 136.895 30.3098 137.17 29.723C137.449 29.1362 137.83 28.687 138.314 28.3754C138.798 28.0637 139.347 27.9079 139.96 27.9079C140.434 27.9079 140.815 27.9875 141.104 28.1466C141.396 28.3024 141.621 28.4848 141.78 28.6936C141.943 28.9025 142.069 29.0865 142.158 29.2456H142.248V25.4613H143.734V35.6455H142.282V34.457H142.158C142.069 34.6195 141.939 34.8051 141.77 35.014C141.604 35.2228 141.376 35.4052 141.084 35.561C140.792 35.7168 140.414 35.7947 139.95 35.7947ZM140.278 34.5266C140.706 34.5266 141.067 34.4139 141.362 34.1885C141.661 33.9598 141.886 33.6432 142.039 33.2387C142.195 32.8343 142.272 32.3635 142.272 31.8264C142.272 31.296 142.196 30.8319 142.044 30.4341C141.891 30.0363 141.667 29.7263 141.372 29.5042C141.077 29.2821 140.713 29.171 140.278 29.171C139.831 29.171 139.458 29.287 139.16 29.5191C138.861 29.7512 138.636 30.0678 138.483 30.4689C138.334 30.87 138.259 31.3225 138.259 31.8264C138.259 32.337 138.336 32.7961 138.488 33.2039C138.641 33.6117 138.866 33.9349 139.164 34.1736C139.466 34.409 139.837 34.5266 140.278 34.5266ZM51.1968 44.1367C51.1438 43.6659 50.925 43.3013 50.5404 43.0427C50.1559 42.7808 49.6719 42.6498 49.0884 42.6498C48.6707 42.6498 48.3093 42.7161 48.0043 42.8487C47.6993 42.978 47.4623 43.1571 47.2932 43.3858C47.1275 43.6112 47.0446 43.8682 47.0446 44.1566C47.0446 44.3986 47.1009 44.6074 47.2137 44.7831C47.3297 44.9588 47.4805 45.1064 47.6662 45.2257C47.8551 45.3417 48.0574 45.4395 48.2729 45.5191C48.4883 45.5953 48.6955 45.6583 48.8944 45.7081L49.889 45.9666C50.2139 46.0462 50.5471 46.154 50.8885 46.2899C51.23 46.4258 51.5466 46.6048 51.8383 46.8269C52.13 47.049 52.3654 47.3242 52.5444 47.6524C52.7268 47.9806 52.8179 48.3734 52.8179 48.8309C52.8179 49.4078 52.6688 49.92 52.3704 50.3675C52.0753 50.8151 51.646 51.1681 51.0825 51.4267C50.5222 51.6853 49.8442 51.8146 49.0486 51.8146C48.2861 51.8146 47.6264 51.6936 47.0695 51.4516C46.5125 51.2096 46.0766 50.8664 45.7616 50.4222C45.4467 49.9747 45.2726 49.4442 45.2395 48.8309H46.781C46.8109 49.1989 46.9302 49.5056 47.1391 49.7509C47.3512 49.9929 47.6214 50.1736 47.9496 50.2929C48.2811 50.409 48.6442 50.467 49.0387 50.467C49.4729 50.467 49.8592 50.399 50.1973 50.2631C50.5388 50.1239 50.8073 49.9316 51.0029 49.6863C51.1985 49.4376 51.2963 49.1475 51.2963 48.816C51.2963 48.5143 51.2101 48.2674 51.0377 48.0751C50.8686 47.8828 50.6382 47.7237 50.3465 47.5977C50.0581 47.4717 49.7315 47.3607 49.3669 47.2645L48.1635 46.9363C47.3479 46.7142 46.7015 46.3877 46.2241 45.9567C45.75 45.5257 45.513 44.9555 45.513 44.2461C45.513 43.6593 45.6721 43.1471 45.9904 42.7095C46.3086 42.2719 46.7396 41.9321 47.2833 41.6901C47.827 41.4448 48.4403 41.3221 49.1232 41.3221C49.8127 41.3221 50.4211 41.4431 50.9482 41.6851C51.4786 41.9271 51.8963 42.2603 52.2013 42.6846C52.5063 43.1057 52.6654 43.5897 52.6787 44.1367H51.1968ZM55.4615 47.1104V51.6455H53.9746V41.4613H55.4416V45.2506H55.5361C55.7151 44.8395 55.9886 44.5129 56.3566 44.2709C56.7246 44.0289 57.2053 43.9079 57.7987 43.9079C58.3225 43.9079 58.78 44.0157 59.1711 44.2312C59.5657 44.4466 59.8706 44.7682 60.0861 45.1959C60.3049 45.6202 60.4143 46.1506 60.4143 46.7871V51.6455H58.9275V46.9662C58.9275 46.4059 58.7833 45.9716 58.4949 45.6633C58.2064 45.3517 57.8053 45.1959 57.2915 45.1959C56.94 45.1959 56.6251 45.2705 56.3466 45.4196C56.0715 45.5688 55.8543 45.7876 55.6952 46.076C55.5394 46.3611 55.4615 46.7059 55.4615 47.1104ZM65.0557 51.7997C64.3396 51.7997 63.7147 51.6356 63.181 51.3074C62.6472 50.9792 62.2328 50.52 61.9378 49.9299C61.6427 49.3398 61.4952 48.6503 61.4952 47.8613C61.4952 47.0689 61.6427 46.3761 61.9378 45.7827C62.2328 45.1892 62.6472 44.7284 63.181 44.4002C63.7147 44.072 64.3396 43.9079 65.0557 43.9079C65.7718 43.9079 66.3967 44.072 66.9304 44.4002C67.4641 44.7284 67.8785 45.1892 68.1736 45.7827C68.4686 46.3761 68.6162 47.0689 68.6162 47.8613C68.6162 48.6503 68.4686 49.3398 68.1736 49.9299C67.8785 50.52 67.4641 50.9792 66.9304 51.3074C66.3967 51.6356 65.7718 51.7997 65.0557 51.7997ZM65.0607 50.5515C65.5248 50.5515 65.9093 50.4288 66.2143 50.1835C66.5193 49.9382 66.7448 49.6117 66.8906 49.2039C67.0398 48.7961 67.1144 48.3469 67.1144 47.8563C67.1144 47.369 67.0398 46.9214 66.8906 46.5136C66.7448 46.1026 66.5193 45.7727 66.2143 45.5241C65.9093 45.2754 65.5248 45.1511 65.0607 45.1511C64.5932 45.1511 64.2053 45.2754 63.897 45.5241C63.592 45.7727 63.365 46.1026 63.2158 46.5136C63.0699 46.9214 62.997 47.369 62.997 47.8563C62.997 48.3469 63.0699 48.7961 63.2158 49.2039C63.365 49.6117 63.592 49.9382 63.897 50.1835C64.2053 50.4288 64.5932 50.5515 65.0607 50.5515ZM69.7157 54.5098V44.0074H71.1677V45.2456H71.292C71.3782 45.0865 71.5026 44.9025 71.665 44.6936C71.8274 44.4848 72.0529 44.3024 72.3413 44.1466C72.6297 43.9875 73.0109 43.9079 73.485 43.9079C74.1016 43.9079 74.6519 44.0637 75.136 44.3754C75.62 44.687 75.9996 45.1362 76.2747 45.723C76.5532 46.3098 76.6924 47.0159 76.6924 47.8414C76.6924 48.6668 76.5548 49.3746 76.2797 49.9647C76.0045 50.5515 75.6266 51.004 75.1459 51.3223C74.6652 51.6372 74.1166 51.7947 73.4999 51.7947C73.0358 51.7947 72.6562 51.7168 72.3612 51.561C72.0694 51.4052 71.8407 51.2228 71.6749 51.014C71.5092 50.8051 71.3815 50.6195 71.292 50.457H71.2025V54.5098H69.7157ZM71.1727 47.8264C71.1727 48.3635 71.2506 48.8343 71.4064 49.2387C71.5622 49.6432 71.7877 49.9598 72.0827 50.1885C72.3778 50.4139 72.7391 50.5266 73.1668 50.5266C73.611 50.5266 73.9823 50.409 74.2807 50.1736C74.579 49.9349 74.8044 49.6117 74.9569 49.2039C75.1128 48.7961 75.1907 48.337 75.1907 47.8264C75.1907 47.3225 75.1144 46.87 74.9619 46.4689C74.8127 46.0678 74.5873 45.7512 74.2856 45.5191C73.9873 45.287 73.6143 45.171 73.1668 45.171C72.7358 45.171 72.3711 45.2821 72.0728 45.5042C71.7777 45.7263 71.5539 46.0363 71.4014 46.4341C71.2489 46.8319 71.1727 47.296 71.1727 47.8264ZM77.7982 51.6455V44.0074H79.285V51.6455H77.7982ZM78.549 42.8289C78.2905 42.8289 78.0683 42.7427 77.8827 42.5703C77.7004 42.3946 77.6092 42.1857 77.6092 41.9437C77.6092 41.6984 77.7004 41.4895 77.8827 41.3171C78.0683 41.1414 78.2905 41.0536 78.549 41.0536C78.8076 41.0536 79.0281 41.1414 79.2104 41.3171C79.3961 41.4895 79.4889 41.6984 79.4889 41.9437C79.4889 42.1857 79.3961 42.3946 79.2104 42.5703C79.0281 42.7427 78.8076 42.8289 78.549 42.8289ZM84.3602 44.0074V45.2008H80.0439V44.0074H84.3602ZM81.2274 51.6455V43.1222C81.2274 42.6449 81.3318 42.2487 81.5407 41.9338C81.7495 41.6155 82.0264 41.3785 82.3711 41.2227C82.7159 41.0635 83.0905 40.984 83.495 40.984C83.7933 40.984 84.0486 41.0088 84.2608 41.0586C84.4729 41.105 84.6304 41.1481 84.7332 41.1878L84.3851 42.3913C84.3155 42.3714 84.226 42.3482 84.1166 42.3216C84.0072 42.2918 83.8746 42.2769 83.7187 42.2769C83.3574 42.2769 83.0988 42.3664 82.943 42.5454C82.7905 42.7244 82.7143 42.983 82.7143 43.3212V51.6455H81.2274ZM86.274 54.5098C86.0519 54.5098 85.8497 54.4916 85.6674 54.4551C85.485 54.422 85.3491 54.3855 85.2596 54.3457L85.6176 53.1274C85.8895 53.2003 86.1315 53.2318 86.3437 53.2219C86.5558 53.2119 86.7431 53.1324 86.9056 52.9832C87.0713 52.834 87.2172 52.5903 87.3432 52.2522L87.5272 51.745L84.7325 44.0074H86.3238L88.2582 49.9349H88.3377L90.2721 44.0074H91.8684L88.7206 52.6649C88.5748 53.0627 88.3891 53.3992 88.1637 53.6744C87.9382 53.9529 87.6697 54.1617 87.3581 54.3009C87.0465 54.4402 86.6851 54.5098 86.274 54.5098ZM99.0687 51.7997C98.3295 51.7997 97.6929 51.6322 97.1592 51.2974C96.6288 50.9593 96.221 50.4935 95.9359 49.9001C95.6508 49.3067 95.5083 48.6271 95.5083 47.8613C95.5083 47.0855 95.6541 46.4009 95.9459 45.8075C96.2376 45.2108 96.6487 44.745 97.1791 44.4102C97.7095 44.0753 98.3344 43.9079 99.0538 43.9079C99.634 43.9079 100.151 44.0157 100.605 44.2312C101.059 44.4433 101.426 44.7417 101.704 45.1263C101.986 45.5108 102.153 45.96 102.207 46.4739H100.759C100.68 46.1158 100.498 45.8075 100.212 45.5489C99.9307 45.2904 99.5527 45.1611 99.0787 45.1611C98.6643 45.1611 98.3013 45.2705 97.9896 45.4893C97.6813 45.7047 97.441 46.0131 97.2686 46.4142C97.0962 46.812 97.01 47.2828 97.01 47.8264C97.01 48.3834 97.0946 48.8641 97.2636 49.2685C97.4327 49.673 97.6714 49.9863 97.9797 50.2084C98.2913 50.4305 98.6577 50.5416 99.0787 50.5416C99.3605 50.5416 99.6157 50.4902 99.8445 50.3874C100.077 50.2813 100.27 50.1305 100.426 49.9349C100.585 49.7393 100.696 49.5039 100.759 49.2288H102.207C102.153 49.7227 101.993 50.1636 101.724 50.5515C101.456 50.9394 101.096 51.2444 100.645 51.4665C100.198 51.6886 99.6721 51.7997 99.0687 51.7997ZM106.454 51.7997C105.738 51.7997 105.113 51.6356 104.579 51.3074C104.045 50.9792 103.631 50.52 103.336 49.9299C103.041 49.3398 102.893 48.6503 102.893 47.8613C102.893 47.0689 103.041 46.3761 103.336 45.7827C103.631 45.1892 104.045 44.7284 104.579 44.4002C105.113 44.072 105.738 43.9079 106.454 43.9079C107.17 43.9079 107.795 44.072 108.329 44.4002C108.862 44.7284 109.277 45.1892 109.572 45.7827C109.867 46.3761 110.014 47.0689 110.014 47.8613C110.014 48.6503 109.867 49.3398 109.572 49.9299C109.277 50.52 108.862 50.9792 108.329 51.3074C107.795 51.6356 107.17 51.7997 106.454 51.7997ZM106.459 50.5515C106.923 50.5515 107.307 50.4288 107.612 50.1835C107.917 49.9382 108.143 49.6117 108.289 49.2039C108.438 48.7961 108.513 48.3469 108.513 47.8563C108.513 47.369 108.438 46.9214 108.289 46.5136C108.143 46.1026 107.917 45.7727 107.612 45.5241C107.307 45.2754 106.923 45.1511 106.459 45.1511C105.991 45.1511 105.603 45.2754 105.295 45.5241C104.99 45.7727 104.763 46.1026 104.614 46.5136C104.468 46.9214 104.395 47.369 104.395 47.8563C104.395 48.3469 104.468 48.7961 104.614 49.2039C104.763 49.6117 104.99 49.9382 105.295 50.1835C105.603 50.4288 105.991 50.5515 106.459 50.5515ZM111.114 51.6455V44.0074H112.541V45.2506H112.635C112.795 44.8295 113.055 44.5013 113.416 44.266C113.778 44.0273 114.21 43.9079 114.714 43.9079C115.225 43.9079 115.652 44.0273 115.997 44.266C116.345 44.5047 116.602 44.8329 116.768 45.2506H116.847C117.03 44.8428 117.32 44.5179 117.718 44.2759C118.115 44.0306 118.589 43.9079 119.14 43.9079C119.833 43.9079 120.398 44.1251 120.835 44.5594C121.276 44.9936 121.497 45.6484 121.497 46.5236V51.6455H120.01V46.6628C120.01 46.1457 119.869 45.7711 119.587 45.539C119.306 45.3069 118.969 45.1909 118.578 45.1909C118.094 45.1909 117.718 45.3401 117.449 45.6384C117.181 45.9335 117.046 46.3131 117.046 46.7772V51.6455H115.564V46.5683C115.564 46.154 115.435 45.8208 115.177 45.5688C114.918 45.3169 114.581 45.1909 114.167 45.1909C113.885 45.1909 113.625 45.2655 113.386 45.4147C113.151 45.5605 112.96 45.7644 112.814 46.0263C112.672 46.2882 112.601 46.5916 112.601 46.9363V51.6455H111.114ZM122.93 54.5098V44.0074H124.382V45.2456H124.506C124.592 45.0865 124.716 44.9025 124.879 44.6936C125.041 44.4848 125.267 44.3024 125.555 44.1466C125.844 43.9875 126.225 43.9079 126.699 43.9079C127.316 43.9079 127.866 44.0637 128.35 44.3754C128.834 44.687 129.213 45.1362 129.489 45.723C129.767 46.3098 129.906 47.0159 129.906 47.8414C129.906 48.6668 129.769 49.3746 129.494 49.9647C129.218 50.5515 128.84 51.004 128.36 51.3223C127.879 51.6372 127.33 51.7947 126.714 51.7947C126.25 51.7947 125.87 51.7168 125.575 51.561C125.283 51.4052 125.055 51.2228 124.889 51.014C124.723 50.8051 124.595 50.6195 124.506 50.457H124.416V54.5098H122.93ZM124.387 47.8264C124.387 48.3635 124.464 48.8343 124.62 49.2387C124.776 49.6432 125.002 49.9598 125.297 50.1885C125.592 50.4139 125.953 50.5266 126.381 50.5266C126.825 50.5266 127.196 50.409 127.495 50.1736C127.793 49.9349 128.018 49.6117 128.171 49.2039C128.327 48.7961 128.405 48.337 128.405 47.8264C128.405 47.3225 128.328 46.87 128.176 46.4689C128.027 46.0678 127.801 45.7512 127.499 45.5191C127.201 45.287 126.828 45.171 126.381 45.171C125.95 45.171 125.585 45.2821 125.287 45.5042C124.992 45.7263 124.768 46.0363 124.615 46.4341C124.463 46.8319 124.387 47.296 124.387 47.8264ZM133.235 51.8146C132.751 51.8146 132.313 51.7251 131.922 51.5461C131.531 51.3637 131.221 51.1002 130.992 50.7554C130.767 50.4106 130.654 49.9879 130.654 49.4873C130.654 49.0564 130.737 48.7016 130.903 48.4232C131.068 48.1447 131.292 47.9242 131.574 47.7618C131.856 47.5994 132.171 47.4767 132.519 47.3938C132.867 47.3109 133.222 47.248 133.583 47.2049C134.04 47.1518 134.412 47.1087 134.697 47.0756C134.982 47.0391 135.189 46.9811 135.318 46.9015C135.448 46.822 135.512 46.6927 135.512 46.5136V46.4788C135.512 46.0446 135.39 45.7081 135.144 45.4694C134.902 45.2307 134.541 45.1113 134.06 45.1113C133.56 45.1113 133.165 45.2224 132.877 45.4445C132.592 45.6633 132.394 45.907 132.285 46.1755L130.888 45.8572C131.053 45.3931 131.295 45.0185 131.614 44.7334C131.935 44.445 132.305 44.2361 132.723 44.1068C133.14 43.9742 133.58 43.9079 134.04 43.9079C134.345 43.9079 134.669 43.9444 135.01 44.0173C135.355 44.087 135.676 44.2162 135.975 44.4052C136.276 44.5942 136.523 44.8644 136.716 45.2158C136.908 45.5639 137.004 46.0164 137.004 46.5733V51.6455H135.552V50.6012H135.492C135.396 50.7935 135.252 50.9825 135.06 51.1681C134.868 51.3538 134.621 51.5079 134.319 51.6306C134.017 51.7533 133.656 51.8146 133.235 51.8146ZM133.558 50.6211C133.969 50.6211 134.321 50.5399 134.612 50.3775C134.907 50.215 135.131 50.0028 135.284 49.741C135.439 49.4757 135.517 49.1923 135.517 48.8906V47.906C135.464 47.9591 135.362 48.0088 135.209 48.0552C135.06 48.0983 134.889 48.1364 134.697 48.1696C134.505 48.1994 134.317 48.2276 134.135 48.2541C133.953 48.2773 133.8 48.2972 133.677 48.3138C133.389 48.3502 133.125 48.4116 132.887 48.4978C132.651 48.584 132.462 48.7083 132.32 48.8707C132.181 49.0298 132.111 49.242 132.111 49.5072C132.111 49.8752 132.247 50.1537 132.519 50.3427C132.791 50.5283 133.137 50.6211 133.558 50.6211ZM139.911 47.1104V51.6455H138.424V44.0074H139.852V45.2506H139.946C140.122 44.8461 140.397 44.5212 140.772 44.2759C141.149 44.0306 141.625 43.9079 142.199 43.9079C142.719 43.9079 143.175 44.0173 143.566 44.2361C143.957 44.4516 144.261 44.7732 144.476 45.2008C144.692 45.6285 144.799 46.1573 144.799 46.7871V51.6455H143.313V46.9662C143.313 46.4125 143.168 45.9799 142.88 45.6683C142.592 45.3533 142.195 45.1959 141.692 45.1959C141.347 45.1959 141.04 45.2705 140.772 45.4196C140.506 45.5688 140.296 45.7876 140.14 46.076C139.988 46.3611 139.911 46.7059 139.911 47.1104ZM146.9 54.5098C146.678 54.5098 146.475 54.4916 146.293 54.4551C146.111 54.422 145.975 54.3855 145.885 54.3457L146.243 53.1274C146.515 53.2003 146.757 53.2318 146.969 53.2219C147.182 53.2119 147.369 53.1324 147.531 52.9832C147.697 52.834 147.843 52.5903 147.969 52.2522L148.153 51.745L145.358 44.0074H146.949L148.884 49.9349H148.963L150.898 44.0074H152.494L149.346 52.6649C149.2 53.0627 149.015 53.3992 148.789 53.6744C148.564 53.9529 148.295 54.1617 147.984 54.3009C147.672 54.4402 147.311 54.5098 146.9 54.5098Z" fill="white"/>
<path d="M63.3877 67.3907V66.642H67.8488V67.3907H66.0503V72.4062H65.1834V67.3907H63.3877ZM69.3708 69.8394V72.4062H68.5293V66.642H69.3596V68.7867H69.413C69.5144 68.5541 69.6692 68.3692 69.8774 68.2323C70.0857 68.0953 70.3578 68.0268 70.6937 68.0268C70.9901 68.0268 71.2491 68.0878 71.4705 68.2097C71.6938 68.3317 71.8664 68.5137 71.9883 68.7558C72.1122 68.9959 72.1741 69.2962 72.1741 69.6564V72.4062H71.3326V69.7578C71.3326 69.4406 71.2509 69.1948 71.0877 69.0203C70.9244 68.844 70.6974 68.7558 70.4066 68.7558C70.2077 68.7558 70.0294 68.798 69.8718 68.8824C69.7161 68.9669 69.5932 69.0907 69.5031 69.2539C69.4149 69.4153 69.3708 69.6105 69.3708 69.8394ZM74.9226 72.4935C74.4966 72.4935 74.1298 72.4025 73.8221 72.2205C73.5162 72.0366 73.2798 71.7786 73.1128 71.4465C72.9477 71.1125 72.8651 70.7213 72.8651 70.2728C72.8651 69.83 72.9477 69.4397 73.1128 69.102C73.2798 68.7642 73.5125 68.5006 73.8108 68.3111C74.111 68.1216 74.4619 68.0268 74.8635 68.0268C75.1074 68.0268 75.3438 68.0671 75.5727 68.1478C75.8017 68.2285 76.0071 68.3552 76.1891 68.5278C76.3711 68.7004 76.5147 68.9246 76.6198 69.2005C76.7248 69.4744 76.7774 69.8075 76.7774 70.1996V70.498H73.3408V69.8675H75.9527C75.9527 69.6461 75.9077 69.45 75.8176 69.2793C75.7275 69.1067 75.6009 68.9706 75.4376 68.8712C75.2763 68.7717 75.0868 68.722 74.8691 68.722C74.6327 68.722 74.4263 68.7802 74.2499 68.8965C74.0754 69.011 73.9403 69.1611 73.8446 69.3468C73.7508 69.5307 73.7039 69.7305 73.7039 69.9463V70.4389C73.7039 70.7278 73.7545 70.9736 73.8559 71.1763C73.9591 71.3789 74.1026 71.5337 74.2865 71.6407C74.4704 71.7458 74.6852 71.7983 74.931 71.7983C75.0905 71.7983 75.2359 71.7758 75.3673 71.7308C75.4986 71.6838 75.6121 71.6144 75.7078 71.5225C75.8035 71.4305 75.8767 71.317 75.9274 71.1819L76.7239 71.3255C76.6601 71.56 76.5456 71.7655 76.3805 71.9418C76.2173 72.1164 76.0118 72.2524 75.7641 72.35C75.5183 72.4457 75.2378 72.4935 74.9226 72.4935ZM79.4007 66.642H80.4561L82.2912 71.1228H82.3587L84.1938 66.642H85.2493V72.4062H84.4218V68.2351H84.3683L82.6684 72.3978H81.9816L80.2816 68.2323H80.2281V72.4062H79.4007V66.642ZM87.4665 72.5019C87.1926 72.5019 86.9449 72.4513 86.7235 72.35C86.5021 72.2468 86.3266 72.0976 86.1972 71.9024C86.0696 71.7073 86.0058 71.4681 86.0058 71.1847C86.0058 70.9408 86.0527 70.74 86.1465 70.5824C86.2403 70.4248 86.367 70.3 86.5265 70.2081C86.686 70.1161 86.8642 70.0467 87.0612 69.9998C87.2582 69.9529 87.459 69.9172 87.6635 69.8929C87.9225 69.8628 88.1326 69.8384 88.294 69.8197C88.4554 69.799 88.5726 69.7662 88.6458 69.7212C88.719 69.6761 88.7556 69.603 88.7556 69.5016V69.4819C88.7556 69.2361 88.6862 69.0457 88.5473 68.9106C88.4103 68.7755 88.2058 68.7079 87.9337 68.7079C87.6504 68.7079 87.4271 68.7708 87.2639 68.8965C87.1025 69.0203 86.9909 69.1583 86.9289 69.3102L86.1381 69.1301C86.2319 68.8674 86.3688 68.6554 86.549 68.494C86.731 68.3308 86.9402 68.2126 87.1766 68.1394C87.413 68.0643 87.6617 68.0268 87.9225 68.0268C88.0951 68.0268 88.2781 68.0474 88.4713 68.0887C88.6665 68.1281 88.8485 68.2013 89.0173 68.3083C89.1881 68.4152 89.3279 68.5681 89.4367 68.767C89.5455 68.964 89.6 69.2202 89.6 69.5354V72.4062H88.7781V71.8152H88.7443C88.6899 71.924 88.6083 72.031 88.4995 72.1361C88.3906 72.2411 88.2508 72.3284 88.0801 72.3978C87.9093 72.4672 87.7048 72.5019 87.4665 72.5019ZM87.6495 71.8265C87.8821 71.8265 88.081 71.7805 88.2462 71.6885C88.4132 71.5966 88.5398 71.4765 88.6261 71.3283C88.7143 71.1782 88.7584 71.0177 88.7584 70.847V70.2897C88.7284 70.3197 88.6702 70.3479 88.5839 70.3741C88.4995 70.3985 88.4028 70.4201 88.294 70.4389C88.1852 70.4558 88.0792 70.4717 87.976 70.4867C87.8728 70.4999 87.7864 70.5111 87.717 70.5205C87.5538 70.5411 87.4046 70.5759 87.2695 70.6246C87.1363 70.6734 87.0293 70.7438 86.9486 70.8357C86.8698 70.9258 86.8304 71.0459 86.8304 71.196C86.8304 71.4043 86.9074 71.5619 87.0612 71.6688C87.2151 71.7739 87.4112 71.8265 87.6495 71.8265ZM91.3246 69.8394V72.4062H90.4831V68.0831H91.2909V68.7867H91.3443C91.4438 68.5578 91.5995 68.3739 91.8115 68.2351C92.0255 68.0962 92.2947 68.0268 92.6193 68.0268C92.9139 68.0268 93.1719 68.0887 93.3933 68.2126C93.6147 68.3345 93.7864 68.5165 93.9084 68.7586C94.0304 69.0006 94.0913 69.2999 94.0913 69.6564V72.4062H93.2498V69.7578C93.2498 69.4444 93.1682 69.1995 93.0049 69.0232C92.8417 68.8449 92.6175 68.7558 92.3322 68.7558C92.1371 68.7558 91.9635 68.798 91.8115 68.8824C91.6614 68.9669 91.5423 69.0907 91.4541 69.2539C91.3678 69.4153 91.3246 69.6105 91.3246 69.8394ZM94.9822 72.4062V68.0831H95.8238V72.4062H94.9822ZM95.4072 67.416C95.2608 67.416 95.1351 67.3673 95.0301 67.2697C94.9269 67.1702 94.8753 67.052 94.8753 66.915C94.8753 66.7762 94.9269 66.658 95.0301 66.5604C95.1351 66.461 95.2608 66.4112 95.4072 66.4112C95.5536 66.4112 95.6783 66.461 95.7815 66.5604C95.8866 66.658 95.9392 66.7762 95.9392 66.915C95.9392 67.052 95.8866 67.1702 95.7815 67.2697C95.6783 67.3673 95.5536 67.416 95.4072 67.416ZM98.7756 68.0831V68.7586H96.3325V68.0831H98.7756ZM97.0024 72.4062V67.5821C97.0024 67.3119 97.0615 67.0877 97.1797 66.9094C97.2979 66.7293 97.4546 66.5951 97.6498 66.5069C97.8449 66.4169 98.0569 66.3718 98.2858 66.3718C98.4547 66.3718 98.5992 66.3859 98.7193 66.4141C98.8394 66.4403 98.9285 66.4647 98.9867 66.4872L98.7897 67.1684C98.7502 67.1571 98.6996 67.144 98.6377 67.129C98.5757 67.1121 98.5007 67.1036 98.4125 67.1036C98.208 67.1036 98.0616 67.1543 97.9734 67.2556C97.8871 67.3569 97.844 67.5033 97.844 67.6947V72.4062H97.0024ZM101.099 72.4935C100.673 72.4935 100.306 72.4025 99.9986 72.2205C99.6927 72.0366 99.4563 71.7786 99.2893 71.4465C99.1242 71.1125 99.0416 70.7213 99.0416 70.2728C99.0416 69.83 99.1242 69.4397 99.2893 69.102C99.4563 68.7642 99.689 68.5006 99.9873 68.3111C100.288 68.1216 100.638 68.0268 101.04 68.0268C101.284 68.0268 101.52 68.0671 101.749 68.1478C101.978 68.2285 102.184 68.3552 102.366 68.5278C102.548 68.7004 102.691 68.9246 102.796 69.2005C102.901 69.4744 102.954 69.8075 102.954 70.1996V70.498H99.5173V69.8675H102.129C102.129 69.6461 102.084 69.45 101.994 69.2793C101.904 69.1067 101.777 68.9706 101.614 68.8712C101.453 68.7717 101.263 68.722 101.046 68.722C100.809 68.722 100.603 68.7802 100.426 68.8965C100.252 69.011 100.117 69.1611 100.021 69.3468C99.9273 69.5307 99.8803 69.7305 99.8803 69.9463V70.4389C99.8803 70.7278 99.931 70.9736 100.032 71.1763C100.136 71.3789 100.279 71.5337 100.463 71.6407C100.647 71.7458 100.862 71.7983 101.107 71.7983C101.267 71.7983 101.412 71.7758 101.544 71.7308C101.675 71.6838 101.789 71.6144 101.884 71.5225C101.98 71.4305 102.053 71.317 102.104 71.1819L102.9 71.3255C102.837 71.56 102.722 71.7655 102.557 71.9418C102.394 72.1164 102.188 72.2524 101.941 72.35C101.695 72.4457 101.414 72.4935 101.099 72.4935ZM106.889 69.1385L106.127 69.2736C106.095 69.1761 106.044 69.0832 105.975 68.995C105.907 68.9068 105.815 68.8346 105.699 68.7783C105.582 68.722 105.437 68.6938 105.263 68.6938C105.024 68.6938 104.825 68.7473 104.666 68.8543C104.506 68.9594 104.427 69.0954 104.427 69.2624C104.427 69.4069 104.48 69.5232 104.587 69.6114C104.694 69.6996 104.867 69.7718 105.105 69.8281L105.792 69.9857C106.189 70.0777 106.486 70.2193 106.681 70.4107C106.876 70.6021 106.974 70.8507 106.974 71.1566C106.974 71.4155 106.899 71.6463 106.749 71.849C106.6 72.0497 106.393 72.2074 106.127 72.3218C105.862 72.4363 105.555 72.4935 105.206 72.4935C104.722 72.4935 104.327 72.3903 104.021 72.1839C103.715 71.9756 103.528 71.6801 103.458 71.2973L104.272 71.1735C104.322 71.3855 104.427 71.5459 104.584 71.6548C104.742 71.7617 104.947 71.8152 105.201 71.8152C105.476 71.8152 105.697 71.758 105.862 71.6435C106.027 71.5272 106.11 71.3855 106.11 71.2185C106.11 71.0834 106.059 70.9699 105.958 70.8779C105.858 70.786 105.705 70.7166 105.499 70.6697L104.767 70.5092C104.364 70.4173 104.065 70.2709 103.872 70.0702C103.681 69.8694 103.585 69.6151 103.585 69.3074C103.585 69.0522 103.656 68.8289 103.799 68.6376C103.942 68.4462 104.139 68.297 104.39 68.19C104.641 68.0812 104.929 68.0268 105.254 68.0268C105.721 68.0268 106.089 68.1281 106.357 68.3308C106.626 68.5315 106.803 68.8008 106.889 69.1385ZM109.679 68.0831V68.7586H107.318V68.0831H109.679ZM107.951 67.0473H108.793V71.1369C108.793 71.3001 108.817 71.423 108.866 71.5056C108.915 71.5863 108.978 71.6416 109.055 71.6717C109.133 71.6998 109.219 71.7139 109.311 71.7139C109.378 71.7139 109.437 71.7092 109.488 71.6998C109.539 71.6904 109.578 71.6829 109.606 71.6773L109.758 72.3725C109.709 72.3912 109.64 72.41 109.55 72.4288C109.46 72.4494 109.347 72.4607 109.212 72.4625C108.991 72.4663 108.784 72.4269 108.593 72.3443C108.402 72.2618 108.247 72.1342 108.129 71.9616C108.01 71.7889 107.951 71.5722 107.951 71.3114V67.0473ZM111.467 71.6182L111.425 71.925C111.397 72.1501 111.349 72.3847 111.282 72.6286C111.216 72.8744 111.147 73.1024 111.076 73.3125C111.007 73.5227 110.949 73.6897 110.904 73.8135H110.308C110.332 73.6972 110.366 73.5396 110.409 73.3407C110.452 73.1437 110.494 72.9232 110.536 72.6793C110.577 72.4353 110.608 72.1867 110.629 71.9334L110.657 71.6182H111.467ZM114.174 72.4062V71.7758L116.124 69.7549C116.332 69.5354 116.504 69.3431 116.639 69.178C116.776 69.011 116.878 68.8524 116.946 68.7023C117.014 68.5522 117.047 68.3927 117.047 68.2238C117.047 68.0324 117.002 67.8673 116.912 67.7285C116.822 67.5877 116.699 67.4798 116.544 67.4048C116.388 67.3279 116.212 67.2894 116.017 67.2894C115.811 67.2894 115.631 67.3316 115.477 67.416C115.323 67.5005 115.205 67.6196 115.122 67.7735C115.04 67.9274 114.998 68.1075 114.998 68.3139H114.168C114.168 67.963 114.249 67.6562 114.41 67.3935C114.571 67.1308 114.793 66.9272 115.074 66.7828C115.356 66.6364 115.676 66.5632 116.034 66.5632C116.396 66.5632 116.715 66.6355 116.991 66.78C117.269 66.9226 117.485 67.1177 117.641 67.3654C117.797 67.6112 117.875 67.8889 117.875 68.1985C117.875 68.4124 117.834 68.6216 117.754 68.8261C117.675 69.0307 117.537 69.2586 117.34 69.5101C117.143 69.7596 116.869 70.0627 116.518 70.4192L115.373 71.6182V71.6604H117.968V72.4062H114.174ZM120.803 72.5019C120.359 72.5001 119.979 72.3828 119.664 72.1501C119.348 71.9175 119.107 71.5788 118.94 71.1341C118.773 70.6894 118.69 70.1537 118.69 69.527C118.69 68.9021 118.773 68.3683 118.94 67.9255C119.109 67.4827 119.351 67.1449 119.666 66.9122C119.983 66.6796 120.362 66.5632 120.803 66.5632C121.244 66.5632 121.622 66.6805 121.938 66.915C122.253 67.1477 122.494 67.4855 122.661 67.9283C122.83 68.3692 122.914 68.9021 122.914 69.527C122.914 70.1555 122.831 70.6922 122.664 71.1369C122.497 71.5797 122.256 71.9184 121.94 72.1529C121.625 72.3856 121.246 72.5019 120.803 72.5019ZM120.803 71.7505C121.194 71.7505 121.499 71.56 121.718 71.1791C121.94 70.7982 122.05 70.2475 122.05 69.527C122.05 69.0485 122 68.6441 121.898 68.3139C121.799 67.9818 121.655 67.7303 121.468 67.5596C121.282 67.387 121.06 67.3006 120.803 67.3006C120.415 67.3006 120.11 67.492 119.889 67.8748C119.667 68.2576 119.556 68.8083 119.554 69.527C119.554 70.0073 119.603 70.4135 119.703 70.7457C119.804 71.0759 119.948 71.3264 120.134 71.4971C120.319 71.666 120.543 71.7505 120.803 71.7505ZM123.675 72.4062V71.7758L125.625 69.7549C125.834 69.5354 126.005 69.3431 126.141 69.178C126.278 69.011 126.38 68.8524 126.447 68.7023C126.515 68.5522 126.549 68.3927 126.549 68.2238C126.549 68.0324 126.504 67.8673 126.414 67.7285C126.324 67.5877 126.201 67.4798 126.045 67.4048C125.889 67.3279 125.714 67.2894 125.519 67.2894C125.312 67.2894 125.132 67.3316 124.978 67.416C124.824 67.5005 124.706 67.6196 124.624 67.7735C124.541 67.9274 124.5 68.1075 124.5 68.3139H123.669C123.669 67.963 123.75 67.6562 123.911 67.3935C124.073 67.1308 124.294 66.9272 124.576 66.7828C124.857 66.6364 125.177 66.5632 125.535 66.5632C125.898 66.5632 126.217 66.6355 126.492 66.78C126.77 66.9226 126.987 67.1177 127.143 67.3654C127.298 67.6112 127.376 67.8889 127.376 68.1985C127.376 68.4124 127.336 68.6216 127.255 68.8261C127.176 69.0307 127.038 69.2586 126.841 69.5101C126.644 69.7596 126.37 70.0627 126.02 70.4192L124.874 71.6182V71.6604H127.469V72.4062H123.675ZM130.305 72.4851C129.918 72.4851 129.573 72.4184 129.269 72.2852C128.967 72.152 128.728 71.9672 128.551 71.7308C128.377 71.4925 128.283 71.2166 128.27 70.9033H129.154C129.165 71.074 129.222 71.2223 129.325 71.348C129.43 71.4718 129.567 71.5675 129.736 71.6351C129.905 71.7026 130.093 71.7364 130.299 71.7364C130.526 71.7364 130.727 71.697 130.901 71.6182C131.078 71.5394 131.216 71.4296 131.315 71.2889C131.415 71.1463 131.464 70.9821 131.464 70.7963C131.464 70.6031 131.415 70.4332 131.315 70.2869C131.218 70.1387 131.074 70.0223 130.885 69.9379C130.697 69.8534 130.47 69.8112 130.203 69.8112H129.717V69.102H130.203C130.417 69.102 130.605 69.0635 130.766 68.9866C130.93 68.9096 131.057 68.8027 131.149 68.6657C131.241 68.5269 131.287 68.3645 131.287 68.1788C131.287 68.0005 131.247 67.8457 131.166 67.7144C131.087 67.5812 130.975 67.477 130.828 67.402C130.684 67.3269 130.513 67.2894 130.316 67.2894C130.128 67.2894 129.953 67.3241 129.79 67.3935C129.628 67.4611 129.497 67.5586 129.396 67.6862C129.294 67.812 129.24 67.963 129.232 68.1394H128.391C128.4 67.8279 128.492 67.554 128.667 67.3175C128.843 67.0811 129.076 66.8963 129.365 66.7631C129.654 66.6298 129.975 66.5632 130.327 66.5632C130.697 66.5632 131.016 66.6355 131.284 66.78C131.554 66.9226 131.763 67.113 131.909 67.3513C132.057 67.5896 132.13 67.8504 132.129 68.1338C132.13 68.4565 132.04 68.7304 131.858 68.9556C131.678 69.1808 131.438 69.3318 131.138 69.4087V69.4538C131.521 69.5119 131.817 69.6639 132.027 69.9097C132.239 70.1555 132.344 70.4605 132.342 70.8245C132.344 71.1416 132.256 71.4258 132.078 71.6773C131.902 71.9287 131.66 72.1267 131.355 72.2712C131.049 72.4138 130.699 72.4851 130.305 72.4851Z" fill="#B4B5BB"/>
<path d="M30.3402 67.1433C29.899 66.8036 29.4579 66.5489 29.0167 66.379C28.5756 66.2092 28.1345 66.1243 27.6051 66.1243C26.6346 66.0394 25.5759 66.2941 24.5171 66.464C23.4584 66.7187 22.4879 66.9735 21.7821 67.2282C21.0762 67.483 20.5469 67.6528 20.5469 67.6528C20.5469 67.6528 20.988 67.9076 21.7821 68.2473C22.4879 68.5869 23.5466 68.9266 24.6936 69.0965C25.8405 69.2663 26.9875 69.2663 28.0462 69.0115C29.1932 68.7568 30.0755 68.1623 30.3402 67.1433Z" fill="#FFCB6D"/>
<path d="M27.255 62.8117C27.6961 63.6609 28.2255 64.5101 29.0195 65.0196C29.3724 65.2744 29.8136 65.5291 30.2547 65.6141C30.6959 65.699 31.2252 65.699 31.6664 65.4442C31.6664 64.4252 31.4017 63.576 30.9606 62.8966C30.5194 62.2173 29.8136 61.5379 29.196 61.0284C28.4902 60.5189 27.8726 60.0943 27.3432 59.7546C26.8138 59.415 26.4609 59.2451 26.4609 59.2451C26.4609 59.2451 26.4609 59.33 26.4609 59.5848C26.4609 59.7546 26.5492 60.0094 26.5492 60.3491C26.6374 61.0284 26.8138 61.8776 27.255 62.8117Z" fill="#FFCB6D"/>
<path d="M19.8372 65.1048C20.8959 65.0199 21.7782 64.6803 22.3958 63.8311C21.8664 62.9819 21.0724 62.4724 20.1901 62.2176C19.3078 61.9628 18.1608 61.8779 17.1021 61.8779C16.0434 61.8779 14.9847 61.8779 14.1906 61.8779C13.3966 61.8779 12.8672 61.8779 12.8672 61.8779C12.8672 61.8779 12.9554 61.9628 13.1319 62.1327C13.3083 62.3025 13.573 62.5573 13.9259 62.812C14.6317 63.3215 15.514 63.916 16.5727 64.4255C17.7197 64.8501 18.8667 65.1048 19.8372 65.1048Z" fill="#FFCB6D"/>
<path d="M21.7856 61.1991C22.4032 61.8785 23.1972 62.388 24.1678 62.3031C24.6089 61.3689 24.5207 60.4348 24.256 59.5856C23.9913 58.7364 23.4619 57.9722 23.0208 57.2928C22.4914 56.6135 22.0503 56.104 21.6092 55.6794C21.4327 55.5095 21.2562 55.3397 21.168 55.1698C21.0798 55.0849 20.9915 55 20.9915 55C20.9915 55 20.9915 55.0849 20.9033 55.2548C20.8151 55.4246 20.8151 55.6794 20.7269 56.019C20.6386 56.6984 20.5504 57.5476 20.7269 58.4817C20.9033 59.5007 21.2562 60.4348 21.7856 61.1991Z" fill="#FFCB6D"/>
<path d="M9.25081 54.1502C8.54499 53.8955 8.01562 53.8105 8.01562 53.8105C8.01562 53.8105 8.10384 53.8955 8.19206 54.1502C8.28029 54.3201 8.45675 54.5748 8.6332 54.9145C8.80966 55.2542 9.07436 55.5938 9.33904 56.0184C9.5155 56.1883 9.60372 56.443 9.78018 56.6129L9.86839 56.7827L10.0449 56.9526C10.1331 57.0375 10.2213 57.2073 10.3095 57.2922C11.1918 58.2263 12.2506 58.9906 13.2211 59.3303C14.2798 59.67 15.2503 59.5851 16.1326 58.9057C15.8679 57.8867 15.3385 57.2073 14.5445 56.6978C14.368 56.528 14.1033 56.443 13.9269 56.2732C13.7504 56.1034 13.4857 56.0184 13.2211 55.8486C12.9564 55.6788 12.7799 55.5938 12.5152 55.424C12.2505 55.3391 12.0741 55.1693 11.8094 55.0843C10.9271 54.6597 9.95663 54.3201 9.25081 54.1502Z" fill="#FFCB6D"/>
<path d="M16.3952 55.8486C16.6599 56.6978 17.2775 57.3772 18.248 57.6319C18.9538 56.8676 19.1303 55.9335 19.2185 55.1692C19.3067 54.3201 19.1303 53.5558 19.042 52.8764C19.042 52.6217 18.8656 52.1122 18.7773 51.7725C18.6891 51.4328 18.5127 51.0931 18.4244 50.7535C18.3362 50.4987 18.248 50.2439 18.1598 50.0741C18.0715 49.9043 18.0715 49.8193 18.0715 49.8193C18.0715 49.8193 17.9833 49.9043 17.8951 50.0741C17.8068 50.2439 17.6304 50.4987 17.4539 50.7535C17.101 51.3479 16.7481 52.1971 16.4834 53.0463C16.3952 53.301 16.3952 53.4709 16.307 53.7256C16.2188 53.9804 16.2188 54.1502 16.2188 54.405C16.2188 54.6597 16.2188 54.8296 16.2188 55.0843C16.2188 55.424 16.307 55.6788 16.3952 55.8486Z" fill="#FFCB6D"/>
<path d="M8.19693 50.6683C8.37338 50.8382 8.54984 51.008 8.7263 51.1779C8.90276 51.3477 9.16745 51.5175 9.3439 51.6025C10.2262 52.112 11.1084 52.3667 12.1672 52.0271C12.2554 51.5175 12.2554 51.0929 12.0789 50.6683C11.9907 50.4985 11.9025 50.2438 11.8143 50.0739C11.726 49.9041 11.5496 49.7342 11.4614 49.4795C10.932 48.7152 10.0497 48.1208 9.25567 47.5263C8.46162 46.9319 7.57933 46.4224 6.87351 46.0827C6.16769 45.743 5.72656 45.4883 5.72656 45.4883C5.72656 45.4883 5.72657 45.5732 5.8148 45.828C5.90302 46.0827 5.99124 46.3375 6.07947 46.6771C6.34415 47.3565 6.69706 48.3755 7.31465 49.2247C7.49111 49.8192 7.84402 50.2437 8.19693 50.6683Z" fill="#FFCB6D"/>
<path d="M13.6654 50.2437C13.8419 50.6683 14.1948 51.008 14.5477 51.2628C15.43 50.7533 15.9593 49.989 16.3122 49.1398C16.4005 48.97 16.4004 48.7152 16.4887 48.5453C16.4887 48.4604 16.4887 48.2906 16.5769 48.2057C16.5769 48.1208 16.5769 47.9509 16.6651 47.866C16.7534 47.4414 16.7534 47.0168 16.7534 46.5922C16.6651 45.743 16.6651 44.9787 16.4887 44.3843C16.4004 44.1296 16.4005 43.8748 16.3122 43.705C16.3122 43.5351 16.224 43.4502 16.224 43.4502C16.224 43.4502 16.1358 43.5351 15.9593 43.705C15.7829 43.8748 15.6064 44.0446 15.43 44.2994C14.9888 44.8089 14.4594 45.5732 14.0183 46.4224C13.5772 47.2716 13.3125 48.2057 13.3125 49.1398C13.3125 49.3945 13.3125 49.5644 13.4007 49.8191C13.4889 49.9041 13.5772 50.0739 13.6654 50.2437Z" fill="#FFCB6D"/>
<path d="M6.34131 42.6017C6.42954 42.8565 6.60599 43.0263 6.78245 43.2811C6.9589 43.4509 7.13536 43.7057 7.31182 43.8755C8.01764 44.5549 8.89992 44.9795 9.95865 44.8096C10.1351 44.385 10.2233 43.8755 10.1351 43.4509C10.1351 43.1962 10.0469 43.0263 9.95865 42.7716C9.87042 42.6017 9.78221 42.347 9.69398 42.1771C9.51752 41.7525 9.25285 41.3279 8.89994 40.9883C8.72348 40.8184 8.54702 40.5637 8.4588 40.3938C8.28234 40.224 8.10588 40.0542 7.92942 39.7994C7.2236 39.0351 6.42954 38.3558 5.90017 37.8463C5.3708 37.3367 4.92969 36.9971 4.92969 36.9971C4.92969 36.9971 4.92969 37.5066 4.92969 38.2709C4.92969 38.6955 5.0179 39.1201 5.10613 39.5446C5.19435 39.7994 5.19437 40.0542 5.28259 40.3089C5.37082 40.5637 5.37081 40.8184 5.54727 41.0732C5.90018 41.5827 6.16485 42.0922 6.34131 42.6017Z" fill="#FFCB6D"/>
<path d="M12.5206 44.2153C13.4911 43.8756 14.197 43.1962 14.6381 42.5169C14.7263 42.347 14.8145 42.1772 14.9028 41.9224C14.991 41.7526 15.0792 41.4978 15.1674 41.328C15.3439 40.9034 15.4321 40.4788 15.5204 40.1391C15.6086 39.7145 15.6968 39.3749 15.6968 38.9503C15.6968 38.7804 15.6968 38.6106 15.785 38.4407C15.785 38.2709 15.785 38.1011 15.785 38.0161C15.8733 37.4217 15.8733 37.082 15.8733 37.082C15.8733 37.082 15.5204 37.2519 14.9028 37.6765C14.7263 37.7614 14.6381 37.8463 14.4616 38.0161C14.2852 38.1011 14.1087 38.2709 14.0205 38.4407C13.6676 38.6955 13.4029 39.0352 13.05 39.3749C12.8735 39.5447 12.7853 39.7145 12.6088 39.9693C12.5206 40.0542 12.4324 40.1391 12.4324 40.309C12.3442 40.3939 12.3442 40.4788 12.2559 40.6486C12.0795 41.0732 11.903 41.4978 11.8148 41.9224C11.8148 42.1772 11.7266 42.347 11.7266 42.6018C11.7266 42.8565 11.8148 43.0264 11.8148 43.1962C11.9913 43.451 12.1677 43.8756 12.5206 44.2153Z" fill="#FFCB6D"/>
<path d="M8.8086 31.9017C8.54392 31.4771 8.27922 31.0525 8.10276 30.6279C7.83808 30.2033 7.57341 29.8636 7.39695 29.5239C6.95581 28.9295 6.69114 28.5049 6.69114 28.5049C6.69114 28.5049 6.51467 29.0144 6.42644 29.7787C6.33821 30.1183 6.33823 30.6279 6.25 31.0525C6.25 31.3072 6.25 31.562 6.25 31.8167C6.25 32.0715 6.25 32.3262 6.25 32.581C6.33823 33.0905 6.33822 33.6 6.51467 34.1095C6.69113 34.6191 6.86759 35.1286 7.13228 35.4683C7.66164 36.3174 8.45568 36.9119 9.51441 36.9968C9.69087 36.827 9.77909 36.5722 9.86732 36.4024C9.95554 36.2325 10.0438 35.9778 10.0438 35.8079C10.132 35.3833 10.0438 34.9587 9.95555 34.5341C9.86732 34.1095 9.69087 33.6 9.51441 33.1754C9.33795 32.8358 9.07328 32.3262 8.8086 31.9017Z" fill="#FFCB6D"/>
<path d="M14.5499 35.8081C14.9028 35.4684 15.1675 35.2137 15.3439 34.7891C15.6086 34.4494 15.7851 34.1097 15.9615 33.6851C16.0497 33.5153 16.138 33.3455 16.2262 33.1756C16.3144 33.0058 16.4026 32.8359 16.4909 32.6661C16.6673 32.3264 16.7556 32.0717 16.8438 31.732C17.0202 31.2225 17.1085 30.8828 17.1085 30.8828C17.1085 30.8828 16.6673 30.9677 16.0497 31.2225C15.4321 31.4772 14.6381 31.8169 13.844 32.4113C13.6676 32.5812 13.4911 32.6661 13.3147 32.8359C13.1382 33.0058 12.9618 33.1756 12.7853 33.3455C12.4324 33.6851 12.1677 34.1097 11.9913 34.4494C11.8148 34.874 11.7266 35.2986 11.7266 35.7232C11.7266 35.893 11.7266 36.1478 11.8148 36.3176C11.903 36.4875 11.9912 36.7422 12.0795 36.9121C13.1382 36.8271 13.9323 36.4026 14.5499 35.8081Z" fill="#FFCB6D"/>
<path d="M11.4593 29.1844C11.6358 29.0145 11.724 28.8447 11.8122 28.5899C11.9005 28.4201 11.9887 28.1653 11.9887 27.9955C11.9887 27.8256 12.0769 27.5709 12.0769 27.3161C12.0769 26.8915 12.0769 26.382 11.9887 25.8725C11.9005 25.363 11.8122 24.9384 11.724 24.4289C11.4593 23.4948 11.1946 22.5606 10.93 21.8813C10.6653 21.2019 10.4888 20.7773 10.4888 20.7773C10.4888 20.7773 10.4006 20.8623 10.3124 21.0321C10.2241 21.2019 10.0477 21.5416 9.87122 21.8813C9.51831 22.5606 9.16539 23.4948 8.98894 24.5138C8.90071 25.0233 8.8125 25.5328 8.8125 26.0423C8.8125 26.2971 8.81251 26.5519 8.90073 26.8066C8.90073 27.0614 8.98894 27.3161 9.07717 27.5709C9.25363 27.9955 9.4301 28.4201 9.78301 28.8447C10.1359 29.1843 10.4888 29.524 11.0182 29.6939C11.1946 29.6089 11.3711 29.4391 11.4593 29.1844Z" fill="#FFCB6D"/>
<path d="M19.8391 25.5321C19.9273 25.3623 20.0155 25.2773 20.0155 25.2773C20.0155 25.2773 19.9273 25.2773 19.6626 25.2773C19.4862 25.2773 19.2215 25.2773 18.8686 25.3623C18.5157 25.3623 18.1628 25.4472 17.7216 25.5321C17.5452 25.617 17.2805 25.617 17.104 25.7019C16.9276 25.7869 16.6629 25.8718 16.4864 25.9567C16.0453 26.1265 15.6041 26.2964 15.163 26.5511C14.8101 26.8059 14.4572 27.1456 14.1043 27.4003C13.9278 27.5702 13.8396 27.74 13.7514 27.9098C13.6631 28.0797 13.5749 28.3344 13.4867 28.5043C13.3984 28.6741 13.3984 28.9289 13.3984 29.0987C13.3984 29.3535 13.4867 29.5233 13.4867 29.7781C14.016 29.863 14.4572 29.863 14.8983 29.7781C15.3395 29.6931 15.7806 29.5233 16.1335 29.2685C16.31 29.1836 16.4864 29.0138 16.6629 28.9289C16.7511 28.844 16.8393 28.759 16.9275 28.759C17.0158 28.6741 17.104 28.5892 17.1922 28.5892C17.5452 28.3344 17.8098 27.9948 18.0745 27.74C18.3392 27.4003 18.6039 27.1456 18.7803 26.8908C18.8686 26.8059 18.8686 26.721 18.9568 26.6361C19.045 26.5511 19.045 26.4662 19.1332 26.4662C19.2215 26.2964 19.3097 26.2115 19.3979 26.1265C19.5744 25.8718 19.7509 25.7019 19.8391 25.5321Z" fill="#FFCB6D"/>
<path d="M14.3713 22.985C14.8124 22.7302 15.1653 22.4754 15.43 22.1358C15.6947 21.7961 15.8711 21.3715 16.0476 20.9469C16.3123 20.0977 16.4005 19.0787 16.4005 18.1446C16.4005 17.8898 16.4005 17.635 16.4005 17.3803C16.4005 17.1255 16.4005 16.8708 16.4005 16.7009C16.4005 16.2763 16.3123 15.8517 16.3123 15.4271C16.2241 14.7478 16.1358 14.2383 16.1358 14.2383C16.1358 14.2383 16.0476 14.3232 15.8711 14.493C15.6947 14.6629 15.5182 14.9176 15.2535 15.1724C14.9889 15.5121 14.7242 15.8517 14.5477 16.1914C14.283 16.616 14.0183 17.0406 13.8419 17.4652C13.6654 17.9747 13.489 18.3993 13.3125 18.9088C13.2243 19.4184 13.1361 19.9279 13.1361 20.3525C13.0479 21.4564 13.489 22.3905 14.3713 22.985Z" fill="#FFCB6D"/>
<path d="M21.779 22.4754C22.1319 22.2206 22.4848 21.9659 22.7495 21.7111C23.0142 21.4564 23.2788 21.2865 23.5435 21.0318C23.72 20.8619 23.8964 20.6921 24.0729 20.5223C24.1611 20.4373 24.2494 20.3524 24.2494 20.3524C24.2494 20.3524 23.8082 20.2675 23.1024 20.1826C22.7495 20.1826 22.3966 20.0977 21.9554 20.0977C21.5143 20.0977 21.0731 20.0977 20.5438 20.1826C19.5733 20.3524 18.6028 20.6072 17.8969 21.1167C17.544 21.3715 17.2794 21.7111 17.0147 22.0508C16.8382 22.3905 16.75 22.8151 16.75 23.3246C17.7205 23.7492 18.691 23.6643 19.4851 23.4944C19.9262 23.4095 20.2791 23.2397 20.7202 22.9849C21.0732 22.9 21.4261 22.7302 21.779 22.4754Z" fill="#FFCB6D"/>
<path d="M29.3721 66.0391C26.0195 64.7653 22.6668 63.2368 19.8435 61.0289C16.8438 58.6511 14.7263 55.4242 13.2264 51.6878C11.3737 47.3569 10.0503 42.8562 10.2267 38.1007C10.4032 34.0246 11.5501 30.0334 13.3147 26.2969C14.8146 23.3247 16.6673 20.3526 18.9613 17.7201C18.7848 17.3804 18.7848 16.9558 18.873 16.6161C18.9612 16.1915 19.1377 15.7669 19.4024 15.4272C19.9318 14.663 20.7258 13.9836 21.6081 13.559C22.4904 13.0495 23.3726 12.7948 24.0785 12.6249C24.4314 12.54 24.696 12.4551 24.8725 12.4551H25.1372H25.2254V12.54C25.2254 12.54 25.2254 12.6249 25.1372 12.7098C25.049 12.8797 24.9607 13.1344 24.7843 13.3892C24.5196 13.9836 24.0784 14.663 23.5491 15.4272C23.2844 15.7669 22.9315 16.1066 22.6668 16.4463L22.2257 16.8709L22.2255 16.871C22.0491 17.0408 21.8727 17.2106 21.6963 17.2955C21.3434 17.4653 20.9905 17.7201 20.5493 17.805C20.2847 17.8899 19.9317 17.8899 19.5788 17.8899C18.6083 19.0788 17.6378 20.2676 16.8438 21.4565C13.5794 26.1271 11.2854 31.5619 10.9325 37.2515C10.6678 42.1768 11.8148 46.7624 13.7558 51.2632C14.7263 53.6409 15.9615 55.9337 17.7261 57.8868C19.4906 59.84 21.6081 61.3685 23.902 62.6423C28.3134 65.0201 34.754 67.7375 40.8417 69.6906L39.1654 70.4549C35.6363 68.8414 32.1072 67.0581 29.3721 66.0391Z" fill="#FFCB6D"/>
<path d="M167.058 67.1433C167.499 66.8036 167.941 66.5489 168.382 66.379C168.823 66.2092 169.264 66.1243 169.793 66.1243C170.764 66.0394 171.823 66.2941 172.881 66.464C173.94 66.7187 174.911 66.9735 175.616 67.2282C176.322 67.483 176.852 67.6528 176.852 67.6528C176.852 67.6528 176.41 67.9076 175.616 68.2473C174.911 68.5869 173.852 68.9266 172.705 69.0965C171.558 69.2663 170.411 69.2663 169.352 69.0115C168.205 68.7568 167.323 68.1623 167.058 67.1433Z" fill="#FFCB6D"/>
<path d="M170.143 62.8117C169.702 63.6609 169.173 64.5101 168.379 65.0196C168.026 65.2744 167.585 65.5291 167.144 65.6141C166.703 65.699 166.173 65.699 165.732 65.4442C165.732 64.4252 165.997 63.576 166.438 62.8966C166.879 62.2173 167.585 61.5379 168.202 61.0284C168.908 60.5189 169.526 60.0943 170.055 59.7546C170.585 59.415 170.938 59.2451 170.938 59.2451C170.938 59.2451 170.938 59.33 170.938 59.5848C170.938 59.7546 170.849 60.0094 170.849 60.3491C170.761 61.0284 170.585 61.8776 170.143 62.8117Z" fill="#FFCB6D"/>
<path d="M177.561 65.1048C176.503 65.0199 175.62 64.6803 175.003 63.8311C175.532 62.9819 176.326 62.4724 177.208 62.2176C178.091 61.9628 179.238 61.8779 180.296 61.8779C181.355 61.8779 182.414 61.8779 183.208 61.8779C184.002 61.8779 184.531 61.8779 184.531 61.8779C184.531 61.8779 184.443 61.9628 184.267 62.1327C184.09 62.3025 183.825 62.5573 183.473 62.812C182.767 63.3215 181.884 63.916 180.826 64.4255C179.679 64.8501 178.532 65.1048 177.561 65.1048Z" fill="#FFCB6D"/>
<path d="M175.613 61.1991C174.995 61.8785 174.201 62.388 173.231 62.3031C172.79 61.3689 172.878 60.4348 173.142 59.5856C173.407 58.7364 173.936 57.9722 174.378 57.2928C174.907 56.6135 175.348 56.104 175.789 55.6794C175.966 55.5095 176.142 55.3397 176.23 55.1698C176.319 55.0849 176.407 55 176.407 55C176.407 55 176.407 55.0849 176.495 55.2548C176.583 55.4246 176.583 55.6794 176.672 56.019C176.76 56.6984 176.848 57.5476 176.672 58.4817C176.495 59.5007 176.142 60.4348 175.613 61.1991Z" fill="#FFCB6D"/>
<path d="M188.148 54.1502C188.853 53.8955 189.383 53.8105 189.383 53.8105C189.383 53.8105 189.295 53.8955 189.206 54.1502C189.118 54.3201 188.942 54.5748 188.765 54.9145C188.589 55.2542 188.324 55.5938 188.059 56.0184C187.883 56.1883 187.795 56.443 187.618 56.6129L187.53 56.7827L187.354 56.9526C187.265 57.0375 187.177 57.2073 187.089 57.2922C186.207 58.2263 185.148 58.9906 184.177 59.3303C183.119 59.67 182.148 59.5851 181.266 58.9057C181.531 57.8867 182.06 57.2073 182.854 56.6978C183.03 56.528 183.295 56.443 183.472 56.2732C183.648 56.1034 183.913 56.0184 184.177 55.8486C184.442 55.6788 184.619 55.5938 184.883 55.424C185.148 55.3391 185.324 55.1693 185.589 55.0843C186.471 54.6597 187.442 54.3201 188.148 54.1502Z" fill="#FFCB6D"/>
<path d="M180.995 55.8486C180.731 56.6978 180.113 57.3772 179.143 57.6319C178.437 56.8676 178.26 55.9335 178.172 55.1692C178.084 54.3201 178.26 53.5558 178.349 52.8764C178.349 52.6217 178.525 52.1122 178.613 51.7725C178.702 51.4328 178.878 51.0931 178.966 50.7535C179.054 50.4987 179.143 50.2439 179.231 50.0741C179.319 49.9043 179.319 49.8193 179.319 49.8193C179.319 49.8193 179.407 49.9043 179.496 50.0741C179.584 50.2439 179.76 50.4987 179.937 50.7535C180.29 51.3479 180.643 52.1971 180.907 53.0463C180.995 53.301 180.995 53.4709 181.084 53.7256C181.172 53.9804 181.172 54.1502 181.172 54.405C181.172 54.6597 181.172 54.8296 181.172 55.0843C181.172 55.424 181.084 55.6788 180.995 55.8486Z" fill="#FFCB6D"/>
<path d="M189.202 50.6683C189.025 50.8382 188.849 51.008 188.672 51.1779C188.496 51.3477 188.231 51.5175 188.055 51.6025C187.172 52.112 186.29 52.3667 185.231 52.0271C185.143 51.5175 185.143 51.0929 185.319 50.6683C185.408 50.4985 185.496 50.2438 185.584 50.0739C185.672 49.9041 185.849 49.7342 185.937 49.4795C186.466 48.7152 187.349 48.1208 188.143 47.5263C188.937 46.9319 189.819 46.4224 190.525 46.0827C191.231 45.743 191.672 45.4883 191.672 45.4883C191.672 45.4883 191.672 45.5732 191.584 45.828C191.495 46.0827 191.407 46.3375 191.319 46.6771C191.054 47.3565 190.701 48.3755 190.084 49.2247C189.907 49.8192 189.554 50.2437 189.202 50.6683Z" fill="#FFCB6D"/>
<path d="M183.733 50.2437C183.557 50.6683 183.204 51.008 182.851 51.2628C181.968 50.7533 181.439 49.989 181.086 49.1398C180.998 48.97 180.998 48.7152 180.91 48.5453C180.91 48.4604 180.91 48.2906 180.822 48.2057C180.822 48.1208 180.822 47.9509 180.733 47.866C180.645 47.4414 180.645 47.0168 180.645 46.5922C180.733 45.743 180.733 44.9787 180.91 44.3843C180.998 44.1296 180.998 43.8748 181.086 43.705C181.086 43.5351 181.174 43.4502 181.174 43.4502C181.174 43.4502 181.263 43.5351 181.439 43.705C181.616 43.8748 181.792 44.0446 181.968 44.2994C182.41 44.8089 182.939 45.5732 183.38 46.4224C183.821 47.2716 184.086 48.2057 184.086 49.1398C184.086 49.3945 184.086 49.5644 183.998 49.8191C183.91 49.9041 183.821 50.0739 183.733 50.2437Z" fill="#FFCB6D"/>
<path d="M191.057 42.6017C190.969 42.8565 190.792 43.0263 190.616 43.2811C190.44 43.4509 190.263 43.7057 190.087 43.8755C189.381 44.5549 188.499 44.9795 187.44 44.8096C187.263 44.385 187.175 43.8755 187.263 43.4509C187.263 43.1962 187.352 43.0263 187.44 42.7716C187.528 42.6017 187.616 42.347 187.704 42.1771C187.881 41.7525 188.146 41.3279 188.499 40.9883C188.675 40.8184 188.851 40.5637 188.94 40.3938C189.116 40.224 189.293 40.0542 189.469 39.7994C190.175 39.0351 190.969 38.3558 191.498 37.8463C192.028 37.3367 192.469 36.9971 192.469 36.9971C192.469 36.9971 192.469 37.5066 192.469 38.2709C192.469 38.6955 192.381 39.1201 192.292 39.5446C192.204 39.7994 192.204 40.0542 192.116 40.3089C192.028 40.5637 192.028 40.8184 191.851 41.0732C191.498 41.5827 191.234 42.0922 191.057 42.6017Z" fill="#FFCB6D"/>
<path d="M184.878 44.2153C183.907 43.8756 183.201 43.1962 182.76 42.5169C182.672 42.347 182.584 42.1772 182.496 41.9224C182.407 41.7526 182.319 41.4978 182.231 41.328C182.055 40.9034 181.966 40.4788 181.878 40.1391C181.79 39.7145 181.702 39.3749 181.702 38.9503C181.702 38.7804 181.702 38.6106 181.613 38.4407C181.613 38.2709 181.613 38.1011 181.613 38.0161C181.525 37.4217 181.525 37.082 181.525 37.082C181.525 37.082 181.878 37.2519 182.496 37.6765C182.672 37.7614 182.76 37.8463 182.937 38.0161C183.113 38.1011 183.29 38.2709 183.378 38.4407C183.731 38.6955 183.996 39.0352 184.348 39.3749C184.525 39.5447 184.613 39.7145 184.79 39.9693C184.878 40.0542 184.966 40.1391 184.966 40.309C185.054 40.3939 185.054 40.4788 185.143 40.6486C185.319 41.0732 185.495 41.4978 185.584 41.9224C185.584 42.1772 185.672 42.347 185.672 42.6018C185.672 42.8565 185.584 43.0264 185.584 43.1962C185.407 43.451 185.231 43.8756 184.878 44.2153Z" fill="#FFCB6D"/>
<path d="M188.59 31.9017C188.855 31.4771 189.119 31.0525 189.296 30.6279C189.56 30.2033 189.825 29.8636 190.001 29.5239C190.443 28.9295 190.707 28.5049 190.707 28.5049C190.707 28.5049 190.884 29.0144 190.972 29.7787C191.06 30.1183 191.06 30.6279 191.148 31.0525C191.148 31.3072 191.148 31.562 191.148 31.8167C191.148 32.0715 191.148 32.3262 191.148 32.581C191.06 33.0905 191.06 33.6 190.884 34.1095C190.707 34.6191 190.531 35.1286 190.266 35.4683C189.737 36.3174 188.943 36.9119 187.884 36.9968C187.708 36.827 187.619 36.5722 187.531 36.4024C187.443 36.2325 187.355 35.9778 187.355 35.8079C187.266 35.3833 187.355 34.9587 187.443 34.5341C187.531 34.1095 187.708 33.6 187.884 33.1754C188.06 32.8358 188.325 32.3262 188.59 31.9017Z" fill="#FFCB6D"/>
<path d="M182.849 35.8081C182.496 35.4684 182.231 35.2137 182.055 34.7891C181.79 34.4494 181.613 34.1097 181.437 33.6851C181.349 33.5153 181.26 33.3455 181.172 33.1756C181.084 33.0058 180.996 32.8359 180.908 32.6661C180.731 32.3264 180.643 32.0717 180.555 31.732C180.378 31.2225 180.29 30.8828 180.29 30.8828C180.29 30.8828 180.731 30.9677 181.349 31.2225C181.966 31.4772 182.76 31.8169 183.554 32.4113C183.731 32.5812 183.907 32.6661 184.084 32.8359C184.26 33.0058 184.437 33.1756 184.613 33.3455C184.966 33.6851 185.231 34.1097 185.407 34.4494C185.584 34.874 185.672 35.2986 185.672 35.7232C185.672 35.893 185.672 36.1478 185.584 36.3176C185.495 36.4875 185.407 36.7422 185.319 36.9121C184.26 36.8271 183.466 36.4026 182.849 35.8081Z" fill="#FFCB6D"/>
<path d="M185.939 29.1844C185.763 29.0145 185.674 28.8447 185.586 28.5899C185.498 28.4201 185.41 28.1653 185.41 27.9955C185.41 27.8256 185.322 27.5709 185.322 27.3161C185.322 26.8915 185.322 26.382 185.41 25.8725C185.498 25.363 185.586 24.9384 185.674 24.4289C185.939 23.4948 186.204 22.5606 186.468 21.8813C186.733 21.2019 186.91 20.7773 186.91 20.7773C186.91 20.7773 186.998 20.8623 187.086 21.0321C187.174 21.2019 187.351 21.5416 187.527 21.8813C187.88 22.5606 188.233 23.4948 188.409 24.5138C188.498 25.0233 188.586 25.5328 188.586 26.0423C188.586 26.2971 188.586 26.5519 188.498 26.8066C188.498 27.0614 188.409 27.3161 188.321 27.5709C188.145 27.9955 187.968 28.4201 187.615 28.8447C187.263 29.1843 186.91 29.524 186.38 29.6939C186.204 29.6089 186.027 29.4391 185.939 29.1844Z" fill="#FFCB6D"/>
<path d="M177.559 25.5321C177.471 25.3623 177.383 25.2773 177.383 25.2773C177.383 25.2773 177.471 25.2773 177.736 25.2773C177.912 25.2773 178.177 25.2773 178.53 25.3623C178.883 25.3623 179.236 25.4472 179.677 25.5321C179.853 25.617 180.118 25.617 180.294 25.7019C180.471 25.7869 180.736 25.8718 180.912 25.9567C181.353 26.1265 181.794 26.2964 182.235 26.5511C182.588 26.8059 182.941 27.1456 183.294 27.4003C183.471 27.5702 183.559 27.74 183.647 27.9098C183.735 28.0797 183.824 28.3344 183.912 28.5043C184 28.6741 184 28.9289 184 29.0987C184 29.3535 183.912 29.5233 183.912 29.7781C183.382 29.863 182.941 29.863 182.5 29.7781C182.059 29.6931 181.618 29.5233 181.265 29.2685C181.088 29.1836 180.912 29.0138 180.736 28.9289C180.647 28.844 180.559 28.759 180.471 28.759C180.383 28.6741 180.294 28.5892 180.206 28.5892C179.853 28.3344 179.589 27.9948 179.324 27.74C179.059 27.4003 178.795 27.1456 178.618 26.8908C178.53 26.8059 178.53 26.721 178.442 26.6361C178.353 26.5511 178.353 26.4662 178.265 26.4662C178.177 26.2964 178.089 26.2115 178 26.1265C177.824 25.8718 177.648 25.7019 177.559 25.5321Z" fill="#FFCB6D"/>
<path d="M183.035 22.985C182.594 22.7302 182.241 22.4754 181.976 22.1358C181.712 21.7961 181.535 21.3715 181.359 20.9469C181.094 20.0977 181.006 19.0787 181.006 18.1446C181.006 17.8898 181.006 17.635 181.006 17.3803C181.006 17.1255 181.006 16.8708 181.006 16.7009C181.006 16.2763 181.094 15.8517 181.094 15.4271C181.182 14.7478 181.27 14.2383 181.27 14.2383C181.27 14.2383 181.359 14.3232 181.535 14.493C181.712 14.6629 181.888 14.9176 182.153 15.1724C182.417 15.5121 182.682 15.8517 182.859 16.1914C183.123 16.616 183.388 17.0406 183.564 17.4652C183.741 17.9747 183.917 18.3993 184.094 18.9088C184.182 19.4184 184.27 19.9279 184.27 20.3525C184.358 21.4564 183.917 22.3905 183.035 22.985Z" fill="#FFCB6D"/>
<path d="M175.619 22.4754C175.267 22.2206 174.914 21.9659 174.649 21.7111C174.384 21.4564 174.12 21.2865 173.855 21.0318C173.678 20.8619 173.502 20.6921 173.326 20.5223C173.237 20.4373 173.149 20.3524 173.149 20.3524C173.149 20.3524 173.59 20.2675 174.296 20.1826C174.649 20.1826 175.002 20.0977 175.443 20.0977C175.884 20.0977 176.325 20.0977 176.855 20.1826C177.825 20.3524 178.796 20.6072 179.501 21.1167C179.854 21.3715 180.119 21.7111 180.384 22.0508C180.56 22.3905 180.648 22.8151 180.648 23.3246C179.678 23.7492 178.707 23.6643 177.913 23.4944C177.472 23.4095 177.119 23.2397 176.678 22.9849C176.325 22.9 175.972 22.7302 175.619 22.4754Z" fill="#FFCB6D"/>
<path d="M168.026 66.0391C171.379 64.7653 174.732 63.2368 177.555 61.0289C180.555 58.6511 182.672 55.4242 184.172 51.6878C186.025 47.3569 187.348 42.8562 187.172 38.1007C186.995 34.0246 185.848 30.0334 184.084 26.2969C182.584 23.3247 180.731 20.3526 178.437 17.7201C178.614 17.3804 178.614 16.9558 178.525 16.6161C178.437 16.1915 178.261 15.7669 177.996 15.4272C177.467 14.663 176.673 13.9836 175.79 13.559C174.908 13.0495 174.026 12.7948 173.32 12.6249C172.967 12.54 172.702 12.4551 172.526 12.4551H172.261H172.173V12.54C172.173 12.54 172.173 12.6249 172.261 12.7098C172.349 12.8797 172.438 13.1344 172.614 13.3892C172.879 13.9836 173.32 14.663 173.849 15.4272C174.114 15.7669 174.467 16.1066 174.732 16.4463L175.173 16.8709L175.173 16.871C175.349 17.0408 175.526 17.2106 175.702 17.2955C176.055 17.4653 176.408 17.7201 176.849 17.805C177.114 17.8899 177.467 17.8899 177.82 17.8899C178.79 19.0788 179.761 20.2676 180.555 21.4565C183.819 26.1271 186.113 31.5619 186.466 37.2515C186.731 42.1768 185.584 46.7624 183.643 51.2632C182.672 53.6409 181.437 55.9337 179.672 57.8868C177.908 59.84 175.79 61.3685 173.496 62.6423C169.085 65.0201 162.644 67.7375 156.557 69.6906L158.233 70.4549C161.762 68.8414 165.291 67.0581 168.026 66.0391Z" fill="#FFCB6D"/>
<g clip-path="url(#clip0_1715_15185)">
<g clip-path="url(#clip1_1715_15185)">
<path fill-rule="evenodd" clip-rule="evenodd" d="M100.911 7.58105H100.526L99.4844 9.96414H99.9107L100.154 9.39301H101.273L101.514 9.96414H101.957L100.911 7.58105ZM101.12 9.02398H100.306L100.708 8.07778L101.12 9.02398Z" fill="white"/>
<path fill-rule="evenodd" clip-rule="evenodd" d="M113.701 7.98277H114.451V7.59766H112.531V7.98277H113.281V9.96365H113.701V7.98277Z" fill="white"/>
<path fill-rule="evenodd" clip-rule="evenodd" d="M110.934 8.22011C110.934 8.18108 110.944 8.14259 110.961 8.10769C110.978 8.07278 111.004 8.04242 111.035 8.019C111.117 7.95948 111.217 7.93033 111.319 7.93655C111.428 7.9369 111.537 7.95806 111.639 7.99889C111.754 8.04533 111.861 8.10616 111.96 8.17989L112.183 7.86516C112.066 7.77085 111.934 7.69615 111.793 7.64394C111.643 7.5911 111.484 7.56523 111.325 7.56752C111.215 7.5665 111.105 7.58313 111.001 7.61679C110.908 7.64631 110.821 7.69417 110.746 7.75757C110.677 7.81798 110.62 7.89229 110.581 7.97576C110.54 8.06425 110.519 8.1608 110.52 8.25832C110.517 8.35449 110.535 8.45015 110.572 8.53886C110.607 8.61707 110.659 8.68601 110.725 8.73996C110.8 8.79817 110.883 8.84369 110.973 8.8747C111.083 8.91515 111.196 8.94874 111.311 8.97525C111.421 9.0024 111.512 9.02855 111.58 9.05268C111.638 9.07196 111.692 9.09867 111.743 9.13212C111.778 9.15498 111.806 9.18696 111.824 9.22462C111.84 9.26091 111.847 9.29993 111.846 9.33925C111.848 9.38257 111.838 9.42549 111.818 9.46399C111.798 9.5025 111.769 9.53535 111.733 9.55946C111.643 9.61714 111.538 9.6456 111.431 9.64091C111.293 9.64376 111.156 9.61666 111.029 9.56147C110.902 9.50039 110.784 9.42113 110.68 9.32618L110.43 9.62784C110.565 9.75182 110.722 9.84876 110.893 9.91341C111.061 9.97537 111.238 10.0067 111.417 10.0059C111.533 10.0072 111.648 9.99124 111.759 9.95865C111.856 9.93051 111.946 9.88334 112.024 9.81989C112.098 9.75925 112.157 9.683 112.197 9.59667C112.24 9.50195 112.261 9.39893 112.26 9.29501C112.262 9.20636 112.245 9.11831 112.21 9.03659C112.177 8.96251 112.128 8.89661 112.067 8.84353C111.995 8.78343 111.915 8.73583 111.827 8.70276C111.72 8.66216 111.61 8.62858 111.498 8.60221C111.384 8.57506 111.291 8.54891 111.218 8.52478C111.157 8.50562 111.099 8.47822 111.045 8.44333C111.008 8.41993 110.979 8.38734 110.959 8.34881C110.941 8.30835 110.932 8.2643 110.934 8.22011Z" fill="white"/>
<path fill-rule="evenodd" clip-rule="evenodd" d="M110.064 7.59766H108.312V9.96365H110.081V9.58859H108.726V8.95612H109.912V8.58106H108.726V7.97272H110.064V7.59766Z" fill="white"/>
<path fill-rule="evenodd" clip-rule="evenodd" d="M107.859 7.59766H106.102V9.96365H106.514V9.00036H107.707V8.6253H106.514V7.97272H107.859V7.59766Z" fill="white"/>
<path d="M105.467 7.59766H105.055V9.96466H105.467V7.59766Z" fill="white"/>
<path fill-rule="evenodd" clip-rule="evenodd" d="M104.009 9.23364L102.744 7.59766H102.359V9.96365H102.772V8.28041L104.074 9.96365H104.422V7.59766H104.009V9.23364Z" fill="white"/>
<path fill-rule="evenodd" clip-rule="evenodd" d="M98.6635 8.26633V9.96365H99.0768V7.59766H98.6333L97.9134 8.7158L97.1934 7.59766H96.75V9.96365H97.1623V8.27337L97.9033 9.38246H97.9164L98.6635 8.26633Z" fill="white"/>
<path fill-rule="evenodd" clip-rule="evenodd" d="M95.2282 7.59766H93.4766V9.96365H95.2443V9.58859H93.8888V8.95612H95.0753V8.58106H93.8888V7.97272H95.2282V7.59766Z" fill="white"/>
<path fill-rule="evenodd" clip-rule="evenodd" d="M92.4537 8.96617V9.96365H92.867V7.59766H92.4537V8.58106H91.3185V7.59766H90.9062V9.96365H91.3185V8.96617H92.4537Z" fill="white"/>
<path fill-rule="evenodd" clip-rule="evenodd" d="M89.7163 7.98277H90.4664V7.59766H88.5469V7.98277H89.297V9.96365H89.7163V7.98277Z" fill="white"/>
<path fill-rule="evenodd" clip-rule="evenodd" d="M98.6704 10.6331V15.4596H85.3221V14.1163H97.0948V10.6331H96.6986V13.7211H85.3221V2.10732H96.6976V6.93383H97.0938V2.10732H98.6694V6.93383H99.0656V1.71115H97.0948V-0.0253906H82.9531V14.1163H84.925V15.8518H99.0666V10.6331H98.6704ZM84.925 13.7191H83.3493V0.371791H96.6976V1.71115H84.925V13.7191Z" fill="white"/>
</g>
</g>
<defs>
<clipPath id="clip0_1715_15185">
<rect width="65.6708" height="15.8516" fill="white" transform="translate(65.8672)"/>
</clipPath>
<clipPath id="clip1_1715_15185">
<rect width="31.495" height="15.8772" fill="white" transform="translate(82.9531 -0.0253906)"/>
</clipPath>
</defs>
</svg>
