<svg width="198" height="76" viewBox="0 0 198 76" fill="none" xmlns="http://www.w3.org/2000/svg">
<path d="M58.4358 35.7316L51.9624 29.2581L53.0263 28.1942L59.4997 34.6677L58.4358 35.7316ZM53.0263 35.7316L51.9624 34.6677L58.4358 28.1942L59.4997 29.2581L53.0263 35.7316ZM65.5108 37.8031C64.9967 37.7956 64.4901 37.7018 63.991 37.5217C63.4956 37.3415 63.0453 37.0413 62.64 36.621C62.2347 36.2007 61.9101 35.6359 61.6662 34.9266C61.426 34.2174 61.3059 33.3317 61.3059 32.2697C61.3059 31.264 61.4053 30.3708 61.6042 29.5902C61.8069 28.8097 62.0977 28.1511 62.4768 27.6144C62.8558 27.074 63.3136 26.6631 63.8503 26.3817C64.3869 26.1002 64.9892 25.9595 65.6572 25.9595C66.344 25.9595 66.9538 26.0946 67.4867 26.3648C68.0196 26.635 68.4511 27.0084 68.7814 27.485C69.1154 27.9616 69.3274 28.5038 69.4174 29.1118H67.7006C67.5842 28.6314 67.3534 28.2393 67.0082 27.9353C66.6629 27.6313 66.2126 27.4793 65.6572 27.4793C64.8128 27.4793 64.1542 27.8471 63.6814 28.5826C63.2123 29.3182 62.9759 30.3408 62.9721 31.6505H63.0566C63.2554 31.324 63.4994 31.0463 63.7883 30.8174C64.081 30.5847 64.4075 30.4065 64.7678 30.2826C65.1318 30.155 65.5146 30.0912 65.9161 30.0912C66.5841 30.0912 67.1883 30.2545 67.7287 30.581C68.2729 30.9037 68.7063 31.3503 69.029 31.9207C69.3518 32.4911 69.5131 33.1441 69.5131 33.8796C69.5131 34.6152 69.3461 35.2813 69.0122 35.878C68.6819 36.4747 68.2166 36.9475 67.6161 37.2965C67.0157 37.6418 66.3139 37.8106 65.5108 37.8031ZM65.5052 36.3396C65.948 36.3396 66.344 36.2307 66.693 36.0131C67.042 35.7954 67.3178 35.5027 67.5204 35.1349C67.7231 34.7672 67.8244 34.3562 67.8244 33.9021C67.8244 33.4593 67.725 33.0559 67.5261 32.6919C67.3309 32.3279 67.0607 32.0389 66.7155 31.825C66.374 31.6111 65.9837 31.5041 65.5446 31.5041C65.2106 31.5041 64.901 31.5679 64.6158 31.6955C64.3344 31.8231 64.0867 31.9995 63.8728 32.2247C63.6589 32.4498 63.49 32.7088 63.3662 33.0015C63.2461 33.2905 63.186 33.5963 63.186 33.919C63.186 34.3506 63.2855 34.7503 63.4844 35.118C63.687 35.4858 63.9628 35.7823 64.3118 36.0074C64.6646 36.2288 65.0624 36.3396 65.5052 36.3396ZM75.622 37.6455H73.7756L77.9243 26.1171H79.9339L84.0825 37.6455H82.2362L78.9769 28.2111H78.8869L75.622 37.6455ZM75.9316 33.131H81.9209V34.5945H75.9316V33.131ZM85.7691 37.6455L83.2247 28.9992H84.9641L86.6585 35.3488H86.7429L88.4429 28.9992H90.1823L91.871 35.3207H91.9555L93.6386 28.9992H95.378L92.8392 37.6455H91.1224L89.3661 31.4028H89.2366L87.4803 37.6455H85.7691ZM98.8574 37.8369C98.3095 37.8369 97.8141 37.7356 97.3713 37.5329C96.9285 37.3265 96.5776 37.0282 96.3186 36.6379C96.0635 36.2476 95.9359 35.7691 95.9359 35.2025C95.9359 34.7146 96.0297 34.3131 96.2173 33.9978C96.405 33.6826 96.6583 33.4331 96.9772 33.2492C97.2962 33.0653 97.6527 32.9264 98.0468 32.8326C98.4408 32.7388 98.8424 32.6675 99.2514 32.6187C99.7693 32.5587 100.19 32.5099 100.512 32.4724C100.835 32.4311 101.07 32.3654 101.216 32.2753C101.362 32.1853 101.436 32.0389 101.436 31.8363V31.7969C101.436 31.3052 101.297 30.9243 101.019 30.6541C100.745 30.384 100.336 30.2489 99.7918 30.2489C99.2251 30.2489 98.7786 30.3746 98.4521 30.626C98.1293 30.8737 97.9061 31.1495 97.7822 31.4535L96.2004 31.0932C96.3881 30.5678 96.662 30.1438 97.0223 29.821C97.3863 29.4946 97.8047 29.2581 98.2776 29.1118C98.7504 28.9617 99.2477 28.8866 99.7693 28.8866C100.115 28.8866 100.48 28.9279 100.867 29.0104C101.257 29.0893 101.621 29.2356 101.959 29.4495C102.301 29.6634 102.58 29.9693 102.798 30.3671C103.015 30.7611 103.124 31.2734 103.124 31.9038V37.6455H101.481V36.4634H101.413C101.304 36.6811 101.141 36.895 100.923 37.1051C100.706 37.3153 100.426 37.4898 100.085 37.6286C99.743 37.7675 99.334 37.8369 98.8574 37.8369ZM99.2233 36.4859C99.6886 36.4859 100.086 36.394 100.417 36.2101C100.751 36.0262 101.004 35.786 101.177 35.4896C101.353 35.1893 101.441 34.8685 101.441 34.527V33.4124C101.381 33.4725 101.265 33.5287 101.092 33.5813C100.923 33.6301 100.73 33.6732 100.512 33.7108C100.295 33.7445 100.083 33.7764 99.8762 33.8065C99.6698 33.8327 99.4972 33.8552 99.3584 33.874C99.0319 33.9153 98.7335 33.9847 98.4633 34.0823C98.1969 34.1799 97.983 34.3206 97.8216 34.5045C97.664 34.6846 97.5852 34.9248 97.5852 35.225C97.5852 35.6415 97.7391 35.9568 98.0468 36.1707C98.3545 36.3808 98.7467 36.4859 99.2233 36.4859ZM104.732 37.6455V28.9992H106.359V30.3727H106.449C106.606 29.9074 106.884 29.5415 107.282 29.275C107.684 29.0048 108.138 28.8697 108.644 28.8697C108.749 28.8697 108.873 28.8735 109.016 28.881C109.162 28.8885 109.277 28.8979 109.359 28.9091V30.5191C109.292 30.5003 109.171 30.4796 108.999 30.4571C108.826 30.4309 108.654 30.4177 108.481 30.4177C108.083 30.4177 107.729 30.5022 107.417 30.671C107.109 30.8362 106.865 31.067 106.685 31.3634C106.505 31.6561 106.415 31.9901 106.415 32.3654V37.6455H104.732ZM113.109 37.8144C112.411 37.8144 111.788 37.6361 111.24 37.2796C110.696 36.9194 110.268 36.4071 109.956 35.7429C109.649 35.0749 109.495 34.2737 109.495 33.3392C109.495 32.4048 109.651 31.6055 109.962 30.9412C110.277 30.277 110.709 29.7685 111.257 29.4157C111.805 29.063 112.426 28.8866 113.12 28.8866C113.657 28.8866 114.088 28.9767 114.415 29.1568C114.745 29.3332 115 29.5396 115.18 29.776C115.364 30.0124 115.507 30.2207 115.608 30.4008H115.709V26.1171H117.392V37.6455H115.749V36.3001H115.608C115.507 36.484 115.36 36.6942 115.169 36.9306C114.981 37.167 114.722 37.3734 114.392 37.5498C114.062 37.7262 113.634 37.8144 113.109 37.8144ZM113.48 36.379C113.964 36.379 114.373 36.2514 114.707 35.9962C115.045 35.7372 115.3 35.3789 115.473 34.921C115.649 34.4632 115.738 33.9303 115.738 33.3223C115.738 32.7219 115.651 32.1965 115.479 31.7462C115.306 31.2959 115.053 30.945 114.719 30.6936C114.385 30.4421 113.972 30.3164 113.48 30.3164C112.974 30.3164 112.551 30.4477 112.214 30.7104C111.876 30.9731 111.621 31.3315 111.448 31.7856C111.279 32.2397 111.195 32.7519 111.195 33.3223C111.195 33.9003 111.281 34.42 111.454 34.8816C111.626 35.3432 111.882 35.7091 112.219 35.9793C112.561 36.2457 112.981 36.379 113.48 36.379ZM125.64 31.1101L124.114 31.3803C124.05 31.1852 123.949 30.9994 123.81 30.823C123.675 30.6466 123.491 30.5022 123.259 30.3896C123.026 30.277 122.735 30.2207 122.386 30.2207C121.91 30.2207 121.512 30.3277 121.193 30.5416C120.874 30.7517 120.714 31.0238 120.714 31.3578C120.714 31.6467 120.821 31.8794 121.035 32.0558C121.249 32.2322 121.594 32.3767 122.071 32.4892L123.444 32.8045C124.24 32.9884 124.833 33.2717 125.223 33.6545C125.613 34.0372 125.809 34.5345 125.809 35.1462C125.809 35.6641 125.658 36.1256 125.358 36.5309C125.062 36.9325 124.647 37.2477 124.114 37.4766C123.585 37.7056 122.972 37.82 122.274 37.82C121.305 37.82 120.515 37.6136 119.904 37.2008C119.292 36.7843 118.917 36.1932 118.778 35.4276L120.405 35.18C120.506 35.604 120.714 35.9249 121.029 36.1425C121.345 36.3564 121.756 36.4634 122.262 36.4634C122.814 36.4634 123.255 36.3489 123.585 36.12C123.915 35.8873 124.08 35.604 124.08 35.27C124.08 34.9998 123.979 34.7728 123.776 34.5889C123.578 34.405 123.272 34.2662 122.859 34.1723L121.395 33.8515C120.589 33.6676 119.992 33.3749 119.605 32.9733C119.223 32.5718 119.031 32.0633 119.031 31.4479C119.031 30.9375 119.174 30.4909 119.459 30.1081C119.744 29.7253 120.138 29.427 120.641 29.2131C121.144 28.9954 121.72 28.8866 122.369 28.8866C123.304 28.8866 124.039 29.0893 124.576 29.4946C125.112 29.8961 125.467 30.4346 125.64 31.1101ZM134.228 37.82C133.418 37.82 132.71 37.6342 132.106 37.2627C131.502 36.8912 131.033 36.3715 130.699 35.7035C130.365 35.0355 130.198 34.2549 130.198 33.3618C130.198 32.4648 130.365 31.6805 130.699 31.0088C131.033 30.337 131.502 29.8154 132.106 29.4439C132.71 29.0724 133.418 28.8866 134.228 28.8866C135.039 28.8866 135.746 29.0724 136.35 29.4439C136.955 29.8154 137.424 30.337 137.758 31.0088C138.092 31.6805 138.259 32.4648 138.259 33.3618C138.259 34.2549 138.092 35.0355 137.758 35.7035C137.424 36.3715 136.955 36.8912 136.35 37.2627C135.746 37.6342 135.039 37.82 134.228 37.82ZM134.234 36.4071C134.759 36.4071 135.195 36.2683 135.54 35.9905C135.885 35.7128 136.14 35.3432 136.305 34.8816C136.474 34.42 136.559 33.9115 136.559 33.3561C136.559 32.8045 136.474 32.2979 136.305 31.8363C136.14 31.3709 135.885 30.9975 135.54 30.7161C135.195 30.4346 134.759 30.2939 134.234 30.2939C133.705 30.2939 133.266 30.4346 132.917 30.7161C132.571 30.9975 132.314 31.3709 132.145 31.8363C131.98 32.2979 131.898 32.8045 131.898 33.3561C131.898 33.9115 131.98 34.42 132.145 34.8816C132.314 35.3432 132.571 35.7128 132.917 35.9905C133.266 36.2683 133.705 36.4071 134.234 36.4071ZM141.186 32.5118V37.6455H139.503V28.9992H141.119V30.4065H141.226C141.425 29.9486 141.736 29.5809 142.16 29.3032C142.588 29.0255 143.127 28.8866 143.776 28.8866C144.365 28.8866 144.881 29.0104 145.324 29.2581C145.767 29.5021 146.11 29.8661 146.354 30.3502C146.598 30.8343 146.72 31.4328 146.72 32.1459V37.6455H145.037V32.3485C145.037 31.7218 144.873 31.2321 144.547 30.8793C144.22 30.5228 143.772 30.3445 143.202 30.3445C142.811 30.3445 142.464 30.429 142.16 30.5979C141.86 30.7667 141.622 31.0144 141.445 31.3409C141.273 31.6636 141.186 32.0539 141.186 32.5118ZM69.3149 55.6455V44.1171H73.5368C74.3549 44.1171 75.0322 44.2522 75.5689 44.5224C76.1055 44.7888 76.5071 45.151 76.7735 45.6088C77.04 46.0629 77.1732 46.5751 77.1732 47.1455C77.1732 47.6259 77.085 48.0312 76.9086 48.3614C76.7322 48.6879 76.4958 48.9506 76.1993 49.1495C75.9066 49.3447 75.5839 49.4873 75.2311 49.5773V49.6899C75.6139 49.7087 75.9873 49.8325 76.3513 50.0614C76.7191 50.2866 77.0231 50.6075 77.2633 51.024C77.5034 51.4406 77.6235 51.9472 77.6235 52.5439C77.6235 53.133 77.4847 53.6622 77.207 54.1313C76.933 54.5966 76.5089 54.9663 75.9348 55.2402C75.3606 55.5104 74.6269 55.6455 73.7338 55.6455H69.3149ZM71.0543 54.1538H73.5649C74.398 54.1538 74.9947 53.9924 75.355 53.6697C75.7152 53.347 75.8954 52.9435 75.8954 52.4594C75.8954 52.0954 75.8034 51.7614 75.6195 51.4574C75.4357 51.1535 75.173 50.9114 74.8315 50.7313C74.4937 50.5512 74.0922 50.4611 73.6268 50.4611H71.0543V54.1538ZM71.0543 49.1045H73.3848C73.7751 49.1045 74.126 49.0294 74.4374 48.8793C74.7527 48.7292 75.0022 48.5191 75.1861 48.2489C75.3737 47.9749 75.4676 47.6522 75.4676 47.2806C75.4676 46.804 75.3006 46.4044 74.9666 46.0816C74.6326 45.7589 74.1203 45.5975 73.4298 45.5975H71.0543V49.1045ZM82.6439 55.82C81.792 55.82 81.0584 55.638 80.4429 55.274C79.8312 54.9062 79.3584 54.3902 79.0244 53.726C78.6941 53.058 78.529 52.2755 78.529 51.3786C78.529 50.493 78.6941 49.7124 79.0244 49.0369C79.3584 48.3614 79.8237 47.8342 80.4204 47.4551C81.0208 47.0761 81.7226 46.8866 82.5257 46.8866C83.0135 46.8866 83.4864 46.9673 83.9442 47.1287C84.4021 47.29 84.813 47.5433 85.177 47.8886C85.541 48.2338 85.8281 48.6823 86.0382 49.2339C86.2484 49.7818 86.3535 50.448 86.3535 51.2323V51.829H79.4803V50.568H84.7041C84.7041 50.1252 84.6141 49.7331 84.434 49.3916C84.2538 49.0463 84.0005 48.7742 83.674 48.5753C83.3513 48.3764 82.9723 48.277 82.5369 48.277C82.0641 48.277 81.6513 48.3933 81.2985 48.626C80.9495 48.8549 80.6793 49.1551 80.4879 49.5267C80.3003 49.8944 80.2065 50.2941 80.2065 50.7257V51.7108C80.2065 52.2887 80.3078 52.7803 80.5105 53.1856C80.7169 53.5909 81.0039 53.9005 81.3717 54.1144C81.7395 54.3245 82.1692 54.4296 82.6608 54.4296C82.9798 54.4296 83.2706 54.3846 83.5333 54.2945C83.796 54.2007 84.023 54.0619 84.2144 53.878C84.4058 53.6941 84.5522 53.467 84.6535 53.1968L86.2465 53.4839C86.1189 53.953 85.89 54.3639 85.5598 54.7167C85.2333 55.0657 84.8224 55.3378 84.327 55.5329C83.8354 55.7243 83.2744 55.82 82.6439 55.82ZM89.27 50.5118V55.6455H87.5869V44.1171H89.2475V48.4065H89.3544C89.5571 47.9411 89.8667 47.5715 90.2832 47.2975C90.6998 47.0236 91.2439 46.8866 91.9157 46.8866C92.5086 46.8866 93.0265 47.0086 93.4693 47.2525C93.9159 47.4964 94.2611 47.8604 94.5051 48.3445C94.7527 48.8249 94.8766 49.4253 94.8766 50.1459V55.6455H93.1935V50.3485C93.1935 49.7143 93.0302 49.2227 92.7037 48.8737C92.3772 48.5209 91.9232 48.3445 91.3415 48.3445C90.9437 48.3445 90.5872 48.429 90.272 48.5979C89.9605 48.7667 89.7147 49.0144 89.5345 49.3409C89.3582 49.6636 89.27 50.0539 89.27 50.5118ZM99.0047 55.8369C98.4568 55.8369 97.9615 55.7356 97.5187 55.5329C97.0758 55.3265 96.725 55.0282 96.466 54.6379C96.2108 54.2476 96.0832 53.7691 96.0832 53.2025C96.0832 52.7146 96.1771 52.3131 96.3647 51.9978C96.5523 51.6826 96.8056 51.4331 97.1246 51.2492C97.4436 51.0653 97.8001 50.9264 98.1942 50.8326C98.5882 50.7388 98.9897 50.6675 99.3988 50.6187C99.9167 50.5587 100.337 50.5099 100.66 50.4724C100.982 50.4311 101.217 50.3654 101.363 50.2753C101.51 50.1853 101.583 50.0389 101.583 49.8363V49.7969C101.583 49.3052 101.444 48.9243 101.166 48.6541C100.892 48.384 100.483 48.2489 99.9392 48.2489C99.3725 48.2489 98.9259 48.3746 98.5994 48.626C98.2767 48.8737 98.0534 49.1495 97.9296 49.4535L96.3478 49.0932C96.5354 48.5678 96.8094 48.1438 97.1697 47.821C97.5337 47.4946 97.9521 47.2581 98.4249 47.1118C98.8978 46.9617 99.395 46.8866 99.9167 46.8866C100.262 46.8866 100.628 46.9279 101.014 47.0104C101.405 47.0893 101.769 47.2356 102.106 47.4495C102.448 47.6634 102.727 47.9693 102.945 48.3671C103.163 48.7611 103.272 49.2734 103.272 49.9038V55.6455H101.628V54.4634H101.56C101.452 54.6811 101.288 54.895 101.071 55.1051C100.853 55.3153 100.573 55.4898 100.232 55.6286C99.8904 55.7675 99.4813 55.8369 99.0047 55.8369ZM99.3706 54.4859C99.836 54.4859 100.234 54.394 100.564 54.2101C100.898 54.0262 101.151 53.786 101.324 53.4896C101.5 53.1893 101.589 52.8685 101.589 52.527V51.4124C101.528 51.4725 101.412 51.5287 101.24 51.5813C101.071 51.6301 100.877 51.6732 100.66 51.7108C100.442 51.7445 100.23 51.7764 100.024 51.8065C99.8172 51.8327 99.6446 51.8552 99.5057 51.874C99.1792 51.9153 98.8809 51.9847 98.6107 52.0823C98.3443 52.1799 98.1304 52.3206 97.969 52.5045C97.8114 52.6846 97.7326 52.9248 97.7326 53.225C97.7326 53.6415 97.8864 53.9568 98.1942 54.1707C98.5019 54.3808 98.894 54.4859 99.3706 54.4859ZM106.562 50.5118V55.6455H104.879V46.9992H106.495V48.4065H106.602C106.801 47.9486 107.112 47.5809 107.536 47.3032C107.964 47.0255 108.503 46.8866 109.152 46.8866C109.741 46.8866 110.257 47.0104 110.7 47.2581C111.143 47.5021 111.486 47.8661 111.73 48.3502C111.974 48.8343 112.096 49.4328 112.096 50.1459V55.6455H110.413V50.3485C110.413 49.7218 110.25 49.2321 109.923 48.8793C109.597 48.5228 109.148 48.3445 108.578 48.3445C108.187 48.3445 107.84 48.429 107.536 48.5979C107.236 48.7667 106.998 49.0144 106.821 49.3409C106.649 49.6636 106.562 50.0539 106.562 50.5118ZM117.361 55.82C116.524 55.82 115.804 55.6305 115.2 55.2515C114.599 54.8687 114.138 54.3414 113.815 53.6697C113.492 52.9979 113.331 52.2286 113.331 51.3618C113.331 50.4836 113.496 49.7087 113.826 49.0369C114.156 48.3614 114.622 47.8342 115.222 47.4551C115.822 47.0761 116.53 46.8866 117.344 46.8866C118.001 46.8866 118.586 47.0086 119.101 47.2525C119.615 47.4927 120.029 47.8304 120.345 48.2657C120.664 48.7011 120.853 49.2096 120.913 49.7912H119.275C119.185 49.3859 118.979 49.0369 118.656 48.7442C118.337 48.4515 117.909 48.3051 117.372 48.3051C116.903 48.3051 116.492 48.429 116.14 48.6767C115.791 48.9206 115.519 49.2696 115.323 49.7237C115.128 50.174 115.031 50.7069 115.031 51.3223C115.031 51.9528 115.126 52.497 115.318 52.9548C115.509 53.4126 115.779 53.7673 116.128 54.0187C116.481 54.2701 116.896 54.3958 117.372 54.3958C117.691 54.3958 117.98 54.3377 118.239 54.2213C118.502 54.1013 118.721 53.9305 118.898 53.7091C119.078 53.4877 119.204 53.2212 119.275 52.9098H120.913C120.853 53.4689 120.671 53.968 120.367 54.4071C120.063 54.8462 119.656 55.1914 119.146 55.4429C118.639 55.6943 118.044 55.82 117.361 55.82ZM125.805 55.82C124.954 55.82 124.22 55.638 123.604 55.274C122.993 54.9062 122.52 54.3902 122.186 53.726C121.856 53.058 121.691 52.2755 121.691 51.3786C121.691 50.493 121.856 49.7124 122.186 49.0369C122.52 48.3614 122.985 47.8342 123.582 47.4551C124.182 47.0761 124.884 46.8866 125.687 46.8866C126.175 46.8866 126.648 46.9673 127.106 47.1287C127.564 47.29 127.974 47.5433 128.339 47.8886C128.703 48.2338 128.99 48.6823 129.2 49.2339C129.41 49.7818 129.515 50.448 129.515 51.2323V51.829H122.642V50.568H127.866C127.866 50.1252 127.776 49.7331 127.595 49.3916C127.415 49.0463 127.162 48.7742 126.836 48.5753C126.513 48.3764 126.134 48.277 125.698 48.277C125.226 48.277 124.813 48.3933 124.46 48.626C124.111 48.8549 123.841 49.1551 123.649 49.5267C123.462 49.8944 123.368 50.2941 123.368 50.7257V51.7108C123.368 52.2887 123.469 52.7803 123.672 53.1856C123.878 53.5909 124.165 53.9005 124.533 54.1144C124.901 54.3245 125.331 54.4296 125.822 54.4296C126.141 54.4296 126.432 54.3846 126.695 54.2945C126.957 54.2007 127.185 54.0619 127.376 53.878C127.567 53.6941 127.714 53.467 127.815 53.1968L129.408 53.4839C129.28 53.953 129.052 54.3639 128.721 54.7167C128.395 55.0657 127.984 55.3378 127.489 55.5329C126.997 55.7243 126.436 55.82 125.805 55.82Z" fill="white"/>
<path d="M83.3292 72.4062V66.642H85.4401C85.8492 66.642 86.1879 66.7096 86.4562 66.8447C86.7245 66.9779 86.9253 67.159 87.0585 67.3879C87.1917 67.6149 87.2583 67.8711 87.2583 68.1563C87.2583 68.3964 87.2143 68.5991 87.1261 68.7642C87.0379 68.9275 86.9197 69.0588 86.7714 69.1583C86.6251 69.2558 86.4637 69.3271 86.2873 69.3722V69.4284C86.4787 69.4378 86.6654 69.4998 86.8474 69.6142C87.0313 69.7268 87.1833 69.8872 87.3034 70.0955C87.4235 70.3038 87.4835 70.5571 87.4835 70.8554C87.4835 71.15 87.4141 71.4146 87.2752 71.6491C87.1383 71.8818 86.9262 72.0666 86.6391 72.2036C86.3521 72.3387 85.9852 72.4062 85.5387 72.4062H83.3292ZM84.1989 71.6604H85.4542C85.8708 71.6604 86.1691 71.5797 86.3492 71.4183C86.5294 71.257 86.6194 71.0553 86.6194 70.8132C86.6194 70.6312 86.5735 70.4642 86.4815 70.3122C86.3896 70.1602 86.2582 70.0392 86.0875 69.9491C85.9186 69.8591 85.7178 69.814 85.4852 69.814H84.1989V71.6604ZM84.1989 69.1357H85.3642C85.5593 69.1357 85.7347 69.0982 85.8905 69.0232C86.0481 68.9481 86.1729 68.843 86.2648 68.7079C86.3586 68.5709 86.4055 68.4096 86.4055 68.2238C86.4055 67.9855 86.322 67.7857 86.155 67.6243C85.988 67.463 85.7319 67.3823 85.3867 67.3823H84.1989V69.1357ZM90.073 72.4935C89.647 72.4935 89.2802 72.4025 88.9725 72.2205C88.6666 72.0366 88.4302 71.7786 88.2632 71.4465C88.0981 71.1125 88.0155 70.7213 88.0155 70.2728C88.0155 69.83 88.0981 69.4397 88.2632 69.102C88.4302 68.7642 88.6629 68.5006 88.9612 68.3111C89.2614 68.1216 89.6123 68.0268 90.0139 68.0268C90.2578 68.0268 90.4942 68.0671 90.7231 68.1478C90.952 68.2285 91.1575 68.3552 91.3395 68.5278C91.5215 68.7004 91.6651 68.9246 91.7701 69.2005C91.8752 69.4744 91.9278 69.8075 91.9278 70.1996V70.498H88.4912V69.8675H91.1031C91.1031 69.6461 91.0581 69.45 90.968 69.2793C90.8779 69.1067 90.7513 68.9706 90.588 68.8712C90.4267 68.7717 90.2371 68.722 90.0195 68.722C89.7831 68.722 89.5767 68.7802 89.4003 68.8965C89.2258 69.011 89.0907 69.1611 88.995 69.3468C88.9012 69.5307 88.8543 69.7305 88.8543 69.9463V70.4389C88.8543 70.7278 88.9049 70.9736 89.0062 71.1763C89.1094 71.3789 89.253 71.5337 89.4369 71.6407C89.6208 71.7458 89.8356 71.7983 90.0814 71.7983C90.2409 71.7983 90.3863 71.7758 90.5177 71.7308C90.649 71.6838 90.7625 71.6144 90.8582 71.5225C90.9539 71.4305 91.0271 71.317 91.0778 71.1819L91.8743 71.3255C91.8105 71.56 91.696 71.7655 91.5309 71.9418C91.3677 72.1164 91.1622 72.2524 90.9145 72.35C90.6687 72.4457 90.3882 72.4935 90.073 72.4935ZM93.4653 69.8394V72.4062H92.6237V66.642H93.454V68.7867H93.5075C93.6088 68.5541 93.7636 68.3692 93.9719 68.2323C94.1802 68.0953 94.4522 68.0268 94.7881 68.0268C95.0846 68.0268 95.3435 68.0878 95.5649 68.2097C95.7882 68.3317 95.9608 68.5137 96.0828 68.7558C96.2066 68.9959 96.2686 69.2962 96.2686 69.6564V72.4062H95.427V69.7578C95.427 69.4406 95.3454 69.1948 95.1821 69.0203C95.0189 68.844 94.7919 68.7558 94.501 68.7558C94.3021 68.7558 94.1239 68.798 93.9663 68.8824C93.8105 68.9669 93.6876 69.0907 93.5975 69.2539C93.5094 69.4153 93.4653 69.6105 93.4653 69.8394ZM98.4119 72.5019C98.1379 72.5019 97.8903 72.4513 97.6689 72.35C97.4474 72.2468 97.272 72.0976 97.1425 71.9024C97.0149 71.7073 96.9511 71.4681 96.9511 71.1847C96.9511 70.9408 96.9981 70.74 97.0919 70.5824C97.1857 70.4248 97.3123 70.3 97.4718 70.2081C97.6313 70.1161 97.8096 70.0467 98.0066 69.9998C98.2036 69.9529 98.4044 69.9172 98.6089 69.8929C98.8679 69.8628 99.078 69.8384 99.2394 69.8197C99.4007 69.799 99.518 69.7662 99.5912 69.7212C99.6644 69.6761 99.701 69.603 99.701 69.5016V69.4819C99.701 69.2361 99.6315 69.0457 99.4927 68.9106C99.3557 68.7755 99.1512 68.7079 98.8791 68.7079C98.5958 68.7079 98.3725 68.7708 98.2093 68.8965C98.0479 69.0203 97.9362 69.1583 97.8743 69.3102L97.0834 69.1301C97.1772 68.8674 97.3142 68.6554 97.4944 68.494C97.6764 68.3308 97.8856 68.2126 98.122 68.1394C98.3584 68.0643 98.607 68.0268 98.8679 68.0268C99.0405 68.0268 99.2234 68.0474 99.4167 68.0887C99.6118 68.1281 99.7938 68.2013 99.9627 68.3083C100.133 68.4152 100.273 68.5681 100.382 68.767C100.491 68.964 100.545 69.2202 100.545 69.5354V72.4062H99.7235V71.8152H99.6897C99.6353 71.924 99.5537 72.031 99.4448 72.1361C99.336 72.2411 99.1962 72.3284 99.0255 72.3978C98.8547 72.4672 98.6502 72.5019 98.4119 72.5019ZM98.5948 71.8265C98.8275 71.8265 99.0264 71.7805 99.1915 71.6885C99.3585 71.5966 99.4852 71.4765 99.5715 71.3283C99.6597 71.1782 99.7038 71.0177 99.7038 70.847V70.2897C99.6738 70.3197 99.6156 70.3479 99.5293 70.3741C99.4448 70.3985 99.3482 70.4201 99.2394 70.4389C99.1305 70.4558 99.0245 70.4717 98.9213 70.4867C98.8181 70.4999 98.7318 70.5111 98.6624 70.5205C98.4992 70.5411 98.35 70.5759 98.2149 70.6246C98.0817 70.6734 97.9747 70.7438 97.894 70.8357C97.8152 70.9258 97.7758 71.0459 97.7758 71.196C97.7758 71.4043 97.8527 71.5619 98.0066 71.6688C98.1605 71.7739 98.3565 71.8265 98.5948 71.8265ZM102.27 69.8394V72.4062H101.428V68.0831H102.236V68.7867H102.29C102.389 68.5578 102.545 68.3739 102.757 68.2351C102.971 68.0962 103.24 68.0268 103.565 68.0268C103.859 68.0268 104.117 68.0887 104.339 68.2126C104.56 68.3345 104.732 68.5165 104.854 68.7586C104.976 69.0006 105.037 69.2999 105.037 69.6564V72.4062H104.195V69.7578C104.195 69.4444 104.114 69.1995 103.95 69.0232C103.787 68.8449 103.563 68.7558 103.278 68.7558C103.082 68.7558 102.909 68.798 102.757 68.8824C102.607 68.9669 102.488 69.0907 102.399 69.2539C102.313 69.4153 102.27 69.6105 102.27 69.8394ZM107.749 72.4935C107.33 72.4935 106.97 72.3987 106.668 72.2092C106.368 72.0178 106.137 71.7542 105.975 71.4183C105.814 71.0825 105.733 70.6978 105.733 70.2644C105.733 69.8253 105.816 69.4378 105.981 69.102C106.146 68.7642 106.379 68.5006 106.679 68.3111C106.979 68.1216 107.333 68.0268 107.74 68.0268C108.069 68.0268 108.361 68.0878 108.618 68.2097C108.875 68.3298 109.083 68.4987 109.24 68.7164C109.4 68.934 109.495 69.1883 109.525 69.4791H108.706C108.661 69.2765 108.557 69.102 108.396 68.9556C108.236 68.8092 108.023 68.7361 107.754 68.7361C107.52 68.7361 107.314 68.798 107.138 68.9218C106.963 69.0438 106.827 69.2183 106.73 69.4453C106.632 69.6705 106.583 69.9369 106.583 70.2447C106.583 70.5599 106.631 70.832 106.727 71.0609C106.823 71.2898 106.958 71.4671 107.132 71.5928C107.309 71.7186 107.516 71.7814 107.754 71.7814C107.914 71.7814 108.058 71.7523 108.188 71.6942C108.319 71.6341 108.429 71.5487 108.517 71.438C108.607 71.3273 108.67 71.1941 108.706 71.0384H109.525C109.495 71.318 109.404 71.5675 109.252 71.787C109.1 72.0066 108.896 72.1792 108.641 72.3049C108.388 72.4306 108.09 72.4935 107.749 72.4935ZM112.05 72.4935C111.624 72.4935 111.257 72.4025 110.95 72.2205C110.644 72.0366 110.407 71.7786 110.24 71.4465C110.075 71.1125 109.993 70.7213 109.993 70.2728C109.993 69.83 110.075 69.4397 110.24 69.102C110.407 68.7642 110.64 68.5006 110.938 68.3111C111.238 68.1216 111.589 68.0268 111.991 68.0268C112.235 68.0268 112.471 68.0671 112.7 68.1478C112.929 68.2285 113.135 68.3552 113.317 68.5278C113.499 68.7004 113.642 68.9246 113.747 69.2005C113.852 69.4744 113.905 69.8075 113.905 70.1996V70.498H110.468V69.8675H113.08C113.08 69.6461 113.035 69.45 112.945 69.2793C112.855 69.1067 112.728 68.9706 112.565 68.8712C112.404 68.7717 112.214 68.722 111.997 68.722C111.76 68.722 111.554 68.7802 111.377 68.8965C111.203 69.011 111.068 69.1611 110.972 69.3468C110.878 69.5307 110.831 69.7305 110.831 69.9463V70.4389C110.831 70.7278 110.882 70.9736 110.983 71.1763C111.086 71.3789 111.23 71.5337 111.414 71.6407C111.598 71.7458 111.813 71.7983 112.058 71.7983C112.218 71.7983 112.363 71.7758 112.495 71.7308C112.626 71.6838 112.74 71.6144 112.835 71.5225C112.931 71.4305 113.004 71.317 113.055 71.1819L113.851 71.3255C113.788 71.56 113.673 71.7655 113.508 71.9418C113.345 72.1164 113.139 72.2524 112.892 72.35C112.646 72.4457 112.365 72.4935 112.05 72.4935Z" fill="#B4B5BB"/>
<path d="M30.473 67.1433C30.0318 66.8036 29.5907 66.5489 29.1496 66.379C28.7084 66.2092 28.2673 66.1243 27.7379 66.1243C26.7674 66.0394 25.7087 66.2941 24.6499 66.464C23.5912 66.7187 22.6207 66.9735 21.9149 67.2282C21.209 67.483 20.6797 67.6528 20.6797 67.6528C20.6797 67.6528 21.1208 67.9076 21.9149 68.2473C22.6207 68.5869 23.6794 68.9266 24.8264 69.0965C25.9734 69.2663 27.1203 69.2663 28.179 69.0115C29.326 68.7568 30.2083 68.1623 30.473 67.1433Z" fill="#FFCB6D"/>
<path d="M27.3878 62.8117C27.8289 63.6609 28.3583 64.5101 29.1523 65.0196C29.5053 65.2744 29.9464 65.5291 30.3875 65.6141C30.8287 65.699 31.358 65.699 31.7992 65.4442C31.7992 64.4252 31.5345 63.576 31.0934 62.8966C30.6522 62.2173 29.9464 61.5379 29.3288 61.0284C28.623 60.5189 28.0054 60.0943 27.476 59.7546C26.9467 59.415 26.5938 59.2451 26.5938 59.2451C26.5938 59.2451 26.5938 59.33 26.5938 59.5848C26.5938 59.7546 26.682 60.0094 26.682 60.3491C26.7702 61.0284 26.9467 61.8776 27.3878 62.8117Z" fill="#FFCB6D"/>
<path d="M19.97 65.1048C21.0287 65.0199 21.911 64.6803 22.5286 63.8311C21.9992 62.9819 21.2052 62.4724 20.3229 62.2176C19.4406 61.9628 18.2937 61.8779 17.2349 61.8779C16.1762 61.8779 15.1175 61.8779 14.3234 61.8779C13.5294 61.8779 13 61.8779 13 61.8779C13 61.8779 13.0882 61.9628 13.2647 62.1327C13.4411 62.3025 13.7058 62.5573 14.0587 62.812C14.7645 63.3215 15.6468 63.916 16.7055 64.4255C17.8525 64.8501 18.9995 65.1048 19.97 65.1048Z" fill="#FFCB6D"/>
<path d="M21.9184 61.1991C22.536 61.8785 23.3301 62.388 24.3006 62.3031C24.7417 61.3689 24.6535 60.4348 24.3888 59.5856C24.1241 58.7364 23.5948 57.9722 23.1536 57.2928C22.6242 56.6135 22.1831 56.104 21.742 55.6794C21.5655 55.5095 21.3891 55.3397 21.3008 55.1698C21.2126 55.0849 21.1244 55 21.1244 55C21.1244 55 21.1244 55.0849 21.0361 55.2548C20.9479 55.4246 20.9479 55.6794 20.8597 56.019C20.7715 56.6984 20.6832 57.5476 20.8597 58.4817C21.0361 59.5007 21.389 60.4348 21.9184 61.1991Z" fill="#FFCB6D"/>
<path d="M9.38362 54.1502C8.6778 53.8955 8.14844 53.8105 8.14844 53.8105C8.14844 53.8105 8.23665 53.8955 8.32488 54.1502C8.4131 54.3201 8.58956 54.5748 8.76602 54.9145C8.94247 55.2542 9.20717 55.5938 9.47185 56.0184C9.64831 56.1883 9.73654 56.443 9.91299 56.6129L10.0012 56.7827L10.1777 56.9526C10.2659 57.0375 10.3541 57.2073 10.4423 57.2922C11.3246 58.2263 12.3834 58.9906 13.3539 59.3303C14.4126 59.67 15.3831 59.5851 16.2654 58.9057C16.0007 57.8867 15.4713 57.2073 14.6773 56.6978C14.5008 56.528 14.2361 56.443 14.0597 56.2732C13.8832 56.1034 13.6186 56.0184 13.3539 55.8486C13.0892 55.6788 12.9127 55.5938 12.648 55.424C12.3833 55.3391 12.2069 55.1693 11.9422 55.0843C11.0599 54.6597 10.0894 54.3201 9.38362 54.1502Z" fill="#FFCB6D"/>
<path d="M16.5358 55.8486C16.8005 56.6978 17.4181 57.3772 18.3886 57.6319C19.0944 56.8676 19.2709 55.9335 19.3591 55.1692C19.4473 54.3201 19.2709 53.5558 19.1827 52.8764C19.1827 52.6217 19.0062 52.1122 18.918 51.7725C18.8297 51.4328 18.6533 51.0931 18.5651 50.7535C18.4768 50.4987 18.3886 50.2439 18.3004 50.0741C18.2122 49.9043 18.2122 49.8193 18.2122 49.8193C18.2122 49.8193 18.1239 49.9043 18.0357 50.0741C17.9475 50.2439 17.771 50.4987 17.5946 50.7535C17.2416 51.3479 16.8887 52.1971 16.624 53.0463C16.5358 53.301 16.5358 53.4709 16.4476 53.7256C16.3594 53.9804 16.3594 54.1502 16.3594 54.405C16.3594 54.6597 16.3594 54.8296 16.3594 55.0843C16.3594 55.424 16.4476 55.6788 16.5358 55.8486Z" fill="#FFCB6D"/>
<path d="M8.32974 50.6683C8.5062 50.8382 8.68266 51.008 8.85911 51.1779C9.03557 51.3477 9.30026 51.5175 9.47672 51.6025C10.359 52.112 11.2413 52.3667 12.3 52.0271C12.3882 51.5175 12.3882 51.0929 12.2118 50.6683C12.1235 50.4985 12.0353 50.2438 11.9471 50.0739C11.8589 49.9041 11.6824 49.7342 11.5942 49.4795C11.0648 48.7152 10.1825 48.1208 9.38848 47.5263C8.59443 46.9319 7.71215 46.4224 7.00632 46.0827C6.3005 45.743 5.85938 45.4883 5.85938 45.4883C5.85938 45.4883 5.85938 45.5732 5.94761 45.828C6.03584 46.0827 6.12405 46.3375 6.21228 46.6771C6.47696 47.3565 6.82987 48.3755 7.44746 49.2247C7.62392 49.8192 7.97683 50.2437 8.32974 50.6683Z" fill="#FFCB6D"/>
<path d="M13.7982 50.2437C13.9747 50.6683 14.3276 51.008 14.6805 51.2628C15.5628 50.7533 16.0921 49.989 16.4451 49.1398C16.5333 48.97 16.5333 48.7152 16.6215 48.5453C16.6215 48.4604 16.6215 48.2906 16.7097 48.2057C16.7097 48.1208 16.7097 47.9509 16.798 47.866C16.8862 47.4414 16.8862 47.0168 16.8862 46.5922C16.798 45.743 16.7979 44.9787 16.6215 44.3843C16.5333 44.1296 16.5333 43.8748 16.4451 43.705C16.4451 43.5351 16.3568 43.4502 16.3568 43.4502C16.3568 43.4502 16.2686 43.5351 16.0921 43.705C15.9157 43.8748 15.7392 44.0446 15.5628 44.2994C15.1216 44.8089 14.5923 45.5732 14.1511 46.4224C13.71 47.2716 13.4453 48.2057 13.4453 49.1398C13.4453 49.3945 13.4453 49.5644 13.5335 49.8191C13.6217 49.9041 13.71 50.0739 13.7982 50.2437Z" fill="#FFCB6D"/>
<path d="M6.47412 42.6017C6.56235 42.8565 6.73881 43.0263 6.91526 43.2811C7.09172 43.4509 7.26818 43.7057 7.44463 43.8755C8.15045 44.5549 9.03273 44.9795 10.0915 44.8096C10.2679 44.385 10.3562 43.8755 10.2679 43.4509C10.2679 43.1962 10.1797 43.0263 10.0915 42.7716C10.0032 42.6017 9.91502 42.347 9.82679 42.1771C9.65034 41.7525 9.38566 41.3279 9.03275 40.9883C8.85629 40.8184 8.67984 40.5637 8.59161 40.3938C8.41515 40.224 8.23869 40.0542 8.06224 39.7994C7.35642 39.0351 6.56235 38.3558 6.03298 37.8463C5.50362 37.3367 5.0625 36.9971 5.0625 36.9971C5.0625 36.9971 5.0625 37.5066 5.0625 38.2709C5.0625 38.6955 5.15071 39.1201 5.23894 39.5446C5.32717 39.7994 5.32718 40.0542 5.41541 40.3089C5.50363 40.5637 5.50362 40.8184 5.68008 41.0732C6.03299 41.5827 6.29767 42.0922 6.47412 42.6017Z" fill="#FFCB6D"/>
<path d="M12.6534 44.2153C13.6239 43.8756 14.3298 43.1962 14.7709 42.5169C14.8591 42.347 14.9474 42.1772 15.0356 41.9224C15.1238 41.7526 15.212 41.4978 15.3003 41.328C15.4767 40.9034 15.565 40.4788 15.6532 40.1391C15.7414 39.7145 15.8296 39.3749 15.8296 38.9503C15.8296 38.7804 15.8296 38.6106 15.9179 38.4407C15.9179 38.2709 15.9179 38.1011 15.9179 38.0161C16.0061 37.4217 16.0061 37.082 16.0061 37.082C16.0061 37.082 15.6532 37.2519 15.0356 37.6765C14.8591 37.7614 14.7709 37.8463 14.5944 38.0161C14.418 38.1011 14.2415 38.2709 14.1533 38.4407C13.8004 38.6955 13.5357 39.0352 13.1828 39.3749C13.0063 39.5447 12.9181 39.7145 12.7417 39.9693C12.6534 40.0542 12.5652 40.1391 12.5652 40.309C12.477 40.3939 12.477 40.4788 12.3887 40.6486C12.2123 41.0732 12.0358 41.4978 11.9476 41.9224C11.9476 42.1772 11.8594 42.347 11.8594 42.6018C11.8594 42.8565 11.9476 43.0264 11.9476 43.1962C12.1241 43.451 12.3005 43.8756 12.6534 44.2153Z" fill="#FFCB6D"/>
<path d="M8.94141 31.9017C8.67673 31.4771 8.41203 31.0525 8.23557 30.6279C7.97089 30.2033 7.70622 29.8636 7.52976 29.5239C7.08862 28.9295 6.82395 28.5049 6.82395 28.5049C6.82395 28.5049 6.64748 29.0144 6.55925 29.7787C6.47102 30.1183 6.47104 30.6279 6.38281 31.0525C6.38281 31.3072 6.38281 31.562 6.38281 31.8167C6.38281 32.0715 6.38281 32.3262 6.38281 32.581C6.47104 33.0905 6.47103 33.6 6.64748 34.1095C6.82394 34.6191 7.00041 35.1286 7.26509 35.4683C7.79446 36.3174 8.58849 36.9119 9.64722 36.9968C9.82368 36.827 9.9119 36.5722 10.0001 36.4024C10.0884 36.2325 10.1766 35.9778 10.1766 35.8079C10.2648 35.3833 10.1766 34.9587 10.0884 34.5341C10.0001 34.1095 9.82368 33.6 9.64722 33.1754C9.47077 32.8358 9.20609 32.3262 8.94141 31.9017Z" fill="#FFCB6D"/>
<path d="M14.6827 35.8081C15.0356 35.4684 15.3003 35.2137 15.4767 34.7891C15.7414 34.4494 15.9179 34.1097 16.0943 33.6851C16.1826 33.5153 16.2708 33.3455 16.359 33.1756C16.4472 33.0058 16.5354 32.8359 16.6237 32.6661C16.8001 32.3264 16.8884 32.0717 16.9766 31.732C17.1531 31.2225 17.2413 30.8828 17.2413 30.8828C17.2413 30.8828 16.8001 30.9677 16.1825 31.2225C15.5649 31.4772 14.7709 31.8169 13.9768 32.4113C13.8004 32.5812 13.6239 32.6661 13.4475 32.8359C13.271 33.0058 13.0946 33.1756 12.9181 33.3455C12.5652 33.6851 12.3005 34.1097 12.1241 34.4494C11.9476 34.874 11.8594 35.2986 11.8594 35.7232C11.8594 35.893 11.8594 36.1478 11.9476 36.3176C12.0358 36.4875 12.1241 36.7422 12.2123 36.9121C13.271 36.8271 14.0651 36.4026 14.6827 35.8081Z" fill="#FFCB6D"/>
<path d="M11.5921 29.1844C11.7686 29.0145 11.8568 28.8447 11.9451 28.5899C12.0333 28.4201 12.1215 28.1653 12.1215 27.9955C12.1215 27.8256 12.2097 27.5709 12.2097 27.3161C12.2097 26.8915 12.2097 26.382 12.1215 25.8725C12.0333 25.363 11.945 24.9384 11.8568 24.4289C11.5921 23.4948 11.3275 22.5606 11.0628 21.8813C10.7981 21.2019 10.6216 20.7773 10.6216 20.7773C10.6216 20.7773 10.5334 20.8623 10.4452 21.0321C10.3569 21.2019 10.1805 21.5416 10.004 21.8813C9.65112 22.5606 9.29821 23.4948 9.12175 24.5138C9.03352 25.0233 8.94531 25.5328 8.94531 26.0423C8.94531 26.2971 8.94532 26.5519 9.03355 26.8066C9.03355 27.0614 9.12176 27.3161 9.20998 27.5709C9.38644 27.9955 9.56291 28.4201 9.91582 28.8447C10.2687 29.1843 10.6216 29.524 11.151 29.6939C11.3275 29.6089 11.5039 29.4391 11.5921 29.1844Z" fill="#FFCB6D"/>
<path d="M19.9719 25.5321C20.0601 25.3623 20.1483 25.2773 20.1483 25.2773C20.1483 25.2773 20.0601 25.2773 19.7954 25.2773C19.619 25.2773 19.3543 25.2773 19.0014 25.3623C18.6485 25.3623 18.2956 25.4472 17.8544 25.5321C17.678 25.617 17.4133 25.617 17.2368 25.7019C17.0604 25.7869 16.7957 25.8718 16.6192 25.9567C16.1781 26.1265 15.7369 26.2964 15.2958 26.5511C14.9429 26.8059 14.59 27.1456 14.2371 27.4003C14.0606 27.5702 13.9724 27.74 13.8842 27.9098C13.796 28.0797 13.7077 28.3344 13.6195 28.5043C13.5313 28.6741 13.5312 28.9289 13.5312 29.0987C13.5312 29.3535 13.6195 29.5233 13.6195 29.7781C14.1488 29.863 14.59 29.863 15.0311 29.7781C15.4723 29.6931 15.9134 29.5233 16.2663 29.2685C16.4428 29.1836 16.6192 29.0138 16.7957 28.9289C16.8839 28.844 16.9721 28.759 17.0604 28.759C17.1486 28.6741 17.2368 28.5892 17.3251 28.5892C17.678 28.3344 17.9427 27.9948 18.2073 27.74C18.472 27.4003 18.7367 27.1456 18.9131 26.8908C19.0014 26.8059 19.0014 26.721 19.0896 26.6361C19.1778 26.5511 19.1778 26.4662 19.2661 26.4662C19.3543 26.2964 19.4425 26.2115 19.5308 26.1265C19.7072 25.8718 19.8837 25.7019 19.9719 25.5321Z" fill="#FFCB6D"/>
<path d="M14.4963 22.985C14.9374 22.7302 15.2903 22.4754 15.555 22.1358C15.8197 21.7961 15.9961 21.3715 16.1726 20.9469C16.4373 20.0977 16.5255 19.0787 16.5255 18.1446C16.5255 17.8898 16.5255 17.635 16.5255 17.3803C16.5255 17.1255 16.5255 16.8708 16.5255 16.7009C16.5255 16.2763 16.4373 15.8517 16.4373 15.4271C16.3491 14.7478 16.2608 14.2383 16.2608 14.2383C16.2608 14.2383 16.1726 14.3232 15.9961 14.493C15.8197 14.6629 15.6432 14.9176 15.3785 15.1724C15.1139 15.5121 14.8492 15.8517 14.6727 16.1914C14.408 16.616 14.1433 17.0406 13.9669 17.4652C13.7904 17.9747 13.614 18.3993 13.4375 18.9088C13.3493 19.4184 13.2611 19.9279 13.2611 20.3525C13.1729 21.4564 13.614 22.3905 14.4963 22.985Z" fill="#FFCB6D"/>
<path d="M21.9118 22.4754C22.2647 22.2206 22.6176 21.9659 22.8823 21.7111C23.147 21.4564 23.4116 21.2865 23.6763 21.0318C23.8528 20.8619 24.0292 20.6921 24.2057 20.5223C24.2939 20.4373 24.3822 20.3524 24.3822 20.3524C24.3822 20.3524 23.941 20.2675 23.2352 20.1826C22.8823 20.1826 22.5294 20.0977 22.0882 20.0977C21.6471 20.0977 21.206 20.0977 20.6766 20.1826C19.7061 20.3524 18.7356 20.6072 18.0298 21.1167C17.6769 21.3715 17.4122 21.7111 17.1475 22.0508C16.971 22.3905 16.8828 22.8151 16.8828 23.3246C17.8533 23.7492 18.8238 23.6643 19.6179 23.4944C20.059 23.4095 20.4119 23.2397 20.8531 22.9849C21.206 22.9 21.5589 22.7302 21.9118 22.4754Z" fill="#FFCB6D"/>
<path d="M29.5049 66.0391C26.1523 64.7653 22.7996 63.2368 19.9763 61.0289C16.9766 58.6511 14.8591 55.4242 13.3593 51.6878C11.5065 47.3569 10.1831 42.8562 10.3595 38.1007C10.536 34.0246 11.6829 30.0334 13.4475 26.2969C14.9474 23.3247 16.8001 20.3526 19.0941 17.7201C18.9176 17.3804 18.9176 16.9558 19.0058 16.6161C19.0941 16.1915 19.2705 15.7669 19.5352 15.4272C20.0646 14.663 20.8586 13.9836 21.7409 13.559C22.6232 13.0495 23.5054 12.7948 24.2113 12.6249C24.5642 12.54 24.8289 12.4551 25.0053 12.4551H25.27H25.3582V12.54C25.3582 12.54 25.3582 12.6249 25.27 12.7098C25.1818 12.8797 25.0936 13.1344 24.9171 13.3892C24.6524 13.9836 24.2113 14.663 23.6819 15.4272C23.4172 15.7669 23.0643 16.1066 22.7996 16.4463L22.3585 16.8709L22.3583 16.871C22.1819 17.0408 22.0055 17.2106 21.8291 17.2955C21.4762 17.4653 21.1233 17.7201 20.6822 17.805C20.4175 17.8899 20.0646 17.8899 19.7116 17.8899C18.7411 19.0788 17.7707 20.2676 16.9766 21.4565C13.7122 26.1271 11.4182 31.5619 11.0653 37.2515C10.8007 42.1768 11.9476 46.7624 13.8886 51.2632C14.8591 53.6409 16.0943 55.9337 17.8589 57.8868C19.6234 59.84 21.7409 61.3685 24.0348 62.6423C28.4462 65.0201 34.8868 67.7375 40.9745 69.6906L39.2982 70.4549C35.7691 68.8414 32.24 67.0581 29.5049 66.0391Z" fill="#FFCB6D"/>
<path d="M167.191 67.1433C167.632 66.8036 168.073 66.5489 168.515 66.379C168.956 66.2092 169.397 66.1243 169.926 66.1243C170.897 66.0394 171.955 66.2941 173.014 66.464C174.073 66.7187 175.043 66.9735 175.749 67.2282C176.455 67.483 176.984 67.6528 176.984 67.6528C176.984 67.6528 176.543 67.9076 175.749 68.2473C175.043 68.5869 173.985 68.9266 172.838 69.0965C171.691 69.2663 170.544 69.2663 169.485 69.0115C168.338 68.7568 167.456 68.1623 167.191 67.1433Z" fill="#FFCB6D"/>
<path d="M170.276 62.8117C169.835 63.6609 169.306 64.5101 168.512 65.0196C168.159 65.2744 167.718 65.5291 167.277 65.6141C166.835 65.699 166.306 65.699 165.865 65.4442C165.865 64.4252 166.13 63.576 166.571 62.8966C167.012 62.2173 167.718 61.5379 168.335 61.0284C169.041 60.5189 169.659 60.0943 170.188 59.7546C170.717 59.415 171.07 59.2451 171.07 59.2451C171.07 59.2451 171.07 59.33 171.07 59.5848C171.07 59.7546 170.982 60.0094 170.982 60.3491C170.894 61.0284 170.717 61.8776 170.276 62.8117Z" fill="#FFCB6D"/>
<path d="M177.694 65.1048C176.635 65.0199 175.753 64.6803 175.135 63.8311C175.665 62.9819 176.459 62.4724 177.341 62.2176C178.223 61.9628 179.37 61.8779 180.429 61.8779C181.488 61.8779 182.547 61.8779 183.341 61.8779C184.135 61.8779 184.664 61.8779 184.664 61.8779C184.664 61.8779 184.576 61.9628 184.399 62.1327C184.223 62.3025 183.958 62.5573 183.605 62.812C182.9 63.3215 182.017 63.916 180.959 64.4255C179.812 64.8501 178.665 65.1048 177.694 65.1048Z" fill="#FFCB6D"/>
<path d="M175.746 61.1991C175.128 61.8785 174.334 62.388 173.363 62.3031C172.922 61.3689 173.011 60.4348 173.275 59.5856C173.54 58.7364 174.069 57.9722 174.51 57.2928C175.04 56.6135 175.481 56.104 175.922 55.6794C176.099 55.5095 176.275 55.3397 176.363 55.1698C176.451 55.0849 176.54 55 176.54 55C176.54 55 176.54 55.0849 176.628 55.2548C176.716 55.4246 176.716 55.6794 176.804 56.019C176.893 56.6984 176.981 57.5476 176.804 58.4817C176.628 59.5007 176.275 60.4348 175.746 61.1991Z" fill="#FFCB6D"/>
<path d="M188.28 54.1502C188.986 53.8955 189.516 53.8105 189.516 53.8105C189.516 53.8105 189.427 53.8955 189.339 54.1502C189.251 54.3201 189.075 54.5748 188.898 54.9145C188.722 55.2542 188.457 55.5938 188.192 56.0184C188.016 56.1883 187.928 56.443 187.751 56.6129L187.663 56.7827L187.486 56.9526C187.398 57.0375 187.31 57.2073 187.222 57.2922C186.339 58.2263 185.281 58.9906 184.31 59.3303C183.251 59.67 182.281 59.5851 181.399 58.9057C181.663 57.8867 182.193 57.2073 182.987 56.6978C183.163 56.528 183.428 56.443 183.604 56.2732C183.781 56.1034 184.046 56.0184 184.31 55.8486C184.575 55.6788 184.751 55.5938 185.016 55.424C185.281 55.3391 185.457 55.1693 185.722 55.0843C186.604 54.6597 187.575 54.3201 188.28 54.1502Z" fill="#FFCB6D"/>
<path d="M181.136 55.8486C180.871 56.6978 180.254 57.3772 179.283 57.6319C178.577 56.8676 178.401 55.9335 178.313 55.1692C178.225 54.3201 178.401 53.5558 178.489 52.8764C178.489 52.6217 178.666 52.1122 178.754 51.7725C178.842 51.4328 179.019 51.0931 179.107 50.7535C179.195 50.4987 179.283 50.2439 179.371 50.0741C179.46 49.9043 179.46 49.8193 179.46 49.8193C179.46 49.8193 179.548 49.9043 179.636 50.0741C179.724 50.2439 179.901 50.4987 180.077 50.7535C180.43 51.3479 180.783 52.1971 181.048 53.0463C181.136 53.301 181.136 53.4709 181.224 53.7256C181.312 53.9804 181.312 54.1502 181.312 54.405C181.312 54.6597 181.312 54.8296 181.312 55.0843C181.312 55.424 181.224 55.6788 181.136 55.8486Z" fill="#FFCB6D"/>
<path d="M189.334 50.6683C189.158 50.8382 188.981 51.008 188.805 51.1779C188.628 51.3477 188.364 51.5175 188.187 51.6025C187.305 52.112 186.423 52.3667 185.364 52.0271C185.276 51.5175 185.276 51.0929 185.452 50.6683C185.541 50.4985 185.629 50.2438 185.717 50.0739C185.805 49.9041 185.982 49.7342 186.07 49.4795C186.599 48.7152 187.482 48.1208 188.276 47.5263C189.07 46.9319 189.952 46.4224 190.658 46.0827C191.364 45.743 191.805 45.4883 191.805 45.4883C191.805 45.4883 191.805 45.5732 191.716 45.828C191.628 46.0827 191.54 46.3375 191.452 46.6771C191.187 47.3565 190.834 48.3755 190.217 49.2247C190.04 49.8192 189.687 50.2437 189.334 50.6683Z" fill="#FFCB6D"/>
<path d="M183.866 50.2437C183.689 50.6683 183.336 51.008 182.984 51.2628C182.101 50.7533 181.572 49.989 181.219 49.1398C181.131 48.97 181.131 48.7152 181.043 48.5453C181.043 48.4604 181.043 48.2906 180.954 48.2057C180.954 48.1208 180.954 47.9509 180.866 47.866C180.778 47.4414 180.778 47.0168 180.778 46.5922C180.866 45.743 180.866 44.9787 181.043 44.3843C181.131 44.1296 181.131 43.8748 181.219 43.705C181.219 43.5351 181.307 43.4502 181.307 43.4502C181.307 43.4502 181.395 43.5351 181.572 43.705C181.748 43.8748 181.925 44.0446 182.101 44.2994C182.542 44.8089 183.072 45.5732 183.513 46.4224C183.954 47.2716 184.219 48.2057 184.219 49.1398C184.219 49.3945 184.219 49.5644 184.131 49.8191C184.042 49.9041 183.954 50.0739 183.866 50.2437Z" fill="#FFCB6D"/>
<path d="M191.19 42.6017C191.102 42.8565 190.925 43.0263 190.749 43.2811C190.572 43.4509 190.396 43.7057 190.219 43.8755C189.514 44.5549 188.631 44.9795 187.573 44.8096C187.396 44.385 187.308 43.8755 187.396 43.4509C187.396 43.1962 187.484 43.0263 187.573 42.7716C187.661 42.6017 187.749 42.347 187.837 42.1771C188.014 41.7525 188.278 41.3279 188.631 40.9883C188.808 40.8184 188.984 40.5637 189.072 40.3938C189.249 40.224 189.425 40.0542 189.602 39.7994C190.308 39.0351 191.102 38.3558 191.631 37.8463C192.16 37.3367 192.602 36.9971 192.602 36.9971C192.602 36.9971 192.602 37.5066 192.602 38.2709C192.602 38.6955 192.513 39.1201 192.425 39.5446C192.337 39.7994 192.337 40.0542 192.249 40.3089C192.16 40.5637 192.16 40.8184 191.984 41.0732C191.631 41.5827 191.366 42.0922 191.19 42.6017Z" fill="#FFCB6D"/>
<path d="M185.011 44.2153C184.04 43.8756 183.334 43.1962 182.893 42.5169C182.805 42.347 182.717 42.1772 182.628 41.9224C182.54 41.7526 182.452 41.4978 182.364 41.328C182.187 40.9034 182.099 40.4788 182.011 40.1391C181.923 39.7145 181.834 39.3749 181.834 38.9503C181.834 38.7804 181.834 38.6106 181.746 38.4407C181.746 38.2709 181.746 38.1011 181.746 38.0161C181.658 37.4217 181.658 37.082 181.658 37.082C181.658 37.082 182.011 37.2519 182.628 37.6765C182.805 37.7614 182.893 37.8463 183.07 38.0161C183.246 38.1011 183.423 38.2709 183.511 38.4407C183.864 38.6955 184.128 39.0352 184.481 39.3749C184.658 39.5447 184.746 39.7145 184.922 39.9693C185.011 40.0542 185.099 40.1391 185.099 40.309C185.187 40.3939 185.187 40.4788 185.275 40.6486C185.452 41.0732 185.628 41.4978 185.716 41.9224C185.716 42.1772 185.805 42.347 185.805 42.6018C185.805 42.8565 185.716 43.0264 185.716 43.1962C185.54 43.451 185.364 43.8756 185.011 44.2153Z" fill="#FFCB6D"/>
<path d="M188.723 31.9017C188.987 31.4771 189.252 31.0525 189.428 30.6279C189.693 30.2033 189.958 29.8636 190.134 29.5239C190.575 28.9295 190.84 28.5049 190.84 28.5049C190.84 28.5049 191.017 29.0144 191.105 29.7787C191.193 30.1183 191.193 30.6279 191.281 31.0525C191.281 31.3072 191.281 31.562 191.281 31.8167C191.281 32.0715 191.281 32.3262 191.281 32.581C191.193 33.0905 191.193 33.6 191.017 34.1095C190.84 34.6191 190.664 35.1286 190.399 35.4683C189.87 36.3174 189.076 36.9119 188.017 36.9968C187.84 36.827 187.752 36.5722 187.664 36.4024C187.576 36.2325 187.487 35.9778 187.487 35.8079C187.399 35.3833 187.487 34.9587 187.576 34.5341C187.664 34.1095 187.84 33.6 188.017 33.1754C188.193 32.8358 188.458 32.3262 188.723 31.9017Z" fill="#FFCB6D"/>
<path d="M182.981 35.8081C182.628 35.4684 182.364 35.2137 182.187 34.7891C181.923 34.4494 181.746 34.1097 181.57 33.6851C181.482 33.5153 181.393 33.3455 181.305 33.1756C181.217 33.0058 181.129 32.8359 181.04 32.6661C180.864 32.3264 180.776 32.0717 180.687 31.732C180.511 31.2225 180.423 30.8828 180.423 30.8828C180.423 30.8828 180.864 30.9677 181.482 31.2225C182.099 31.4772 182.893 31.8169 183.687 32.4113C183.864 32.5812 184.04 32.6661 184.217 32.8359C184.393 33.0058 184.569 33.1756 184.746 33.3455C185.099 33.6851 185.364 34.1097 185.54 34.4494C185.716 34.874 185.805 35.2986 185.805 35.7232C185.805 35.893 185.805 36.1478 185.716 36.3176C185.628 36.4875 185.54 36.7422 185.452 36.9121C184.393 36.8271 183.599 36.4026 182.981 35.8081Z" fill="#FFCB6D"/>
<path d="M186.072 29.1844C185.895 29.0145 185.807 28.8447 185.719 28.5899C185.631 28.4201 185.543 28.1653 185.543 27.9955C185.543 27.8256 185.454 27.5709 185.454 27.3161C185.454 26.8915 185.454 26.382 185.543 25.8725C185.631 25.363 185.719 24.9384 185.807 24.4289C186.072 23.4948 186.337 22.5606 186.601 21.8813C186.866 21.2019 187.042 20.7773 187.042 20.7773C187.042 20.7773 187.131 20.8623 187.219 21.0321C187.307 21.2019 187.484 21.5416 187.66 21.8813C188.013 22.5606 188.366 23.4948 188.542 24.5138C188.631 25.0233 188.719 25.5328 188.719 26.0423C188.719 26.2971 188.719 26.5519 188.631 26.8066C188.631 27.0614 188.542 27.3161 188.454 27.5709C188.278 27.9955 188.101 28.4201 187.748 28.8447C187.395 29.1843 187.042 29.524 186.513 29.6939C186.337 29.6089 186.16 29.4391 186.072 29.1844Z" fill="#FFCB6D"/>
<path d="M177.692 25.5321C177.604 25.3623 177.516 25.2773 177.516 25.2773C177.516 25.2773 177.604 25.2773 177.869 25.2773C178.045 25.2773 178.31 25.2773 178.663 25.3623C179.016 25.3623 179.368 25.4472 179.81 25.5321C179.986 25.617 180.251 25.617 180.427 25.7019C180.604 25.7869 180.868 25.8718 181.045 25.9567C181.486 26.1265 181.927 26.2964 182.368 26.5511C182.721 26.8059 183.074 27.1456 183.427 27.4003C183.603 27.5702 183.692 27.74 183.78 27.9098C183.868 28.0797 183.956 28.3344 184.045 28.5043C184.133 28.6741 184.133 28.9289 184.133 29.0987C184.133 29.3535 184.045 29.5233 184.045 29.7781C183.515 29.863 183.074 29.863 182.633 29.7781C182.192 29.6931 181.751 29.5233 181.398 29.2685C181.221 29.1836 181.045 29.0138 180.868 28.9289C180.78 28.844 180.692 28.759 180.604 28.759C180.515 28.6741 180.427 28.5892 180.339 28.5892C179.986 28.3344 179.721 27.9948 179.457 27.74C179.192 27.4003 178.927 27.1456 178.751 26.8908C178.663 26.8059 178.663 26.721 178.574 26.6361C178.486 26.5511 178.486 26.4662 178.398 26.4662C178.31 26.2964 178.222 26.2115 178.133 26.1265C177.957 25.8718 177.78 25.7019 177.692 25.5321Z" fill="#FFCB6D"/>
<path d="M183.16 22.985C182.719 22.7302 182.366 22.4754 182.101 22.1358C181.837 21.7961 181.66 21.3715 181.484 20.9469C181.219 20.0977 181.131 19.0787 181.131 18.1446C181.131 17.8898 181.131 17.635 181.131 17.3803C181.131 17.1255 181.131 16.8708 181.131 16.7009C181.131 16.2763 181.219 15.8517 181.219 15.4271C181.307 14.7478 181.395 14.2383 181.395 14.2383C181.395 14.2383 181.484 14.3232 181.66 14.493C181.837 14.6629 182.013 14.9176 182.278 15.1724C182.542 15.5121 182.807 15.8517 182.984 16.1914C183.248 16.616 183.513 17.0406 183.689 17.4652C183.866 17.9747 184.042 18.3993 184.219 18.9088C184.307 19.4184 184.395 19.9279 184.395 20.3525C184.483 21.4564 184.042 22.3905 183.16 22.985Z" fill="#FFCB6D"/>
<path d="M175.752 22.4754C175.399 22.2206 175.046 21.9659 174.782 21.7111C174.517 21.4564 174.252 21.2865 173.988 21.0318C173.811 20.8619 173.635 20.6921 173.458 20.5223C173.37 20.4373 173.282 20.3524 173.282 20.3524C173.282 20.3524 173.723 20.2675 174.429 20.1826C174.782 20.1826 175.135 20.0977 175.576 20.0977C176.017 20.0977 176.458 20.0977 176.987 20.1826C177.958 20.3524 178.928 20.6072 179.634 21.1167C179.987 21.3715 180.252 21.7111 180.517 22.0508C180.693 22.3905 180.781 22.8151 180.781 23.3246C179.811 23.7492 178.84 23.6643 178.046 23.4944C177.605 23.4095 177.252 23.2397 176.811 22.9849C176.458 22.9 176.105 22.7302 175.752 22.4754Z" fill="#FFCB6D"/>
<path d="M168.159 66.0391C171.512 64.7653 174.864 63.2368 177.688 61.0289C180.687 58.6511 182.805 55.4242 184.305 51.6878C186.158 47.3569 187.481 42.8562 187.305 38.1007C187.128 34.0246 185.981 30.0334 184.217 26.2969C182.717 23.3247 180.864 20.3526 178.57 17.7201C178.746 17.3804 178.746 16.9558 178.658 16.6161C178.57 16.1915 178.394 15.7669 178.129 15.4272C177.599 14.663 176.805 13.9836 175.923 13.559C175.041 13.0495 174.159 12.7948 173.453 12.6249C173.1 12.54 172.835 12.4551 172.659 12.4551H172.394H172.306V12.54C172.306 12.54 172.306 12.6249 172.394 12.7098C172.482 12.8797 172.571 13.1344 172.747 13.3892C173.012 13.9836 173.453 14.663 173.982 15.4272C174.247 15.7669 174.6 16.1066 174.864 16.4463L175.306 16.8709L175.306 16.871C175.482 17.0408 175.659 17.2106 175.835 17.2955C176.188 17.4653 176.541 17.7201 176.982 17.805C177.247 17.8899 177.6 17.8899 177.952 17.8899C178.923 19.0788 179.893 20.2676 180.687 21.4565C183.952 26.1271 186.246 31.5619 186.599 37.2515C186.863 42.1768 185.716 46.7624 183.775 51.2632C182.805 53.6409 181.57 55.9337 179.805 57.8868C178.041 59.84 175.923 61.3685 173.629 62.6423C169.218 65.0201 162.777 67.7375 156.69 69.6906L158.366 70.4549C161.895 68.8414 165.424 67.0581 168.159 66.0391Z" fill="#FFCB6D"/>
<g clip-path="url(#clip0_1715_15078)">
<path d="M79.8261 3.58008C80.2167 3.58008 80.5775 3.61044 80.9086 3.70151C81.2397 3.76223 81.5112 3.88745 81.753 4.03924C81.9949 4.19103 82.1734 4.40733 82.2962 4.68435C82.4152 4.96137 82.4785 5.2991 82.4785 5.66719C82.4785 6.096 82.3892 6.46409 82.1771 6.7411C81.9949 7.01812 81.6972 7.26478 81.3327 7.44693C81.846 7.59872 82.2367 7.87573 82.4747 8.24382C82.7128 8.61192 82.8653 9.07108 82.8653 9.59476C82.8653 10.0236 82.7761 10.3917 82.6235 10.699C82.4747 11.0064 82.2329 11.2834 81.9614 11.4656C81.6898 11.6515 81.3587 11.8033 80.9979 11.8944C80.637 11.9854 80.2762 12.0462 79.9153 12.0462L75.8828 12.0538V3.58008H79.8261ZM79.5843 7.01812C79.9153 7.01812 80.1869 6.92705 80.3952 6.77146C80.6036 6.61588 80.6966 6.34266 80.6966 6.00492C80.6966 5.81898 80.6668 5.63683 80.6073 5.5154C80.5478 5.39397 80.4585 5.2991 80.3357 5.20803C80.2167 5.14731 80.0939 5.08659 79.9451 5.05624C79.7963 5.02588 79.6438 5.02588 79.4652 5.02588H77.7205V7.02192C77.7205 7.01812 79.5843 7.01812 79.5843 7.01812ZM79.6735 10.6421C79.8558 10.6421 80.0344 10.6117 80.1869 10.5814C80.3357 10.551 80.4882 10.4903 80.6073 10.3954C80.7263 10.3006 80.8193 10.2095 80.9086 10.0577C80.9681 9.90592 81.0276 9.71998 81.0276 9.50368C81.0276 9.07488 80.9086 8.7675 80.6668 8.5512C80.425 8.36526 80.0939 8.27418 79.7033 8.27418H77.7205V10.6383H79.6735V10.6421Z" fill="white"/>
<path d="M85.4887 10.6113C85.7305 10.858 86.0914 10.9794 86.5713 10.9794C86.9024 10.9794 87.2037 10.8884 87.4455 10.7328C87.6873 10.5468 87.8361 10.3647 87.8956 10.1787H89.3687C89.1269 10.9149 88.7661 11.4386 88.2862 11.7763C87.8063 12.0837 87.2334 12.2659 86.5415 12.2659C86.0616 12.2659 85.6375 12.1748 85.2469 12.0192C84.8563 11.8674 84.555 11.6511 84.2834 11.3437C84.0119 11.0667 83.8036 10.729 83.6808 10.3305C83.532 9.93208 83.4688 9.50327 83.4688 9.00996C83.4688 8.55079 83.5283 8.11819 83.6808 7.71974C83.8333 7.32129 84.0416 6.98356 84.3132 6.67619C84.5848 6.39917 84.9158 6.15251 85.2767 6.00072C85.6673 5.84893 86.0579 5.75406 86.5415 5.75406C87.0549 5.75406 87.505 5.84514 87.8956 6.06144C88.2862 6.27774 88.5875 6.5206 88.8293 6.88869C89.0711 7.22642 89.2497 7.62487 89.3725 8.05368C89.432 8.48249 89.4617 8.91509 89.432 9.40461H85.0684C85.0684 9.90552 85.2469 10.3647 85.4887 10.6113ZM87.386 7.3858C87.1739 7.1695 86.8428 7.04807 86.4522 7.04807C86.1807 7.04807 85.9723 7.10879 85.7901 7.19986C85.6078 7.29094 85.4887 7.41616 85.3697 7.53759C85.2507 7.65903 85.1874 7.81461 85.1577 7.9664C85.1279 8.11819 85.0981 8.24342 85.0981 8.36485H87.8063C87.7468 7.90948 87.5943 7.6021 87.386 7.3858ZM84.7373 4.16406H88.1076V4.99132H84.7373V4.16406Z" fill="white"/>
<path d="M91.7726 3.58008V6.77146H91.8024C92.0144 6.40337 92.2823 6.15671 92.6133 6.00492C92.9444 5.85313 93.2457 5.75826 93.5768 5.75826C94.027 5.75826 94.3878 5.81898 94.6594 5.94421C94.9309 6.06564 95.1727 6.25158 95.3215 6.46788C95.4703 6.68418 95.5931 6.9574 95.6526 7.26478C95.7121 7.57215 95.7419 7.90989 95.7419 8.30833V12.0841H94.0865V8.61571C94.0865 8.09203 93.9972 7.72394 93.8447 7.48108C93.6922 7.23822 93.428 7.10919 93.0374 7.10919C92.5873 7.10919 92.2562 7.26098 92.0739 7.50764C91.8619 7.78466 91.7726 8.24382 91.7726 8.85857V12.0841H90.1172V3.58008H91.7726Z" fill="white"/>
<path d="M96.9546 6.83563C97.1369 6.55862 97.3452 6.37647 97.6168 6.19053C97.8883 6.03874 98.1896 5.91351 98.5207 5.85279C98.8518 5.79208 99.1829 5.76172 99.514 5.76172C99.8153 5.76172 100.117 5.79208 100.448 5.82243C100.749 5.85279 101.05 5.94387 101.292 6.06909C101.564 6.19053 101.742 6.37647 101.925 6.59277C102.073 6.80907 102.166 7.11644 102.166 7.48453V10.7101C102.166 10.9871 102.196 11.2641 102.226 11.507C102.256 11.7536 102.345 11.9661 102.438 12.0914H100.753C100.693 12.0306 100.663 11.9054 100.634 11.8143C100.604 11.7233 100.604 11.598 100.604 11.507C100.332 11.784 100.031 11.9661 99.6702 12.0914C99.3094 12.2128 98.9485 12.2431 98.5877 12.2431C98.2864 12.2431 98.0446 12.2128 97.7767 12.1217C97.5349 12.061 97.3266 11.9358 97.1146 11.784C96.9323 11.6322 96.7835 11.4463 96.6644 11.1996C96.5751 10.9529 96.5156 10.7101 96.5156 10.3723C96.5156 10.0346 96.5751 9.72723 96.6979 9.51093C96.8169 9.29463 96.9695 9.11248 97.148 8.9569C97.3303 8.83547 97.5684 8.71024 97.8102 8.64952C98.052 8.58881 98.2901 8.52809 98.5617 8.49773C98.8035 8.46737 99.0415 8.43702 99.2833 8.40666C99.5251 8.3763 99.7335 8.34594 99.9157 8.31558C100.098 8.25487 100.247 8.19415 100.366 8.09928C100.485 8.00821 100.515 7.88298 100.515 7.70084C100.515 7.51489 100.485 7.3631 100.425 7.27203C100.366 7.18095 100.277 7.08609 100.184 7.02537C100.094 6.96465 99.9715 6.9343 99.8525 6.90394C99.7335 6.87358 99.5809 6.87358 99.4321 6.87358C99.1011 6.87358 98.8593 6.9343 98.6807 7.08988C98.4984 7.24167 98.3794 7.48833 98.3496 7.7957H96.6942C96.683 7.41623 96.8021 7.0785 96.9546 6.83563ZM100.236 9.23012C100.146 9.26048 100.024 9.29084 99.9046 9.32119C99.7855 9.35155 99.6628 9.35155 99.514 9.38191C99.3949 9.41227 99.2424 9.41227 99.1234 9.44262C99.0043 9.47298 98.8816 9.50334 98.7625 9.5337C98.6435 9.56406 98.5207 9.62477 98.4612 9.68549C98.3719 9.7462 98.3124 9.83728 98.2492 9.93215C98.1599 10.0536 98.1599 10.1788 98.1599 10.3306C98.1599 10.4824 98.1896 10.6076 98.2492 10.6987C98.3087 10.7898 98.3682 10.8846 98.4612 10.9453C98.5505 11.0061 98.6733 11.0364 98.7923 11.0668C98.9113 11.0971 99.0341 11.0971 99.1829 11.0971C99.514 11.0971 99.7558 11.0364 99.9343 10.9453C100.117 10.8239 100.236 10.6987 100.325 10.5469C100.414 10.3951 100.474 10.2395 100.474 10.0877C100.504 9.93594 100.504 9.81072 100.504 9.71964V9.07453C100.414 9.13525 100.325 9.19976 100.236 9.23012Z" fill="white"/>
<path d="M104.657 5.91351V6.77492H104.686C104.898 6.40683 105.166 6.16017 105.497 6.00838C105.828 5.85659 106.189 5.76172 106.52 5.76172C106.97 5.76172 107.331 5.82243 107.603 5.94766C107.904 6.06909 108.116 6.25504 108.265 6.47134C108.414 6.68764 108.537 6.96086 108.626 7.26823C108.685 7.57561 108.715 7.91334 108.715 8.31179V12.0876H107.06V8.61916C107.06 8.09549 106.97 7.7274 106.818 7.48453C106.669 7.23788 106.398 7.08609 105.973 7.08609C105.523 7.08609 105.192 7.27203 104.98 7.54525C104.768 7.82227 104.679 8.28143 104.679 8.89618V12.1217H103.023V5.91351C103.031 5.91351 104.657 5.91351 104.657 5.91351Z" fill="white"/>
<path d="M112.424 7.01767C112.153 7.01767 111.944 7.07838 111.762 7.20361C111.58 7.32504 111.431 7.48063 111.312 7.69313C111.193 7.87908 111.13 8.09158 111.07 8.33824C111.011 8.5849 111.011 8.79741 111.011 9.04406C111.011 9.26037 111.04 9.50323 111.07 9.71953C111.13 9.96619 111.189 10.1483 111.312 10.3343C111.431 10.5202 111.554 10.672 111.732 10.7934C111.915 10.9149 112.123 10.9794 112.395 10.9794C112.785 10.9794 113.086 10.858 113.328 10.6417C113.54 10.4254 113.689 10.118 113.719 9.71953H115.315C115.196 10.5468 114.894 11.1615 114.381 11.5941C113.868 12.0229 113.206 12.2392 112.395 12.2392C111.944 12.2392 111.52 12.1482 111.16 11.9926C110.769 11.8408 110.468 11.6245 110.196 11.3475C109.924 11.0705 109.716 10.7327 109.564 10.3646C109.415 9.96619 109.352 9.56774 109.352 9.10478C109.352 8.61526 109.411 8.18266 109.564 7.78421C109.712 7.38576 109.895 7.01767 110.166 6.71029C110.438 6.40292 110.769 6.18662 111.13 6.00447C111.52 5.85268 111.941 5.75781 112.424 5.75781C112.785 5.75781 113.116 5.81853 113.447 5.9096C113.778 6.00068 114.08 6.15626 114.322 6.33841C114.593 6.52435 114.801 6.76722 114.954 7.07459C115.103 7.35161 115.196 7.7197 115.226 8.11815H113.6C113.537 7.38576 113.146 7.01767 112.424 7.01767Z" fill="white"/>
<path d="M117.815 10.6112C118.057 10.8578 118.448 10.9793 118.898 10.9793C119.229 10.9793 119.53 10.8882 119.772 10.7326C120.014 10.5467 120.163 10.3645 120.222 10.1786H121.666C121.424 10.9148 121.063 11.4384 120.583 11.7762C120.103 12.0835 119.53 12.2657 118.838 12.2657C118.358 12.2657 117.934 12.1746 117.544 12.019C117.153 11.8672 116.852 11.6509 116.58 11.3436C116.309 11.0666 116.1 10.7288 115.978 10.3304C115.829 9.93192 115.766 9.50312 115.766 9.0098C115.766 8.55064 115.825 8.11803 115.978 7.71959C116.126 7.32114 116.339 6.9834 116.61 6.67603C116.882 6.39901 117.213 6.15235 117.574 6.00056C117.964 5.84877 118.385 5.75391 118.838 5.75391C119.352 5.75391 119.802 5.84498 120.163 6.06128C120.553 6.27758 120.855 6.52045 121.096 6.88854C121.338 7.22627 121.517 7.62472 121.64 8.05352C121.759 8.48233 121.788 8.94529 121.759 9.43481H117.395C117.395 9.90536 117.574 10.3645 117.815 10.6112ZM119.742 7.38565C119.53 7.16935 119.199 7.04792 118.809 7.04792C118.537 7.04792 118.329 7.10863 118.146 7.19971C117.964 7.29078 117.815 7.41601 117.726 7.53744C117.637 7.65887 117.544 7.81445 117.514 7.96624C117.484 8.11803 117.455 8.24326 117.455 8.36469H120.163C120.073 7.90932 119.921 7.60195 119.742 7.38565Z" fill="white"/>
</g>
<defs>
<clipPath id="clip0_1715_15078">
<rect width="45.8831" height="8.68997" fill="white" transform="translate(75.8828 3.58008)"/>
</clipPath>
</defs>
</svg>
