<svg width="198" height="76" viewBox="0 0 198 76" fill="none" xmlns="http://www.w3.org/2000/svg">
<path d="M61.6914 37.6455V26.1171H63.4308V31.127H69.1781V26.1171H70.9232V37.6455H69.1781V32.6187H63.4308V37.6455H61.6914ZM76.3291 37.82C75.5185 37.82 74.8111 37.6342 74.207 37.2627C73.6028 36.8912 73.1337 36.3715 72.7997 35.7035C72.4657 35.0355 72.2987 34.2549 72.2987 33.3618C72.2987 32.4648 72.4657 31.6805 72.7997 31.0088C73.1337 30.337 73.6028 29.8154 74.207 29.4439C74.8111 29.0724 75.5185 28.8866 76.3291 28.8866C77.1397 28.8866 77.8471 29.0724 78.4513 29.4439C79.0555 29.8154 79.5246 30.337 79.8586 31.0088C80.1926 31.6805 80.3596 32.4648 80.3596 33.3618C80.3596 34.2549 80.1926 35.0355 79.8586 35.7035C79.5246 36.3715 79.0555 36.8912 78.4513 37.2627C77.8471 37.6342 77.1397 37.82 76.3291 37.82ZM76.3348 36.4071C76.8601 36.4071 77.2955 36.2683 77.6407 35.9905C77.986 35.7128 78.2412 35.3432 78.4063 34.8816C78.5751 34.42 78.6596 33.9115 78.6596 33.3561C78.6596 32.8045 78.5751 32.2979 78.4063 31.8363C78.2412 31.3709 77.986 30.9975 77.6407 30.7161C77.2955 30.4346 76.8601 30.2939 76.3348 30.2939C75.8056 30.2939 75.3666 30.4346 75.0175 30.7161C74.6723 30.9975 74.4152 31.3709 74.2464 31.8363C74.0812 32.2979 73.9987 32.8045 73.9987 33.3561C73.9987 33.9115 74.0812 34.42 74.2464 34.8816C74.4152 35.3432 74.6723 35.7128 75.0175 35.9905C75.3666 36.2683 75.8056 36.4071 76.3348 36.4071ZM83.2873 32.5118V37.6455H81.6042V28.9992H83.2198V30.4065H83.3267C83.5256 29.9486 83.8371 29.5809 84.2612 29.3032C84.689 29.0255 85.2275 28.8866 85.8767 28.8866C86.4659 28.8866 86.9819 29.0104 87.4247 29.2581C87.8676 29.5021 88.2109 29.8661 88.4549 30.3502C88.6988 30.8343 88.8208 31.4328 88.8208 32.1459V37.6455H87.1376V32.3485C87.1376 31.7218 86.9744 31.2321 86.6479 30.8793C86.3214 30.5228 85.873 30.3445 85.3026 30.3445C84.9123 30.3445 84.5651 30.429 84.2612 30.5979C83.961 30.7667 83.7227 31.0144 83.5463 31.3409C83.3736 31.6636 83.2873 32.0539 83.2873 32.5118ZM94.086 37.82C93.2754 37.82 92.568 37.6342 91.9638 37.2627C91.3596 36.8912 90.8905 36.3715 90.5565 35.7035C90.2226 35.0355 90.0556 34.2549 90.0556 33.3618C90.0556 32.4648 90.2226 31.6805 90.5565 31.0088C90.8905 30.337 91.3596 29.8154 91.9638 29.4439C92.568 29.0724 93.2754 28.8866 94.086 28.8866C94.8966 28.8866 95.604 29.0724 96.2082 29.4439C96.8124 29.8154 97.2815 30.337 97.6155 31.0088C97.9494 31.6805 98.1164 32.4648 98.1164 33.3618C98.1164 34.2549 97.9494 35.0355 97.6155 35.7035C97.2815 36.3715 96.8124 36.8912 96.2082 37.2627C95.604 37.6342 94.8966 37.82 94.086 37.82ZM94.0916 36.4071C94.617 36.4071 95.0523 36.2683 95.3976 35.9905C95.7428 35.7128 95.998 35.3432 96.1631 34.8816C96.332 34.42 96.4165 33.9115 96.4165 33.3561C96.4165 32.8045 96.332 32.2979 96.1631 31.8363C95.998 31.3709 95.7428 30.9975 95.3976 30.7161C95.0523 30.4346 94.617 30.2939 94.0916 30.2939C93.5625 30.2939 93.1234 30.4346 92.7744 30.7161C92.4292 30.9975 92.1721 31.3709 92.0032 31.8363C91.8381 32.2979 91.7555 32.8045 91.7555 33.3561C91.7555 33.9115 91.8381 34.42 92.0032 34.8816C92.1721 35.3432 92.4292 35.7128 92.7744 35.9905C93.1234 36.2683 93.5625 36.4071 94.0916 36.4071ZM99.3611 37.6455V28.9992H100.988V30.3727H101.078C101.236 29.9074 101.513 29.5415 101.911 29.275C102.313 29.0048 102.767 28.8697 103.273 28.8697C103.378 28.8697 103.502 28.8735 103.645 28.881C103.791 28.8885 103.906 28.8979 103.988 28.9091V30.5191C103.921 30.5003 103.801 30.4796 103.628 30.4571C103.455 30.4309 103.283 30.4177 103.11 30.4177C102.712 30.4177 102.358 30.5022 102.046 30.671C101.738 30.8362 101.495 31.067 101.314 31.3634C101.134 31.6561 101.044 31.9901 101.044 32.3654V37.6455H99.3611ZM107.25 37.8369C106.702 37.8369 106.206 37.7356 105.763 37.5329C105.321 37.3265 104.97 37.0282 104.711 36.6379C104.456 36.2476 104.328 35.7691 104.328 35.2025C104.328 34.7146 104.422 34.3131 104.609 33.9978C104.797 33.6826 105.05 33.4331 105.369 33.2492C105.688 33.0653 106.045 32.9264 106.439 32.8326C106.833 32.7388 107.234 32.6675 107.644 32.6187C108.161 32.5587 108.582 32.5099 108.904 32.4724C109.227 32.4311 109.462 32.3654 109.608 32.2753C109.754 32.1853 109.828 32.0389 109.828 31.8363V31.7969C109.828 31.3052 109.689 30.9243 109.411 30.6541C109.137 30.384 108.728 30.2489 108.184 30.2489C107.617 30.2489 107.171 30.3746 106.844 30.626C106.521 30.8737 106.298 31.1495 106.174 31.4535L104.593 31.0932C104.78 30.5678 105.054 30.1438 105.414 29.821C105.778 29.4946 106.197 29.2581 106.67 29.1118C107.143 28.9617 107.64 28.8866 108.161 28.8866C108.507 28.8866 108.873 28.9279 109.259 29.0104C109.649 29.0893 110.013 29.2356 110.351 29.4495C110.693 29.6634 110.972 29.9693 111.19 30.3671C111.408 30.7611 111.516 31.2734 111.516 31.9038V37.6455H109.873V36.4634H109.805C109.696 36.6811 109.533 36.895 109.315 37.1051C109.098 37.3153 108.818 37.4898 108.477 37.6286C108.135 37.7675 107.726 37.8369 107.25 37.8369ZM107.615 36.4859C108.081 36.4859 108.479 36.394 108.809 36.2101C109.143 36.0262 109.396 35.786 109.569 35.4896C109.745 35.1893 109.833 34.8685 109.833 34.527V33.4124C109.773 33.4725 109.657 33.5287 109.484 33.5813C109.315 33.6301 109.122 33.6732 108.904 33.7108C108.687 33.7445 108.475 33.7764 108.268 33.8065C108.062 33.8327 107.889 33.8552 107.751 33.874C107.424 33.9153 107.126 33.9847 106.855 34.0823C106.589 34.1799 106.375 34.3206 106.214 34.5045C106.056 34.6846 105.977 34.9248 105.977 35.225C105.977 35.6415 106.131 35.9568 106.439 36.1707C106.747 36.3808 107.139 36.4859 107.615 36.4859ZM113.259 37.6455V26.1171H114.942V30.4008H115.044C115.141 30.2207 115.282 30.0124 115.466 29.776C115.65 29.5396 115.905 29.3332 116.231 29.1568C116.558 28.9767 116.989 28.8866 117.526 28.8866C118.224 28.8866 118.847 29.063 119.395 29.4157C119.943 29.7685 120.373 30.277 120.684 30.9412C120.999 31.6055 121.157 32.4048 121.157 33.3392C121.157 34.2737 121.001 35.0749 120.69 35.7429C120.378 36.4071 119.95 36.9194 119.406 37.2796C118.862 37.6361 118.241 37.8144 117.543 37.8144C117.018 37.8144 116.588 37.7262 116.254 37.5498C115.924 37.3734 115.665 37.167 115.477 36.9306C115.289 36.6942 115.145 36.484 115.044 36.3001H114.903V37.6455H113.259ZM114.909 33.3223C114.909 33.9303 114.997 34.4632 115.173 34.921C115.349 35.3789 115.605 35.7372 115.939 35.9962C116.273 36.2514 116.682 36.379 117.166 36.379C117.669 36.379 118.089 36.2457 118.427 35.9793C118.764 35.7091 119.02 35.3432 119.192 34.8816C119.369 34.42 119.457 33.9003 119.457 33.3223C119.457 32.7519 119.371 32.2397 119.198 31.7856C119.029 31.3315 118.774 30.9731 118.432 30.7104C118.095 30.4477 117.672 30.3164 117.166 30.3164C116.678 30.3164 116.265 30.4421 115.927 30.6936C115.593 30.945 115.34 31.2959 115.167 31.7462C114.995 32.1965 114.909 32.7219 114.909 33.3223ZM124.096 26.1171V37.6455H122.413V26.1171H124.096ZM129.453 37.82C128.601 37.82 127.867 37.638 127.252 37.274C126.64 36.9062 126.167 36.3902 125.833 35.726C125.503 35.058 125.338 34.2755 125.338 33.3786C125.338 32.493 125.503 31.7124 125.833 31.0369C126.167 30.3614 126.632 29.8342 127.229 29.4551C127.83 29.0761 128.531 28.8866 129.334 28.8866C129.822 28.8866 130.295 28.9673 130.753 29.1287C131.211 29.29 131.622 29.5433 131.986 29.8886C132.35 30.2338 132.637 30.6823 132.847 31.2339C133.057 31.7818 133.162 32.448 133.162 33.2323V33.829H126.289V32.568H131.513C131.513 32.1252 131.423 31.7331 131.243 31.3916C131.063 31.0463 130.809 30.7742 130.483 30.5753C130.16 30.3764 129.781 30.277 129.346 30.277C128.873 30.277 128.46 30.3933 128.107 30.626C127.758 30.8549 127.488 31.1551 127.297 31.5267C127.109 31.8944 127.015 32.2941 127.015 32.7257V33.7108C127.015 34.2887 127.117 34.7803 127.319 35.1856C127.526 35.5909 127.813 35.9005 128.18 36.1144C128.548 36.3245 128.978 36.4296 129.469 36.4296C129.788 36.4296 130.079 36.3846 130.342 36.2945C130.605 36.2007 130.832 36.0619 131.023 35.878C131.215 35.6941 131.361 35.467 131.462 35.1968L133.055 35.4839C132.928 35.953 132.699 36.3639 132.368 36.7167C132.042 37.0657 131.631 37.3378 131.136 37.5329C130.644 37.7243 130.083 37.82 129.453 37.82ZM71.1739 44.1171H73.2848L76.955 53.0786H77.0901L80.7603 44.1171H82.8712V55.6455H81.2162V47.3032H81.1093L77.7093 55.6286H76.3358L72.9358 47.2975H72.8288V55.6455H71.1739V44.1171ZM88.3574 55.82C87.5055 55.82 86.7718 55.638 86.1564 55.274C85.5447 54.9062 85.0718 54.3902 84.7378 53.726C84.4076 53.058 84.2425 52.2755 84.2425 51.3786C84.2425 50.493 84.4076 49.7124 84.7378 49.0369C85.0718 48.3614 85.5372 47.8342 86.1339 47.4551C86.7343 47.0761 87.4361 46.8866 88.2391 46.8866C88.727 46.8866 89.1999 46.9673 89.6577 47.1287C90.1155 47.29 90.5264 47.5433 90.8905 47.8886C91.2545 48.2338 91.5416 48.6823 91.7517 49.2339C91.9619 49.7818 92.0669 50.448 92.0669 51.2323V51.829H85.1938V50.568H90.4176C90.4176 50.1252 90.3275 49.7331 90.1474 49.3916C89.9673 49.0463 89.714 48.7742 89.3875 48.5753C89.0648 48.3764 88.6857 48.277 88.2504 48.277C87.7776 48.277 87.3648 48.3933 87.012 48.626C86.663 48.8549 86.3928 49.1551 86.2014 49.5267C86.0138 49.8944 85.92 50.2941 85.92 50.7257V51.7108C85.92 52.2887 86.0213 52.7803 86.2239 53.1856C86.4303 53.5909 86.7174 53.9005 87.0852 54.1144C87.4529 54.3245 87.8826 54.4296 88.3742 54.4296C88.6932 54.4296 88.9841 54.3846 89.2468 54.2945C89.5095 54.2007 89.7365 54.0619 89.9279 53.878C90.1193 53.6941 90.2656 53.467 90.367 53.1968L91.96 53.4839C91.8324 53.953 91.6035 54.3639 91.2732 54.7167C90.9468 55.0657 90.5358 55.3378 90.0405 55.5329C89.5489 55.7243 88.9878 55.82 88.3574 55.82ZM94.9834 50.5118V55.6455H93.3003V46.9992H94.9159V48.4065H95.0229C95.2217 47.9486 95.5332 47.5809 95.9573 47.3032C96.3851 47.0255 96.9236 46.8866 97.5728 46.8866C98.162 46.8866 98.678 47.0104 99.1208 47.2581C99.5637 47.5021 99.907 47.8661 100.151 48.3502C100.395 48.8343 100.517 49.4328 100.517 50.1459V55.6455H98.8338V50.3485C98.8338 49.7218 98.6705 49.2321 98.344 48.8793C98.0175 48.5228 97.5691 48.3445 96.9987 48.3445C96.6084 48.3445 96.2613 48.429 95.9573 48.5979C95.6571 48.7667 95.4188 49.0144 95.2424 49.3409C95.0698 49.6636 94.9834 50.0539 94.9834 50.5118ZM106.176 46.9992V48.3502H101.453V46.9992H106.176ZM102.72 44.9277H104.403V53.1068C104.403 53.4333 104.452 53.6791 104.549 53.8442C104.647 54.0056 104.773 54.1163 104.926 54.1763C105.084 54.2326 105.255 54.2607 105.439 54.2607C105.574 54.2607 105.692 54.2514 105.793 54.2326C105.895 54.2138 105.974 54.1988 106.03 54.1876L106.334 55.578C106.236 55.6155 106.097 55.653 105.917 55.6905C105.737 55.7318 105.512 55.7543 105.242 55.7581C104.799 55.7656 104.386 55.6868 104.003 55.5217C103.621 55.3565 103.311 55.1014 103.075 54.7561C102.838 54.4109 102.72 53.9774 102.72 53.4558V44.9277ZM107.404 55.6455V46.9992H109.087V55.6455H107.404ZM108.254 45.6651C107.961 45.6651 107.71 45.5675 107.5 45.3724C107.293 45.1735 107.19 44.9371 107.19 44.6631C107.19 44.3854 107.293 44.149 107.5 43.9538C107.71 43.7549 107.961 43.6555 108.254 43.6555C108.547 43.6555 108.796 43.7549 109.003 43.9538C109.213 44.149 109.318 44.3854 109.318 44.6631C109.318 44.9371 109.213 45.1735 109.003 45.3724C108.796 45.5675 108.547 45.6651 108.254 45.6651ZM114.359 55.82C113.549 55.82 112.841 55.6342 112.237 55.2627C111.633 54.8912 111.164 54.3715 110.83 53.7035C110.496 53.0355 110.329 52.2549 110.329 51.3618C110.329 50.4648 110.496 49.6805 110.83 49.0088C111.164 48.337 111.633 47.8154 112.237 47.4439C112.841 47.0724 113.549 46.8866 114.359 46.8866C115.17 46.8866 115.877 47.0724 116.481 47.4439C117.086 47.8154 117.555 48.337 117.889 49.0088C118.223 49.6805 118.39 50.4648 118.39 51.3618C118.39 52.2549 118.223 53.0355 117.889 53.7035C117.555 54.3715 117.086 54.8912 116.481 55.2627C115.877 55.6342 115.17 55.82 114.359 55.82ZM114.365 54.4071C114.89 54.4071 115.326 54.2683 115.671 53.9905C116.016 53.7128 116.271 53.3432 116.436 52.8816C116.605 52.42 116.69 51.9115 116.69 51.3561C116.69 50.8045 116.605 50.2979 116.436 49.8363C116.271 49.3709 116.016 48.9975 115.671 48.7161C115.326 48.4346 114.89 48.2939 114.365 48.2939C113.836 48.2939 113.397 48.4346 113.048 48.7161C112.702 48.9975 112.445 49.3709 112.277 49.8363C112.111 50.2979 112.029 50.8045 112.029 51.3561C112.029 51.9115 112.111 52.42 112.277 52.8816C112.445 53.3432 112.702 53.7128 113.048 53.9905C113.397 54.2683 113.836 54.4071 114.365 54.4071ZM121.318 50.5118V55.6455H119.634V46.9992H121.25V48.4065H121.357C121.556 47.9486 121.867 47.5809 122.291 47.3032C122.719 47.0255 123.258 46.8866 123.907 46.8866C124.496 46.8866 125.012 47.0104 125.455 47.2581C125.898 47.5021 126.241 47.8661 126.485 48.3502C126.729 48.8343 126.851 49.4328 126.851 50.1459V55.6455H125.168V50.3485C125.168 49.7218 125.005 49.2321 124.678 48.8793C124.352 48.5228 123.903 48.3445 123.333 48.3445C122.942 48.3445 122.595 48.429 122.291 48.5979C121.991 48.7667 121.753 49.0144 121.576 49.3409C121.404 49.6636 121.318 50.0539 121.318 50.5118Z" fill="white"/>
<g clip-path="url(#clip0_1715_14976)">
<path d="M70.314 7.09486C70.5171 6.03876 71.4514 5.30762 72.7512 5.30762C74.2541 5.30762 75.432 5.95752 75.432 7.98847V11.766H74.1322L73.9697 10.9537C73.5229 11.5223 72.9136 11.8879 72.02 11.8879C70.9233 11.8879 70.0703 11.1974 70.0703 9.93819C70.0703 8.679 71.2076 7.86662 72.7918 7.86662H73.8479V7.58228C73.8479 6.85114 73.3198 6.64805 72.7106 6.64805C72.2637 6.64805 71.8169 6.81052 71.6138 7.37919L70.314 7.09486ZM72.3856 10.5475C73.1167 10.5475 73.8479 10.06 73.8479 9.24766V9.12581H72.8324C72.1419 9.08519 71.7357 9.36952 71.7357 9.93819C71.7357 10.2225 71.9794 10.5475 72.3856 10.5475Z" fill="#FFF7F7"/>
<path d="M100.947 7.09486C101.15 6.03876 102.084 5.30762 103.384 5.30762C104.887 5.30762 106.065 5.95752 106.065 7.98847V11.766H104.765L104.603 10.9537C104.156 11.5223 103.546 11.8879 102.653 11.8879C101.556 11.8879 100.703 11.1974 100.703 9.93819C100.703 8.679 101.84 7.86662 103.425 7.86662H104.481V7.58228C104.481 6.85114 103.953 6.64805 103.343 6.64805C102.897 6.64805 102.45 6.81052 102.247 7.37919L100.947 7.09486ZM103.018 10.5475C103.75 10.5475 104.481 10.06 104.481 9.24766V9.12581H103.425C102.734 9.12581 102.328 9.36952 102.328 9.93819C102.369 10.2225 102.612 10.5475 103.018 10.5475Z" fill="#FFF7F7"/>
<path d="M107.484 11.8067V5.38886H109.069V6.44495C109.515 5.67319 110.246 5.30762 110.937 5.30762C111.221 5.30762 111.465 5.34824 111.709 5.42947L111.424 6.89176C111.221 6.7699 111.018 6.68866 110.775 6.68866C109.84 6.68866 109.069 7.46043 109.069 9.49138V11.766L107.484 11.8067Z" fill="#FFF7F7"/>
<path d="M115.071 5.30784C115.721 5.30784 116.331 5.63279 116.615 5.99836V2.83008H118.199V11.8069H116.615V11.157C116.412 11.4819 115.843 11.9287 115.071 11.9287C113.162 11.9287 112.188 10.5883 112.188 8.6386C112.188 6.68889 113.162 5.30784 115.071 5.30784ZM115.315 10.5477C116.128 10.5477 116.777 9.85717 116.777 8.59798C116.777 7.33879 116.128 6.64827 115.315 6.64827C114.503 6.64827 113.853 7.33879 113.853 8.59798C113.853 9.85717 114.503 10.5477 115.315 10.5477Z" fill="#FFF7F7"/>
<path d="M123.89 6.32328L122.956 7.17628C122.671 6.77009 122.225 6.60761 121.9 6.60761C121.575 6.60761 121.29 6.81071 121.29 7.13566C121.29 7.41999 121.534 7.62309 121.9 7.74494C122.793 8.0699 124.215 8.35423 124.215 9.69466C124.215 10.8726 123.321 11.8068 121.94 11.8068C120.6 11.8068 119.706 10.8726 119.422 10.1008L120.681 9.41032C120.925 10.0196 121.331 10.4664 121.981 10.4664C122.468 10.4664 122.793 10.2227 122.793 9.7759C122.793 9.24785 121.981 9.12599 121.209 8.80104C120.519 8.5167 119.909 8.0699 119.909 7.09504C119.909 6.12018 120.722 5.22656 121.94 5.22656C122.753 5.26718 123.524 5.71399 123.89 6.32328Z" fill="#FFF7F7"/>
<path d="M91.146 5.38867L90.0086 9.81615L88.9119 5.38867H87.4496L86.3935 9.81615L85.4999 7.25715L85.3781 7.54148L84.8906 9.20686L85.703 11.8065H87.0841L88.1808 7.66334L89.2775 11.8065H90.6991L92.7301 5.38867H91.146Z" fill="#FFF7F7"/>
<path d="M98.7491 5.38867L97.6117 9.81615L96.515 5.38867H95.0527L93.9967 9.81615L93.103 7.25715L92.9812 7.54148L92.4531 9.20686L93.3061 11.8065H94.6872L95.7839 7.66334L96.8806 11.8065H98.2617L100.333 5.38867H98.7491Z" fill="#FFF7F7"/>
<path d="M85.1424 5.38867L83.1115 11.7659H81.7304L80.6337 7.66334L79.537 11.8065H78.156L76.125 5.42929H77.7091L78.8465 9.81615L79.9432 5.42929H81.4055L82.5022 9.81615L83.6395 5.42929L85.1424 5.38867Z" fill="#FFF7F7"/>
<path d="M126.29 9.73535C126.9 9.73535 127.347 10.1822 127.347 10.7914C127.347 11.4007 126.9 11.8475 126.29 11.8475C125.681 11.8475 125.234 11.4007 125.234 10.7914C125.234 10.1822 125.681 9.73535 126.29 9.73535Z" fill="#FFF7F7"/>
</g>
<path d="M68.6715 72.4062H67.7483L69.8226 66.642H70.8274L72.9017 72.4062H71.9786L70.3489 67.6891H70.3039L68.6715 72.4062ZM68.8263 70.149H71.8209V70.8808H68.8263V70.149ZM73.8243 72.4062L72.5521 68.0831H73.4218L74.269 71.2579H74.3112L75.1612 68.0831H76.0309L76.8752 71.2438H76.9175L77.759 68.0831H78.6287L77.3593 72.4062H76.5009L75.6228 69.2849H75.558L74.6799 72.4062H73.8243ZM80.1268 72.4062L78.8546 68.0831H79.7243L80.5715 71.2579H80.6137L81.4637 68.0831H82.3334L83.1778 71.2438H83.22L84.0616 68.0831H84.9313L83.6619 72.4062H82.8035L81.9253 69.2849H81.8606L80.9824 72.4062H80.1268ZM86.4294 72.4062L85.1572 68.0831H86.0269L86.8741 71.2579H86.9163L87.7663 68.0831H88.636L89.4803 71.2438H89.5226L90.3641 68.0831H91.2338L89.9644 72.4062H89.106L88.2279 69.2849H88.1631L87.285 72.4062H86.4294ZM93.0528 72.5019C92.7788 72.5019 92.5311 72.4513 92.3097 72.35C92.0883 72.2468 91.9129 72.0976 91.7834 71.9024C91.6558 71.7073 91.592 71.4681 91.592 71.1847C91.592 70.9408 91.6389 70.74 91.7327 70.5824C91.8266 70.4248 91.9532 70.3 92.1127 70.2081C92.2722 70.1161 92.4505 70.0467 92.6475 69.9998C92.8445 69.9529 93.0453 69.9172 93.2498 69.8929C93.5087 69.8628 93.7189 69.8384 93.8803 69.8197C94.0416 69.799 94.1589 69.7662 94.2321 69.7212C94.3052 69.6761 94.3418 69.603 94.3418 69.5016V69.4819C94.3418 69.2361 94.2724 69.0457 94.1336 68.9106C93.9966 68.7755 93.7921 68.7079 93.52 68.7079C93.2367 68.7079 93.0134 68.7708 92.8501 68.8965C92.6888 69.0203 92.5771 69.1583 92.5152 69.3102L91.7243 69.1301C91.8181 68.8674 91.9551 68.6554 92.1352 68.494C92.3172 68.3308 92.5264 68.2126 92.7629 68.1394C92.9993 68.0643 93.2479 68.0268 93.5087 68.0268C93.6814 68.0268 93.8643 68.0474 94.0576 68.0887C94.2527 68.1281 94.4347 68.2013 94.6036 68.3083C94.7743 68.4152 94.9141 68.5681 95.023 68.767C95.1318 68.964 95.1862 69.2202 95.1862 69.5354V72.4062H94.3644V71.8152H94.3306C94.2762 71.924 94.1945 72.031 94.0857 72.1361C93.9769 72.2411 93.8371 72.3284 93.6663 72.3978C93.4956 72.4672 93.2911 72.5019 93.0528 72.5019ZM93.2357 71.8265C93.4684 71.8265 93.6673 71.7805 93.8324 71.6885C93.9994 71.5966 94.1261 71.4765 94.2124 71.3283C94.3006 71.1782 94.3447 71.0177 94.3447 70.847V70.2897C94.3146 70.3197 94.2565 70.3479 94.1702 70.3741C94.0857 70.3985 93.9891 70.4201 93.8803 70.4389C93.7714 70.4558 93.6654 70.4717 93.5622 70.4867C93.459 70.4999 93.3727 70.5111 93.3033 70.5205C93.14 70.5411 92.9909 70.5759 92.8558 70.6246C92.7225 70.6734 92.6156 70.7438 92.5349 70.8357C92.4561 70.9258 92.4167 71.0459 92.4167 71.196C92.4167 71.4043 92.4936 71.5619 92.6475 71.6688C92.8013 71.7739 92.9974 71.8265 93.2357 71.8265ZM96.0693 72.4062V68.0831H96.8827V68.7698H96.9278C97.0066 68.5372 97.1454 68.3542 97.3443 68.221C97.5451 68.0859 97.7721 68.0184 98.0254 68.0184C98.078 68.0184 98.1399 68.0202 98.2112 68.024C98.2844 68.0277 98.3416 68.0324 98.3829 68.0381V68.843C98.3491 68.8336 98.2891 68.8233 98.2028 68.8121C98.1164 68.7989 98.0301 68.7924 97.9438 68.7924C97.7449 68.7924 97.5676 68.8346 97.4119 68.919C97.258 69.0016 97.136 69.117 97.046 69.2652C96.9559 69.4116 96.9109 69.5786 96.9109 69.7662V72.4062H96.0693ZM100.337 72.4907C99.988 72.4907 99.6765 72.4016 99.4025 72.2233C99.1304 72.0432 98.9165 71.787 98.7608 71.4549C98.6069 71.1209 98.53 70.7203 98.53 70.2531C98.53 69.7859 98.6079 69.3862 98.7636 69.0541C98.9212 68.722 99.137 68.4677 99.411 68.2914C99.6849 68.115 99.9955 68.0268 100.343 68.0268C100.611 68.0268 100.827 68.0718 100.99 68.1619C101.155 68.2501 101.283 68.3533 101.373 68.4715C101.465 68.5897 101.536 68.6938 101.587 68.7839H101.637V66.642H102.479V72.4062H101.657V71.7336H101.587C101.536 71.8255 101.463 71.9306 101.367 72.0488C101.273 72.167 101.144 72.2702 100.979 72.3584C100.814 72.4466 100.6 72.4907 100.337 72.4907ZM100.523 71.773C100.765 71.773 100.969 71.7092 101.136 71.5816C101.305 71.4521 101.433 71.2729 101.519 71.044C101.607 70.8151 101.651 70.5486 101.651 70.2447C101.651 69.9445 101.608 69.6818 101.522 69.4566C101.436 69.2314 101.309 69.056 101.142 68.9303C100.975 68.8046 100.769 68.7417 100.523 68.7417C100.269 68.7417 100.058 68.8074 99.8894 68.9387C99.7206 69.0701 99.593 69.2493 99.5067 69.4763C99.4222 69.7033 99.38 69.9595 99.38 70.2447C99.38 70.5336 99.4232 70.7935 99.5095 71.0243C99.5958 71.2551 99.7234 71.438 99.8923 71.5731C100.063 71.7064 100.273 71.773 100.523 71.773ZM106.682 69.1385L105.919 69.2736C105.887 69.1761 105.836 69.0832 105.767 68.995C105.699 68.9068 105.608 68.8346 105.491 68.7783C105.375 68.722 105.229 68.6938 105.055 68.6938C104.817 68.6938 104.618 68.7473 104.458 68.8543C104.299 68.9594 104.219 69.0954 104.219 69.2624C104.219 69.4069 104.272 69.5232 104.379 69.6114C104.486 69.6996 104.659 69.7718 104.897 69.8281L105.584 69.9857C105.982 70.0777 106.278 70.2193 106.473 70.4107C106.669 70.6021 106.766 70.8507 106.766 71.1566C106.766 71.4155 106.691 71.6463 106.541 71.849C106.393 72.0497 106.185 72.2074 105.919 72.3218C105.654 72.4363 105.348 72.4935 104.999 72.4935C104.515 72.4935 104.12 72.3903 103.814 72.1839C103.508 71.9756 103.32 71.6801 103.251 71.2973L104.064 71.1735C104.115 71.3855 104.219 71.5459 104.377 71.6548C104.534 71.7617 104.74 71.8152 104.993 71.8152C105.269 71.8152 105.489 71.758 105.654 71.6435C105.82 71.5272 105.902 71.3855 105.902 71.2185C105.902 71.0834 105.851 70.9699 105.75 70.8779C105.651 70.786 105.498 70.7166 105.291 70.6697L104.56 70.5092C104.156 70.4173 103.858 70.2709 103.665 70.0702C103.473 69.8694 103.377 69.6151 103.377 69.3074C103.377 69.0522 103.449 68.8289 103.591 68.6376C103.734 68.4462 103.931 68.297 104.182 68.19C104.434 68.0812 104.722 68.0268 105.046 68.0268C105.514 68.0268 105.881 68.1281 106.15 68.3308C106.418 68.5315 106.595 68.8008 106.682 69.1385ZM108.549 71.6182L108.506 71.925C108.478 72.1501 108.43 72.3847 108.363 72.6286C108.297 72.8744 108.229 73.1024 108.157 73.3125C108.088 73.5227 108.031 73.6897 107.986 73.8135H107.389C107.413 73.6972 107.447 73.5396 107.49 73.3407C107.533 73.1437 107.576 72.9232 107.617 72.6793C107.658 72.4353 107.689 72.1867 107.71 71.9334L107.738 71.6182H108.549ZM111.255 72.4062V71.7758L113.205 69.7549C113.414 69.5354 113.585 69.3431 113.72 69.178C113.857 69.011 113.96 68.8524 114.027 68.7023C114.095 68.5522 114.129 68.3927 114.129 68.2238C114.129 68.0324 114.083 67.8673 113.993 67.7285C113.903 67.5877 113.78 67.4798 113.625 67.4048C113.469 67.3279 113.294 67.2894 113.098 67.2894C112.892 67.2894 112.712 67.3316 112.558 67.416C112.404 67.5005 112.286 67.6196 112.203 67.7735C112.121 67.9274 112.08 68.1075 112.08 68.3139H111.249C111.249 67.963 111.33 67.6562 111.491 67.3935C111.653 67.1308 111.874 66.9272 112.156 66.7828C112.437 66.6364 112.757 66.5632 113.115 66.5632C113.477 66.5632 113.796 66.6355 114.072 66.78C114.35 66.9226 114.567 67.1177 114.722 67.3654C114.878 67.6112 114.956 67.8889 114.956 68.1985C114.956 68.4124 114.916 68.6216 114.835 68.8261C114.756 69.0307 114.618 69.2586 114.421 69.5101C114.224 69.7596 113.95 70.0627 113.599 70.4192L112.454 71.6182V71.6604H115.049V72.4062H111.255ZM117.885 72.5019C117.44 72.5001 117.06 72.3828 116.745 72.1501C116.429 71.9175 116.188 71.5788 116.021 71.1341C115.854 70.6894 115.771 70.1537 115.771 69.527C115.771 68.9021 115.854 68.3683 116.021 67.9255C116.19 67.4827 116.432 67.1449 116.748 66.9122C117.065 66.6796 117.444 66.5632 117.885 66.5632C118.326 66.5632 118.704 66.6805 119.019 66.915C119.334 67.1477 119.575 67.4855 119.742 67.9283C119.911 68.3692 119.996 68.9021 119.996 69.527C119.996 70.1555 119.912 70.6922 119.745 71.1369C119.578 71.5797 119.337 71.9184 119.022 72.1529C118.706 72.3856 118.327 72.5019 117.885 72.5019ZM117.885 71.7505C118.275 71.7505 118.58 71.56 118.799 71.1791C119.021 70.7982 119.131 70.2475 119.131 69.527C119.131 69.0485 119.081 68.6441 118.979 68.3139C118.88 67.9818 118.736 67.7303 118.549 67.5596C118.363 67.387 118.142 67.3006 117.885 67.3006C117.496 67.3006 117.191 67.492 116.97 67.8748C116.748 68.2576 116.637 68.8083 116.635 69.527C116.635 70.0073 116.685 70.4135 116.784 70.7457C116.885 71.0759 117.029 71.3264 117.215 71.4971C117.4 71.666 117.624 71.7505 117.885 71.7505ZM120.756 72.4062V71.7758L122.707 69.7549C122.915 69.5354 123.087 69.3431 123.222 69.178C123.359 69.011 123.461 68.8524 123.529 68.7023C123.596 68.5522 123.63 68.3927 123.63 68.2238C123.63 68.0324 123.585 67.8673 123.495 67.7285C123.405 67.5877 123.282 67.4798 123.126 67.4048C122.97 67.3279 122.795 67.2894 122.6 67.2894C122.393 67.2894 122.213 67.3316 122.059 67.416C121.905 67.5005 121.787 67.6196 121.705 67.7735C121.622 67.9274 121.581 68.1075 121.581 68.3139H120.751C120.751 67.963 120.831 67.6562 120.993 67.3935C121.154 67.1308 121.375 66.9272 121.657 66.7828C121.938 66.6364 122.258 66.5632 122.617 66.5632C122.979 66.5632 123.298 66.6355 123.574 66.78C123.851 66.9226 124.068 67.1177 124.224 67.3654C124.379 67.6112 124.457 67.8889 124.457 68.1985C124.457 68.4124 124.417 68.6216 124.336 68.8261C124.258 69.0307 124.12 69.2586 123.923 69.5101C123.726 69.7596 123.452 70.0627 123.101 70.4192L121.955 71.6182V71.6604H124.55V72.4062H120.756ZM127.386 72.4851C126.999 72.4851 126.654 72.4184 126.35 72.2852C126.048 72.152 125.809 71.9672 125.632 71.7308C125.458 71.4925 125.364 71.2166 125.351 70.9033H126.235C126.246 71.074 126.303 71.2223 126.406 71.348C126.512 71.4718 126.649 71.5675 126.817 71.6351C126.986 71.7026 127.174 71.7364 127.38 71.7364C127.607 71.7364 127.808 71.697 127.983 71.6182C128.159 71.5394 128.297 71.4296 128.396 71.2889C128.496 71.1463 128.546 70.9821 128.546 70.7963C128.546 70.6031 128.496 70.4332 128.396 70.2869C128.299 70.1387 128.155 70.0223 127.966 69.9379C127.778 69.8534 127.551 69.8112 127.285 69.8112H126.798V69.102H127.285C127.499 69.102 127.686 69.0635 127.848 68.9866C128.011 68.9096 128.138 68.8027 128.23 68.6657C128.322 68.5269 128.368 68.3645 128.368 68.1788C128.368 68.0005 128.328 67.8457 128.247 67.7144C128.168 67.5812 128.056 67.477 127.909 67.402C127.765 67.3269 127.594 67.2894 127.397 67.2894C127.21 67.2894 127.034 67.3241 126.871 67.3935C126.71 67.4611 126.578 67.5586 126.477 67.6862C126.376 67.812 126.321 67.963 126.314 68.1394H125.472C125.481 67.8279 125.573 67.554 125.748 67.3175C125.924 67.0811 126.157 66.8963 126.446 66.7631C126.735 66.6298 127.056 66.5632 127.408 66.5632C127.778 66.5632 128.097 66.6355 128.365 66.78C128.636 66.9226 128.844 67.113 128.99 67.3513C129.138 67.5896 129.212 67.8504 129.21 68.1338C129.212 68.4565 129.122 68.7304 128.94 68.9556C128.759 69.1808 128.519 69.3318 128.219 69.4087V69.4538C128.602 69.5119 128.898 69.6639 129.108 69.9097C129.32 70.1555 129.426 70.4605 129.424 70.8245C129.426 71.1416 129.337 71.4258 129.159 71.6773C128.983 71.9287 128.742 72.1267 128.436 72.2712C128.13 72.4138 127.78 72.4851 127.386 72.4851Z" fill="#B4B5BB"/>
<path d="M30.5823 67.1433C30.1412 66.8036 29.7001 66.5489 29.2589 66.379C28.8178 66.2092 28.3766 66.1243 27.8473 66.1243C26.8768 66.0394 25.818 66.2941 24.7593 66.464C23.7006 66.7187 22.7301 66.9735 22.0242 67.2282C21.3184 67.483 20.7891 67.6528 20.7891 67.6528C20.7891 67.6528 21.2302 67.9076 22.0242 68.2473C22.7301 68.5869 23.7888 68.9266 24.9358 69.0965C26.0827 69.2663 27.2297 69.2663 28.2884 69.0115C29.4354 68.7568 30.3177 68.1623 30.5823 67.1433Z" fill="#FFCB6D"/>
<path d="M27.4972 62.8117C27.9383 63.6609 28.4677 64.5101 29.2617 65.0196C29.6146 65.2744 30.0558 65.5291 30.4969 65.6141C30.938 65.699 31.4674 65.699 31.9086 65.4442C31.9086 64.4252 31.6439 63.576 31.2027 62.8966C30.7616 62.2173 30.0558 61.5379 29.4382 61.0284C28.7324 60.5189 28.1148 60.0943 27.5854 59.7546C27.056 59.415 26.7031 59.2451 26.7031 59.2451C26.7031 59.2451 26.7031 59.33 26.7031 59.5848C26.7031 59.7546 26.7914 60.0094 26.7914 60.3491C26.8796 61.0284 27.056 61.8776 27.4972 62.8117Z" fill="#FFCB6D"/>
<path d="M20.0794 65.1048C21.1381 65.0199 22.0204 64.6803 22.638 63.8311C22.1086 62.9819 21.3145 62.4724 20.4323 62.2176C19.55 61.9628 18.403 61.8779 17.3443 61.8779C16.2856 61.8779 15.2268 61.8779 14.4328 61.8779C13.6387 61.8779 13.1094 61.8779 13.1094 61.8779C13.1094 61.8779 13.1976 61.9628 13.374 62.1327C13.5505 62.3025 13.8152 62.5573 14.1681 62.812C14.8739 63.3215 15.7562 63.916 16.8149 64.4255C17.9619 64.8501 19.1089 65.1048 20.0794 65.1048Z" fill="#FFCB6D"/>
<path d="M22.0278 61.1991C22.6454 61.8785 23.4394 62.388 24.4099 62.3031C24.8511 61.3689 24.7629 60.4348 24.4982 59.5856C24.2335 58.7364 23.7041 57.9722 23.263 57.2928C22.7336 56.6135 22.2925 56.104 21.8513 55.6794C21.6749 55.5095 21.4984 55.3397 21.4102 55.1698C21.322 55.0849 21.2337 55 21.2337 55C21.2337 55 21.2337 55.0849 21.1455 55.2548C21.0573 55.4246 21.0573 55.6794 20.9691 56.019C20.8808 56.6984 20.7926 57.5476 20.9691 58.4817C21.1455 59.5007 21.4984 60.4348 22.0278 61.1991Z" fill="#FFCB6D"/>
<path d="M9.493 54.1502C8.78717 53.8955 8.25781 53.8105 8.25781 53.8105C8.25781 53.8105 8.34602 53.8955 8.43425 54.1502C8.52248 54.3201 8.69894 54.5748 8.87539 54.9145C9.05185 55.2542 9.31655 55.5938 9.58123 56.0184C9.75768 56.1883 9.84591 56.443 10.0224 56.6129L10.1106 56.7827L10.287 56.9526C10.3753 57.0375 10.4635 57.2073 10.5517 57.2922C11.434 58.2263 12.4927 58.9906 13.4632 59.3303C14.522 59.67 15.4925 59.5851 16.3747 58.9057C16.1101 57.8867 15.5807 57.2073 14.7867 56.6978C14.6102 56.528 14.3455 56.443 14.1691 56.2732C13.9926 56.1034 13.7279 56.0184 13.4632 55.8486C13.1986 55.6788 13.0221 55.5938 12.7574 55.424C12.4927 55.3391 12.3163 55.1693 12.0516 55.0843C11.1693 54.6597 10.1988 54.3201 9.493 54.1502Z" fill="#FFCB6D"/>
<path d="M16.6452 55.8486C16.9099 56.6978 17.5275 57.3772 18.498 57.6319C19.2038 56.8676 19.3803 55.9335 19.4685 55.1692C19.5567 54.3201 19.3803 53.5558 19.292 52.8764C19.292 52.6217 19.1156 52.1122 19.0273 51.7725C18.9391 51.4328 18.7627 51.0931 18.6744 50.7535C18.5862 50.4987 18.498 50.2439 18.4098 50.0741C18.3215 49.9043 18.3215 49.8193 18.3215 49.8193C18.3215 49.8193 18.2333 49.9043 18.1451 50.0741C18.0568 50.2439 17.8804 50.4987 17.7039 50.7535C17.351 51.3479 16.9981 52.1971 16.7334 53.0463C16.6452 53.301 16.6452 53.4709 16.557 53.7256C16.4688 53.9804 16.4688 54.1502 16.4688 54.405C16.4688 54.6597 16.4688 54.8296 16.4688 55.0843C16.4688 55.424 16.557 55.6788 16.6452 55.8486Z" fill="#FFCB6D"/>
<path d="M8.43912 50.6683C8.61557 50.8382 8.79203 51.008 8.96849 51.1779C9.14494 51.3477 9.40964 51.5175 9.58609 51.6025C10.4684 52.112 11.3506 52.3667 12.4094 52.0271C12.4976 51.5175 12.4976 51.0929 12.3211 50.6683C12.2329 50.4985 12.1447 50.2438 12.0565 50.0739C11.9682 49.9041 11.7918 49.7342 11.7036 49.4795C11.1742 48.7152 10.2919 48.1208 9.49786 47.5263C8.70381 46.9319 7.82152 46.4224 7.1157 46.0827C6.40988 45.743 5.96875 45.4883 5.96875 45.4883C5.96875 45.4883 5.96876 45.5732 6.05698 45.828C6.14521 46.0827 6.23343 46.3375 6.32166 46.6771C6.58634 47.3565 6.93924 48.3755 7.55684 49.2247C7.73329 49.8192 8.0862 50.2437 8.43912 50.6683Z" fill="#FFCB6D"/>
<path d="M13.9076 50.2437C14.084 50.6683 14.437 51.008 14.7899 51.2628C15.6721 50.7533 16.2015 49.989 16.5544 49.1398C16.6427 48.97 16.6426 48.7152 16.7309 48.5453C16.7309 48.4604 16.7309 48.2906 16.8191 48.2057C16.8191 48.1208 16.8191 47.9509 16.9073 47.866C16.9956 47.4414 16.9956 47.0168 16.9956 46.5922C16.9073 45.743 16.9073 44.9787 16.7309 44.3843C16.6426 44.1296 16.6427 43.8748 16.5544 43.705C16.5544 43.5351 16.4662 43.4502 16.4662 43.4502C16.4662 43.4502 16.378 43.5351 16.2015 43.705C16.0251 43.8748 15.8486 44.0446 15.6721 44.2994C15.231 44.8089 14.7016 45.5732 14.2605 46.4224C13.8194 47.2716 13.5547 48.2057 13.5547 49.1398C13.5547 49.3945 13.5547 49.5644 13.6429 49.8191C13.7311 49.9041 13.8194 50.0739 13.9076 50.2437Z" fill="#FFCB6D"/>
<path d="M6.5835 42.6017C6.67172 42.8565 6.84818 43.0263 7.02464 43.2811C7.20109 43.4509 7.37755 43.7057 7.55401 43.8755C8.25983 44.5549 9.14211 44.9795 10.2008 44.8096C10.3773 44.385 10.4655 43.8755 10.3773 43.4509C10.3773 43.1962 10.2891 43.0263 10.2008 42.7716C10.1126 42.6017 10.0244 42.347 9.93617 42.1771C9.75971 41.7525 9.49503 41.3279 9.14212 40.9883C8.96567 40.8184 8.78921 40.5637 8.70098 40.3938C8.52453 40.224 8.34807 40.0542 8.17161 39.7994C7.46579 39.0351 6.67172 38.3558 6.14236 37.8463C5.61299 37.3367 5.17188 36.9971 5.17188 36.9971C5.17188 36.9971 5.17188 37.5066 5.17188 38.2709C5.17188 38.6955 5.26009 39.1201 5.34831 39.5446C5.43654 39.7994 5.43655 40.0542 5.52478 40.3089C5.61301 40.5637 5.613 40.8184 5.78945 41.0732C6.14236 41.5827 6.40704 42.0922 6.5835 42.6017Z" fill="#FFCB6D"/>
<path d="M12.7628 44.2153C13.7333 43.8756 14.4391 43.1962 14.8803 42.5169C14.9685 42.347 15.0567 42.1772 15.145 41.9224C15.2332 41.7526 15.3214 41.4978 15.4096 41.328C15.5861 40.9034 15.6743 40.4788 15.7626 40.1391C15.8508 39.7145 15.939 39.3749 15.939 38.9503C15.939 38.7804 15.939 38.6106 16.0272 38.4407C16.0272 38.2709 16.0272 38.1011 16.0272 38.0161C16.1155 37.4217 16.1155 37.082 16.1155 37.082C16.1155 37.082 15.7625 37.2519 15.145 37.6765C14.9685 37.7614 14.8803 37.8463 14.7038 38.0161C14.5274 38.1011 14.3509 38.2709 14.2627 38.4407C13.9098 38.6955 13.6451 39.0352 13.2922 39.3749C13.1157 39.5447 13.0275 39.7145 12.851 39.9693C12.7628 40.0542 12.6746 40.1391 12.6746 40.309C12.5864 40.3939 12.5863 40.4788 12.4981 40.6486C12.3217 41.0732 12.1452 41.4978 12.057 41.9224C12.057 42.1772 11.9688 42.347 11.9688 42.6018C11.9688 42.8565 12.057 43.0264 12.057 43.1962C12.2334 43.451 12.4099 43.8756 12.7628 44.2153Z" fill="#FFCB6D"/>
<path d="M9.05079 31.9017C8.7861 31.4771 8.5214 31.0525 8.34495 30.6279C8.08027 30.2033 7.81559 29.8636 7.63914 29.5239C7.198 28.9295 6.93333 28.5049 6.93333 28.5049C6.93333 28.5049 6.75685 29.0144 6.66863 29.7787C6.5804 30.1183 6.58042 30.6279 6.49219 31.0525C6.49219 31.3072 6.49219 31.562 6.49219 31.8167C6.49219 32.0715 6.49219 32.3262 6.49219 32.581C6.58042 33.0905 6.5804 33.6 6.75686 34.1095C6.93332 34.6191 7.10978 35.1286 7.37446 35.4683C7.90383 36.3174 8.69786 36.9119 9.7566 36.9968C9.93305 36.827 10.0213 36.5722 10.1095 36.4024C10.1977 36.2325 10.286 35.9778 10.286 35.8079C10.3742 35.3833 10.286 34.9587 10.1977 34.5341C10.1095 34.1095 9.93305 33.6 9.7566 33.1754C9.58014 32.8358 9.31547 32.3262 9.05079 31.9017Z" fill="#FFCB6D"/>
<path d="M14.792 35.8081C15.145 35.4684 15.4096 35.2137 15.5861 34.7891C15.8508 34.4494 16.0272 34.1097 16.2037 33.6851C16.2919 33.5153 16.3801 33.3455 16.4684 33.1756C16.5566 33.0058 16.6448 32.8359 16.733 32.6661C16.9095 32.3264 16.9977 32.0717 17.086 31.732C17.2624 31.2225 17.3506 30.8828 17.3506 30.8828C17.3506 30.8828 16.9095 30.9677 16.2919 31.2225C15.6743 31.4772 14.8803 31.8169 14.0862 32.4113C13.9098 32.5812 13.7333 32.6661 13.5569 32.8359C13.3804 33.0058 13.2039 33.1756 13.0275 33.3455C12.6746 33.6851 12.4099 34.1097 12.2334 34.4494C12.057 34.874 11.9688 35.2986 11.9688 35.7232C11.9688 35.893 11.9688 36.1478 12.057 36.3176C12.1452 36.4875 12.2334 36.7422 12.3217 36.9121C13.3804 36.8271 14.1745 36.4026 14.792 35.8081Z" fill="#FFCB6D"/>
<path d="M11.7015 29.1844C11.878 29.0145 11.9662 28.8447 12.0544 28.5899C12.1427 28.4201 12.2309 28.1653 12.2309 27.9955C12.2309 27.8256 12.3191 27.5709 12.3191 27.3161C12.3191 26.8915 12.3191 26.382 12.2309 25.8725C12.1427 25.363 12.0544 24.9384 11.9662 24.4289C11.7015 23.4948 11.4368 22.5606 11.1721 21.8813C10.9075 21.2019 10.731 20.7773 10.731 20.7773C10.731 20.7773 10.6428 20.8623 10.5545 21.0321C10.4663 21.2019 10.2899 21.5416 10.1134 21.8813C9.76049 22.5606 9.40758 23.4948 9.23113 24.5138C9.1429 25.0233 9.05469 25.5328 9.05469 26.0423C9.05469 26.2971 9.05469 26.5519 9.14292 26.8066C9.14292 27.0614 9.23113 27.3161 9.31936 27.5709C9.49582 27.9955 9.67229 28.4201 10.0252 28.8447C10.3781 29.1843 10.731 29.524 11.2604 29.6939C11.4368 29.6089 11.6133 29.4391 11.7015 29.1844Z" fill="#FFCB6D"/>
<path d="M20.0813 25.5321C20.1695 25.3623 20.2577 25.2773 20.2577 25.2773C20.2577 25.2773 20.1695 25.2773 19.9048 25.2773C19.7283 25.2773 19.4637 25.2773 19.1108 25.3623C18.7578 25.3623 18.4049 25.4472 17.9638 25.5321C17.7874 25.617 17.5227 25.617 17.3462 25.7019C17.1697 25.7869 16.9051 25.8718 16.7286 25.9567C16.2875 26.1265 15.8463 26.2964 15.4052 26.5511C15.0523 26.8059 14.6994 27.1456 14.3465 27.4003C14.17 27.5702 14.0818 27.74 13.9936 27.9098C13.9053 28.0797 13.8171 28.3344 13.7289 28.5043C13.6406 28.6741 13.6406 28.9289 13.6406 29.0987C13.6406 29.3535 13.7289 29.5233 13.7289 29.7781C14.2582 29.863 14.6994 29.863 15.1405 29.7781C15.5816 29.6931 16.0228 29.5233 16.3757 29.2685C16.5521 29.1836 16.7286 29.0138 16.9051 28.9289C16.9933 28.844 17.0815 28.759 17.1697 28.759C17.258 28.6741 17.3462 28.5892 17.4344 28.5892C17.7873 28.3344 18.052 27.9948 18.3167 27.74C18.5814 27.4003 18.8461 27.1456 19.0225 26.8908C19.1108 26.8059 19.1108 26.721 19.199 26.6361C19.2872 26.5511 19.2872 26.4662 19.3754 26.4662C19.4637 26.2964 19.5519 26.2115 19.6401 26.1265C19.8166 25.8718 19.993 25.7019 20.0813 25.5321Z" fill="#FFCB6D"/>
<path d="M14.6056 22.985C15.0468 22.7302 15.3997 22.4754 15.6644 22.1358C15.9291 21.7961 16.1055 21.3715 16.282 20.9469C16.5466 20.0977 16.6349 19.0787 16.6349 18.1446C16.6349 17.8898 16.6349 17.635 16.6349 17.3803C16.6349 17.1255 16.6349 16.8708 16.6349 16.7009C16.6349 16.2763 16.5467 15.8517 16.5467 15.4271C16.4584 14.7478 16.3702 14.2383 16.3702 14.2383C16.3702 14.2383 16.282 14.3232 16.1055 14.493C15.9291 14.6629 15.7526 14.9176 15.4879 15.1724C15.2232 15.5121 14.9586 15.8517 14.7821 16.1914C14.5174 16.616 14.2527 17.0406 14.0763 17.4652C13.8998 17.9747 13.7234 18.3993 13.5469 18.9088C13.4587 19.4184 13.3705 19.9279 13.3705 20.3525C13.2822 21.4564 13.7234 22.3905 14.6056 22.985Z" fill="#FFCB6D"/>
<path d="M22.0212 22.4754C22.3741 22.2206 22.727 21.9659 22.9917 21.7111C23.2563 21.4564 23.521 21.2865 23.7857 21.0318C23.9622 20.8619 24.1386 20.6921 24.3151 20.5223C24.4033 20.4373 24.4915 20.3524 24.4915 20.3524C24.4915 20.3524 24.0504 20.2675 23.3446 20.1826C22.9917 20.1826 22.6388 20.0977 22.1976 20.0977C21.7565 20.0977 21.3153 20.0977 20.786 20.1826C19.8155 20.3524 18.845 20.6072 18.1391 21.1167C17.7862 21.3715 17.5215 21.7111 17.2569 22.0508C17.0804 22.3905 16.9922 22.8151 16.9922 23.3246C17.9627 23.7492 18.9332 23.6643 19.7273 23.4944C20.1684 23.4095 20.5213 23.2397 20.9624 22.9849C21.3153 22.9 21.6682 22.7302 22.0212 22.4754Z" fill="#FFCB6D"/>
<path d="M29.6143 66.0391C26.2616 64.7653 22.909 63.2368 20.0857 61.0289C17.086 58.6511 14.9685 55.4242 13.4686 51.6878C11.6159 47.3569 10.2924 42.8562 10.4689 38.1007C10.6454 34.0246 11.7923 30.0334 13.5569 26.2969C15.0567 23.3247 16.9095 20.3526 19.2034 17.7201C19.027 17.3804 19.027 16.9558 19.1152 16.6161C19.2034 16.1915 19.3799 15.7669 19.6446 15.4272C20.1739 14.663 20.968 13.9836 21.8503 13.559C22.7325 13.0495 23.6148 12.7948 24.3206 12.6249C24.6735 12.54 24.9382 12.4551 25.1147 12.4551H25.3794H25.4676V12.54C25.4676 12.54 25.4676 12.6249 25.3794 12.7098C25.2912 12.8797 25.2029 13.1344 25.0265 13.3892C24.7618 13.9836 24.3206 14.663 23.7913 15.4272C23.5266 15.7669 23.1737 16.1066 22.909 16.4463L22.4678 16.8709L22.4677 16.871C22.2913 17.0408 22.1149 17.2106 21.9385 17.2955C21.5856 17.4653 21.2327 17.7201 20.7915 17.805C20.5268 17.8899 20.1739 17.8899 19.821 17.8899C18.8505 19.0788 17.88 20.2676 17.086 21.4565C13.8216 26.1271 11.5276 31.5619 11.1747 37.2515C10.91 42.1768 12.057 46.7624 13.998 51.2632C14.9685 53.6409 16.2037 55.9337 17.9683 57.8868C19.7328 59.84 21.8503 61.3685 24.1442 62.6423C28.5556 65.0201 34.9962 67.7375 41.0839 69.6906L39.4076 70.4549C35.8785 68.8414 32.3494 67.0581 29.6143 66.0391Z" fill="#FFCB6D"/>
<path d="M167.308 67.1433C167.749 66.8036 168.191 66.5489 168.632 66.379C169.073 66.2092 169.514 66.1243 170.043 66.1243C171.014 66.0394 172.073 66.2941 173.131 66.464C174.19 66.7187 175.161 66.9735 175.866 67.2282C176.572 67.483 177.102 67.6528 177.102 67.6528C177.102 67.6528 176.66 67.9076 175.866 68.2473C175.161 68.5869 174.102 68.9266 172.955 69.0965C171.808 69.2663 170.661 69.2663 169.602 69.0115C168.455 68.7568 167.573 68.1623 167.308 67.1433Z" fill="#FFCB6D"/>
<path d="M170.393 62.8117C169.952 63.6609 169.423 64.5101 168.629 65.0196C168.276 65.2744 167.835 65.5291 167.394 65.6141C166.953 65.699 166.423 65.699 165.982 65.4442C165.982 64.4252 166.247 63.576 166.688 62.8966C167.129 62.2173 167.835 61.5379 168.452 61.0284C169.158 60.5189 169.776 60.0943 170.305 59.7546C170.835 59.415 171.188 59.2451 171.188 59.2451C171.188 59.2451 171.188 59.33 171.188 59.5848C171.188 59.7546 171.099 60.0094 171.099 60.3491C171.011 61.0284 170.835 61.8776 170.393 62.8117Z" fill="#FFCB6D"/>
<path d="M177.811 65.1048C176.753 65.0199 175.87 64.6803 175.253 63.8311C175.782 62.9819 176.576 62.4724 177.458 62.2176C178.341 61.9628 179.488 61.8779 180.546 61.8779C181.605 61.8779 182.664 61.8779 183.458 61.8779C184.252 61.8779 184.781 61.8779 184.781 61.8779C184.781 61.8779 184.693 61.9628 184.517 62.1327C184.34 62.3025 184.075 62.5573 183.723 62.812C183.017 63.3215 182.134 63.916 181.076 64.4255C179.929 64.8501 178.782 65.1048 177.811 65.1048Z" fill="#FFCB6D"/>
<path d="M175.863 61.1991C175.245 61.8785 174.451 62.388 173.481 62.3031C173.04 61.3689 173.128 60.4348 173.392 59.5856C173.657 58.7364 174.186 57.9722 174.628 57.2928C175.157 56.6135 175.598 56.104 176.039 55.6794C176.216 55.5095 176.392 55.3397 176.48 55.1698C176.569 55.0849 176.657 55 176.657 55C176.657 55 176.657 55.0849 176.745 55.2548C176.833 55.4246 176.833 55.6794 176.922 56.019C177.01 56.6984 177.098 57.5476 176.922 58.4817C176.745 59.5007 176.392 60.4348 175.863 61.1991Z" fill="#FFCB6D"/>
<path d="M188.398 54.1502C189.103 53.8955 189.633 53.8105 189.633 53.8105C189.633 53.8105 189.545 53.8955 189.456 54.1502C189.368 54.3201 189.192 54.5748 189.015 54.9145C188.839 55.2542 188.574 55.5938 188.309 56.0184C188.133 56.1883 188.045 56.443 187.868 56.6129L187.78 56.7827L187.604 56.9526C187.515 57.0375 187.427 57.2073 187.339 57.2922C186.457 58.2263 185.398 58.9906 184.427 59.3303C183.369 59.67 182.398 59.5851 181.516 58.9057C181.781 57.8867 182.31 57.2073 183.104 56.6978C183.28 56.528 183.545 56.443 183.722 56.2732C183.898 56.1034 184.163 56.0184 184.427 55.8486C184.692 55.6788 184.869 55.5938 185.133 55.424C185.398 55.3391 185.574 55.1693 185.839 55.0843C186.721 54.6597 187.692 54.3201 188.398 54.1502Z" fill="#FFCB6D"/>
<path d="M181.245 55.8486C180.981 56.6978 180.363 57.3772 179.393 57.6319C178.687 56.8676 178.51 55.9335 178.422 55.1692C178.334 54.3201 178.51 53.5558 178.599 52.8764C178.599 52.6217 178.775 52.1122 178.863 51.7725C178.952 51.4328 179.128 51.0931 179.216 50.7535C179.304 50.4987 179.393 50.2439 179.481 50.0741C179.569 49.9043 179.569 49.8193 179.569 49.8193C179.569 49.8193 179.657 49.9043 179.746 50.0741C179.834 50.2439 180.01 50.4987 180.187 50.7535C180.54 51.3479 180.893 52.1971 181.157 53.0463C181.245 53.301 181.245 53.4709 181.334 53.7256C181.422 53.9804 181.422 54.1502 181.422 54.405C181.422 54.6597 181.422 54.8296 181.422 55.0843C181.422 55.424 181.334 55.6788 181.245 55.8486Z" fill="#FFCB6D"/>
<path d="M189.452 50.6683C189.275 50.8382 189.099 51.008 188.922 51.1779C188.746 51.3477 188.481 51.5175 188.305 51.6025C187.422 52.112 186.54 52.3667 185.481 52.0271C185.393 51.5175 185.393 51.0929 185.569 50.6683C185.658 50.4985 185.746 50.2438 185.834 50.0739C185.922 49.9041 186.099 49.7342 186.187 49.4795C186.716 48.7152 187.599 48.1208 188.393 47.5263C189.187 46.9319 190.069 46.4224 190.775 46.0827C191.481 45.743 191.922 45.4883 191.922 45.4883C191.922 45.4883 191.922 45.5732 191.834 45.828C191.745 46.0827 191.657 46.3375 191.569 46.6771C191.304 47.3565 190.951 48.3755 190.334 49.2247C190.157 49.8192 189.804 50.2437 189.452 50.6683Z" fill="#FFCB6D"/>
<path d="M183.983 50.2437C183.807 50.6683 183.454 51.008 183.101 51.2628C182.218 50.7533 181.689 49.989 181.336 49.1398C181.248 48.97 181.248 48.7152 181.16 48.5453C181.16 48.4604 181.16 48.2906 181.072 48.2057C181.072 48.1208 181.072 47.9509 180.983 47.866C180.895 47.4414 180.895 47.0168 180.895 46.5922C180.983 45.743 180.983 44.9787 181.16 44.3843C181.248 44.1296 181.248 43.8748 181.336 43.705C181.336 43.5351 181.424 43.4502 181.424 43.4502C181.424 43.4502 181.513 43.5351 181.689 43.705C181.866 43.8748 182.042 44.0446 182.218 44.2994C182.66 44.8089 183.189 45.5732 183.63 46.4224C184.071 47.2716 184.336 48.2057 184.336 49.1398C184.336 49.3945 184.336 49.5644 184.248 49.8191C184.16 49.9041 184.071 50.0739 183.983 50.2437Z" fill="#FFCB6D"/>
<path d="M191.307 42.6017C191.219 42.8565 191.042 43.0263 190.866 43.2811C190.69 43.4509 190.513 43.7057 190.337 43.8755C189.631 44.5549 188.749 44.9795 187.69 44.8096C187.513 44.385 187.425 43.8755 187.513 43.4509C187.513 43.1962 187.602 43.0263 187.69 42.7716C187.778 42.6017 187.866 42.347 187.954 42.1771C188.131 41.7525 188.396 41.3279 188.749 40.9883C188.925 40.8184 189.101 40.5637 189.19 40.3938C189.366 40.224 189.543 40.0542 189.719 39.7994C190.425 39.0351 191.219 38.3558 191.748 37.8463C192.278 37.3367 192.719 36.9971 192.719 36.9971C192.719 36.9971 192.719 37.5066 192.719 38.2709C192.719 38.6955 192.631 39.1201 192.542 39.5446C192.454 39.7994 192.454 40.0542 192.366 40.3089C192.278 40.5637 192.278 40.8184 192.101 41.0732C191.748 41.5827 191.484 42.0922 191.307 42.6017Z" fill="#FFCB6D"/>
<path d="M185.128 44.2153C184.157 43.8756 183.451 43.1962 183.01 42.5169C182.922 42.347 182.834 42.1772 182.746 41.9224C182.657 41.7526 182.569 41.4978 182.481 41.328C182.305 40.9034 182.216 40.4788 182.128 40.1391C182.04 39.7145 181.952 39.3749 181.952 38.9503C181.952 38.7804 181.952 38.6106 181.863 38.4407C181.863 38.2709 181.863 38.1011 181.863 38.0161C181.775 37.4217 181.775 37.082 181.775 37.082C181.775 37.082 182.128 37.2519 182.746 37.6765C182.922 37.7614 183.01 37.8463 183.187 38.0161C183.363 38.1011 183.54 38.2709 183.628 38.4407C183.981 38.6955 184.246 39.0352 184.598 39.3749C184.775 39.5447 184.863 39.7145 185.04 39.9693C185.128 40.0542 185.216 40.1391 185.216 40.309C185.304 40.3939 185.304 40.4788 185.393 40.6486C185.569 41.0732 185.745 41.4978 185.834 41.9224C185.834 42.1772 185.922 42.347 185.922 42.6018C185.922 42.8565 185.834 43.0264 185.834 43.1962C185.657 43.451 185.481 43.8756 185.128 44.2153Z" fill="#FFCB6D"/>
<path d="M188.84 31.9017C189.105 31.4771 189.369 31.0525 189.546 30.6279C189.81 30.2033 190.075 29.8636 190.251 29.5239C190.693 28.9295 190.957 28.5049 190.957 28.5049C190.957 28.5049 191.134 29.0144 191.222 29.7787C191.31 30.1183 191.31 30.6279 191.398 31.0525C191.398 31.3072 191.398 31.562 191.398 31.8167C191.398 32.0715 191.398 32.3262 191.398 32.581C191.31 33.0905 191.31 33.6 191.134 34.1095C190.957 34.6191 190.781 35.1286 190.516 35.4683C189.987 36.3174 189.193 36.9119 188.134 36.9968C187.958 36.827 187.869 36.5722 187.781 36.4024C187.693 36.2325 187.605 35.9778 187.605 35.8079C187.516 35.3833 187.605 34.9587 187.693 34.5341C187.781 34.1095 187.958 33.6 188.134 33.1754C188.31 32.8358 188.575 32.3262 188.84 31.9017Z" fill="#FFCB6D"/>
<path d="M183.099 35.8081C182.746 35.4684 182.481 35.2137 182.305 34.7891C182.04 34.4494 181.863 34.1097 181.687 33.6851C181.599 33.5153 181.51 33.3455 181.422 33.1756C181.334 33.0058 181.246 32.8359 181.158 32.6661C180.981 32.3264 180.893 32.0717 180.805 31.732C180.628 31.2225 180.54 30.8828 180.54 30.8828C180.54 30.8828 180.981 30.9677 181.599 31.2225C182.216 31.4772 183.01 31.8169 183.804 32.4113C183.981 32.5812 184.157 32.6661 184.334 32.8359C184.51 33.0058 184.687 33.1756 184.863 33.3455C185.216 33.6851 185.481 34.1097 185.657 34.4494C185.834 34.874 185.922 35.2986 185.922 35.7232C185.922 35.893 185.922 36.1478 185.834 36.3176C185.745 36.4875 185.657 36.7422 185.569 36.9121C184.51 36.8271 183.716 36.4026 183.099 35.8081Z" fill="#FFCB6D"/>
<path d="M186.189 29.1844C186.013 29.0145 185.924 28.8447 185.836 28.5899C185.748 28.4201 185.66 28.1653 185.66 27.9955C185.66 27.8256 185.572 27.5709 185.572 27.3161C185.572 26.8915 185.572 26.382 185.66 25.8725C185.748 25.363 185.836 24.9384 185.924 24.4289C186.189 23.4948 186.454 22.5606 186.718 21.8813C186.983 21.2019 187.16 20.7773 187.16 20.7773C187.16 20.7773 187.248 20.8623 187.336 21.0321C187.424 21.2019 187.601 21.5416 187.777 21.8813C188.13 22.5606 188.483 23.4948 188.659 24.5138C188.748 25.0233 188.836 25.5328 188.836 26.0423C188.836 26.2971 188.836 26.5519 188.748 26.8066C188.748 27.0614 188.659 27.3161 188.571 27.5709C188.395 27.9955 188.218 28.4201 187.865 28.8447C187.513 29.1843 187.16 29.524 186.63 29.6939C186.454 29.6089 186.277 29.4391 186.189 29.1844Z" fill="#FFCB6D"/>
<path d="M177.809 25.5321C177.721 25.3623 177.633 25.2773 177.633 25.2773C177.633 25.2773 177.721 25.2773 177.986 25.2773C178.162 25.2773 178.427 25.2773 178.78 25.3623C179.133 25.3623 179.486 25.4472 179.927 25.5321C180.103 25.617 180.368 25.617 180.544 25.7019C180.721 25.7869 180.986 25.8718 181.162 25.9567C181.603 26.1265 182.044 26.2964 182.485 26.5511C182.838 26.8059 183.191 27.1456 183.544 27.4003C183.721 27.5702 183.809 27.74 183.897 27.9098C183.985 28.0797 184.074 28.3344 184.162 28.5043C184.25 28.6741 184.25 28.9289 184.25 29.0987C184.25 29.3535 184.162 29.5233 184.162 29.7781C183.632 29.863 183.191 29.863 182.75 29.7781C182.309 29.6931 181.868 29.5233 181.515 29.2685C181.338 29.1836 181.162 29.0138 180.986 28.9289C180.897 28.844 180.809 28.759 180.721 28.759C180.633 28.6741 180.544 28.5892 180.456 28.5892C180.103 28.3344 179.839 27.9948 179.574 27.74C179.309 27.4003 179.045 27.1456 178.868 26.8908C178.78 26.8059 178.78 26.721 178.692 26.6361C178.603 26.5511 178.603 26.4662 178.515 26.4662C178.427 26.2964 178.339 26.2115 178.25 26.1265C178.074 25.8718 177.898 25.7019 177.809 25.5321Z" fill="#FFCB6D"/>
<path d="M183.285 22.985C182.844 22.7302 182.491 22.4754 182.226 22.1358C181.962 21.7961 181.785 21.3715 181.609 20.9469C181.344 20.0977 181.256 19.0787 181.256 18.1446C181.256 17.8898 181.256 17.635 181.256 17.3803C181.256 17.1255 181.256 16.8708 181.256 16.7009C181.256 16.2763 181.344 15.8517 181.344 15.4271C181.432 14.7478 181.52 14.2383 181.52 14.2383C181.52 14.2383 181.609 14.3232 181.785 14.493C181.962 14.6629 182.138 14.9176 182.403 15.1724C182.667 15.5121 182.932 15.8517 183.109 16.1914C183.373 16.616 183.638 17.0406 183.814 17.4652C183.991 17.9747 184.167 18.3993 184.344 18.9088C184.432 19.4184 184.52 19.9279 184.52 20.3525C184.608 21.4564 184.167 22.3905 183.285 22.985Z" fill="#FFCB6D"/>
<path d="M175.869 22.4754C175.517 22.2206 175.164 21.9659 174.899 21.7111C174.634 21.4564 174.37 21.2865 174.105 21.0318C173.928 20.8619 173.752 20.6921 173.576 20.5223C173.487 20.4373 173.399 20.3524 173.399 20.3524C173.399 20.3524 173.84 20.2675 174.546 20.1826C174.899 20.1826 175.252 20.0977 175.693 20.0977C176.134 20.0977 176.575 20.0977 177.105 20.1826C178.075 20.3524 179.046 20.6072 179.751 21.1167C180.104 21.3715 180.369 21.7111 180.634 22.0508C180.81 22.3905 180.898 22.8151 180.898 23.3246C179.928 23.7492 178.957 23.6643 178.163 23.4944C177.722 23.4095 177.369 23.2397 176.928 22.9849C176.575 22.9 176.222 22.7302 175.869 22.4754Z" fill="#FFCB6D"/>
<path d="M168.276 66.0391C171.629 64.7653 174.982 63.2368 177.805 61.0289C180.805 58.6511 182.922 55.4242 184.422 51.6878C186.275 47.3569 187.598 42.8562 187.422 38.1007C187.245 34.0246 186.098 30.0334 184.334 26.2969C182.834 23.3247 180.981 20.3526 178.687 17.7201C178.864 17.3804 178.864 16.9558 178.775 16.6161C178.687 16.1915 178.511 15.7669 178.246 15.4272C177.717 14.663 176.923 13.9836 176.04 13.559C175.158 13.0495 174.276 12.7948 173.57 12.6249C173.217 12.54 172.952 12.4551 172.776 12.4551H172.511H172.423V12.54C172.423 12.54 172.423 12.6249 172.511 12.7098C172.599 12.8797 172.688 13.1344 172.864 13.3892C173.129 13.9836 173.57 14.663 174.099 15.4272C174.364 15.7669 174.717 16.1066 174.982 16.4463L175.423 16.8709L175.423 16.871C175.599 17.0408 175.776 17.2106 175.952 17.2955C176.305 17.4653 176.658 17.7201 177.099 17.805C177.364 17.8899 177.717 17.8899 178.07 17.8899C179.04 19.0788 180.011 20.2676 180.805 21.4565C184.069 26.1271 186.363 31.5619 186.716 37.2515C186.981 42.1768 185.834 46.7624 183.893 51.2632C182.922 53.6409 181.687 55.9337 179.922 57.8868C178.158 59.84 176.04 61.3685 173.746 62.6423C169.335 65.0201 162.894 67.7375 156.807 69.6906L158.483 70.4549C162.012 68.8414 165.541 67.0581 168.276 66.0391Z" fill="#FFCB6D"/>
<defs>
<clipPath id="clip0_1715_14976">
<rect width="57.2729" height="9.05805" fill="white" transform="translate(70.0703 2.83008)"/>
</clipPath>
</defs>
</svg>
