<svg width="198" height="76" viewBox="0 0 198 76" fill="none" xmlns="http://www.w3.org/2000/svg">
<path d="M58.3399 27.6144V26.1171H67.262V27.6144H63.665V37.6455H61.9313V27.6144H58.3399ZM70.8526 37.82C70.042 37.82 69.3346 37.6342 68.7304 37.2627C68.1263 36.8912 67.6572 36.3715 67.3232 35.7035C66.9892 35.0355 66.8222 34.2549 66.8222 33.3618C66.8222 32.4648 66.9892 31.6805 67.3232 31.0088C67.6572 30.337 68.1263 29.8154 68.7304 29.4439C69.3346 29.0724 70.042 28.8866 70.8526 28.8866C71.6632 28.8866 72.3706 29.0724 72.9748 29.4439C73.579 29.8154 74.0481 30.337 74.3821 31.0088C74.7161 31.6805 74.8831 32.4648 74.8831 33.3618C74.8831 34.2549 74.7161 35.0355 74.3821 35.7035C74.0481 36.3715 73.579 36.8912 72.9748 37.2627C72.3706 37.6342 71.6632 37.82 70.8526 37.82ZM70.8583 36.4071C71.3836 36.4071 71.819 36.2683 72.1642 35.9905C72.5095 35.7128 72.7646 35.3432 72.9298 34.8816C73.0986 34.42 73.1831 33.9115 73.1831 33.3561C73.1831 32.8045 73.0986 32.2979 72.9298 31.8363C72.7646 31.3709 72.5095 30.9975 72.1642 30.7161C71.819 30.4346 71.3836 30.2939 70.8583 30.2939C70.3291 30.2939 69.89 30.4346 69.541 30.7161C69.1958 30.9975 68.9387 31.3709 68.7699 31.8363C68.6047 32.2979 68.5222 32.8045 68.5222 33.3561C68.5222 33.9115 68.6047 34.42 68.7699 34.8816C68.9387 35.3432 69.1958 35.7128 69.541 35.9905C69.89 36.2683 70.3291 36.4071 70.8583 36.4071ZM76.1277 40.8879V28.9992H77.7714V30.4008H77.9122C78.0097 30.2207 78.1505 30.0124 78.3343 29.776C78.5182 29.5396 78.7734 29.3332 79.0999 29.1568C79.4264 28.9767 79.8579 28.8866 80.3946 28.8866C81.0926 28.8866 81.7156 29.063 82.2635 29.4157C82.8114 29.7685 83.241 30.277 83.5525 30.9412C83.8678 31.6055 84.0254 32.4048 84.0254 33.3392C84.0254 34.2737 83.8696 35.0749 83.5582 35.7429C83.2467 36.4071 82.8189 36.9194 82.2747 37.2796C81.7306 37.6361 81.1095 37.8144 80.4115 37.8144C79.8861 37.8144 79.4564 37.7262 79.1224 37.5498C78.7922 37.3734 78.5332 37.167 78.3456 36.9306C78.158 36.6942 78.0135 36.484 77.9122 36.3001H77.8108V40.8879H76.1277ZM77.7771 33.3223C77.7771 33.9303 77.8652 34.4632 78.0416 34.921C78.218 35.3789 78.4732 35.7372 78.8072 35.9962C79.1412 36.2514 79.5502 36.379 80.0343 36.379C80.5372 36.379 80.9575 36.2457 81.2952 35.9793C81.633 35.7091 81.8882 35.3432 82.0608 34.8816C82.2372 34.42 82.3254 33.9003 82.3254 33.3223C82.3254 32.7519 82.2391 32.2397 82.0664 31.7856C81.8976 31.3315 81.6424 30.9731 81.3009 30.7104C80.9631 30.4477 80.5409 30.3164 80.0343 30.3164C79.5465 30.3164 79.1337 30.4421 78.7959 30.6936C78.4619 30.945 78.2086 31.2959 78.036 31.7462C77.8634 32.1965 77.7771 32.7219 77.7771 33.3223ZM95.2609 29.1455C95.2009 28.6127 94.9532 28.1999 94.5179 27.9071C94.0826 27.6107 93.5347 27.4624 92.8742 27.4624C92.4013 27.4624 91.9923 27.5375 91.647 27.6876C91.3018 27.834 91.0334 28.0366 90.8421 28.2956C90.6544 28.5507 90.5606 28.8416 90.5606 29.1681C90.5606 29.442 90.6244 29.6784 90.752 29.8773C90.8833 30.0762 91.0541 30.2432 91.2642 30.3783C91.4781 30.5097 91.7071 30.6204 91.951 30.7104C92.1949 30.7968 92.4295 30.8681 92.6546 30.9243L93.7805 31.2171C94.1482 31.3071 94.5254 31.4291 94.9119 31.583C95.2984 31.7368 95.6568 31.9395 95.9871 32.1909C96.3173 32.4423 96.5838 32.7538 96.7864 33.1253C96.9928 33.4969 97.096 33.9416 97.096 34.4594C97.096 35.1124 96.9271 35.6922 96.5894 36.1988C96.2554 36.7054 95.7694 37.1051 95.1314 37.3978C94.4972 37.6905 93.7298 37.8369 92.8291 37.8369C91.966 37.8369 91.2192 37.6999 90.5887 37.426C89.9583 37.152 89.4648 36.7636 89.1083 36.2607C88.7518 35.7541 88.5548 35.1537 88.5172 34.4594H90.2623C90.296 34.876 90.4311 35.2231 90.6676 35.5008C90.9077 35.7748 91.2136 35.9793 91.5851 36.1144C91.9604 36.2457 92.3713 36.3114 92.8179 36.3114C93.3095 36.3114 93.7467 36.2345 94.1295 36.0806C94.516 35.923 94.82 35.7053 95.0414 35.4276C95.2628 35.1462 95.3735 34.8178 95.3735 34.4425C95.3735 34.101 95.2759 33.8215 95.0808 33.6038C94.8894 33.3861 94.6286 33.206 94.2983 33.0634C93.9718 32.9208 93.6022 32.7951 93.1894 32.6863L91.8272 32.3147C90.904 32.0633 90.1722 31.6937 89.6318 31.2058C89.0952 30.7179 88.8268 30.0725 88.8268 29.2694C88.8268 28.6052 89.007 28.0254 89.3672 27.53C89.7275 27.0346 90.2154 26.65 90.8308 26.376C91.4462 26.0983 92.1405 25.9595 92.9136 25.9595C93.6941 25.9595 94.3828 26.0964 94.9795 26.3704C95.5799 26.6443 96.0527 27.0215 96.398 27.5018C96.7432 27.9784 96.9234 28.5263 96.9384 29.1455H95.2609ZM100.088 32.5118V37.6455H98.4054V26.1171H100.066V30.4065H100.173C100.376 29.9411 100.685 29.5715 101.102 29.2975C101.518 29.0236 102.062 28.8866 102.734 28.8866C103.327 28.8866 103.845 29.0086 104.288 29.2525C104.734 29.4964 105.08 29.8604 105.324 30.3445C105.571 30.8249 105.695 31.4253 105.695 32.1459V37.6455H104.012V32.3485C104.012 31.7143 103.849 31.2227 103.522 30.8737C103.196 30.5209 102.742 30.3445 102.16 30.3445C101.762 30.3445 101.406 30.429 101.09 30.5979C100.779 30.7667 100.533 31.0144 100.353 31.3409C100.177 31.6636 100.088 32.0539 100.088 32.5118ZM110.949 37.82C110.138 37.82 109.431 37.6342 108.827 37.2627C108.223 36.8912 107.754 36.3715 107.42 35.7035C107.086 35.0355 106.919 34.2549 106.919 33.3618C106.919 32.4648 107.086 31.6805 107.42 31.0088C107.754 30.337 108.223 29.8154 108.827 29.4439C109.431 29.0724 110.138 28.8866 110.949 28.8866C111.76 28.8866 112.467 29.0724 113.071 29.4439C113.675 29.8154 114.145 30.337 114.479 31.0088C114.813 31.6805 114.98 32.4648 114.98 33.3618C114.98 34.2549 114.813 35.0355 114.479 35.7035C114.145 36.3715 113.675 36.8912 113.071 37.2627C112.467 37.6342 111.76 37.82 110.949 37.82ZM110.955 36.4071C111.48 36.4071 111.915 36.2683 112.261 35.9905C112.606 35.7128 112.861 35.3432 113.026 34.8816C113.195 34.42 113.28 33.9115 113.28 33.3561C113.28 32.8045 113.195 32.2979 113.026 31.8363C112.861 31.3709 112.606 30.9975 112.261 30.7161C111.915 30.4346 111.48 30.2939 110.955 30.2939C110.426 30.2939 109.987 30.4346 109.637 30.7161C109.292 30.9975 109.035 31.3709 108.866 31.8363C108.701 32.2979 108.619 32.8045 108.619 33.3561C108.619 33.9115 108.701 34.42 108.866 34.8816C109.035 35.3432 109.292 35.7128 109.637 35.9905C109.987 36.2683 110.426 36.4071 110.955 36.4071ZM116.224 40.8879V28.9992H117.868V30.4008H118.009C118.106 30.2207 118.247 30.0124 118.431 29.776C118.615 29.5396 118.87 29.3332 119.196 29.1568C119.523 28.9767 119.954 28.8866 120.491 28.8866C121.189 28.8866 121.812 29.063 122.36 29.4157C122.908 29.7685 123.338 30.277 123.649 30.9412C123.964 31.6055 124.122 32.4048 124.122 33.3392C124.122 34.2737 123.966 35.0749 123.655 35.7429C123.343 36.4071 122.915 36.9194 122.371 37.2796C121.827 37.6361 121.206 37.8144 120.508 37.8144C119.983 37.8144 119.553 37.7262 119.219 37.5498C118.889 37.3734 118.63 37.167 118.442 36.9306C118.254 36.6942 118.11 36.484 118.009 36.3001H117.907V40.8879H116.224ZM117.874 33.3223C117.874 33.9303 117.962 34.4632 118.138 34.921C118.314 35.3789 118.57 35.7372 118.904 35.9962C119.238 36.2514 119.647 36.379 120.131 36.379C120.634 36.379 121.054 36.2457 121.392 35.9793C121.729 35.7091 121.985 35.3432 122.157 34.8816C122.334 34.42 122.422 33.9003 122.422 33.3223C122.422 32.7519 122.336 32.2397 122.163 31.7856C121.994 31.3315 121.739 30.9731 121.397 30.7104C121.06 30.4477 120.637 30.3164 120.131 30.3164C119.643 30.3164 119.23 30.4421 118.892 30.6936C118.558 30.945 118.305 31.2959 118.132 31.7462C117.96 32.1965 117.874 32.7219 117.874 33.3223ZM125.374 37.6455V28.9992H127.057V37.6455H125.374ZM126.224 27.6651C125.931 27.6651 125.679 27.5675 125.469 27.3724C125.263 27.1735 125.16 26.9371 125.16 26.6631C125.16 26.3854 125.263 26.149 125.469 25.9538C125.679 25.7549 125.931 25.6555 126.224 25.6555C126.516 25.6555 126.766 25.7549 126.972 25.9538C127.182 26.149 127.287 26.3854 127.287 26.6631C127.287 26.9371 127.182 27.1735 126.972 27.3724C126.766 27.5675 126.516 27.6651 126.224 27.6651ZM132.802 28.9992V30.3502H127.916V28.9992H132.802ZM129.255 37.6455V27.9972C129.255 27.4568 129.374 27.0084 129.61 26.6518C129.846 26.2916 130.16 26.0233 130.55 25.8469C130.94 25.6668 131.364 25.5767 131.822 25.5767C132.16 25.5767 132.449 25.6048 132.689 25.6611C132.929 25.7137 133.108 25.7624 133.224 25.8075L132.83 27.1697C132.751 27.1472 132.65 27.1209 132.526 27.0909C132.402 27.0571 132.252 27.0403 132.076 27.0403C131.667 27.0403 131.374 27.1416 131.197 27.3442C131.025 27.5469 130.939 27.8396 130.939 28.2224V37.6455H129.255ZM134.968 40.8879C134.717 40.8879 134.488 40.8672 134.281 40.826C134.075 40.7884 133.921 40.7471 133.82 40.7021L134.225 39.323C134.533 39.4055 134.807 39.4412 135.047 39.4299C135.287 39.4187 135.499 39.3286 135.683 39.1597C135.871 38.9909 136.036 38.715 136.178 38.3323L136.387 37.7581L133.223 28.9992H135.024L137.214 35.7091H137.304L139.494 28.9992H141.301L137.738 38.7995C137.573 39.2498 137.362 39.6307 137.107 39.9422C136.852 40.2574 136.548 40.4938 136.195 40.6515C135.843 40.8091 135.434 40.8879 134.968 40.8879ZM71.3025 55.82C70.4656 55.82 69.7451 55.6305 69.1409 55.2515C68.5405 54.8687 68.0789 54.3414 67.7561 53.6697C67.4334 52.9979 67.272 52.2286 67.272 51.3618C67.272 50.4836 67.4372 49.7087 67.7674 49.0369C68.0976 48.3614 68.563 47.8342 69.1634 47.4551C69.7639 47.0761 70.4712 46.8866 71.2856 46.8866C71.9423 46.8866 72.5277 47.0086 73.0419 47.2525C73.556 47.4927 73.9707 47.8304 74.2859 48.2657C74.6049 48.7011 74.7944 49.2096 74.8544 49.7912H73.2164C73.1263 49.3859 72.9199 49.0369 72.5972 48.7442C72.2782 48.4515 71.8504 48.3051 71.3137 48.3051C70.8446 48.3051 70.4337 48.429 70.081 48.6767C69.732 48.9206 69.4599 49.2696 69.2647 49.7237C69.0696 50.174 68.972 50.7069 68.972 51.3223C68.972 51.9528 69.0677 52.497 69.2591 52.9548C69.4505 53.4126 69.7207 53.7673 70.0697 54.0187C70.4225 54.2701 70.8371 54.3958 71.3137 54.3958C71.6327 54.3958 71.9217 54.3377 72.1806 54.2213C72.4433 54.1013 72.6628 53.9305 72.8392 53.7091C73.0194 53.4877 73.1451 53.2212 73.2164 52.9098H74.8544C74.7944 53.4689 74.6124 53.968 74.3084 54.4071C74.0045 54.8462 73.5973 55.1914 73.0869 55.4429C72.5803 55.6943 71.9855 55.82 71.3025 55.82ZM79.6623 55.82C78.8517 55.82 78.1443 55.6342 77.5402 55.2627C76.936 54.8912 76.4669 54.3715 76.1329 53.7035C75.7989 53.0355 75.6319 52.2549 75.6319 51.3618C75.6319 50.4648 75.7989 49.6805 76.1329 49.0088C76.4669 48.337 76.936 47.8154 77.5402 47.4439C78.1443 47.0724 78.8517 46.8866 79.6623 46.8866C80.4729 46.8866 81.1803 47.0724 81.7845 47.4439C82.3887 47.8154 82.8578 48.337 83.1918 49.0088C83.5258 49.6805 83.6928 50.4648 83.6928 51.3618C83.6928 52.2549 83.5258 53.0355 83.1918 53.7035C82.8578 54.3715 82.3887 54.8912 81.7845 55.2627C81.1803 55.6342 80.4729 55.82 79.6623 55.82ZM79.668 54.4071C80.1933 54.4071 80.6287 54.2683 80.9739 53.9905C81.3192 53.7128 81.5743 53.3432 81.7395 52.8816C81.9083 52.42 81.9928 51.9115 81.9928 51.3561C81.9928 50.8045 81.9083 50.2979 81.7395 49.8363C81.5743 49.3709 81.3192 48.9975 80.9739 48.7161C80.6287 48.4346 80.1933 48.2939 79.668 48.2939C79.1388 48.2939 78.6997 48.4346 78.3507 48.7161C78.0055 48.9975 77.7484 49.3709 77.5796 49.8363C77.4144 50.2979 77.3319 50.8045 77.3319 51.3561C77.3319 51.9115 77.4144 52.42 77.5796 52.8816C77.7484 53.3432 78.0055 53.7128 78.3507 53.9905C78.6997 54.2683 79.1388 54.4071 79.668 54.4071ZM84.9374 55.6455V46.9992H86.553V48.4065H86.6599C86.8401 47.9299 87.1347 47.5583 87.5437 47.2919C87.9528 47.0217 88.4425 46.8866 89.0129 46.8866C89.5908 46.8866 90.0749 47.0217 90.4652 47.2919C90.8593 47.5621 91.1501 47.9336 91.3377 48.4065H91.4278C91.6342 47.9449 91.9626 47.5771 92.4129 47.3032C92.8632 47.0255 93.3999 46.8866 94.0228 46.8866C94.8071 46.8866 95.447 47.1324 95.9423 47.624C96.4415 48.1156 96.691 48.8568 96.691 49.8475V55.6455H95.0079V50.0051C95.0079 49.4197 94.8484 48.9956 94.5294 48.733C94.2105 48.4703 93.8296 48.3389 93.3867 48.3389C92.8388 48.3389 92.4129 48.5078 92.1089 48.8455C91.8049 49.1795 91.653 49.6092 91.653 50.1346V55.6455H89.9755V49.8982C89.9755 49.4291 89.8291 49.0519 89.5364 48.7667C89.2437 48.4815 88.8628 48.3389 88.3937 48.3389C88.0747 48.3389 87.7801 48.4234 87.5099 48.5922C87.2435 48.7573 87.0277 48.9881 86.8626 49.2846C86.7012 49.5811 86.6205 49.9245 86.6205 50.3147V55.6455H84.9374ZM98.3128 58.8879V46.9992H99.9565V48.4008H100.097C100.195 48.2207 100.336 48.0124 100.519 47.776C100.703 47.5396 100.959 47.3332 101.285 47.1568C101.611 46.9767 102.043 46.8866 102.58 46.8866C103.278 46.8866 103.901 47.063 104.449 47.4157C104.996 47.7685 105.426 48.277 105.738 48.9412C106.053 49.6055 106.21 50.4048 106.21 51.3392C106.21 52.2737 106.055 53.0749 105.743 53.7429C105.432 54.4071 105.004 54.9194 104.46 55.2796C103.916 55.6361 103.295 55.8144 102.597 55.8144C102.071 55.8144 101.641 55.7262 101.308 55.5498C100.977 55.3734 100.718 55.167 100.531 54.9306C100.343 54.6942 100.199 54.484 100.097 54.3001H99.9959V58.8879H98.3128ZM99.9621 51.3223C99.9621 51.9303 100.05 52.4632 100.227 52.921C100.403 53.3789 100.658 53.7372 100.992 53.9962C101.326 54.2514 101.735 54.379 102.219 54.379C102.722 54.379 103.143 54.2457 103.48 53.9793C103.818 53.7091 104.073 53.3432 104.246 52.8816C104.422 52.42 104.51 51.9003 104.51 51.3223C104.51 50.7519 104.424 50.2397 104.252 49.7856C104.083 49.3315 103.827 48.9731 103.486 48.7104C103.148 48.4477 102.726 48.3164 102.219 48.3164C101.732 48.3164 101.319 48.4421 100.981 48.6936C100.647 48.945 100.394 49.2959 100.221 49.7462C100.048 50.1965 99.9621 50.7219 99.9621 51.3223ZM109.978 55.8369C109.43 55.8369 108.935 55.7356 108.492 55.5329C108.049 55.3265 107.699 55.0282 107.44 54.6379C107.184 54.2476 107.057 53.7691 107.057 53.2025C107.057 52.7146 107.151 52.3131 107.338 51.9978C107.526 51.6826 107.779 51.4331 108.098 51.2492C108.417 51.0653 108.774 50.9264 109.168 50.8326C109.562 50.7388 109.963 50.6675 110.372 50.6187C110.89 50.5587 111.311 50.5099 111.633 50.4724C111.956 50.4311 112.191 50.3654 112.337 50.2753C112.483 50.1853 112.557 50.0389 112.557 49.8363V49.7969C112.557 49.3052 112.418 48.9243 112.14 48.6541C111.866 48.384 111.457 48.2489 110.913 48.2489C110.346 48.2489 109.9 48.3746 109.573 48.626C109.25 48.8737 109.027 49.1495 108.903 49.4535L107.321 49.0932C107.509 48.5678 107.783 48.1438 108.143 47.821C108.507 47.4946 108.926 47.2581 109.399 47.1118C109.871 46.9617 110.369 46.8866 110.89 46.8866C111.236 46.8866 111.601 46.9279 111.988 47.0104C112.378 47.0893 112.742 47.2356 113.08 47.4495C113.422 47.6634 113.701 47.9693 113.919 48.3671C114.136 48.7611 114.245 49.2734 114.245 49.9038V55.6455H112.602V54.4634H112.534C112.425 54.6811 112.262 54.895 112.044 55.1051C111.827 55.3153 111.547 55.4898 111.206 55.6286C110.864 55.7675 110.455 55.8369 109.978 55.8369ZM110.344 54.4859C110.81 54.4859 111.207 54.394 111.538 54.2101C111.872 54.0262 112.125 53.786 112.298 53.4896C112.474 53.1893 112.562 52.8685 112.562 52.527V51.4124C112.502 51.4725 112.386 51.5287 112.213 51.5813C112.044 51.6301 111.851 51.6732 111.633 51.7108C111.416 51.7445 111.204 51.7764 110.997 51.8065C110.791 51.8327 110.618 51.8552 110.479 51.874C110.153 51.9153 109.855 51.9847 109.584 52.0823C109.318 52.1799 109.104 52.3206 108.943 52.5045C108.785 52.6846 108.706 52.9248 108.706 53.225C108.706 53.6415 108.86 53.9568 109.168 54.1707C109.476 54.3808 109.868 54.4859 110.344 54.4859ZM117.536 50.5118V55.6455H115.853V46.9992H117.469V48.4065H117.575C117.774 47.9486 118.086 47.5809 118.51 47.3032C118.938 47.0255 119.476 46.8866 120.125 46.8866C120.715 46.8866 121.231 47.0104 121.673 47.2581C122.116 47.5021 122.46 47.8661 122.704 48.3502C122.948 48.8343 123.069 49.4328 123.069 50.1459V55.6455H121.386V50.3485C121.386 49.7218 121.223 49.2321 120.897 48.8793C120.57 48.5228 120.122 48.3445 119.551 48.3445C119.161 48.3445 118.814 48.429 118.51 48.5979C118.21 48.7667 117.971 49.0144 117.795 49.3409C117.622 49.6636 117.536 50.0539 117.536 50.5118ZM125.447 58.8879C125.196 58.8879 124.967 58.8672 124.76 58.826C124.554 58.7884 124.4 58.7471 124.299 58.7021L124.704 57.323C125.012 57.4055 125.286 57.4412 125.526 57.4299C125.766 57.4187 125.978 57.3286 126.162 57.1597C126.35 56.9909 126.515 56.715 126.657 56.3323L126.866 55.7581L123.702 46.9992H125.503L127.693 53.7091H127.783L129.973 46.9992H131.78L128.217 56.7995C128.051 57.2498 127.841 57.6307 127.586 57.9422C127.331 58.2574 127.027 58.4938 126.674 58.6515C126.321 58.8091 125.912 58.8879 125.447 58.8879Z" fill="white"/>
<path d="M72.7096 66.642H73.5821V70.4332C73.5821 70.8367 73.4873 71.1941 73.2978 71.5056C73.1083 71.8152 72.8419 72.0591 72.4985 72.2374C72.1551 72.4138 71.7526 72.5019 71.291 72.5019C70.8313 72.5019 70.4298 72.4138 70.0864 72.2374C69.743 72.0591 69.4766 71.8152 69.2871 71.5056C69.0976 71.1941 69.0028 70.8367 69.0028 70.4332V66.642H69.8725V70.3629C69.8725 70.6237 69.9297 70.8554 70.0442 71.0581C70.1605 71.2607 70.3247 71.4202 70.5367 71.5366C70.7488 71.651 71.0002 71.7082 71.291 71.7082C71.5838 71.7082 71.8361 71.651 72.0482 71.5366C72.2621 71.4202 72.4253 71.2607 72.5379 71.0581C72.6524 70.8554 72.7096 70.6237 72.7096 70.3629V66.642ZM74.6088 72.4062V66.642H75.4785V69.3947H75.5488L77.9665 66.642H79.0614L76.7366 69.2371L79.0698 72.4062H78.0228L76.1596 69.8309L75.4785 70.6134V72.4062H74.6088ZM80.6615 71.6182L80.6193 71.925C80.5912 72.1501 80.5433 72.3847 80.4758 72.6286C80.4101 72.8744 80.3416 73.1024 80.2703 73.3125C80.2009 73.5227 80.1436 73.6897 80.0986 73.8135H79.5019C79.5263 73.6972 79.5601 73.5396 79.6032 73.3407C79.6464 73.1437 79.6886 72.9232 79.7299 72.6793C79.7712 72.4353 79.8021 72.1867 79.8228 71.9334L79.8509 71.6182H80.6615ZM88.2342 68.5165H87.3561C87.3223 68.3289 87.2594 68.1638 87.1675 68.0212C87.0755 67.8786 86.963 67.7575 86.8297 67.6581C86.6965 67.5586 86.5473 67.4836 86.3822 67.4329C86.219 67.3823 86.0454 67.3569 85.8615 67.3569C85.5294 67.3569 85.232 67.4404 84.9693 67.6074C84.7085 67.7744 84.5021 68.0193 84.3501 68.342C84.2 68.6648 84.1249 69.0588 84.1249 69.5241C84.1249 69.9932 84.2 70.3892 84.3501 70.7119C84.5021 71.0346 84.7094 71.2786 84.9721 71.4437C85.2348 71.6088 85.5303 71.6914 85.8587 71.6914C86.0407 71.6914 86.2133 71.667 86.3766 71.6182C86.5417 71.5675 86.6909 71.4934 86.8241 71.3958C86.9573 71.2983 87.0699 71.1791 87.1618 71.0384C87.2557 70.8958 87.3204 70.7325 87.3561 70.5486L88.2342 70.5515C88.1873 70.8348 88.0963 71.0956 87.9612 71.3339C87.828 71.5703 87.6563 71.7749 87.4461 71.9475C87.2378 72.1182 86.9995 72.2505 86.7312 72.3443C86.4629 72.4381 86.1702 72.4851 85.8531 72.4851C85.354 72.4851 84.9093 72.3668 84.519 72.1304C84.1287 71.8921 83.821 71.5516 83.5958 71.1087C83.3725 70.6659 83.2609 70.1377 83.2609 69.5241C83.2609 68.9087 83.3735 68.3805 83.5986 67.9395C83.8238 67.4967 84.1315 67.1571 84.5218 66.9207C84.9121 66.6824 85.3558 66.5632 85.8531 66.5632C86.1589 66.5632 86.4441 66.6073 86.7087 66.6955C86.9752 66.7818 87.2144 66.9094 87.4264 67.0783C87.6384 67.2453 87.8139 67.4498 87.9527 67.6919C88.0916 67.932 88.1854 68.2069 88.2342 68.5165ZM89.8111 66.642V72.4062H88.9696V66.642H89.8111ZM93.4441 70.6134V68.0831H94.2884V72.4062H93.4609V71.6576H93.4159C93.3165 71.8884 93.157 72.0807 92.9374 72.2346C92.7198 72.3865 92.4486 72.4625 92.124 72.4625C91.8463 72.4625 91.6005 72.4016 91.3866 72.2796C91.1746 72.1558 91.0076 71.9728 90.8856 71.7308C90.7655 71.4887 90.7055 71.1894 90.7055 70.8329V68.0831H91.547V70.7316C91.547 71.0262 91.6287 71.2607 91.7919 71.4352C91.9552 71.6097 92.1672 71.697 92.428 71.697C92.5856 71.697 92.7423 71.6576 92.898 71.5788C93.0556 71.5 93.1861 71.3808 93.2893 71.2213C93.3943 71.0618 93.4459 70.8592 93.4441 70.6134ZM97.1994 68.0831V68.7586H94.838V68.0831H97.1994ZM95.4713 67.0473H96.3128V71.1369C96.3128 71.3001 96.3372 71.423 96.386 71.5056C96.4348 71.5863 96.4977 71.6416 96.5746 71.6717C96.6534 71.6998 96.7388 71.7139 96.8307 71.7139C96.8983 71.7139 96.9574 71.7092 97.008 71.6998C97.0587 71.6904 97.0981 71.6829 97.1263 71.6773L97.2782 72.3725C97.2295 72.3912 97.16 72.41 97.07 72.4288C96.9799 72.4494 96.8673 72.4607 96.7322 72.4625C96.5108 72.4663 96.3044 72.4269 96.113 72.3443C95.9216 72.2618 95.7668 72.1342 95.6486 71.9616C95.5304 71.7889 95.4713 71.5722 95.4713 71.3114V67.0473ZM99.6671 72.4935C99.2487 72.4935 98.8885 72.3987 98.5864 72.2092C98.2861 72.0178 98.0553 71.7542 97.894 71.4183C97.7326 71.0825 97.6519 70.6978 97.6519 70.2644C97.6519 69.8253 97.7345 69.4378 97.8996 69.102C98.0647 68.7642 98.2974 68.5006 98.5976 68.3111C98.8978 68.1216 99.2515 68.0268 99.6587 68.0268C99.9871 68.0268 100.28 68.0878 100.537 68.2097C100.794 68.3298 101.001 68.4987 101.159 68.7164C101.318 68.934 101.413 69.1883 101.443 69.4791H100.624C100.579 69.2765 100.476 69.102 100.314 68.9556C100.155 68.8092 99.9411 68.7361 99.6728 68.7361C99.4382 68.7361 99.2328 68.798 99.0564 68.9218C98.8819 69.0438 98.7459 69.2183 98.6483 69.4453C98.5507 69.6705 98.5019 69.9369 98.5019 70.2447C98.5019 70.5599 98.5498 70.832 98.6455 71.0609C98.7412 71.2898 98.8763 71.4671 99.0508 71.5928C99.2271 71.7186 99.4345 71.7814 99.6728 71.7814C99.8323 71.7814 99.9768 71.7523 100.106 71.6942C100.238 71.6341 100.347 71.5487 100.436 71.438C100.526 71.3273 100.588 71.1941 100.624 71.0384H101.443C101.413 71.318 101.322 71.5675 101.17 71.787C101.018 72.0066 100.815 72.1792 100.559 72.3049C100.306 72.4306 100.009 72.4935 99.6671 72.4935ZM102.947 69.8394V72.4062H102.105V66.642H102.936V68.7867H102.989C103.09 68.5541 103.245 68.3692 103.453 68.2323C103.662 68.0953 103.934 68.0268 104.27 68.0268C104.566 68.0268 104.825 68.0878 105.047 68.2097C105.27 68.3317 105.442 68.5137 105.564 68.7558C105.688 68.9959 105.75 69.2962 105.75 69.6564V72.4062H104.909V69.7578C104.909 69.4406 104.827 69.1948 104.664 69.0203C104.501 68.844 104.273 68.7558 103.983 68.7558C103.784 68.7558 103.605 68.798 103.448 68.8824C103.292 68.9669 103.169 69.0907 103.079 69.2539C102.991 69.4153 102.947 69.6105 102.947 69.8394ZM107.73 71.6182L107.688 71.925C107.66 72.1501 107.612 72.3847 107.545 72.6286C107.479 72.8744 107.41 73.1024 107.339 73.3125C107.27 73.5227 107.212 73.6897 107.167 73.8135H106.571C106.595 73.6972 106.629 73.5396 106.672 73.3407C106.715 73.1437 106.757 72.9232 106.799 72.6793C106.84 72.4353 106.871 72.1867 106.892 71.9334L106.92 71.6182H107.73ZM110.437 72.4062V71.7758L112.387 69.7549C112.595 69.5354 112.767 69.3431 112.902 69.178C113.039 69.011 113.141 68.8524 113.209 68.7023C113.276 68.5522 113.31 68.3927 113.31 68.2238C113.31 68.0324 113.265 67.8673 113.175 67.7285C113.085 67.5877 112.962 67.4798 112.806 67.4048C112.651 67.3279 112.475 67.2894 112.28 67.2894C112.074 67.2894 111.894 67.3316 111.74 67.416C111.586 67.5005 111.468 67.6196 111.385 67.7735C111.303 67.9274 111.261 68.1075 111.261 68.3139H110.431C110.431 67.963 110.512 67.6562 110.673 67.3935C110.834 67.1308 111.056 66.9272 111.337 66.7828C111.619 66.6364 111.939 66.5632 112.297 66.5632C112.659 66.5632 112.978 66.6355 113.254 66.78C113.532 66.9226 113.748 67.1177 113.904 67.3654C114.06 67.6112 114.138 67.8889 114.138 68.1985C114.138 68.4124 114.097 68.6216 114.017 68.8261C113.938 69.0307 113.8 69.2586 113.603 69.5101C113.406 69.7596 113.132 70.0627 112.781 70.4192L111.636 71.6182V71.6604H114.231V72.4062H110.437ZM117.066 72.5019C116.622 72.5001 116.242 72.3828 115.926 72.1501C115.611 71.9175 115.37 71.5788 115.203 71.1341C115.036 70.6894 114.953 70.1537 114.953 69.527C114.953 68.9021 115.036 68.3683 115.203 67.9255C115.372 67.4827 115.614 67.1449 115.929 66.9122C116.246 66.6796 116.625 66.5632 117.066 66.5632C117.507 66.5632 117.885 66.6805 118.201 66.915C118.516 67.1477 118.757 67.4855 118.924 67.9283C119.093 68.3692 119.177 68.9021 119.177 69.527C119.177 70.1555 119.094 70.6922 118.927 71.1369C118.76 71.5797 118.519 71.9184 118.203 72.1529C117.888 72.3856 117.509 72.5019 117.066 72.5019ZM117.066 71.7505C117.457 71.7505 117.762 71.56 117.981 71.1791C118.202 70.7982 118.313 70.2475 118.313 69.527C118.313 69.0485 118.263 68.6441 118.161 68.3139C118.062 67.9818 117.918 67.7303 117.731 67.5596C117.545 67.387 117.323 67.3006 117.066 67.3006C116.678 67.3006 116.373 67.492 116.152 67.8748C115.93 68.2576 115.819 68.8083 115.817 69.527C115.817 70.0073 115.866 70.4135 115.966 70.7457C116.067 71.0759 116.211 71.3264 116.396 71.4971C116.582 71.666 116.806 71.7505 117.066 71.7505ZM119.938 72.4062V71.7758L121.888 69.7549C122.097 69.5354 122.268 69.3431 122.403 69.178C122.54 69.011 122.643 68.8524 122.71 68.7023C122.778 68.5522 122.812 68.3927 122.812 68.2238C122.812 68.0324 122.767 67.8673 122.676 67.7285C122.586 67.5877 122.464 67.4798 122.308 67.4048C122.152 67.3279 121.977 67.2894 121.781 67.2894C121.575 67.2894 121.395 67.3316 121.241 67.416C121.087 67.5005 120.969 67.6196 120.886 67.7735C120.804 67.9274 120.763 68.1075 120.763 68.3139H119.932C119.932 67.963 120.013 67.6562 120.174 67.3935C120.336 67.1308 120.557 66.9272 120.839 66.7828C121.12 66.6364 121.44 66.5632 121.798 66.5632C122.16 66.5632 122.479 66.6355 122.755 66.78C123.033 66.9226 123.25 67.1177 123.405 67.3654C123.561 67.6112 123.639 67.8889 123.639 68.1985C123.639 68.4124 123.599 68.6216 123.518 68.8261C123.439 69.0307 123.301 69.2586 123.104 69.5101C122.907 69.7596 122.633 70.0627 122.282 70.4192L121.137 71.6182V71.6604H123.732V72.4062H119.938ZM126.568 72.4851C126.181 72.4851 125.836 72.4184 125.532 72.2852C125.23 72.152 124.991 71.9672 124.814 71.7308C124.64 71.4925 124.546 71.2166 124.533 70.9033H125.417C125.428 71.074 125.485 71.2223 125.588 71.348C125.693 71.4718 125.83 71.5675 125.999 71.6351C126.168 71.7026 126.356 71.7364 126.562 71.7364C126.789 71.7364 126.99 71.697 127.164 71.6182C127.341 71.5394 127.479 71.4296 127.578 71.2889C127.678 71.1463 127.727 70.9821 127.727 70.7963C127.727 70.6031 127.678 70.4332 127.578 70.2869C127.481 70.1387 127.337 70.0223 127.147 69.9379C126.96 69.8534 126.733 69.8112 126.466 69.8112H125.979V69.102H126.466C126.68 69.102 126.868 69.0635 127.029 68.9866C127.192 68.9096 127.32 68.8027 127.412 68.6657C127.504 68.5269 127.55 68.3645 127.55 68.1788C127.55 68.0005 127.51 67.8457 127.429 67.7144C127.35 67.5812 127.238 67.477 127.091 67.402C126.947 67.3269 126.776 67.2894 126.579 67.2894C126.391 67.2894 126.216 67.3241 126.053 67.3935C125.891 67.4611 125.76 67.5586 125.659 67.6862C125.557 67.812 125.503 67.963 125.495 68.1394H124.654C124.663 67.8279 124.755 67.554 124.93 67.3175C125.106 67.0811 125.339 66.8963 125.628 66.7631C125.917 66.6298 126.237 66.5632 126.59 66.5632C126.96 66.5632 127.279 66.6355 127.547 66.78C127.817 66.9226 128.026 67.113 128.172 67.3513C128.32 67.5896 128.393 67.8504 128.391 68.1338C128.393 68.4565 128.303 68.7304 128.121 68.9556C127.941 69.1808 127.701 69.3318 127.401 69.4087V69.4538C127.784 69.5119 128.08 69.6639 128.29 69.9097C128.502 70.1555 128.607 70.4605 128.605 70.8245C128.607 71.1416 128.519 71.4258 128.341 71.6773C128.164 71.9287 127.923 72.1267 127.617 72.2712C127.312 72.4138 126.962 72.4851 126.568 72.4851Z" fill="#B4B5BB"/>
<path d="M31.0198 67.1433C30.5787 66.8036 30.1376 66.5489 29.6964 66.379C29.2553 66.2092 28.8141 66.1243 28.2848 66.1243C27.3143 66.0394 26.2555 66.2941 25.1968 66.464C24.1381 66.7187 23.1676 66.9735 22.4617 67.2282C21.7559 67.483 21.2266 67.6528 21.2266 67.6528C21.2266 67.6528 21.6677 67.9076 22.4617 68.2473C23.1676 68.5869 24.2263 68.9266 25.3733 69.0965C26.5202 69.2663 27.6672 69.2663 28.7259 69.0115C29.8729 68.7568 30.7552 68.1623 31.0198 67.1433Z" fill="#FFCB6D"/>
<path d="M27.9347 62.8117C28.3758 63.6609 28.9052 64.5101 29.6992 65.0196C30.0521 65.2744 30.4933 65.5291 30.9344 65.6141C31.3755 65.699 31.9049 65.699 32.3461 65.4442C32.3461 64.4252 32.0814 63.576 31.6402 62.8966C31.1991 62.2173 30.4933 61.5379 29.8757 61.0284C29.1699 60.5189 28.5523 60.0943 28.0229 59.7546C27.4935 59.415 27.1406 59.2451 27.1406 59.2451C27.1406 59.2451 27.1406 59.33 27.1406 59.5848C27.1406 59.7546 27.2289 60.0094 27.2289 60.3491C27.3171 61.0284 27.4935 61.8776 27.9347 62.8117Z" fill="#FFCB6D"/>
<path d="M20.5169 65.1048C21.5756 65.0199 22.4579 64.6803 23.0755 63.8311C22.5461 62.9819 21.752 62.4724 20.8698 62.2176C19.9875 61.9628 18.8405 61.8779 17.7818 61.8779C16.7231 61.8779 15.6643 61.8779 14.8703 61.8779C14.0762 61.8779 13.5469 61.8779 13.5469 61.8779C13.5469 61.8779 13.6351 61.9628 13.8115 62.1327C13.988 62.3025 14.2527 62.5573 14.6056 62.812C15.3114 63.3215 16.1937 63.916 17.2524 64.4255C18.3994 64.8501 19.5464 65.1048 20.5169 65.1048Z" fill="#FFCB6D"/>
<path d="M22.4653 61.1991C23.0829 61.8785 23.8769 62.388 24.8474 62.3031C25.2886 61.3689 25.2004 60.4348 24.9357 59.5856C24.671 58.7364 24.1416 57.9722 23.7005 57.2928C23.1711 56.6135 22.73 56.104 22.2888 55.6794C22.1124 55.5095 21.9359 55.3397 21.8477 55.1698C21.7595 55.0849 21.6712 55 21.6712 55C21.6712 55 21.6712 55.0849 21.583 55.2548C21.4948 55.4246 21.4948 55.6794 21.4066 56.019C21.3183 56.6984 21.2301 57.5476 21.4066 58.4817C21.583 59.5007 21.9359 60.4348 22.4653 61.1991Z" fill="#FFCB6D"/>
<path d="M9.9305 54.1502C9.22467 53.8955 8.69531 53.8105 8.69531 53.8105C8.69531 53.8105 8.78352 53.8955 8.87175 54.1502C8.95998 54.3201 9.13644 54.5748 9.31289 54.9145C9.48935 55.2542 9.75405 55.5938 10.0187 56.0184C10.1952 56.1883 10.2834 56.443 10.4599 56.6129L10.5481 56.7827L10.7245 56.9526C10.8128 57.0375 10.901 57.2073 10.9892 57.2922C11.8715 58.2263 12.9302 58.9906 13.9007 59.3303C14.9595 59.67 15.93 59.5851 16.8122 58.9057C16.5476 57.8867 16.0182 57.2073 15.2242 56.6978C15.0477 56.528 14.783 56.443 14.6066 56.2732C14.4301 56.1034 14.1654 56.0184 13.9007 55.8486C13.6361 55.6788 13.4596 55.5938 13.1949 55.424C12.9302 55.3391 12.7538 55.1693 12.4891 55.0843C11.6068 54.6597 10.6363 54.3201 9.9305 54.1502Z" fill="#FFCB6D"/>
<path d="M17.0827 55.8486C17.3474 56.6978 17.965 57.3772 18.9355 57.6319C19.6413 56.8676 19.8178 55.9335 19.906 55.1692C19.9942 54.3201 19.8178 53.5558 19.7295 52.8764C19.7295 52.6217 19.5531 52.1122 19.4648 51.7725C19.3766 51.4328 19.2002 51.0931 19.1119 50.7535C19.0237 50.4987 18.9355 50.2439 18.8473 50.0741C18.759 49.9043 18.759 49.8193 18.759 49.8193C18.759 49.8193 18.6708 49.9043 18.5826 50.0741C18.4943 50.2439 18.3179 50.4987 18.1414 50.7535C17.7885 51.3479 17.4356 52.1971 17.1709 53.0463C17.0827 53.301 17.0827 53.4709 16.9945 53.7256C16.9063 53.9804 16.9062 54.1502 16.9062 54.405C16.9062 54.6597 16.9062 54.8296 16.9062 55.0843C16.9062 55.424 16.9945 55.6788 17.0827 55.8486Z" fill="#FFCB6D"/>
<path d="M8.87662 50.6683C9.05307 50.8382 9.22953 51.008 9.40599 51.1779C9.58244 51.3477 9.84714 51.5175 10.0236 51.6025C10.9059 52.112 11.7881 52.3667 12.8469 52.0271C12.9351 51.5175 12.9351 51.0929 12.7586 50.6683C12.6704 50.4985 12.5822 50.2438 12.494 50.0739C12.4057 49.9041 12.2293 49.7342 12.1411 49.4795C11.6117 48.7152 10.7294 48.1208 9.93536 47.5263C9.14131 46.9319 8.25902 46.4224 7.5532 46.0827C6.84738 45.743 6.40625 45.4883 6.40625 45.4883C6.40625 45.4883 6.40626 45.5732 6.49448 45.828C6.58271 46.0827 6.67093 46.3375 6.75916 46.6771C7.02384 47.3565 7.37674 48.3755 7.99434 49.2247C8.17079 49.8192 8.5237 50.2437 8.87662 50.6683Z" fill="#FFCB6D"/>
<path d="M14.3451 50.2437C14.5215 50.6683 14.8745 51.008 15.2274 51.2628C16.1096 50.7533 16.639 49.989 16.9919 49.1398C17.0802 48.97 17.0801 48.7152 17.1684 48.5453C17.1684 48.4604 17.1684 48.2906 17.2566 48.2057C17.2566 48.1208 17.2566 47.9509 17.3448 47.866C17.4331 47.4414 17.4331 47.0168 17.4331 46.5922C17.3448 45.743 17.3448 44.9787 17.1684 44.3843C17.0801 44.1296 17.0802 43.8748 16.9919 43.705C16.9919 43.5351 16.9037 43.4502 16.9037 43.4502C16.9037 43.4502 16.8155 43.5351 16.639 43.705C16.4626 43.8748 16.2861 44.0446 16.1096 44.2994C15.6685 44.8089 15.1391 45.5732 14.698 46.4224C14.2569 47.2716 13.9922 48.2057 13.9922 49.1398C13.9922 49.3945 13.9922 49.5644 14.0804 49.8191C14.1686 49.9041 14.2569 50.0739 14.3451 50.2437Z" fill="#FFCB6D"/>
<path d="M7.021 42.6017C7.10922 42.8565 7.28568 43.0263 7.46214 43.2811C7.63859 43.4509 7.81505 43.7057 7.99151 43.8755C8.69733 44.5549 9.57961 44.9795 10.6383 44.8096C10.8148 44.385 10.903 43.8755 10.8148 43.4509C10.8148 43.1962 10.7266 43.0263 10.6383 42.7716C10.5501 42.6017 10.4619 42.347 10.3737 42.1771C10.1972 41.7525 9.93253 41.3279 9.57962 40.9883C9.40317 40.8184 9.22671 40.5637 9.13848 40.3938C8.96203 40.224 8.78557 40.0542 8.60911 39.7994C7.90329 39.0351 7.10922 38.3558 6.57986 37.8463C6.05049 37.3367 5.60938 36.9971 5.60938 36.9971C5.60938 36.9971 5.60938 37.5066 5.60938 38.2709C5.60938 38.6955 5.69759 39.1201 5.78581 39.5446C5.87404 39.7994 5.87405 40.0542 5.96228 40.3089C6.05051 40.5637 6.0505 40.8184 6.22695 41.0732C6.57986 41.5827 6.84454 42.0922 7.021 42.6017Z" fill="#FFCB6D"/>
<path d="M13.2003 44.2153C14.1708 43.8756 14.8766 43.1962 15.3178 42.5169C15.406 42.347 15.4942 42.1772 15.5825 41.9224C15.6707 41.7526 15.7589 41.4978 15.8471 41.328C16.0236 40.9034 16.1118 40.4788 16.2001 40.1391C16.2883 39.7145 16.3765 39.3749 16.3765 38.9503C16.3765 38.7804 16.3765 38.6106 16.4647 38.4407C16.4647 38.2709 16.4647 38.1011 16.4647 38.0161C16.553 37.4217 16.553 37.082 16.553 37.082C16.553 37.082 16.2 37.2519 15.5825 37.6765C15.406 37.7614 15.3178 37.8463 15.1413 38.0161C14.9649 38.1011 14.7884 38.2709 14.7002 38.4407C14.3473 38.6955 14.0826 39.0352 13.7297 39.3749C13.5532 39.5447 13.465 39.7145 13.2885 39.9693C13.2003 40.0542 13.1121 40.1391 13.1121 40.309C13.0239 40.3939 13.0238 40.4788 12.9356 40.6486C12.7592 41.0732 12.5827 41.4978 12.4945 41.9224C12.4945 42.1772 12.4062 42.347 12.4062 42.6018C12.4062 42.8565 12.4945 43.0264 12.4945 43.1962C12.6709 43.451 12.8474 43.8756 13.2003 44.2153Z" fill="#FFCB6D"/>
<path d="M9.48829 31.9017C9.2236 31.4771 8.9589 31.0525 8.78245 30.6279C8.51777 30.2033 8.25309 29.8636 8.07664 29.5239C7.6355 28.9295 7.37083 28.5049 7.37083 28.5049C7.37083 28.5049 7.19435 29.0144 7.10613 29.7787C7.0179 30.1183 7.01792 30.6279 6.92969 31.0525C6.92969 31.3072 6.92969 31.562 6.92969 31.8167C6.92969 32.0715 6.92969 32.3262 6.92969 32.581C7.01792 33.0905 7.0179 33.6 7.19436 34.1095C7.37082 34.6191 7.54728 35.1286 7.81196 35.4683C8.34133 36.3174 9.13536 36.9119 10.1941 36.9968C10.3706 36.827 10.4588 36.5722 10.547 36.4024C10.6352 36.2325 10.7235 35.9778 10.7235 35.8079C10.8117 35.3833 10.7235 34.9587 10.6352 34.5341C10.547 34.1095 10.3706 33.6 10.1941 33.1754C10.0176 32.8358 9.75297 32.3262 9.48829 31.9017Z" fill="#FFCB6D"/>
<path d="M15.2295 35.8081C15.5825 35.4684 15.8471 35.2137 16.0236 34.7891C16.2883 34.4494 16.4647 34.1097 16.6412 33.6851C16.7294 33.5153 16.8176 33.3455 16.9059 33.1756C16.9941 33.0058 17.0823 32.8359 17.1705 32.6661C17.347 32.3264 17.4352 32.0717 17.5235 31.732C17.6999 31.2225 17.7881 30.8828 17.7881 30.8828C17.7881 30.8828 17.347 30.9677 16.7294 31.2225C16.1118 31.4772 15.3178 31.8169 14.5237 32.4113C14.3473 32.5812 14.1708 32.6661 13.9944 32.8359C13.8179 33.0058 13.6414 33.1756 13.465 33.3455C13.1121 33.6851 12.8474 34.1097 12.6709 34.4494C12.4945 34.874 12.4062 35.2986 12.4062 35.7232C12.4062 35.893 12.4063 36.1478 12.4945 36.3176C12.5827 36.4875 12.6709 36.7422 12.7592 36.9121C13.8179 36.8271 14.612 36.4026 15.2295 35.8081Z" fill="#FFCB6D"/>
<path d="M12.139 29.1844C12.3155 29.0145 12.4037 28.8447 12.4919 28.5899C12.5802 28.4201 12.6684 28.1653 12.6684 27.9955C12.6684 27.8256 12.7566 27.5709 12.7566 27.3161C12.7566 26.8915 12.7566 26.382 12.6684 25.8725C12.5802 25.363 12.4919 24.9384 12.4037 24.4289C12.139 23.4948 11.8743 22.5606 11.6096 21.8813C11.345 21.2019 11.1685 20.7773 11.1685 20.7773C11.1685 20.7773 11.0803 20.8623 10.992 21.0321C10.9038 21.2019 10.7274 21.5416 10.5509 21.8813C10.198 22.5606 9.84508 23.4948 9.66863 24.5138C9.5804 25.0233 9.49219 25.5328 9.49219 26.0423C9.49219 26.2971 9.49219 26.5519 9.58042 26.8066C9.58042 27.0614 9.66863 27.3161 9.75686 27.5709C9.93332 27.9955 10.1098 28.4201 10.4627 28.8447C10.8156 29.1843 11.1685 29.524 11.6979 29.6939C11.8743 29.6089 12.0508 29.4391 12.139 29.1844Z" fill="#FFCB6D"/>
<path d="M20.5188 25.5321C20.607 25.3623 20.6952 25.2773 20.6952 25.2773C20.6952 25.2773 20.607 25.2773 20.3423 25.2773C20.1658 25.2773 19.9012 25.2773 19.5483 25.3623C19.1953 25.3623 18.8424 25.4472 18.4013 25.5321C18.2249 25.617 17.9602 25.617 17.7837 25.7019C17.6072 25.7869 17.3426 25.8718 17.1661 25.9567C16.725 26.1265 16.2838 26.2964 15.8427 26.5511C15.4898 26.8059 15.1369 27.1456 14.784 27.4003C14.6075 27.5702 14.5193 27.74 14.4311 27.9098C14.3428 28.0797 14.2546 28.3344 14.1664 28.5043C14.0781 28.6741 14.0781 28.9289 14.0781 29.0987C14.0781 29.3535 14.1664 29.5233 14.1664 29.7781C14.6957 29.863 15.1369 29.863 15.578 29.7781C16.0191 29.6931 16.4603 29.5233 16.8132 29.2685C16.9896 29.1836 17.1661 29.0138 17.3426 28.9289C17.4308 28.844 17.519 28.759 17.6072 28.759C17.6955 28.6741 17.7837 28.5892 17.8719 28.5892C18.2248 28.3344 18.4895 27.9948 18.7542 27.74C19.0189 27.4003 19.2836 27.1456 19.46 26.8908C19.5483 26.8059 19.5483 26.721 19.6365 26.6361C19.7247 26.5511 19.7247 26.4662 19.8129 26.4662C19.9012 26.2964 19.9894 26.2115 20.0776 26.1265C20.2541 25.8718 20.4305 25.7019 20.5188 25.5321Z" fill="#FFCB6D"/>
<path d="M15.0431 22.985C15.4843 22.7302 15.8372 22.4754 16.1019 22.1358C16.3666 21.7961 16.543 21.3715 16.7195 20.9469C16.9841 20.0977 17.0724 19.0787 17.0724 18.1446C17.0724 17.8898 17.0724 17.635 17.0724 17.3803C17.0724 17.1255 17.0724 16.8708 17.0724 16.7009C17.0724 16.2763 16.9842 15.8517 16.9842 15.4271C16.8959 14.7478 16.8077 14.2383 16.8077 14.2383C16.8077 14.2383 16.7195 14.3232 16.543 14.493C16.3666 14.6629 16.1901 14.9176 15.9254 15.1724C15.6607 15.5121 15.3961 15.8517 15.2196 16.1914C14.9549 16.616 14.6902 17.0406 14.5138 17.4652C14.3373 17.9747 14.1609 18.3993 13.9844 18.9088C13.8962 19.4184 13.808 19.9279 13.808 20.3525C13.7197 21.4564 14.1609 22.3905 15.0431 22.985Z" fill="#FFCB6D"/>
<path d="M22.4587 22.4754C22.8116 22.2206 23.1645 21.9659 23.4292 21.7111C23.6938 21.4564 23.9585 21.2865 24.2232 21.0318C24.3997 20.8619 24.5761 20.6921 24.7526 20.5223C24.8408 20.4373 24.929 20.3524 24.929 20.3524C24.929 20.3524 24.4879 20.2675 23.7821 20.1826C23.4292 20.1826 23.0763 20.0977 22.6351 20.0977C22.194 20.0977 21.7528 20.0977 21.2235 20.1826C20.253 20.3524 19.2825 20.6072 18.5766 21.1167C18.2237 21.3715 17.959 21.7111 17.6944 22.0508C17.5179 22.3905 17.4297 22.8151 17.4297 23.3246C18.4002 23.7492 19.3707 23.6643 20.1648 23.4944C20.6059 23.4095 20.9588 23.2397 21.3999 22.9849C21.7528 22.9 22.1057 22.7302 22.4587 22.4754Z" fill="#FFCB6D"/>
<path d="M30.0518 66.0391C26.6991 64.7653 23.3465 63.2368 20.5232 61.0289C17.5235 58.6511 15.406 55.4242 13.9061 51.6878C12.0534 47.3569 10.7299 42.8562 10.9064 38.1007C11.0829 34.0246 12.2298 30.0334 13.9944 26.2969C15.4942 23.3247 17.347 20.3526 19.6409 17.7201C19.4645 17.3804 19.4645 16.9558 19.5527 16.6161C19.6409 16.1915 19.8174 15.7669 20.0821 15.4272C20.6114 14.663 21.4055 13.9836 22.2878 13.559C23.17 13.0495 24.0523 12.7948 24.7581 12.6249C25.111 12.54 25.3757 12.4551 25.5522 12.4551H25.8169H25.9051V12.54C25.9051 12.54 25.9051 12.6249 25.8169 12.7098C25.7287 12.8797 25.6404 13.1344 25.464 13.3892C25.1993 13.9836 24.7581 14.663 24.2288 15.4272C23.9641 15.7669 23.6112 16.1066 23.3465 16.4463L22.9053 16.8709L22.9052 16.871C22.7288 17.0408 22.5524 17.2106 22.376 17.2955C22.0231 17.4653 21.6702 17.7201 21.229 17.805C20.9643 17.8899 20.6114 17.8899 20.2585 17.8899C19.288 19.0788 18.3175 20.2676 17.5235 21.4565C14.2591 26.1271 11.9651 31.5619 11.6122 37.2515C11.3475 42.1768 12.4945 46.7624 14.4355 51.2632C15.406 53.6409 16.6412 55.9337 18.4058 57.8868C20.1703 59.84 22.2878 61.3685 24.5817 62.6423C28.9931 65.0201 35.4337 67.7375 41.5214 69.6906L39.8451 70.4549C36.316 68.8414 32.7869 67.0581 30.0518 66.0391Z" fill="#FFCB6D"/>
<path d="M167.746 67.1433C168.187 66.8036 168.628 66.5489 169.069 66.379C169.51 66.2092 169.951 66.1243 170.481 66.1243C171.451 66.0394 172.51 66.2941 173.569 66.464C174.628 66.7187 175.598 66.9735 176.304 67.2282C177.01 67.483 177.539 67.6528 177.539 67.6528C177.539 67.6528 177.098 67.9076 176.304 68.2473C175.598 68.5869 174.539 68.9266 173.392 69.0965C172.245 69.2663 171.098 69.2663 170.04 69.0115C168.893 68.7568 168.01 68.1623 167.746 67.1433Z" fill="#FFCB6D"/>
<path d="M170.831 62.8117C170.39 63.6609 169.86 64.5101 169.066 65.0196C168.713 65.2744 168.272 65.5291 167.831 65.6141C167.39 65.699 166.861 65.699 166.42 65.4442C166.42 64.4252 166.684 63.576 167.125 62.8966C167.567 62.2173 168.272 61.5379 168.89 61.0284C169.596 60.5189 170.213 60.0943 170.743 59.7546C171.272 59.415 171.625 59.2451 171.625 59.2451C171.625 59.2451 171.625 59.33 171.625 59.5848C171.625 59.7546 171.537 60.0094 171.537 60.3491C171.449 61.0284 171.272 61.8776 170.831 62.8117Z" fill="#FFCB6D"/>
<path d="M178.249 65.1048C177.19 65.0199 176.308 64.6803 175.69 63.8311C176.22 62.9819 177.014 62.4724 177.896 62.2176C178.778 61.9628 179.925 61.8779 180.984 61.8779C182.043 61.8779 183.101 61.8779 183.895 61.8779C184.689 61.8779 185.219 61.8779 185.219 61.8779C185.219 61.8779 185.131 61.9628 184.954 62.1327C184.778 62.3025 184.513 62.5573 184.16 62.812C183.454 63.3215 182.572 63.916 181.513 64.4255C180.366 64.8501 179.219 65.1048 178.249 65.1048Z" fill="#FFCB6D"/>
<path d="M176.3 61.1991C175.683 61.8785 174.889 62.388 173.918 62.3031C173.477 61.3689 173.565 60.4348 173.83 59.5856C174.095 58.7364 174.624 57.9722 175.065 57.2928C175.595 56.6135 176.036 56.104 176.477 55.6794C176.653 55.5095 176.83 55.3397 176.918 55.1698C177.006 55.0849 177.094 55 177.094 55C177.094 55 177.094 55.0849 177.183 55.2548C177.271 55.4246 177.271 55.6794 177.359 56.019C177.447 56.6984 177.536 57.5476 177.359 58.4817C177.183 59.5007 176.83 60.4348 176.3 61.1991Z" fill="#FFCB6D"/>
<path d="M188.835 54.1502C189.541 53.8955 190.07 53.8105 190.07 53.8105C190.07 53.8105 189.982 53.8955 189.894 54.1502C189.806 54.3201 189.629 54.5748 189.453 54.9145C189.276 55.2542 189.012 55.5938 188.747 56.0184C188.57 56.1883 188.482 56.443 188.306 56.6129L188.218 56.7827L188.041 56.9526C187.953 57.0375 187.865 57.2073 187.776 57.2922C186.894 58.2263 185.835 58.9906 184.865 59.3303C183.806 59.67 182.836 59.5851 181.953 58.9057C182.218 57.8867 182.747 57.2073 183.541 56.6978C183.718 56.528 183.983 56.443 184.159 56.2732C184.336 56.1034 184.6 56.0184 184.865 55.8486C185.13 55.6788 185.306 55.5938 185.571 55.424C185.835 55.3391 186.012 55.1693 186.277 55.0843C187.159 54.6597 188.129 54.3201 188.835 54.1502Z" fill="#FFCB6D"/>
<path d="M181.683 55.8486C181.418 56.6978 180.801 57.3772 179.83 57.6319C179.124 56.8676 178.948 55.9335 178.86 55.1692C178.771 54.3201 178.948 53.5558 179.036 52.8764C179.036 52.6217 179.213 52.1122 179.301 51.7725C179.389 51.4328 179.565 51.0931 179.654 50.7535C179.742 50.4987 179.83 50.2439 179.918 50.0741C180.007 49.9043 180.007 49.8193 180.007 49.8193C180.007 49.8193 180.095 49.9043 180.183 50.0741C180.271 50.2439 180.448 50.4987 180.624 50.7535C180.977 51.3479 181.33 52.1971 181.595 53.0463C181.683 53.301 181.683 53.4709 181.771 53.7256C181.859 53.9804 181.859 54.1502 181.859 54.405C181.859 54.6597 181.859 54.8296 181.859 55.0843C181.859 55.424 181.771 55.6788 181.683 55.8486Z" fill="#FFCB6D"/>
<path d="M189.889 50.6683C189.713 50.8382 189.536 51.008 189.36 51.1779C189.183 51.3477 188.918 51.5175 188.742 51.6025C187.86 52.112 186.977 52.3667 185.919 52.0271C185.831 51.5175 185.831 51.0929 186.007 50.6683C186.095 50.4985 186.183 50.2438 186.272 50.0739C186.36 49.9041 186.536 49.7342 186.625 49.4795C187.154 48.7152 188.036 48.1208 188.83 47.5263C189.624 46.9319 190.507 46.4224 191.212 46.0827C191.918 45.743 192.359 45.4883 192.359 45.4883C192.359 45.4883 192.359 45.5732 192.271 45.828C192.183 46.0827 192.095 46.3375 192.006 46.6771C191.742 47.3565 191.389 48.3755 190.771 49.2247C190.595 49.8192 190.242 50.2437 189.889 50.6683Z" fill="#FFCB6D"/>
<path d="M184.421 50.2437C184.244 50.6683 183.891 51.008 183.538 51.2628C182.656 50.7533 182.127 49.989 181.774 49.1398C181.685 48.97 181.685 48.7152 181.597 48.5453C181.597 48.4604 181.597 48.2906 181.509 48.2057C181.509 48.1208 181.509 47.9509 181.421 47.866C181.333 47.4414 181.333 47.0168 181.333 46.5922C181.421 45.743 181.421 44.9787 181.597 44.3843C181.685 44.1296 181.685 43.8748 181.774 43.705C181.774 43.5351 181.862 43.4502 181.862 43.4502C181.862 43.4502 181.95 43.5351 182.127 43.705C182.303 43.8748 182.48 44.0446 182.656 44.2994C183.097 44.8089 183.626 45.5732 184.068 46.4224C184.509 47.2716 184.773 48.2057 184.773 49.1398C184.773 49.3945 184.773 49.5644 184.685 49.8191C184.597 49.9041 184.509 50.0739 184.421 50.2437Z" fill="#FFCB6D"/>
<path d="M191.745 42.6017C191.656 42.8565 191.48 43.0263 191.303 43.2811C191.127 43.4509 190.951 43.7057 190.774 43.8755C190.068 44.5549 189.186 44.9795 188.127 44.8096C187.951 44.385 187.863 43.8755 187.951 43.4509C187.951 43.1962 188.039 43.0263 188.127 42.7716C188.216 42.6017 188.304 42.347 188.392 42.1771C188.568 41.7525 188.833 41.3279 189.186 40.9883C189.362 40.8184 189.539 40.5637 189.627 40.3938C189.804 40.224 189.98 40.0542 190.157 39.7994C190.862 39.0351 191.656 38.3558 192.186 37.8463C192.715 37.3367 193.156 36.9971 193.156 36.9971C193.156 36.9971 193.156 37.5066 193.156 38.2709C193.156 38.6955 193.068 39.1201 192.98 39.5446C192.892 39.7994 192.892 40.0542 192.803 40.3089C192.715 40.5637 192.715 40.8184 192.539 41.0732C192.186 41.5827 191.921 42.0922 191.745 42.6017Z" fill="#FFCB6D"/>
<path d="M185.565 44.2153C184.595 43.8756 183.889 43.1962 183.448 42.5169C183.36 42.347 183.271 42.1772 183.183 41.9224C183.095 41.7526 183.007 41.4978 182.918 41.328C182.742 40.9034 182.654 40.4788 182.566 40.1391C182.477 39.7145 182.389 39.3749 182.389 38.9503C182.389 38.7804 182.389 38.6106 182.301 38.4407C182.301 38.2709 182.301 38.1011 182.301 38.0161C182.213 37.4217 182.213 37.082 182.213 37.082C182.213 37.082 182.566 37.2519 183.183 37.6765C183.36 37.7614 183.448 37.8463 183.624 38.0161C183.801 38.1011 183.977 38.2709 184.065 38.4407C184.418 38.6955 184.683 39.0352 185.036 39.3749C185.212 39.5447 185.301 39.7145 185.477 39.9693C185.565 40.0542 185.654 40.1391 185.654 40.309C185.742 40.3939 185.742 40.4788 185.83 40.6486C186.006 41.0732 186.183 41.4978 186.271 41.9224C186.271 42.1772 186.359 42.347 186.359 42.6018C186.359 42.8565 186.271 43.0264 186.271 43.1962C186.095 43.451 185.918 43.8756 185.565 44.2153Z" fill="#FFCB6D"/>
<path d="M189.277 31.9017C189.542 31.4771 189.807 31.0525 189.983 30.6279C190.248 30.2033 190.513 29.8636 190.689 29.5239C191.13 28.9295 191.395 28.5049 191.395 28.5049C191.395 28.5049 191.571 29.0144 191.659 29.7787C191.748 30.1183 191.748 30.6279 191.836 31.0525C191.836 31.3072 191.836 31.562 191.836 31.8167C191.836 32.0715 191.836 32.3262 191.836 32.581C191.748 33.0905 191.748 33.6 191.571 34.1095C191.395 34.6191 191.218 35.1286 190.954 35.4683C190.424 36.3174 189.63 36.9119 188.572 36.9968C188.395 36.827 188.307 36.5722 188.219 36.4024C188.13 36.2325 188.042 35.9778 188.042 35.8079C187.954 35.3833 188.042 34.9587 188.13 34.5341C188.219 34.1095 188.395 33.6 188.572 33.1754C188.748 32.8358 189.013 32.3262 189.277 31.9017Z" fill="#FFCB6D"/>
<path d="M183.536 35.8081C183.183 35.4684 182.918 35.2137 182.742 34.7891C182.477 34.4494 182.301 34.1097 182.124 33.6851C182.036 33.5153 181.948 33.3455 181.86 33.1756C181.772 33.0058 181.683 32.8359 181.595 32.6661C181.419 32.3264 181.33 32.0717 181.242 31.732C181.066 31.2225 180.977 30.8828 180.977 30.8828C180.977 30.8828 181.419 30.9677 182.036 31.2225C182.654 31.4772 183.448 31.8169 184.242 32.4113C184.418 32.5812 184.595 32.6661 184.771 32.8359C184.948 33.0058 185.124 33.1756 185.301 33.3455C185.654 33.6851 185.918 34.1097 186.095 34.4494C186.271 34.874 186.359 35.2986 186.359 35.7232C186.359 35.893 186.359 36.1478 186.271 36.3176C186.183 36.4875 186.095 36.7422 186.006 36.9121C184.948 36.8271 184.154 36.4026 183.536 35.8081Z" fill="#FFCB6D"/>
<path d="M186.627 29.1844C186.45 29.0145 186.362 28.8447 186.274 28.5899C186.185 28.4201 186.097 28.1653 186.097 27.9955C186.097 27.8256 186.009 27.5709 186.009 27.3161C186.009 26.8915 186.009 26.382 186.097 25.8725C186.185 25.363 186.274 24.9384 186.362 24.4289C186.627 23.4948 186.891 22.5606 187.156 21.8813C187.421 21.2019 187.597 20.7773 187.597 20.7773C187.597 20.7773 187.685 20.8623 187.774 21.0321C187.862 21.2019 188.038 21.5416 188.215 21.8813C188.568 22.5606 188.921 23.4948 189.097 24.5138C189.185 25.0233 189.273 25.5328 189.273 26.0423C189.273 26.2971 189.273 26.5519 189.185 26.8066C189.185 27.0614 189.097 27.3161 189.009 27.5709C188.832 27.9955 188.656 28.4201 188.303 28.8447C187.95 29.1843 187.597 29.524 187.068 29.6939C186.891 29.6089 186.715 29.4391 186.627 29.1844Z" fill="#FFCB6D"/>
<path d="M178.247 25.5321C178.159 25.3623 178.07 25.2773 178.07 25.2773C178.07 25.2773 178.159 25.2773 178.423 25.2773C178.6 25.2773 178.864 25.2773 179.217 25.3623C179.57 25.3623 179.923 25.4472 180.364 25.5321C180.541 25.617 180.805 25.617 180.982 25.7019C181.158 25.7869 181.423 25.8718 181.6 25.9567C182.041 26.1265 182.482 26.2964 182.923 26.5511C183.276 26.8059 183.629 27.1456 183.982 27.4003C184.158 27.5702 184.246 27.74 184.335 27.9098C184.423 28.0797 184.511 28.3344 184.599 28.5043C184.687 28.6741 184.688 28.9289 184.688 29.0987C184.688 29.3535 184.599 29.5233 184.599 29.7781C184.07 29.863 183.629 29.863 183.188 29.7781C182.746 29.6931 182.305 29.5233 181.952 29.2685C181.776 29.1836 181.6 29.0138 181.423 28.9289C181.335 28.844 181.247 28.759 181.158 28.759C181.07 28.6741 180.982 28.5892 180.894 28.5892C180.541 28.3344 180.276 27.9948 180.011 27.74C179.747 27.4003 179.482 27.1456 179.306 26.8908C179.217 26.8059 179.217 26.721 179.129 26.6361C179.041 26.5511 179.041 26.4662 178.953 26.4662C178.864 26.2964 178.776 26.2115 178.688 26.1265C178.512 25.8718 178.335 25.7019 178.247 25.5321Z" fill="#FFCB6D"/>
<path d="M183.722 22.985C183.281 22.7302 182.928 22.4754 182.664 22.1358C182.399 21.7961 182.223 21.3715 182.046 20.9469C181.781 20.0977 181.693 19.0787 181.693 18.1446C181.693 17.8898 181.693 17.635 181.693 17.3803C181.693 17.1255 181.693 16.8708 181.693 16.7009C181.693 16.2763 181.781 15.8517 181.781 15.4271C181.87 14.7478 181.958 14.2383 181.958 14.2383C181.958 14.2383 182.046 14.3232 182.223 14.493C182.399 14.6629 182.576 14.9176 182.84 15.1724C183.105 15.5121 183.37 15.8517 183.546 16.1914C183.811 16.616 184.075 17.0406 184.252 17.4652C184.428 17.9747 184.605 18.3993 184.781 18.9088C184.869 19.4184 184.958 19.9279 184.958 20.3525C185.046 21.4564 184.605 22.3905 183.722 22.985Z" fill="#FFCB6D"/>
<path d="M176.307 22.4754C175.954 22.2206 175.601 21.9659 175.336 21.7111C175.072 21.4564 174.807 21.2865 174.542 21.0318C174.366 20.8619 174.19 20.6921 174.013 20.5223C173.925 20.4373 173.837 20.3524 173.837 20.3524C173.837 20.3524 174.278 20.2675 174.984 20.1826C175.336 20.1826 175.689 20.0977 176.131 20.0977C176.572 20.0977 177.013 20.0977 177.542 20.1826C178.513 20.3524 179.483 20.6072 180.189 21.1167C180.542 21.3715 180.807 21.7111 181.071 22.0508C181.248 22.3905 181.336 22.8151 181.336 23.3246C180.365 23.7492 179.395 23.6643 178.601 23.4944C178.16 23.4095 177.807 23.2397 177.366 22.9849C177.013 22.9 176.66 22.7302 176.307 22.4754Z" fill="#FFCB6D"/>
<path d="M168.714 66.0391C172.066 64.7653 175.419 63.2368 178.242 61.0289C181.242 58.6511 183.36 55.4242 184.859 51.6878C186.712 47.3569 188.036 42.8562 187.859 38.1007C187.683 34.0246 186.536 30.0334 184.771 26.2969C183.271 23.3247 181.419 20.3526 179.125 17.7201C179.301 17.3804 179.301 16.9558 179.213 16.6161C179.125 16.1915 178.948 15.7669 178.684 15.4272C178.154 14.663 177.36 13.9836 176.478 13.559C175.596 13.0495 174.713 12.7948 174.007 12.6249C173.655 12.54 173.39 12.4551 173.213 12.4551H172.949H172.861V12.54C172.861 12.54 172.861 12.6249 172.949 12.7098C173.037 12.8797 173.125 13.1344 173.302 13.3892C173.566 13.9836 174.007 14.663 174.537 15.4272C174.802 15.7669 175.154 16.1066 175.419 16.4463L175.86 16.8709L175.86 16.871C176.037 17.0408 176.213 17.2106 176.39 17.2955C176.743 17.4653 177.095 17.7201 177.537 17.805C177.801 17.8899 178.154 17.8899 178.507 17.8899C179.478 19.0788 180.448 20.2676 181.242 21.4565C184.507 26.1271 186.801 31.5619 187.153 37.2515C187.418 42.1768 186.271 46.7624 184.33 51.2632C183.36 53.6409 182.124 55.9337 180.36 57.8868C178.595 59.84 176.478 61.3685 174.184 62.6423C169.773 65.0201 163.332 67.7375 157.244 69.6906L158.921 70.4549C162.45 68.8414 165.979 67.0581 168.714 66.0391Z" fill="#FFCB6D"/>
<path d="M90.3125 2.51562H91.9697V12.7471H90.3125V2.51562Z" fill="white"/>
<path d="M97.7346 9.50476C97.7346 11.0899 96.4377 11.234 96.0054 11.234C94.9966 11.234 94.8525 10.2973 94.8525 9.79297V5.83008H93.1953V9.72092C93.1953 10.6576 93.4835 11.5222 94.0599 12.0266C94.5643 12.531 95.2128 12.7471 96.0054 12.7471C96.5818 12.7471 97.3023 12.603 97.7346 12.1707V12.7471H99.3918V5.83008H97.7346V9.50476Z" fill="white"/>
<path d="M102.632 3.30859H100.975V5.83044H99.75V7.41559H100.975V12.7475H102.632V7.41559H103.857V5.83044H102.632V3.30859Z" fill="white"/>
<path d="M109.048 10.6572C108.688 10.9454 108.183 11.1615 107.679 11.1615C106.526 11.1615 105.734 10.2969 105.734 9.14407C105.734 7.99123 106.526 7.19865 107.679 7.19865C108.183 7.19865 108.688 7.34276 109.048 7.70302L109.264 7.91918L110.417 6.83839L110.129 6.62223C109.48 6.04581 108.616 5.68555 107.679 5.68555C105.662 5.68555 104.148 7.19865 104.148 9.21613C104.148 11.2336 105.662 12.7467 107.679 12.7467C108.616 12.7467 109.48 12.3864 110.129 11.81L110.417 11.5939L109.264 10.441L109.048 10.6572Z" fill="white"/>
<path d="M116.247 6.40647C115.742 5.9021 115.238 5.68594 114.445 5.68594C113.869 5.68594 113.293 5.83005 112.86 6.26236V2.51562H111.203V12.7471H112.86V8.92831C112.86 7.34315 113.941 7.19905 114.373 7.19905C115.382 7.19905 115.31 8.13573 115.31 8.6401V12.675H116.967V8.71215C116.967 7.77547 116.751 6.91084 116.247 6.40647Z" fill="white"/>
<path d="M107.606 10.3692C108.243 10.3692 108.759 9.85302 108.759 9.21632C108.759 8.57962 108.243 8.06348 107.606 8.06348C106.969 8.06348 106.453 8.57962 106.453 9.21632C106.453 9.85302 106.969 10.3692 107.606 10.3692Z" fill="#E14942"/>
<path d="M88.0065 10.2251C87.4301 10.8016 86.5654 11.1618 85.6287 11.1618C83.8274 11.1618 82.5305 9.72078 82.5305 7.77535C82.5305 5.82993 83.8274 4.38888 85.7008 4.38888C86.5654 4.38888 87.4301 4.74914 88.0785 5.39762L88.2947 5.61377L89.3755 4.53298L89.1593 4.31683C88.2226 3.38014 86.9977 2.87577 85.7008 2.87577C82.9628 2.80372 80.9453 4.9653 80.9453 7.77535C80.9453 10.5854 82.9628 12.747 85.6287 12.747C86.9257 12.747 88.2226 12.2426 89.0873 11.3059L89.3034 11.0898L88.2226 10.009L88.0065 10.2251Z" fill="white"/>
</svg>
