<svg width="198" height="76" viewBox="0 0 198 76" fill="none" xmlns="http://www.w3.org/2000/svg">
<path d="M54.7998 25.4613H56.6646L59.9068 33.3779H60.0261L63.2684 25.4613H65.1331V35.6455H63.6712V28.2759H63.5767L60.5731 35.6306H59.3598L56.3563 28.2709H56.2618V35.6455H54.7998V25.4613ZM69.905 35.7997C69.189 35.7997 68.564 35.6356 68.0303 35.3074C67.4966 34.9792 67.0822 34.52 66.7871 33.9299C66.4921 33.3398 66.3445 32.6503 66.3445 31.8613C66.3445 31.0689 66.4921 30.3761 66.7871 29.7827C67.0822 29.1892 67.4966 28.7284 68.0303 28.4002C68.564 28.072 69.189 27.9079 69.905 27.9079C70.6211 27.9079 71.246 28.072 71.7797 28.4002C72.3135 28.7284 72.7279 29.1892 73.0229 29.7827C73.318 30.3761 73.4655 31.0689 73.4655 31.8613C73.4655 32.6503 73.318 33.3398 73.0229 33.9299C72.7279 34.52 72.3135 34.9792 71.7797 35.3074C71.246 35.6356 70.6211 35.7997 69.905 35.7997ZM69.91 34.5515C70.3741 34.5515 70.7587 34.4288 71.0637 34.1835C71.3687 33.9382 71.5941 33.6117 71.74 33.2039C71.8891 32.7961 71.9637 32.3469 71.9637 31.8563C71.9637 31.369 71.8891 30.9214 71.74 30.5136C71.5941 30.1026 71.3687 29.7727 71.0637 29.5241C70.7587 29.2754 70.3741 29.1511 69.91 29.1511C69.4426 29.1511 69.0547 29.2754 68.7464 29.5241C68.4414 29.7727 68.2143 30.1026 68.0651 30.5136C67.9192 30.9214 67.8463 31.369 67.8463 31.8563C67.8463 32.3469 67.9192 32.7961 68.0651 33.2039C68.2143 33.6117 68.4414 33.9382 68.7464 34.1835C69.0547 34.4288 69.4426 34.5515 69.91 34.5515ZM80.2886 29.8722L78.941 30.1109C78.8847 29.9385 78.7952 29.7744 78.6725 29.6186C78.5532 29.4627 78.3907 29.3351 78.1852 29.2357C77.9796 29.1362 77.7227 29.0865 77.4144 29.0865C76.9934 29.0865 76.642 29.181 76.3602 29.3699C76.0784 29.5556 75.9375 29.7959 75.9375 30.091C75.9375 30.3462 76.032 30.5518 76.2209 30.7076C76.4099 30.8634 76.7149 30.991 77.1359 31.0905L78.3493 31.369C79.0521 31.5314 79.5759 31.7817 79.9207 32.1198C80.2654 32.458 80.4378 32.8972 80.4378 33.4376C80.4378 33.8951 80.3052 34.3029 80.04 34.6609C79.7781 35.0156 79.4118 35.2941 78.941 35.4963C78.4736 35.6986 77.9316 35.7997 77.3149 35.7997C76.4596 35.7997 75.7618 35.6173 75.2214 35.2527C74.6811 34.8847 74.3495 34.3625 74.2269 33.6863L75.664 33.4675C75.7535 33.8421 75.9375 34.1255 76.216 34.3178C76.4944 34.5068 76.8575 34.6012 77.305 34.6012C77.7923 34.6012 78.1819 34.5001 78.4736 34.2979C78.7653 34.0924 78.9112 33.8421 78.9112 33.547C78.9112 33.3083 78.8217 33.1078 78.6427 32.9453C78.467 32.7829 78.1968 32.6602 77.8321 32.5773L76.5392 32.2939C75.8264 32.1314 75.2993 31.8729 74.9579 31.5181C74.6197 31.1634 74.4507 30.7142 74.4507 30.1705C74.4507 29.7197 74.5766 29.3252 74.8286 28.987C75.0805 28.6489 75.4286 28.3853 75.8729 28.1964C76.3171 28.0041 76.826 27.9079 77.3995 27.9079C78.225 27.9079 78.8747 28.087 79.3488 28.445C79.8229 28.7997 80.1361 29.2754 80.2886 29.8722ZM85.0779 28.0074V29.2008H80.9058V28.0074H85.0779ZM82.0247 26.1774H83.5115V33.4028C83.5115 33.6912 83.5546 33.9084 83.6408 34.0542C83.727 34.1968 83.8381 34.2946 83.974 34.3476C84.1132 34.3974 84.2641 34.4222 84.4265 34.4222C84.5458 34.4222 84.6503 34.4139 84.7398 34.3974C84.8293 34.3808 84.8989 34.3675 84.9486 34.3576L85.2172 35.5858C85.131 35.619 85.0083 35.6521 84.8492 35.6853C84.6901 35.7218 84.4911 35.7416 84.2525 35.745C83.8613 35.7516 83.4966 35.682 83.1585 35.5361C82.8203 35.3902 82.5468 35.1648 82.338 34.8598C82.1291 34.5548 82.0247 34.1719 82.0247 33.7111V26.1774ZM89.3083 35.6455V28.0074H90.7455V29.2207H90.825C90.9643 28.8097 91.2096 28.4864 91.561 28.2511C91.9157 28.0124 92.3168 27.893 92.7644 27.893C92.8572 27.893 92.9666 27.8963 93.0926 27.903C93.2219 27.9096 93.323 27.9179 93.3959 27.9278V29.35C93.3362 29.3335 93.2302 29.3152 93.0777 29.2953C92.9252 29.2721 92.7727 29.2605 92.6202 29.2605C92.2688 29.2605 91.9555 29.3351 91.6803 29.4843C91.4085 29.6302 91.193 29.834 91.0339 30.0959C90.8747 30.3545 90.7952 30.6496 90.7952 30.9811V35.6455H89.3083ZM97.1409 35.7997C96.3884 35.7997 95.7403 35.6389 95.1966 35.3173C94.6562 34.9924 94.2385 34.5366 93.9435 33.9498C93.6517 33.3597 93.5059 32.6685 93.5059 31.8762C93.5059 31.0938 93.6517 30.4042 93.9435 29.8075C94.2385 29.2108 94.6496 28.745 95.1767 28.4102C95.7071 28.0753 96.3271 27.9079 97.0365 27.9079C97.4675 27.9079 97.8852 27.9792 98.2896 28.1218C98.6941 28.2643 99.0571 28.4881 99.3787 28.7931C99.7002 29.0981 99.9538 29.4942 100.139 29.9816C100.325 30.4656 100.418 31.054 100.418 31.7469V32.274H94.3463V31.1601H98.961C98.961 30.7689 98.8814 30.4225 98.7223 30.1208C98.5631 29.8158 98.3394 29.5755 98.0509 29.3998C97.7658 29.2241 97.431 29.1362 97.0465 29.1362C96.6287 29.1362 96.2641 29.239 95.9525 29.4445C95.6441 29.6467 95.4055 29.9119 95.2364 30.2401C95.0706 30.565 94.9877 30.9181 94.9877 31.2993V32.1696C94.9877 32.6801 95.0773 33.1144 95.2563 33.4724C95.4386 33.8305 95.6922 34.104 96.0171 34.2929C96.342 34.4786 96.7216 34.5714 97.1559 34.5714C97.4376 34.5714 97.6946 34.5316 97.9266 34.4521C98.1587 34.3692 98.3593 34.2465 98.5283 34.0841C98.6974 33.9216 98.8267 33.7211 98.9162 33.4824L100.323 33.736C100.211 34.1504 100.009 34.5134 99.7168 34.825C99.4284 35.1333 99.0654 35.3737 98.6278 35.5461C98.1935 35.7151 97.6979 35.7997 97.1409 35.7997ZM107.823 28.0074L105.053 35.6455H103.462L100.687 28.0074H102.283L104.218 33.8852H104.297L106.227 28.0074H107.823ZM108.66 35.6455V28.0074H110.147V35.6455H108.66ZM109.411 26.8289C109.152 26.8289 108.93 26.7427 108.745 26.5703C108.562 26.3946 108.471 26.1857 108.471 25.9437C108.471 25.6984 108.562 25.4895 108.745 25.3171C108.93 25.1414 109.152 25.0536 109.411 25.0536C109.67 25.0536 109.89 25.1414 110.072 25.3171C110.258 25.4895 110.351 25.6984 110.351 25.9437C110.351 26.1857 110.258 26.3946 110.072 26.5703C109.89 26.7427 109.67 26.8289 109.411 26.8289ZM114.879 35.7997C114.127 35.7997 113.478 35.6389 112.935 35.3173C112.394 34.9924 111.977 34.5366 111.682 33.9498C111.39 33.3597 111.244 32.6685 111.244 31.8762C111.244 31.0938 111.39 30.4042 111.682 29.8075C111.977 29.2108 112.388 28.745 112.915 28.4102C113.445 28.0753 114.065 27.9079 114.775 27.9079C115.206 27.9079 115.623 27.9792 116.028 28.1218C116.432 28.2643 116.795 28.4881 117.117 28.7931C117.438 29.0981 117.692 29.4942 117.878 29.9816C118.063 30.4656 118.156 31.054 118.156 31.7469V32.274H112.084V31.1601H116.699C116.699 30.7689 116.62 30.4225 116.46 30.1208C116.301 29.8158 116.077 29.5755 115.789 29.3998C115.504 29.2241 115.169 29.1362 114.785 29.1362C114.367 29.1362 114.002 29.239 113.691 29.4445C113.382 29.6467 113.144 29.9119 112.975 30.2401C112.809 30.565 112.726 30.9181 112.726 31.2993V32.1696C112.726 32.6801 112.815 33.1144 112.994 33.4724C113.177 33.8305 113.43 34.104 113.755 34.2929C114.08 34.4786 114.46 34.5714 114.894 34.5714C115.176 34.5714 115.433 34.5316 115.665 34.4521C115.897 34.3692 116.097 34.2465 116.266 34.0841C116.436 33.9216 116.565 33.7211 116.654 33.4824L118.062 33.736C117.949 34.1504 117.747 34.5134 117.455 34.825C117.167 35.1333 116.804 35.3737 116.366 35.5461C115.932 35.7151 115.436 35.7997 114.879 35.7997ZM120.888 35.6455L118.64 28.0074H120.177L121.674 33.6166H121.748L123.25 28.0074H124.787L126.278 33.5918H126.353L127.84 28.0074H129.376L127.134 35.6455H125.617L124.065 30.1307H123.951L122.4 35.6455H120.888ZM133.287 35.7997C132.534 35.7997 131.886 35.6389 131.342 35.3173C130.802 34.9924 130.384 34.5366 130.089 33.9498C129.798 33.3597 129.652 32.6685 129.652 31.8762C129.652 31.0938 129.798 30.4042 130.089 29.8075C130.384 29.2108 130.795 28.745 131.323 28.4102C131.853 28.0753 132.473 27.9079 133.182 27.9079C133.613 27.9079 134.031 27.9792 134.435 28.1218C134.84 28.2643 135.203 28.4881 135.524 28.7931C135.846 29.0981 136.1 29.4942 136.285 29.9816C136.471 30.4656 136.564 31.054 136.564 31.7469V32.274H130.492V31.1601H135.107C135.107 30.7689 135.027 30.4225 134.868 30.1208C134.709 29.8158 134.485 29.5755 134.197 29.3998C133.912 29.2241 133.577 29.1362 133.192 29.1362C132.775 29.1362 132.41 29.239 132.098 29.4445C131.79 29.6467 131.551 29.9119 131.382 30.2401C131.216 30.565 131.134 30.9181 131.134 31.2993V32.1696C131.134 32.6801 131.223 33.1144 131.402 33.4724C131.584 33.8305 131.838 34.104 132.163 34.2929C132.488 34.4786 132.867 34.5714 133.302 34.5714C133.583 34.5714 133.84 34.5316 134.072 34.4521C134.304 34.3692 134.505 34.2465 134.674 34.0841C134.843 33.9216 134.972 33.7211 135.062 33.4824L136.469 33.736C136.357 34.1504 136.154 34.5134 135.863 34.825C135.574 35.1333 135.211 35.3737 134.774 35.5461C134.339 35.7151 133.844 35.7997 133.287 35.7997ZM140.513 35.7947C139.896 35.7947 139.346 35.6372 138.862 35.3223C138.381 35.004 138.003 34.5515 137.728 33.9647C137.456 33.3746 137.32 32.6668 137.32 31.8414C137.32 31.0159 137.458 30.3098 137.733 29.723C138.011 29.1362 138.393 28.687 138.877 28.3754C139.361 28.0637 139.909 27.9079 140.523 27.9079C140.997 27.9079 141.378 27.9875 141.666 28.1466C141.958 28.3024 142.184 28.4848 142.343 28.6936C142.505 28.9025 142.631 29.0865 142.721 29.2456H142.81V25.4613H144.297V35.6455H142.845V34.457H142.721C142.631 34.6195 142.502 34.8051 142.333 35.014C142.167 35.2228 141.938 35.4052 141.646 35.561C141.355 35.7168 140.977 35.7947 140.513 35.7947ZM140.841 34.5266C141.269 34.5266 141.63 34.4139 141.925 34.1885C142.223 33.9598 142.449 33.6432 142.601 33.2387C142.757 32.8343 142.835 32.3635 142.835 31.8264C142.835 31.296 142.759 30.8319 142.606 30.4341C142.454 30.0363 142.23 29.7263 141.935 29.5042C141.64 29.2821 141.275 29.171 140.841 29.171C140.393 29.171 140.02 29.287 139.722 29.5191C139.424 29.7512 139.198 30.0678 139.046 30.4689C138.897 30.87 138.822 31.3225 138.822 31.8264C138.822 32.337 138.898 32.7961 139.051 33.2039C139.203 33.6117 139.429 33.9349 139.727 34.1736C140.029 34.409 140.4 34.5266 140.841 34.5266ZM50.6631 51.7997C49.9106 51.7997 49.2625 51.6389 48.7188 51.3173C48.1784 50.9924 47.7607 50.5366 47.4656 49.9498C47.1739 49.3597 47.028 48.6685 47.028 47.8762C47.028 47.0938 47.1739 46.4042 47.4656 45.8075C47.7607 45.2108 48.1718 44.745 48.6989 44.4102C49.2293 44.0753 49.8492 43.9079 50.5587 43.9079C50.9897 43.9079 51.4074 43.9792 51.8118 44.1218C52.2163 44.2643 52.5793 44.4881 52.9008 44.7931C53.2224 45.0981 53.476 45.4942 53.6617 45.9816C53.8473 46.4656 53.9401 47.054 53.9401 47.7469V48.274H47.8684V47.1601H52.4831C52.4831 46.7689 52.4036 46.4225 52.2444 46.1208C52.0853 45.8158 51.8615 45.5755 51.5731 45.3998C51.288 45.2241 50.9532 45.1362 50.5686 45.1362C50.1509 45.1362 49.7862 45.239 49.4746 45.4445C49.1663 45.6467 48.9276 45.9119 48.7586 46.2401C48.5928 46.565 48.5099 46.9181 48.5099 47.2993V48.1696C48.5099 48.6801 48.5994 49.1144 48.7784 49.4724C48.9608 49.8305 49.2144 50.104 49.5393 50.2929C49.8642 50.4786 50.2437 50.5714 50.678 50.5714C50.9598 50.5714 51.2167 50.5316 51.4488 50.4521C51.6809 50.3692 51.8814 50.2465 52.0505 50.0841C52.2196 49.9216 52.3489 49.7211 52.4384 49.4824L53.8457 49.736C53.7329 50.1504 53.5307 50.5134 53.239 50.825C52.9506 51.1333 52.5876 51.3737 52.15 51.5461C51.7157 51.7151 51.2201 51.7997 50.6631 51.7997ZM63.6077 44.7732H62.0562C61.9965 44.4417 61.8855 44.1499 61.723 43.898C61.5606 43.646 61.3617 43.4322 61.1263 43.2565C60.8909 43.0808 60.6274 42.9482 60.3356 42.8587C60.0472 42.7692 59.7406 42.7244 59.4157 42.7244C58.8289 42.7244 58.3034 42.8719 57.8393 43.167C57.3785 43.462 57.0138 43.8947 56.7453 44.4649C56.4801 45.0351 56.3475 45.7313 56.3475 46.5534C56.3475 47.3822 56.4801 48.0817 56.7453 48.6519C57.0138 49.2221 57.3802 49.6531 57.8443 49.9448C58.3084 50.2366 58.8305 50.3824 59.4107 50.3824C59.7323 50.3824 60.0373 50.3393 60.3257 50.2531C60.6174 50.1636 60.881 50.0327 61.1163 49.8603C61.3517 49.6879 61.5506 49.4774 61.7131 49.2288C61.8788 48.9768 61.9932 48.6884 62.0562 48.3635L63.6077 48.3685C63.5248 48.8691 63.364 49.3299 63.1253 49.7509C62.8899 50.1686 62.5866 50.53 62.2153 50.835C61.8473 51.1366 61.4263 51.3703 60.9522 51.5361C60.4782 51.7019 59.961 51.7847 59.4007 51.7847C58.5189 51.7847 57.7332 51.5759 57.0437 51.1582C56.3541 50.7372 55.8104 50.1355 55.4126 49.3531C55.0181 48.5707 54.8209 47.6375 54.8209 46.5534C54.8209 45.4661 55.0198 44.5328 55.4176 43.7538C55.8154 42.9714 56.3591 42.3714 57.0486 41.9536C57.7382 41.5326 58.5222 41.3221 59.4007 41.3221C59.9411 41.3221 60.445 41.4 60.9125 41.5558C61.3832 41.7083 61.8059 41.9338 62.1805 42.2321C62.5551 42.5272 62.8651 42.8885 63.1104 43.3162C63.3557 43.7405 63.5215 44.2262 63.6077 44.7732ZM67.9842 51.7997C67.2682 51.7997 66.6433 51.6356 66.1095 51.3074C65.5758 50.9792 65.1614 50.52 64.8663 49.9299C64.5713 49.3398 64.4238 48.6503 64.4238 47.8613C64.4238 47.0689 64.5713 46.3761 64.8663 45.7827C65.1614 45.1892 65.5758 44.7284 66.1095 44.4002C66.6433 44.072 67.2682 43.9079 67.9842 43.9079C68.7003 43.9079 69.3252 44.072 69.859 44.4002C70.3927 44.7284 70.8071 45.1892 71.1021 45.7827C71.3972 46.3761 71.5447 47.0689 71.5447 47.8613C71.5447 48.6503 71.3972 49.3398 71.1021 49.9299C70.8071 50.52 70.3927 50.9792 69.859 51.3074C69.3252 51.6356 68.7003 51.7997 67.9842 51.7997ZM67.9892 50.5515C68.4533 50.5515 68.8379 50.4288 69.1429 50.1835C69.4479 49.9382 69.6733 49.6117 69.8192 49.2039C69.9684 48.7961 70.0429 48.3469 70.0429 47.8563C70.0429 47.369 69.9684 46.9214 69.8192 46.5136C69.6733 46.1026 69.4479 45.7727 69.1429 45.5241C68.8379 45.2754 68.4533 45.1511 67.9892 45.1511C67.5218 45.1511 67.1339 45.2754 66.8256 45.5241C66.5206 45.7727 66.2935 46.1026 66.1443 46.5136C65.9985 46.9214 65.9255 47.369 65.9255 47.8563C65.9255 48.3469 65.9985 48.7961 66.1443 49.2039C66.2935 49.6117 66.5206 49.9382 66.8256 50.1835C67.1339 50.4288 67.5218 50.5515 67.9892 50.5515ZM72.6442 51.6455V44.0074H74.0714V45.2506H74.1659C74.325 44.8295 74.5853 44.5013 74.9466 44.266C75.308 44.0273 75.7406 43.9079 76.2445 43.9079C76.755 43.9079 77.1827 44.0273 77.5275 44.266C77.8755 44.5047 78.1325 44.8329 78.2982 45.2506H78.3778C78.5601 44.8428 78.8502 44.5179 79.248 44.2759C79.6458 44.0306 80.1199 43.9079 80.6702 43.9079C81.3631 43.9079 81.9283 44.1251 82.3659 44.5594C82.8068 44.9936 83.0273 45.6484 83.0273 46.5236V51.6455H81.5405V46.6628C81.5405 46.1457 81.3996 45.7711 81.1178 45.539C80.836 45.3069 80.4995 45.1909 80.1083 45.1909C79.6243 45.1909 79.248 45.3401 78.9795 45.6384C78.711 45.9335 78.5767 46.3131 78.5767 46.7772V51.6455H77.0948V46.5683C77.0948 46.154 76.9655 45.8208 76.707 45.5688C76.4484 45.3169 76.1119 45.1909 75.6975 45.1909C75.4157 45.1909 75.1555 45.2655 74.9168 45.4147C74.6814 45.5605 74.4908 45.7644 74.3449 46.0263C74.2024 46.2882 74.1311 46.5916 74.1311 46.9363V51.6455H72.6442ZM84.46 51.6455V44.0074H85.8872V45.2506H85.9817C86.1408 44.8295 86.401 44.5013 86.7624 44.266C87.1237 44.0273 87.5564 43.9079 88.0603 43.9079C88.5708 43.9079 88.9984 44.0273 89.3432 44.266C89.6913 44.5047 89.9482 44.8329 90.114 45.2506H90.1936C90.3759 44.8428 90.666 44.5179 91.0638 44.2759C91.4616 44.0306 91.9357 43.9079 92.486 43.9079C93.1789 43.9079 93.7441 44.1251 94.1817 44.5594C94.6226 44.9936 94.8431 45.6484 94.8431 46.5236V51.6455H93.3562V46.6628C93.3562 46.1457 93.2153 45.7711 92.9335 45.539C92.6517 45.3069 92.3153 45.1909 91.9241 45.1909C91.4401 45.1909 91.0638 45.3401 90.7953 45.6384C90.5267 45.9335 90.3925 46.3131 90.3925 46.7772V51.6455H88.9106V46.5683C88.9106 46.154 88.7813 45.8208 88.5227 45.5688C88.2641 45.3169 87.9276 45.1909 87.5133 45.1909C87.2315 45.1909 86.9712 45.2655 86.7325 45.4147C86.4972 45.5605 86.3065 45.7644 86.1607 46.0263C86.0181 46.2882 85.9468 46.5916 85.9468 46.9363V51.6455H84.46ZM99.5677 51.7997C98.8152 51.7997 98.1671 51.6389 97.6234 51.3173C97.083 50.9924 96.6653 50.5366 96.3702 49.9498C96.0785 49.3597 95.9326 48.6685 95.9326 47.8762C95.9326 47.0938 96.0785 46.4042 96.3702 45.8075C96.6653 45.2108 97.0764 44.745 97.6035 44.4102C98.1339 44.0753 98.7538 43.9079 99.4633 43.9079C99.8942 43.9079 100.312 43.9792 100.716 44.1218C101.121 44.2643 101.484 44.4881 101.805 44.7931C102.127 45.0981 102.381 45.4942 102.566 45.9816C102.752 46.4656 102.845 47.054 102.845 47.7469V48.274H96.773V47.1601H101.388C101.388 46.7689 101.308 46.4225 101.149 46.1208C100.99 45.8158 100.766 45.5755 100.478 45.3998C100.193 45.2241 99.8578 45.1362 99.4732 45.1362C99.0555 45.1362 98.6908 45.239 98.3792 45.4445C98.0709 45.6467 97.8322 45.9119 97.6631 46.2401C97.4974 46.565 97.4145 46.9181 97.4145 47.2993V48.1696C97.4145 48.6801 97.504 49.1144 97.683 49.4724C97.8654 49.8305 98.119 50.104 98.4439 50.2929C98.7688 50.4786 99.1483 50.5714 99.5826 50.5714C99.8644 50.5714 100.121 50.5316 100.353 50.4521C100.585 50.3692 100.786 50.2465 100.955 50.0841C101.124 49.9216 101.253 49.7211 101.343 49.4824L102.75 49.736C102.638 50.1504 102.435 50.5134 102.144 50.825C101.855 51.1333 101.492 51.3737 101.055 51.5461C100.62 51.7151 100.125 51.7997 99.5677 51.7997ZM103.934 51.6455V44.0074H105.371V45.2207H105.451C105.59 44.8097 105.836 44.4864 106.187 44.2511C106.542 44.0124 106.943 43.893 107.39 43.893C107.483 43.893 107.593 43.8963 107.719 43.903C107.848 43.9096 107.949 43.9179 108.022 43.9278V45.35C107.962 45.3335 107.856 45.3152 107.704 45.2953C107.551 45.2721 107.399 45.2605 107.246 45.2605C106.895 45.2605 106.581 45.3351 106.306 45.4843C106.034 45.6302 105.819 45.834 105.66 46.0959C105.501 46.3545 105.421 46.6496 105.421 46.9811V51.6455H103.934ZM111.692 51.7997C110.953 51.7997 110.317 51.6322 109.783 51.2974C109.252 50.9593 108.845 50.4935 108.56 49.9001C108.274 49.3067 108.132 48.6271 108.132 47.8613C108.132 47.0855 108.278 46.4009 108.569 45.8075C108.861 45.2108 109.272 44.745 109.803 44.4102C110.333 44.0753 110.958 43.9079 111.677 43.9079C112.258 43.9079 112.775 44.0157 113.229 44.2312C113.683 44.4433 114.049 44.7417 114.328 45.1263C114.61 45.5108 114.777 45.96 114.83 46.4739H113.383C113.303 46.1158 113.121 45.8075 112.836 45.5489C112.554 45.2904 112.176 45.1611 111.702 45.1611C111.288 45.1611 110.925 45.2705 110.613 45.4893C110.305 45.7047 110.065 46.0131 109.892 46.4142C109.72 46.812 109.634 47.2828 109.634 47.8264C109.634 48.3834 109.718 48.8641 109.887 49.2685C110.056 49.673 110.295 49.9863 110.603 50.2084C110.915 50.4305 111.281 50.5416 111.702 50.5416C111.984 50.5416 112.239 50.4902 112.468 50.3874C112.7 50.2813 112.894 50.1305 113.05 49.9349C113.209 49.7393 113.32 49.5039 113.383 49.2288H114.83C114.777 49.7227 114.616 50.1636 114.348 50.5515C114.079 50.9394 113.72 51.2444 113.269 51.4665C112.821 51.6886 112.296 51.7997 111.692 51.7997ZM119.152 51.7997C118.399 51.7997 117.751 51.6389 117.208 51.3173C116.667 50.9924 116.25 50.5366 115.955 49.9498C115.663 49.3597 115.517 48.6685 115.517 47.8762C115.517 47.0938 115.663 46.4042 115.955 45.8075C116.25 45.2108 116.661 44.745 117.188 44.4102C117.718 44.0753 118.338 43.9079 119.048 43.9079C119.479 43.9079 119.896 43.9792 120.301 44.1218C120.705 44.2643 121.068 44.4881 121.39 44.7931C121.711 45.0981 121.965 45.4942 122.151 45.9816C122.336 46.4656 122.429 47.054 122.429 47.7469V48.274H116.357V47.1601H120.972C120.972 46.7689 120.892 46.4225 120.733 46.1208C120.574 45.8158 120.35 45.5755 120.062 45.3998C119.777 45.2241 119.442 45.1362 119.057 45.1362C118.64 45.1362 118.275 45.239 117.963 45.4445C117.655 45.6467 117.416 45.9119 117.247 46.2401C117.082 46.565 116.999 46.9181 116.999 47.2993V48.1696C116.999 48.6801 117.088 49.1144 117.267 49.4724C117.45 49.8305 117.703 50.104 118.028 50.2929C118.353 50.4786 118.733 50.5714 119.167 50.5714C119.449 50.5714 119.706 50.5316 119.938 50.4521C120.17 50.3692 120.37 50.2465 120.539 50.0841C120.708 49.9216 120.838 49.7211 120.927 49.4824L122.335 49.736C122.222 50.1504 122.02 50.5134 121.728 50.825C121.439 51.1333 121.076 51.3737 120.639 51.5461C120.205 51.7151 119.709 51.7997 119.152 51.7997ZM129.524 51.7947C128.907 51.7947 128.357 51.6372 127.873 51.3223C127.392 51.004 127.014 50.5515 126.739 49.9647C126.467 49.3746 126.331 48.6668 126.331 47.8414C126.331 47.0159 126.469 46.3098 126.744 45.723C127.022 45.1362 127.404 44.687 127.888 44.3754C128.372 44.0637 128.92 43.9079 129.534 43.9079C130.008 43.9079 130.389 43.9875 130.677 44.1466C130.969 44.3024 131.195 44.4848 131.354 44.6936C131.516 44.9025 131.642 45.0865 131.732 45.2456H131.821V41.4613H133.308V51.6455H131.856V50.457H131.732C131.642 50.6195 131.513 50.8051 131.344 51.014C131.178 51.2228 130.949 51.4052 130.657 51.561C130.366 51.7168 129.988 51.7947 129.524 51.7947ZM129.852 50.5266C130.28 50.5266 130.641 50.4139 130.936 50.1885C131.234 49.9598 131.46 49.6432 131.612 49.2387C131.768 48.8343 131.846 48.3635 131.846 47.8264C131.846 47.296 131.77 46.8319 131.617 46.4341C131.465 46.0363 131.241 45.7263 130.946 45.5042C130.651 45.2821 130.286 45.171 129.852 45.171C129.404 45.171 129.031 45.287 128.733 45.5191C128.435 45.7512 128.209 46.0678 128.057 46.4689C127.908 46.87 127.833 47.3225 127.833 47.8264C127.833 48.337 127.909 48.7961 128.062 49.2039C128.214 49.6117 128.44 49.9349 128.738 50.1736C129.04 50.409 129.411 50.5266 129.852 50.5266ZM138.162 51.7997C137.409 51.7997 136.761 51.6389 136.218 51.3173C135.677 50.9924 135.259 50.5366 134.964 49.9498C134.673 49.3597 134.527 48.6685 134.527 47.8762C134.527 47.0938 134.673 46.4042 134.964 45.8075C135.259 45.2108 135.671 44.745 136.198 44.4102C136.728 44.0753 137.348 43.9079 138.057 43.9079C138.488 43.9079 138.906 43.9792 139.311 44.1218C139.715 44.2643 140.078 44.4881 140.4 44.7931C140.721 45.0981 140.975 45.4942 141.16 45.9816C141.346 46.4656 141.439 47.054 141.439 47.7469V48.274H135.367V47.1601H139.982C139.982 46.7689 139.902 46.4225 139.743 46.1208C139.584 45.8158 139.36 45.5755 139.072 45.3998C138.787 45.2241 138.452 45.1362 138.067 45.1362C137.65 45.1362 137.285 45.239 136.973 45.4445C136.665 45.6467 136.426 45.9119 136.257 46.2401C136.092 46.565 136.009 46.9181 136.009 47.2993V48.1696C136.009 48.6801 136.098 49.1144 136.277 49.4724C136.46 49.8305 136.713 50.104 137.038 50.2929C137.363 50.4786 137.743 50.5714 138.177 50.5714C138.459 50.5714 138.716 50.5316 138.948 50.4521C139.18 50.3692 139.38 50.2465 139.549 50.0841C139.718 49.9216 139.848 49.7211 139.937 49.4824L141.344 49.736C141.232 50.1504 141.03 50.5134 140.738 50.825C140.449 51.1333 140.086 51.3737 139.649 51.5461C139.214 51.7151 138.719 51.7997 138.162 51.7997ZM148.844 44.0074L146.074 51.6455H144.483L141.708 44.0074H143.304L145.239 49.8852H145.318L147.248 44.0074H148.844ZM150.182 51.74C149.91 51.74 149.677 51.6439 149.481 51.4516C149.285 51.256 149.188 51.0206 149.188 50.7454C149.188 50.4736 149.285 50.2415 149.481 50.0493C149.677 49.8537 149.91 49.7559 150.182 49.7559C150.454 49.7559 150.688 49.8537 150.883 50.0493C151.079 50.2415 151.177 50.4736 151.177 50.7454C151.177 50.9278 151.13 51.0952 151.037 51.2477C150.948 51.3969 150.829 51.5162 150.679 51.6057C150.53 51.6952 150.364 51.74 150.182 51.74Z" fill="white"/>
<path d="M63.9502 67.3907V66.642H68.4113V67.3907H66.6128V72.4062H65.7459V67.3907H63.9502ZM69.9333 69.8394V72.4062H69.0918V66.642H69.9221V68.7867H69.9755C70.0769 68.5541 70.2317 68.3692 70.4399 68.2323C70.6482 68.0953 70.9203 68.0268 71.2562 68.0268C71.5526 68.0268 71.8116 68.0878 72.033 68.2097C72.2563 68.3317 72.4289 68.5137 72.5508 68.7558C72.6747 68.9959 72.7366 69.2962 72.7366 69.6564V72.4062H71.8951V69.7578C71.8951 69.4406 71.8134 69.1948 71.6502 69.0203C71.4869 68.844 71.2599 68.7558 70.9691 68.7558C70.7702 68.7558 70.5919 68.798 70.4343 68.8824C70.2786 68.9669 70.1557 69.0907 70.0656 69.2539C69.9774 69.4153 69.9333 69.6105 69.9333 69.8394ZM75.4851 72.4935C75.0591 72.4935 74.6923 72.4025 74.3846 72.2205C74.0787 72.0366 73.8423 71.7786 73.6753 71.4465C73.5102 71.1125 73.4276 70.7213 73.4276 70.2728C73.4276 69.83 73.5102 69.4397 73.6753 69.102C73.8423 68.7642 74.075 68.5006 74.3733 68.3111C74.6735 68.1216 75.0244 68.0268 75.426 68.0268C75.6699 68.0268 75.9063 68.0671 76.1352 68.1478C76.3642 68.2285 76.5696 68.3552 76.7516 68.5278C76.9336 68.7004 77.0772 68.9246 77.1823 69.2005C77.2873 69.4744 77.3399 69.8075 77.3399 70.1996V70.498H73.9033V69.8675H76.5152C76.5152 69.6461 76.4702 69.45 76.3801 69.2793C76.29 69.1067 76.1634 68.9706 76.0001 68.8712C75.8388 68.7717 75.6493 68.722 75.4316 68.722C75.1952 68.722 74.9888 68.7802 74.8124 68.8965C74.6379 69.011 74.5028 69.1611 74.4071 69.3468C74.3133 69.5307 74.2664 69.7305 74.2664 69.9463V70.4389C74.2664 70.7278 74.317 70.9736 74.4184 71.1763C74.5216 71.3789 74.6651 71.5337 74.849 71.6407C75.0329 71.7458 75.2477 71.7983 75.4935 71.7983C75.653 71.7983 75.7984 71.7758 75.9298 71.7308C76.0611 71.6838 76.1746 71.6144 76.2703 71.5225C76.366 71.4305 76.4392 71.317 76.4899 71.1819L77.2864 71.3255C77.2226 71.56 77.1081 71.7655 76.943 71.9418C76.7798 72.1164 76.5743 72.2524 76.3266 72.35C76.0808 72.4457 75.8003 72.4935 75.4851 72.4935ZM79.9632 66.642H81.0186L82.8537 71.1228H82.9212L84.7563 66.642H85.8118V72.4062H84.9843V68.2351H84.9308L83.2309 72.3978H82.5441L80.8441 68.2323H80.7906V72.4062H79.9632V66.642ZM88.029 72.5019C87.7551 72.5019 87.5074 72.4513 87.286 72.35C87.0646 72.2468 86.8891 72.0976 86.7597 71.9024C86.6321 71.7073 86.5683 71.4681 86.5683 71.1847C86.5683 70.9408 86.6152 70.74 86.709 70.5824C86.8028 70.4248 86.9295 70.3 87.089 70.2081C87.2485 70.1161 87.4267 70.0467 87.6237 69.9998C87.8207 69.9529 88.0215 69.9172 88.226 69.8929C88.485 69.8628 88.6951 69.8384 88.8565 69.8197C89.0179 69.799 89.1351 69.7662 89.2083 69.7212C89.2815 69.6761 89.3181 69.603 89.3181 69.5016V69.4819C89.3181 69.2361 89.2487 69.0457 89.1098 68.9106C88.9728 68.7755 88.7683 68.7079 88.4962 68.7079C88.2129 68.7079 87.9896 68.7708 87.8264 68.8965C87.665 69.0203 87.5534 69.1583 87.4914 69.3102L86.7006 69.1301C86.7944 68.8674 86.9313 68.6554 87.1115 68.494C87.2935 68.3308 87.5027 68.2126 87.7391 68.1394C87.9755 68.0643 88.2242 68.0268 88.485 68.0268C88.6576 68.0268 88.8406 68.0474 89.0338 68.0887C89.229 68.1281 89.411 68.2013 89.5798 68.3083C89.7506 68.4152 89.8904 68.5681 89.9992 68.767C90.108 68.964 90.1625 69.2202 90.1625 69.5354V72.4062H89.3406V71.8152H89.3068C89.2524 71.924 89.1708 72.031 89.062 72.1361C88.9531 72.2411 88.8133 72.3284 88.6426 72.3978C88.4718 72.4672 88.2673 72.5019 88.029 72.5019ZM88.212 71.8265C88.4446 71.8265 88.6435 71.7805 88.8087 71.6885C88.9757 71.5966 89.1023 71.4765 89.1886 71.3283C89.2768 71.1782 89.3209 71.0177 89.3209 70.847V70.2897C89.2909 70.3197 89.2327 70.3479 89.1464 70.3741C89.062 70.3985 88.9653 70.4201 88.8565 70.4389C88.7477 70.4558 88.6417 70.4717 88.5385 70.4867C88.4353 70.4999 88.3489 70.5111 88.2795 70.5205C88.1163 70.5411 87.9671 70.5759 87.832 70.6246C87.6988 70.6734 87.5918 70.7438 87.5111 70.8357C87.4323 70.9258 87.3929 71.0459 87.3929 71.196C87.3929 71.4043 87.4699 71.5619 87.6237 71.6688C87.7776 71.7739 87.9737 71.8265 88.212 71.8265ZM91.8871 69.8394V72.4062H91.0456V68.0831H91.8534V68.7867H91.9068C92.0063 68.5578 92.162 68.3739 92.374 68.2351C92.588 68.0962 92.8572 68.0268 93.1818 68.0268C93.4764 68.0268 93.7344 68.0887 93.9558 68.2126C94.1772 68.3345 94.3489 68.5165 94.4709 68.7586C94.5929 69.0006 94.6538 69.2999 94.6538 69.6564V72.4062H93.8123V69.7578C93.8123 69.4444 93.7307 69.1995 93.5674 69.0232C93.4042 68.8449 93.18 68.7558 92.8947 68.7558C92.6996 68.7558 92.526 68.798 92.374 68.8824C92.2239 68.9669 92.1048 69.0907 92.0166 69.2539C91.9303 69.4153 91.8871 69.6105 91.8871 69.8394ZM95.5447 72.4062V68.0831H96.3863V72.4062H95.5447ZM95.9697 67.416C95.8233 67.416 95.6976 67.3673 95.5926 67.2697C95.4894 67.1702 95.4378 67.052 95.4378 66.915C95.4378 66.7762 95.4894 66.658 95.5926 66.5604C95.6976 66.461 95.8233 66.4112 95.9697 66.4112C96.1161 66.4112 96.2408 66.461 96.344 66.5604C96.4491 66.658 96.5017 66.7762 96.5017 66.915C96.5017 67.052 96.4491 67.1702 96.344 67.2697C96.2408 67.3673 96.1161 67.416 95.9697 67.416ZM99.3381 68.0831V68.7586H96.895V68.0831H99.3381ZM97.5649 72.4062V67.5821C97.5649 67.3119 97.624 67.0877 97.7422 66.9094C97.8604 66.7293 98.0171 66.5951 98.2123 66.5069C98.4074 66.4169 98.6194 66.3718 98.8483 66.3718C99.0172 66.3718 99.1617 66.3859 99.2818 66.4141C99.4019 66.4403 99.491 66.4647 99.5492 66.4872L99.3522 67.1684C99.3127 67.1571 99.2621 67.144 99.2002 67.129C99.1382 67.1121 99.0632 67.1036 98.975 67.1036C98.7705 67.1036 98.6241 67.1543 98.5359 67.2556C98.4496 67.3569 98.4065 67.5033 98.4065 67.6947V72.4062H97.5649ZM101.662 72.4935C101.236 72.4935 100.869 72.4025 100.561 72.2205C100.255 72.0366 100.019 71.7786 99.8518 71.4465C99.6867 71.1125 99.6041 70.7213 99.6041 70.2728C99.6041 69.83 99.6867 69.4397 99.8518 69.102C100.019 68.7642 100.251 68.5006 100.55 68.3111C100.85 68.1216 101.201 68.0268 101.602 68.0268C101.846 68.0268 102.083 68.0671 102.312 68.1478C102.541 68.2285 102.746 68.3552 102.928 68.5278C103.11 68.7004 103.254 68.9246 103.359 69.2005C103.464 69.4744 103.516 69.8075 103.516 70.1996V70.498H100.08V69.8675H102.692C102.692 69.6461 102.647 69.45 102.557 69.2793C102.467 69.1067 102.34 68.9706 102.177 68.8712C102.015 68.7717 101.826 68.722 101.608 68.722C101.372 68.722 101.165 68.7802 100.989 68.8965C100.814 69.011 100.679 69.1611 100.584 69.3468C100.49 69.5307 100.443 69.7305 100.443 69.9463V70.4389C100.443 70.7278 100.494 70.9736 100.595 71.1763C100.698 71.3789 100.842 71.5337 101.025 71.6407C101.209 71.7458 101.424 71.7983 101.67 71.7983C101.829 71.7983 101.975 71.7758 102.106 71.7308C102.238 71.6838 102.351 71.6144 102.447 71.5225C102.543 71.4305 102.616 71.317 102.666 71.1819L103.463 71.3255C103.399 71.56 103.285 71.7655 103.119 71.9418C102.956 72.1164 102.751 72.2524 102.503 72.35C102.257 72.4457 101.977 72.4935 101.662 72.4935ZM107.452 69.1385L106.689 69.2736C106.657 69.1761 106.607 69.0832 106.537 68.995C106.47 68.9068 106.378 68.8346 106.261 68.7783C106.145 68.722 106 68.6938 105.825 68.6938C105.587 68.6938 105.388 68.7473 105.228 68.8543C105.069 68.9594 104.989 69.0954 104.989 69.2624C104.989 69.4069 105.043 69.5232 105.15 69.6114C105.257 69.6996 105.429 69.7718 105.667 69.8281L106.354 69.9857C106.752 70.0777 107.048 70.2193 107.244 70.4107C107.439 70.6021 107.536 70.8507 107.536 71.1566C107.536 71.4155 107.461 71.6463 107.311 71.849C107.163 72.0497 106.956 72.2074 106.689 72.3218C106.425 72.4363 106.118 72.4935 105.769 72.4935C105.285 72.4935 104.89 72.3903 104.584 72.1839C104.278 71.9756 104.09 71.6801 104.021 71.2973L104.834 71.1735C104.885 71.3855 104.989 71.5459 105.147 71.6548C105.304 71.7617 105.51 71.8152 105.763 71.8152C106.039 71.8152 106.259 71.758 106.425 71.6435C106.59 71.5272 106.672 71.3855 106.672 71.2185C106.672 71.0834 106.622 70.9699 106.52 70.8779C106.421 70.786 106.268 70.7166 106.061 70.6697L105.33 70.5092C104.926 70.4173 104.628 70.2709 104.435 70.0702C104.243 69.8694 104.148 69.6151 104.148 69.3074C104.148 69.0522 104.219 68.8289 104.361 68.6376C104.504 68.4462 104.701 68.297 104.953 68.19C105.204 68.0812 105.492 68.0268 105.817 68.0268C106.284 68.0268 106.652 68.1281 106.92 68.3308C107.188 68.5315 107.366 68.8008 107.452 69.1385ZM110.242 68.0831V68.7586H107.88V68.0831H110.242ZM108.514 67.0473H109.355V71.1369C109.355 71.3001 109.38 71.423 109.428 71.5056C109.477 71.5863 109.54 71.6416 109.617 71.6717C109.696 71.6998 109.781 71.7139 109.873 71.7139C109.941 71.7139 110 71.7092 110.05 71.6998C110.101 71.6904 110.141 71.6829 110.169 71.6773L110.321 72.3725C110.272 72.3912 110.202 72.41 110.112 72.4288C110.022 72.4494 109.91 72.4607 109.775 72.4625C109.553 72.4663 109.347 72.4269 109.155 72.3443C108.964 72.2618 108.809 72.1342 108.691 71.9616C108.573 71.7889 108.514 71.5722 108.514 71.3114V67.0473ZM112.03 71.6182L111.988 71.925C111.959 72.1501 111.912 72.3847 111.844 72.6286C111.778 72.8744 111.71 73.1024 111.639 73.3125C111.569 73.5227 111.512 73.6897 111.467 73.8135H110.87C110.895 73.6972 110.928 73.5396 110.972 73.3407C111.015 73.1437 111.057 72.9232 111.098 72.6793C111.14 72.4353 111.17 72.1867 111.191 71.9334L111.219 71.6182H112.03ZM114.736 72.4062V71.7758L116.687 69.7549C116.895 69.5354 117.067 69.3431 117.202 69.178C117.339 69.011 117.441 68.8524 117.508 68.7023C117.576 68.5522 117.61 68.3927 117.61 68.2238C117.61 68.0324 117.565 67.8673 117.475 67.7285C117.385 67.5877 117.262 67.4798 117.106 67.4048C116.95 67.3279 116.775 67.2894 116.58 67.2894C116.373 67.2894 116.193 67.3316 116.039 67.416C115.885 67.5005 115.767 67.6196 115.685 67.7735C115.602 67.9274 115.561 68.1075 115.561 68.3139H114.731C114.731 67.963 114.811 67.6562 114.973 67.3935C115.134 67.1308 115.355 66.9272 115.637 66.7828C115.918 66.6364 116.238 66.5632 116.597 66.5632C116.959 66.5632 117.278 66.6355 117.554 66.78C117.831 66.9226 118.048 67.1177 118.204 67.3654C118.359 67.6112 118.437 67.8889 118.437 68.1985C118.437 68.4124 118.397 68.6216 118.316 68.8261C118.237 69.0307 118.1 69.2586 117.903 69.5101C117.706 69.7596 117.432 70.0627 117.081 70.4192L115.935 71.6182V71.6604H118.53V72.4062H114.736ZM121.366 72.5019C120.921 72.5001 120.541 72.3828 120.226 72.1501C119.911 71.9175 119.67 71.5788 119.503 71.1341C119.336 70.6894 119.252 70.1537 119.252 69.527C119.252 68.9021 119.336 68.3683 119.503 67.9255C119.672 67.4827 119.914 67.1449 120.229 66.9122C120.546 66.6796 120.925 66.5632 121.366 66.5632C121.807 66.5632 122.185 66.6805 122.5 66.915C122.815 67.1477 123.057 67.4855 123.224 67.9283C123.392 68.3692 123.477 68.9021 123.477 69.527C123.477 70.1555 123.393 70.6922 123.226 71.1369C123.059 71.5797 122.818 71.9184 122.503 72.1529C122.188 72.3856 121.809 72.5019 121.366 72.5019ZM121.366 71.7505C121.756 71.7505 122.061 71.56 122.281 71.1791C122.502 70.7982 122.613 70.2475 122.613 69.527C122.613 69.0485 122.562 68.6441 122.461 68.3139C122.361 67.9818 122.218 67.7303 122.03 67.5596C121.844 67.387 121.623 67.3006 121.366 67.3006C120.977 67.3006 120.673 67.492 120.451 67.8748C120.23 68.2576 120.118 68.8083 120.116 69.527C120.116 70.0073 120.166 70.4135 120.265 70.7457C120.367 71.0759 120.51 71.3264 120.696 71.4971C120.882 71.666 121.105 71.7505 121.366 71.7505ZM124.238 72.4062V71.7758L126.188 69.7549C126.396 69.5354 126.568 69.3431 126.703 69.178C126.84 69.011 126.942 68.8524 127.01 68.7023C127.077 68.5522 127.111 68.3927 127.111 68.2238C127.111 68.0324 127.066 67.8673 126.976 67.7285C126.886 67.5877 126.763 67.4798 126.607 67.4048C126.452 67.3279 126.276 67.2894 126.081 67.2894C125.875 67.2894 125.695 67.3316 125.541 67.416C125.387 67.5005 125.269 67.6196 125.186 67.7735C125.103 67.9274 125.062 68.1075 125.062 68.3139H124.232C124.232 67.963 124.313 67.6562 124.474 67.3935C124.635 67.1308 124.857 66.9272 125.138 66.7828C125.42 66.6364 125.74 66.5632 126.098 66.5632C126.46 66.5632 126.779 66.6355 127.055 66.78C127.333 66.9226 127.549 67.1177 127.705 67.3654C127.861 67.6112 127.939 67.8889 127.939 68.1985C127.939 68.4124 127.898 68.6216 127.818 68.8261C127.739 69.0307 127.601 69.2586 127.404 69.5101C127.207 69.7596 126.933 70.0627 126.582 70.4192L125.437 71.6182V71.6604H128.032V72.4062H124.238ZM130.867 72.4851C130.481 72.4851 130.135 72.4184 129.831 72.2852C129.529 72.152 129.29 71.9672 129.114 71.7308C128.939 71.4925 128.845 71.2166 128.832 70.9033H129.716C129.727 71.074 129.785 71.2223 129.888 71.348C129.993 71.4718 130.13 71.5675 130.299 71.6351C130.468 71.7026 130.655 71.7364 130.862 71.7364C131.089 71.7364 131.289 71.697 131.464 71.6182C131.64 71.5394 131.778 71.4296 131.878 71.2889C131.977 71.1463 132.027 70.9821 132.027 70.7963C132.027 70.6031 131.977 70.4332 131.878 70.2869C131.78 70.1387 131.637 70.0223 131.447 69.9379C131.259 69.8534 131.032 69.8112 130.766 69.8112H130.279V69.102H130.766C130.98 69.102 131.167 69.0635 131.329 68.9866C131.492 68.9096 131.62 68.8027 131.712 68.6657C131.804 68.5269 131.85 68.3645 131.85 68.1788C131.85 68.0005 131.809 67.8457 131.729 67.7144C131.65 67.5812 131.537 67.477 131.391 67.402C131.246 67.3269 131.076 67.2894 130.879 67.2894C130.691 67.2894 130.515 67.3241 130.352 67.3935C130.191 67.4611 130.059 67.5586 129.958 67.6862C129.857 67.812 129.802 67.963 129.795 68.1394H128.953C128.963 67.8279 129.055 67.554 129.229 67.3175C129.406 67.0811 129.638 66.8963 129.927 66.7631C130.216 66.6298 130.537 66.5632 130.89 66.5632C131.259 66.5632 131.578 66.6355 131.847 66.78C132.117 66.9226 132.325 67.113 132.472 67.3513C132.62 67.5896 132.693 67.8504 132.691 68.1338C132.693 68.4565 132.603 68.7304 132.421 68.9556C132.241 69.1808 132.001 69.3318 131.7 69.4087V69.4538C132.083 69.5119 132.38 69.6639 132.59 69.9097C132.802 70.1555 132.907 70.4605 132.905 70.8245C132.907 71.1416 132.819 71.4258 132.64 71.6773C132.464 71.9287 132.223 72.1267 131.917 72.2712C131.611 72.4138 131.261 72.4851 130.867 72.4851Z" fill="#B4B5BB"/>
<path d="M30.9105 67.1433C30.4693 66.8036 30.0282 66.5489 29.5871 66.379C29.1459 66.2092 28.7048 66.1243 28.1754 66.1243C27.2049 66.0394 26.1462 66.2941 25.0874 66.464C24.0287 66.7187 23.0582 66.9735 22.3524 67.2282C21.6465 67.483 21.1172 67.6528 21.1172 67.6528C21.1172 67.6528 21.5583 67.9076 22.3524 68.2473C23.0582 68.5869 24.1169 68.9266 25.2639 69.0965C26.4109 69.2663 27.5578 69.2663 28.6165 69.0115C29.7635 68.7568 30.6458 68.1623 30.9105 67.1433Z" fill="#FFCB6D"/>
<path d="M27.8253 62.8117C28.2664 63.6609 28.7958 64.5101 29.5898 65.0196C29.9428 65.2744 30.3839 65.5291 30.825 65.6141C31.2662 65.699 31.7955 65.699 32.2367 65.4442C32.2367 64.4252 31.972 63.576 31.5309 62.8966C31.0897 62.2173 30.3839 61.5379 29.7663 61.0284C29.0605 60.5189 28.4429 60.0943 27.9135 59.7546C27.3842 59.415 27.0312 59.2451 27.0312 59.2451C27.0312 59.2451 27.0312 59.33 27.0312 59.5848C27.0312 59.7546 27.1195 60.0094 27.1195 60.3491C27.2077 61.0284 27.3842 61.8776 27.8253 62.8117Z" fill="#FFCB6D"/>
<path d="M20.4075 65.1048C21.4662 65.0199 22.3485 64.6803 22.9661 63.8311C22.4367 62.9819 21.6427 62.4724 20.7604 62.2176C19.8781 61.9628 18.7312 61.8779 17.6724 61.8779C16.6137 61.8779 15.555 61.8779 14.7609 61.8779C13.9669 61.8779 13.4375 61.8779 13.4375 61.8779C13.4375 61.8779 13.5257 61.9628 13.7022 62.1327C13.8786 62.3025 14.1433 62.5573 14.4962 62.812C15.202 63.3215 16.0843 63.916 17.143 64.4255C18.29 64.8501 19.437 65.1048 20.4075 65.1048Z" fill="#FFCB6D"/>
<path d="M22.3559 61.1991C22.9735 61.8785 23.7676 62.388 24.7381 62.3031C25.1792 61.3689 25.091 60.4348 24.8263 59.5856C24.5616 58.7364 24.0323 57.9722 23.5911 57.2928C23.0617 56.6135 22.6206 56.104 22.1795 55.6794C22.003 55.5095 21.8266 55.3397 21.7383 55.1698C21.6501 55.0849 21.5619 55 21.5619 55C21.5619 55 21.5619 55.0849 21.4736 55.2548C21.3854 55.4246 21.3854 55.6794 21.2972 56.019C21.209 56.6984 21.1207 57.5476 21.2972 58.4817C21.4736 59.5007 21.8265 60.4348 22.3559 61.1991Z" fill="#FFCB6D"/>
<path d="M9.82112 54.1502C9.1153 53.8955 8.58594 53.8105 8.58594 53.8105C8.58594 53.8105 8.67415 53.8955 8.76238 54.1502C8.8506 54.3201 9.02706 54.5748 9.20352 54.9145C9.37997 55.2542 9.64467 55.5938 9.90935 56.0184C10.0858 56.1883 10.174 56.443 10.3505 56.6129L10.4387 56.7827L10.6152 56.9526C10.7034 57.0375 10.7916 57.2073 10.8798 57.2922C11.7621 58.2263 12.8209 58.9906 13.7914 59.3303C14.8501 59.67 15.8206 59.5851 16.7029 58.9057C16.4382 57.8867 15.9088 57.2073 15.1148 56.6978C14.9383 56.528 14.6736 56.443 14.4972 56.2732C14.3207 56.1034 14.0561 56.0184 13.7914 55.8486C13.5267 55.6788 13.3502 55.5938 13.0855 55.424C12.8208 55.3391 12.6444 55.1693 12.3797 55.0843C11.4974 54.6597 10.5269 54.3201 9.82112 54.1502Z" fill="#FFCB6D"/>
<path d="M16.9733 55.8486C17.238 56.6978 17.8556 57.3772 18.8261 57.6319C19.5319 56.8676 19.7084 55.9335 19.7966 55.1692C19.8848 54.3201 19.7084 53.5558 19.6202 52.8764C19.6202 52.6217 19.4437 52.1122 19.3555 51.7725C19.2672 51.4328 19.0908 51.0931 19.0026 50.7535C18.9143 50.4987 18.8261 50.2439 18.7379 50.0741C18.6497 49.9043 18.6497 49.8193 18.6497 49.8193C18.6497 49.8193 18.5614 49.9043 18.4732 50.0741C18.385 50.2439 18.2085 50.4987 18.0321 50.7535C17.6791 51.3479 17.3262 52.1971 17.0615 53.0463C16.9733 53.301 16.9733 53.4709 16.8851 53.7256C16.7969 53.9804 16.7969 54.1502 16.7969 54.405C16.7969 54.6597 16.7969 54.8296 16.7969 55.0843C16.7969 55.424 16.8851 55.6788 16.9733 55.8486Z" fill="#FFCB6D"/>
<path d="M8.76724 50.6683C8.9437 50.8382 9.12016 51.008 9.29661 51.1779C9.47307 51.3477 9.73776 51.5175 9.91422 51.6025C10.7965 52.112 11.6788 52.3667 12.7375 52.0271C12.8257 51.5175 12.8257 51.0929 12.6493 50.6683C12.561 50.4985 12.4728 50.2438 12.3846 50.0739C12.2964 49.9041 12.1199 49.7342 12.0317 49.4795C11.5023 48.7152 10.62 48.1208 9.82598 47.5263C9.03193 46.9319 8.14965 46.4224 7.44382 46.0827C6.738 45.743 6.29688 45.4883 6.29688 45.4883C6.29688 45.4883 6.29688 45.5732 6.38511 45.828C6.47334 46.0827 6.56155 46.3375 6.64978 46.6771C6.91446 47.3565 7.26737 48.3755 7.88496 49.2247C8.06142 49.8192 8.41433 50.2437 8.76724 50.6683Z" fill="#FFCB6D"/>
<path d="M14.2357 50.2437C14.4122 50.6683 14.7651 51.008 15.118 51.2628C16.0003 50.7533 16.5296 49.989 16.8826 49.1398C16.9708 48.97 16.9708 48.7152 17.059 48.5453C17.059 48.4604 17.059 48.2906 17.1472 48.2057C17.1472 48.1208 17.1472 47.9509 17.2355 47.866C17.3237 47.4414 17.3237 47.0168 17.3237 46.5922C17.2355 45.743 17.2354 44.9787 17.059 44.3843C16.9708 44.1296 16.9708 43.8748 16.8826 43.705C16.8826 43.5351 16.7943 43.4502 16.7943 43.4502C16.7943 43.4502 16.7061 43.5351 16.5296 43.705C16.3532 43.8748 16.1767 44.0446 16.0003 44.2994C15.5591 44.8089 15.0298 45.5732 14.5886 46.4224C14.1475 47.2716 13.8828 48.2057 13.8828 49.1398C13.8828 49.3945 13.8828 49.5644 13.971 49.8191C14.0592 49.9041 14.1475 50.0739 14.2357 50.2437Z" fill="#FFCB6D"/>
<path d="M6.91162 42.6017C6.99985 42.8565 7.17631 43.0263 7.35276 43.2811C7.52922 43.4509 7.70568 43.7057 7.88213 43.8755C8.58795 44.5549 9.47023 44.9795 10.529 44.8096C10.7054 44.385 10.7937 43.8755 10.7054 43.4509C10.7054 43.1962 10.6172 43.0263 10.529 42.7716C10.4407 42.6017 10.3525 42.347 10.2643 42.1771C10.0878 41.7525 9.82316 41.3279 9.47025 40.9883C9.29379 40.8184 9.11734 40.5637 9.02911 40.3938C8.85265 40.224 8.67619 40.0542 8.49974 39.7994C7.79392 39.0351 6.99985 38.3558 6.47048 37.8463C5.94112 37.3367 5.5 36.9971 5.5 36.9971C5.5 36.9971 5.5 37.5066 5.5 38.2709C5.5 38.6955 5.58821 39.1201 5.67644 39.5446C5.76467 39.7994 5.76468 40.0542 5.85291 40.3089C5.94113 40.5637 5.94112 40.8184 6.11758 41.0732C6.47049 41.5827 6.73517 42.0922 6.91162 42.6017Z" fill="#FFCB6D"/>
<path d="M13.0909 44.2153C14.0614 43.8756 14.7673 43.1962 15.2084 42.5169C15.2966 42.347 15.3849 42.1772 15.4731 41.9224C15.5613 41.7526 15.6495 41.4978 15.7378 41.328C15.9142 40.9034 16.0025 40.4788 16.0907 40.1391C16.1789 39.7145 16.2671 39.3749 16.2671 38.9503C16.2671 38.7804 16.2671 38.6106 16.3554 38.4407C16.3554 38.2709 16.3554 38.1011 16.3554 38.0161C16.4436 37.4217 16.4436 37.082 16.4436 37.082C16.4436 37.082 16.0907 37.2519 15.4731 37.6765C15.2966 37.7614 15.2084 37.8463 15.0319 38.0161C14.8555 38.1011 14.679 38.2709 14.5908 38.4407C14.2379 38.6955 13.9732 39.0352 13.6203 39.3749C13.4438 39.5447 13.3556 39.7145 13.1792 39.9693C13.0909 40.0542 13.0027 40.1391 13.0027 40.309C12.9145 40.3939 12.9145 40.4788 12.8262 40.6486C12.6498 41.0732 12.4733 41.4978 12.3851 41.9224C12.3851 42.1772 12.2969 42.347 12.2969 42.6018C12.2969 42.8565 12.3851 43.0264 12.3851 43.1962C12.5616 43.451 12.738 43.8756 13.0909 44.2153Z" fill="#FFCB6D"/>
<path d="M9.37891 31.9017C9.11423 31.4771 8.84953 31.0525 8.67307 30.6279C8.40839 30.2033 8.14372 29.8636 7.96726 29.5239C7.52612 28.9295 7.26145 28.5049 7.26145 28.5049C7.26145 28.5049 7.08498 29.0144 6.99675 29.7787C6.90852 30.1183 6.90854 30.6279 6.82031 31.0525C6.82031 31.3072 6.82031 31.562 6.82031 31.8167C6.82031 32.0715 6.82031 32.3262 6.82031 32.581C6.90854 33.0905 6.90853 33.6 7.08498 34.1095C7.26144 34.6191 7.43791 35.1286 7.70259 35.4683C8.23196 36.3174 9.02599 36.9119 10.0847 36.9968C10.2612 36.827 10.3494 36.5722 10.4376 36.4024C10.5259 36.2325 10.6141 35.9778 10.6141 35.8079C10.7023 35.3833 10.6141 34.9587 10.5259 34.5341C10.4376 34.1095 10.2612 33.6 10.0847 33.1754C9.90827 32.8358 9.64359 32.3262 9.37891 31.9017Z" fill="#FFCB6D"/>
<path d="M15.1202 35.8081C15.4731 35.4684 15.7378 35.2137 15.9142 34.7891C16.1789 34.4494 16.3554 34.1097 16.5318 33.6851C16.6201 33.5153 16.7083 33.3455 16.7965 33.1756C16.8847 33.0058 16.9729 32.8359 17.0612 32.6661C17.2376 32.3264 17.3259 32.0717 17.4141 31.732C17.5906 31.2225 17.6788 30.8828 17.6788 30.8828C17.6788 30.8828 17.2376 30.9677 16.62 31.2225C16.0024 31.4772 15.2084 31.8169 14.4143 32.4113C14.2379 32.5812 14.0614 32.6661 13.885 32.8359C13.7085 33.0058 13.5321 33.1756 13.3556 33.3455C13.0027 33.6851 12.738 34.1097 12.5616 34.4494C12.3851 34.874 12.2969 35.2986 12.2969 35.7232C12.2969 35.893 12.2969 36.1478 12.3851 36.3176C12.4733 36.4875 12.5616 36.7422 12.6498 36.9121C13.7085 36.8271 14.5026 36.4026 15.1202 35.8081Z" fill="#FFCB6D"/>
<path d="M12.0296 29.1844C12.2061 29.0145 12.2943 28.8447 12.3826 28.5899C12.4708 28.4201 12.559 28.1653 12.559 27.9955C12.559 27.8256 12.6472 27.5709 12.6472 27.3161C12.6472 26.8915 12.6472 26.382 12.559 25.8725C12.4708 25.363 12.3825 24.9384 12.2943 24.4289C12.0296 23.4948 11.765 22.5606 11.5003 21.8813C11.2356 21.2019 11.0591 20.7773 11.0591 20.7773C11.0591 20.7773 10.9709 20.8623 10.8827 21.0321C10.7944 21.2019 10.618 21.5416 10.4415 21.8813C10.0886 22.5606 9.73571 23.4948 9.55925 24.5138C9.47102 25.0233 9.38281 25.5328 9.38281 26.0423C9.38281 26.2971 9.38282 26.5519 9.47105 26.8066C9.47105 27.0614 9.55926 27.3161 9.64748 27.5709C9.82394 27.9955 10.0004 28.4201 10.3533 28.8447C10.7062 29.1843 11.0591 29.524 11.5885 29.6939C11.765 29.6089 11.9414 29.4391 12.0296 29.1844Z" fill="#FFCB6D"/>
<path d="M20.4094 25.5321C20.4976 25.3623 20.5858 25.2773 20.5858 25.2773C20.5858 25.2773 20.4976 25.2773 20.2329 25.2773C20.0565 25.2773 19.7918 25.2773 19.4389 25.3623C19.086 25.3623 18.7331 25.4472 18.2919 25.5321C18.1155 25.617 17.8508 25.617 17.6743 25.7019C17.4979 25.7869 17.2332 25.8718 17.0567 25.9567C16.6156 26.1265 16.1744 26.2964 15.7333 26.5511C15.3804 26.8059 15.0275 27.1456 14.6746 27.4003C14.4981 27.5702 14.4099 27.74 14.3217 27.9098C14.2335 28.0797 14.1452 28.3344 14.057 28.5043C13.9688 28.6741 13.9688 28.9289 13.9688 29.0987C13.9688 29.3535 14.057 29.5233 14.057 29.7781C14.5863 29.863 15.0275 29.863 15.4686 29.7781C15.9098 29.6931 16.3509 29.5233 16.7038 29.2685C16.8803 29.1836 17.0567 29.0138 17.2332 28.9289C17.3214 28.844 17.4096 28.759 17.4979 28.759C17.5861 28.6741 17.6743 28.5892 17.7626 28.5892C18.1155 28.3344 18.3802 27.9948 18.6448 27.74C18.9095 27.4003 19.1742 27.1456 19.3506 26.8908C19.4389 26.8059 19.4389 26.721 19.5271 26.6361C19.6153 26.5511 19.6153 26.4662 19.7036 26.4662C19.7918 26.2964 19.88 26.2115 19.9683 26.1265C20.1447 25.8718 20.3212 25.7019 20.4094 25.5321Z" fill="#FFCB6D"/>
<path d="M14.9338 22.985C15.3749 22.7302 15.7278 22.4754 15.9925 22.1358C16.2572 21.7961 16.4336 21.3715 16.6101 20.9469C16.8748 20.0977 16.963 19.0787 16.963 18.1446C16.963 17.8898 16.963 17.635 16.963 17.3803C16.963 17.1255 16.963 16.8708 16.963 16.7009C16.963 16.2763 16.8748 15.8517 16.8748 15.4271C16.7866 14.7478 16.6983 14.2383 16.6983 14.2383C16.6983 14.2383 16.6101 14.3232 16.4336 14.493C16.2572 14.6629 16.0807 14.9176 15.816 15.1724C15.5514 15.5121 15.2867 15.8517 15.1102 16.1914C14.8455 16.616 14.5808 17.0406 14.4044 17.4652C14.2279 17.9747 14.0515 18.3993 13.875 18.9088C13.7868 19.4184 13.6986 19.9279 13.6986 20.3525C13.6104 21.4564 14.0515 22.3905 14.9338 22.985Z" fill="#FFCB6D"/>
<path d="M22.3493 22.4754C22.7022 22.2206 23.0551 21.9659 23.3198 21.7111C23.5845 21.4564 23.8491 21.2865 24.1138 21.0318C24.2903 20.8619 24.4667 20.6921 24.6432 20.5223C24.7314 20.4373 24.8197 20.3524 24.8197 20.3524C24.8197 20.3524 24.3785 20.2675 23.6727 20.1826C23.3198 20.1826 22.9669 20.0977 22.5257 20.0977C22.0846 20.0977 21.6435 20.0977 21.1141 20.1826C20.1436 20.3524 19.1731 20.6072 18.4673 21.1167C18.1144 21.3715 17.8497 21.7111 17.585 22.0508C17.4085 22.3905 17.3203 22.8151 17.3203 23.3246C18.2908 23.7492 19.2613 23.6643 20.0554 23.4944C20.4965 23.4095 20.8494 23.2397 21.2906 22.9849C21.6435 22.9 21.9964 22.7302 22.3493 22.4754Z" fill="#FFCB6D"/>
<path d="M29.9424 66.0391C26.5898 64.7653 23.2371 63.2368 20.4138 61.0289C17.4141 58.6511 15.2966 55.4242 13.7968 51.6878C11.944 47.3569 10.6206 42.8562 10.797 38.1007C10.9735 34.0246 12.1204 30.0334 13.885 26.2969C15.3849 23.3247 17.2376 20.3526 19.5316 17.7201C19.3551 17.3804 19.3551 16.9558 19.4433 16.6161C19.5316 16.1915 19.708 15.7669 19.9727 15.4272C20.5021 14.663 21.2961 13.9836 22.1784 13.559C23.0607 13.0495 23.9429 12.7948 24.6488 12.6249C25.0017 12.54 25.2664 12.4551 25.4428 12.4551H25.7075H25.7957V12.54C25.7957 12.54 25.7957 12.6249 25.7075 12.7098C25.6193 12.8797 25.5311 13.1344 25.3546 13.3892C25.0899 13.9836 24.6488 14.663 24.1194 15.4272C23.8547 15.7669 23.5018 16.1066 23.2371 16.4463L22.796 16.8709L22.7958 16.871C22.6194 17.0408 22.443 17.2106 22.2666 17.2955C21.9137 17.4653 21.5608 17.7201 21.1197 17.805C20.855 17.8899 20.5021 17.8899 20.1491 17.8899C19.1786 19.0788 18.2082 20.2676 17.4141 21.4565C14.1497 26.1271 11.8557 31.5619 11.5028 37.2515C11.2382 42.1768 12.3851 46.7624 14.3261 51.2632C15.2966 53.6409 16.5318 55.9337 18.2964 57.8868C20.0609 59.84 22.1784 61.3685 24.4723 62.6423C28.8837 65.0201 35.3243 67.7375 41.412 69.6906L39.7357 70.4549C36.2066 68.8414 32.6775 67.0581 29.9424 66.0391Z" fill="#FFCB6D"/>
<path d="M167.629 67.1433C168.07 66.8036 168.511 66.5489 168.952 66.379C169.393 66.2092 169.834 66.1243 170.364 66.1243C171.334 66.0394 172.393 66.2941 173.452 66.464C174.51 66.7187 175.481 66.9735 176.187 67.2282C176.893 67.483 177.422 67.6528 177.422 67.6528C177.422 67.6528 176.981 67.9076 176.187 68.2473C175.481 68.5869 174.422 68.9266 173.275 69.0965C172.128 69.2663 170.981 69.2663 169.923 69.0115C168.776 68.7568 167.893 68.1623 167.629 67.1433Z" fill="#FFCB6D"/>
<path d="M170.714 62.8117C170.273 63.6609 169.743 64.5101 168.949 65.0196C168.596 65.2744 168.155 65.5291 167.714 65.6141C167.273 65.699 166.744 65.699 166.302 65.4442C166.302 64.4252 166.567 63.576 167.008 62.8966C167.449 62.2173 168.155 61.5379 168.773 61.0284C169.479 60.5189 170.096 60.0943 170.626 59.7546C171.155 59.415 171.508 59.2451 171.508 59.2451C171.508 59.2451 171.508 59.33 171.508 59.5848C171.508 59.7546 171.42 60.0094 171.42 60.3491C171.331 61.0284 171.155 61.8776 170.714 62.8117Z" fill="#FFCB6D"/>
<path d="M178.132 65.1048C177.073 65.0199 176.191 64.6803 175.573 63.8311C176.102 62.9819 176.896 62.4724 177.779 62.2176C178.661 61.9628 179.808 61.8779 180.867 61.8779C181.925 61.8779 182.984 61.8779 183.778 61.8779C184.572 61.8779 185.102 61.8779 185.102 61.8779C185.102 61.8779 185.013 61.9628 184.837 62.1327C184.66 62.3025 184.396 62.5573 184.043 62.812C183.337 63.3215 182.455 63.916 181.396 64.4255C180.249 64.8501 179.102 65.1048 178.132 65.1048Z" fill="#FFCB6D"/>
<path d="M176.183 61.1991C175.566 61.8785 174.772 62.388 173.801 62.3031C173.36 61.3689 173.448 60.4348 173.713 59.5856C173.977 58.7364 174.507 57.9722 174.948 57.2928C175.477 56.6135 175.918 56.104 176.36 55.6794C176.536 55.5095 176.713 55.3397 176.801 55.1698C176.889 55.0849 176.977 55 176.977 55C176.977 55 176.977 55.0849 177.065 55.2548C177.154 55.4246 177.154 55.6794 177.242 56.019C177.33 56.6984 177.418 57.5476 177.242 58.4817C177.065 59.5007 176.713 60.4348 176.183 61.1991Z" fill="#FFCB6D"/>
<path d="M188.718 54.1502C189.424 53.8955 189.953 53.8105 189.953 53.8105C189.953 53.8105 189.865 53.8955 189.777 54.1502C189.688 54.3201 189.512 54.5748 189.336 54.9145C189.159 55.2542 188.894 55.5938 188.63 56.0184C188.453 56.1883 188.365 56.443 188.189 56.6129L188.1 56.7827L187.924 56.9526C187.836 57.0375 187.747 57.2073 187.659 57.2922C186.777 58.2263 185.718 58.9906 184.748 59.3303C183.689 59.67 182.718 59.5851 181.836 58.9057C182.101 57.8867 182.63 57.2073 183.424 56.6978C183.601 56.528 183.865 56.443 184.042 56.2732C184.218 56.1034 184.483 56.0184 184.748 55.8486C185.012 55.6788 185.189 55.5938 185.454 55.424C185.718 55.3391 185.895 55.1693 186.159 55.0843C187.042 54.6597 188.012 54.3201 188.718 54.1502Z" fill="#FFCB6D"/>
<path d="M181.574 55.8486C181.309 56.6978 180.691 57.3772 179.721 57.6319C179.015 56.8676 178.838 55.9335 178.75 55.1692C178.662 54.3201 178.838 53.5558 178.927 52.8764C178.927 52.6217 179.103 52.1122 179.191 51.7725C179.28 51.4328 179.456 51.0931 179.544 50.7535C179.633 50.4987 179.721 50.2439 179.809 50.0741C179.897 49.9043 179.897 49.8193 179.897 49.8193C179.897 49.8193 179.985 49.9043 180.074 50.0741C180.162 50.2439 180.338 50.4987 180.515 50.7535C180.868 51.3479 181.221 52.1971 181.485 53.0463C181.574 53.301 181.574 53.4709 181.662 53.7256C181.75 53.9804 181.75 54.1502 181.75 54.405C181.75 54.6597 181.75 54.8296 181.75 55.0843C181.75 55.424 181.662 55.6788 181.574 55.8486Z" fill="#FFCB6D"/>
<path d="M189.772 50.6683C189.595 50.8382 189.419 51.008 189.242 51.1779C189.066 51.3477 188.801 51.5175 188.625 51.6025C187.743 52.112 186.86 52.3667 185.802 52.0271C185.713 51.5175 185.713 51.0929 185.89 50.6683C185.978 50.4985 186.066 50.2438 186.154 50.0739C186.243 49.9041 186.419 49.7342 186.507 49.4795C187.037 48.7152 187.919 48.1208 188.713 47.5263C189.507 46.9319 190.389 46.4224 191.095 46.0827C191.801 45.743 192.242 45.4883 192.242 45.4883C192.242 45.4883 192.242 45.5732 192.154 45.828C192.066 46.0827 191.978 46.3375 191.889 46.6771C191.625 47.3565 191.272 48.3755 190.654 49.2247C190.478 49.8192 190.125 50.2437 189.772 50.6683Z" fill="#FFCB6D"/>
<path d="M184.303 50.2437C184.127 50.6683 183.774 51.008 183.421 51.2628C182.539 50.7533 182.009 49.989 181.657 49.1398C181.568 48.97 181.568 48.7152 181.48 48.5453C181.48 48.4604 181.48 48.2906 181.392 48.2057C181.392 48.1208 181.392 47.9509 181.304 47.866C181.215 47.4414 181.215 47.0168 181.215 46.5922C181.304 45.743 181.304 44.9787 181.48 44.3843C181.568 44.1296 181.568 43.8748 181.657 43.705C181.657 43.5351 181.745 43.4502 181.745 43.4502C181.745 43.4502 181.833 43.5351 182.009 43.705C182.186 43.8748 182.362 44.0446 182.539 44.2994C182.98 44.8089 183.509 45.5732 183.95 46.4224C184.392 47.2716 184.656 48.2057 184.656 49.1398C184.656 49.3945 184.656 49.5644 184.568 49.8191C184.48 49.9041 184.392 50.0739 184.303 50.2437Z" fill="#FFCB6D"/>
<path d="M191.627 42.6017C191.539 42.8565 191.363 43.0263 191.186 43.2811C191.01 43.4509 190.833 43.7057 190.657 43.8755C189.951 44.5549 189.069 44.9795 188.01 44.8096C187.834 44.385 187.745 43.8755 187.834 43.4509C187.834 43.1962 187.922 43.0263 188.01 42.7716C188.098 42.6017 188.187 42.347 188.275 42.1771C188.451 41.7525 188.716 41.3279 189.069 40.9883C189.245 40.8184 189.422 40.5637 189.51 40.3938C189.686 40.224 189.863 40.0542 190.039 39.7994C190.745 39.0351 191.539 38.3558 192.069 37.8463C192.598 37.3367 193.039 36.9971 193.039 36.9971C193.039 36.9971 193.039 37.5066 193.039 38.2709C193.039 38.6955 192.951 39.1201 192.863 39.5446C192.774 39.7994 192.774 40.0542 192.686 40.3089C192.598 40.5637 192.598 40.8184 192.421 41.0732C192.069 41.5827 191.804 42.0922 191.627 42.6017Z" fill="#FFCB6D"/>
<path d="M185.448 44.2153C184.478 43.8756 183.772 43.1962 183.331 42.5169C183.242 42.347 183.154 42.1772 183.066 41.9224C182.978 41.7526 182.89 41.4978 182.801 41.328C182.625 40.9034 182.537 40.4788 182.448 40.1391C182.36 39.7145 182.272 39.3749 182.272 38.9503C182.272 38.7804 182.272 38.6106 182.184 38.4407C182.184 38.2709 182.184 38.1011 182.184 38.0161C182.095 37.4217 182.095 37.082 182.095 37.082C182.095 37.082 182.448 37.2519 183.066 37.6765C183.242 37.7614 183.331 37.8463 183.507 38.0161C183.684 38.1011 183.86 38.2709 183.948 38.4407C184.301 38.6955 184.566 39.0352 184.919 39.3749C185.095 39.5447 185.183 39.7145 185.36 39.9693C185.448 40.0542 185.536 40.1391 185.536 40.309C185.625 40.3939 185.625 40.4788 185.713 40.6486C185.889 41.0732 186.066 41.4978 186.154 41.9224C186.154 42.1772 186.242 42.347 186.242 42.6018C186.242 42.8565 186.154 43.0264 186.154 43.1962C185.977 43.451 185.801 43.8756 185.448 44.2153Z" fill="#FFCB6D"/>
<path d="M189.16 31.9017C189.425 31.4771 189.69 31.0525 189.866 30.6279C190.131 30.2033 190.395 29.8636 190.572 29.5239C191.013 28.9295 191.278 28.5049 191.278 28.5049C191.278 28.5049 191.454 29.0144 191.542 29.7787C191.631 30.1183 191.631 30.6279 191.719 31.0525C191.719 31.3072 191.719 31.562 191.719 31.8167C191.719 32.0715 191.719 32.3262 191.719 32.581C191.631 33.0905 191.631 33.6 191.454 34.1095C191.278 34.6191 191.101 35.1286 190.836 35.4683C190.307 36.3174 189.513 36.9119 188.454 36.9968C188.278 36.827 188.19 36.5722 188.101 36.4024C188.013 36.2325 187.925 35.9778 187.925 35.8079C187.837 35.3833 187.925 34.9587 188.013 34.5341C188.101 34.1095 188.278 33.6 188.454 33.1754C188.631 32.8358 188.895 32.3262 189.16 31.9017Z" fill="#FFCB6D"/>
<path d="M183.419 35.8081C183.066 35.4684 182.801 35.2137 182.625 34.7891C182.36 34.4494 182.184 34.1097 182.007 33.6851C181.919 33.5153 181.831 33.3455 181.743 33.1756C181.654 33.0058 181.566 32.8359 181.478 32.6661C181.301 32.3264 181.213 32.0717 181.125 31.732C180.949 31.2225 180.86 30.8828 180.86 30.8828C180.86 30.8828 181.301 30.9677 181.919 31.2225C182.537 31.4772 183.331 31.8169 184.125 32.4113C184.301 32.5812 184.478 32.6661 184.654 32.8359C184.831 33.0058 185.007 33.1756 185.183 33.3455C185.536 33.6851 185.801 34.1097 185.977 34.4494C186.154 34.874 186.242 35.2986 186.242 35.7232C186.242 35.893 186.242 36.1478 186.154 36.3176C186.066 36.4875 185.978 36.7422 185.889 36.9121C184.831 36.8271 184.036 36.4026 183.419 35.8081Z" fill="#FFCB6D"/>
<path d="M186.509 29.1844C186.333 29.0145 186.245 28.8447 186.157 28.5899C186.068 28.4201 185.98 28.1653 185.98 27.9955C185.98 27.8256 185.892 27.5709 185.892 27.3161C185.892 26.8915 185.892 26.382 185.98 25.8725C186.068 25.363 186.157 24.9384 186.245 24.4289C186.509 23.4948 186.774 22.5606 187.039 21.8813C187.303 21.2019 187.48 20.7773 187.48 20.7773C187.48 20.7773 187.568 20.8623 187.656 21.0321C187.745 21.2019 187.921 21.5416 188.098 21.8813C188.45 22.5606 188.803 23.4948 188.98 24.5138C189.068 25.0233 189.156 25.5328 189.156 26.0423C189.156 26.2971 189.156 26.5519 189.068 26.8066C189.068 27.0614 188.98 27.3161 188.892 27.5709C188.715 27.9955 188.539 28.4201 188.186 28.8447C187.833 29.1843 187.48 29.524 186.951 29.6939C186.774 29.6089 186.598 29.4391 186.509 29.1844Z" fill="#FFCB6D"/>
<path d="M178.13 25.5321C178.041 25.3623 177.953 25.2773 177.953 25.2773C177.953 25.2773 178.041 25.2773 178.306 25.2773C178.483 25.2773 178.747 25.2773 179.1 25.3623C179.453 25.3623 179.806 25.4472 180.247 25.5321C180.424 25.617 180.688 25.617 180.865 25.7019C181.041 25.7869 181.306 25.8718 181.482 25.9567C181.923 26.1265 182.365 26.2964 182.806 26.5511C183.159 26.8059 183.512 27.1456 183.864 27.4003C184.041 27.5702 184.129 27.74 184.217 27.9098C184.306 28.0797 184.394 28.3344 184.482 28.5043C184.57 28.6741 184.57 28.9289 184.57 29.0987C184.57 29.3535 184.482 29.5233 184.482 29.7781C183.953 29.863 183.512 29.863 183.07 29.7781C182.629 29.6931 182.188 29.5233 181.835 29.2685C181.659 29.1836 181.482 29.0138 181.306 28.9289C181.218 28.844 181.129 28.759 181.041 28.759C180.953 28.6741 180.865 28.5892 180.777 28.5892C180.424 28.3344 180.159 27.9948 179.894 27.74C179.63 27.4003 179.365 27.1456 179.188 26.8908C179.1 26.8059 179.1 26.721 179.012 26.6361C178.924 26.5511 178.924 26.4662 178.836 26.4662C178.747 26.2964 178.659 26.2115 178.571 26.1265C178.394 25.8718 178.218 25.7019 178.13 25.5321Z" fill="#FFCB6D"/>
<path d="M183.597 22.985C183.156 22.7302 182.803 22.4754 182.539 22.1358C182.274 21.7961 182.098 21.3715 181.921 20.9469C181.656 20.0977 181.568 19.0787 181.568 18.1446C181.568 17.8898 181.568 17.635 181.568 17.3803C181.568 17.1255 181.568 16.8708 181.568 16.7009C181.568 16.2763 181.656 15.8517 181.656 15.4271C181.745 14.7478 181.833 14.2383 181.833 14.2383C181.833 14.2383 181.921 14.3232 182.098 14.493C182.274 14.6629 182.451 14.9176 182.715 15.1724C182.98 15.5121 183.245 15.8517 183.421 16.1914C183.686 16.616 183.95 17.0406 184.127 17.4652C184.303 17.9747 184.48 18.3993 184.656 18.9088C184.744 19.4184 184.833 19.9279 184.833 20.3525C184.921 21.4564 184.48 22.3905 183.597 22.985Z" fill="#FFCB6D"/>
<path d="M176.19 22.4754C175.837 22.2206 175.484 21.9659 175.219 21.7111C174.955 21.4564 174.69 21.2865 174.425 21.0318C174.249 20.8619 174.072 20.6921 173.896 20.5223C173.808 20.4373 173.719 20.3524 173.719 20.3524C173.719 20.3524 174.161 20.2675 174.866 20.1826C175.219 20.1826 175.572 20.0977 176.013 20.0977C176.454 20.0977 176.896 20.0977 177.425 20.1826C178.395 20.3524 179.366 20.6072 180.072 21.1167C180.425 21.3715 180.689 21.7111 180.954 22.0508C181.131 22.3905 181.219 22.8151 181.219 23.3246C180.248 23.7492 179.278 23.6643 178.484 23.4944C178.043 23.4095 177.69 23.2397 177.249 22.9849C176.896 22.9 176.543 22.7302 176.19 22.4754Z" fill="#FFCB6D"/>
<path d="M168.597 66.0391C171.949 64.7653 175.302 63.2368 178.125 61.0289C181.125 58.6511 183.242 55.4242 184.742 51.6878C186.595 47.3569 187.918 42.8562 187.742 38.1007C187.566 34.0246 186.419 30.0334 184.654 26.2969C183.154 23.3247 181.301 20.3526 179.007 17.7201C179.184 17.3804 179.184 16.9558 179.096 16.6161C179.008 16.1915 178.831 15.7669 178.566 15.4272C178.037 14.663 177.243 13.9836 176.361 13.559C175.478 13.0495 174.596 12.7948 173.89 12.6249C173.537 12.54 173.273 12.4551 173.096 12.4551H172.832H172.743V12.54C172.743 12.54 172.743 12.6249 172.832 12.7098C172.92 12.8797 173.008 13.1344 173.184 13.3892C173.449 13.9836 173.89 14.663 174.42 15.4272C174.684 15.7669 175.037 16.1066 175.302 16.4463L175.743 16.8709L175.743 16.871C175.92 17.0408 176.096 17.2106 176.272 17.2955C176.625 17.4653 176.978 17.7201 177.419 17.805C177.684 17.8899 178.037 17.8899 178.39 17.8899C179.36 19.0788 180.331 20.2676 181.125 21.4565C184.389 26.1271 186.683 31.5619 187.036 37.2515C187.301 42.1768 186.154 46.7624 184.213 51.2632C183.242 53.6409 182.007 55.9337 180.243 57.8868C178.478 59.84 176.361 61.3685 174.067 62.6423C169.655 65.0201 163.215 67.7375 157.127 69.6906L158.803 70.4549C162.332 68.8414 165.862 67.0581 168.597 66.0391Z" fill="#FFCB6D"/>
<g clip-path="url(#clip0_1715_15128)">
<g clip-path="url(#clip1_1715_15128)">
<path fill-rule="evenodd" clip-rule="evenodd" d="M101.482 7.58105H101.096L100.055 9.96414H100.481L100.724 9.39301H101.844L102.084 9.96414H102.527L101.482 7.58105ZM101.691 9.02398H100.876L101.278 8.07778L101.691 9.02398Z" fill="white"/>
<path fill-rule="evenodd" clip-rule="evenodd" d="M114.271 7.98375H115.021V7.59863H113.102V7.98375H113.852V9.96463H114.271V7.98375Z" fill="white"/>
<path fill-rule="evenodd" clip-rule="evenodd" d="M111.505 8.22011C111.505 8.18108 111.514 8.14259 111.531 8.10769C111.549 8.07278 111.574 8.04242 111.605 8.019C111.687 7.95948 111.788 7.93033 111.889 7.93655C111.999 7.9369 112.108 7.95806 112.21 7.99889C112.324 8.04533 112.432 8.10616 112.53 8.17989L112.754 7.86516C112.636 7.77085 112.505 7.69615 112.363 7.64394C112.213 7.5911 112.054 7.56523 111.895 7.56752C111.785 7.5665 111.676 7.58313 111.571 7.61679C111.478 7.64631 111.391 7.69417 111.317 7.75757C111.247 7.81798 111.19 7.89229 111.151 7.97576C111.11 8.06425 111.089 8.1608 111.09 8.25832C111.088 8.35449 111.106 8.45015 111.143 8.53886C111.177 8.61707 111.229 8.68601 111.296 8.73996C111.37 8.79817 111.454 8.84369 111.543 8.8747C111.653 8.91515 111.766 8.94874 111.881 8.97525C111.991 9.0024 112.082 9.02855 112.15 9.05268C112.208 9.07196 112.263 9.09867 112.313 9.13212C112.348 9.15498 112.376 9.18696 112.395 9.22462C112.41 9.26091 112.417 9.29993 112.417 9.33925C112.418 9.38257 112.408 9.42549 112.388 9.46399C112.368 9.5025 112.339 9.53535 112.303 9.55946C112.213 9.61714 112.108 9.6456 112.002 9.64091C111.863 9.64376 111.726 9.61666 111.599 9.56147C111.472 9.50039 111.355 9.42113 111.25 9.32618L111 9.62784C111.135 9.75182 111.292 9.84876 111.464 9.91341C111.631 9.97537 111.809 10.0067 111.987 10.0059C112.103 10.0072 112.218 9.99124 112.329 9.95865C112.426 9.93051 112.516 9.88334 112.595 9.81989C112.668 9.75925 112.727 9.683 112.768 9.59667C112.811 9.50195 112.832 9.39893 112.83 9.29501C112.832 9.20636 112.815 9.11831 112.781 9.03659C112.748 8.96251 112.698 8.89661 112.637 8.84353C112.566 8.78343 112.485 8.73583 112.398 8.70276C112.29 8.66216 112.18 8.62858 112.068 8.60221C111.954 8.57506 111.862 8.54891 111.788 8.52478C111.727 8.50562 111.669 8.47822 111.615 8.44333C111.579 8.41993 111.549 8.38734 111.529 8.34881C111.511 8.30835 111.503 8.2643 111.505 8.22011Z" fill="white"/>
<path fill-rule="evenodd" clip-rule="evenodd" d="M110.642 7.59766H108.891V9.96365H110.659V9.58859H109.304V8.95612H110.49V8.58106H109.304V7.97272H110.642V7.59766Z" fill="white"/>
<path fill-rule="evenodd" clip-rule="evenodd" d="M108.43 7.59766H106.672V9.96365H107.084V9.00036H108.278V8.6253H107.084V7.97272H108.43V7.59766Z" fill="white"/>
<path d="M106.037 7.59766H105.625V9.96466H106.037V7.59766Z" fill="white"/>
<path fill-rule="evenodd" clip-rule="evenodd" d="M104.58 9.23364L103.315 7.59766H102.93V9.96365H103.342V8.28041L104.644 9.96365H104.992V7.59766H104.58V9.23364Z" fill="white"/>
<path fill-rule="evenodd" clip-rule="evenodd" d="M99.2416 8.26633V9.96365H99.6549V7.59766H99.2115L98.4915 8.7158L97.7716 7.59766H97.3281V9.96365H97.7404V8.27337L98.4815 9.38246H98.4945L99.2416 8.26633Z" fill="white"/>
<path fill-rule="evenodd" clip-rule="evenodd" d="M95.7985 7.59863H94.0469V9.96463H95.8146V9.58957H94.4591V8.95709H95.6457V8.58203H94.4591V7.97369H95.7985V7.59863Z" fill="white"/>
<path fill-rule="evenodd" clip-rule="evenodd" d="M93.0241 8.96617V9.96365H93.4373V7.59766H93.0241V8.58106H91.8888V7.59766H91.4766V9.96365H91.8888V8.96617H93.0241Z" fill="white"/>
<path fill-rule="evenodd" clip-rule="evenodd" d="M90.2866 7.98277H91.0367V7.59766H89.1172V7.98277H89.8673V9.96365H90.2866V7.98277Z" fill="white"/>
<path fill-rule="evenodd" clip-rule="evenodd" d="M99.2408 10.6331V15.4596H85.8924V14.1163H97.6651V10.6331H97.2689V13.7211H85.8924V2.10732H97.2679V6.93383H97.6641V2.10732H99.2397V6.93383H99.6359V1.71115H97.6651V-0.0253906H83.5234V14.1163H85.4953V15.8518H99.6369V10.6331H99.2408ZM85.4953 13.7191H83.9196V0.371791H97.2679V1.71115H85.4953V13.7191Z" fill="white"/>
</g>
</g>
<defs>
<clipPath id="clip0_1715_15128">
<rect width="65.6708" height="15.8516" fill="white" transform="translate(66.4297)"/>
</clipPath>
<clipPath id="clip1_1715_15128">
<rect width="31.495" height="15.8772" fill="white" transform="translate(83.5156 -0.0253906)"/>
</clipPath>
</defs>
</svg>
