<svg width="198" height="76" viewBox="0 0 198 76" fill="none" xmlns="http://www.w3.org/2000/svg">
<path d="M41.0695 27.6144V26.1171H49.9917V27.6144H46.3946V37.6455H44.6609V27.6144H41.0695ZM53.5822 37.82C52.7716 37.82 52.0643 37.6342 51.4601 37.2627C50.8559 36.8912 50.3868 36.3715 50.0528 35.7035C49.7188 35.0355 49.5518 34.2549 49.5518 33.3618C49.5518 32.4648 49.7188 31.6805 50.0528 31.0088C50.3868 30.337 50.8559 29.8154 51.4601 29.4439C52.0643 29.0724 52.7716 28.8866 53.5822 28.8866C54.3928 28.8866 55.1002 29.0724 55.7044 29.4439C56.3086 29.8154 56.7777 30.337 57.1117 31.0088C57.4457 31.6805 57.6127 32.4648 57.6127 33.3618C57.6127 34.2549 57.4457 35.0355 57.1117 35.7035C56.7777 36.3715 56.3086 36.8912 55.7044 37.2627C55.1002 37.6342 54.3928 37.82 53.5822 37.82ZM53.5879 36.4071C54.1133 36.4071 54.5486 36.2683 54.8938 35.9905C55.2391 35.7128 55.4943 35.3432 55.6594 34.8816C55.8283 34.42 55.9127 33.9115 55.9127 33.3561C55.9127 32.8045 55.8283 32.2979 55.6594 31.8363C55.4943 31.3709 55.2391 30.9975 54.8938 30.7161C54.5486 30.4346 54.1133 30.2939 53.5879 30.2939C53.0587 30.2939 52.6197 30.4346 52.2707 30.7161C51.9254 30.9975 51.6683 31.3709 51.4995 31.8363C51.3343 32.2979 51.2518 32.8045 51.2518 33.3561C51.2518 33.9115 51.3343 34.42 51.4995 34.8816C51.6683 35.3432 51.9254 35.7128 52.2707 35.9905C52.6197 36.2683 53.0587 36.4071 53.5879 36.4071ZM58.8573 40.8879V28.9992H60.501V30.4008H60.6418C60.7393 30.2207 60.8801 30.0124 61.0639 29.776C61.2478 29.5396 61.503 29.3332 61.8295 29.1568C62.156 28.9767 62.5876 28.8866 63.1242 28.8866C63.8222 28.8866 64.4452 29.063 64.9931 29.4157C65.541 29.7685 65.9707 30.277 66.2821 30.9412C66.5974 31.6055 66.755 32.4048 66.755 33.3392C66.755 34.2737 66.5992 35.0749 66.2878 35.7429C65.9763 36.4071 65.5485 36.9194 65.0043 37.2796C64.4602 37.6361 63.8391 37.8144 63.1411 37.8144C62.6157 37.8144 62.186 37.7262 61.852 37.5498C61.5218 37.3734 61.2628 37.167 61.0752 36.9306C60.8876 36.6942 60.7431 36.484 60.6418 36.3001H60.5404V40.8879H58.8573ZM60.5067 33.3223C60.5067 33.9303 60.5949 34.4632 60.7712 34.921C60.9476 35.3789 61.2028 35.7372 61.5368 35.9962C61.8708 36.2514 62.2798 36.379 62.7639 36.379C63.2668 36.379 63.6871 36.2457 64.0249 35.9793C64.3626 35.7091 64.6178 35.3432 64.7904 34.8816C64.9668 34.42 65.055 33.9003 65.055 33.3223C65.055 32.7519 64.9687 32.2397 64.7961 31.7856C64.6272 31.3315 64.372 30.9731 64.0305 30.7104C63.6927 30.4477 63.2706 30.3164 62.7639 30.3164C62.2761 30.3164 61.8633 30.4421 61.5255 30.6936C61.1915 30.945 60.9382 31.2959 60.7656 31.7462C60.593 32.1965 60.5067 32.7219 60.5067 33.3223ZM75.2942 37.82C74.4423 37.82 73.7086 37.638 73.0932 37.274C72.4815 36.9062 72.0087 36.3902 71.6747 35.726C71.3444 35.058 71.1793 34.2755 71.1793 33.3786C71.1793 32.493 71.3444 31.7124 71.6747 31.0369C72.0087 30.3614 72.474 29.8342 73.0707 29.4551C73.6711 29.0761 74.3729 28.8866 75.176 28.8866C75.6638 28.8866 76.1367 28.9673 76.5945 29.1287C77.0523 29.29 77.4633 29.5433 77.8273 29.8886C78.1913 30.2338 78.4784 30.6823 78.6885 31.2339C78.8987 31.7818 79.0038 32.448 79.0038 33.2323V33.829H72.1306V32.568H77.3544C77.3544 32.1252 77.2644 31.7331 77.0842 31.3916C76.9041 31.0463 76.6508 30.7742 76.3243 30.5753C76.0016 30.3764 75.6225 30.277 75.1872 30.277C74.7144 30.277 74.3016 30.3933 73.9488 30.626C73.5998 30.8549 73.3296 31.1551 73.1382 31.5267C72.9506 31.8944 72.8568 32.2941 72.8568 32.7257V33.7108C72.8568 34.2887 72.9581 34.7803 73.1607 35.1856C73.3671 35.5909 73.6542 35.9005 74.022 36.1144C74.3898 36.3245 74.8195 36.4296 75.3111 36.4296C75.6301 36.4296 75.9209 36.3846 76.1836 36.2945C76.4463 36.2007 76.6733 36.0619 76.8647 35.878C77.0561 35.6941 77.2025 35.467 77.3038 35.1968L78.8968 35.4839C78.7692 35.953 78.5403 36.3639 78.2101 36.7167C77.8836 37.0657 77.4726 37.3378 76.9773 37.5329C76.4857 37.7243 75.9246 37.82 75.2942 37.82ZM89.9474 29.8661H88.1911C88.1235 29.4908 87.9978 29.1606 87.8139 28.8753C87.6301 28.5901 87.4049 28.3481 87.1385 28.1492C86.872 27.9503 86.5737 27.8002 86.2434 27.6989C85.9169 27.5975 85.5698 27.5469 85.202 27.5469C84.5378 27.5469 83.943 27.7139 83.4176 28.0479C82.896 28.3819 82.4832 28.8716 82.1792 29.5171C81.879 30.1625 81.7289 30.9506 81.7289 31.8813C81.7289 32.8195 81.879 33.6113 82.1792 34.2568C82.4832 34.9023 82.8979 35.3901 83.4232 35.7204C83.9486 36.0506 84.5397 36.2157 85.1964 36.2157C85.5604 36.2157 85.9057 36.1669 86.2322 36.0694C86.5624 35.968 86.8607 35.8198 87.1272 35.6247C87.3936 35.4295 87.6188 35.1912 87.8027 34.9098C87.9903 34.6246 88.1198 34.2981 88.1911 33.9303L89.9474 33.9359C89.8536 34.5026 89.6716 35.0242 89.4014 35.5008C89.1349 35.9737 88.7915 36.3827 88.3712 36.728C87.9547 37.0695 87.4781 37.334 86.9414 37.5217C86.4048 37.7093 85.8194 37.8031 85.1851 37.8031C84.1869 37.8031 83.2975 37.5667 82.5169 37.0939C81.7364 36.6173 81.1209 35.9361 80.6706 35.0505C80.224 34.1648 80.0007 33.1084 80.0007 31.8813C80.0007 30.6504 80.2259 29.594 80.6762 28.7121C81.1266 27.8265 81.742 27.1472 82.5226 26.6744C83.3031 26.1978 84.1907 25.9595 85.1851 25.9595C85.7968 25.9595 86.3673 26.0477 86.8964 26.224C87.4293 26.3967 87.9078 26.6518 88.3318 26.9896C88.7559 27.3236 89.1068 27.7326 89.3845 28.2167C89.6622 28.6971 89.8498 29.2469 89.9474 29.8661ZM94.9016 37.82C94.091 37.82 93.3836 37.6342 92.7794 37.2627C92.1752 36.8912 91.7062 36.3715 91.3722 35.7035C91.0382 35.0355 90.8712 34.2549 90.8712 33.3618C90.8712 32.4648 91.0382 31.6805 91.3722 31.0088C91.7062 30.337 92.1752 29.8154 92.7794 29.4439C93.3836 29.0724 94.091 28.8866 94.9016 28.8866C95.7122 28.8866 96.4196 29.0724 97.0238 29.4439C97.628 29.8154 98.0971 30.337 98.4311 31.0088C98.7651 31.6805 98.9321 32.4648 98.9321 33.3618C98.9321 34.2549 98.7651 35.0355 98.4311 35.7035C98.0971 36.3715 97.628 36.8912 97.0238 37.2627C96.4196 37.6342 95.7122 37.82 94.9016 37.82ZM94.9072 36.4071C95.4326 36.4071 95.8679 36.2683 96.2132 35.9905C96.5585 35.7128 96.8136 35.3432 96.9788 34.8816C97.1476 34.42 97.2321 33.9115 97.2321 33.3561C97.2321 32.8045 97.1476 32.2979 96.9788 31.8363C96.8136 31.3709 96.5585 30.9975 96.2132 30.7161C95.8679 30.4346 95.4326 30.2939 94.9072 30.2939C94.3781 30.2939 93.939 30.4346 93.59 30.7161C93.2448 30.9975 92.9877 31.3709 92.8188 31.8363C92.6537 32.2979 92.5712 32.8045 92.5712 33.3561C92.5712 33.9115 92.6537 34.42 92.8188 34.8816C92.9877 35.3432 93.2448 35.7128 93.59 35.9905C93.939 36.2683 94.3781 36.4071 94.9072 36.4071ZM100.177 37.6455V28.9992H101.792V30.4065H101.899C102.079 29.9299 102.374 29.5583 102.783 29.2919C103.192 29.0217 103.682 28.8866 104.252 28.8866C104.83 28.8866 105.314 29.0217 105.705 29.2919C106.099 29.5621 106.389 29.9336 106.577 30.4065H106.667C106.873 29.9449 107.202 29.5771 107.652 29.3032C108.103 29.0255 108.639 28.8866 109.262 28.8866C110.046 28.8866 110.686 29.1324 111.182 29.624C111.681 30.1156 111.93 30.8568 111.93 31.8475V37.6455H110.247V32.0051C110.247 31.4197 110.088 30.9956 109.769 30.733C109.45 30.4703 109.069 30.3389 108.626 30.3389C108.078 30.3389 107.652 30.5078 107.348 30.8455C107.044 31.1795 106.892 31.6092 106.892 32.1346V37.6455H105.215V31.8982C105.215 31.4291 105.068 31.0519 104.776 30.7667C104.483 30.4815 104.102 30.3389 103.633 30.3389C103.314 30.3389 103.019 30.4234 102.749 30.5922C102.483 30.7573 102.267 30.9881 102.102 31.2846C101.941 31.5811 101.86 31.9245 101.86 32.3147V37.6455H100.177ZM113.552 37.6455V28.9992H115.168V30.4065H115.275C115.455 29.9299 115.749 29.5583 116.158 29.2919C116.567 29.0217 117.057 28.8866 117.628 28.8866C118.206 28.8866 118.69 29.0217 119.08 29.2919C119.474 29.5621 119.765 29.9336 119.952 30.4065H120.042C120.249 29.9449 120.577 29.5771 121.028 29.3032C121.478 29.0255 122.015 28.8866 122.637 28.8866C123.422 28.8866 124.062 29.1324 124.557 29.624C125.056 30.1156 125.306 30.8568 125.306 31.8475V37.6455H123.623V32.0051C123.623 31.4197 123.463 30.9956 123.144 30.733C122.825 30.4703 122.444 30.3389 122.001 30.3389C121.454 30.3389 121.028 30.5078 120.724 30.8455C120.42 31.1795 120.268 31.6092 120.268 32.1346V37.6455H118.59V31.8982C118.59 31.4291 118.444 31.0519 118.151 30.7667C117.858 30.4815 117.477 30.3389 117.008 30.3389C116.689 30.3389 116.395 30.4234 116.125 30.5922C115.858 30.7573 115.642 30.9881 115.477 31.2846C115.316 31.5811 115.235 31.9245 115.235 32.3147V37.6455H113.552ZM130.654 37.82C129.802 37.82 129.068 37.638 128.453 37.274C127.841 36.9062 127.368 36.3902 127.034 35.726C126.704 35.058 126.539 34.2755 126.539 33.3786C126.539 32.493 126.704 31.7124 127.034 31.0369C127.368 30.3614 127.834 29.8342 128.43 29.4551C129.031 29.0761 129.733 28.8866 130.536 28.8866C131.024 28.8866 131.496 28.9673 131.954 29.1287C132.412 29.29 132.823 29.5433 133.187 29.8886C133.551 30.2338 133.838 30.6823 134.048 31.2339C134.258 31.7818 134.364 32.448 134.364 33.2323V33.829H127.49V32.568H132.714C132.714 32.1252 132.624 31.7331 132.444 31.3916C132.264 31.0463 132.011 30.7742 131.684 30.5753C131.361 30.3764 130.982 30.277 130.547 30.277C130.074 30.277 129.661 30.3933 129.309 30.626C128.96 30.8549 128.689 31.1551 128.498 31.5267C128.31 31.8944 128.217 32.2941 128.217 32.7257V33.7108C128.217 34.2887 128.318 34.7803 128.521 35.1856C128.727 35.5909 129.014 35.9005 129.382 36.1144C129.75 36.3245 130.179 36.4296 130.671 36.4296C130.99 36.4296 131.281 36.3846 131.543 36.2945C131.806 36.2007 132.033 36.0619 132.224 35.878C132.416 35.6941 132.562 35.467 132.664 35.1968L134.257 35.4839C134.129 35.953 133.9 36.3639 133.57 36.7167C133.243 37.0657 132.832 37.3378 132.337 37.5329C131.845 37.7243 131.284 37.82 130.654 37.82ZM135.597 37.6455V28.9992H137.224V30.3727H137.314C137.471 29.9074 137.749 29.5415 138.147 29.275C138.548 29.0048 139.003 28.8697 139.509 28.8697C139.614 28.8697 139.738 28.8735 139.881 28.881C140.027 28.8885 140.142 28.8979 140.224 28.9091V30.5191C140.157 30.5003 140.036 30.4796 139.864 30.4571C139.691 30.4309 139.519 30.4177 139.346 30.4177C138.948 30.4177 138.594 30.5022 138.282 30.671C137.974 30.8362 137.73 31.067 137.55 31.3634C137.37 31.6561 137.28 31.9901 137.28 32.3654V37.6455H135.597ZM144.379 37.82C143.542 37.82 142.822 37.6305 142.217 37.2515C141.617 36.8687 141.155 36.3414 140.833 35.6697C140.51 34.9979 140.349 34.2286 140.349 33.3618C140.349 32.4836 140.514 31.7087 140.844 31.0369C141.174 30.3614 141.639 29.8342 142.24 29.4551C142.84 29.0761 143.548 28.8866 144.362 28.8866C145.019 28.8866 145.604 29.0086 146.118 29.2525C146.633 29.4927 147.047 29.8304 147.362 30.2657C147.681 30.7011 147.871 31.2096 147.931 31.7912H146.293C146.203 31.3859 145.996 31.0369 145.674 30.7442C145.355 30.4515 144.927 30.3051 144.39 30.3051C143.921 30.3051 143.51 30.429 143.157 30.6767C142.808 30.9206 142.536 31.2696 142.341 31.7237C142.146 32.174 142.049 32.7069 142.049 33.3223C142.049 33.9528 142.144 34.497 142.336 34.9548C142.527 35.4126 142.797 35.7673 143.146 36.0187C143.499 36.2701 143.914 36.3958 144.39 36.3958C144.709 36.3958 144.998 36.3377 145.257 36.2213C145.52 36.1013 145.739 35.9305 145.916 35.7091C146.096 35.4877 146.222 35.2212 146.293 34.9098H147.931C147.871 35.4689 147.689 35.968 147.385 36.4071C147.081 36.8462 146.674 37.1914 146.163 37.4429C145.657 37.6943 145.062 37.82 144.379 37.82ZM152.823 37.82C151.971 37.82 151.238 37.638 150.622 37.274C150.011 36.9062 149.538 36.3902 149.204 35.726C148.874 35.058 148.708 34.2755 148.708 33.3786C148.708 32.493 148.874 31.7124 149.204 31.0369C149.538 30.3614 150.003 29.8342 150.6 29.4551C151.2 29.0761 151.902 28.8866 152.705 28.8866C153.193 28.8866 153.666 28.9673 154.124 29.1287C154.581 29.29 154.992 29.5433 155.356 29.8886C155.72 30.2338 156.007 30.6823 156.218 31.2339C156.428 31.7818 156.533 32.448 156.533 33.2323V33.829H149.66V32.568H154.884C154.884 32.1252 154.793 31.7331 154.613 31.3916C154.433 31.0463 154.18 30.7742 153.853 30.5753C153.531 30.3764 153.152 30.277 152.716 30.277C152.243 30.277 151.831 30.3933 151.478 30.626C151.129 30.8549 150.859 31.1551 150.667 31.5267C150.48 31.8944 150.386 32.2941 150.386 32.7257V33.7108C150.386 34.2887 150.487 34.7803 150.69 35.1856C150.896 35.5909 151.183 35.9005 151.551 36.1144C151.919 36.3245 152.349 36.4296 152.84 36.4296C153.159 36.4296 153.45 36.3846 153.713 36.2945C153.975 36.2007 154.202 36.0619 154.394 35.878C154.585 35.6941 154.732 35.467 154.833 35.1968L156.426 35.4839C156.298 35.953 156.069 36.3639 155.739 36.7167C155.413 37.0657 155.002 37.3378 154.506 37.5329C154.015 37.7243 153.454 37.82 152.823 37.82ZM63.6576 55.8144C62.9596 55.8144 62.3366 55.6361 61.7887 55.2796C61.2446 54.9194 60.8167 54.4071 60.5053 53.7429C60.1975 53.0749 60.0437 52.2737 60.0437 51.3392C60.0437 50.4048 60.1994 49.6055 60.5109 48.9412C60.8261 48.277 61.2577 47.7685 61.8056 47.4157C62.3535 47.063 62.9746 46.8866 63.6688 46.8866C64.2055 46.8866 64.637 46.9767 64.9635 47.1568C65.2938 47.3332 65.5489 47.5396 65.7291 47.776C65.913 48.0124 66.0556 48.2207 66.1569 48.4008H66.2582V44.1171H67.9413V55.6455H66.2976V54.3001H66.1569C66.0556 54.484 65.9092 54.6942 65.7178 54.9306C65.5302 55.167 65.2712 55.3734 64.941 55.5498C64.6108 55.7262 64.1829 55.8144 63.6576 55.8144ZM64.0291 54.379C64.5132 54.379 64.9222 54.2514 65.2562 53.9962C65.594 53.7372 65.8492 53.3789 66.0218 52.921C66.1982 52.4632 66.2864 51.9303 66.2864 51.3223C66.2864 50.7219 66.2 50.1965 66.0274 49.7462C65.8548 49.2959 65.6015 48.945 65.2675 48.6936C64.9335 48.4421 64.5207 48.3164 64.0291 48.3164C63.5225 48.3164 63.1003 48.4477 62.7625 48.7104C62.4248 48.9731 62.1696 49.3315 61.997 49.7856C61.8281 50.2397 61.7437 50.7519 61.7437 51.3223C61.7437 51.9003 61.83 52.42 62.0026 52.8816C62.1752 53.3432 62.4304 53.7091 62.7682 53.9793C63.1097 54.2457 63.53 54.379 64.0291 54.379ZM73.436 55.82C72.5841 55.82 71.8504 55.638 71.235 55.274C70.6233 54.9062 70.1504 54.3902 69.8164 53.726C69.4862 53.058 69.3211 52.2755 69.3211 51.3786C69.3211 50.493 69.4862 49.7124 69.8164 49.0369C70.1504 48.3614 70.6158 47.8342 71.2125 47.4551C71.8129 47.0761 72.5147 46.8866 73.3177 46.8866C73.8056 46.8866 74.2784 46.9673 74.7363 47.1287C75.1941 47.29 75.605 47.5433 75.9691 47.8886C76.3331 48.2338 76.6202 48.6823 76.8303 49.2339C77.0405 49.7818 77.1455 50.448 77.1455 51.2323V51.829H70.2724V50.568H75.4962C75.4962 50.1252 75.4061 49.7331 75.226 49.3916C75.0459 49.0463 74.7926 48.7742 74.4661 48.5753C74.1433 48.3764 73.7643 48.277 73.329 48.277C72.8562 48.277 72.4434 48.3933 72.0906 48.626C71.7416 48.8549 71.4714 49.1551 71.28 49.5267C71.0924 49.8944 70.9985 50.2941 70.9985 50.7257V51.7108C70.9985 52.2887 71.0999 52.7803 71.3025 53.1856C71.5089 53.5909 71.796 53.9005 72.1638 54.1144C72.5315 54.3245 72.9612 54.4296 73.4528 54.4296C73.7718 54.4296 74.0627 54.3846 74.3254 54.2945C74.588 54.2007 74.8151 54.0619 75.0065 53.878C75.1979 53.6941 75.3442 53.467 75.4455 53.1968L77.0386 53.4839C76.911 53.953 76.6821 54.3639 76.3518 54.7167C76.0253 55.0657 75.6144 55.3378 75.1191 55.5329C74.6274 55.7243 74.0664 55.82 73.436 55.82ZM85.5279 46.9992L82.3925 55.6455H80.5912L77.4501 46.9992H79.2571L81.4468 53.6528H81.5369L83.721 46.9992H85.5279ZM89.908 55.82C89.0561 55.82 88.3224 55.638 87.707 55.274C87.0953 54.9062 86.6224 54.3902 86.2885 53.726C85.9582 53.058 85.7931 52.2755 85.7931 51.3786C85.7931 50.493 85.9582 49.7124 86.2885 49.0369C86.6224 48.3614 87.0878 47.8342 87.6845 47.4551C88.2849 47.0761 88.9867 46.8866 89.7898 46.8866C90.2776 46.8866 90.7505 46.9673 91.2083 47.1287C91.6661 47.29 92.0771 47.5433 92.4411 47.8886C92.8051 48.2338 93.0922 48.6823 93.3023 49.2339C93.5125 49.7818 93.6176 50.448 93.6176 51.2323V51.829H86.7444V50.568H91.9682C91.9682 50.1252 91.8782 49.7331 91.698 49.3916C91.5179 49.0463 91.2646 48.7742 90.9381 48.5753C90.6154 48.3764 90.2363 48.277 89.801 48.277C89.3282 48.277 88.9154 48.3933 88.5626 48.626C88.2136 48.8549 87.9434 49.1551 87.752 49.5267C87.5644 49.8944 87.4706 50.2941 87.4706 50.7257V51.7108C87.4706 52.2887 87.5719 52.7803 87.7745 53.1856C87.9809 53.5909 88.268 53.9005 88.6358 54.1144C89.0036 54.3245 89.4333 54.4296 89.9249 54.4296C90.2438 54.4296 90.5347 54.3846 90.7974 54.2945C91.0601 54.2007 91.2871 54.0619 91.4785 53.878C91.6699 53.6941 91.8162 53.467 91.9176 53.1968L93.5106 53.4839C93.383 53.953 93.1541 54.3639 92.8239 54.7167C92.4974 55.0657 92.0864 55.3378 91.5911 55.5329C91.0995 55.7243 90.5384 55.82 89.908 55.82ZM96.5341 44.1171V55.6455H94.851V44.1171H96.5341ZM101.806 55.82C100.996 55.82 100.288 55.6342 99.6842 55.2627C99.08 54.8912 98.6109 54.3715 98.2769 53.7035C97.9429 53.0355 97.7759 52.2549 97.7759 51.3618C97.7759 50.4648 97.9429 49.6805 98.2769 49.0088C98.6109 48.337 99.08 47.8154 99.6842 47.4439C100.288 47.0724 100.996 46.8866 101.806 46.8866C102.617 46.8866 103.324 47.0724 103.929 47.4439C104.533 47.8154 105.002 48.337 105.336 49.0088C105.67 49.6805 105.837 50.4648 105.837 51.3618C105.837 52.2549 105.67 53.0355 105.336 53.7035C105.002 54.3715 104.533 54.8912 103.929 55.2627C103.324 55.6342 102.617 55.82 101.806 55.82ZM101.812 54.4071C102.337 54.4071 102.773 54.2683 103.118 53.9905C103.463 53.7128 103.718 53.3432 103.883 52.8816C104.052 52.42 104.137 51.9115 104.137 51.3561C104.137 50.8045 104.052 50.2979 103.883 49.8363C103.718 49.3709 103.463 48.9975 103.118 48.7161C102.773 48.4346 102.337 48.2939 101.812 48.2939C101.283 48.2939 100.844 48.4346 100.495 48.7161C100.15 48.9975 99.8924 49.3709 99.7236 49.8363C99.5585 50.2979 99.4759 50.8045 99.4759 51.3561C99.4759 51.9115 99.5585 52.42 99.7236 52.8816C99.8924 53.3432 100.15 53.7128 100.495 53.9905C100.844 54.2683 101.283 54.4071 101.812 54.4071ZM107.081 58.8879V46.9992H108.725V48.4008H108.866C108.963 48.2207 109.104 48.0124 109.288 47.776C109.472 47.5396 109.727 47.3332 110.054 47.1568C110.38 46.9767 110.812 46.8866 111.348 46.8866C112.046 46.8866 112.669 47.063 113.217 47.4157C113.765 47.7685 114.195 48.277 114.506 48.9412C114.821 49.6055 114.979 50.4048 114.979 51.3392C114.979 52.2737 114.823 53.0749 114.512 53.7429C114.2 54.4071 113.773 54.9194 113.228 55.2796C112.684 55.6361 112.063 55.8144 111.365 55.8144C110.84 55.8144 110.41 55.7262 110.076 55.5498C109.746 55.3734 109.487 55.167 109.299 54.9306C109.112 54.6942 108.967 54.484 108.866 54.3001H108.765V58.8879H107.081ZM108.731 51.3223C108.731 51.9303 108.819 52.4632 108.995 52.921C109.172 53.3789 109.427 53.7372 109.761 53.9962C110.095 54.2514 110.504 54.379 110.988 54.379C111.491 54.379 111.911 54.2457 112.249 53.9793C112.587 53.7091 112.842 53.3432 113.015 52.8816C113.191 52.42 113.279 51.9003 113.279 51.3223C113.279 50.7519 113.193 50.2397 113.02 49.7856C112.851 49.3315 112.596 48.9731 112.255 48.7104C111.917 48.4477 111.495 48.3164 110.988 48.3164C110.5 48.3164 110.087 48.4421 109.75 48.6936C109.416 48.945 109.162 49.2959 108.99 49.7462C108.817 50.1965 108.731 50.7219 108.731 51.3223ZM119.957 55.82C119.105 55.82 118.372 55.638 117.756 55.274C117.145 54.9062 116.672 54.3902 116.338 53.726C116.007 53.058 115.842 52.2755 115.842 51.3786C115.842 50.493 116.007 49.7124 116.338 49.0369C116.672 48.3614 117.137 47.8342 117.734 47.4551C118.334 47.0761 119.036 46.8866 119.839 46.8866C120.327 46.8866 120.8 46.9673 121.258 47.1287C121.715 47.29 122.126 47.5433 122.49 47.8886C122.854 48.2338 123.141 48.6823 123.352 49.2339C123.562 49.7818 123.667 50.448 123.667 51.2323V51.829H116.794V50.568H122.018C122.018 50.1252 121.927 49.7331 121.747 49.3916C121.567 49.0463 121.314 48.7742 120.987 48.5753C120.665 48.3764 120.286 48.277 119.85 48.277C119.377 48.277 118.965 48.3933 118.612 48.626C118.263 48.8549 117.993 49.1551 117.801 49.5267C117.614 49.8944 117.52 50.2941 117.52 50.7257V51.7108C117.52 52.2887 117.621 52.7803 117.824 53.1856C118.03 53.5909 118.317 53.9005 118.685 54.1144C119.053 54.3245 119.483 54.4296 119.974 54.4296C120.293 54.4296 120.584 54.3846 120.847 54.2945C121.109 54.2007 121.336 54.0619 121.528 53.878C121.719 53.6941 121.866 53.467 121.967 53.1968L123.56 53.4839C123.432 53.953 123.203 54.3639 122.873 54.7167C122.547 55.0657 122.136 55.3378 121.64 55.5329C121.149 55.7243 120.588 55.82 119.957 55.82ZM124.9 55.6455V46.9992H126.527V48.3727H126.617C126.775 47.9074 127.052 47.5415 127.45 47.275C127.852 47.0048 128.306 46.8697 128.812 46.8697C128.918 46.8697 129.041 46.8735 129.184 46.881C129.33 46.8885 129.445 46.8979 129.527 46.9091V48.5191C129.46 48.5003 129.34 48.4796 129.167 48.4571C128.994 48.4309 128.822 48.4177 128.649 48.4177C128.251 48.4177 127.897 48.5022 127.585 48.671C127.278 48.8362 127.034 49.067 126.854 49.3634C126.673 49.6561 126.583 49.9901 126.583 50.3654V55.6455H124.9ZM136.829 49.1101L135.303 49.3803C135.24 49.1852 135.138 48.9994 134.999 48.823C134.864 48.6466 134.681 48.5022 134.448 48.3896C134.215 48.277 133.924 48.2207 133.575 48.2207C133.099 48.2207 132.701 48.3277 132.382 48.5416C132.063 48.7517 131.903 49.0238 131.903 49.3578C131.903 49.6467 132.01 49.8794 132.224 50.0558C132.438 50.2322 132.783 50.3767 133.26 50.4892L134.634 50.8045C135.429 50.9884 136.022 51.2717 136.412 51.6545C136.803 52.0372 136.998 52.5345 136.998 53.1462C136.998 53.6641 136.848 54.1256 136.547 54.5309C136.251 54.9325 135.836 55.2477 135.303 55.4766C134.774 55.7056 134.161 55.82 133.463 55.82C132.495 55.82 131.705 55.6136 131.093 55.2008C130.481 54.7843 130.106 54.1932 129.967 53.4276L131.594 53.18C131.695 53.604 131.903 53.9249 132.219 54.1425C132.534 54.3564 132.945 54.4634 133.451 54.4634C134.003 54.4634 134.444 54.3489 134.774 54.12C135.105 53.8873 135.27 53.604 135.27 53.27C135.27 52.9998 135.168 52.7728 134.966 52.5889C134.767 52.405 134.461 52.2662 134.048 52.1723L132.585 51.8515C131.778 51.6676 131.181 51.3749 130.795 50.9733C130.412 50.5718 130.22 50.0633 130.22 49.4479C130.22 48.9375 130.363 48.4909 130.648 48.1081C130.933 47.7253 131.327 47.427 131.83 47.2131C132.333 46.9954 132.909 46.8866 133.558 46.8866C134.493 46.8866 135.228 47.0893 135.765 47.4946C136.302 47.8961 136.656 48.4346 136.829 49.1101Z" fill="white"/>
<path d="M71.8346 66.642H72.7071V70.4332C72.7071 70.8367 72.6123 71.1941 72.4228 71.5056C72.2333 71.8152 71.9669 72.0591 71.6235 72.2374C71.2801 72.4138 70.8776 72.5019 70.416 72.5019C69.9563 72.5019 69.5548 72.4138 69.2114 72.2374C68.868 72.0591 68.6016 71.8152 68.4121 71.5056C68.2226 71.1941 68.1278 70.8367 68.1278 70.4332V66.642H68.9975V70.3629C68.9975 70.6237 69.0547 70.8554 69.1692 71.0581C69.2855 71.2607 69.4497 71.4202 69.6617 71.5366C69.8738 71.651 70.1252 71.7082 70.416 71.7082C70.7088 71.7082 70.9611 71.651 71.1732 71.5366C71.3871 71.4202 71.5503 71.2607 71.6629 71.0581C71.7774 70.8554 71.8346 70.6237 71.8346 70.3629V66.642ZM73.7338 72.4062V66.642H74.6035V69.3947H74.6738L77.0915 66.642H78.1864L75.8616 69.2371L78.1948 72.4062H77.1478L75.2846 69.8309L74.6035 70.6134V72.4062H73.7338ZM79.7865 71.6182L79.7443 71.925C79.7162 72.1501 79.6683 72.3847 79.6008 72.6286C79.5351 72.8744 79.4666 73.1024 79.3953 73.3125C79.3259 73.5227 79.2686 73.6897 79.2236 73.8135H78.6269C78.6513 73.6972 78.6851 73.5396 78.7282 73.3407C78.7714 73.1437 78.8136 72.9232 78.8549 72.6793C78.8962 72.4353 78.9271 72.1867 78.9478 71.9334L78.9759 71.6182H79.7865ZM87.3592 68.5165H86.4811C86.4473 68.3289 86.3844 68.1638 86.2925 68.0212C86.2005 67.8786 86.088 67.7575 85.9547 67.6581C85.8215 67.5586 85.6723 67.4836 85.5072 67.4329C85.344 67.3823 85.1704 67.3569 84.9865 67.3569C84.6544 67.3569 84.357 67.4404 84.0943 67.6074C83.8335 67.7744 83.6271 68.0193 83.4751 68.342C83.325 68.6648 83.2499 69.0588 83.2499 69.5241C83.2499 69.9932 83.325 70.3892 83.4751 70.7119C83.6271 71.0346 83.8344 71.2786 84.0971 71.4437C84.3598 71.6088 84.6553 71.6914 84.9837 71.6914C85.1657 71.6914 85.3383 71.667 85.5016 71.6182C85.6667 71.5675 85.8159 71.4934 85.9491 71.3958C86.0823 71.2983 86.1949 71.1791 86.2868 71.0384C86.3807 70.8958 86.4454 70.7325 86.4811 70.5486L87.3592 70.5515C87.3123 70.8348 87.2213 71.0956 87.0862 71.3339C86.953 71.5703 86.7813 71.7749 86.5711 71.9475C86.3628 72.1182 86.1245 72.2505 85.8562 72.3443C85.5879 72.4381 85.2952 72.4851 84.9781 72.4851C84.479 72.4851 84.0343 72.3668 83.644 72.1304C83.2537 71.8921 82.946 71.5516 82.7208 71.1087C82.4975 70.6659 82.3859 70.1377 82.3859 69.5241C82.3859 68.9087 82.4985 68.3805 82.7236 67.9395C82.9488 67.4967 83.2565 67.1571 83.6468 66.9207C84.0371 66.6824 84.4808 66.5632 84.9781 66.5632C85.2839 66.5632 85.5691 66.6073 85.8337 66.6955C86.1002 66.7818 86.3394 66.9094 86.5514 67.0783C86.7634 67.2453 86.9389 67.4498 87.0777 67.6919C87.2166 67.932 87.3104 68.2069 87.3592 68.5165ZM88.9361 66.642V72.4062H88.0946V66.642H88.9361ZM92.5691 70.6134V68.0831H93.4134V72.4062H92.5859V71.6576H92.5409C92.4415 71.8884 92.282 72.0807 92.0624 72.2346C91.8448 72.3865 91.5736 72.4625 91.249 72.4625C90.9713 72.4625 90.7255 72.4016 90.5116 72.2796C90.2996 72.1558 90.1326 71.9728 90.0106 71.7308C89.8905 71.4887 89.8305 71.1894 89.8305 70.8329V68.0831H90.672V70.7316C90.672 71.0262 90.7537 71.2607 90.9169 71.4352C91.0802 71.6097 91.2922 71.697 91.553 71.697C91.7106 71.697 91.8673 71.6576 92.023 71.5788C92.1806 71.5 92.3111 71.3808 92.4143 71.2213C92.5193 71.0618 92.5709 70.8592 92.5691 70.6134ZM96.3244 68.0831V68.7586H93.963V68.0831H96.3244ZM94.5963 67.0473H95.4378V71.1369C95.4378 71.3001 95.4622 71.423 95.511 71.5056C95.5598 71.5863 95.6227 71.6416 95.6996 71.6717C95.7784 71.6998 95.8638 71.7139 95.9557 71.7139C96.0233 71.7139 96.0824 71.7092 96.133 71.6998C96.1837 71.6904 96.2231 71.6829 96.2513 71.6773L96.4032 72.3725C96.3545 72.3912 96.285 72.41 96.195 72.4288C96.1049 72.4494 95.9923 72.4607 95.8572 72.4625C95.6358 72.4663 95.4294 72.4269 95.238 72.3443C95.0466 72.2618 94.8918 72.1342 94.7736 71.9616C94.6554 71.7889 94.5963 71.5722 94.5963 71.3114V67.0473ZM98.7921 72.4935C98.3737 72.4935 98.0135 72.3987 97.7114 72.2092C97.4111 72.0178 97.1803 71.7542 97.019 71.4183C96.8576 71.0825 96.7769 70.6978 96.7769 70.2644C96.7769 69.8253 96.8595 69.4378 97.0246 69.102C97.1897 68.7642 97.4224 68.5006 97.7226 68.3111C98.0228 68.1216 98.3765 68.0268 98.7837 68.0268C99.1121 68.0268 99.4048 68.0878 99.6618 68.2097C99.9189 68.3298 100.126 68.4987 100.284 68.7164C100.443 68.934 100.538 69.1883 100.568 69.4791H99.7491C99.7041 69.2765 99.6009 69.102 99.4395 68.9556C99.28 68.8092 99.0661 68.7361 98.7978 68.7361C98.5632 68.7361 98.3578 68.798 98.1814 68.9218C98.0069 69.0438 97.8709 69.2183 97.7733 69.4453C97.6757 69.6705 97.6269 69.9369 97.6269 70.2447C97.6269 70.5599 97.6748 70.832 97.7705 71.0609C97.8662 71.2898 98.0013 71.4671 98.1758 71.5928C98.3521 71.7186 98.5595 71.7814 98.7978 71.7814C98.9573 71.7814 99.1018 71.7523 99.2312 71.6942C99.3626 71.6341 99.4723 71.5487 99.5605 71.438C99.6506 71.3273 99.7134 71.1941 99.7491 71.0384H100.568C100.538 71.318 100.447 71.5675 100.295 71.787C100.143 72.0066 99.9395 72.1792 99.6844 72.3049C99.4311 72.4306 99.1336 72.4935 98.7921 72.4935ZM102.072 69.8394V72.4062H101.23V66.642H102.061V68.7867H102.114C102.215 68.5541 102.37 68.3692 102.578 68.2323C102.787 68.0953 103.059 68.0268 103.395 68.0268C103.691 68.0268 103.95 68.0878 104.172 68.2097C104.395 68.3317 104.567 68.5137 104.689 68.7558C104.813 68.9959 104.875 69.2962 104.875 69.6564V72.4062H104.034V69.7578C104.034 69.4406 103.952 69.1948 103.789 69.0203C103.626 68.844 103.398 68.7558 103.108 68.7558C102.909 68.7558 102.73 68.798 102.573 68.8824C102.417 68.9669 102.294 69.0907 102.204 69.2539C102.116 69.4153 102.072 69.6105 102.072 69.8394ZM106.855 71.6182L106.813 71.925C106.785 72.1501 106.737 72.3847 106.67 72.6286C106.604 72.8744 106.535 73.1024 106.464 73.3125C106.395 73.5227 106.337 73.6897 106.292 73.8135H105.696C105.72 73.6972 105.754 73.5396 105.797 73.3407C105.84 73.1437 105.882 72.9232 105.924 72.6793C105.965 72.4353 105.996 72.1867 106.017 71.9334L106.045 71.6182H106.855ZM109.562 72.4062V71.7758L111.512 69.7549C111.72 69.5354 111.892 69.3431 112.027 69.178C112.164 69.011 112.266 68.8524 112.334 68.7023C112.401 68.5522 112.435 68.3927 112.435 68.2238C112.435 68.0324 112.39 67.8673 112.3 67.7285C112.21 67.5877 112.087 67.4798 111.931 67.4048C111.776 67.3279 111.6 67.2894 111.405 67.2894C111.199 67.2894 111.019 67.3316 110.865 67.416C110.711 67.5005 110.593 67.6196 110.51 67.7735C110.428 67.9274 110.386 68.1075 110.386 68.3139H109.556C109.556 67.963 109.637 67.6562 109.798 67.3935C109.959 67.1308 110.181 66.9272 110.462 66.7828C110.744 66.6364 111.064 66.5632 111.422 66.5632C111.784 66.5632 112.103 66.6355 112.379 66.78C112.657 66.9226 112.873 67.1177 113.029 67.3654C113.185 67.6112 113.263 67.8889 113.263 68.1985C113.263 68.4124 113.222 68.6216 113.142 68.8261C113.063 69.0307 112.925 69.2586 112.728 69.5101C112.531 69.7596 112.257 70.0627 111.906 70.4192L110.761 71.6182V71.6604H113.356V72.4062H109.562ZM116.191 72.5019C115.747 72.5001 115.367 72.3828 115.051 72.1501C114.736 71.9175 114.495 71.5788 114.328 71.1341C114.161 70.6894 114.078 70.1537 114.078 69.527C114.078 68.9021 114.161 68.3683 114.328 67.9255C114.497 67.4827 114.739 67.1449 115.054 66.9122C115.371 66.6796 115.75 66.5632 116.191 66.5632C116.632 66.5632 117.01 66.6805 117.326 66.915C117.641 67.1477 117.882 67.4855 118.049 67.9283C118.218 68.3692 118.302 68.9021 118.302 69.527C118.302 70.1555 118.219 70.6922 118.052 71.1369C117.885 71.5797 117.644 71.9184 117.328 72.1529C117.013 72.3856 116.634 72.5019 116.191 72.5019ZM116.191 71.7505C116.582 71.7505 116.887 71.56 117.106 71.1791C117.327 70.7982 117.438 70.2475 117.438 69.527C117.438 69.0485 117.388 68.6441 117.286 68.3139C117.187 67.9818 117.043 67.7303 116.856 67.5596C116.67 67.387 116.448 67.3006 116.191 67.3006C115.803 67.3006 115.498 67.492 115.277 67.8748C115.055 68.2576 114.944 68.8083 114.942 69.527C114.942 70.0073 114.991 70.4135 115.091 70.7457C115.192 71.0759 115.336 71.3264 115.521 71.4971C115.707 71.666 115.931 71.7505 116.191 71.7505ZM119.063 72.4062V71.7758L121.013 69.7549C121.222 69.5354 121.393 69.3431 121.528 69.178C121.665 69.011 121.768 68.8524 121.835 68.7023C121.903 68.5522 121.937 68.3927 121.937 68.2238C121.937 68.0324 121.892 67.8673 121.801 67.7285C121.711 67.5877 121.589 67.4798 121.433 67.4048C121.277 67.3279 121.102 67.2894 120.906 67.2894C120.7 67.2894 120.52 67.3316 120.366 67.416C120.212 67.5005 120.094 67.6196 120.011 67.7735C119.929 67.9274 119.888 68.1075 119.888 68.3139H119.057C119.057 67.963 119.138 67.6562 119.299 67.3935C119.461 67.1308 119.682 66.9272 119.964 66.7828C120.245 66.6364 120.565 66.5632 120.923 66.5632C121.285 66.5632 121.604 66.6355 121.88 66.78C122.158 66.9226 122.375 67.1177 122.53 67.3654C122.686 67.6112 122.764 67.8889 122.764 68.1985C122.764 68.4124 122.724 68.6216 122.643 68.8261C122.564 69.0307 122.426 69.2586 122.229 69.5101C122.032 69.7596 121.758 70.0627 121.407 70.4192L120.262 71.6182V71.6604H122.857V72.4062H119.063ZM125.693 72.4851C125.306 72.4851 124.961 72.4184 124.657 72.2852C124.355 72.152 124.116 71.9672 123.939 71.7308C123.765 71.4925 123.671 71.2166 123.658 70.9033H124.542C124.553 71.074 124.61 71.2223 124.713 71.348C124.818 71.4718 124.955 71.5675 125.124 71.6351C125.293 71.7026 125.481 71.7364 125.687 71.7364C125.914 71.7364 126.115 71.697 126.289 71.6182C126.466 71.5394 126.604 71.4296 126.703 71.2889C126.803 71.1463 126.852 70.9821 126.852 70.7963C126.852 70.6031 126.803 70.4332 126.703 70.2869C126.606 70.1387 126.462 70.0223 126.272 69.9379C126.085 69.8534 125.858 69.8112 125.591 69.8112H125.104V69.102H125.591C125.805 69.102 125.993 69.0635 126.154 68.9866C126.317 68.9096 126.445 68.8027 126.537 68.6657C126.629 68.5269 126.675 68.3645 126.675 68.1788C126.675 68.0005 126.635 67.8457 126.554 67.7144C126.475 67.5812 126.363 67.477 126.216 67.402C126.072 67.3269 125.901 67.2894 125.704 67.2894C125.516 67.2894 125.341 67.3241 125.178 67.3935C125.016 67.4611 124.885 67.5586 124.784 67.6862C124.682 67.812 124.628 67.963 124.62 68.1394H123.779C123.788 67.8279 123.88 67.554 124.055 67.3175C124.231 67.0811 124.464 66.8963 124.753 66.7631C125.042 66.6298 125.362 66.5632 125.715 66.5632C126.085 66.5632 126.404 66.6355 126.672 66.78C126.942 66.9226 127.151 67.113 127.297 67.3513C127.445 67.5896 127.518 67.8504 127.516 68.1338C127.518 68.4565 127.428 68.7304 127.246 68.9556C127.066 69.1808 126.826 69.3318 126.526 69.4087V69.4538C126.909 69.5119 127.205 69.6639 127.415 69.9097C127.627 70.1555 127.732 70.4605 127.73 70.8245C127.732 71.1416 127.644 71.4258 127.466 71.6773C127.289 71.9287 127.048 72.1267 126.742 72.2712C126.437 72.4138 126.087 72.4851 125.693 72.4851Z" fill="#B4B5BB"/>
<path d="M30.1448 67.1433C29.7037 66.8036 29.2626 66.5489 28.8214 66.379C28.3803 66.2092 27.9391 66.1243 27.4098 66.1243C26.4393 66.0394 25.3805 66.2941 24.3218 66.464C23.2631 66.7187 22.2926 66.9735 21.5867 67.2282C20.8809 67.483 20.3516 67.6528 20.3516 67.6528C20.3516 67.6528 20.7927 67.9076 21.5867 68.2473C22.2926 68.5869 23.3513 68.9266 24.4983 69.0965C25.6452 69.2663 26.7922 69.2663 27.8509 69.0115C28.9979 68.7568 29.8802 68.1623 30.1448 67.1433Z" fill="#FFCB6D"/>
<path d="M27.0597 62.8117C27.5008 63.6609 28.0302 64.5101 28.8242 65.0196C29.1771 65.2744 29.6183 65.5291 30.0594 65.6141C30.5005 65.699 31.0299 65.699 31.4711 65.4442C31.4711 64.4252 31.2064 63.576 30.7652 62.8966C30.3241 62.2173 29.6183 61.5379 29.0007 61.0284C28.2949 60.5189 27.6773 60.0943 27.1479 59.7546C26.6185 59.415 26.2656 59.2451 26.2656 59.2451C26.2656 59.2451 26.2656 59.33 26.2656 59.5848C26.2656 59.7546 26.3539 60.0094 26.3539 60.3491C26.4421 61.0284 26.6185 61.8776 27.0597 62.8117Z" fill="#FFCB6D"/>
<path d="M19.6419 65.1048C20.7006 65.0199 21.5829 64.6803 22.2005 63.8311C21.6711 62.9819 20.877 62.4724 19.9948 62.2176C19.1125 61.9628 17.9655 61.8779 16.9068 61.8779C15.8481 61.8779 14.7893 61.8779 13.9953 61.8779C13.2012 61.8779 12.6719 61.8779 12.6719 61.8779C12.6719 61.8779 12.7601 61.9628 12.9365 62.1327C13.113 62.3025 13.3777 62.5573 13.7306 62.812C14.4364 63.3215 15.3187 63.916 16.3774 64.4255C17.5244 64.8501 18.6714 65.1048 19.6419 65.1048Z" fill="#FFCB6D"/>
<path d="M21.5903 61.1991C22.2079 61.8785 23.0019 62.388 23.9724 62.3031C24.4136 61.3689 24.3254 60.4348 24.0607 59.5856C23.796 58.7364 23.2666 57.9722 22.8255 57.2928C22.2961 56.6135 21.855 56.104 21.4138 55.6794C21.2374 55.5095 21.0609 55.3397 20.9727 55.1698C20.8845 55.0849 20.7962 55 20.7962 55C20.7962 55 20.7962 55.0849 20.708 55.2548C20.6198 55.4246 20.6198 55.6794 20.5316 56.019C20.4433 56.6984 20.3551 57.5476 20.5316 58.4817C20.708 59.5007 21.0609 60.4348 21.5903 61.1991Z" fill="#FFCB6D"/>
<path d="M9.0555 54.1502C8.34967 53.8955 7.82031 53.8105 7.82031 53.8105C7.82031 53.8105 7.90852 53.8955 7.99675 54.1502C8.08498 54.3201 8.26144 54.5748 8.43789 54.9145C8.61435 55.2542 8.87905 55.5938 9.14373 56.0184C9.32018 56.1883 9.40841 56.443 9.58487 56.6129L9.67307 56.7827L9.84954 56.9526C9.93777 57.0375 10.026 57.2073 10.1142 57.2922C10.9965 58.2263 12.0552 58.9906 13.0257 59.3303C14.0845 59.67 15.055 59.5851 15.9372 58.9057C15.6726 57.8867 15.1432 57.2073 14.3492 56.6978C14.1727 56.528 13.908 56.443 13.7316 56.2732C13.5551 56.1034 13.2904 56.0184 13.0257 55.8486C12.7611 55.6788 12.5846 55.5938 12.3199 55.424C12.0552 55.3391 11.8788 55.1693 11.6141 55.0843C10.7318 54.6597 9.76132 54.3201 9.0555 54.1502Z" fill="#FFCB6D"/>
<path d="M16.2077 55.8486C16.4724 56.6978 17.09 57.3772 18.0605 57.6319C18.7663 56.8676 18.9428 55.9335 19.031 55.1692C19.1192 54.3201 18.9428 53.5558 18.8545 52.8764C18.8545 52.6217 18.6781 52.1122 18.5898 51.7725C18.5016 51.4328 18.3252 51.0931 18.2369 50.7535C18.1487 50.4987 18.0605 50.2439 17.9723 50.0741C17.884 49.9043 17.884 49.8193 17.884 49.8193C17.884 49.8193 17.7958 49.9043 17.7076 50.0741C17.6193 50.2439 17.4429 50.4987 17.2664 50.7535C16.9135 51.3479 16.5606 52.1971 16.2959 53.0463C16.2077 53.301 16.2077 53.4709 16.1195 53.7256C16.0313 53.9804 16.0312 54.1502 16.0312 54.405C16.0312 54.6597 16.0312 54.8296 16.0312 55.0843C16.0312 55.424 16.1195 55.6788 16.2077 55.8486Z" fill="#FFCB6D"/>
<path d="M8.00162 50.6683C8.17807 50.8382 8.35453 51.008 8.53099 51.1779C8.70744 51.3477 8.97214 51.5175 9.14859 51.6025C10.0309 52.112 10.9131 52.3667 11.9719 52.0271C12.0601 51.5175 12.0601 51.0929 11.8836 50.6683C11.7954 50.4985 11.7072 50.2438 11.619 50.0739C11.5307 49.9041 11.3543 49.7342 11.2661 49.4795C10.7367 48.7152 9.85441 48.1208 9.06036 47.5263C8.26631 46.9319 7.38402 46.4224 6.6782 46.0827C5.97238 45.743 5.53125 45.4883 5.53125 45.4883C5.53125 45.4883 5.53126 45.5732 5.61948 45.828C5.70771 46.0827 5.79593 46.3375 5.88416 46.6771C6.14884 47.3565 6.50174 48.3755 7.11934 49.2247C7.29579 49.8192 7.6487 50.2437 8.00162 50.6683Z" fill="#FFCB6D"/>
<path d="M13.4701 50.2437C13.6465 50.6683 13.9995 51.008 14.3524 51.2628C15.2346 50.7533 15.764 49.989 16.1169 49.1398C16.2052 48.97 16.2051 48.7152 16.2934 48.5453C16.2934 48.4604 16.2934 48.2906 16.3816 48.2057C16.3816 48.1208 16.3816 47.9509 16.4698 47.866C16.5581 47.4414 16.5581 47.0168 16.5581 46.5922C16.4698 45.743 16.4698 44.9787 16.2934 44.3843C16.2051 44.1296 16.2052 43.8748 16.1169 43.705C16.1169 43.5351 16.0287 43.4502 16.0287 43.4502C16.0287 43.4502 15.9405 43.5351 15.764 43.705C15.5876 43.8748 15.4111 44.0446 15.2346 44.2994C14.7935 44.8089 14.2641 45.5732 13.823 46.4224C13.3819 47.2716 13.1172 48.2057 13.1172 49.1398C13.1172 49.3945 13.1172 49.5644 13.2054 49.8191C13.2936 49.9041 13.3819 50.0739 13.4701 50.2437Z" fill="#FFCB6D"/>
<path d="M6.146 42.6017C6.23422 42.8565 6.41068 43.0263 6.58714 43.2811C6.76359 43.4509 6.94005 43.7057 7.11651 43.8755C7.82233 44.5549 8.70461 44.9795 9.76334 44.8096C9.93979 44.385 10.028 43.8755 9.93981 43.4509C9.93981 43.1962 9.85157 43.0263 9.76334 42.7716C9.67511 42.6017 9.58689 42.347 9.49867 42.1771C9.32221 41.7525 9.05753 41.3279 8.70462 40.9883C8.52817 40.8184 8.35171 40.5637 8.26348 40.3938C8.08703 40.224 7.91057 40.0542 7.73411 39.7994C7.02829 39.0351 6.23422 38.3558 5.70486 37.8463C5.17549 37.3367 4.73438 36.9971 4.73438 36.9971C4.73438 36.9971 4.73438 37.5066 4.73438 38.2709C4.73438 38.6955 4.82259 39.1201 4.91081 39.5446C4.99904 39.7994 4.99905 40.0542 5.08728 40.3089C5.17551 40.5637 5.1755 40.8184 5.35195 41.0732C5.70486 41.5827 5.96954 42.0922 6.146 42.6017Z" fill="#FFCB6D"/>
<path d="M12.3253 44.2153C13.2958 43.8756 14.0016 43.1962 14.4428 42.5169C14.531 42.347 14.6192 42.1772 14.7075 41.9224C14.7957 41.7526 14.8839 41.4978 14.9721 41.328C15.1486 40.9034 15.2368 40.4788 15.3251 40.1391C15.4133 39.7145 15.5015 39.3749 15.5015 38.9503C15.5015 38.7804 15.5015 38.6106 15.5897 38.4407C15.5897 38.2709 15.5897 38.1011 15.5897 38.0161C15.678 37.4217 15.678 37.082 15.678 37.082C15.678 37.082 15.325 37.2519 14.7075 37.6765C14.531 37.7614 14.4428 37.8463 14.2663 38.0161C14.0899 38.1011 13.9134 38.2709 13.8252 38.4407C13.4723 38.6955 13.2076 39.0352 12.8547 39.3749C12.6782 39.5447 12.59 39.7145 12.4135 39.9693C12.3253 40.0542 12.2371 40.1391 12.2371 40.309C12.1489 40.3939 12.1488 40.4788 12.0606 40.6486C11.8842 41.0732 11.7077 41.4978 11.6195 41.9224C11.6195 42.1772 11.5312 42.347 11.5312 42.6018C11.5312 42.8565 11.6195 43.0264 11.6195 43.1962C11.7959 43.451 11.9724 43.8756 12.3253 44.2153Z" fill="#FFCB6D"/>
<path d="M8.61329 31.9017C8.3486 31.4771 8.0839 31.0525 7.90745 30.6279C7.64277 30.2033 7.37809 29.8636 7.20164 29.5239C6.7605 28.9295 6.49583 28.5049 6.49583 28.5049C6.49583 28.5049 6.31935 29.0144 6.23113 29.7787C6.1429 30.1183 6.14292 30.6279 6.05469 31.0525C6.05469 31.3072 6.05469 31.562 6.05469 31.8167C6.05469 32.0715 6.05469 32.3262 6.05469 32.581C6.14292 33.0905 6.1429 33.6 6.31936 34.1095C6.49582 34.6191 6.67228 35.1286 6.93696 35.4683C7.46633 36.3174 8.26036 36.9119 9.3191 36.9968C9.49555 36.827 9.58378 36.5722 9.672 36.4024C9.76023 36.2325 9.84847 35.9778 9.84847 35.8079C9.9367 35.3833 9.84846 34.9587 9.76024 34.5341C9.67201 34.1095 9.49555 33.6 9.3191 33.1754C9.14264 32.8358 8.87797 32.3262 8.61329 31.9017Z" fill="#FFCB6D"/>
<path d="M14.3545 35.8081C14.7075 35.4684 14.9721 35.2137 15.1486 34.7891C15.4133 34.4494 15.5897 34.1097 15.7662 33.6851C15.8544 33.5153 15.9426 33.3455 16.0309 33.1756C16.1191 33.0058 16.2073 32.8359 16.2955 32.6661C16.472 32.3264 16.5602 32.0717 16.6485 31.732C16.8249 31.2225 16.9131 30.8828 16.9131 30.8828C16.9131 30.8828 16.472 30.9677 15.8544 31.2225C15.2368 31.4772 14.4428 31.8169 13.6487 32.4113C13.4723 32.5812 13.2958 32.6661 13.1194 32.8359C12.9429 33.0058 12.7664 33.1756 12.59 33.3455C12.2371 33.6851 11.9724 34.1097 11.7959 34.4494C11.6195 34.874 11.5312 35.2986 11.5312 35.7232C11.5312 35.893 11.5313 36.1478 11.6195 36.3176C11.7077 36.4875 11.7959 36.7422 11.8842 36.9121C12.9429 36.8271 13.737 36.4026 14.3545 35.8081Z" fill="#FFCB6D"/>
<path d="M11.264 29.1844C11.4405 29.0145 11.5287 28.8447 11.6169 28.5899C11.7052 28.4201 11.7934 28.1653 11.7934 27.9955C11.7934 27.8256 11.8816 27.5709 11.8816 27.3161C11.8816 26.8915 11.8816 26.382 11.7934 25.8725C11.7052 25.363 11.6169 24.9384 11.5287 24.4289C11.264 23.4948 10.9993 22.5606 10.7346 21.8813C10.47 21.2019 10.2935 20.7773 10.2935 20.7773C10.2935 20.7773 10.2053 20.8623 10.117 21.0321C10.0288 21.2019 9.85236 21.5416 9.6759 21.8813C9.32299 22.5606 8.97008 23.4948 8.79363 24.5138C8.7054 25.0233 8.61719 25.5328 8.61719 26.0423C8.61719 26.2971 8.61719 26.5519 8.70542 26.8066C8.70542 27.0614 8.79363 27.3161 8.88186 27.5709C9.05832 27.9955 9.23479 28.4201 9.5877 28.8447C9.94061 29.1843 10.2935 29.524 10.8229 29.6939C10.9993 29.6089 11.1758 29.4391 11.264 29.1844Z" fill="#FFCB6D"/>
<path d="M19.6438 25.5321C19.732 25.3623 19.8202 25.2773 19.8202 25.2773C19.8202 25.2773 19.732 25.2773 19.4673 25.2773C19.2908 25.2773 19.0262 25.2773 18.6733 25.3623C18.3203 25.3623 17.9674 25.4472 17.5263 25.5321C17.3499 25.617 17.0852 25.617 16.9087 25.7019C16.7322 25.7869 16.4676 25.8718 16.2911 25.9567C15.85 26.1265 15.4088 26.2964 14.9677 26.5511C14.6148 26.8059 14.2619 27.1456 13.909 27.4003C13.7325 27.5702 13.6443 27.74 13.5561 27.9098C13.4678 28.0797 13.3796 28.3344 13.2914 28.5043C13.2031 28.6741 13.2031 28.9289 13.2031 29.0987C13.2031 29.3535 13.2914 29.5233 13.2914 29.7781C13.8207 29.863 14.2619 29.863 14.703 29.7781C15.1441 29.6931 15.5853 29.5233 15.9382 29.2685C16.1146 29.1836 16.2911 29.0138 16.4676 28.9289C16.5558 28.844 16.644 28.759 16.7322 28.759C16.8205 28.6741 16.9087 28.5892 16.9969 28.5892C17.3498 28.3344 17.6145 27.9948 17.8792 27.74C18.1439 27.4003 18.4086 27.1456 18.585 26.8908C18.6733 26.8059 18.6733 26.721 18.7615 26.6361C18.8497 26.5511 18.8497 26.4662 18.9379 26.4662C19.0262 26.2964 19.1144 26.2115 19.2026 26.1265C19.3791 25.8718 19.5555 25.7019 19.6438 25.5321Z" fill="#FFCB6D"/>
<path d="M14.1681 22.985C14.6093 22.7302 14.9622 22.4754 15.2269 22.1358C15.4916 21.7961 15.668 21.3715 15.8445 20.9469C16.1091 20.0977 16.1974 19.0787 16.1974 18.1446C16.1974 17.8898 16.1974 17.635 16.1974 17.3803C16.1974 17.1255 16.1974 16.8708 16.1974 16.7009C16.1974 16.2763 16.1092 15.8517 16.1092 15.4271C16.0209 14.7478 15.9327 14.2383 15.9327 14.2383C15.9327 14.2383 15.8445 14.3232 15.668 14.493C15.4916 14.6629 15.3151 14.9176 15.0504 15.1724C14.7857 15.5121 14.5211 15.8517 14.3446 16.1914C14.0799 16.616 13.8152 17.0406 13.6388 17.4652C13.4623 17.9747 13.2859 18.3993 13.1094 18.9088C13.0212 19.4184 12.933 19.9279 12.933 20.3525C12.8447 21.4564 13.2859 22.3905 14.1681 22.985Z" fill="#FFCB6D"/>
<path d="M21.5837 22.4754C21.9366 22.2206 22.2895 21.9659 22.5542 21.7111C22.8188 21.4564 23.0835 21.2865 23.3482 21.0318C23.5247 20.8619 23.7011 20.6921 23.8776 20.5223C23.9658 20.4373 24.054 20.3524 24.054 20.3524C24.054 20.3524 23.6129 20.2675 22.9071 20.1826C22.5542 20.1826 22.2013 20.0977 21.7601 20.0977C21.319 20.0977 20.8778 20.0977 20.3485 20.1826C19.378 20.3524 18.4075 20.6072 17.7016 21.1167C17.3487 21.3715 17.084 21.7111 16.8194 22.0508C16.6429 22.3905 16.5547 22.8151 16.5547 23.3246C17.5252 23.7492 18.4957 23.6643 19.2898 23.4944C19.7309 23.4095 20.0838 23.2397 20.5249 22.9849C20.8778 22.9 21.2307 22.7302 21.5837 22.4754Z" fill="#FFCB6D"/>
<path d="M29.1768 66.0391C25.8241 64.7653 22.4715 63.2368 19.6482 61.0289C16.6485 58.6511 14.531 55.4242 13.0311 51.6878C11.1784 47.3569 9.85494 42.8562 10.0314 38.1007C10.2079 34.0246 11.3548 30.0334 13.1194 26.2969C14.6192 23.3247 16.472 20.3526 18.7659 17.7201C18.5895 17.3804 18.5895 16.9558 18.6777 16.6161C18.7659 16.1915 18.9424 15.7669 19.2071 15.4272C19.7364 14.663 20.5305 13.9836 21.4128 13.559C22.295 13.0495 23.1773 12.7948 23.8831 12.6249C24.236 12.54 24.5007 12.4551 24.6772 12.4551H24.9419H25.0301V12.54C25.0301 12.54 25.0301 12.6249 24.9419 12.7098C24.8537 12.8797 24.7654 13.1344 24.589 13.3892C24.3243 13.9836 23.8831 14.663 23.3538 15.4272C23.0891 15.7669 22.7362 16.1066 22.4715 16.4463L22.0303 16.8709L22.0302 16.871C21.8538 17.0408 21.6774 17.2106 21.501 17.2955C21.1481 17.4653 20.7952 17.7201 20.354 17.805C20.0893 17.8899 19.7364 17.8899 19.3835 17.8899C18.413 19.0788 17.4425 20.2676 16.6485 21.4565C13.3841 26.1271 11.0901 31.5619 10.7372 37.2515C10.4725 42.1768 11.6195 46.7624 13.5605 51.2632C14.531 53.6409 15.7662 55.9337 17.5308 57.8868C19.2953 59.84 21.4128 61.3685 23.7067 62.6423C28.1181 65.0201 34.5587 67.7375 40.6464 69.6906L38.9701 70.4549C35.441 68.8414 31.9119 67.0581 29.1768 66.0391Z" fill="#FFCB6D"/>
<path d="M166.871 67.1433C167.312 66.8036 167.753 66.5489 168.194 66.379C168.635 66.2092 169.076 66.1243 169.606 66.1243C170.576 66.0394 171.635 66.2941 172.694 66.464C173.753 66.7187 174.723 66.9735 175.429 67.2282C176.135 67.483 176.664 67.6528 176.664 67.6528C176.664 67.6528 176.223 67.9076 175.429 68.2473C174.723 68.5869 173.664 68.9266 172.517 69.0965C171.37 69.2663 170.223 69.2663 169.165 69.0115C168.018 68.7568 167.135 68.1623 166.871 67.1433Z" fill="#FFCB6D"/>
<path d="M169.956 62.8117C169.515 63.6609 168.985 64.5101 168.191 65.0196C167.838 65.2744 167.397 65.5291 166.956 65.6141C166.515 65.699 165.986 65.699 165.545 65.4442C165.545 64.4252 165.809 63.576 166.25 62.8966C166.692 62.2173 167.397 61.5379 168.015 61.0284C168.721 60.5189 169.338 60.0943 169.868 59.7546C170.397 59.415 170.75 59.2451 170.75 59.2451C170.75 59.2451 170.75 59.33 170.75 59.5848C170.75 59.7546 170.662 60.0094 170.662 60.3491C170.574 61.0284 170.397 61.8776 169.956 62.8117Z" fill="#FFCB6D"/>
<path d="M177.374 65.1048C176.315 65.0199 175.433 64.6803 174.815 63.8311C175.345 62.9819 176.139 62.4724 177.021 62.2176C177.903 61.9628 179.05 61.8779 180.109 61.8779C181.168 61.8779 182.226 61.8779 183.02 61.8779C183.814 61.8779 184.344 61.8779 184.344 61.8779C184.344 61.8779 184.256 61.9628 184.079 62.1327C183.903 62.3025 183.638 62.5573 183.285 62.812C182.579 63.3215 181.697 63.916 180.638 64.4255C179.491 64.8501 178.344 65.1048 177.374 65.1048Z" fill="#FFCB6D"/>
<path d="M175.425 61.1991C174.808 61.8785 174.014 62.388 173.043 62.3031C172.602 61.3689 172.69 60.4348 172.955 59.5856C173.22 58.7364 173.749 57.9722 174.19 57.2928C174.72 56.6135 175.161 56.104 175.602 55.6794C175.778 55.5095 175.955 55.3397 176.043 55.1698C176.131 55.0849 176.219 55 176.219 55C176.219 55 176.219 55.0849 176.308 55.2548C176.396 55.4246 176.396 55.6794 176.484 56.019C176.572 56.6984 176.661 57.5476 176.484 58.4817C176.308 59.5007 175.955 60.4348 175.425 61.1991Z" fill="#FFCB6D"/>
<path d="M187.96 54.1502C188.666 53.8955 189.195 53.8105 189.195 53.8105C189.195 53.8105 189.107 53.8955 189.019 54.1502C188.931 54.3201 188.754 54.5748 188.578 54.9145C188.401 55.2542 188.137 55.5938 187.872 56.0184C187.695 56.1883 187.607 56.443 187.431 56.6129L187.343 56.7827L187.166 56.9526C187.078 57.0375 186.99 57.2073 186.901 57.2922C186.019 58.2263 184.96 58.9906 183.99 59.3303C182.931 59.67 181.961 59.5851 181.078 58.9057C181.343 57.8867 181.872 57.2073 182.666 56.6978C182.843 56.528 183.108 56.443 183.284 56.2732C183.461 56.1034 183.725 56.0184 183.99 55.8486C184.255 55.6788 184.431 55.5938 184.696 55.424C184.96 55.3391 185.137 55.1693 185.402 55.0843C186.284 54.6597 187.254 54.3201 187.96 54.1502Z" fill="#FFCB6D"/>
<path d="M180.808 55.8486C180.543 56.6978 179.926 57.3772 178.955 57.6319C178.249 56.8676 178.073 55.9335 177.985 55.1692C177.896 54.3201 178.073 53.5558 178.161 52.8764C178.161 52.6217 178.338 52.1122 178.426 51.7725C178.514 51.4328 178.69 51.0931 178.779 50.7535C178.867 50.4987 178.955 50.2439 179.043 50.0741C179.132 49.9043 179.132 49.8193 179.132 49.8193C179.132 49.8193 179.22 49.9043 179.308 50.0741C179.396 50.2439 179.573 50.4987 179.749 50.7535C180.102 51.3479 180.455 52.1971 180.72 53.0463C180.808 53.301 180.808 53.4709 180.896 53.7256C180.984 53.9804 180.984 54.1502 180.984 54.405C180.984 54.6597 180.984 54.8296 180.984 55.0843C180.984 55.424 180.896 55.6788 180.808 55.8486Z" fill="#FFCB6D"/>
<path d="M189.014 50.6683C188.838 50.8382 188.661 51.008 188.485 51.1779C188.308 51.3477 188.043 51.5175 187.867 51.6025C186.985 52.112 186.102 52.3667 185.044 52.0271C184.956 51.5175 184.956 51.0929 185.132 50.6683C185.22 50.4985 185.308 50.2438 185.397 50.0739C185.485 49.9041 185.661 49.7342 185.75 49.4795C186.279 48.7152 187.161 48.1208 187.955 47.5263C188.749 46.9319 189.632 46.4224 190.337 46.0827C191.043 45.743 191.484 45.4883 191.484 45.4883C191.484 45.4883 191.484 45.5732 191.396 45.828C191.308 46.0827 191.22 46.3375 191.131 46.6771C190.867 47.3565 190.514 48.3755 189.896 49.2247C189.72 49.8192 189.367 50.2437 189.014 50.6683Z" fill="#FFCB6D"/>
<path d="M183.546 50.2437C183.369 50.6683 183.016 51.008 182.663 51.2628C181.781 50.7533 181.252 49.989 180.899 49.1398C180.81 48.97 180.81 48.7152 180.722 48.5453C180.722 48.4604 180.722 48.2906 180.634 48.2057C180.634 48.1208 180.634 47.9509 180.546 47.866C180.458 47.4414 180.458 47.0168 180.458 46.5922C180.546 45.743 180.546 44.9787 180.722 44.3843C180.81 44.1296 180.81 43.8748 180.899 43.705C180.899 43.5351 180.987 43.4502 180.987 43.4502C180.987 43.4502 181.075 43.5351 181.252 43.705C181.428 43.8748 181.605 44.0446 181.781 44.2994C182.222 44.8089 182.751 45.5732 183.193 46.4224C183.634 47.2716 183.898 48.2057 183.898 49.1398C183.898 49.3945 183.898 49.5644 183.81 49.8191C183.722 49.9041 183.634 50.0739 183.546 50.2437Z" fill="#FFCB6D"/>
<path d="M190.87 42.6017C190.781 42.8565 190.605 43.0263 190.428 43.2811C190.252 43.4509 190.076 43.7057 189.899 43.8755C189.193 44.5549 188.311 44.9795 187.252 44.8096C187.076 44.385 186.988 43.8755 187.076 43.4509C187.076 43.1962 187.164 43.0263 187.252 42.7716C187.341 42.6017 187.429 42.347 187.517 42.1771C187.693 41.7525 187.958 41.3279 188.311 40.9883C188.487 40.8184 188.664 40.5637 188.752 40.3938C188.929 40.224 189.105 40.0542 189.282 39.7994C189.987 39.0351 190.781 38.3558 191.311 37.8463C191.84 37.3367 192.281 36.9971 192.281 36.9971C192.281 36.9971 192.281 37.5066 192.281 38.2709C192.281 38.6955 192.193 39.1201 192.105 39.5446C192.017 39.7994 192.017 40.0542 191.928 40.3089C191.84 40.5637 191.84 40.8184 191.664 41.0732C191.311 41.5827 191.046 42.0922 190.87 42.6017Z" fill="#FFCB6D"/>
<path d="M184.69 44.2153C183.72 43.8756 183.014 43.1962 182.573 42.5169C182.485 42.347 182.396 42.1772 182.308 41.9224C182.22 41.7526 182.132 41.4978 182.043 41.328C181.867 40.9034 181.779 40.4788 181.691 40.1391C181.602 39.7145 181.514 39.3749 181.514 38.9503C181.514 38.7804 181.514 38.6106 181.426 38.4407C181.426 38.2709 181.426 38.1011 181.426 38.0161C181.338 37.4217 181.338 37.082 181.338 37.082C181.338 37.082 181.691 37.2519 182.308 37.6765C182.485 37.7614 182.573 37.8463 182.749 38.0161C182.926 38.1011 183.102 38.2709 183.19 38.4407C183.543 38.6955 183.808 39.0352 184.161 39.3749C184.337 39.5447 184.426 39.7145 184.602 39.9693C184.69 40.0542 184.779 40.1391 184.779 40.309C184.867 40.3939 184.867 40.4788 184.955 40.6486C185.131 41.0732 185.308 41.4978 185.396 41.9224C185.396 42.1772 185.484 42.347 185.484 42.6018C185.484 42.8565 185.396 43.0264 185.396 43.1962C185.22 43.451 185.043 43.8756 184.69 44.2153Z" fill="#FFCB6D"/>
<path d="M188.402 31.9017C188.667 31.4771 188.932 31.0525 189.108 30.6279C189.373 30.2033 189.638 29.8636 189.814 29.5239C190.255 28.9295 190.52 28.5049 190.52 28.5049C190.52 28.5049 190.696 29.0144 190.784 29.7787C190.873 30.1183 190.873 30.6279 190.961 31.0525C190.961 31.3072 190.961 31.562 190.961 31.8167C190.961 32.0715 190.961 32.3262 190.961 32.581C190.873 33.0905 190.873 33.6 190.696 34.1095C190.52 34.6191 190.343 35.1286 190.079 35.4683C189.549 36.3174 188.755 36.9119 187.697 36.9968C187.52 36.827 187.432 36.5722 187.344 36.4024C187.255 36.2325 187.167 35.9778 187.167 35.8079C187.079 35.3833 187.167 34.9587 187.255 34.5341C187.344 34.1095 187.52 33.6 187.697 33.1754C187.873 32.8358 188.138 32.3262 188.402 31.9017Z" fill="#FFCB6D"/>
<path d="M182.661 35.8081C182.308 35.4684 182.043 35.2137 181.867 34.7891C181.602 34.4494 181.426 34.1097 181.249 33.6851C181.161 33.5153 181.073 33.3455 180.985 33.1756C180.897 33.0058 180.808 32.8359 180.72 32.6661C180.544 32.3264 180.455 32.0717 180.367 31.732C180.191 31.2225 180.102 30.8828 180.102 30.8828C180.102 30.8828 180.544 30.9677 181.161 31.2225C181.779 31.4772 182.573 31.8169 183.367 32.4113C183.543 32.5812 183.72 32.6661 183.896 32.8359C184.073 33.0058 184.249 33.1756 184.426 33.3455C184.779 33.6851 185.043 34.1097 185.22 34.4494C185.396 34.874 185.484 35.2986 185.484 35.7232C185.484 35.893 185.484 36.1478 185.396 36.3176C185.308 36.4875 185.22 36.7422 185.131 36.9121C184.073 36.8271 183.279 36.4026 182.661 35.8081Z" fill="#FFCB6D"/>
<path d="M185.752 29.1844C185.575 29.0145 185.487 28.8447 185.399 28.5899C185.31 28.4201 185.222 28.1653 185.222 27.9955C185.222 27.8256 185.134 27.5709 185.134 27.3161C185.134 26.8915 185.134 26.382 185.222 25.8725C185.31 25.363 185.399 24.9384 185.487 24.4289C185.752 23.4948 186.016 22.5606 186.281 21.8813C186.546 21.2019 186.722 20.7773 186.722 20.7773C186.722 20.7773 186.81 20.8623 186.899 21.0321C186.987 21.2019 187.163 21.5416 187.34 21.8813C187.693 22.5606 188.046 23.4948 188.222 24.5138C188.31 25.0233 188.398 25.5328 188.398 26.0423C188.398 26.2971 188.398 26.5519 188.31 26.8066C188.31 27.0614 188.222 27.3161 188.134 27.5709C187.957 27.9955 187.781 28.4201 187.428 28.8447C187.075 29.1843 186.722 29.524 186.193 29.6939C186.016 29.6089 185.84 29.4391 185.752 29.1844Z" fill="#FFCB6D"/>
<path d="M177.372 25.5321C177.284 25.3623 177.195 25.2773 177.195 25.2773C177.195 25.2773 177.284 25.2773 177.548 25.2773C177.725 25.2773 177.989 25.2773 178.342 25.3623C178.695 25.3623 179.048 25.4472 179.489 25.5321C179.666 25.617 179.93 25.617 180.107 25.7019C180.283 25.7869 180.548 25.8718 180.725 25.9567C181.166 26.1265 181.607 26.2964 182.048 26.5511C182.401 26.8059 182.754 27.1456 183.107 27.4003C183.283 27.5702 183.371 27.74 183.46 27.9098C183.548 28.0797 183.636 28.3344 183.724 28.5043C183.812 28.6741 183.812 28.9289 183.812 29.0987C183.812 29.3535 183.724 29.5233 183.724 29.7781C183.195 29.863 182.754 29.863 182.313 29.7781C181.871 29.6931 181.43 29.5233 181.077 29.2685C180.901 29.1836 180.725 29.0138 180.548 28.9289C180.46 28.844 180.372 28.759 180.283 28.759C180.195 28.6741 180.107 28.5892 180.019 28.5892C179.666 28.3344 179.401 27.9948 179.136 27.74C178.872 27.4003 178.607 27.1456 178.431 26.8908C178.342 26.8059 178.342 26.721 178.254 26.6361C178.166 26.5511 178.166 26.4662 178.078 26.4662C177.989 26.2964 177.901 26.2115 177.813 26.1265C177.637 25.8718 177.46 25.7019 177.372 25.5321Z" fill="#FFCB6D"/>
<path d="M182.847 22.985C182.406 22.7302 182.053 22.4754 181.789 22.1358C181.524 21.7961 181.348 21.3715 181.171 20.9469C180.906 20.0977 180.818 19.0787 180.818 18.1446C180.818 17.8898 180.818 17.635 180.818 17.3803C180.818 17.1255 180.818 16.8708 180.818 16.7009C180.818 16.2763 180.906 15.8517 180.906 15.4271C180.995 14.7478 181.083 14.2383 181.083 14.2383C181.083 14.2383 181.171 14.3232 181.348 14.493C181.524 14.6629 181.701 14.9176 181.965 15.1724C182.23 15.5121 182.495 15.8517 182.671 16.1914C182.936 16.616 183.2 17.0406 183.377 17.4652C183.553 17.9747 183.73 18.3993 183.906 18.9088C183.994 19.4184 184.083 19.9279 184.083 20.3525C184.171 21.4564 183.73 22.3905 182.847 22.985Z" fill="#FFCB6D"/>
<path d="M175.432 22.4754C175.079 22.2206 174.726 21.9659 174.461 21.7111C174.197 21.4564 173.932 21.2865 173.667 21.0318C173.491 20.8619 173.315 20.6921 173.138 20.5223C173.05 20.4373 172.962 20.3524 172.962 20.3524C172.962 20.3524 173.403 20.2675 174.109 20.1826C174.461 20.1826 174.814 20.0977 175.256 20.0977C175.697 20.0977 176.138 20.0977 176.667 20.1826C177.638 20.3524 178.608 20.6072 179.314 21.1167C179.667 21.3715 179.932 21.7111 180.196 22.0508C180.373 22.3905 180.461 22.8151 180.461 23.3246C179.49 23.7492 178.52 23.6643 177.726 23.4944C177.285 23.4095 176.932 23.2397 176.491 22.9849C176.138 22.9 175.785 22.7302 175.432 22.4754Z" fill="#FFCB6D"/>
<path d="M167.839 66.0391C171.191 64.7653 174.544 63.2368 177.367 61.0289C180.367 58.6511 182.485 55.4242 183.984 51.6878C185.837 47.3569 187.161 42.8562 186.984 38.1007C186.808 34.0246 185.661 30.0334 183.896 26.2969C182.396 23.3247 180.544 20.3526 178.25 17.7201C178.426 17.3804 178.426 16.9558 178.338 16.6161C178.25 16.1915 178.073 15.7669 177.809 15.4272C177.279 14.663 176.485 13.9836 175.603 13.559C174.721 13.0495 173.838 12.7948 173.132 12.6249C172.78 12.54 172.515 12.4551 172.338 12.4551H172.074H171.986V12.54C171.986 12.54 171.986 12.6249 172.074 12.7098C172.162 12.8797 172.25 13.1344 172.427 13.3892C172.691 13.9836 173.132 14.663 173.662 15.4272C173.927 15.7669 174.279 16.1066 174.544 16.4463L174.985 16.8709L174.985 16.871C175.162 17.0408 175.338 17.2106 175.515 17.2955C175.868 17.4653 176.22 17.7201 176.662 17.805C176.926 17.8899 177.279 17.8899 177.632 17.8899C178.603 19.0788 179.573 20.2676 180.367 21.4565C183.632 26.1271 185.926 31.5619 186.278 37.2515C186.543 42.1768 185.396 46.7624 183.455 51.2632C182.485 53.6409 181.249 55.9337 179.485 57.8868C177.72 59.84 175.603 61.3685 173.309 62.6423C168.898 65.0201 162.457 67.7375 156.369 69.6906L158.046 70.4549C161.575 68.8414 165.104 67.0581 167.839 66.0391Z" fill="#FFCB6D"/>
<path d="M89.4375 2.51562H91.0947V12.7471H89.4375V2.51562Z" fill="white"/>
<path d="M96.8596 9.50476C96.8596 11.0899 95.5627 11.234 95.1304 11.234C94.1216 11.234 93.9775 10.2973 93.9775 9.79297V5.83008H92.3203V9.72092C92.3203 10.6576 92.6085 11.5222 93.1849 12.0266C93.6893 12.531 94.3378 12.7471 95.1304 12.7471C95.7068 12.7471 96.4273 12.603 96.8596 12.1707V12.7471H98.5168V5.83008H96.8596V9.50476Z" fill="white"/>
<path d="M101.757 3.30859H100.1V5.83044H98.875V7.41559H100.1V12.7475H101.757V7.41559H102.982V5.83044H101.757V3.30859Z" fill="white"/>
<path d="M108.173 10.6572C107.813 10.9454 107.308 11.1615 106.804 11.1615C105.651 11.1615 104.859 10.2969 104.859 9.14407C104.859 7.99123 105.651 7.19865 106.804 7.19865C107.308 7.19865 107.813 7.34276 108.173 7.70302L108.389 7.91918L109.542 6.83839L109.254 6.62223C108.605 6.04581 107.741 5.68555 106.804 5.68555C104.787 5.68555 103.273 7.19865 103.273 9.21613C103.273 11.2336 104.787 12.7467 106.804 12.7467C107.741 12.7467 108.605 12.3864 109.254 11.81L109.542 11.5939L108.389 10.441L108.173 10.6572Z" fill="white"/>
<path d="M115.372 6.40647C114.867 5.9021 114.363 5.68594 113.57 5.68594C112.994 5.68594 112.418 5.83005 111.985 6.26236V2.51562H110.328V12.7471H111.985V8.92831C111.985 7.34315 113.066 7.19905 113.498 7.19905C114.507 7.19905 114.435 8.13573 114.435 8.6401V12.675H116.092V8.71215C116.092 7.77547 115.876 6.91084 115.372 6.40647Z" fill="white"/>
<path d="M106.731 10.3692C107.368 10.3692 107.884 9.85302 107.884 9.21632C107.884 8.57962 107.368 8.06348 106.731 8.06348C106.094 8.06348 105.578 8.57962 105.578 9.21632C105.578 9.85302 106.094 10.3692 106.731 10.3692Z" fill="#E14942"/>
<path d="M87.1315 10.2251C86.5551 10.8016 85.6904 11.1618 84.7537 11.1618C82.9524 11.1618 81.6555 9.72078 81.6555 7.77535C81.6555 5.82993 82.9524 4.38888 84.8258 4.38888C85.6904 4.38888 86.5551 4.74914 87.2035 5.39762L87.4197 5.61377L88.5005 4.53298L88.2843 4.31683C87.3476 3.38014 86.1227 2.87577 84.8258 2.87577C82.0878 2.80372 80.0703 4.9653 80.0703 7.77535C80.0703 10.5854 82.0878 12.747 84.7537 12.747C86.0507 12.747 87.3476 12.2426 88.2123 11.3059L88.4284 11.0898L87.3476 10.009L87.1315 10.2251Z" fill="white"/>
</svg>
