<svg width="315" height="185" viewBox="0 0 315 185" fill="none" xmlns="http://www.w3.org/2000/svg">
<rect x="0.75" y="0.25" width="314" height="184.167" fill="#3240BE"/>
<rect x="0.75" y="0.25" width="314" height="184.167" stroke="white" stroke-width="0.5"/>
<rect x="178" y="31.9414" width="26.7397" height="2.9781" fill="#7B84DD"/>
<rect x="178" y="73.6348" width="26.7397" height="2.9781" fill="#7B84DD"/>
<rect x="178" y="157.021" width="26.7397" height="2.9781" fill="#7B84DD"/>
<rect x="252.871" y="31.9414" width="37.4355" height="2.9781" fill="#7B84DD"/>
<rect x="178" y="94.4805" width="26.7397" height="2.9781" fill="#7B84DD"/>
<rect x="204.738" y="24" width="48.1314" height="7.94161" fill="#7B84DD"/>
<rect x="178" y="52.7891" width="26.7397" height="2.9781" fill="#7B84DD"/>
<rect x="178" y="115.328" width="26.7397" height="2.9781" fill="#7B84DD"/>
<rect x="178" y="136.176" width="26.7397" height="2.9781" fill="#7B84DD"/>
<rect x="252.871" y="73.6348" width="37.4355" height="2.9781" fill="#7B84DD"/>
<rect x="252.871" y="157.021" width="37.4355" height="2.9781" fill="#7B84DD"/>
<rect x="204.738" y="65.6934" width="48.1314" height="7.94161" fill="#7B84DD"/>
<rect x="204.738" y="149.08" width="48.1314" height="7.94161" fill="#7B84DD"/>
<rect x="204.738" y="86.5391" width="58.8272" height="7.94161" fill="#7B84DD"/>
<rect x="263.566" y="94.4805" width="26.7397" height="2.9781" fill="#7B84DD"/>
<rect x="204.738" y="107.387" width="32.0876" height="7.94161" fill="#7B84DD"/>
<rect x="204.738" y="44.8477" width="32.0876" height="7.94161" fill="#7B84DD"/>
<rect x="204.738" y="128.234" width="21.3917" height="7.94161" fill="#7B84DD"/>
<rect x="236.828" y="52.7891" width="53.4793" height="2.9781" fill="#7B84DD"/>
<rect x="236.828" y="115.328" width="53.4793" height="2.9781" fill="#7B84DD"/>
<rect x="226.133" y="136.176" width="64.1752" height="2.9781" fill="#7B84DD"/>
</svg>
