<svg width="315" height="185" viewBox="0 0 315 185" fill="none" xmlns="http://www.w3.org/2000/svg">
<rect x="0.25" y="0.583984" width="314" height="184.167" fill="#FF8A24"/>
<rect x="0.25" y="0.583984" width="314" height="184.167" stroke="white" stroke-width="0.5"/>
<g opacity="0.7">
<rect x="201.422" y="75.793" width="3.20716" height="21.0247" transform="rotate(-45 201.422 75.793)" fill="white"/>
<rect width="3.20716" height="21.0247" transform="matrix(-0.707107 -0.707107 -0.707107 0.707107 199.148 75.793)" fill="white"/>
<rect width="3.20716" height="21.0247" transform="matrix(0.707107 0.707107 0.707107 -0.707107 201.422 107.828)" fill="white"/>
<rect x="199.148" y="107.828" width="3.20716" height="21.0247" transform="rotate(135 199.148 107.828)" fill="white"/>
</g>
<g opacity="0.7">
<rect x="239.91" y="75.793" width="3.20716" height="21.0247" transform="rotate(-45 239.91 75.793)" fill="white"/>
<rect width="3.20716" height="21.0247" transform="matrix(-0.707107 -0.707107 -0.707107 0.707107 237.637 75.793)" fill="white"/>
<rect width="3.20716" height="21.0247" transform="matrix(0.707107 0.707107 0.707107 -0.707107 239.91 107.826)" fill="white"/>
<rect x="237.637" y="107.826" width="3.20716" height="21.0247" transform="rotate(135 237.637 107.826)" fill="white"/>
</g>
<g opacity="0.2">
<rect x="201.422" y="36.8691" width="3.20716" height="21.0247" transform="rotate(-45 201.422 36.8691)" fill="white"/>
<rect width="3.20716" height="21.0247" transform="matrix(-0.707107 -0.707107 -0.707107 0.707107 199.148 36.8691)" fill="white"/>
<rect width="3.20716" height="21.0247" transform="matrix(0.707107 0.707107 0.707107 -0.707107 201.422 68.9023)" fill="white"/>
<rect x="199.148" y="68.9023" width="3.20716" height="21.0247" transform="rotate(135 199.148 68.9023)" fill="white"/>
</g>
<g opacity="0.2">
<rect x="239.91" y="36.8691" width="3.20716" height="21.0247" transform="rotate(-45 239.91 36.8691)" fill="white"/>
<rect width="3.20716" height="21.0247" transform="matrix(-0.707107 -0.707107 -0.707107 0.707107 237.637 36.8691)" fill="white"/>
<rect width="3.20716" height="21.0247" transform="matrix(0.707107 0.707107 0.707107 -0.707107 239.91 68.9023)" fill="white"/>
<rect x="237.637" y="68.9023" width="3.20716" height="21.0247" transform="rotate(135 237.637 68.9023)" fill="white"/>
</g>
<g opacity="0.2">
<rect x="201.422" y="114.557" width="3.20716" height="21.0247" transform="rotate(-45 201.422 114.557)" fill="white"/>
<rect width="3.20716" height="21.0247" transform="matrix(-0.707107 -0.707107 -0.707107 0.707107 199.148 114.557)" fill="white"/>
<rect width="3.20716" height="21.0247" transform="matrix(0.707107 0.707107 0.707107 -0.707107 201.422 146.592)" fill="white"/>
<rect x="199.148" y="146.592" width="3.20716" height="21.0247" transform="rotate(135 199.148 146.592)" fill="white"/>
</g>
<g opacity="0.2">
<rect x="239.91" y="114.557" width="3.20716" height="21.0247" transform="rotate(-45 239.91 114.557)" fill="white"/>
<rect width="3.20716" height="21.0247" transform="matrix(-0.707107 -0.707107 -0.707107 0.707107 237.637 114.557)" fill="white"/>
<rect width="3.20716" height="21.0247" transform="matrix(0.707107 0.707107 0.707107 -0.707107 239.91 146.59)" fill="white"/>
<rect x="237.637" y="146.59" width="3.20716" height="21.0247" transform="rotate(135 237.637 146.59)" fill="white"/>
</g>
<g opacity="0.7">
<rect x="286.988" y="81.2891" width="3.20716" height="21.0247" fill="white"/>
<rect width="3.20716" height="21.0247" transform="matrix(0 -1 -1 0 285.379 79.6797)" fill="white"/>
<rect width="3.20716" height="21.0247" transform="matrix(0 1 1 0 264.336 103.941)" fill="white"/>
<rect x="262.73" y="102.334" width="3.20716" height="21.0247" transform="rotate(180 262.73 102.334)" fill="white"/>
</g>
<g opacity="0.2">
<rect x="286.988" y="43.5156" width="3.20716" height="21.0247" fill="white"/>
<rect width="3.20716" height="21.0247" transform="matrix(0 -1 -1 0 285.379 41.9062)" fill="white"/>
<rect width="3.20716" height="21.0247" transform="matrix(0 1 1 0 264.336 66.168)" fill="white"/>
<rect x="262.73" y="64.5605" width="3.20716" height="21.0247" transform="rotate(180 262.73 64.5605)" fill="white"/>
</g>
<g opacity="0.2">
<rect x="286.988" y="119.773" width="3.20716" height="21.0247" fill="white"/>
<rect width="3.20716" height="21.0247" transform="matrix(0 -1 -1 0 285.379 118.164)" fill="white"/>
<rect width="3.20716" height="21.0247" transform="matrix(0 1 1 0 264.336 142.426)" fill="white"/>
<rect x="262.73" y="140.818" width="3.20716" height="21.0247" transform="rotate(180 262.73 140.818)" fill="white"/>
</g>
</svg>
