<svg width="315" height="186" viewBox="0 0 315 186" fill="none" xmlns="http://www.w3.org/2000/svg">
<rect x="0.75" y="0.916016" width="314" height="184.167" fill="#F0F0F0"/>
<rect x="0.75" y="0.916016" width="314" height="184.167" stroke="#AEAEB7" stroke-width="0.5"/>
<path d="M212.551 148.442L212.551 161L199.993 161L199.993 148.442L212.551 148.442Z" fill="#AEAEB7"/>
<path d="M199.993 134.725L199.993 147.283L212.551 147.283L212.551 135.785L199.993 134.725Z" fill="#AEAEB7"/>
<path d="M199.993 121.01L199.993 133.568L212.551 133.568L212.551 123.127L199.993 121.01Z" fill="#AEAEB7"/>
<path d="M199.993 107.294L199.993 119.852L212.551 119.852L212.551 110.472L199.993 107.294Z" fill="#AEAEB7"/>
<path d="M199.993 93.5788L199.993 106.137L212.551 106.137L212.551 97.8145L199.993 93.5788Z" fill="#AEAEB7"/>
<path d="M199.993 79.862L199.993 92.4199L212.551 92.4199L212.551 85.1572L199.993 79.862Z" fill="#AEAEB7"/>
<path d="M199.993 66.1491L199.993 78.707L212.551 78.707L212.551 72.5013L199.993 66.1491Z" fill="#AEAEB7"/>
<path d="M199.993 52.4303L199.993 64.9883L212.551 64.9883L212.551 59.8421L199.993 52.4303Z" fill="#AEAEB7"/>
<path d="M199.993 38.7174L199.993 51.2754L212.551 51.2754L212.551 47.1862L199.993 38.7174Z" fill="#AEAEB7"/>
<path d="M199.993 25.0006L199.993 37.5586L212.551 37.5586L212.551 34.5316L199.993 25.0006Z" fill="#AEAEB7"/>
<path d="M229.191 133.566L220.558 133.566L220.558 121.008L229.191 122.463L229.191 133.566Z" fill="#AEAEB7"/>
<path d="M229.191 119.85L220.558 119.85L220.558 107.292L229.191 109.476L229.191 119.85Z" fill="#AEAEB7"/>
<path d="M229.191 148.44L229.191 160.998L220.558 160.998L220.558 148.44L229.191 148.44Z" fill="#AEAEB7"/>
<path d="M229.191 147.281L220.558 147.281L220.558 134.723L229.191 135.453L229.191 147.281Z" fill="#AEAEB7"/>
<path d="M229.191 106.135L220.558 106.135L220.558 93.5768L229.191 96.4887L229.191 106.135Z" fill="#AEAEB7"/>
<path d="M229.191 64.9863L220.558 64.9863L220.558 52.4284L229.191 57.5248L229.191 64.9863Z" fill="#AEAEB7"/>
<path d="M229.191 92.418L220.558 92.418L220.558 79.86L229.191 83.4992L229.191 92.418Z" fill="#AEAEB7"/>
<path d="M229.191 37.5547L220.558 37.5547L220.558 24.9967L229.191 31.5478L229.191 37.5547Z" fill="#AEAEB7"/>
<path d="M229.191 51.2734L220.558 51.2734L220.558 38.7155L229.191 44.5392L229.191 51.2734Z" fill="#AEAEB7"/>
<path d="M229.191 78.7051L220.558 78.7051L220.558 66.1471L229.191 70.5136L229.191 78.7051Z" fill="#AEAEB7"/>
<path d="M243.207 133.568L237.19 133.568L237.19 121.01L243.207 122.026L243.207 133.568Z" fill="#AEAEB7"/>
<path d="M243.207 119.852L237.19 119.852L237.19 107.294L243.207 108.816L243.207 119.852Z" fill="#AEAEB7"/>
<path d="M243.207 106.137L237.19 106.137L237.19 93.5788L243.207 95.609L243.207 106.137Z" fill="#AEAEB7"/>
<path d="M243.207 148.442L243.207 161L237.19 161L237.19 148.442L243.207 148.442Z" fill="#AEAEB7"/>
<path d="M243.207 147.283L237.19 147.283L237.19 134.725L243.207 135.233L243.207 147.283Z" fill="#AEAEB7"/>
<path d="M243.207 64.9883L237.19 64.9883L237.19 52.4303L243.207 55.9832L243.207 64.9883Z" fill="#AEAEB7"/>
<path d="M243.207 92.4199L237.19 92.4199L237.19 79.862L243.207 82.3997L243.207 92.4199Z" fill="#AEAEB7"/>
<path d="M243.207 51.2754L237.19 51.2754L237.19 38.7174L243.207 42.7752L243.207 51.2754Z" fill="#AEAEB7"/>
<path d="M243.207 37.5586L237.19 37.5586L237.19 25.0006L243.207 29.566L243.207 37.5586Z" fill="#AEAEB7"/>
<path d="M243.207 78.707L237.19 78.707L237.19 66.1491L243.207 69.1918L243.207 78.707Z" fill="#AEAEB7"/>
<path d="M254.609 133.568L251.208 133.568L251.208 121.01L254.609 121.583L254.609 133.568Z" fill="#AEAEB7"/>
<path d="M254.609 119.852L251.208 119.852L251.208 107.294L254.609 108.154L254.609 119.852Z" fill="#AEAEB7"/>
<path d="M254.609 106.137L251.208 106.137L251.208 93.5788L254.609 94.7247L254.609 106.137Z" fill="#AEAEB7"/>
<path d="M254.609 147.283L251.208 147.283L251.208 134.725L254.609 135.013L254.609 147.283Z" fill="#AEAEB7"/>
<path d="M254.609 37.5586L251.208 37.5586L251.208 25.0006L254.609 27.5829L254.609 37.5586Z" fill="#AEAEB7"/>
<path d="M254.609 148.442L254.609 161L251.208 161L251.208 148.442L254.609 148.442Z" fill="#AEAEB7"/>
<path d="M254.609 92.4199L251.208 92.4199L251.208 79.862L254.609 81.2957L254.609 92.4199Z" fill="#AEAEB7"/>
<path d="M254.609 64.9883L251.208 64.9883L251.208 52.4303L254.609 54.437L254.609 64.9883Z" fill="#AEAEB7"/>
<path d="M254.609 51.2754L251.208 51.2754L251.208 38.7174L254.609 41.0093L254.609 51.2754Z" fill="#AEAEB7"/>
<path d="M254.609 78.707L251.208 78.707L251.208 66.1491L254.609 67.8679L254.609 78.707Z" fill="#AEAEB7"/>
<path d="M264.441 106.137L262.61 106.137L262.61 93.5788L264.441 94.2852L264.441 106.137Z" fill="#AEAEB7"/>
<path d="M264.441 119.852L262.61 119.852L262.61 107.294L264.441 107.825L264.441 119.852Z" fill="#AEAEB7"/>
<path d="M264.441 148.442L264.441 161L262.61 161L262.61 148.442L264.441 148.442Z" fill="#AEAEB7"/>
<path d="M264.441 147.283L262.61 147.283L262.61 134.725L264.441 134.903L264.441 147.283Z" fill="#AEAEB7"/>
<path d="M264.441 133.568L262.61 133.568L262.61 121.01L264.441 121.364L264.441 133.568Z" fill="#AEAEB7"/>
<path d="M264.441 37.5586L262.61 37.5586L262.61 25.0006L264.441 26.5887L264.441 37.5586Z" fill="#AEAEB7"/>
<path d="M264.441 51.2754L262.61 51.2754L262.61 38.7174L264.441 40.1276L264.441 51.2754Z" fill="#AEAEB7"/>
<path d="M264.441 78.707L262.61 78.707L262.61 66.1491L264.441 67.206L264.441 78.707Z" fill="#AEAEB7"/>
<path d="M264.441 92.4199L262.61 92.4199L262.61 79.862L264.441 80.7463L264.441 92.4199Z" fill="#AEAEB7"/>
<path d="M264.441 64.9883L262.61 64.9883L262.61 52.4303L264.441 53.6652L264.441 64.9883Z" fill="#AEAEB7"/>
<path d="M273.75 106.137L272.442 106.137L272.442 93.5788L273.75 94.2852L273.75 106.137Z" fill="#AEAEB7"/>
<path d="M273.75 119.852L272.442 119.852L272.442 107.294L273.75 107.825L273.75 119.852Z" fill="#AEAEB7"/>
<path d="M273.75 148.442L273.75 161L272.442 161L272.442 148.442L273.75 148.442Z" fill="#AEAEB7"/>
<path d="M273.75 147.283L272.442 147.283L272.442 134.725L273.75 134.903L273.75 147.283Z" fill="#AEAEB7"/>
<path d="M273.75 133.568L272.442 133.568L272.442 121.01L273.75 121.364L273.75 133.568Z" fill="#AEAEB7"/>
<path d="M273.75 37.5586L272.442 37.5586L272.442 25.0006L273.75 26.5887L273.75 37.5586Z" fill="#AEAEB7"/>
<path d="M273.75 51.2754L272.442 51.2754L272.442 38.7174L273.75 40.1276L273.75 51.2754Z" fill="#AEAEB7"/>
<path d="M273.75 78.707L272.442 78.707L272.442 66.1491L273.75 67.206L273.75 78.707Z" fill="#AEAEB7"/>
<path d="M273.75 92.4199L272.442 92.4199L272.442 79.862L273.75 80.7463L273.75 92.4199Z" fill="#AEAEB7"/>
<path d="M273.75 64.9883L272.442 64.9883L272.442 52.4303L273.75 53.6652L273.75 64.9883Z" fill="#AEAEB7"/>
<path d="M282.535 106.137L281.75 106.137L281.75 93.5788L282.535 94.2852L282.535 106.137Z" fill="#AEAEB7"/>
<path d="M282.535 119.852L281.75 119.852L281.75 107.294L282.535 107.825L282.535 119.852Z" fill="#AEAEB7"/>
<path d="M282.535 148.442L282.535 161L281.75 161L281.75 148.442L282.535 148.442Z" fill="#AEAEB7"/>
<path d="M282.535 147.283L281.75 147.283L281.75 134.725L282.535 134.903L282.535 147.283Z" fill="#AEAEB7"/>
<path d="M282.535 133.568L281.75 133.568L281.75 121.01L282.535 121.364L282.535 133.568Z" fill="#AEAEB7"/>
<path d="M282.535 37.5586L281.75 37.5586L281.75 25.0006L282.535 26.5887L282.535 37.5586Z" fill="#AEAEB7"/>
<path d="M282.535 51.2754L281.75 51.2754L281.75 38.7174L282.535 40.1276L282.535 51.2754Z" fill="#AEAEB7"/>
<path d="M282.535 78.707L281.75 78.707L281.75 66.1491L282.535 67.206L282.535 78.707Z" fill="#AEAEB7"/>
<path d="M282.535 92.4199L281.75 92.4199L281.75 79.862L282.535 80.7463L282.535 92.4199Z" fill="#AEAEB7"/>
<path d="M282.535 64.9883L281.75 64.9883L281.75 52.4303L282.535 53.6652L282.535 64.9883Z" fill="#AEAEB7"/>
<path d="M291.059 106.137L290.535 106.137L290.535 93.5788L291.059 94.2852L291.059 106.137Z" fill="#AEAEB7"/>
<path d="M291.059 119.852L290.535 119.852L290.535 107.294L291.059 107.825L291.059 119.852Z" fill="#AEAEB7"/>
<path d="M291.059 148.442L291.059 161L290.535 161L290.535 148.442L291.059 148.442Z" fill="#AEAEB7"/>
<path d="M291.059 147.283L290.535 147.283L290.535 134.725L291.059 134.903L291.059 147.283Z" fill="#AEAEB7"/>
<path d="M291.059 133.568L290.535 133.568L290.535 121.01L291.059 121.364L291.059 133.568Z" fill="#AEAEB7"/>
<path d="M291.059 37.5586L290.535 37.5586L290.535 25.0006L291.059 26.5887L291.059 37.5586Z" fill="#AEAEB7"/>
<path d="M291.059 51.2754L290.535 51.2754L290.535 38.7174L291.059 40.1276L291.059 51.2754Z" fill="#AEAEB7"/>
<path d="M291.059 78.707L290.535 78.707L290.535 66.1491L291.059 67.206L291.059 78.707Z" fill="#AEAEB7"/>
<path d="M291.059 92.4199L290.535 92.4199L290.535 79.862L291.059 80.7463L291.059 92.4199Z" fill="#AEAEB7"/>
<path d="M291.059 64.9883L290.535 64.9883L290.535 52.4303L291.059 53.6652L291.059 64.9883Z" fill="#AEAEB7"/>
</svg>
