<svg width="315" height="185" viewBox="0 0 315 185" fill="none" xmlns="http://www.w3.org/2000/svg">
<rect x="0.25" y="0.25" width="314" height="184.167" fill="#8A9F83"/>
<rect x="0.25" y="0.25" width="314" height="184.167" stroke="white" stroke-width="0.5"/>
<path d="M193 24V160" stroke="#DCDCE0" stroke-width="2.4456"/>
<path d="M211.544 24.002C211.544 28.9372 207 53.0606 207 57.9958C207 62.9311 211.544 87.0643 211.544 91.9995C211.544 96.9347 207 121.063 207 125.998C207 130.934 211.544 155.062 211.544 159.997" stroke="#DCDCE0" stroke-width="2.4456"/>
<path d="M234.127 24.002C234.127 33.3246 225.543 48.6732 225.543 57.9958C225.543 67.3185 234.127 82.6769 234.127 91.9995C234.127 101.322 225.543 116.676 225.543 125.998C225.543 135.321 234.127 150.674 234.127 159.997" stroke="#DCDCE0" stroke-width="2.4456"/>
<path d="M260.244 24.002C260.244 37.1642 248.129 44.8385 248.129 58.0007C248.129 71.163 260.244 78.8422 260.244 91.9995C260.244 105.157 248.129 112.841 248.129 125.998C248.129 139.161 260.244 146.84 260.244 159.997" stroke="#DCDCE0" stroke-width="2.4456"/>
<path d="M289.894 24.002C289.894 40.9989 274.242 40.9989 274.242 58.0007C274.242 75.0026 289.894 75.0026 289.894 91.9995C289.894 109.001 274.242 109.001 274.242 125.998C274.242 142.995 289.894 143 289.894 159.997" stroke="#DCDCE0" stroke-width="2.4456"/>
</svg>
