<svg width="169" height="28" viewBox="0 0 169 28" fill="none" xmlns="http://www.w3.org/2000/svg">
<g id="Group 1723">
<g id="Group 67">
<g id="Group 22">
<g id="Group 21">
<path id="Vector" d="M17.3289 27.8064C17.4533 27.9181 17.6399 28 17.7955 28C18.1377 28 22.3579 26.4735 22.4408 26.3246C22.4719 26.2576 22.503 25.0364 22.503 23.6142C22.503 21.3803 22.5238 21.008 22.669 20.8665C22.7623 20.7697 23.8718 20.3229 25.3131 19.8017C27.3039 19.0869 27.8224 18.8784 27.895 18.722C28.0401 18.4614 28.0298 9.54826 27.895 9.26531C27.8017 9.0717 27.4802 8.93767 25.2923 8.15582C23.3533 7.46332 22.7623 7.21759 22.6482 7.06122C22.5342 6.89741 22.503 6.35383 22.503 4.26145C22.503 1.87865 22.4927 1.65527 22.3164 1.55102C22.2231 1.48401 21.2276 1.10425 20.1181 0.709597C17.9821 -0.0648114 17.6192 -0.131824 17.2978 0.158579C17.1319 0.300057 17.1111 0.538334 17.1111 2.78709C17.1111 4.7529 17.1422 5.28902 17.2563 5.40072C17.3289 5.47518 18.5109 5.94429 19.8693 6.43574C21.7046 7.1059 22.3786 7.38141 22.4719 7.52289C22.5756 7.66437 22.5964 9.10893 22.5756 14.0458C22.5549 20.2708 22.5549 20.39 22.3475 20.5538C22.2334 20.6431 21.041 21.1197 19.693 21.6037C18.345 22.0877 17.2148 22.5345 17.1733 22.6015C17.1422 22.6685 17.1111 23.8227 17.1111 25.163C17.1111 27.5234 17.1215 27.6128 17.3289 27.8064Z" fill="#00E592"/>
<path id="Vector_2" d="M8.77418 27.8064C8.89861 27.9181 9.08525 28 9.24079 28C9.58297 28 13.8032 26.4735 13.8861 26.3246C13.9173 26.2576 13.9484 25.0364 13.9484 23.6142C13.9484 21.3803 13.9691 21.008 14.1143 20.8665C14.2076 20.7697 15.3171 20.3229 16.7584 19.8017C18.7493 19.0869 19.2677 18.8784 19.3403 18.722C19.4855 18.4614 19.4751 9.54826 19.3403 9.26531C19.247 9.0717 18.9255 8.93767 16.7376 8.15582C14.7986 7.46332 14.2076 7.21759 14.0935 7.06122C13.9795 6.89741 13.9484 6.35383 13.9484 4.26145C13.9484 1.87865 13.938 1.65527 13.7617 1.55102C13.6684 1.48401 12.673 1.10425 11.5635 0.709597C9.42743 -0.0648114 9.06451 -0.131824 8.74307 0.158579C8.57716 0.300057 8.55642 0.538334 8.55642 2.78709C8.55642 4.7529 8.58753 5.28902 8.70159 5.40072C8.77418 5.47518 9.95625 5.94429 11.3146 6.43574C13.1499 7.1059 13.8239 7.38141 13.9172 7.52289C14.0209 7.66437 14.0417 9.10893 14.0209 14.0458C14.0002 20.2708 14.0002 20.39 13.7928 20.5538C13.6788 20.6431 12.4863 21.1197 11.1383 21.6037C9.79035 22.0877 8.66012 22.5345 8.61864 22.6015C8.58753 22.6685 8.55643 23.8227 8.55643 25.163C8.55643 27.5234 8.56679 27.6128 8.77418 27.8064Z" fill="#00E592"/>
<path id="Vector_3" d="M0.219489 27.8064C0.343918 27.9181 0.530561 28 0.686098 28C1.02828 28 5.2485 26.4735 5.33146 26.3246C5.36256 26.2576 5.39367 25.0364 5.39367 23.6142C5.39367 21.3803 5.41441 21.008 5.55958 20.8665C5.6529 20.7697 6.76239 20.3229 8.2037 19.8017C10.1946 19.0869 10.713 18.8784 10.7856 18.722C10.9308 18.4614 10.9204 9.54826 10.7856 9.26531C10.6923 9.0717 10.3708 8.93767 8.18296 8.15582C6.24393 7.46332 5.6529 7.21759 5.53884 7.06122C5.42478 6.89741 5.39367 6.35383 5.39367 4.26145C5.39367 1.87865 5.3833 1.65527 5.20702 1.55102C5.1137 1.48401 4.11827 1.10425 3.00877 0.709597C0.87274 -0.0648114 0.509823 -0.131824 0.18838 0.158579C0.0224754 0.300057 0.0017368 0.538334 0.00173695 2.78709C0.00173707 4.7529 0.0328441 5.28902 0.146904 5.40072C0.219488 5.47518 1.40157 5.94429 2.75992 6.43574C4.59525 7.1059 5.26924 7.38141 5.36256 7.52289C5.46625 7.66437 5.48699 9.10893 5.46625 14.0458C5.44551 20.2708 5.44551 20.39 5.23813 20.5538C5.12407 20.6431 3.93163 21.1197 2.58364 21.6037C1.23566 22.0877 0.105428 22.5345 0.0639521 22.6015C0.0328452 22.6685 0.00173828 23.8227 0.00173837 25.163C0.00173852 27.5234 0.0121069 27.6128 0.219489 27.8064Z" fill="#00E592"/>
</g>
</g>
</g>
<g id="Group 62">
<g id="TM">
<path d="M160.609 4.46875V5.29166H161.588V8.35764H162.476V5.29166H163.454V4.46875H160.609Z" fill="black"/>
<path d="M166.185 6.99254L165.12 4.46875H163.974V8.35764H164.863V5.97422L165.875 8.35764H166.481L167.501 5.96321V8.35764H168.387V4.46875H167.255L166.185 6.99254Z" fill="black"/>
</g>
</g>
<g id="Mobilhub">
<path d="M47.8584 16.6791L42.7901 4.63299H37.3359V23.1948H41.5662V11.8186L46.3818 23.1948H49.2685L54.124 11.7661V23.1948H58.3409V4.63299H52.9533L47.8584 16.6791Z" fill="black"/>
<path d="M73.7322 21.4608C75.1556 20.0815 75.8739 18.3737 75.8739 16.3244C75.8739 14.2883 75.1556 12.5805 73.7322 11.2012C72.3088 9.83502 70.5262 9.15193 68.3845 9.15193C66.2428 9.15193 64.4469 9.83502 63.0235 11.2012C61.6001 12.5805 60.8818 14.2883 60.8818 16.3244C60.8818 18.3737 61.6001 20.0815 63.0235 21.4608C64.4469 22.8401 66.2428 23.5232 68.3845 23.5232C70.5262 23.5232 72.3088 22.8401 73.7322 21.4608ZM65.9501 18.7547C65.2983 18.111 64.979 17.2965 64.979 16.3244C64.979 15.3655 65.2983 14.551 65.9501 13.9073C66.5886 13.2636 67.4001 12.9484 68.3845 12.9484C69.3556 12.9484 70.1671 13.2636 70.8189 13.9073C71.4707 14.551 71.79 15.3655 71.79 16.3244C71.79 17.2965 71.4707 18.111 70.8189 18.7547C70.1671 19.3984 69.3556 19.7268 68.3845 19.7268C67.4001 19.7268 66.5886 19.3984 65.9501 18.7547Z" fill="black"/>
<path d="M86.3964 9.15193C84.707 9.15193 83.3102 9.76934 82.206 11.0042V4.46766H78.2285V23.1948H82.206V21.6578C83.3102 22.9058 84.707 23.5232 86.3964 23.5232C88.3253 23.5232 89.9216 22.8401 91.1987 21.4608C92.4624 20.0815 93.101 18.3737 93.101 16.3244C93.101 14.2883 92.4624 12.5805 91.1987 11.2012C89.9216 9.83502 88.3253 9.15193 86.3964 9.15193ZM83.1771 18.7547C82.5253 18.111 82.206 17.2965 82.206 16.3244C82.206 15.3655 82.5253 14.551 83.1771 13.9073C83.8157 13.2636 84.6271 12.9484 85.6115 12.9484C86.5826 12.9484 87.3941 13.2636 88.0459 13.9073C88.6978 14.551 89.017 15.3655 89.017 16.3244C89.017 17.2965 88.6978 18.111 88.0459 18.7547C87.3941 19.3984 86.5826 19.7268 85.6115 19.7268C84.6271 19.7268 83.8157 19.3984 83.1771 18.7547Z" fill="black"/>
<path d="M97.4776 7.72005C98.1826 7.72005 98.7812 7.49673 99.2601 7.03696C99.7257 6.57718 99.9652 5.99918 99.9652 5.30295C99.9652 4.61985 99.7257 4.05498 99.2601 3.59521C98.7812 3.13543 98.1826 2.91211 97.4776 2.91211C96.7858 2.91211 96.2005 3.13543 95.7349 3.59521C95.2693 4.05498 95.0299 4.61985 95.0299 5.30295C95.0299 5.99918 95.2693 6.57718 95.7349 7.03696C96.2005 7.49673 96.7858 7.72005 97.4776 7.72005ZM99.473 23.1948V9.48034H95.4955V23.1948H99.473Z" fill="black"/>
<path d="M106.603 23.1948V4.46766H102.626V23.1948H106.603Z" fill="black"/>
<path d="M117.95 9.15193C116.221 9.15193 114.811 9.79561 113.734 11.083V4.46766H109.756V23.1948H113.734V15.7464C113.734 14.8926 114 14.2226 114.545 13.7103C115.077 13.198 115.769 12.9484 116.62 12.9484C117.418 12.9484 118.07 13.198 118.562 13.6971C119.055 14.2095 119.294 14.8663 119.294 15.6939V23.1948H123.272V14.3671C123.272 12.7907 122.779 11.5296 121.808 10.5707C120.837 9.62484 119.547 9.15193 117.95 9.15193Z" fill="black"/>
<path d="M135.557 17.1126C135.557 17.8877 135.304 18.5051 134.812 18.9911C134.307 19.4772 133.655 19.7268 132.857 19.7268C131.367 19.7268 130.369 18.7021 130.369 17.1652V9.48034H126.391V18.3475C126.391 19.9107 126.857 21.1718 127.802 22.1045C128.733 23.0503 129.97 23.5232 131.513 23.5232C133.189 23.5101 134.533 22.9058 135.557 21.6841V23.1948H139.535V9.48034H135.557V17.1126Z" fill="black"/>
<path d="M150.855 9.15193C149.166 9.15193 147.769 9.76934 146.665 11.0042V4.46766H142.687V23.1948H146.665V21.6578C147.769 22.9058 149.166 23.5232 150.855 23.5232C152.784 23.5232 154.38 22.8401 155.657 21.4608C156.921 20.0815 157.56 18.3737 157.56 16.3244C157.56 14.2883 156.921 12.5805 155.657 11.2012C154.38 9.83502 152.784 9.15193 150.855 9.15193ZM147.636 18.7547C146.984 18.111 146.665 17.2965 146.665 16.3244C146.665 15.3655 146.984 14.551 147.636 13.9073C148.274 13.2636 149.086 12.9484 150.07 12.9484C151.041 12.9484 151.853 13.2636 152.505 13.9073C153.157 14.551 153.476 15.3655 153.476 16.3244C153.476 17.2965 153.157 18.111 152.505 18.7547C151.853 19.3984 151.041 19.7268 150.07 19.7268C149.086 19.7268 148.274 19.3984 147.636 18.7547Z" fill="black"/>
</g>
</g>
</svg>
