<svg width="97" height="48" viewBox="0 0 97 48" fill="none" xmlns="http://www.w3.org/2000/svg">
<path d="M95.1435 20.2152C95.1435 19.8061 94.8871 19.5334 94.4648 19.5334L93.6352 19.5504L93.6503 21.6301H94.1028V20.9141H94.3743L94.7664 21.6301H95.2943L94.8268 20.8289C95.0229 20.7096 95.1435 20.4709 95.1435 20.2152ZM94.3743 20.488H94.0877V19.9595H94.4195C94.5402 19.9425 94.6609 20.0448 94.676 20.1811V20.1982C94.676 20.3686 94.5553 20.488 94.4045 20.488C94.3894 20.488 94.3894 20.488 94.3743 20.488ZM27.467 29.8295C26.6977 29.8295 26.1698 29.1477 26.1698 28.1419V23.5564H29.3372V20.3175H26.1849L26.1548 16.6013H22.6555L22.6857 28.9772C22.6857 31.4831 24.1638 33.1877 26.3358 33.1877C27.482 33.1877 28.568 33.0002 29.4277 32.557V29.4034C28.8093 29.7273 28.1457 29.8636 27.467 29.8295ZM35.8228 20.1129C32.565 20.1129 30.0612 22.9768 30.0612 26.7782C30.0612 30.5455 32.565 33.1707 36.0189 33.1707C37.9646 33.1707 39.7896 32.3865 40.9057 30.7671L38.221 29.3863C37.678 29.9489 36.8485 30.1705 36.1094 30.1705C34.9028 30.1705 33.6962 29.4716 33.5303 28.0396H41.5392C41.6599 27.5282 41.7202 26.9998 41.7202 26.4714C41.7202 22.5677 39.2014 20.1129 35.8228 20.1129ZM33.5303 25.5338C33.6358 23.8291 34.7218 23.045 35.9133 23.045C37.2557 23.045 38.2663 23.8973 38.2663 25.3633V25.5338H33.5303ZM19.3222 29.8295C18.553 29.8295 18.0251 29.1477 18.0251 28.1419V23.5564H21.1925V20.3175H18.0402L18.01 16.6013H14.5108L14.541 28.9772C14.541 31.4831 16.0191 33.1877 18.191 33.1877C19.3373 33.1877 20.4233 33.0002 21.283 32.557V29.4034C20.6646 29.7273 20.001 29.8636 19.3222 29.8295ZM7.02976 20.1129C4.02828 20.1129 0.875977 22.3461 0.875977 26.8464C0.875977 30.5966 3.10823 33.2218 5.92872 33.2218C7.54258 33.2218 8.76429 32.4888 9.56367 31.1933L9.66925 33.0002H13.0478V26.9998C13.0629 22.4313 10.0765 20.1129 7.02976 20.1129ZM7.02976 29.7614C5.5064 29.7614 4.40535 28.4829 4.40535 26.6759C4.40535 24.869 5.49132 23.5905 7.02976 23.5905C8.44755 23.5905 9.624 24.9883 9.624 26.6759C9.624 28.3635 8.44755 29.7614 7.02976 29.7614ZM94.2989 18.5958C93.1978 18.6128 92.4889 19.414 92.504 20.6073C92.5191 21.8006 93.2431 22.5847 94.3441 22.5677C95.415 22.5506 96.139 21.7494 96.1239 20.5391C96.1088 19.3288 95.3848 18.5787 94.2989 18.5958ZM94.3441 22.2267C93.4844 22.2438 92.8962 21.596 92.8962 20.6073C92.8962 19.6186 93.4542 18.9538 94.314 18.9367C95.1737 18.9197 95.7468 19.5675 95.7619 20.5732C95.7619 21.5449 95.1888 22.2097 94.3441 22.2267ZM77.195 20.3346L74.7516 28.3465L72.278 20.3346H68.4771L73.0321 32.9832H76.4408L80.9958 20.3346H77.195ZM86.2597 20.1129C83.0019 20.1129 80.4981 22.9768 80.4981 26.7782C80.4981 30.5455 83.0019 33.1707 86.4558 33.1707C88.4015 33.1707 90.2265 32.3865 91.3426 30.7671L88.6579 29.3863C88.1149 29.9489 87.2854 30.1705 86.5463 30.1705C85.3397 30.1705 84.1331 29.4716 83.9672 28.0396H91.9761C92.0968 27.5282 92.1571 26.9998 92.1571 26.4714C92.1571 22.5677 89.6383 20.1129 86.2597 20.1129ZM88.7032 25.5338H83.9672C84.0727 23.8291 85.1587 23.045 86.3502 23.045C87.6926 23.045 88.7032 23.8973 88.7032 25.3633V25.5338ZM65.7773 14.7773C64.5405 14.7773 63.6054 15.7149 63.6054 17.0275C63.6054 18.3401 64.5405 19.3118 65.7773 19.3118C67.0141 19.3118 67.9492 18.3571 67.9492 17.0275C67.9492 15.6979 67.0292 14.7773 65.7773 14.7773ZM49.8951 20.0959C48.4622 20.0618 47.1048 20.8971 46.3506 22.2779L46.23 20.3346H42.8514V32.9832H46.3506V26.352C46.4261 24.7667 47.5573 23.5564 48.7941 23.5564C50.1817 23.5564 50.8151 24.7326 50.8151 26.2157V32.9661H54.2993V25.602C54.2993 22.3972 52.5798 20.0959 49.8951 20.0959ZM60.5737 29.8295C59.8045 29.8295 59.2766 29.1477 59.2766 28.1419V23.5564H62.444V20.3175H59.2766L59.2464 16.6013H55.7472L55.7774 28.9772C55.7774 31.4831 57.2555 33.1877 59.4274 33.1877C60.5737 33.1877 61.6597 33.0002 62.5194 32.557V29.4034C61.9161 29.7273 61.2524 29.8636 60.5737 29.8295ZM64.0126 20.3346V32.9832H67.542V20.3346C66.4711 21.1358 65.0835 21.1358 64.0126 20.3346Z" fill="black"/>
</svg>
