<svg width="113" height="48" viewBox="0 0 113 48" fill="none" xmlns="http://www.w3.org/2000/svg">
<path fill-rule="evenodd" clip-rule="evenodd" d="M22.8111 23.9998C22.8111 30.1888 17.8001 35.1998 11.6111 35.1998C5.42215 35.1998 0.411133 30.1888 0.411133 23.9998C0.411133 17.8108 5.42215 12.7998 11.6111 12.7998C17.8001 12.7998 22.8111 17.8108 22.8111 23.9998ZM7.14235 28.4312H12.6956C12.7891 28.4312 12.8265 28.319 12.7891 28.2442L8.30162 22.691C8.22682 22.6162 8.13334 22.6536 8.11464 22.7284L7.03016 28.2816C7.01147 28.3751 7.06756 28.4312 7.14235 28.4312ZM7.03016 20.0546H12.5834C12.6582 20.0546 12.7143 20.1294 12.6956 20.1854L11.6111 25.7387C11.5924 25.8322 11.4802 25.8509 11.4242 25.7761L6.93667 20.2041C6.89928 20.1481 6.93667 20.0546 7.03016 20.0546ZM13.1444 20.1294C13.1631 20.092 13.2004 20.0359 13.2565 20.0359H17.2579C17.3327 20.0359 17.3888 20.1107 17.3701 20.1668L16.6221 23.7754C16.6035 23.8315 16.5661 23.8689 16.51 23.8689H16.3978C14.4345 23.8689 12.8639 22.0552 13.1444 20.1294ZM31.0756 19.2693H35.0769C35.2639 19.2693 35.3948 19.3814 35.3387 19.5871L35.1143 20.8773C35.8996 19.7367 37.0402 19.0449 38.2181 19.0449C38.7978 19.0449 39.4148 19.2693 39.7514 19.5871C39.9383 19.7741 39.9383 19.8863 39.8075 20.0733L38.6482 21.7187C38.4986 21.9243 38.4051 21.9056 38.162 21.7935C37.9377 21.7 37.6385 21.6065 37.3393 21.6065C35.9557 21.6065 34.7777 22.5227 34.2355 25.29L33.4315 29.4596C33.3754 29.74 33.1697 29.7961 33.0575 29.7961H30.9447C30.7764 29.7961 30.6268 29.6465 30.6829 29.4596L32.2535 21.4382L30.926 19.5684C30.8138 19.4188 30.8886 19.2693 31.0756 19.2693ZM38.723 24.4486C39.2652 21.1951 41.6585 19.0449 44.7624 19.0449C47.9223 19.0449 49.4181 21.5691 48.9694 24.299C48.8572 25.0095 48.6141 25.5704 48.0345 25.5704H41.3033C41.3594 27.1036 42.4251 27.8329 43.8462 27.8329C44.7811 27.8329 45.6599 27.4776 46.3143 27.0476C46.4826 26.9167 46.6696 26.8606 46.7817 27.0476L47.5484 28.2442C47.6792 28.4312 47.6045 28.5621 47.4175 28.7304C46.4265 29.6465 44.7998 30.0579 43.3226 30.0579C40.0131 30.0579 38.2181 27.6085 38.723 24.4486ZM46.5574 23.738C46.6509 22.0926 45.529 21.4008 44.4632 21.4008C43.0422 21.4008 41.9577 22.3544 41.5277 23.738H46.5574ZM59.0288 29.5344L61.4408 17.2312L60.2629 15.6606C60.2068 15.5484 60.2816 15.4175 60.4312 15.4175H64.1333C64.339 15.4175 64.4512 15.5484 64.3951 15.7354L63.3106 21.1577C64.1333 19.905 65.3861 19.0636 66.8445 19.0636C69.1817 19.0636 70.5093 21.0642 70.0044 23.5137L68.8078 29.4783C68.7704 29.7026 68.5834 29.8148 68.4338 29.8148H66.2462C66.0405 29.8148 65.9283 29.6839 65.9657 29.4783L67.0502 24.0933C67.3307 22.6349 66.938 21.7374 66.0592 21.7374C64.3951 21.7374 63.0862 23.6072 62.5253 26.2435L61.8148 29.5531C61.7961 29.6839 61.6839 29.7961 61.5343 29.7961H59.2345C59.1036 29.7774 59.0101 29.6652 59.0288 29.5344ZM70.7523 24.5607C71.2946 21.0829 73.744 19.0262 76.6048 19.0262C78.1193 19.0262 79.2973 19.718 79.7647 20.8586L80.0078 19.5871C80.0452 19.3627 80.2135 19.2506 80.4004 19.2506H82.4198C82.6442 19.2506 82.7377 19.4001 82.6816 19.5871L80.7557 29.4596C80.7183 29.6465 80.5874 29.7774 80.363 29.7774H78.325C78.138 29.7774 78.0445 29.6652 78.0819 29.4596L78.2689 28.4312C77.3153 29.5157 76.1373 30.0579 74.8472 30.0579C71.9116 30.0766 70.2662 27.6459 70.7523 24.5607ZM75.6699 27.5524C77.3527 27.5524 78.6054 26.1314 78.8485 24.4859C79.0916 22.8218 78.1941 21.5691 76.6422 21.5691C74.9781 21.5691 73.7814 22.9153 73.5009 24.5046C73.2392 26.1127 74.0432 27.5524 75.6699 27.5524ZM82.0645 29.4409L84.0278 19.531C84.0652 19.3627 84.1587 19.2693 84.2709 19.2693H86.4772C86.6642 19.2693 86.7951 19.3814 86.739 19.5871L86.5146 20.8773C87.2999 19.7367 88.4405 19.0449 89.5998 19.0449C90.1794 19.0449 90.8151 19.2693 91.133 19.5871C91.32 19.7741 91.32 19.8863 91.1891 20.0733L90.0298 21.7187C89.8802 21.9243 89.768 21.9056 89.5437 21.7935C89.3193 21.7 89.0201 21.6065 88.7023 21.6065C87.3186 21.6065 86.1407 22.5227 85.6171 25.29L84.8131 29.4596C84.757 29.74 84.5327 29.7961 84.4392 29.7961H82.3263C82.1767 29.7774 82.0271 29.6278 82.0645 29.4409ZM89.3193 32.7878C89.1884 32.6943 89.1884 32.526 89.2819 32.3764L90.2542 30.8432C90.3664 30.6749 90.516 30.6375 90.6468 30.731C91.6004 31.3294 92.5353 31.7033 93.6759 31.7033C95.6766 31.7033 97.3407 30.8993 97.9203 28.2068C96.8171 29.2352 95.8074 29.74 94.2555 29.74C91.2452 29.74 89.6746 27.2158 90.1607 24.3738C90.7216 21.1764 93.115 19.0075 96.1253 19.0075C97.7894 19.0075 98.93 19.9424 99.2852 20.709L99.5283 19.5684C99.5657 19.344 99.7153 19.2319 99.8836 19.2319H101.922C102.127 19.2319 102.239 19.3627 102.202 19.5684L100.501 28.2629C99.7527 32.0399 97.135 34.0218 93.5824 34.0218C92.0866 34.0405 90.4038 33.6666 89.3193 32.7878ZM95.0595 27.328C96.7423 27.328 97.9951 25.9818 98.2382 24.3738C98.4812 22.7658 97.6024 21.5691 96.0318 21.5691C94.3677 21.5691 93.171 22.8779 92.8906 24.3925C92.6288 25.9444 93.4328 27.328 95.0595 27.328ZM102.277 24.4486C102.819 21.1951 105.212 19.0449 108.316 19.0449C111.476 19.0449 112.972 21.5691 112.505 24.299C112.411 25.0095 112.149 25.5704 111.57 25.5704H104.838C104.895 27.1036 105.96 27.8329 107.381 27.8329C108.316 27.8329 109.195 27.4776 109.85 27.0476C110.018 26.9167 110.205 26.8606 110.317 27.0476L111.084 28.2442C111.214 28.4312 111.14 28.5621 110.953 28.7304C109.962 29.6465 108.335 30.0579 106.858 30.0579C103.567 30.0579 101.772 27.6085 102.277 24.4486ZM110.111 23.738C110.205 22.0926 109.083 21.4008 108.017 21.4008C106.596 21.4008 105.512 22.3544 105.082 23.738H110.111ZM54.3731 30.0766C55.7754 30.0766 57.1403 29.6839 58.3931 28.506C58.5801 28.3377 58.5988 28.1133 58.4679 27.9824L57.3273 26.711C57.2151 26.5801 57.0468 26.5801 56.916 26.6923C56.4298 27.0476 55.6632 27.4589 54.747 27.4589C53.1016 27.4589 52.1854 26.1688 52.3911 24.5607C52.5968 22.9527 53.8682 21.6626 55.4762 21.6626C56.355 21.6626 56.916 21.9804 57.533 22.5975C57.7013 22.7658 57.7948 22.7657 57.9817 22.6162L59.4589 21.3447C59.6084 21.2138 59.6458 21.0829 59.5337 20.9147C58.6362 19.6432 57.2525 19.0449 55.7193 19.0449C52.6155 19.0449 50.11 21.3447 49.6986 24.4112C49.2499 27.7207 51.4562 30.0766 54.3731 30.0766Z" fill="black"/>
</svg>
