<svg width="47" height="48" viewBox="0 0 47 48" fill="none" xmlns="http://www.w3.org/2000/svg">
<path d="M12.0572 10.5833C9.7848 13.9095 10.0678 18.2366 11.7991 21.7667L11.9264 22.0183L12.0125 22.1775C12.0284 22.2085 12.0469 22.239 12.0632 22.2691C12.0933 22.325 12.1234 22.3788 12.1492 22.4339L12.3148 22.7233L12.4095 22.8825L12.6017 23.1887L12.6878 23.3178C12.7738 23.4554 12.871 23.5922 12.9665 23.7273C12.9686 23.7307 12.9717 23.7346 12.9742 23.738C12.9893 23.7595 13.0061 23.781 13.0172 23.8025C13.0998 23.9187 13.1893 24.0331 13.2753 24.1466L13.3708 24.2705L13.6052 24.5639L13.6947 24.6731C13.8013 24.8019 13.9103 24.9286 14.0216 25.0534L14.0285 25.0602C14.0328 25.0658 14.0371 25.0688 14.0414 25.0744C14.1492 25.1961 14.2599 25.3151 14.3735 25.4314L14.4801 25.5407L14.7455 25.8057L14.8539 25.9106C14.9732 26.0249 15.0944 26.1372 15.2174 26.2474L15.2862 26.3076L15.6161 26.5915L15.7529 26.7025L16.0282 26.9176L16.1753 27.0315L16.5959 27.3391C16.6067 27.3464 16.6162 27.3541 16.6269 27.3614C16.7258 27.4303 16.8261 27.4969 16.9267 27.5636L17.0566 27.6518L17.5263 27.9443L17.6562 28.0187L18.0089 28.22C18.0735 28.2553 18.1393 28.2888 18.2038 28.3224L18.4558 28.4514L18.5139 28.4798L18.6171 28.5306L19.0172 28.7189L19.1019 28.762C19.2561 28.8305 19.4116 28.8964 19.5682 28.9594L19.6817 29.005L20.1217 29.171L20.1768 29.1908C20.3393 29.2481 20.5028 29.3026 20.6672 29.3543L20.7854 29.3904C20.9575 29.442 21.1188 29.5035 21.2917 29.5366C32.2807 31.5823 35.4736 22.8154 35.4736 22.8154C32.7926 26.3726 28.034 27.3103 23.5254 26.2663C23.3546 26.2233 23.189 26.173 23.0221 26.1227L22.8965 26.0797C22.7339 26.0289 22.5722 25.9751 22.4122 25.9192L22.3455 25.8947C22.2023 25.8431 22.06 25.7893 21.9184 25.7334L21.798 25.6852C21.6431 25.623 21.4894 25.5579 21.3369 25.4899L21.2448 25.4487L20.856 25.2637L20.7441 25.2086C20.6431 25.1579 20.5428 25.1058 20.4431 25.0525L20.2422 24.945C20.1208 24.8784 20.0006 24.8098 19.8817 24.7389L19.76 24.6701C19.6017 24.5755 19.4451 24.4765 19.2903 24.3776C19.2473 24.3497 19.206 24.32 19.1634 24.2916L18.8292 24.0653L18.7217 23.9879L18.4055 23.7556L18.2653 23.6481L17.9801 23.421L17.8528 23.3178L17.4979 23.0167C17.4859 23.0059 17.4721 22.9952 17.4549 22.9836C17.3285 22.8704 17.2042 22.7543 17.0816 22.6377L16.9766 22.5345L16.7082 22.267L16.6033 22.1594C16.4915 22.0433 16.3818 21.9251 16.2742 21.805C16.269 21.799 16.263 21.7934 16.2579 21.7878C16.1442 21.6609 16.0329 21.5318 15.9241 21.4007L15.8368 21.2949L15.5959 20.9925L15.5077 20.8806L15.2303 20.5043C12.7269 17.0267 11.8322 12.2307 13.828 8.29152M19.1114 7.78052C17.4683 10.1893 17.5573 13.4127 18.8391 15.9599C19.0535 16.3876 19.2963 16.8005 19.566 17.1957C19.812 17.5549 20.0852 17.9828 20.4121 18.271C20.5304 18.4001 20.6542 18.5291 20.7807 18.6607C20.8125 18.6938 20.8452 18.7252 20.8779 18.7584C21.0007 18.8802 21.1263 18.9991 21.2547 19.1149C21.2599 19.1193 21.2646 19.1244 21.2702 19.1287C21.4148 19.2572 21.5627 19.382 21.7137 19.5029L21.8135 19.5821C21.9638 19.7003 22.1173 19.8144 22.2737 19.9245C22.2779 19.9279 22.2822 19.9312 22.2866 19.9344C22.3554 19.983 22.4264 20.029 22.4965 20.0754C22.5301 20.0978 22.5619 20.1215 22.5954 20.1425C22.7076 20.216 22.8213 20.2869 22.9365 20.3555L22.9847 20.3838L23.2858 20.5559C23.3211 20.5761 23.3572 20.5937 23.3933 20.6127L23.6084 20.7236C23.6192 20.7292 23.6299 20.7335 23.6402 20.7387C23.7852 20.8118 23.931 20.8806 24.0803 20.9473C24.1121 20.9615 24.1448 20.9744 24.1775 20.9882C24.2966 21.0398 24.417 21.0897 24.5388 21.1374L24.6936 21.1951C24.8034 21.2359 24.9138 21.2751 25.0248 21.3125L25.1745 21.3611C25.3324 21.4114 25.4885 21.4742 25.6532 21.5022C34.1376 22.9337 36.0969 16.2804 36.0969 16.2804C34.3312 18.8698 30.912 20.106 27.2628 19.1416C27.1014 19.0987 26.9412 19.0514 26.7823 18.9997C26.7337 18.9846 26.686 18.9687 26.6378 18.9567C26.5251 18.9195 26.4131 18.8802 26.3019 18.8388L26.1501 18.7812C26.0283 18.7382 25.9079 18.6844 25.7887 18.6328C25.756 18.6186 25.7234 18.6057 25.6911 18.5906C25.5414 18.5251 25.3937 18.4553 25.2481 18.3811C25.1732 18.3437 25.0997 18.3046 25.0261 18.2659L24.8979 18.1988C24.8033 18.1468 24.7097 18.093 24.6171 18.0375L24.55 17.9945C24.4354 17.926 24.3221 17.8554 24.2102 17.7828C24.1757 17.7605 24.1422 17.7398 24.1078 17.7131L23.8876 17.5647C23.732 17.4546 23.5791 17.3407 23.429 17.2232L23.3258 17.1406C21.7287 15.8563 20.4624 14.1013 19.8607 12.1111C19.2297 10.0465 19.366 7.7302 20.4628 5.85009M25.0429 5.68664C24.0742 7.13877 23.9792 8.94188 24.6558 10.5454C25.3646 12.2475 26.8172 13.583 28.5123 14.2157C28.582 14.2424 28.6521 14.2661 28.7274 14.2902L28.8203 14.3203C28.9201 14.3521 29.0195 14.3891 29.1223 14.4089C33.8073 15.3306 35.0779 11.9606 35.416 11.4646C34.3028 13.097 32.4321 13.4888 30.1369 12.9215C29.9563 12.8763 29.7563 12.8096 29.5778 12.7468C29.3532 12.6656 29.1331 12.5724 28.9184 12.4677C28.5099 12.2674 28.1226 12.0266 27.7622 11.7489C25.704 10.1617 24.4278 7.13447 25.7681 4.66895" fill="black"/>
<path d="M24.0218 33.934H22.5679C22.4871 33.934 22.4071 33.9985 22.3899 34.0777L21.3575 38.8552C21.3403 38.9339 21.2603 38.9984 21.1799 38.9984H20.1506C19.132 38.9984 19.2499 38.2943 19.4624 37.3295L19.4688 37.3002L19.5923 36.6421L19.6456 36.3712L20.1153 34.0777C20.1317 33.9985 20.0787 33.9336 19.9979 33.9336H18.5053C18.4642 33.935 18.4246 33.9498 18.3926 33.9757C18.3607 34.0016 18.338 34.0373 18.3281 34.0773L17.6558 37.2663C17.2859 38.9541 17.384 40.5637 19.3935 40.614L19.4516 40.6153H22.6053C22.6862 40.6153 22.7658 40.5508 22.783 40.4716L24.1431 34.0773C24.1603 33.9981 24.1074 33.9336 24.0269 33.9336L24.0218 33.934ZM29.823 39.0152C29.9038 39.0152 29.952 39.0797 29.9404 39.1588L29.7993 39.8492" fill="black"/>
<path d="M25.9308 38.1285C25.9295 38.0528 26.0155 37.9229 26.0964 37.9229L25.9149 37.9199C25.8288 38.7432 25.9308 38.1285 25.9308 38.1285ZM29.8205 39.0172C29.9013 39.0172 29.9495 39.0817 29.9379 39.1609L29.7736 39.9635" fill="black"/>
<path d="M27.1198 40.6973H27.0518H27.1284H27.1198ZM5.74305 38.1431L5.96887 37.1418L5.71079 38.2859L5.68068 38.4296L5.74348 38.1423L5.74305 38.1431ZM8.44686 33.9171H6.84978C6.80851 33.9187 6.76884 33.9335 6.73657 33.9592C6.7043 33.985 6.68112 34.0204 6.67041 34.0603L6.3676 35.3937C6.36251 35.411 6.36166 35.4292 6.36512 35.4469C6.36859 35.4645 6.37626 35.4811 6.38749 35.4951C6.39872 35.5092 6.41318 35.5203 6.42963 35.5276C6.44609 35.5349 6.46406 35.5381 6.48201 35.537H8.09157C8.17244 35.537 8.25244 35.4724 8.26965 35.3937L8.56214 34.0573C8.57934 33.9786 8.52773 33.9141 8.446 33.9141L8.44686 33.9171ZM3.4599 43.3211L4.77697 43.3314C4.38813 43.3314 3.74594 43.3241 3.45947 43.3206L3.4599 43.3211Z" fill="black"/>
<path d="M7.98267 35.9974H6.37268C6.33141 35.999 6.29175 36.0138 6.25947 36.0396C6.2272 36.0653 6.20402 36.1008 6.19332 36.1406L5.74168 38.1433L5.67888 38.4307L5.24874 40.4751C5.22743 40.5705 5.2016 40.6648 5.17132 40.7577C5.17132 40.7577 4.87023 41.6524 4.36525 41.6425L3.86415 41.633C3.82304 41.6342 3.78338 41.6484 3.7509 41.6736C3.71841 41.6988 3.69481 41.7337 3.68349 41.7732L3.35014 43.1768C3.34487 43.1939 3.34381 43.2121 3.34705 43.2297C3.35028 43.2474 3.35772 43.264 3.36873 43.2782C3.37974 43.2923 3.394 43.3037 3.4103 43.3112C3.42661 43.3187 3.44448 43.3221 3.4624 43.3213L4.7799 43.332C6.04277 43.332 6.70818 42.6322 7.13531 40.6192L8.1031 36.1458C8.12031 36.0671 8.06783 36.0026 7.98697 36.0026L7.98267 35.9974ZM30.8494 40.6162C30.7685 40.6162 30.7203 40.5517 30.7332 40.4725L31.9441 34.8008" fill="black"/>
<path d="M30.7518 40.5444C30.7419 40.5048 30.7475 40.4081 30.7647 40.3294L31.3394 37.6367L30.7337 40.4726C30.7165 40.5517 30.769 40.6163 30.8499 40.6163H30.997C30.9161 40.6163 30.7613 40.584 30.7518 40.5444ZM32.4379 40.584C32.394 40.6012 32.2917 40.6163 32.2108 40.6163H32.3579C32.399 40.6146 32.4384 40.5997 32.4702 40.5737C32.502 40.5477 32.5245 40.5121 32.5343 40.4722L32.5635 40.3285C32.5476 40.4076 32.4775 40.5664 32.4345 40.584H32.4379ZM37.5556 35.1807L37.6223 35.4559C37.6408 35.5347 37.5896 35.5988 37.5092 35.5992" fill="black"/>
<path d="M32.9932 38.1938L33.0525 37.9082L33.2835 36.8264L33.022 38.0514L32.9932 38.1938ZM31.9639 34.708L31.9135 34.9446L31.3389 37.6372L31.9445 34.8013L31.9639 34.7084V34.708Z" fill="black"/>
<path d="M37.6231 35.4566L37.5564 35.1813L37.4575 34.7512C37.3268 34.2436 36.9431 33.9498 36.1095 33.9498L32.2727 33.9473C32.2316 33.9487 32.192 33.9635 32.16 33.9894C32.128 34.0153 32.1054 34.051 32.0955 34.0909L32.0361 34.3718L31.9501 34.7963L30.7698 40.3248C30.7526 40.404 30.747 40.4969 30.7569 40.5399C30.7668 40.5829 30.9216 40.6117 31.0021 40.6117H32.2151C32.2959 40.6117 32.3979 40.5971 32.4422 40.5795C32.4865 40.5618 32.5514 40.4074 32.5712 40.324L33.0315 38.0469L33.524 35.7396C33.5412 35.6609 33.6207 35.5968 33.7012 35.5964L37.5177 35.5947C37.5982 35.5947 37.6494 35.5302 37.6309 35.4514L37.6231 35.4566ZM42.5365 32.9648L42.2427 32.9661H41.0212C40.9764 32.9688 40.9328 32.981 40.8932 33.0019C40.8536 33.0228 40.8189 33.052 40.7915 33.0874L38.0902 37.0447C38.0446 37.1113 37.9926 37.1014 37.9741 37.0231L37.7754 36.1513C37.7647 36.1114 37.7415 36.076 37.7092 36.0502C37.677 36.0244 37.6373 36.0096 37.596 36.008H35.8596C35.7787 36.008 35.7305 36.0713 35.7529 36.1491L36.5271 38.8753C36.5495 38.9527 36.5508 39.0805 36.5314 39.1592L36.1873 40.4784C36.1815 40.4953 36.1799 40.5134 36.1828 40.5311C36.1857 40.5488 36.193 40.5654 36.204 40.5796C36.215 40.5937 36.2293 40.6049 36.2457 40.6121C36.2621 40.6193 36.28 40.6223 36.2979 40.6208H38.0184C38.0993 40.6208 38.1819 40.5562 38.2016 40.4788L38.5457 39.1596C38.5727 39.0667 38.6149 38.9789 38.6705 38.8998L43.0604 33.0788C43.109 33.0143 43.0828 32.9618 43.0019 32.9627L42.5417 32.9657L42.5365 32.9648ZM28.7396 36.3788C28.7293 36.4648 28.6484 36.5293 28.5675 36.5293H26.3653C26.2891 36.5293 26.2504 36.4777 26.262 36.4132L26.2637 36.4016L26.2736 36.3642C26.4887 35.805 26.9124 35.4381 27.7172 35.4381C28.6235 35.4381 28.8002 35.8811 28.7387 36.3788H28.7396ZM28.0935 33.8376C25.2676 33.8376 24.5978 35.5529 24.2223 37.2842C23.8464 39.0491 23.8791 40.6995 26.8031 40.6995H27.2668L27.6238 40.6982L29.4846 40.687C29.5254 40.6851 29.5645 40.6701 29.5961 40.6441C29.6276 40.6181 29.6499 40.5826 29.6596 40.5429L29.9422 39.1613C29.9586 39.0822 29.9057 39.0177 29.8248 39.0177H27.1958C26.1506 39.0177 25.8396 38.7398 25.954 37.923H30.1564C30.2253 37.9217 30.2876 37.88 30.3122 37.8146C30.3165 37.803 30.3208 37.7905 30.3225 37.778C30.9462 35.4252 30.7672 33.8393 28.0944 33.8393L28.0935 33.8376ZM14.7362 36.3693L14.6966 36.51L14.3792 37.6352L14.0617 38.7596C14.0486 38.7992 14.0237 38.8339 13.9903 38.8591C13.957 38.8843 13.9168 38.8988 13.8751 38.9007H12.195C10.9209 38.9007 10.6108 37.9041 10.9209 36.4343C11.2306 34.931 11.8392 33.9963 13.0931 33.9017C14.8067 33.7726 15.1491 34.9779 14.7362 36.3689V36.3693ZM15.8881 38.8146C15.8881 38.8146 16.6795 36.892 16.8602 35.7809C17.1054 34.294 16.3612 32.1377 13.4858 32.1377C10.6267 32.1377 9.38534 34.1963 8.91177 36.439C8.43862 38.6929 9.05887 40.6698 11.9012 40.6543L16.2395 40.6384C16.2811 40.6364 16.3211 40.6216 16.3539 40.5961C16.3868 40.5705 16.411 40.5354 16.4232 40.4956L16.7888 39.1028C16.7947 39.086 16.7963 39.0679 16.7935 39.0502C16.7907 39.0326 16.7835 39.0159 16.7726 39.0017C16.7617 38.9876 16.7475 38.9763 16.7311 38.969C16.7148 38.9618 16.6969 38.9587 16.6791 38.96L15.9793 38.9557C15.9105 38.9553 15.8717 38.911 15.8795 38.8525C15.8812 38.8417 15.8838 38.831 15.8881 38.8198V38.8146Z" fill="black"/>
<path d="M30.0392 37.5272C30.0392 37.5806 29.9962 37.6237 29.9427 37.6237C29.8893 37.6237 29.8462 37.5806 29.8462 37.5272C29.8462 37.4738 29.8893 37.4307 29.9427 37.4307C29.9962 37.4307 30.0392 37.4738 30.0392 37.5272Z" fill="black"/>
</svg>
