<svg width="51" height="48" viewBox="0 0 51 48" fill="none" xmlns="http://www.w3.org/2000/svg">
<path d="M11.2324 4.21484C8.40923 4.21484 6.32012 6.69556 6.41367 9.38583C6.50354 11.9704 6.3868 15.318 5.5474 18.0479C4.7055 20.7857 3.28144 22.52 0.955566 22.7427V25.2566C3.28144 25.4793 4.7055 27.2136 5.5474 29.9516C6.3868 32.6815 6.50354 36.0287 6.41367 38.6135C6.32012 41.3034 8.40923 43.7845 11.2328 43.7845H40.1609C42.9843 43.7845 45.0728 41.3037 44.9793 38.6135C44.8896 36.0289 45.0061 32.6815 45.8455 29.9516C46.688 27.2138 48.1082 25.4792 50.4341 25.2566V22.7427C48.1082 22.52 46.688 20.7857 45.8457 18.0479C45.0061 15.3184 44.8896 11.9706 44.9793 9.38583C45.0728 6.69595 42.9843 4.21484 40.1609 4.21484H11.232H11.2324ZM34.5005 28.5724C34.5005 32.2769 31.7482 34.5234 27.1807 34.5234H19.4053C19.1829 34.5234 18.9696 34.4347 18.8124 34.2768C18.6552 34.1189 18.5668 33.9048 18.5668 33.6815V14.3178C18.5668 14.2072 18.5885 14.0977 18.6306 13.9955C18.6727 13.8934 18.7345 13.8005 18.8124 13.7223C18.8903 13.6441 18.9827 13.5821 19.0845 13.5398C19.1862 13.4975 19.2953 13.4757 19.4054 13.4757H27.1363C30.9448 13.4757 33.4442 15.547 33.4442 18.7268C33.4442 20.9588 31.7627 22.9569 29.6206 23.3068V23.4234C32.537 23.7445 34.5005 25.7719 34.5005 28.5724ZM26.3326 16.1446H21.8995V22.4313H25.6336C28.5199 22.4313 30.1117 21.2644 30.1117 19.1785C30.1117 17.224 28.7428 16.1446 26.3326 16.1446ZM21.8995 24.9258V31.8537H26.496C29.501 31.8537 31.0932 30.6432 31.0932 28.3679C31.0932 26.0923 29.4567 24.9254 26.3027 24.9254H21.8995V24.9258Z" fill="black"/>
</svg>
