<svg width="96" height="48" viewBox="0 0 96 48" fill="none" xmlns="http://www.w3.org/2000/svg">
<g clip-path="url(#clip0_3071_28826)">
<path d="M28.9065 7.68457L26.2927 36.9662L14.5434 40.2234L2.82645 36.9707L0.215332 7.68457H28.9065Z" fill="black"/>
<path d="M9.48155 17.2647H14.5628V13.6729H5.55615L5.64208 14.6365L6.52493 24.5346H14.5628V20.9428H9.80983L9.48155 17.2647ZM10.2911 26.3305H6.68542L7.18859 31.9703L14.5462 34.0126L14.5628 34.0081V30.2711L14.547 30.2753L10.5468 29.1952L10.2911 26.3305Z" fill="#F0F0F0"/>
<path d="M14.5485 24.5346H18.9714L18.5544 29.1929L14.5483 30.2742V34.0109L21.9118 31.9703L21.9658 31.3634L22.81 21.9073L22.8976 20.9428H14.5485V24.5346ZM14.5485 17.2559V17.2647H23.2244L23.2964 16.4574L23.4601 14.6365L23.5459 13.6729H14.5485V17.2559Z" fill="#F0F0F0"/>
</g>
<g clip-path="url(#clip1_3071_28826)">
<path d="M48.0927 40.2234L36.3758 36.9707L33.7646 7.68457H62.4558L59.842 36.9662L48.0927 40.2234Z" fill="black"/>
<path d="M39.7529 20.9428L40.0747 24.5346H48.1126V20.9428H39.7529ZM39.106 13.6729L39.4324 17.2647H48.1126V13.6729H39.106ZM48.1126 30.2711L48.0968 30.2753L44.0966 29.1952L43.8409 26.3305H40.2352L40.7384 31.9703L48.096 34.0126L48.1126 34.0081V30.2711Z" fill="#F0F0F0"/>
<path d="M56.4469 20.9428L57.0953 13.6729H48.0978V17.2647H53.159L52.8321 20.9428H48.0978V24.5346H52.5207L52.1037 29.1929L48.0977 30.2742V34.0109L55.4611 31.9703L55.5151 31.3634L56.3593 21.9073L56.4469 20.9428Z" fill="#F0F0F0"/>
</g>
<path d="M69.6713 37.0098L67.2646 7.59766L96.006 7.65676L93.4613 37.0098L81.7438 40.4027L69.6713 37.0098Z" fill="black"/>
<path d="M80.4773 13.626H77.3481V31.7052L74.9144 31.2417V28.8079L72.0171 28.3443V33.7913L80.4773 35.9933V13.626ZM82.8245 13.626H91.487L90.9076 17.0912H86.1314V22.7776H90.9076L90.3281 34.2549L82.8245 35.9933V32.4006L87.8944 30.6622L88.1871 25.9106L82.8245 26.6871V13.626Z" fill="#F0F0F0"/>
<defs>
<clipPath id="clip0_3071_28826">
<rect width="28.7912" height="32.7276" fill="white" transform="translate(0.164062 7.59766)"/>
</clipPath>
<clipPath id="clip1_3071_28826">
<rect width="28.7912" height="32.7276" fill="white" transform="translate(33.7129 7.59766)"/>
</clipPath>
</defs>
</svg>
