<svg width="105" height="48" viewBox="0 0 105 48" fill="none" xmlns="http://www.w3.org/2000/svg">
<path fill-rule="evenodd" clip-rule="evenodd" d="M6.64031 31.6409C4.50888 31.6409 3.03064 29.8532 3.03064 27.5327C3.03064 25.195 4.50888 23.4246 6.64031 23.4246C8.77173 23.4246 10.25 25.2122 10.25 27.5327C10.25 29.8532 8.80611 31.6409 6.64031 31.6409ZM6.64031 21.465C3.66663 21.465 0.933594 24.009 0.933594 27.5327C0.933594 31.0564 3.66663 33.6004 6.64031 33.6004C9.63118 33.6004 12.347 31.0564 12.347 27.5327C12.347 24.009 9.61399 21.465 6.64031 21.465ZM27.7998 21.465C25.9778 21.465 24.809 22.4792 24.1558 23.3558H23.7605C23.0729 22.376 22.0072 21.465 20.4258 21.465C18.8616 21.465 17.8303 22.3932 17.3834 22.9089H17.0568L16.6442 21.5854H15.2691V33.4457H17.3662V26.6905C17.3662 24.5075 18.6897 23.2699 20.2367 23.2699C22.2822 23.2699 22.5744 25.4357 22.5744 27.739V33.4629H24.6543V26.5358C24.723 24.4559 26.0294 23.2871 27.5248 23.2871C29.5703 23.2871 29.8625 25.4529 29.8625 27.7562V33.4801H31.9596V27.0514C31.9596 23.734 30.5329 21.465 27.7998 21.465ZM40.9493 21.465C38.9898 21.465 37.9241 22.4104 37.4772 22.9433H37.185L36.7553 21.5854H35.3801V33.4457H37.46V26.6905C37.46 24.6106 38.8867 23.2699 40.6571 23.2699C42.9948 23.2699 43.3558 25.6247 43.3558 27.739V33.4629H45.4356V27.0342C45.4356 23.7168 43.9574 21.465 40.9493 21.465ZM59.6852 26.4498C58.5164 26.1404 57.3991 25.7623 57.3991 24.6622C57.3991 23.6824 58.2586 23.0636 59.3415 23.0636C60.5963 23.0636 61.5245 23.8715 61.5245 24.7481H63.4496C63.4496 23.1152 62.0057 21.3791 59.3415 21.3791C57.1585 21.3791 55.4224 22.5651 55.4224 24.6794C55.4224 27.0514 57.6398 27.7046 59.2555 28.1343C60.5619 28.4953 61.7307 28.8734 61.7307 30.0767C61.7307 31.2455 60.6822 31.7956 59.5649 31.7956C58.2586 31.7956 57.0038 31.0392 57.0038 29.561H55.0786C55.0786 31.7268 56.8663 33.5144 59.5993 33.5144C61.937 33.5144 63.7075 32.2081 63.7075 29.9907C63.6903 27.5499 61.4901 26.9311 59.6852 26.4498ZM68.3313 26.2607C68.7094 24.3528 70.0501 23.1495 71.8034 23.1495C73.5911 23.1495 74.7771 24.4387 75.0693 26.2607H68.3313ZM71.8378 21.3963C68.8641 21.3963 66.1998 23.6824 66.1998 27.3608C66.1998 31.0736 68.8641 33.5144 71.855 33.5144C74.0208 33.5144 76.0663 32.2253 76.9773 30.0595H74.7943C74.2271 30.9877 73.2301 31.5893 71.8722 31.5893C69.8267 31.5893 68.4516 30.2142 68.2625 27.9968H77.2523C77.4758 23.5105 74.6912 21.3963 71.8378 21.3963ZM85.7264 21.3963C83.7669 21.3963 82.7012 22.3417 82.2543 22.8745H81.9621L81.5323 21.5166H80.1572V33.3769H82.2371V26.6217C82.2371 24.5418 83.6638 23.2011 85.4342 23.2011C87.7719 23.2011 88.1329 25.556 88.1329 27.6702V33.3941H90.2127V26.9655C90.2299 23.648 88.7345 21.3963 85.7264 21.3963ZM98.6525 31.5721C96.882 31.5721 95.0944 30.0251 95.0944 27.464C95.0944 24.9028 96.8648 23.3558 98.6525 23.3558C100.217 23.3558 102.056 24.5418 102.056 27.464C102.056 30.3861 100.217 31.5721 98.6525 31.5721ZM102.056 16.5318V23.3042C101.3 22.187 100.131 21.4135 98.4806 21.4135C95.4725 21.4135 93.0145 23.9574 93.0145 27.464C93.0145 30.9705 95.4725 33.5144 98.4806 33.5144C100.028 33.5144 101.128 32.8441 101.867 31.8815H102.245L102.692 33.3941H104.067V16.5318H102.056ZM48.0827 19.5399V21.3447C49.7157 21.826 49.9907 23.5277 49.9907 25.7451V33.4457H52.0706V25.0231C52.0706 21.7572 50.747 19.7805 48.0827 19.5399ZM50.5408 14.4004C49.6985 14.4004 49.0109 15.0879 49.0109 15.9302C49.0109 16.7725 49.6985 17.46 50.5408 17.46C51.383 17.46 52.0706 16.7725 52.0706 15.9302C52.0706 15.0879 51.383 14.4004 50.5408 14.4004Z" fill="black"/>
</svg>
