<svg width="93" height="48" viewBox="0 0 93 48" fill="none" xmlns="http://www.w3.org/2000/svg">
<mask id="mask0_3071_29005" style="mask-type:luminance" maskUnits="userSpaceOnUse" x="0" y="12" width="93" height="24">
<path d="M92.966 12H0.0341797V36H92.966V12Z" fill="white"/>
</mask>
<g mask="url(#mask0_3071_29005)">
<path d="M24.3408 30.1705V12H27.1704V19.1591C28.0567 17.8295 29.3863 17.1818 31.159 17.1818C32.659 17.1818 33.8522 17.625 34.6704 18.5114C35.4885 19.3977 35.8976 20.6591 35.8976 22.2614V30.1705H33.0681V22.6705C33.0681 20.5909 32.1476 19.5682 30.3067 19.5682C29.3863 19.5682 28.6363 19.8409 28.0226 20.4205C27.4431 20.9659 27.1363 21.75 27.1363 22.7727V30.2045L24.3408 30.1705Z" fill="black"/>
<path d="M49.2614 28.6021C48 29.8635 46.4318 30.4771 44.5227 30.4771C42.6136 30.4771 41.0455 29.8635 39.7841 28.6021C38.5227 27.3407 37.875 25.7385 37.875 23.8294C37.875 21.8862 38.5227 20.318 39.7841 19.0566C41.0455 17.7953 42.6136 17.1816 44.5227 17.1816C46.4318 17.1816 48 17.7953 49.2614 19.0566C50.5227 20.318 51.1364 21.8862 51.1364 23.8294C51.1364 25.7725 50.5227 27.3748 49.2614 28.6021ZM41.8636 27.0339C42.5455 27.818 43.4318 28.2271 44.5568 28.2271C45.6818 28.2271 46.5682 27.818 47.25 27.0339C47.9318 26.2498 48.2727 25.193 48.2727 23.8294C48.2727 22.4998 47.9318 21.443 47.25 20.6589C46.5682 19.8748 45.6818 19.4657 44.5909 19.4657C43.4659 19.4657 42.5795 19.8407 41.8977 20.6248C41.2159 21.4089 40.875 22.4657 40.875 23.7953C40.8409 25.1589 41.1818 26.2498 41.8636 27.0339Z" fill="black"/>
<path d="M57.682 30.512C55.0911 30.512 53.7956 29.1143 53.7956 26.3188V19.8756H51.8184V17.4893H53.8638L54.5115 13.7393H56.6252V17.4893H61.6706V19.8756H56.6252V26.2165C56.6252 27.3756 57.0684 27.9552 57.9206 27.9552C58.7388 27.9552 59.4547 27.2393 60.1025 25.7733L62.2843 26.8983C61.1934 29.3188 59.6593 30.512 57.682 30.512Z" fill="black"/>
<path d="M63.1706 36C61.9093 36 60.8865 35.6591 60.0684 34.9432L61.1252 32.7273C61.6365 33.3068 62.182 33.6136 62.7615 33.6136C63.5456 33.6136 63.9547 33.1023 63.9547 32.1136V17.4886H66.7843V32.1136C66.7843 33.4773 66.4434 34.4659 65.7615 35.0455C65.0797 35.6932 64.2275 36 63.1706 36ZM65.3524 15.3409C64.8752 15.3409 64.432 15.1705 64.0911 14.8636C63.9206 14.6932 63.7843 14.5227 63.7161 14.3182C63.6138 14.1136 63.5797 13.875 63.6138 13.6705C63.6138 13.4318 63.6479 13.2273 63.7502 13.0227C63.8525 12.8182 63.9547 12.6136 64.1252 12.4773C64.4661 12.1705 64.9093 12 65.3865 12C65.8638 12 66.307 12.1705 66.6479 12.4773C66.8184 12.6477 66.9547 12.8182 67.0229 13.0227C67.1252 13.2273 67.1593 13.4659 67.1593 13.6705C67.1593 13.9091 67.1252 14.1136 67.0229 14.3182C66.9206 14.5227 66.8184 14.6932 66.6479 14.8636C66.4775 15.0341 66.2729 15.1364 66.0684 15.2386C65.8297 15.3068 65.5911 15.375 65.3524 15.3409Z" fill="black"/>
<path d="M73.7725 30.5113C72.3407 30.5113 71.1476 30.1363 70.2612 29.4204C69.3748 28.7045 68.9316 27.7158 68.9316 26.5226C68.9316 25.3976 69.4089 24.4772 70.3294 23.6931C71.2498 22.909 72.443 22.534 73.8407 22.534C75.2726 22.534 76.4998 23.0113 77.4885 23.9317V22.3976C77.4885 21.4772 77.2498 20.7954 76.8066 20.284C76.3294 19.7726 75.6816 19.534 74.8294 19.534C73.0907 19.534 72.0339 20.4204 71.6248 22.159L69.0339 21.6135C69.3748 20.2499 70.0566 19.1931 71.1135 18.409C72.1362 17.6249 73.4316 17.2158 74.9657 17.2158C76.6362 17.2158 77.9657 17.659 78.9203 18.5454C79.8748 19.4317 80.3862 20.7272 80.3862 22.3976V30.2045H77.6248V28.6022C76.6703 29.8635 75.4089 30.5113 73.7725 30.5113ZM74.318 28.3976C75.5794 28.3976 76.6362 27.784 77.5225 26.5226V26.1135C76.6362 25.0567 75.5794 24.5454 74.318 24.5454C73.6021 24.5454 72.9885 24.7158 72.5453 25.0908C72.3407 25.2613 72.1703 25.4658 72.0339 25.7045C71.9316 25.9431 71.8635 26.2158 71.8635 26.4885C71.8635 26.7613 71.8976 27.034 72.0339 27.2726C72.1362 27.5113 72.3066 27.7158 72.5453 27.8863C72.9544 28.2272 73.568 28.3976 74.318 28.3976Z" fill="black"/>
<path d="M83.0781 30.1705V17.4886H85.8395V19.6705C86.5213 18.0682 87.7486 17.25 89.4531 17.25C90.4758 17.25 91.294 17.5909 91.9758 18.2386C92.6577 18.8864 92.9645 19.8068 92.9645 20.8977C92.9645 21.5795 92.8281 22.2273 92.6236 22.875L90.0327 22.6023C90.1008 22.2614 90.1349 21.9205 90.1349 21.5455C90.1349 20.25 89.5895 19.5682 88.4986 19.5682C87.7827 19.5682 87.1349 19.9432 86.6577 20.7273C86.1463 21.5114 85.9077 22.5341 85.9077 23.7955V30.1023H83.0781V30.1705Z" fill="black"/>
<path d="M6.71591 19.4318C8.82955 18.2727 11.6932 16.6705 11.6932 12H8.18182C8.18182 14.5909 6.92045 15.3068 4.97727 16.3636C2.86364 17.5227 0 19.125 0 23.7955H3.47727C3.51136 21.2045 4.77273 20.5227 6.71591 19.4318Z" fill="black"/>
<path d="M12.7502 18.375C12.7502 20.9659 11.4888 21.6818 9.54563 22.7386C7.432 23.8977 4.56836 25.5 4.56836 30.1705H8.04563C8.04563 27.5795 9.307 26.8636 11.2502 25.8068C13.3638 24.6477 16.2274 23.0455 16.2274 18.375H12.7502Z" fill="black"/>
</g>
</svg>
