<svg width="47" height="48" viewBox="0 0 47 48" fill="none" xmlns="http://www.w3.org/2000/svg">
<path d="M22.5464 3.4965C22.4675 3.50009 22.1697 3.5252 21.8826 3.54673C18.2943 3.81227 14.6558 5.13992 11.674 7.27135C10.6872 7.97465 9.90858 8.63489 9.04022 9.50324C4.04895 14.4981 1.99288 21.6459 3.55377 28.5892C4.19248 31.4383 5.55602 34.3053 7.3645 36.609C10.2028 40.2295 14.0925 42.7808 18.4558 43.8859C20.232 44.3381 21.7068 44.5211 23.5691 44.5211C25.4063 44.5211 26.759 44.356 28.5101 43.929C31.0255 43.3118 33.2358 42.2963 35.4462 40.7498C37.5633 39.2643 39.5332 37.1831 40.947 34.9404C42.7698 32.0411 43.8069 28.8404 44.0616 25.3275C44.1154 24.5883 44.0831 22.7583 44.0042 22.0047C43.8463 20.5084 43.4444 18.5349 43.2112 18.1222C43.1179 17.9608 42.856 17.7527 42.6622 17.6845C42.594 17.6629 42.4433 17.645 42.3213 17.645C41.7831 17.645 41.331 18.0935 41.331 18.621C41.331 18.7466 41.3884 19.048 41.4709 19.3745C42.1814 22.1375 42.2388 25.1732 41.6324 27.9433C40.8573 31.4921 39.1278 34.6211 36.5191 37.1867C35.3027 38.3816 34.1293 39.2643 32.6115 40.1326C29.0699 42.16 24.6671 42.9279 20.537 42.2389C17.4009 41.7186 14.6774 40.513 12.0902 38.5C10.8738 37.5527 9.39187 35.9918 8.47327 34.6856C6.88726 32.4322 5.88973 30.0568 5.37302 27.2974C5.11107 25.8908 5.02137 24.0249 5.14337 22.5071C5.32996 20.2034 5.90767 18.0648 6.88726 16.0375C7.33938 15.0938 7.61927 14.6022 8.16109 13.7876C9.26628 12.1155 10.7303 10.551 12.3486 9.30948C14.2468 7.84906 16.5002 6.74029 18.7788 6.14463C20.0095 5.82169 20.9927 5.66022 22.2414 5.57051C26.759 5.24757 31.1511 6.54652 34.7286 9.27001C34.9941 9.47095 35.274 9.68983 35.3493 9.75801L35.4857 9.87642L35.4319 10.0271C35.1556 10.8022 35.3601 11.7674 35.9414 12.442C36.2392 12.7865 36.7775 13.1094 37.2332 13.2171C37.5453 13.2924 38.0872 13.2924 38.4029 13.2171C39.2031 13.0269 39.9495 12.3416 40.1863 11.5808C40.4518 10.7304 40.2975 9.89078 39.7521 9.20901C39.1493 8.45547 38.1123 8.11818 37.1542 8.36935L36.9461 8.42318L36.6519 8.17918C35.457 7.17805 34.0109 6.25228 32.4895 5.51669C30.0208 4.3218 27.5413 3.6795 24.7173 3.50726C24.1755 3.47497 22.8945 3.46779 22.5464 3.4965Z" fill="black"/>
<path d="M20.4202 15.3C20.0398 16.2831 19.2145 18.4361 18.5794 20.0831C17.9443 21.7301 16.6418 25.1139 15.6837 27.6005C14.7292 30.0872 13.9362 32.1325 13.929 32.1468C13.9183 32.1648 14.9266 32.1755 16.1645 32.1755H18.4215L18.5543 31.806C18.6297 31.605 18.8952 30.8945 19.1428 30.2271L19.5949 29.0179H22.9822C25.6806 29.0179 26.3695 29.0071 26.3588 28.9712C26.3229 28.8743 25.7703 27.2955 25.4761 26.4523L25.1603 25.5552L22.9176 25.5373L20.6786 25.5193L22.1354 21.5041C23.0109 19.0928 23.603 17.5139 23.6137 17.5498C23.6281 17.5821 24.2094 19.2363 24.9091 21.2242C25.6088 23.2121 26.7642 26.4846 27.4747 28.4976L28.7629 32.1576L31.0092 32.1684C32.2435 32.172 33.2554 32.1684 33.2554 32.1612C33.2554 32.154 32.9648 31.3897 32.6059 30.4675C32.2471 29.5418 31.4792 27.5503 30.8979 26.0396C30.3166 24.529 29.6636 22.8353 29.4447 22.272C29.2294 21.7086 28.8526 20.7326 28.6086 20.1011C28.3646 19.4695 27.7295 17.8153 27.1912 16.4231C26.653 15.0308 26.1829 13.8073 26.1435 13.7032L26.0753 13.5166H21.1056L20.4202 15.3Z" fill="black"/>
</svg>
