<svg width="99" height="48" viewBox="0 0 99 48" fill="none" xmlns="http://www.w3.org/2000/svg">
<path d="M85.8479 36.6117V41.0441H93.9095C95.5613 41.0441 98.3964 39.8442 98.495 36.4893V34.7751C98.495 31.91 96.1283 30.2203 93.9095 30.2203H89.8911V28.1633H97.854V23.7064H90.2116C88.2393 23.7064 85.6014 25.3227 85.6014 28.3347V29.8775C85.6014 32.8895 88.2146 34.4323 90.2116 34.4323C95.7585 34.4568 88.8803 34.4323 94.0081 34.4323V36.5873M42.6556 35.5343C42.6556 35.5343 46.9699 35.1669 46.9699 29.6326C46.9699 24.0982 41.7434 23.584 41.7434 23.584H32.3259V41.0441H37.0593V36.8321L41.1518 41.0441H48.1533L42.6556 35.5343ZM40.8313 31.959H37.0593V27.9674H40.8559C40.8559 27.9674 41.916 28.3592 41.916 29.9509C41.916 31.5427 40.8313 31.959 40.8313 31.959ZM58.6555 23.7064H53.8481C50.4214 23.7064 49.2626 26.7919 49.2626 28.2612V41.0441H54.07V37.9831H58.5815V41.0441H63.241V28.2612C63.241 24.539 59.8389 23.7064 58.6555 23.7064ZM58.5815 33.0365H54.0454V28.8C54.0454 28.8 54.0454 27.8449 55.5492 27.8449H57.201C58.5322 27.8449 58.5569 28.8 58.5569 28.8V33.0365H58.5815ZM65.4351 23.7064H70.4397V41.0441H65.4351V23.7064ZM77.4659 36.5628V23.7064H72.4859V41.0441H84.1962V36.5628H77.4659Z" fill="black"/>
<path d="M2.62427 41.0441H22.1003C22.1003 41.0441 18.3776 24.1717 30.7042 17.3395C33.3914 16.0416 41.9461 11.193 55.9491 21.478C56.3928 21.1107 56.8119 20.8168 56.8119 20.8168C56.8119 20.8168 43.9923 8.10743 29.7181 9.52775C22.544 10.1644 13.7182 16.6538 8.54103 25.2247C3.36386 33.7956 2.62427 41.0441 2.62427 41.0441Z" fill="black"/>
<path d="M2.62427 41.0441H22.1003C22.1003 41.0441 18.3776 24.1717 30.7042 17.3395C33.3914 16.0416 41.9461 11.193 55.9491 21.478C56.3928 21.1107 56.8119 20.8168 56.8119 20.8168C56.8119 20.8168 43.9923 8.10743 29.7181 9.52775C22.544 10.1644 13.7182 16.6538 8.54103 25.2247C3.36386 33.7956 2.62427 41.0441 2.62427 41.0441Z" fill="black"/>
<path d="M2.62427 41.0432H22.1003C22.1003 41.0432 18.3776 24.1708 30.7042 17.3386C33.3914 16.0407 41.9461 11.1921 55.9491 21.4771C56.3928 21.1098 56.8119 20.8159 56.8119 20.8159C56.8119 20.8159 43.9923 8.10653 29.7181 9.52685C22.5194 10.1635 13.6935 16.6529 8.51637 25.2238C3.33921 33.7947 2.62427 41.0432 2.62427 41.0432ZM43.2034 10.8982L43.302 9.25748C43.0801 9.13504 42.4638 8.84118 40.9106 8.40039L40.812 10.0166C41.6256 10.286 42.4145 10.5798 43.2034 10.8982Z" fill="black"/>
<path d="M40.8576 16.0892L40.7589 17.632C41.5725 17.6564 42.3861 17.7544 43.1996 17.9258L43.2982 16.4075C42.46 16.2361 41.6465 16.1382 40.8576 16.0892ZM31.7359 8.44886H31.9824L31.4894 6.95508C30.7251 6.95508 29.9362 7.00405 29.1226 7.10201L29.5911 8.54682C30.306 8.47335 31.0209 8.44886 31.7359 8.44886ZM32.9192 17.4605L33.4863 19.1502C34.2012 18.8074 34.9161 18.5135 35.6311 18.2931L35.0887 16.6769C34.2505 16.9218 33.5356 17.1912 32.9192 17.4605ZM21.7267 11.0201L20.6173 9.33044C20.001 9.64879 19.36 9.99162 18.6944 10.3834L19.8284 12.0976C20.4694 11.7058 21.0857 11.3385 21.7267 11.0201ZM26.7806 22.0398L27.9639 23.803C28.3831 23.1908 28.8761 22.6276 29.4185 22.0643L28.3091 20.3991C27.7421 20.9134 27.2244 21.4766 26.7806 22.0398ZM23.2059 29.9251L25.2028 31.4923C25.3014 30.5373 25.474 29.5822 25.7205 28.6272L23.9455 27.2314C23.625 28.1374 23.4031 29.0435 23.2059 29.9251ZM12.4078 18.2931L10.6574 16.7749C10.0164 17.3871 9.40012 17.9993 8.83309 18.6115L10.7314 20.2277C11.2491 19.5665 11.8161 18.9054 12.4078 18.2931ZM4.96255 29.2394L2.12743 28.2109C1.65902 29.2639 1.14131 30.4883 0.894775 31.1495L3.72989 32.178C4.05038 31.3454 4.5681 30.1455 4.96255 29.2394ZM22.8361 36.1451C22.8854 37.443 23.0087 38.496 23.1319 39.2306L26.0903 40.2836C25.8684 39.3286 25.6466 38.2511 25.4986 37.1001L22.8361 36.1451Z" fill="black"/>
</svg>
