<svg width="89" height="48" viewBox="0 0 89 48" fill="none" xmlns="http://www.w3.org/2000/svg">
<path fill-rule="evenodd" clip-rule="evenodd" d="M23.0984 23.9998C23.0984 30.1856 18.0013 35.1998 11.7137 35.1998C5.42613 35.1998 0.329102 30.1856 0.329102 23.9998C0.329102 17.814 5.42613 12.7998 11.7137 12.7998C18.0013 12.7998 23.0984 17.814 23.0984 23.9998ZM9.15141 22.597L9.01337 22.4521C8.61997 22.0759 8.1075 21.8706 7.56571 21.8706C6.41482 21.8706 5.46409 22.811 5.46409 23.9808C5.46409 25.1507 6.41482 26.0911 7.56571 26.0911C8.10923 26.0911 8.62514 25.884 9.01855 25.5044L13.3909 21.1528L13.3961 21.1476L13.4012 21.1442C14.1311 20.4574 15.087 20.0778 16.0912 20.0778C18.2619 20.0778 20.0149 21.8412 20.0149 23.9964C20.0149 26.1497 18.2619 27.9149 16.0912 27.9149C15.087 27.9149 14.1311 27.5353 13.4012 26.8486L13.3978 26.8451L13.3943 26.8416L13.384 26.8313L13.3805 26.8278L13.3771 26.8244L13.139 26.5794L12.8405 26.2722L13.1424 25.9703L13.8033 25.3094L14.1242 24.9885L14.4417 25.3146L14.666 25.5458C15.056 25.9082 15.5615 26.1049 16.0912 26.1049C17.2421 26.1049 18.1929 25.1645 18.1929 23.9946C18.1929 22.8248 17.2421 21.8844 16.0912 21.8844C15.5598 21.8844 15.0542 22.0828 14.6625 22.4469L10.3006 26.7899L10.2988 26.7916L10.2971 26.7933C9.56207 27.5042 8.59236 27.8976 7.56743 27.8976C5.3968 27.8976 3.64372 26.1342 3.64372 23.9791C3.64372 21.8257 5.3968 20.0606 7.56743 20.0606C8.59236 20.0606 9.56207 20.454 10.2971 21.1649L10.3023 21.17L10.3092 21.1769L10.3161 21.1838L10.4628 21.3391L10.7526 21.6445L10.4541 21.943L9.79328 22.6039L9.46717 22.93L9.15141 22.597Z" fill="black"/>
<path d="M27.6091 30.9399H30.9134V26.4623H32.4612L34.8596 30.9399H38.5417L35.9173 26.2949C35.5963 25.7376 35.4065 25.496 35.4065 25.496V25.4581C36.7472 24.7886 37.427 23.2477 37.427 21.8363C37.427 19.9038 36.4642 18.5476 34.9337 17.973C34.3488 17.7504 33.688 17.6572 32.3093 17.6572H27.6074V30.9399H27.6091ZM30.9134 23.6757V20.4439H32.0281C33.6897 20.4439 34.0676 21.0391 34.0676 22.0416C34.0676 23.1011 33.4067 23.6757 32.349 23.6757H30.9134ZM40.4811 30.9399H49.2051V28.1532H43.7854V25.6461H47.9024V22.8595H43.7854V20.4439H48.9411V17.6572H40.4811V30.9399ZM51.581 30.9399H56.5469C59.2283 30.9399 61.6836 29.8804 61.6836 26.9834C61.6836 25.8135 61.1177 24.4573 59.5682 23.9931V23.9552C60.588 23.3789 61.1349 22.247 61.1349 21.1323C61.1349 18.8478 59.2473 17.659 56.5469 17.659H51.581V30.9399ZM54.8853 22.8026V20.4439H56.528C57.4148 20.4439 57.7737 20.9632 57.7737 21.5775C57.7737 22.209 57.4148 22.8043 56.5849 22.8043H54.8853V22.8026ZM54.8853 28.1532V25.4046H56.8869C57.8497 25.4046 58.3035 26.0171 58.3035 26.7608C58.3035 27.5045 57.8307 28.1532 56.8679 28.1532H54.8853ZM63.8388 26.0533C63.8388 29.0436 66.0663 31.1624 69.5035 31.1624C72.9026 31.1624 75.1302 29.0453 75.1302 26.0533V17.6572H71.8259V26.0533C71.8259 27.4458 70.9011 28.1895 69.4845 28.1895C68.0679 28.1895 67.143 27.4458 67.143 26.0533V17.6572H63.8388V26.0533ZM80.9122 30.9399H84.2165V25.4977L88.6717 17.6572H84.9136L83.4038 20.8528C82.969 21.7638 82.5911 22.7663 82.5911 22.7663H82.5532C82.5532 22.7663 82.1753 21.7638 81.7405 20.8528L80.21 17.6572H76.4554L80.9122 25.496V30.9399Z" fill="black"/>
</svg>
