<svg width="47" height="48" viewBox="0 0 47 48" fill="none" xmlns="http://www.w3.org/2000/svg">
<path d="M22.4005 4.57003C22.3155 4.57763 22.045 4.60423 21.8016 4.62323C16.1873 5.12104 10.9285 8.10026 7.59778 12.6793C5.74309 15.2253 4.55686 18.1133 4.10865 21.1724C3.95023 22.2402 3.93091 22.5556 3.93091 24.0034C3.93091 25.4512 3.95023 25.7666 4.10865 26.8344C5.18282 34.1343 10.4648 40.2675 17.6285 42.5399C18.9114 42.9465 20.2637 43.2239 21.8016 43.3911C22.4005 43.4557 24.9893 43.4557 25.5882 43.3911C28.2428 43.1023 30.4916 42.4563 32.7095 41.3429C33.0495 41.1719 33.1152 41.1263 33.0688 41.0883C33.0379 41.0655 31.5889 39.1541 29.8501 36.8437L26.6895 32.6446L22.7289 26.88C20.5497 23.7108 18.7568 21.1192 18.7414 21.1192C18.7259 21.1154 18.7104 23.6766 18.7027 26.804C18.6911 32.2798 18.6873 32.5002 18.6177 32.6294C18.5172 32.8156 18.44 32.8916 18.2777 32.9752C18.154 33.036 18.0458 33.0474 17.4624 33.0474H16.7939L16.6162 32.9372C16.5003 32.865 16.4153 32.77 16.3573 32.6598L16.2762 32.4888L16.2839 24.8698L16.2955 17.2469L16.4153 17.0987C16.4771 17.0189 16.6085 16.9163 16.7012 16.8669C16.8596 16.7909 16.9214 16.7833 17.5899 16.7833C18.3781 16.7833 18.5095 16.8137 18.7143 17.0341C18.7723 17.0949 20.9167 20.2717 23.4824 24.0984C26.048 27.925 29.5565 33.15 31.2798 35.7151L34.4096 40.3777L34.568 40.2751C35.9706 39.3783 37.4544 38.1015 38.629 36.7715C41.129 33.948 42.7402 30.5052 43.2812 26.8344C43.4396 25.7666 43.4589 25.4512 43.4589 24.0034C43.4589 22.5556 43.4396 22.2402 43.2812 21.1724C42.207 13.8725 36.925 7.73926 29.7613 5.46684C28.4978 5.06404 27.1531 4.78663 25.6462 4.61943C25.2753 4.58143 22.7212 4.53963 22.4005 4.57003ZM30.4916 16.3273C30.677 16.4185 30.8277 16.5933 30.8818 16.7757C30.9127 16.8745 30.9205 18.9873 30.9127 23.7488L30.9011 30.5812L29.6763 28.7344L28.4475 26.8876V21.921C28.4475 18.7099 28.463 16.9049 28.4862 16.8175C28.548 16.6047 28.6832 16.4375 28.8687 16.3387C29.0271 16.2589 29.0851 16.2513 29.6917 16.2513C30.2636 16.2513 30.3641 16.2589 30.4916 16.3273Z" fill="black"/>
</svg>
