<svg width="48" height="48" viewBox="0 0 48 48" fill="none" xmlns="http://www.w3.org/2000/svg">
<path d="M23.8397 5.55644C22.3397 5.55644 20.888 5.69591 19.6242 5.93216C15.8784 6.58683 15.2209 7.94739 15.2209 10.5234V13.8963H24.0276V15.0206H11.9419C9.41144 15.0206 7.16565 16.5662 6.46259 19.4695C5.66561 22.8425 5.62006 24.9033 6.46259 28.4157C7.07172 31.04 8.57176 32.8646 11.1477 32.8646H14.1933V28.8369C14.1933 25.9336 16.7238 23.3577 19.6726 23.3577H28.4309C30.8674 23.3577 32.8343 21.3424 32.8343 18.8604V10.475C32.8343 8.08687 30.819 6.30503 28.4309 5.88377C26.8825 5.65037 25.3369 5.5109 23.8397 5.55644ZM19.0607 8.22634C19.9516 8.22634 20.7002 8.97493 20.7002 9.91139C20.7002 10.8478 19.9516 11.5964 19.0607 11.5964C18.1697 11.5964 17.4211 10.8478 17.4211 9.91139C17.4211 8.97493 18.1242 8.22634 19.0607 8.22634Z" fill="black"/>
<path d="M33.909 14.9238V18.812C33.909 21.8576 31.3331 24.3852 28.3814 24.3852H19.6231C17.235 24.3852 15.2197 26.446 15.2197 28.8825V37.2679C15.2197 39.656 17.2805 41.0621 19.6231 41.7652C22.3869 42.6077 25.0568 42.75 28.4298 41.7652C30.63 41.1105 32.8331 39.8439 32.8331 37.2679V33.8949H24.0236V32.7706H37.2336C39.764 32.7706 40.746 30.9916 41.6369 28.3217C42.5734 25.5579 42.5279 22.9364 41.6369 19.3756C41.0278 16.8451 39.8096 14.9267 37.2336 14.9267L33.909 14.9238ZM28.9421 36.1436C29.833 36.1436 30.5816 36.8922 30.5816 37.8286C30.5816 38.7651 29.833 39.5137 28.9421 39.5137C28.0512 39.5137 27.3026 38.7651 27.3026 37.8286C27.3026 36.8922 28.054 36.1436 28.9421 36.1436Z" fill="black"/>
</svg>
