<svg width="47" height="48" viewBox="0 0 47 48" fill="none" xmlns="http://www.w3.org/2000/svg">
<path d="M31.6097 31.876C33.1487 31.7163 34.3163 30.386 34.2632 28.7894C34.2103 27.193 32.8834 25.9158 31.2912 25.9158H31.1852C29.5397 25.969 28.2661 27.3526 28.3192 29.0022C28.3723 29.8005 28.6907 30.4923 29.1683 30.9712C27.3639 34.5368 24.6042 37.1443 20.4646 39.3262C17.6517 40.8163 14.7328 41.3484 11.8139 40.976C9.42561 40.6567 7.56809 39.5924 6.40033 37.8361C4.70213 35.2286 4.54297 32.4081 5.97594 29.5877C6.98437 27.5654 8.57635 26.0754 9.58478 25.3303C9.3725 24.6385 9.05401 23.4678 8.89484 22.6165C1.19935 28.2041 1.9955 35.7608 4.33069 39.3262C6.082 41.9871 9.63789 43.6368 13.5652 43.6368C14.6266 43.6368 15.688 43.5303 16.7495 43.2644C23.5428 41.9339 28.6908 37.8894 31.6097 31.876ZM40.9505 25.2772C36.9169 20.5409 30.9729 17.9334 24.1796 17.9334H23.3305C22.8528 16.9755 21.8444 16.3368 20.7299 16.3368H20.6237C18.9786 16.3901 17.705 17.7737 17.7579 19.4235C17.811 21.0199 19.1378 22.2971 20.7299 22.2971H20.836C22.0036 22.2439 23.012 21.4988 23.4366 20.4877H24.3919C28.4254 20.4877 32.2465 21.6584 35.6964 23.9468C38.3499 25.7029 40.2605 27.9913 41.3219 30.7584C42.2241 32.9935 42.171 35.1753 41.2157 37.038C39.7298 39.8584 37.2354 41.4017 33.9449 41.4017C31.822 41.4017 29.8053 40.763 28.7438 40.2841C28.16 40.8163 27.0985 41.6676 26.3555 42.2C28.6377 43.2642 30.9729 43.8496 33.2019 43.8496C38.2968 43.8496 42.0649 41.0291 43.4979 38.2087C45.037 35.1221 44.9307 29.8005 40.9505 25.2772ZM13.9898 32.7805C14.0429 34.3771 15.3696 35.6541 16.9618 35.6541H17.068C18.7132 35.601 19.9869 34.2173 19.9338 32.5676C19.8808 30.9711 18.5539 29.694 16.9618 29.694H16.8557C16.7495 29.694 16.5902 29.694 16.4843 29.7471C14.3083 26.1284 13.406 22.1906 13.7245 17.9333C13.9367 14.7403 14.9982 11.973 16.8557 9.68464C18.3948 7.71564 21.3668 6.75776 23.3836 6.70467C29.0091 6.59817 31.3973 13.6226 31.5566 16.4432C32.2465 16.6028 33.4141 16.9754 34.2103 17.2415C33.5733 8.62059 28.2661 4.15039 23.1713 4.15039C18.3948 4.15039 13.9898 7.60946 12.2383 12.7182C9.79705 19.5298 11.3892 26.0754 14.3612 31.2373C14.096 31.6098 13.9367 32.195 13.9898 32.7805Z" fill="black"/>
</svg>
