<svg width="77" height="48" viewBox="0 0 77 48" fill="none" xmlns="http://www.w3.org/2000/svg">
<path d="M43.7446 17.2656C44.1585 17.2656 44.5544 17.1062 44.8423 16.8405C45.1303 16.557 45.3102 16.185 45.3102 15.7775C45.3102 15.3701 45.1303 14.9804 44.8423 14.6969C44.5544 14.4135 44.1585 14.254 43.7446 14.2363C43.3306 14.254 42.9527 14.4135 42.6648 14.6969C42.3768 14.9804 42.2148 15.3701 42.2148 15.7775C42.2148 16.1673 42.3768 16.557 42.6648 16.8227C42.9527 17.1062 43.3306 17.2656 43.7446 17.2656Z" fill="black"/>
<path d="M54.4172 18.7005H58.2145V19.0016C57.9985 19.0371 57.8006 19.1079 57.6206 19.1965C57.2787 19.3559 56.5768 20.1177 56.0549 21.4109C55.1551 23.643 54.2013 26.2826 53.2115 29.3119L52.8335 30.4634C52.6716 30.9771 52.5276 31.3137 52.4556 31.5263C52.3836 31.7389 52.2936 32.04 52.1317 32.4297C52.0417 32.7132 51.9157 32.9966 51.7717 33.2624C51.5918 33.599 51.2318 34.2898 50.9619 34.5024C50.53 34.8567 49.8821 35.2642 49.0722 35.211C47.5065 35.211 46.3188 34.0595 46.3008 32.6955C46.3008 31.7743 46.8947 31.1543 47.7945 31.1543C48.4424 31.1543 49.0183 31.4908 49.0183 32.2172C49.0183 32.7309 48.4964 33.2801 48.4964 33.5458C48.4964 34.2544 48.9103 34.5733 49.7201 34.5733C50.368 34.5733 50.8899 34.1658 51.2858 33.3509C51.8257 32.4297 51.8617 31.4023 51.4298 30.2862L48.1004 21.6766C47.3446 19.6925 46.7507 19.0371 46.0488 18.9662V18.665H51.2858V18.9662C50.6559 19.0371 50.332 19.3914 50.332 20.0468C50.332 20.5251 50.512 21.2515 50.8539 22.1726L51.4838 23.8379C52.2037 25.6448 52.7795 27.2215 53.0855 28.2135C53.7514 26.1586 54.3812 24.3516 54.9751 22.775C55.407 21.6058 55.623 20.7554 55.623 20.2594C55.623 19.3736 55.1371 18.9662 54.3992 18.9662L54.4172 18.7005Z" fill="black"/>
<path d="M17.9207 29.7012C17.2548 29.5949 16.6789 28.9926 16.6789 27.7525V12.7832L12.8636 13.5981V13.917C13.5115 13.8461 14.1594 14.413 14.1594 15.6176V27.7703C14.1594 28.9395 13.5115 29.6304 12.8636 29.7189C12.8096 29.7367 12.7377 29.7367 12.6837 29.7367C12.3597 29.7544 12.0178 29.7012 11.7119 29.5772C11.2079 29.3646 10.776 28.9749 10.4161 28.3903L8.65244 25.6267C8.27451 25.0421 7.73461 24.5992 7.06874 24.3512C6.42086 24.1032 5.701 24.0678 5.01713 24.2449L6.99675 22.1014C8.49047 20.4716 9.8942 19.4441 11.2079 19.0012V18.7001H6.83478V19.0012C7.96857 19.4264 7.89658 20.383 6.60083 21.8711L3.81136 25.0598V12.7832L-0.00390625 13.5981V13.917C0.64397 13.917 1.29185 14.5547 1.29185 15.6531V27.7703C1.29185 29.0989 0.661966 29.6304 -0.00390625 29.7189V30.0201H5.05313V29.7189C4.22528 29.6126 3.81136 28.9749 3.81136 27.7703V25.5381L4.89116 24.3689L7.51865 28.5852C8.14853 29.5949 8.72442 30.0024 9.64225 30.0024H18.4426V29.7721C18.4786 29.7721 18.2266 29.7544 17.9207 29.7012Z" fill="black"/>
<path d="M28.4316 28.2666V23.2178C28.3776 19.9228 26.9559 18.417 23.7165 18.417C22.6727 18.417 21.6649 18.7359 20.855 19.3736C19.9912 20.0114 19.5773 20.7377 19.5773 21.5703C19.5773 22.3852 20.0452 22.9875 20.801 22.9875C21.6109 22.9875 22.1868 22.5446 22.1868 21.9069C22.1868 21.4286 21.8628 20.7731 21.8628 20.3302C21.8628 19.5153 22.4927 18.8067 23.5725 18.8067C24.9583 18.8067 25.9481 19.8165 25.9481 22.084V23.4304L24.7963 23.6961C24.2024 23.8024 23.6805 23.9264 23.3026 24.0327C22.9066 24.139 22.4027 24.2984 21.8089 24.5287C20.6031 24.9893 19.9552 25.4145 19.3973 26.2294C19.1274 26.6191 18.9834 27.0797 18.9834 27.558C18.9834 29.4358 20.3151 30.2862 22.2048 30.2862C23.6805 30.2862 25.2642 29.5244 25.9661 28.0718C25.9841 28.5324 26.092 28.9753 26.29 29.3827C27.0818 30.9416 29.6734 30.0204 29.6734 30.0204V29.7193C28.5216 29.9142 28.4316 28.5855 28.4316 28.2666ZM25.9661 26.7077C25.9661 27.4517 25.6961 28.0541 25.1382 28.4969C24.5983 28.9221 24.0584 29.1524 23.4825 29.1524C22.3488 29.1524 21.6109 28.4261 21.6109 27.0974C21.6109 26.4597 21.9708 25.8751 22.2588 25.5385C22.4927 25.3082 22.7627 25.1133 23.0686 24.9716C23.4645 24.7767 23.6625 24.6705 23.9325 24.5465L24.9942 24.1567C25.5161 23.9618 25.8401 23.8378 25.9841 23.767L25.9661 26.7077Z" fill="black"/>
<path d="M77.0047 18.7001H68.0244V12.7832H77.0047L75.1151 15.7416L77.0047 18.7001Z" fill="black"/>
<path d="M58.7356 28.5671C57.6198 27.4333 57.0079 25.9275 57.0259 24.3509C57.0079 23.5714 57.1519 22.8097 57.4578 22.0833C57.7458 21.357 58.1957 20.7016 58.7356 20.1524C59.8694 18.9832 61.2551 18.3809 62.8748 18.3809C64.4765 18.3809 65.8622 18.9655 66.996 20.1524C67.5539 20.7016 68.0038 21.357 68.2918 22.0656C68.5977 22.7919 68.7417 23.5537 68.7237 24.3332C68.7417 25.1126 68.5797 25.8921 68.2918 26.6007C67.9858 27.327 67.5539 27.9825 66.996 28.5317C65.8622 29.6832 64.4765 30.2678 62.8748 30.2678C61.2551 30.3032 59.8694 29.7186 58.7356 28.5671ZM64.9624 20.3472C64.5125 19.4792 63.9006 18.9655 63.1987 18.8237C61.777 18.5403 60.4993 19.9752 60.0313 22.2605C59.8334 23.288 59.7794 24.3332 59.8874 25.3784C59.9953 26.4236 60.2833 27.4333 60.7512 28.3722C61.2011 29.2403 61.813 29.754 62.5149 29.8957C63.9366 30.1792 65.2503 28.6734 65.7182 26.3704C66.1322 24.4395 65.9342 22.0833 64.9624 20.3472Z" fill="black"/>
<path d="M45.0794 27.7517V18.6992H36.945V18.9649C38.0248 19.1244 38.5467 19.9216 38.0608 21.2325C35.5233 27.982 35.6852 27.6808 35.5233 28.23C35.3613 27.7163 34.9834 26.423 34.3895 24.8287C33.7956 23.2343 33.3997 22.1537 33.2377 21.6931C32.6078 19.8153 32.8238 19.1244 33.8316 19.0004V18.6992H28.5586V19.0004C29.3504 19.1598 30.0343 20.0456 30.6102 21.6222L31.42 23.6772C32.3019 25.8916 33.3457 28.9563 33.7056 30.0015H35.4513C36.0092 28.3894 38.2767 21.9765 38.5827 21.3211C38.9066 20.577 39.2845 20.0101 39.6985 19.6204C39.8964 19.4078 40.1484 19.2484 40.4183 19.1421C40.6883 19.0358 40.9762 18.9827 41.2642 18.9827C41.2642 18.9827 42.5419 18.9827 42.5419 20.1873V21.1971C42.5419 21.2148 42.5419 21.2148 42.5419 21.2325V27.7694C42.5419 29.0272 41.912 29.6295 41.2642 29.7181V30.0192H46.3032V29.7181C45.6373 29.6118 45.0794 29.0272 45.0794 27.7517Z" fill="black"/>
</svg>
