<svg width="66" height="48" viewBox="0 0 66 48" fill="none" xmlns="http://www.w3.org/2000/svg">
<path d="M5.34613 14.4992H15.0749C17.9304 14.523 19.9996 15.3423 21.2824 16.9556C22.5653 18.5688 22.9886 20.7724 22.553 23.5661C22.3838 24.8427 22.0085 26.0948 21.4277 27.323C20.8632 28.5623 20.0758 29.6886 19.1044 30.6463C17.8941 31.8984 16.5996 32.6931 15.2201 33.0304C13.8407 33.3678 12.4126 33.5362 10.9365 33.5362H6.58038L5.20092 40.3996H0.155029L5.34613 14.4992ZM9.59339 18.6172L7.41531 29.4542C7.56052 29.4781 7.70572 29.4904 7.85093 29.4904H8.35915C10.6824 29.5142 12.6187 29.2859 14.1674 28.804C15.716 28.2983 16.7571 26.5405 17.2893 23.53C17.7249 21.0014 17.2893 19.5442 15.9824 19.1591C14.6996 18.774 13.0907 18.5934 11.1544 18.6172C10.8639 18.6411 10.5859 18.6534 10.3194 18.6534H9.55709L9.59339 18.6172ZM28.3009 7.59961H33.3105L31.8948 14.4992H36.3962C38.8647 14.5476 40.7037 15.0533 41.914 16.0163C43.1482 16.9794 43.5112 18.8101 43.003 21.5071L40.5708 33.5362H35.4886L37.8119 22.0489C38.0537 20.8446 37.9811 19.9899 37.5941 19.4842C37.2071 18.9785 36.3722 18.7256 35.0893 18.7256L31.0599 18.6895L28.0831 33.5362H23.0735L28.3009 7.59961ZM48.3825 14.4992H58.1112C60.9667 14.523 63.0359 15.3423 64.3188 16.9556C65.6017 18.5688 66.025 20.7724 65.5893 23.5661C65.4202 24.8427 65.0448 26.0948 64.464 27.323C63.8995 28.5623 63.1121 29.6886 62.1407 30.6463C60.9304 31.8984 59.6359 32.6931 58.2565 33.0304C56.877 33.3678 55.4489 33.5362 53.9729 33.5362H49.6167L48.2373 40.3996H43.1914L48.3825 14.4992ZM52.6297 18.6172L50.4517 29.4542C50.5969 29.4781 50.7421 29.4904 50.8873 29.4904H51.3955C53.7188 29.5142 55.6551 29.2859 57.2037 28.804C58.7523 28.2983 59.7934 26.5405 60.3256 23.53C60.7613 21.0014 60.3256 19.5442 59.0188 19.1591C57.7359 18.774 56.127 18.5934 54.1907 18.6172C53.9003 18.6411 53.6222 18.6534 53.3558 18.6534H52.5934L52.6297 18.6172Z" fill="black"/>
</svg>
