<svg width="48" height="48" viewBox="0 0 48 48" fill="none" xmlns="http://www.w3.org/2000/svg">
<path d="M6.07861 23.9996V6.12305H41.8317V41.8762H6.07861" fill="black"/>
<path d="M13.9192 23.6906V25.1475H18.5671V38.3762H21.8653V25.1475H26.5132V23.7174C26.5132 22.9129 26.5132 22.2604 26.4775 22.2426C26.4775 22.2158 23.644 22.2068 20.2028 22.2068L13.946 22.2336V23.6995L13.9192 23.6906ZM34.808 22.1979C35.7197 22.4124 36.4168 22.8236 37.0425 23.4761C37.3732 23.8336 37.8648 24.4593 37.9006 24.6202C37.9006 24.6738 36.3543 25.7196 35.4158 26.3006C35.38 26.3274 35.237 26.1754 35.094 25.943C34.6292 25.2816 34.1555 24.9956 33.4136 24.9419C32.341 24.8704 31.6259 25.4335 31.6259 26.3721C31.6259 26.6581 31.6796 26.819 31.7868 27.0514C32.0282 27.543 32.4751 27.8379 33.8605 28.4457C36.4168 29.5451 37.5252 30.2692 38.1956 31.306C38.9553 32.468 39.1251 34.2914 38.6157 35.6589C38.0436 37.1516 36.6492 38.1617 34.656 38.4924C34.0303 38.5996 32.6002 38.5818 31.9298 38.4656C30.4997 38.1974 29.1321 37.4823 28.2919 36.5617C27.9612 36.2042 27.3266 35.2478 27.3624 35.1852L27.702 34.9707L29.0428 34.1931L30.0528 33.6031L30.2852 33.916C30.5801 34.3808 31.2416 35.0064 31.6259 35.221C32.7879 35.8198 34.3432 35.7394 35.1119 35.0422C35.4426 34.7383 35.5856 34.4165 35.5856 33.9696C35.5856 33.5584 35.523 33.3707 35.3174 33.0579C35.0314 32.6646 34.4594 32.3428 32.8505 31.6278C31.0002 30.8412 30.2137 30.3407 29.4807 29.572C29.0606 29.1072 28.6763 28.3832 28.4975 27.7843C28.3635 27.2659 28.3188 25.9967 28.4439 25.4872C28.8282 23.6995 30.1779 22.4482 32.1086 22.0906C32.7343 21.9655 34.2091 22.0191 34.8258 22.18L34.808 22.1979Z" fill="white"/>
</svg>
