<svg width="48" height="48" viewBox="0 0 48 48" fill="none" xmlns="http://www.w3.org/2000/svg">
<path d="M37.532 11.1699C37.5033 10.9587 37.3207 10.8418 37.1698 10.8289C37.0192 10.8162 33.8316 10.5768 33.8316 10.5768C33.8316 10.5768 31.6177 8.34959 31.3747 8.10308C31.1316 7.85671 30.6568 7.93164 30.4724 7.98662C30.4453 7.99472 29.9888 8.13751 29.2335 8.37433C28.494 6.2179 27.1888 4.23623 24.8928 4.23623C24.8294 4.23623 24.7641 4.23883 24.6989 4.24259C24.0459 3.36749 23.237 2.9873 22.5383 2.9873C17.1896 2.9873 14.6342 9.76286 13.833 13.206C11.7546 13.8586 10.2782 14.3225 10.0896 14.3826C8.92947 14.7513 8.89278 14.7884 8.74045 15.8961C8.6258 16.7347 5.59033 40.5225 5.59033 40.5225L29.2434 45.0133L42.0594 42.2038C42.0594 42.2038 37.5603 11.3811 37.532 11.1699ZM27.9262 8.78403L25.9248 9.41175C25.9255 9.26882 25.9262 9.1282 25.9262 8.97442C25.9262 7.63421 25.7426 6.55512 25.4481 5.6997C26.6312 5.85015 27.4191 7.21423 27.9262 8.78403ZM23.9805 5.96545C24.3094 6.80063 24.5233 7.99921 24.5233 9.6166C24.5233 9.69935 24.5226 9.77501 24.5218 9.85154C23.2203 10.2601 21.8059 10.7036 20.3884 11.1486C21.1843 8.03595 22.6762 6.53255 23.9805 5.96545ZM22.3914 4.44108C22.6222 4.44108 22.8548 4.5205 23.0773 4.67573C21.3632 5.49311 19.5258 7.55175 18.7499 11.6628L15.4825 12.6882C16.3914 9.55251 18.5496 4.44108 22.3914 4.44108Z" fill="black"/>
<path d="M37.1687 10.8292C37.0181 10.8164 33.8305 10.577 33.8305 10.577C33.8305 10.577 31.6166 8.34984 31.3736 8.10333C31.2827 8.01161 31.16 7.96459 31.0318 7.94434L29.2434 45.0132L42.0583 42.204C42.0583 42.204 37.5592 11.3814 37.5309 11.1702C37.5022 10.9589 37.3196 10.842 37.1687 10.8292Z" fill="black"/>
<path d="M24.8911 18.0045L23.3108 22.7679C23.3108 22.7679 21.9263 22.0191 20.2291 22.0191C17.741 22.0191 17.6158 23.6013 17.6158 24C17.6158 26.1756 23.2122 27.0091 23.2122 32.1049C23.2122 36.1142 20.7028 38.6958 17.3192 38.6958C13.259 38.6958 11.1826 36.1351 11.1826 36.1351L12.2698 32.4953C12.2698 32.4953 14.4041 34.3521 16.2051 34.3521C17.3819 34.3521 17.8606 33.4132 17.8606 32.7272C17.8606 29.8893 13.2693 29.7628 13.2693 25.0997C13.2693 21.1749 16.0492 17.377 21.6607 17.377C23.8229 17.377 24.8911 18.0045 24.8911 18.0045Z" fill="#F0F0F0"/>
</svg>
