<svg width="120" height="48" viewBox="0 0 120 48" fill="none" xmlns="http://www.w3.org/2000/svg">
<path d="M109.877 19.0996C109.587 19.0996 109.305 19.1597 109.055 19.3015L101.152 23.8789C100.641 24.1746 100.33 24.7327 100.33 25.3266V34.4649C100.33 35.0583 100.641 35.6157 101.152 35.9121L103.216 37.1071C104.219 37.6027 104.589 37.595 105.045 37.595C106.53 37.595 107.377 36.6914 107.377 35.1212V26.1006C107.377 25.9731 107.267 25.8819 107.142 25.8819H106.153C106.026 25.8819 105.918 25.9731 105.918 26.1006V35.1212C105.918 35.8171 105.195 36.5172 104.022 35.9289L101.874 34.6668C101.798 34.6254 101.74 34.5522 101.74 34.4649V25.3263C101.74 25.2398 101.797 25.1516 101.874 25.1076L109.76 20.5472C109.796 20.5264 109.836 20.5153 109.877 20.5153C109.919 20.5153 109.959 20.5264 109.995 20.5472L117.881 25.1079C117.956 25.1532 118.015 25.2372 118.015 25.3268V34.4651C118.015 34.5524 117.972 34.6417 117.898 34.6838L109.995 39.2445C109.927 39.2849 109.834 39.2849 109.76 39.2445L107.73 38.0329C107.699 38.0161 107.664 38.0072 107.629 38.0072C107.594 38.0072 107.559 38.0161 107.528 38.0329C106.968 38.3514 106.863 38.3884 106.337 38.5713C106.208 38.6167 106.011 38.6871 106.404 38.9081L109.055 40.4729C109.305 40.6176 109.589 40.6931 109.878 40.6919C110.166 40.6937 110.45 40.6182 110.7 40.4732L118.603 35.9123C119.114 35.6141 119.425 35.0586 119.425 34.4651V25.3266C119.425 24.7329 119.114 24.1758 118.603 23.8794L110.7 19.3019C110.452 19.16 110.168 19.0998 109.878 19.0998L109.877 19.0996Z" fill="black"/>
<path d="M111.988 25.6299C109.738 25.6299 108.398 26.5905 108.398 28.1881C108.398 29.9208 109.728 30.3971 111.888 30.6113C114.472 30.8651 114.673 31.2457 114.673 31.7558C114.673 32.6406 113.97 33.0179 112.308 33.0179C110.219 33.0179 109.76 32.4949 109.606 31.4529C109.588 31.3411 109.502 31.2508 109.388 31.2508H108.364C108.238 31.2508 108.129 31.3598 108.129 31.4866C108.129 32.8205 108.853 34.398 112.308 34.398C114.808 34.398 116.251 33.4135 116.251 31.6884C116.251 29.9786 115.085 29.5194 112.66 29.1978C110.209 28.8725 109.975 28.7132 109.975 28.1376C109.975 27.6623 110.173 27.0265 111.988 27.0265C113.61 27.0265 114.21 27.3774 114.455 28.4741C114.477 28.5771 114.567 28.6592 114.673 28.6592H115.697C115.76 28.6592 115.821 28.6203 115.865 28.575C115.907 28.5265 115.938 28.472 115.932 28.4068C115.773 26.5182 114.518 25.6299 111.988 25.6299Z" fill="black"/>
<path d="M63.4154 7.11925C63.3271 7.11931 63.2402 7.14244 63.1635 7.18638C63.0873 7.23112 63.024 7.295 62.9799 7.37174C62.9358 7.44848 62.9123 7.53543 62.9119 7.62401V20.4985C62.9119 20.6248 62.8534 20.738 62.7442 20.8014C62.6907 20.8326 62.6299 20.8491 62.568 20.8491C62.5061 20.8491 62.4453 20.8326 62.3919 20.8014L60.2944 19.5898C60.1414 19.501 59.9678 19.4542 59.791 19.4542C59.6143 19.4542 59.4407 19.501 59.2877 19.5898L50.9149 24.4365C50.6019 24.6177 50.4116 24.966 50.4116 25.3286V35.0222C50.4116 35.3843 50.6022 35.716 50.9149 35.8972L59.2877 40.7442C59.4406 40.8332 59.6142 40.8801 59.791 40.8801C59.9678 40.8801 60.1415 40.8332 60.2944 40.7442L68.6672 35.8972C68.8205 35.8087 68.9478 35.6812 69.0362 35.5276C69.1246 35.3739 69.171 35.1996 69.1707 35.0222V10.8554C69.1704 10.6738 69.1222 10.4956 69.0308 10.3389C68.9395 10.1821 68.8083 10.0525 68.6506 9.96327L63.667 7.16954C63.5889 7.1258 63.5021 7.11808 63.4154 7.11925ZM9.55425 19.2195C9.39474 19.2258 9.24456 19.2539 9.10137 19.3372L0.728359 24.1841C0.574983 24.2725 0.447642 24.4 0.359258 24.5536C0.270873 24.7073 0.224589 24.8817 0.225102 25.0591L0.241893 38.0685C0.241893 38.2494 0.334942 38.4175 0.493521 38.5059C0.569548 38.5518 0.656572 38.576 0.745267 38.576C0.833962 38.576 0.920985 38.5518 0.997012 38.5059L5.96359 35.6451C6.27818 35.4575 6.48364 35.1314 6.48364 34.7698V28.6944C6.48364 28.3319 6.6737 27.9993 6.98713 27.8192L9.10114 26.5907C9.25398 26.5016 9.42782 26.4551 9.60463 26.456C9.7772 26.456 9.95444 26.4993 10.1079 26.5907L12.2221 27.8192C12.3756 27.9075 12.5031 28.035 12.5915 28.1887C12.68 28.3424 12.7262 28.5169 12.7256 28.6944V34.7696C12.7256 35.1312 12.9332 35.4596 13.2457 35.6448L18.2122 38.5059C18.2883 38.5518 18.3753 38.576 18.464 38.576C18.5527 38.576 18.6397 38.5518 18.7157 38.5059C18.7923 38.4615 18.8558 38.3977 18.9 38.3209C18.9442 38.2441 18.9675 38.157 18.9676 38.0683L18.9839 25.0591C18.9849 24.8816 18.9388 24.707 18.8504 24.5533C18.762 24.3995 18.6344 24.2721 18.4807 24.1841L10.1079 19.3372C9.96633 19.2539 9.81568 19.2261 9.655 19.2195H9.55425ZM84.7919 19.3372C84.617 19.3372 84.4456 19.3816 84.2887 19.4719L75.9159 24.3188C75.7626 24.4073 75.6353 24.5348 75.5469 24.6884C75.4585 24.8421 75.4121 25.0164 75.4124 25.1938V34.8875C75.4124 35.2521 75.6172 35.5824 75.9325 35.7627L84.2383 40.5086C84.545 40.684 84.9195 40.6974 85.2283 40.525L90.262 37.7147C90.4218 37.6258 90.5297 37.4597 90.5304 37.2773C90.5313 37.1884 90.5084 37.101 90.4641 37.024C90.4199 36.947 90.3559 36.8834 90.2788 36.8396L81.8557 31.9927C81.698 31.9024 81.5872 31.7197 81.5872 31.5382V28.5092C81.5872 28.3279 81.6992 28.1618 81.8557 28.0715L84.4732 26.5568C84.5497 26.5124 84.6365 26.489 84.7249 26.489C84.8133 26.489 84.9001 26.5124 84.9766 26.5568L87.5939 28.0715C87.6706 28.1157 87.7343 28.1795 87.7785 28.2563C87.8227 28.3331 87.8459 28.4202 87.8458 28.5089V30.8987C87.8455 30.9874 87.8687 31.0746 87.9129 31.1514C87.9571 31.2282 88.0207 31.2919 88.0974 31.3361C88.2543 31.4271 88.4442 31.4273 88.6007 31.3361L93.6178 28.4084C93.7709 28.3195 93.898 28.1919 93.9863 28.0383C94.0747 27.8847 94.1213 27.7105 94.1213 27.5331V25.1941C94.1213 24.8327 93.9301 24.5003 93.6178 24.3188L85.2954 19.4719C85.1424 19.3831 84.9687 19.3365 84.7919 19.3372ZM59.7573 26.5739C59.8012 26.5739 59.8525 26.5846 59.8917 26.6073L62.761 28.2734C62.8389 28.3185 62.8953 28.4021 62.8953 28.4921V31.8243C62.8953 31.9148 62.8394 31.9981 62.761 32.0432L59.8917 33.7093C59.8533 33.7313 59.81 33.7428 59.7659 33.7428C59.7217 33.7428 59.6784 33.7313 59.64 33.7093L56.7709 32.0432C56.6928 31.9978 56.6366 31.9148 56.6366 31.8243V28.4921C56.6366 28.4018 56.693 28.319 56.7709 28.2734L59.64 26.6075C59.6753 26.5855 59.716 26.574 59.7576 26.5741L59.7573 26.5739Z" fill="black"/>
<path d="M34.7086 18.8213C34.5342 18.8213 34.3616 18.8657 34.2054 18.956L25.8326 23.7861C25.5194 23.9669 25.3291 24.3159 25.3291 24.678V34.3716C25.3291 34.7342 25.5196 35.0654 25.8326 35.2469L34.2054 40.0936C34.3583 40.1827 34.5319 40.2296 34.7087 40.2296C34.8856 40.2296 35.0592 40.1827 35.2121 40.0936L43.5849 35.2469C43.7382 35.1583 43.8654 35.0308 43.9538 34.8771C44.0422 34.7234 44.0885 34.549 44.0881 34.3716V24.678C44.0881 24.3154 43.8979 23.9669 43.5849 23.7861L35.2121 18.956C35.0591 18.8674 34.8854 18.8209 34.7086 18.8213ZM84.7776 27.4717C84.7443 27.4717 84.7072 27.4717 84.6771 27.4886L83.0663 28.431C83.0363 28.4477 83.0112 28.4721 82.9935 28.5016C82.9758 28.5312 82.9662 28.5649 82.9656 28.5994V30.4505C82.9656 30.5202 83.0057 30.584 83.0663 30.6189L84.6771 31.5444C84.7375 31.5795 84.8019 31.5795 84.8616 31.5444L86.4723 30.6186C86.5022 30.6018 86.5273 30.5775 86.5449 30.548C86.5626 30.5185 86.5723 30.4849 86.573 30.4505V28.5991C86.5723 28.5647 86.5626 28.5311 86.5449 28.5016C86.5273 28.4721 86.5022 28.4478 86.4723 28.431L84.8616 27.4883C84.8317 27.4708 84.8112 27.4717 84.7776 27.4717Z" fill="black"/>
</svg>
