<svg width="126" height="48" viewBox="0 0 126 48" fill="none" xmlns="http://www.w3.org/2000/svg">
<path d="M74.4121 21.6306H77.7055V33.4753H74.4121V31.9355C73.2358 33.7122 71.7067 33.8306 70.7658 33.8306C67.1195 33.8306 64.767 30.9879 64.767 27.5529C64.767 23.9995 67.1195 21.2752 70.5305 21.2752C71.4715 21.2752 73.2358 21.3937 74.2944 23.1704V21.6306H74.4121ZM68.2957 27.5529C68.2957 29.4481 69.5895 30.8694 71.5891 30.8694C73.4711 30.8694 74.8826 29.4481 74.8826 27.5529C74.8826 25.6578 73.5887 24.2364 71.5891 24.2364C69.7072 24.2364 68.2957 25.6578 68.2957 27.5529ZM84.1747 24.4733V33.4753H80.8813V24.4733H79.5875V21.6306H80.8813V17.6034H84.1747V21.6306H86.4096V24.4733H84.1747ZM94.1727 24.4733C93.3493 23.7626 92.6436 23.6442 92.2907 23.6442C91.4674 23.6442 90.9969 23.9995 90.9969 24.5917C90.9969 24.9471 91.1145 25.3024 92.0555 25.6578L92.8788 25.8947C93.8198 26.25 95.2313 26.6053 95.8194 27.5529C96.1723 28.0267 96.4075 28.7374 96.4075 29.5665C96.4075 30.6325 96.0546 31.6986 95.1137 32.5277C94.1727 33.3568 92.9965 33.8306 91.585 33.8306C89.1149 33.8306 87.8211 32.6461 86.9977 31.817L88.762 29.8034C89.4678 30.5141 90.4088 31.2248 91.3497 31.2248C92.2907 31.2248 92.9964 30.751 92.9964 29.9219C92.9964 29.2112 92.4083 28.8558 91.9379 28.7374L91.2321 28.5005C90.4087 28.1452 89.4678 27.7898 88.762 27.0791C88.1739 26.4869 87.8211 25.7762 87.8211 24.8286C87.8211 23.6442 88.4092 22.6966 88.9973 22.1044C89.9383 21.3937 91.1145 21.2752 92.0555 21.2752C92.8788 21.2752 94.2903 21.3937 95.8194 22.5781L94.1727 24.4733ZM101.348 23.1704C102.524 21.5121 104.171 21.2752 105.112 21.2752C108.523 21.2752 110.875 23.9995 110.875 27.5529C110.875 31.1063 108.523 33.8306 104.994 33.8306C104.288 33.8306 102.524 33.7122 101.23 31.9355V33.4753H98.0542V13.5762H101.348V23.1704ZM100.995 27.5529C100.995 29.4481 102.289 30.8694 104.288 30.8694C106.17 30.8694 107.582 29.4481 107.582 27.5529C107.582 25.6578 106.288 24.2364 104.288 24.2364C102.289 24.2364 100.995 25.6578 100.995 27.5529ZM116.286 31.6986L110.64 21.6306H114.521L118.168 28.382L121.461 21.6306H125.225L115.815 39.753H112.051L116.286 31.6986ZM63.9437 23.6442H55.7101V26.9607H60.0621C59.3564 29.2112 57.7096 30.751 54.6515 30.751C51.2404 30.751 48.7703 27.9083 48.7703 24.4733C48.7703 21.0383 51.1228 18.0772 54.5338 18.0772C56.4158 18.0772 58.2978 19.0247 59.474 20.5645L62.1793 18.7878C60.415 16.3005 57.592 14.8791 54.5338 14.8791C49.3584 14.8791 45.124 19.1432 45.124 24.4733C45.124 29.8034 49.1232 34.0675 54.5338 34.0675C59.9445 34.0675 63.9437 29.8034 63.9437 24.4733C64.0613 24.118 63.9437 23.8811 63.9437 23.6442Z" fill="black"/>
<path d="M16.892 7.41699C7.83503 7.41699 0.424805 14.8792 0.424805 23.9996C0.424805 33.12 7.83503 40.5821 16.892 40.5821C25.9489 40.5821 33.3592 33.12 33.3592 23.9996C33.3592 14.8792 25.9489 7.41699 16.892 7.41699ZM7.71741 33.2384C5.24733 30.751 3.95349 27.4345 3.95349 24.2365L16.7744 37.0287C13.4809 36.9103 10.1875 35.7258 7.71741 33.2384ZM19.7149 36.6734L4.30635 21.1568C5.6002 15.3529 10.7756 10.9704 16.892 10.9704C21.244 10.9704 25.0079 13.1024 27.3604 16.3005L25.5961 17.8403C23.5965 15.116 20.4207 13.3393 16.892 13.3393C12.3047 13.3393 8.42315 16.3005 6.89405 20.4462L20.4207 34.0676C23.8317 32.8831 26.4194 29.9219 27.2428 26.3685H21.5969V23.9996H29.8305C29.8305 30.1588 25.4784 35.3705 19.7149 36.6734Z" fill="black"/>
</svg>
