<svg width="77" height="48" viewBox="0 0 77 48" fill="none" xmlns="http://www.w3.org/2000/svg">
<path fill-rule="evenodd" clip-rule="evenodd" d="M5.09049 16.7241L7.86187 24.2458L10.7657 16.7241H14.8878L7.83901 34.1421H3.76195L5.84687 28.7449L0.835938 16.7241H5.09049ZM48.6291 16.4574C52.3512 16.4574 55.0654 19.3006 55.0654 23.1921C55.0654 27.0837 52.3512 29.9276 48.6291 29.9276C47.2555 29.9276 46.0991 29.5695 45.2163 28.8792L45.1592 28.8336L45.1101 28.7938V34.1381H41.1379V16.7241H44.6502V18.0259L44.6704 18.0034C45.5357 17.0319 46.8447 16.4945 48.4624 16.4594L48.5477 16.4581L48.6291 16.4574ZM22.1228 16.4574C26.2214 16.4574 29.1266 19.245 29.1266 23.1921C29.1266 27.1227 26.212 29.9276 22.1228 29.9276C18.0108 29.9276 15.0915 27.1267 15.0915 23.1921C15.0915 19.241 18.0007 16.4574 22.1228 16.4574ZM35.7444 13.8584V16.7241H39.012V20.1014H35.7444V24.7633C35.7444 25.8064 36.2587 26.3802 37.196 26.4152L37.2417 26.4159L37.2881 26.4166C37.9235 26.4166 38.4048 26.2524 38.8358 25.8447L38.8762 25.8057L38.9831 25.6978H39.0126V29.4232L38.8909 29.4808C38.2368 29.7886 37.834 29.9276 36.7193 29.9276C33.5701 29.9276 31.8408 28.2399 31.7736 25.0883L31.7722 24.9923V24.8963L31.7716 20.1014H30.3341V16.7241H31.8798V13.8584H35.7444ZM63.7453 16.4574C67.8438 16.4574 70.749 19.245 70.749 23.1921C70.749 27.1227 67.8344 29.9276 63.7453 29.9276C59.6332 29.9276 56.714 27.1267 56.714 23.1921C56.714 19.241 59.6238 16.4574 63.7453 16.4574ZM73.987 25.6422C75.1891 25.6422 76.1634 26.6019 76.1634 27.7846C76.1634 28.9679 75.1885 29.9276 73.987 29.9276C72.7849 29.9276 71.8106 28.9679 71.8106 27.7846C71.8106 26.6012 72.7855 25.6422 73.987 25.6422ZM48.0341 19.9684C46.2443 19.9684 45.0287 21.2722 45.0287 23.1921C45.0287 25.1128 46.2443 26.4166 48.0341 26.4166C49.8467 26.4166 51.0663 25.1167 51.0663 23.1921C51.0663 21.2682 49.8467 19.9684 48.0341 19.9684ZM22.1222 19.9684C20.327 19.9684 19.0906 21.2788 19.0906 23.1921C19.0906 25.1061 20.327 26.4166 22.1228 26.4166C23.8951 26.4166 25.1282 25.1022 25.1282 23.1921C25.1282 21.2828 23.8944 19.9684 22.1222 19.9684ZM63.7453 19.9684C61.9501 19.9684 60.713 21.2788 60.713 23.1921C60.713 25.1061 61.9501 26.4166 63.7453 26.4166C65.5175 26.4166 66.7506 25.1022 66.7506 23.1921C66.7506 21.2828 65.5175 19.9684 63.7453 19.9684Z" fill="black"/>
</svg>
