<svg width="47" height="48" viewBox="0 0 47 48" fill="none" xmlns="http://www.w3.org/2000/svg">
<path d="M44.4257 12.373C44.4412 12.4296 44.4491 12.488 44.4493 12.5466V21.6623C44.4493 21.7793 44.418 21.8942 44.3587 21.9954C44.2993 22.0967 44.2139 22.1806 44.1111 22.2388L36.3646 26.6438V35.3748C36.3646 35.6124 36.2367 35.8317 36.0281 35.9513L19.8578 45.1451C19.8208 45.1658 19.7804 45.1791 19.7401 45.1933C19.7249 45.1982 19.7106 45.2074 19.6946 45.2115C19.5816 45.2409 19.4628 45.2409 19.3498 45.2115C19.3312 45.2066 19.3144 45.1966 19.2968 45.1899C19.2597 45.1766 19.2211 45.165 19.1857 45.1451L3.01882 35.9513C2.91612 35.8931 2.83078 35.8091 2.77142 35.7079C2.71205 35.6066 2.68075 35.4917 2.68066 35.3748V8.02786C2.68066 7.96804 2.68908 7.90989 2.70422 7.85339C2.70926 7.83428 2.72104 7.81683 2.72777 7.79773C2.74039 7.76283 2.75217 7.72711 2.77067 7.69471C2.78329 7.67311 2.8018 7.65566 2.81694 7.63572C2.83628 7.60913 2.85395 7.58172 2.87666 7.55845C2.89601 7.53934 2.92125 7.52522 2.94312 7.50861C2.96751 7.48867 2.98938 7.46706 3.01714 7.45128L11.1019 2.85441C11.2042 2.79624 11.3202 2.76562 11.4383 2.76562C11.5564 2.76562 11.6725 2.79624 11.7748 2.85441L19.8587 7.45128H19.8604C19.8873 7.4679 19.91 7.48867 19.9344 7.50777C19.9563 7.52439 19.9807 7.53934 20 7.55762C20.0236 7.58172 20.0404 7.60913 20.0606 7.63572C20.0749 7.65566 20.0942 7.67311 20.106 7.69471C20.1253 7.72794 20.1363 7.76283 20.1497 7.79773C20.1565 7.81683 20.1682 7.83428 20.1733 7.85422C20.1888 7.91084 20.1967 7.96921 20.1968 8.02786V25.1085L26.9331 21.2776V12.5458C26.9331 12.4876 26.9415 12.4287 26.9567 12.373C26.9626 12.3531 26.9735 12.3356 26.9802 12.3165C26.9937 12.2816 27.0055 12.2459 27.024 12.2135C27.0366 12.1919 27.0551 12.1744 27.0694 12.1545C27.0896 12.1279 27.1064 12.1005 27.13 12.0772C27.1493 12.0581 27.1737 12.044 27.1956 12.0274C27.2208 12.0074 27.2427 11.9858 27.2696 11.97L35.3551 7.37318C35.4575 7.31493 35.5735 7.28427 35.6916 7.28427C35.8097 7.28427 35.9258 7.31493 36.0281 7.37318L44.112 11.97C44.1406 11.9867 44.1624 12.0074 44.1877 12.0265C44.2087 12.0432 44.2331 12.0581 44.2524 12.0764C44.276 12.1005 44.2928 12.1279 44.313 12.1545C44.3282 12.1744 44.3467 12.1919 44.3584 12.2135C44.3778 12.2459 44.3887 12.2816 44.4022 12.3165C44.4098 12.3356 44.4207 12.3531 44.4257 12.373ZM43.1017 21.2776V13.6973L40.2728 15.3057L36.3646 17.5282V25.1085L43.1025 21.2776H43.1017ZM35.0178 34.9901V27.4048L31.1736 29.5732L20.196 35.7611V43.4178L35.0178 34.9901ZM4.02826 9.17853V34.9901L18.8484 43.417V35.7619L11.1061 31.4342L11.1035 31.4326L11.1002 31.4309C11.0741 31.416 11.0522 31.3944 11.0278 31.3761C11.0068 31.3595 10.9824 31.3462 10.9639 31.3279L10.9622 31.3254C10.9403 31.3046 10.9252 31.2789 10.9067 31.2556C10.8899 31.2332 10.8697 31.2141 10.8562 31.1908L10.8554 31.1883C10.8402 31.1634 10.831 31.1335 10.8201 31.1052C10.8091 31.0803 10.7948 31.057 10.7881 31.0305C10.7797 30.9989 10.778 30.9648 10.7746 30.9324C10.7713 30.9075 10.7645 30.8826 10.7645 30.8577V13.0094L6.85719 10.7861L4.02826 9.17853ZM11.4392 4.19866L4.70373 8.02786L11.4375 11.8571L18.1721 8.02703L11.4375 4.19866H11.4392ZM14.9419 28.096L18.8492 25.8745V9.17853L16.0203 10.787L12.1121 13.0094V29.7053L14.9419 28.096ZM35.6916 8.71743L28.957 12.5466L35.6916 16.3758L42.4254 12.5458L35.6916 8.71743ZM35.0178 17.5282L31.1096 15.3057L28.2807 13.6973V21.2776L32.1881 23.4992L35.0178 25.1085V17.5282ZM19.5214 34.6104L29.3995 29.0407L34.3373 26.2575L27.6078 22.4308L19.8595 26.8365L12.7977 30.8518L19.5214 34.6104Z" fill="black"/>
</svg>
