<svg width="109" height="48" viewBox="0 0 109 48" fill="none" xmlns="http://www.w3.org/2000/svg">
<path d="M21.9195 36.3477H23.4176C23.7606 36.3477 24.0674 36.05 24.0855 35.7172V19.5332C24.0855 17.9393 22.7859 16.6432 21.1794 16.6432H19.2481C18.9051 16.6432 18.5983 16.3454 18.5983 16.0126V14.5414C18.5983 12.9475 17.2987 11.6514 15.6922 11.6514H3.25568C1.64922 11.6514 0.349609 12.93 0.349609 14.5414V30.8129C0.349609 32.3893 1.64922 33.6854 3.25568 33.7029H17.6597C17.786 33.7029 17.9124 33.738 18.0207 33.808L21.5404 36.2601C21.6487 36.3127 21.7931 36.3477 21.9195 36.3477ZM18.4178 31.3734H3.29178C2.93077 31.3734 2.64197 31.0932 2.64197 30.7429V14.5764C2.64197 14.2261 2.93077 13.9458 3.29178 13.9458H15.6561C15.999 13.9458 16.3059 14.2436 16.3059 14.5764V16.0126C16.3059 16.3629 16.0171 16.6432 15.6561 16.6432H6.45054C6.10759 16.6432 5.80074 16.9409 5.80074 17.2737V28.0631C5.80074 28.4134 6.08954 28.6936 6.45054 28.6936H17.9485C18.2914 28.6936 18.5983 28.3958 18.5983 28.0631V19.5682C18.5983 19.2179 18.8871 18.9377 19.2481 18.9377H21.1253C21.4682 18.9377 21.7751 19.2354 21.7751 19.5682V32.7921C21.7751 33.1249 21.4141 33.3001 21.1614 33.1249L18.8149 31.496C18.6705 31.4085 18.5441 31.3734 18.4178 31.3734ZM15.9629 26.3816H8.418C8.25555 26.3816 8.11115 26.259 8.11115 26.0663V19.2179C8.11115 19.0603 8.2375 18.9026 8.418 18.9026H15.9629C16.1254 18.9026 16.2698 19.0252 16.2698 19.2179V26.0663C16.2698 26.2415 16.1434 26.3816 15.9629 26.3816ZM82.3873 15.1019C83.344 15.1019 84.1201 14.3312 84.1201 13.3854C84.1201 12.4396 83.344 11.6689 82.3873 11.6689C81.4306 11.6689 80.6545 12.4396 80.6545 13.3854C80.6545 14.3312 81.4306 15.1019 82.3873 15.1019ZM62.5322 17.624V16.6607H59.7344V28.606H62.5322V20.444L65.7993 19.0953V16.3104H65.7632L62.5322 17.624ZM51.666 16.6432C49.843 16.6432 48.3629 17.2387 47.2257 18.4297C46.7023 18.9902 46.3052 19.6208 46.0164 20.3739C45.7456 21.1095 45.6012 21.8977 45.6012 22.7034C45.6012 24.3849 46.0886 25.7686 47.0633 26.837C48.1463 28.0105 49.6264 28.5885 51.5036 28.5885C53.3447 28.5885 54.8068 27.993 55.9259 26.802C56.9728 25.6635 57.4962 24.2448 57.4962 22.5283C57.4962 20.8118 56.9728 19.4106 55.962 18.3246C54.9151 17.2037 53.471 16.6432 51.666 16.6432ZM53.8681 25.138C53.3447 25.7861 52.5866 26.1189 51.666 26.1189C50.6733 26.1189 49.843 25.7861 49.2293 25.1205C48.9405 24.8228 48.7058 24.4374 48.5614 23.9995C48.399 23.5617 48.3268 23.1238 48.3268 22.6509C48.3268 21.6875 48.5795 20.8994 49.121 20.2163C49.6986 19.4982 50.4928 19.1303 51.5036 19.1303C52.4963 19.1303 53.2905 19.4631 53.8501 20.1462C54.3735 20.7768 54.6623 21.6175 54.6623 22.6509C54.6443 23.6668 54.3916 24.5075 53.8681 25.138ZM80.9794 16.6607H83.7591V28.6235H80.9794V16.6607ZM38.4173 16.6432C36.8289 16.6432 35.5112 17.0986 34.5004 18.0269C33.5437 18.9026 33.0744 20.0061 33.0744 21.3372C33.0744 22.5108 33.4896 23.4916 34.3379 24.2798C33.6159 24.8578 33.2549 25.5409 33.2549 26.3466C33.2549 26.837 33.3271 27.2749 33.4354 27.6427C33.5437 28.028 33.7784 28.3433 34.1213 28.6235C32.8578 29.3066 32.2441 30.4276 32.2983 31.9514C32.3344 33.2826 32.912 34.3335 34.0311 35.1217C35.1682 35.9274 36.6664 36.3127 38.4895 36.3127C40.3306 36.3127 41.7024 35.9624 42.6229 35.2618C43.5615 34.5612 44.0308 33.5453 44.0308 32.2317C44.0308 30.918 43.6518 29.9021 42.9117 29.184C42.5146 28.7987 41.9912 28.5009 41.3594 28.2207C40.7096 27.958 39.8432 27.7478 38.7241 27.5726C37.587 27.3975 36.7928 27.2048 36.3054 26.9596C36.0708 26.872 35.9263 26.7494 35.8722 26.6443C35.8 26.5392 35.7819 26.3816 35.7819 26.1714C35.7819 25.9612 35.9263 25.681 36.1971 25.3132C36.8289 25.5234 37.5148 25.6285 38.2548 25.6285C39.771 25.6285 41.0165 25.1731 41.9912 24.2798C42.4244 23.8594 42.7673 23.369 43.002 22.8085C43.2366 22.248 43.363 21.635 43.363 20.9344C43.363 20.2513 43.2005 19.5857 42.8756 18.9902C42.8756 18.9902 42.8756 18.9727 42.8576 18.9727H44.0308V16.6257H38.4173V16.6432ZM36.4679 29.5518L37.0455 29.6394C38.67 29.8846 39.8252 30.1999 40.493 30.6203C41.0887 30.9881 41.3775 31.4785 41.3775 32.0915C41.3775 33.3701 40.4569 33.9832 38.6158 33.9832C37.5328 33.9832 36.6664 33.7555 35.9805 33.3351C35.6736 33.1425 35.439 32.8972 35.2765 32.6345C35.096 32.3718 35.0238 32.0565 35.0238 31.6887C35.0238 31.3209 35.1321 30.9355 35.3668 30.5327C35.6195 30.1474 35.9805 29.8321 36.4679 29.5518ZM39.9876 22.7209C39.5364 23.1238 39.0129 23.334 38.3992 23.334C37.587 23.334 36.9552 23.1063 36.4498 22.6684C36.2152 22.4757 36.0708 22.2305 35.9263 22.0028C35.818 21.7401 35.7458 21.4949 35.7458 21.2146C35.7458 20.9519 35.8 20.6717 35.9083 20.4089C36.2693 19.4981 37.0455 19.0603 38.2909 19.0603C39.031 19.0603 39.6266 19.2529 40.0418 19.6383C40.4569 20.0236 40.6916 20.5315 40.6916 21.1621C40.6916 21.7226 40.4569 22.2655 39.9876 22.7209ZM96.0693 19.2529C96.2859 19.7959 96.3942 20.4265 96.3942 21.1271V28.5885H93.6506V28.028C92.8203 28.3958 92.0622 28.5885 91.3763 28.5885C90.5098 28.5885 89.7878 28.5009 89.1741 28.3433C88.5604 28.1857 88.037 27.9405 87.6218 27.6427C86.7735 27.0122 86.3403 26.1014 86.3403 24.9103C86.3403 23.8594 86.8637 22.9661 87.9106 22.2655C89.0478 21.4949 90.6181 21.1095 92.5856 21.1095L93.0369 21.1271C93.091 21.1271 93.1271 21.1271 93.1813 21.1271C93.2354 21.1271 93.2896 21.1271 93.3437 21.1271C93.3979 21.1271 93.452 21.1446 93.4881 21.1446C93.5423 21.1446 93.5964 21.1446 93.6325 21.1621C93.5603 19.9886 93.0549 19.2705 92.0802 19.0953C91.7734 19.0252 91.4124 19.0077 91.0694 19.0077C90.6904 19.0077 90.3474 19.0428 90.0044 19.0953C89.6434 19.1654 89.3185 19.2529 88.9936 19.358C88.2897 19.5857 87.7482 19.8485 87.4413 20.1462L87.4052 20.1287L87.0623 17.6941C88.3619 17.011 89.8239 16.6782 91.3763 16.6782C93.8491 16.6432 95.4014 17.5014 96.0693 19.2529ZM93.6506 25.7511V24.2097V23.1763C93.434 23.1413 93.2354 23.1238 93.0188 23.1238H92.5676C90.925 23.1238 89.8781 23.4916 89.4268 24.2097C89.3005 24.4199 89.2283 24.6476 89.2283 24.8753C89.2283 25.1205 89.2824 25.3307 89.3546 25.5058C89.4449 25.681 89.5893 25.8386 89.7878 25.9612C90.1669 26.1889 90.7626 26.294 91.5207 26.294C92.2788 26.294 93.0008 26.1014 93.6506 25.7511ZM106.701 21.9328C107.17 22.1605 107.549 22.4232 107.838 22.7385C108.361 23.3165 108.65 24.0871 108.65 25.068C108.65 26.1014 108.235 26.9596 107.387 27.6077C106.52 28.2908 105.293 28.6235 103.704 28.6235C101.809 28.6235 100.311 28.3083 99.2641 27.6777V24.7352C99.2641 24.7177 99.3363 24.7877 99.4446 24.9103C99.5529 25.0329 99.7876 25.1731 100.094 25.3657C100.401 25.5584 100.78 25.716 101.177 25.8561C102.062 26.1539 102.982 26.3115 103.957 26.3115C105.239 26.3115 105.889 25.8737 105.889 25.0329C105.889 24.7702 105.762 24.56 105.509 24.4199C105.076 24.1922 104.426 24.0171 103.578 23.912C102.73 23.7894 102.026 23.6317 101.484 23.404C100.943 23.1763 100.492 22.9136 100.149 22.5983C99.5169 22.0028 99.1919 21.2497 99.1919 20.3039C99.1919 19.1479 99.6432 18.2371 100.528 17.589C101.412 16.9409 102.64 16.6082 104.21 16.6082C105.762 16.6082 107.08 17.046 108.181 17.9218C108.127 18.1145 108.091 18.3071 108.018 18.4823C107.838 18.9727 107.712 19.323 107.639 19.5332L107.387 20.1812C107.369 20.2513 107.351 20.2688 107.351 20.2688C107.333 20.2688 107.278 20.1812 107.17 20.0236C106.701 19.4806 105.961 19.1303 104.986 18.9552C104.679 18.8851 104.372 18.8676 104.047 18.8676C102.694 18.8676 102.008 19.2705 102.008 20.0762C102.008 20.3389 102.134 20.5666 102.423 20.7067C102.946 20.9869 103.686 21.1971 104.607 21.3372C105.528 21.5299 106.213 21.7051 106.701 21.9328ZM72.7666 16.6432C71.1782 16.6432 69.8605 17.0986 68.8497 18.0269C67.8931 18.9026 67.4238 20.0061 67.4238 21.3372C67.4238 22.5108 67.8389 23.4916 68.6873 24.2798C67.9653 24.8578 67.6043 25.5409 67.6043 26.3466C67.6043 26.837 67.6765 27.2749 67.7848 27.6427C67.8931 28.028 68.1277 28.3433 68.4707 28.6235C67.2072 29.3066 66.5935 30.4276 66.6476 31.9514C66.6837 33.2826 67.2613 34.3335 68.3804 35.1217C69.5176 35.9274 71.0157 36.3127 72.8388 36.3127C74.6799 36.3127 76.0517 35.9624 76.9723 35.2618C77.9109 34.5612 78.3802 33.5453 78.3802 32.2317C78.3802 30.918 78.0011 29.9021 77.2611 29.184C76.864 28.7987 76.3405 28.5009 75.7088 28.2207C75.059 27.958 74.1926 27.7478 73.0734 27.5726C71.9363 27.3975 71.1421 27.2048 70.6547 26.9596C70.4201 26.872 70.2757 26.7494 70.2215 26.6443C70.1493 26.5392 70.1313 26.3816 70.1313 26.1714C70.1313 25.9612 70.2757 25.681 70.5464 25.3132C71.1782 25.5234 71.8641 25.6285 72.6041 25.6285C74.1204 25.6285 75.3658 25.1731 76.3405 24.2798C76.7737 23.8594 77.1167 23.369 77.3513 22.8085C77.586 22.248 77.7123 21.635 77.7123 20.9344C77.7123 20.2513 77.5499 19.5857 77.225 18.9902C77.225 18.9902 77.225 18.9727 77.2069 18.9727H78.3802V16.6257H72.7666V16.6432ZM70.8172 29.5518L71.3948 29.6394C73.0193 29.8846 74.1745 30.1999 74.8424 30.6203C75.438 30.9881 75.7268 31.4785 75.7268 32.0915C75.7268 33.3701 74.8063 33.9832 72.9651 33.9832C71.8821 33.9832 71.0157 33.7555 70.3298 33.3351C70.023 33.1425 69.7883 32.8972 69.6259 32.6345C69.4454 32.3718 69.3732 32.0565 69.3732 31.6887C69.3732 31.3209 69.4815 30.9355 69.7161 30.5327C69.9688 30.1474 70.3298 29.8321 70.8172 29.5518ZM74.337 22.7209C73.8857 23.1238 73.3623 23.334 72.7486 23.334C71.9363 23.334 71.3045 23.1063 70.7991 22.6684C70.5825 22.4757 70.4201 22.2305 70.2757 22.0028C70.1674 21.7401 70.0952 21.4949 70.0952 21.2146C70.0952 20.9519 70.1493 20.6717 70.2576 20.4089C70.6186 19.4981 71.3948 19.0603 72.6403 19.0603C73.3803 19.0603 73.976 19.2529 74.3911 19.6383C74.8063 20.0236 75.0409 20.5315 75.0409 21.1621C75.0409 21.7226 74.8063 22.2655 74.337 22.7209Z" fill="black"/>
</svg>
