<svg width="48" height="48" viewBox="0 0 48 48" fill="none" xmlns="http://www.w3.org/2000/svg">
<path d="M44.649 23.9998C44.649 35.3102 35.3951 44.5641 24.0848 44.5641C12.7744 44.5641 3.52051 35.3102 3.52051 23.9998C3.52051 12.6895 12.7744 3.43555 24.0848 3.43555C35.3951 3.43555 44.649 12.6895 44.649 23.9998Z" fill="black"/>
<path d="M30.3551 20.7309C30.3551 20.7309 28.5763 26.3039 28.4426 26.7768C28.3912 26.3039 27.0956 16.2891 27.0956 16.2891C24.0624 16.2891 22.4481 18.438 21.5947 20.7309C21.5947 20.7309 19.4355 26.3244 19.2607 26.7974C19.2504 26.3553 18.9316 20.7926 18.9316 20.7926C18.7466 17.9959 16.1966 16.2993 14.1299 16.2993L16.6182 31.4758C19.7953 31.4655 21.5022 29.3165 22.3967 27.0339C22.3967 27.0339 24.2989 22.0985 24.3812 21.8723C24.4017 22.0882 25.7487 31.4758 25.7487 31.4758C28.9259 31.4758 30.643 29.4605 31.5684 27.2601L36.0103 16.2891C32.8639 16.2891 31.2085 18.438 30.3551 20.7309Z" fill="#F0F0F0"/>
</svg>
