<svg width="79" height="48" viewBox="0 0 79 48" fill="none" xmlns="http://www.w3.org/2000/svg">
<path d="M17.1521 32.5923H20.9159V15.0977H17.1521V32.5923ZM40.9901 22.4931V20.9396H40.9274H37.6339H37.4458V32.6233H40.9901V26.5017C40.9901 24.7304 42.9976 23.9537 44.4091 24.3267H44.4403V20.9396C42.9976 20.9084 41.6802 21.53 40.9901 22.4931ZM28.8829 29.8887C27.0323 29.8887 25.5581 28.4905 25.5581 26.7503C25.5581 25.0103 27.0636 23.6118 28.8829 23.6118C30.7335 23.6118 32.2076 25.0103 32.2076 26.7503C32.2076 28.4905 30.702 29.8887 28.8829 29.8887ZM32.1763 21.7164C31.1726 21.0018 29.9179 20.5978 28.5692 20.5978C25.119 20.5978 22.3588 23.3634 22.3588 26.7504C22.3588 30.1374 25.1503 32.9029 28.5692 32.9029C29.9179 32.9029 31.1411 32.4679 32.1763 31.7842V32.5923H35.2502V20.9086H32.1763V21.7164ZM53.2856 20.5978C51.874 20.5978 50.5252 21.0327 49.6471 22.2137V20.9084H49.5844H46.2909H46.1028V32.5923H49.6471V26.1909C49.6471 24.4198 50.8391 23.5497 52.3133 23.5497C53.8502 23.5497 54.7598 24.4821 54.7598 26.1599V32.5609H58.3043V25.1345C58.3042 22.4622 56.1084 20.5978 53.2856 20.5978ZM76.1827 28.4594C74.9594 28.4594 73.9557 29.4537 73.9557 30.6656C73.9557 31.8774 74.9594 32.8718 76.1827 32.8718C77.4059 32.8718 78.4096 31.8774 78.4096 30.6656C78.4096 29.4226 77.4059 28.4594 76.1827 28.4594ZM66.0515 29.8887C64.2008 29.8887 62.7267 28.4905 62.7267 26.7503C62.7267 25.0103 64.2321 23.6118 66.0515 23.6118C67.9021 23.6118 69.3763 25.0103 69.3763 26.7503C69.4077 28.4905 67.9019 29.8887 66.0515 29.8887ZM69.3764 21.7164C68.3726 21.0018 67.118 20.5978 65.7694 20.5978C62.3188 20.5978 59.5587 23.3634 59.5587 26.7504C59.5587 30.1374 62.3502 32.9029 65.7694 32.9029C67.118 32.9029 68.3412 32.4679 69.3764 31.7842V32.5923H72.4501V20.9086H69.3764V21.7164ZM74.6771 21.126H74.834C74.9279 21.126 74.9908 21.1883 74.9908 21.2503C74.9908 21.3436 74.9594 21.3748 74.834 21.3748H74.6771V21.126ZM74.6771 21.53H74.834L74.9908 21.8717H75.1477L74.9908 21.53C75.0848 21.4989 75.1477 21.4056 75.1477 21.2815C75.1477 21.126 75.0221 21.0016 74.834 21.0016H74.5203V21.8717H74.6772V21.53H74.6771ZM0.59082 32.5923H4.5116V15.0977H0.59082V32.5923ZM14.58 15.0977H10.7848C10.722 19.0441 8.40097 22.4621 5.07615 24.1402L10.9415 32.5923H15.7092L10.3769 24.9169C13.0117 22.3378 14.5173 18.8577 14.58 15.0977ZM74.8026 20.7533C75.179 20.7533 75.4925 21.0639 75.4925 21.4368C75.4925 21.8097 75.179 22.1205 74.8026 22.1205C74.4263 22.1205 74.1124 21.8097 74.1124 21.4368C74.1124 21.0639 74.4263 20.7533 74.8026 20.7533ZM74.8026 22.2758C75.2731 22.2758 75.6495 21.9029 75.6495 21.4367C75.6495 20.9706 75.2731 20.5977 74.8026 20.5977C74.3321 20.5977 73.9557 20.9706 73.9557 21.4367C73.9557 21.9029 74.3321 22.2758 74.8026 22.2758Z" fill="black"/>
</svg>
