<svg width="47" height="48" viewBox="0 0 47 48" fill="none" xmlns="http://www.w3.org/2000/svg">
<mask id="mask0_3071_28271" style="mask-type:luminance" maskUnits="userSpaceOnUse" x="2" y="2" width="43" height="44">
<path d="M2.55591 2.99121H44.5739V45.0095H2.55591V2.99121Z" fill="white"/>
</mask>
<g mask="url(#mask0_3071_28271)">
<path d="M5.542 23.9979C5.542 31.1321 9.68783 37.2968 15.6996 40.2187L7.10238 16.663C6.07177 18.9709 5.54005 21.4704 5.542 23.9979ZM35.7319 23.0884C35.7319 20.861 34.9318 19.3184 34.2456 18.1178C33.332 16.6332 32.476 15.376 32.476 13.8914C32.476 12.2346 33.7322 10.6924 35.5021 10.6924C35.582 10.6924 35.6578 10.7024 35.736 10.7068C32.5291 7.76917 28.2571 5.97559 23.565 5.97559C17.2686 5.97559 11.729 9.2061 8.50639 14.0992C8.92924 14.1119 9.32808 14.1205 9.66622 14.1205C11.5514 14.1205 14.4695 13.8917 14.4695 13.8917C15.441 13.8344 15.5556 15.2614 14.5854 15.3763C14.5854 15.3763 13.6087 15.4912 12.5222 15.5481L19.0855 35.0701L23.03 23.241L20.2216 15.5478C19.2511 15.4909 18.3317 15.376 18.3317 15.376C17.3605 15.319 17.4743 13.8341 18.4455 13.8914C18.4455 13.8914 21.4219 14.1201 23.1929 14.1201C25.0777 14.1201 27.9961 13.8914 27.9961 13.8914C28.9684 13.8341 29.0826 15.2611 28.1117 15.376C28.1117 15.376 27.1333 15.4909 26.0489 15.5478L32.5621 34.922L34.3594 28.9146C35.1389 26.4218 35.7319 24.6313 35.7319 23.0884Z" fill="black"/>
<path d="M23.8824 25.576L18.4749 41.2889C20.1281 41.7761 21.8427 42.0235 23.5662 42.0235C25.665 42.0235 27.6777 41.6603 29.5512 41.0019C29.5009 40.9232 29.458 40.8401 29.4229 40.7536L23.8824 25.576ZM39.3806 15.3525C39.4581 15.9266 39.502 16.5432 39.502 17.2058C39.502 19.0347 39.1604 21.0906 38.1316 23.6613L32.6264 39.5783C37.9845 36.4538 41.5885 30.6488 41.5885 23.9995C41.5933 20.9771 40.8338 18.0026 39.3806 15.3525Z" fill="black"/>
<path d="M23.5655 2.99121C11.9812 2.99121 2.55615 12.4156 2.55615 23.9998C2.55615 35.5855 11.9809 45.0099 23.5655 45.0099C35.1494 45.0099 44.5758 35.5858 44.5758 23.9998C44.5755 12.4156 35.1494 2.99121 23.5655 2.99121ZM23.5655 44.0465C12.5125 44.0465 3.51948 35.0536 3.51948 23.9998C3.51948 12.9472 12.5121 3.95488 23.5655 3.95488C34.6182 3.95488 43.6104 12.9472 43.6104 23.9998C43.6104 35.0536 34.6178 44.0465 23.5655 44.0465Z" fill="black"/>
</g>
</svg>
