<svg width="48" height="48" viewBox="0 0 48 48" fill="none" xmlns="http://www.w3.org/2000/svg">
<path d="M9.01613 34.7598L7.51122 33.8897L24.295 4.82036L25.8 5.69047L9.01613 34.7598Z" fill="black"/>
<path d="M7.16531 31.5666H40.7357V33.3068H7.16531V31.5666Z" fill="black"/>
<path d="M24.6208 42.2385L7.83013 32.5442L8.70024 31.0393L25.4909 40.7336L24.6208 42.2385ZM39.2075 16.9697L22.4154 7.27675L23.2855 5.77185L40.0762 15.4662L39.2075 16.9697Z" fill="black"/>
<path d="M8.70372 16.9669L7.83361 15.462L24.6393 5.76488L25.5094 7.26978L8.70372 16.9669Z" fill="black"/>
<path d="M38.8977 34.7591L22.1111 5.68698L23.616 4.81687L40.4026 33.889L38.8977 34.7591ZM8.49582 14.306H10.236V33.6947H8.49582V14.306ZM37.6746 14.306H39.4148V33.6947H37.6746V14.306Z" fill="black"/>
<path d="M24.3247 41.5025L23.5654 40.1864L38.1698 31.7548L38.9291 33.0709L24.3247 41.5025Z" fill="black"/>
<path d="M41.72 34.26C41.2339 35.0996 40.4348 35.7123 39.4978 35.9638C38.5608 36.2154 37.5623 36.0853 36.721 35.6021C35.8814 35.116 35.2688 34.3169 35.0172 33.3799C34.7657 32.4429 34.8957 31.4444 35.3789 30.6031C35.8651 29.7635 36.6642 29.1509 37.6012 28.8993C38.5381 28.6478 39.5367 28.7778 40.3779 29.261C42.1387 30.2775 42.7365 32.5102 41.7187 34.26M12.5207 17.3969C12.0346 18.2364 11.2355 18.8491 10.2985 19.1007C9.36148 19.3522 8.36298 19.2222 7.52169 18.739C6.68175 18.2528 6.06881 17.4535 5.81724 16.5161C5.56566 15.5788 5.69596 14.58 6.17959 13.7386C6.66575 12.899 7.46484 12.2863 8.40184 12.0348C9.33883 11.7832 10.3373 11.9133 11.1786 12.3965C12.0182 12.8826 12.6309 13.6817 12.8824 14.6187C13.134 15.5557 13.0039 16.5556 12.5207 17.3969ZM6.19053 34.26C5.70734 33.4188 5.57728 32.4202 5.82884 31.4833C6.08039 30.5463 6.69306 29.7472 7.53264 29.261C8.37392 28.7778 9.37242 28.6478 10.3094 28.8993C11.2464 29.1509 12.0455 29.7635 12.5317 30.6031C13.0149 31.4444 13.1449 32.4429 12.8934 33.3799C12.6418 34.3169 12.0291 35.116 11.1896 35.6021C9.42882 36.6077 7.19472 36.0112 6.19053 34.26ZM35.3899 17.3982C34.9067 16.5569 34.7766 15.5584 35.0282 14.6214C35.2797 13.6845 35.8924 12.8854 36.732 12.3992C37.5732 11.916 38.5717 11.7859 39.5087 12.0375C40.4457 12.2891 41.2448 12.9017 41.731 13.7413C42.2142 14.5826 42.3442 15.5811 42.0927 16.5181C41.8411 17.4551 41.2285 18.2542 40.3889 18.7403C39.5476 19.2235 38.5491 19.3536 37.6121 19.102C36.6751 18.8505 35.876 18.2378 35.3899 17.3982ZM23.9553 44.5208C23.2317 44.5208 22.5243 44.3062 21.9227 43.9041C21.3211 43.5021 20.8522 42.9307 20.5753 42.2621C20.2985 41.5936 20.2261 40.858 20.3674 40.1483C20.5087 39.4386 20.8572 38.7868 21.369 38.2752C21.8807 37.7636 22.5327 37.4153 23.2424 37.2743C23.9522 37.1333 24.6878 37.206 25.3562 37.483C26.0246 37.7601 26.5959 38.2293 26.9977 38.831C27.3995 39.4328 27.6139 40.1402 27.6136 40.8638C27.6111 41.8332 27.2248 42.7621 26.5392 43.4474C25.8537 44.1327 24.9246 44.5186 23.9553 44.5208ZM23.9553 10.7944C23.4747 10.7951 22.9986 10.701 22.5545 10.5174C22.1103 10.3338 21.7067 10.0644 21.3669 9.72454C21.027 9.38469 20.7576 8.98112 20.574 8.53695C20.3904 8.09278 20.2963 7.61674 20.297 7.13613C20.297 6.16607 20.6823 5.23574 21.3683 4.5498C22.0542 3.86387 22.9845 3.47852 23.9546 3.47852C24.9247 3.47852 25.855 3.86387 26.5409 4.5498C27.2269 5.23574 27.6122 6.16607 27.6122 7.13613C27.6128 7.61651 27.5185 8.09229 27.3349 8.53621C27.1514 8.98013 26.882 9.38348 26.5423 9.72317C26.2026 10.0629 25.7993 10.3322 25.3554 10.5158C24.9114 10.6994 24.4357 10.795 23.9553 10.7944Z" fill="black"/>
</svg>
