<svg width="47" height="48" viewBox="0 0 47 48" fill="none" xmlns="http://www.w3.org/2000/svg">
<path d="M42.1284 19.9279C42.1284 17.4182 38.9854 15.0397 34.1667 13.5648C35.2787 8.65337 34.7845 4.74588 32.6067 3.49486C32.1047 3.20141 31.5179 3.06241 30.877 3.06241V4.78449C31.2322 4.78449 31.5179 4.854 31.7573 4.98527C32.8075 5.58761 33.2632 7.88114 32.9078 10.8311C32.8231 11.557 32.684 12.3215 32.5141 13.1014C31.0004 12.7307 29.3479 12.445 27.6104 12.2597C26.5679 10.8311 25.4868 9.53371 24.3979 8.39854C26.9154 6.05867 29.2785 4.77676 30.8847 4.77676V3.05469C28.761 3.05469 25.981 4.56827 23.1701 7.19384C20.3591 4.5837 17.5792 3.08558 15.4556 3.08558V4.80765C17.054 4.80765 19.4248 6.08185 21.9422 8.40625C20.8611 9.54144 19.78 10.8311 18.7529 12.2597C17.0076 12.445 15.3551 12.7307 13.8415 13.1091C13.6638 12.3369 13.5326 11.5878 13.4399 10.8697C13.0771 7.91975 13.5248 5.62622 14.5675 5.01616C14.799 4.87715 15.1002 4.81539 15.4556 4.81539V3.0933C14.8068 3.0933 14.2199 3.2323 13.7103 3.52575C11.5402 4.77676 11.0538 8.67653 12.1735 13.5725C7.37021 15.0552 4.24268 17.4259 4.24268 19.9279C4.24268 22.4378 7.38565 24.8162 12.2044 26.2911C11.0923 31.2026 11.5865 35.11 13.7643 36.361C14.2663 36.6544 14.8531 36.7934 15.5018 36.7934C17.6254 36.7934 20.4056 35.2799 23.2164 32.6543C26.0273 35.2645 28.8074 36.7627 30.931 36.7627C31.5796 36.7627 32.1665 36.6237 32.6763 36.3301C34.8462 35.079 35.3328 31.1793 34.2129 26.2835C39.0008 24.8085 42.1284 22.43 42.1284 19.9279ZM32.074 14.7772C31.7882 15.7734 31.433 16.8003 31.0313 17.8274C30.7148 17.2098 30.3828 16.5919 30.0198 15.9741C29.6646 15.3563 29.2861 14.754 28.9077 14.1671C30.0042 14.3293 31.0623 14.5301 32.074 14.7772ZM28.537 23.0014C27.9347 24.044 27.317 25.0324 26.676 25.9514C25.5253 26.0518 24.3594 26.1058 23.1855 26.1058C22.0194 26.1058 20.8533 26.0518 19.7105 25.959C19.0696 25.04 18.4439 24.0594 17.8416 23.0245C17.2547 22.013 16.722 20.9859 16.2354 19.9512C16.7142 18.9163 17.2547 17.8815 17.834 16.8699C18.4363 15.8275 19.054 14.8389 19.695 13.92C20.8457 13.8196 22.0116 13.7655 23.1855 13.7655C24.3516 13.7655 25.5177 13.8196 26.6605 13.9123C27.3015 14.8312 27.9271 15.8119 28.5294 16.8468C29.1163 17.8583 29.649 18.8854 30.1357 19.9203C29.649 20.955 29.1163 21.9898 28.537 23.0014ZM31.0313 21.9976C31.4367 23.004 31.7924 24.0297 32.0971 25.0709C31.0854 25.318 30.0198 25.5266 28.9155 25.6888C29.2938 25.0943 29.6722 24.4842 30.0276 23.8586C30.3828 23.2409 30.7148 22.6153 31.0313 21.9976ZM23.2009 30.2373C22.4827 29.4958 21.7645 28.6696 21.0541 27.7661C21.7492 27.797 22.4596 27.8202 23.1777 27.8202C23.9037 27.8202 24.6219 27.8048 25.3247 27.7661C24.6618 28.6275 23.9528 29.4524 23.2009 30.2373ZM17.4555 25.6888C16.359 25.5266 15.301 25.3258 14.2895 25.0787C14.5751 24.0825 14.9304 23.0554 15.3319 22.0283C15.6486 22.6462 15.9807 23.264 16.3435 23.8817C16.7064 24.4995 17.0772 25.1018 17.4555 25.6888ZM23.1624 9.61866C23.8805 10.36 24.5987 11.1863 25.3091 12.0898C24.6141 12.0589 23.9037 12.0357 23.1855 12.0357C22.4596 12.0357 21.7414 12.0512 21.0388 12.0898C21.7016 11.2284 22.4105 10.4035 23.1624 9.61866ZM17.4478 14.1671C17.0694 14.7617 16.6911 15.3718 16.3359 15.9972C15.9807 16.615 15.6486 17.2329 15.3319 17.8506C14.9265 16.8442 14.5709 15.8185 14.2663 14.7772C15.2779 14.5378 16.3435 14.3293 17.4478 14.1671ZM10.4591 23.8354C7.72545 22.6693 5.95703 21.1404 5.95703 19.9279C5.95703 18.7155 7.72545 17.1788 10.4591 16.0205C11.1232 15.7347 11.8492 15.4799 12.5982 15.2405C13.0384 16.7541 13.6176 18.3294 14.3357 19.9434C13.6253 21.5497 13.0538 23.1173 12.6214 24.6232C11.8569 24.3837 11.131 24.1212 10.4591 23.8354ZM14.6138 34.8706C13.5635 34.2683 13.1078 31.9748 13.4632 29.0248C13.5482 28.299 13.687 27.5344 13.8569 26.7544C15.3706 27.1251 17.0231 27.4109 18.7606 27.5962C19.8031 29.0248 20.8842 30.3221 21.9731 31.4573C19.4557 33.7972 17.0926 35.079 15.4863 35.079C15.1389 35.0714 14.8455 35.0019 14.6138 34.8706ZM32.9311 28.9863C33.2939 31.9361 32.8462 34.2296 31.8036 34.8397C31.572 34.9787 31.2708 35.0405 30.9155 35.0405C29.317 35.0405 26.9463 33.7663 24.4288 31.4419C25.5099 30.3067 26.5911 29.0172 27.6182 27.5884C29.3634 27.4031 31.016 27.1174 32.5295 26.739C32.7072 27.519 32.8462 28.2681 32.9311 28.9863ZM35.9042 23.8354C35.24 24.1212 34.5141 24.3761 33.765 24.6154C33.3249 23.1019 32.7457 21.5265 32.0275 19.9125C32.7381 18.3063 33.3095 16.7387 33.7419 15.2328C34.5065 15.4722 35.2323 15.7347 35.9119 16.0205C38.6456 17.1864 40.414 18.7155 40.414 19.9279C40.4062 21.1404 38.6378 22.6771 35.9042 23.8354Z" fill="black"/>
<path d="M23.1792 23.4576C25.1284 23.4576 26.7085 21.8776 26.7085 19.9284C26.7085 17.9794 25.1284 16.3994 23.1792 16.3994C21.2302 16.3994 19.6502 17.9794 19.6502 19.9284C19.6502 21.8776 21.2302 23.4576 23.1792 23.4576ZM5.96449 42.8703H4.79951V44.8767H4.14209V39.917H5.78395C6.34258 39.917 6.77179 40.0443 7.07155 40.2986C7.37358 40.5528 7.5246 40.923 7.5246 41.409C7.5246 41.7179 7.44058 41.9869 7.27253 42.2164C7.10676 42.4457 6.87513 42.6172 6.57763 42.7306L7.74261 44.8358V44.8767H7.0409L5.96449 42.8703ZM4.79951 42.3356H5.8044C6.12914 42.3356 6.38688 42.2515 6.57763 42.0834C6.77065 41.9154 6.86717 41.6906 6.86717 41.409C6.86717 41.1025 6.7752 40.8674 6.59126 40.7039C6.40958 40.5404 6.14616 40.4575 5.80098 40.4553H4.79951V42.3356ZM9.87505 44.9449C9.37539 44.9449 8.96889 44.7814 8.65551 44.4543C8.34212 44.125 8.18543 43.6856 8.18543 43.1361V43.0202C8.18543 42.6547 8.25469 42.3288 8.39321 42.0427C8.53401 41.7541 8.72931 41.5293 8.97911 41.3682C9.23119 41.2047 9.50369 41.1228 9.79664 41.1228C10.2758 41.1228 10.6483 41.2807 10.9139 41.5963C11.1796 41.912 11.3124 42.3639 11.3124 42.952V43.2143H8.8156C8.82468 43.5778 8.93029 43.8719 9.1324 44.0967C9.33678 44.3191 9.59566 44.4305 9.90907 44.4305C10.1317 44.4305 10.32 44.3851 10.4744 44.2943C10.629 44.2034 10.764 44.0831 10.8799 43.9332L11.2648 44.233C10.9558 44.7075 10.4927 44.9449 9.87505 44.9449ZM9.79664 41.6407C9.5423 41.6407 9.32884 41.7338 9.15624 41.9199C8.98365 42.104 8.87692 42.3628 8.83605 42.6966H10.6823V42.649C10.6642 42.3288 10.5779 42.0812 10.4235 41.9063C10.2689 41.7293 10.06 41.6407 9.79664 41.6407ZM14.3203 44.8767C14.2839 44.804 14.2544 44.6747 14.2317 44.4883C13.9387 44.7926 13.589 44.9449 13.1825 44.9449C12.8192 44.9449 12.5207 44.8427 12.2867 44.6382C12.0551 44.4315 11.9393 44.1704 11.9393 43.8548C11.9393 43.4711 12.0846 43.1736 12.3753 42.9624C12.6681 42.7488 13.0793 42.6421 13.6084 42.6421H14.2215V42.3527C14.2215 42.1323 14.1556 41.9574 14.024 41.8281C13.8922 41.6963 13.698 41.6305 13.4414 41.6305C13.2166 41.6305 13.0282 41.6872 12.876 41.8008C12.7239 41.9142 12.6478 42.0517 12.6478 42.213H12.0142C12.0142 42.0291 12.0789 41.8519 12.2083 41.6815C12.34 41.5089 12.5172 41.3727 12.7398 41.2727C12.9646 41.1729 13.2109 41.1228 13.4789 41.1228C13.9036 41.1228 14.2362 41.2296 14.4769 41.4432C14.7176 41.6543 14.8425 41.9462 14.8516 42.3185V44.0149C14.8516 44.3533 14.8948 44.6223 14.9812 44.8221V44.8767H14.3203ZM13.2746 44.3965C13.4721 44.3965 13.6595 44.3454 13.8366 44.2431C14.0136 44.1409 14.1419 44.0081 14.2215 43.8446V43.0884H13.7275C12.9555 43.0884 12.5694 43.3143 12.5694 43.7662C12.5694 43.9637 12.6353 44.1183 12.7669 44.2295C12.8987 44.3407 13.0679 44.3965 13.2746 44.3965ZM17.3178 44.4305C17.5427 44.4305 17.7392 44.3623 17.9072 44.226C18.0752 44.0898 18.1683 43.9195 18.1864 43.7151H18.7827C18.7713 43.9263 18.6986 44.1273 18.5646 44.3181C18.4306 44.5089 18.2512 44.661 18.0263 44.7745C17.8038 44.8881 17.5677 44.9449 17.3178 44.9449C16.816 44.9449 16.4163 44.7779 16.1188 44.4441C15.8237 44.1079 15.676 43.6493 15.676 43.0679V42.9624C15.676 42.6036 15.7418 42.2844 15.8736 42.0052C16.0053 41.7258 16.1937 41.5089 16.4391 41.3546C16.6865 41.2 16.9784 41.1228 17.3144 41.1228C17.7278 41.1228 18.0707 41.2467 18.3432 41.4943C18.6179 41.7417 18.7644 42.0631 18.7827 42.4582H18.1864C18.1683 42.2197 18.0775 42.0244 17.9139 41.8723C17.7528 41.7179 17.5529 41.6407 17.3144 41.6407C16.9942 41.6407 16.7456 41.7564 16.5684 41.9881C16.3937 42.2174 16.3061 42.5502 16.3061 42.9862V43.1054C16.3061 43.53 16.3937 43.857 16.5684 44.0863C16.7433 44.3158 16.9932 44.4305 17.3178 44.4305ZM20.3461 40.2986V41.191H21.0342V41.6782H20.3461V43.9637C20.3461 44.1114 20.3768 44.2226 20.4381 44.2975C20.4994 44.3702 20.6039 44.4067 20.7516 44.4067C20.8241 44.4067 20.9241 44.393 21.0512 44.3657V44.8767C20.8854 44.9221 20.7243 44.9449 20.5675 44.9449C20.286 44.9449 20.0736 44.8596 19.9305 44.6893C19.7875 44.5191 19.716 44.2772 19.716 43.9637V41.6782H19.0448V41.191H19.716V40.2986H20.3461ZM27.4144 44.8767H26.7568L24.26 41.0548V44.8767H23.6027V39.917H24.26L26.7637 43.756V39.917H27.4144V44.8767ZM30.7526 44.8767C30.7161 44.804 30.6866 44.6747 30.664 44.4883C30.371 44.7926 30.0213 44.9449 29.6148 44.9449C29.2515 44.9449 28.9528 44.8427 28.7189 44.6382C28.4874 44.4315 28.3715 44.1704 28.3715 43.8548C28.3715 43.4711 28.5167 43.1736 28.8075 42.9624C29.1004 42.7488 29.5115 42.6421 30.0406 42.6421H30.6538V42.3527C30.6538 42.1323 30.5878 41.9574 30.4561 41.8281C30.3245 41.6963 30.1302 41.6305 29.8736 41.6305C29.6488 41.6305 29.4604 41.6872 29.3083 41.8008C29.1562 41.9142 29.08 42.0517 29.08 42.213H28.4465C28.4465 42.0291 28.5112 41.8519 28.6406 41.6815C28.7723 41.5089 28.9495 41.3727 29.1721 41.2727C29.3969 41.1729 29.6431 41.1228 29.9111 41.1228C30.3357 41.1228 30.6685 41.2296 30.9092 41.4432C31.1499 41.6543 31.2748 41.9462 31.2839 42.3185V44.0149C31.2839 44.3533 31.3271 44.6223 31.4134 44.8221V44.8767H30.7526ZM29.7068 44.3965C29.9044 44.3965 30.0917 44.3454 30.2689 44.2431C30.4459 44.1409 30.5742 44.0081 30.6538 43.8446V43.0884H30.1598C29.3877 43.0884 29.0016 43.3143 29.0016 43.7662C29.0016 43.9637 29.0676 44.1183 29.1992 44.2295C29.3309 44.3407 29.5001 44.3965 29.7068 44.3965ZM33.1267 40.2986V41.191H33.8149V41.6782H33.1267V43.9637C33.1267 44.1114 33.1575 44.2226 33.2188 44.2975C33.2801 44.3702 33.3846 44.4067 33.5322 44.4067C33.6047 44.4067 33.7047 44.393 33.832 44.3657V44.8767C33.666 44.9221 33.5049 44.9449 33.3481 44.9449C33.0666 44.9449 32.8543 44.8596 32.7111 44.6893C32.5681 44.5191 32.4966 44.2772 32.4966 43.9637V41.6782H31.8256V41.191H32.4966V40.2986H33.1267ZM35.2388 44.8767H34.6085V41.191H35.2388V44.8767ZM34.5574 40.2133C34.5574 40.1113 34.5881 40.0249 34.6494 39.9545C34.713 39.884 34.806 39.849 34.9286 39.849C35.0514 39.849 35.1445 39.884 35.208 39.9545C35.2716 40.0249 35.3034 40.1113 35.3034 40.2133C35.3034 40.3156 35.2716 40.4007 35.208 40.4689C35.1445 40.5369 35.0514 40.5711 34.9286 40.5711C34.806 40.5711 34.713 40.5369 34.6494 40.4689C34.5881 40.4007 34.5574 40.3156 34.5574 40.2133ZM37.4665 44.0218L38.3793 41.191H39.0232L37.7015 44.8767H37.2211L35.886 41.191H36.5297L37.4665 44.0218ZM41.1112 44.9449C40.6117 44.9449 40.2052 44.7814 39.8918 44.4543C39.5784 44.125 39.4217 43.6856 39.4217 43.1361V43.0202C39.4217 42.6547 39.491 42.3288 39.6295 42.0427C39.7702 41.7541 39.9655 41.5293 40.2154 41.3682C40.4675 41.2047 40.74 41.1228 41.0328 41.1228C41.512 41.1228 41.8845 41.2807 42.1502 41.5963C42.4158 41.912 42.5488 42.3639 42.5488 42.952V43.2143H40.0518C40.061 43.5778 40.1665 43.8719 40.3687 44.0967C40.573 44.3191 40.832 44.4305 41.1452 44.4305C41.3678 44.4305 41.5564 44.3851 41.7108 44.2943C41.8651 44.2034 42.0003 44.0831 42.1162 43.9332L42.5011 44.233C42.1922 44.7075 41.7289 44.9449 41.1112 44.9449ZM41.0328 41.6407C40.7786 41.6407 40.565 41.7338 40.3925 41.9199C40.2199 42.104 40.1131 42.3628 40.0724 42.6966H41.9185V42.649C41.9004 42.3288 41.814 42.0812 41.6597 41.9063C41.5053 41.7293 41.2963 41.6407 41.0328 41.6407Z" fill="black"/>
</svg>
