<svg width="73" height="48" viewBox="0 0 73 48" fill="none" xmlns="http://www.w3.org/2000/svg">
<path fill-rule="evenodd" clip-rule="evenodd" d="M14.1704 36.0053L28.2804 12.0053V11.9953H25.6904C24.7304 11.9853 23.8504 12.4953 23.3704 13.3253L14.1704 28.9753L5.06039 13.3353C4.58039 12.5053 3.70039 12.0053 2.74039 12.0053H0.150391L14.1704 36.0053ZM24.441 24.5353L26.501 20.9753L31.141 28.8853L36.501 19.7253L41.861 28.8853L51.061 13.3253C51.541 12.4953 52.421 11.9853 53.381 11.9953H55.971L41.861 36.0053L36.501 26.8553L31.141 36.0053L24.441 24.5353ZM60.8791 12.0053C60.4291 12.0053 59.8991 12.0053 59.4491 12.0953L56.8591 16.6253C58.0191 15.9153 59.4491 15.5553 60.8791 15.5553C65.5191 15.5553 69.3591 19.3753 69.3591 24.0053C69.3591 28.6353 65.5191 32.4553 60.8791 32.4553C56.2391 32.4553 52.4791 28.7153 52.3991 24.0953L49.7191 28.6253C51.4991 32.9753 55.8791 36.0053 60.7891 36.0053C67.3991 36.0053 72.8491 30.5853 72.8491 24.0053C72.9391 17.4253 67.4891 12.0053 60.8791 12.0053Z" fill="black"/>
</svg>
