<svg width="60" height="48" viewBox="0 0 60 48" fill="none" xmlns="http://www.w3.org/2000/svg">
<path d="M6.31493 6.43555H54.3517C57.3919 6.43555 59.8527 8.89642 59.8527 11.9366V30.2729C59.8527 33.3131 57.3919 35.774 54.3517 35.774H37.1251L39.4896 41.5644L29.0908 35.774H6.3389C3.29894 35.774 0.838068 33.3131 0.838068 30.2729V11.9366C0.813862 8.92063 3.27451 6.43555 6.31493 6.43555Z" fill="black"/>
<path d="M4.19754 11.8386C4.53342 11.3826 5.03712 11.1429 5.70888 11.0949C6.93251 10.9988 7.62824 11.5744 7.79607 12.822C8.53975 17.836 9.35535 22.0823 10.2189 25.5607L15.4726 15.557C15.9526 14.6453 16.5524 14.1655 17.2721 14.1176C18.3277 14.0457 18.9752 14.7172 19.2392 16.1326C19.839 19.3231 20.6067 22.0341 21.5182 24.3371C22.142 18.2438 23.1976 13.8536 24.6849 11.1429C25.0445 10.4711 25.5725 10.1352 26.2682 10.0871C26.8201 10.0393 27.3238 10.2072 27.7795 10.567C28.2353 10.9269 28.4753 11.3826 28.5232 11.9345C28.5472 12.3663 28.4753 12.7261 28.2835 13.086C27.3477 14.8133 26.5799 17.7161 25.9563 21.7462C25.3567 25.6566 25.1407 28.7035 25.2845 30.8866C25.3327 31.4859 25.2366 32.0139 24.9968 32.4698C24.7087 32.9975 24.2771 33.2854 23.7252 33.3334C23.1014 33.3813 22.4539 33.0936 21.8301 32.4459C19.599 30.1666 17.8238 26.7601 16.5284 22.2261C14.9689 25.2968 13.8174 27.5997 13.0738 29.135C11.6583 31.846 10.4589 33.2375 9.45125 33.3094C8.80347 33.3574 8.25182 32.8055 7.77209 31.6542C6.54869 28.5115 5.22915 22.4419 3.81395 13.4458C3.71782 12.822 3.86166 12.2701 4.19754 11.8386ZM55.7517 15.6049C54.8881 14.0936 53.6165 13.1821 51.9134 12.822C51.4574 12.7261 51.0259 12.6782 50.6178 12.6782C48.3149 12.6782 46.4437 13.8776 44.9803 16.2767C43.7327 18.3157 43.1091 20.5707 43.1091 23.0417C43.1091 24.889 43.4929 26.4722 44.2606 27.7918C45.1241 29.3031 46.3957 30.2146 48.0989 30.5744C48.5546 30.6706 48.9864 30.7185 49.3944 30.7185C51.7214 30.7185 53.5925 29.5191 55.0319 27.12C56.2793 25.0568 56.9031 22.8018 56.9031 20.331C56.9271 18.4598 56.5193 16.9003 55.7517 15.6049ZM52.729 22.2501C52.3931 23.8334 51.7933 25.0088 50.9055 25.8005C50.21 26.4243 49.5622 26.688 48.9626 26.5681C48.3868 26.4482 47.9068 25.9445 47.5472 25.0088C47.259 24.2652 47.1154 23.5215 47.1154 22.8257C47.1154 22.2261 47.1634 21.6263 47.2832 21.0747C47.4993 20.091 47.9071 19.1313 48.5546 18.2198C49.3465 17.0441 50.186 16.5646 51.0496 16.7325C51.6255 16.8523 52.1054 17.3563 52.465 18.2917C52.753 19.0354 52.8968 19.7791 52.8968 20.4748C52.8968 21.0986 52.8489 21.6985 52.729 22.2501ZM40.734 15.6049C39.8704 14.0936 38.5749 13.1821 36.8957 12.822C36.44 12.7261 36.0082 12.6782 35.6001 12.6782C33.2972 12.6782 31.426 13.8776 29.9626 16.2767C28.7152 18.3157 28.0914 20.5707 28.0914 23.0417C28.0914 24.889 28.4753 26.4722 29.2429 27.7918C30.1065 29.3031 31.378 30.2146 33.0812 30.5744C33.5372 30.6706 33.9687 30.7185 34.3767 30.7185C36.7037 30.7185 38.5749 29.5191 40.0143 27.12C41.2619 25.0568 41.8855 22.8018 41.8855 20.331C41.8855 18.4598 41.5016 16.9003 40.734 15.6049ZM37.6873 22.2501C37.3515 23.8334 36.7516 25.0088 35.8641 25.8005C35.1684 26.4243 34.5206 26.688 33.9208 26.5681C33.3451 26.4482 32.8654 25.9445 32.5053 25.0088C32.2176 24.2652 32.0738 23.5215 32.0738 22.8257C32.0738 22.2261 32.1217 21.6263 32.2416 21.0747C32.4576 20.091 32.8654 19.1313 33.5132 18.2198C34.3048 17.0441 35.1444 16.5646 36.0079 16.7325C36.5838 16.8523 37.0638 17.3563 37.4234 18.2917C37.7115 19.0354 37.8552 19.7791 37.8552 20.4748C37.8794 21.0986 37.8072 21.6985 37.6873 22.2501Z" fill="white"/>
</svg>
