<svg width="79" height="48" viewBox="0 0 79 48" fill="none" xmlns="http://www.w3.org/2000/svg">
<path d="M11.7715 39.4921C14.6206 39.4921 16.9335 37.1792 16.9335 34.3301V29.168H11.7715C8.92229 29.168 6.60938 31.4809 6.60938 34.3301C6.60938 37.1792 8.92229 39.4921 11.7715 39.4921Z" fill="black"/>
<path d="M6.604 24C6.604 21.1508 8.91692 18.8379 11.7661 18.8379H16.9282V29.1675H11.7661C8.91692 29.1675 6.604 26.8546 6.604 24.0054V24Z" fill="#34343D"/>
<path d="M6.604 13.6709C6.604 10.8217 8.91692 8.50879 11.7661 8.50879H16.9282V18.8384H11.7661C8.91692 18.8384 6.604 16.5255 6.604 13.6763V13.6709Z" fill="#5A5A65"/>
<path d="M16.8848 8.50879H22.0468C24.896 8.50879 27.2089 10.8217 27.2089 13.6709C27.2089 16.52 24.896 18.833 22.0468 18.833H16.8848V8.50879Z" fill="#83838E"/>
<path d="M27.4633 24.1621C27.4633 27.0112 25.1504 29.3242 22.3012 29.3242C19.452 29.3242 17.085 27.0112 17.085 24.1621C17.085 21.3129 19.3979 19 22.247 19C25.0962 19 27.4091 21.3129 27.4091 24.1621H27.4633Z" fill="#5A5A65"/>
<path d="M32.9072 17.0664V27.8889H34.2993V22.7214H37.6468V21.3781H34.2993V18.4206H38.6489V17.0664H32.9072ZM41.1676 19.2656C41.6714 19.2656 42.0776 18.8593 42.0776 18.3556C42.0776 17.8518 41.666 17.4997 41.1676 17.4997C40.6693 17.4997 40.2576 17.906 40.2576 18.4097C40.2576 18.6535 40.3551 18.881 40.5285 19.0597C40.7018 19.2385 40.9293 19.3306 41.1785 19.3306L41.1676 19.2656ZM40.4635 20.6306V27.8889H41.8014V20.6306H40.4201H40.4635ZM47.0285 20.4139C45.176 20.4139 43.8868 22.0389 43.8868 23.8372C43.8868 25.6356 45.1868 27.2497 47.0285 27.2497C47.4117 27.2564 47.7921 27.1833 48.1455 27.0351C48.499 26.8868 48.8177 26.6666 49.0814 26.3885V27.3527C49.0775 27.9319 48.8528 28.4879 48.4531 28.9072C48.2511 29.1133 48.0101 29.2769 47.744 29.3885C47.478 29.5001 47.1924 29.5575 46.9039 29.5572C46.4609 29.5432 46.0317 29.4002 45.6689 29.1456L44.9647 30.3535C45.5055 30.7013 46.13 30.8968 46.7726 30.9194C47.4151 30.9421 48.0519 30.791 48.6158 30.4822C49.1797 30.1733 49.6499 29.7181 49.9768 29.1645C50.3037 28.6109 50.4753 27.9793 50.4735 27.3364V20.6197H49.0814V21.2697C48.8177 20.9916 48.499 20.7714 48.1455 20.6232C47.7921 20.4749 47.4117 20.4072 47.0285 20.4139ZM45.2843 23.8372C45.2526 23.4851 45.32 23.1311 45.4789 22.8152C45.6378 22.4993 45.8818 22.2342 46.1835 22.0497C46.801 21.6706 47.5756 21.6706 48.1876 22.0497C48.7997 22.4289 49.1464 23.1222 49.0868 23.8372C49.1185 24.1894 49.0511 24.5434 48.8922 24.8593C48.7334 25.1751 48.4893 25.4403 48.1876 25.6247C47.5701 26.0039 46.7956 26.0039 46.1835 25.6247C45.5714 25.2456 45.2247 24.5522 45.2843 23.8372Z" fill="black"/>
<path d="M55.4946 21.833C55.0943 21.8344 54.7107 21.9941 54.4276 22.2772C54.1445 22.5603 53.9848 22.9438 53.9834 23.3442V27.9375H52.5913V20.6792H53.9834V21.2913C54.4059 20.728 55.0776 20.403 55.7817 20.4138C56.6701 20.3921 57.4988 20.8688 57.9376 21.6434C58.4792 20.885 59.2592 20.4246 60.1042 20.4138C61.6913 20.4138 62.6771 21.6921 62.6826 23.2738V27.8942H61.2905V23.29C61.3313 23.0032 61.2891 22.7108 61.1689 22.4472C61.0487 22.1836 60.8555 21.9599 60.6122 21.8027C60.3689 21.6454 60.0857 21.5611 59.796 21.5598C59.5063 21.5584 59.2223 21.6401 58.9776 21.795C58.7342 21.9537 58.5415 22.179 58.4224 22.444C58.3033 22.709 58.2629 23.0027 58.3059 23.29V27.8834H56.968V23.2955C56.9665 22.8951 56.8069 22.5115 56.5238 22.2284C56.2407 21.9453 55.8571 21.7856 55.4567 21.7842L55.4946 21.833ZM70.1196 21.4538C69.8028 21.1232 69.4217 20.8608 68.9997 20.6829C68.5777 20.505 68.1238 20.4152 67.6659 20.4192C65.5913 20.4192 64.1451 22.1742 64.1451 24.2109C64.1451 26.2475 65.6076 28.0025 67.6659 28.0025C68.1238 28.0065 68.5777 27.9168 68.9997 27.7389C69.4217 27.5609 69.8028 27.2986 70.1196 26.968V27.7913H71.5117V20.533H70.1196V21.4538ZM65.5155 24.2705C65.4451 23.4038 65.8676 22.5696 66.6096 22.1146C67.3517 21.6596 68.2346 21.6596 69.0255 22.1146C69.3877 22.3394 69.6812 22.6593 69.8742 23.0395C70.0671 23.4196 70.152 23.8454 70.1196 24.2705C70.1901 25.1371 69.7676 25.9713 69.0255 26.4263C68.2834 26.8813 67.4005 26.8813 66.6096 26.4263C66.2474 26.2015 65.9539 25.8816 65.7609 25.5015C65.568 25.1213 65.4831 24.6955 65.5155 24.2705Z" fill="black"/>
</svg>
