<svg width="91" height="48" viewBox="0 0 91 48" fill="none" xmlns="http://www.w3.org/2000/svg">
<path fill-rule="evenodd" clip-rule="evenodd" d="M16.6924 35.2504H8.36443C7.34143 35.2504 6.51343 34.4224 6.51343 33.3994V29.4064C6.51343 28.3834 7.34143 27.5554 8.36443 27.5554H13.6242V21.7114C13.6242 20.6884 14.4522 19.8604 15.4752 19.8604H21.3199V35.2016H16.6924V35.2504Z" fill="black"/>
<path fill-rule="evenodd" clip-rule="evenodd" d="M27.1698 35.25H21.3198V14.601C21.3198 13.578 22.1478 12.75 23.1708 12.75H27.1646C28.1876 12.75 29.0156 13.578 29.0156 14.601V33.3998C28.9646 34.422 28.1448 35.25 27.1698 35.25Z" fill="#83838E"/>
<path fill-rule="evenodd" clip-rule="evenodd" d="M28.9651 27.5551V33.3993C28.9651 34.422 28.1371 35.2499 27.1144 35.2499H21.2703V19.8604L28.9651 27.5551Z" fill="#5A5A65"/>
<path d="M36.7646 28.6707L38.5556 33.3732H35.0853L36.7646 28.6707ZM36.0926 27.0957L32.1746 37.3932H33.6296L34.6368 34.5957H39.0018L40.0091 37.3932H41.4641L37.5461 27.0957H36.0911H36.0926ZM57.2426 37.4022H58.5926V27.1032H57.2426V37.4007V37.4022ZM43.4801 31.3497C43.9278 30.6777 44.8301 30.1182 45.7188 30.1182C47.5098 30.1182 48.4053 31.3497 48.4053 33.1407V37.5057H47.0553V33.3642C47.0553 31.9092 46.2716 31.349 45.2643 31.349C44.1446 31.349 43.3616 32.4687 43.3616 33.476V37.394H42.0116V30.2397H43.3616L43.4741 31.3595L43.4801 31.3497ZM49.5251 35.2752C49.5251 33.7002 50.9801 32.8122 52.6601 32.8122C53.6673 32.8122 54.3401 33.0372 54.5628 33.26V33.035C54.5628 31.9152 53.6673 31.355 52.7718 31.355C51.9881 31.355 51.3168 31.691 51.0918 32.3622L49.8603 31.8027C50.0853 31.1307 50.9801 30.1227 52.7703 30.1227C54.4503 30.1227 55.9053 31.13 55.9053 33.1452V37.3992H54.6738V36.392H54.5613C54.2253 36.9515 53.4416 37.6235 52.2108 37.6235C50.7558 37.6235 49.5243 36.728 49.5243 35.273M54.5613 34.3775C54.5613 34.3775 54.0018 33.9297 52.8813 33.9297C51.5313 33.9297 50.9786 34.7135 50.9786 35.2797C50.9786 36.0635 51.7623 36.3995 52.4336 36.3995C53.4408 36.3995 54.5606 35.504 54.5606 34.3842" fill="black"/>
<path fill-rule="evenodd" clip-rule="evenodd" d="M60.4962 40.5373L62.0712 36.8435L59.2737 30.3508H60.6237L62.7507 35.276L64.8777 30.3508H66.2277L61.8627 40.5373H60.5127H60.4962ZM80.1987 32.6998C79.8627 31.8043 79.0789 31.2448 78.2959 31.2448C77.1762 31.2448 76.1689 32.252 76.1689 33.7078C76.1689 35.1635 77.1762 36.1708 78.2959 36.1708C79.0797 36.1708 79.8709 35.6113 80.1987 34.8208L81.3184 35.4928C80.7589 36.7243 79.6384 37.508 78.2959 37.508C76.3932 37.508 74.8257 35.828 74.8257 33.7018C74.8257 31.463 76.4007 29.8955 78.2959 29.8955C79.6459 29.8955 80.7589 30.6793 81.3184 31.9108L80.1987 32.6945V32.6998Z" fill="black"/>
<path d="M85.0112 37.6263C86.8022 37.6263 87.6978 36.6191 87.6978 35.3876C87.6978 32.7011 83.7798 33.7076 83.7798 32.1416C83.7798 31.5821 84.2275 31.2461 85.0112 31.2461C85.795 31.2461 86.5863 31.5821 86.914 32.1416L87.6978 31.3578C87.25 30.7983 86.0178 30.0078 84.9003 30.0078C83.2203 30.0078 82.3255 31.0151 82.3255 32.2466C82.3255 34.8213 86.3553 33.9266 86.3553 35.2691C86.3553 35.9411 85.9075 36.3888 85.0053 36.3888C84.103 36.3888 83.6553 35.8293 83.2143 35.2691L82.2197 36.0603C82.8917 36.7323 83.8997 37.6353 85.0172 37.6353L85.0112 37.6263ZM72.25 37.4028H73.6V30.2388H72.25V37.4028Z" fill="black"/>
<path fill-rule="evenodd" clip-rule="evenodd" d="M72.8096 26.7754C73.3691 26.7754 73.7051 27.2231 73.7051 27.6709C73.7051 28.2304 73.2574 28.5664 72.8096 28.5664C72.3619 28.5664 71.9141 28.1186 71.9141 27.6709C71.9141 27.2231 72.3619 26.7754 72.8096 26.7754ZM70.9069 36.2906L71.1319 37.2979H69.7819C68.5504 37.2979 67.9909 36.4024 67.9909 35.0591V31.5754H66.6409V30.2254H67.9909V28.1119H69.3409V30.2389H70.9159V31.5889H69.3409V35.2826C69.3409 36.2899 70.1246 36.2899 70.9159 36.2899L70.9069 36.2906Z" fill="black"/>
<path d="M38.9808 15.7186V17.3986H42.8988C42.7863 18.2941 42.451 18.9736 42.0033 19.4139C41.4438 19.9734 40.5483 20.6454 38.9808 20.6454C36.6303 20.6454 34.7268 18.7426 34.7268 16.2804C34.7268 13.9299 36.6295 11.9154 38.9808 11.9154C40.3308 11.9154 41.2195 12.4749 41.8908 13.0351L43.0105 11.9154C42.0033 11.0199 40.7718 10.2354 38.9808 10.2354C35.7348 10.2354 32.9358 12.9219 32.9358 16.1604C32.9358 19.3989 35.7333 22.0854 38.9808 22.0854C40.7718 22.0854 42.1158 21.5259 43.1223 20.4054C44.242 19.2856 44.5773 17.8306 44.5773 16.5991C44.5773 16.2631 44.5773 15.8154 44.4648 15.5919H38.98L38.9808 15.7186ZM48.9423 14.3686C46.8153 14.3686 45.136 15.9436 45.136 18.1749C45.136 20.4061 46.816 21.9811 48.9423 21.9811C49.4434 21.9856 49.9404 21.8902 50.4042 21.7005C50.868 21.5109 51.2894 21.2307 51.6438 20.8763C51.9981 20.522 52.2783 20.1006 52.468 19.6368C52.6577 19.1729 52.753 18.6759 52.7485 18.1749C52.7485 15.9361 51.0685 14.3686 48.9423 14.3686ZM48.9423 20.5186C47.8225 20.5186 46.8153 19.5114 46.8153 18.1681C46.8153 16.8249 47.8225 15.8251 48.9423 15.8251C50.062 15.8251 51.07 16.7251 51.07 18.1726C51.07 19.6201 50.0628 20.5231 48.943 20.5231L48.9423 20.5186ZM67.2948 15.1516C66.847 14.7039 66.175 14.2561 65.1678 14.2561C63.265 14.2561 61.5858 15.9361 61.5858 18.0624C61.5858 20.1886 63.2658 21.8686 65.1678 21.8686C66.0633 21.8686 66.8478 21.4209 67.183 20.9731H67.2955V21.5326C67.2955 22.9876 66.5118 23.7714 65.2803 23.7714C64.273 23.7714 63.6003 22.9876 63.3775 22.4214L61.9225 22.9809C62.3703 23.9881 63.4975 25.2196 65.281 25.2196C67.2963 25.2196 68.9748 24.0999 68.9748 21.1899V14.2501H67.3998V15.1456L67.2948 15.1516ZM65.392 20.5246C64.2723 20.5246 63.3768 19.5174 63.3768 18.1741C63.3768 16.8309 64.2723 15.8236 65.392 15.8236C66.5118 15.8236 67.4073 16.8309 67.4073 18.1741C67.4073 19.5174 66.5118 20.5246 65.392 20.5246ZM57.2193 14.3746C55.0923 14.3746 53.413 15.9496 53.413 18.1809C53.413 20.4121 55.093 21.9871 57.2193 21.9871C57.7204 21.9916 58.2174 21.8962 58.6812 21.7065C59.145 21.5169 59.5664 21.2367 59.9208 20.8823C60.2751 20.528 60.5553 20.1066 60.745 19.6428C60.9347 19.1789 61.03 18.6819 61.0255 18.1809C61.138 15.9421 59.3455 14.3746 57.2193 14.3746ZM57.2193 20.5246C56.0995 20.5246 55.0923 19.5174 55.0923 18.1741C55.0923 16.8309 56.0995 15.8236 57.2193 15.8236C58.339 15.8236 59.3463 16.7191 59.3463 18.1741C59.3463 19.6291 58.339 20.5246 57.2193 20.5246ZM70.2198 10.3456H71.8998V21.9871H70.2198V10.3456ZM76.4883 20.5321C75.5928 20.5321 75.0333 20.0844 74.5855 19.4124L79.735 17.2854L79.51 16.8376C79.174 15.9421 78.16 14.3746 76.264 14.3746C74.2488 14.3746 72.682 15.9496 72.682 18.1809C72.6775 18.6819 72.7729 19.1789 72.9626 19.6428C73.1523 20.1066 73.4325 20.528 73.7868 20.8823C74.1412 21.2367 74.5626 21.5169 75.0264 21.7065C75.4902 21.8962 75.9872 21.9916 76.4883 21.9871C78.2793 21.9871 79.2858 20.8674 79.7343 20.3071L78.3843 19.4116C77.9365 20.0836 77.377 20.5314 76.4815 20.5314L76.4883 20.5321ZM76.3758 15.8296C77.0478 15.8296 77.6073 16.1656 77.8308 16.7251L74.3605 18.1801C74.3605 16.5001 75.4803 15.8296 76.3758 15.8296Z" fill="black"/>
</svg>
