<svg width="110" height="48" viewBox="0 0 110 48" fill="none" xmlns="http://www.w3.org/2000/svg">
<g clip-path="url(#clip0_3184_32912)">
<path d="M12.0885 16.9385C11.9399 16.886 11.7902 16.837 11.6394 16.7914C9.17233 16.0632 7.80012 17.256 7.43571 18.4875C6.93584 20.1698 7.78803 21.3217 9.99468 23.0177C12.7004 25.0948 13.8211 27.0247 13.0358 29.6716C12.8155 30.4387 12.4225 31.1455 11.8869 31.7382C13.0073 31.2849 14.0107 30.5855 14.8224 29.692C15.6341 28.7986 16.2332 27.7341 16.5751 26.5778C17.7418 22.6512 15.7568 18.5421 12.0885 16.9385Z" fill="#83838E"/>
<path d="M8.2524 24.5673C5.61441 22.6583 4.24382 20.5949 4.99603 18.0581C5.1089 17.6819 5.25806 17.3323 5.44188 17.0099C4.40458 17.4897 3.48181 18.1844 2.7351 19.0478C1.9884 19.9111 1.43493 20.9233 1.11161 22.0169C0.771788 23.1572 0.690547 24.3587 0.87377 25.5343C1.05699 26.7098 1.50009 27.83 2.171 28.8139C3.07317 29.9135 3.94632 30.7398 5.71922 31.2277C8.11937 31.8884 10.0543 30.9705 10.5937 29.1531C11.0944 27.4699 10.4155 26.2248 8.2524 24.5673ZM24.19 23.401C23.4797 22.9276 22.9814 22.5048 22.6968 22.1318C22.4114 21.7596 22.2695 21.3232 22.2695 20.8224C22.2695 20.3152 22.388 19.9141 22.6267 19.6199C22.8645 19.3257 23.2048 19.1786 23.6474 19.1786C24.0497 19.1786 24.4262 19.2526 24.7785 19.4021C25.1308 19.5508 25.467 19.7204 25.7887 19.9093L26.6941 17.6964C25.6549 17.0606 24.5721 16.7423 23.4458 16.7423C22.2663 16.7423 21.3254 17.1144 20.6248 17.8588C19.9242 18.6031 19.5743 19.6111 19.5743 20.8835C19.5743 21.5466 19.663 22.1286 19.8412 22.6294C20.0185 23.1301 20.2701 23.5819 20.5958 23.9846C20.9207 24.3873 21.3988 24.8085 22.0293 25.2482C22.7533 25.7489 23.2725 26.2039 23.5877 26.6138C23.903 27.023 24.0602 27.4739 24.0602 27.969C24.0602 28.4698 23.9279 28.8653 23.6627 29.1563C23.3974 29.4473 23.004 29.5927 22.4808 29.5927C21.5625 29.5927 20.5531 29.2318 19.4542 28.5068V31.2373C20.3523 31.7445 21.4415 31.9977 22.7226 31.9977C24.0303 31.9977 25.0309 31.6296 25.725 30.8917C26.4192 30.1538 26.7659 29.092 26.7659 27.7046C26.7659 26.8381 26.5764 26.0672 26.1975 25.3896C25.8177 24.7144 25.1486 24.0505 24.19 23.401ZM28.434 31.7952H31.109V20.488H28.434V31.7952ZM29.7917 16.0831C29.3289 16.0831 28.9685 16.2134 28.7105 16.4738C28.4525 16.7342 28.3235 17.0879 28.3235 17.5348C28.3235 17.9954 28.4573 18.3523 28.7258 18.6063C28.9943 18.8595 29.349 18.9865 29.7917 18.9865C30.2141 18.9865 30.5592 18.8595 30.8277 18.6063C31.0961 18.3523 31.23 17.9954 31.23 17.5348C31.23 17.0879 31.0986 16.7342 30.8373 16.4738C30.5761 16.2134 30.227 16.0831 29.7917 16.0831ZM44.1926 20.275C42.9324 20.275 42.0165 20.9277 41.4473 22.2339H41.3466C40.891 20.9277 39.9792 20.275 38.611 20.275C38.0813 20.275 37.5831 20.4084 37.1171 20.6761C36.6511 20.9438 36.2842 21.365 36.0158 21.9397H35.8448L35.5232 20.488H33.4012V31.7952H36.0762V26.3646C36.0762 25.011 36.2068 24.0408 36.4681 23.4516C36.7301 22.8633 37.1485 22.5683 37.7258 22.5683C38.5497 22.5683 38.9625 23.397 38.9625 25.0544V31.7944H41.6578V26.3036C41.6578 24.9982 41.7852 24.0489 42.0399 23.4565C42.2947 22.8641 42.7172 22.5683 43.3073 22.5683C44.1184 22.5683 44.5239 23.397 44.5239 25.0544V31.7944H47.2191V24.4154C47.2191 23.0618 46.9628 22.0337 46.45 21.3296C45.938 20.6271 45.185 20.275 44.1926 20.275ZM49.4024 31.7952H52.0775V20.488H49.4024V31.7952ZM50.7601 16.0831C50.2973 16.0831 49.937 16.2134 49.679 16.4738C49.421 16.7342 49.292 17.0879 49.292 17.5348C49.292 17.9954 49.4258 18.3523 49.6943 18.6063C49.9627 18.8595 50.3175 18.9865 50.7601 18.9865C51.1826 18.9865 51.5276 18.8595 51.7961 18.6063C52.0646 18.3523 52.1984 17.9954 52.1984 17.5348C52.1984 17.0879 52.067 16.7342 51.8058 16.4738C51.5446 16.2134 51.1955 16.0831 50.7601 16.0831ZM54.3704 31.7952H57.0455V16.002H54.3696L54.3704 31.7952ZM63.0995 20.2549C61.8109 20.2493 60.5489 20.6198 59.469 21.3208L60.3938 23.188C61.2653 22.6599 62.0361 22.3962 62.706 22.3962C63.6114 22.3962 64.0645 22.9243 64.0645 23.9797V24.7916L62.5754 24.8527C61.2887 24.9138 60.3212 25.2329 59.6746 25.8116C59.0272 26.3904 58.7039 27.2746 58.7039 28.4658C58.7039 29.5759 58.9401 30.4416 59.4134 31.0645C59.8858 31.6867 60.5349 31.9977 61.3588 31.9977C62.0022 31.9977 62.5359 31.8731 62.9576 31.6224C63.3792 31.3716 63.7888 30.915 64.1839 30.2519H64.2435L64.7772 31.7944H66.738V24.2024C66.738 22.9444 66.4276 21.971 65.8084 21.2846C65.1892 20.5981 64.2862 20.2549 63.0995 20.2549ZM64.0645 27.4514C64.0645 28.1893 63.9186 28.7793 63.6268 29.2222C63.3357 29.6667 62.9439 29.8877 62.4553 29.8877C61.7982 29.8877 61.4701 29.4207 61.4701 28.4867C61.4701 27.8581 61.612 27.3839 61.8966 27.0648C62.182 26.7473 62.6286 26.572 63.2398 26.5375L64.0637 26.4965L64.0645 27.4514ZM72.4614 20.7316C72.1131 21.0362 71.7915 21.5434 71.4964 22.254H71.4069L71.1045 20.488H68.9027V31.7952H71.577V25.9796C71.577 24.9917 71.7519 24.2386 72.0994 23.7209C72.4493 23.2033 72.9484 22.9444 73.5982 22.9444C73.8997 22.9444 74.1448 22.9782 74.3319 23.0457L74.6439 20.4269C74.3322 20.3262 74.0065 20.2749 73.6788 20.275C73.2161 20.275 72.8105 20.4277 72.4614 20.7316ZM86.8535 25.3301C86.7454 25.9724 86.5753 27.2955 86.3407 29.2994C86.2254 27.991 86.061 26.6874 85.8481 25.3912L84.2792 16.9561H81.4428L79.8739 25.3912C79.7264 26.1693 79.5692 27.4659 79.4015 29.2793C79.2491 27.9608 79.0779 26.6446 78.8879 25.331L77.5713 16.9569H74.8858L77.5512 31.796H80.9696L82.3676 24.0617L82.7804 21.0065L82.861 20.2549C82.9545 21.7034 83.1125 22.9581 83.3335 24.0207L84.7718 31.7952H88.191L90.8354 16.9561H88.1305L86.8535 25.3301ZM95.6035 20.275C94.2958 20.275 93.2759 20.7991 92.5455 21.8481C91.815 22.897 91.4498 24.3551 91.4498 26.2232C91.4498 28.0631 91.8537 29.4858 92.6623 30.4914C93.4702 31.4962 94.5739 31.9985 95.9752 31.9985C97.1748 31.9985 98.2052 31.7389 99.063 31.2172V28.9939C98.1512 29.5421 97.2595 29.8154 96.3879 29.8154C95.7043 29.8154 95.1673 29.5694 94.7787 29.0799C94.3901 28.5888 94.1853 27.8396 94.1652 26.8317H99.5451V25.3904C99.5451 23.7732 99.1936 22.516 98.4898 21.6198C97.7851 20.7235 96.8225 20.275 95.6035 20.275ZM94.2047 24.8736C94.245 24.0143 94.3893 23.3801 94.6368 22.9702C94.8851 22.561 95.1996 22.3561 95.5825 22.3561C95.9913 22.3561 96.313 22.5691 96.5476 22.9959C96.7822 23.4219 96.9063 24.0481 96.9192 24.8736H94.2047ZM108.776 21.8079C108.194 20.7862 107.392 20.275 106.374 20.275C105.878 20.275 105.439 20.4004 105.056 20.6504C104.674 20.9012 104.319 21.3368 103.99 21.9598H103.85C103.93 20.9446 103.973 20.3522 103.98 20.1834C103.987 20.0146 103.99 19.8514 103.99 19.6963V16.002H101.315V31.7952H103.286L103.739 30.5059H103.91C104.252 31.0605 104.616 31.4487 105.002 31.6682C105.388 31.8876 105.831 31.9977 106.334 31.9977C107.373 31.9977 108.186 31.4865 108.772 30.4649C109.359 29.4432 109.653 27.9956 109.653 26.1211C109.652 24.2675 109.36 22.8295 108.776 21.8079ZM105.469 29.6739C104.946 29.6739 104.568 29.4071 104.337 28.8717C104.106 28.338 103.99 27.4144 103.99 26.101V25.8269C104.004 24.6156 104.122 23.77 104.347 23.2893C104.571 22.8086 104.938 22.5691 105.448 22.5691C106.427 22.5691 106.916 23.7402 106.916 26.0809C106.917 28.4763 106.434 29.6739 105.469 29.6739Z" fill="black"/>
</g>
<defs>
<clipPath id="clip0_3184_32912">
<rect width="109" height="15.9966" fill="white" transform="translate(0.714844 16.002)"/>
</clipPath>
</defs>
</svg>
