<svg width="89" height="48" viewBox="0 0 89 48" fill="none" xmlns="http://www.w3.org/2000/svg">
<g clip-path="url(#clip0_3184_33394)">
<path d="M0.575439 15.9092H3.64375V22.763H10.115V15.9092H13.1873V32.7333H10.115V25.7355H3.64375V32.7333H0.575439V15.9092Z" fill="black"/>
<path d="M22.9076 27.2531C22.9076 28.6615 21.7663 29.8075 20.3659 29.8075C18.965 29.8075 17.8244 28.6615 17.8244 27.2531V20.0098H14.9146V27.2531C14.9146 30.275 17.3602 32.733 20.3659 32.733C23.371 32.733 25.8164 30.275 25.8164 27.2531V20.0098H22.9076V27.2531Z" fill="black"/>
<path d="M33.9395 20.0949C32.4961 20.0949 31.4886 20.516 30.5156 21.4763V15.9092H27.5963V26.2266C27.5963 30.0885 30.3735 32.7333 33.4935 32.7333C36.9621 32.7333 40.0012 30.0413 40.0012 26.4143C40.0012 22.8332 37.1988 20.0949 33.9395 20.0949ZM34.0121 30.018C32.034 30.018 30.5213 28.3569 30.5213 26.4143C30.5213 24.4712 32.034 22.8097 34.0121 22.8097C35.6882 22.8097 37.2017 24.4712 37.2017 26.4143C37.2017 28.3569 35.6882 30.018 34.0121 30.018Z" fill="black"/>
<path d="M44.9043 20.8342C44.9043 19.3588 45.8821 18.891 46.9526 18.891C47.8144 18.891 48.9547 19.5463 49.699 20.3423L51.6073 18.0956C50.6536 16.8086 48.7219 15.9189 47.1389 15.9189C43.9728 15.9189 41.6915 17.768 41.6915 20.8342C41.6915 26.5213 48.6519 24.7186 48.6519 27.9024C48.6519 28.8843 47.6978 29.7511 46.6044 29.7511C44.8811 29.7511 44.3222 28.9085 43.5311 28.0188L41.4124 30.2185C42.7633 31.8804 44.4387 32.7233 46.4409 32.7233C49.4436 32.7233 51.8646 30.851 51.8646 27.925C51.8646 21.6062 44.9043 23.5724 44.9043 20.8342Z" fill="black"/>
<path d="M59.5498 19.9297C56.4301 19.9297 53.6526 22.5729 53.6526 26.4357V36.7797H56.5717V31.1861C57.5449 32.1457 58.5519 32.5675 59.9958 32.5675C63.2549 32.5675 66.0577 29.8296 66.0577 26.2485C66.0577 22.621 63.0177 19.9297 59.5498 19.9297ZM60.0685 29.8531C58.0906 29.8531 56.5777 28.1898 56.5777 26.2485C56.5777 24.3055 58.0906 22.644 60.0685 22.644C61.7443 22.644 63.258 24.3055 63.258 26.2485C63.258 28.1898 61.7443 29.8531 60.0685 29.8531Z" fill="black"/>
<path d="M87.5457 30.0175C85.8238 30.0175 85.335 29.2689 85.335 28.1217V23.0432H88.0115V20.4691H85.335V17.0752L82.3796 18.4089V28.7536C82.3796 31.3986 84.1946 32.7328 86.6842 32.7328C87.0567 32.7328 87.5694 32.7086 87.849 32.6393L88.5708 29.9716C88.2449 29.9942 87.8726 30.0175 87.5457 30.0175Z" fill="black"/>
<path d="M79.8472 23.1929C79.2876 22.2248 78.5004 21.4487 77.5162 20.8645C76.7808 20.434 76.0182 20.1608 75.1588 20.0435V16.9675C76.0182 16.6007 76.5515 15.7886 76.5515 14.8413C76.5515 13.5501 75.5216 12.5038 74.2384 12.5038C72.9541 12.5038 71.9062 13.5501 71.9062 14.8413C71.9062 15.7886 72.4088 16.6007 73.2682 16.9675V20.0449C72.5807 20.1447 71.8677 20.3602 71.2167 20.6913C69.8869 19.6759 65.5264 16.3447 62.9756 14.3991C63.0361 14.1798 63.0827 13.9538 63.0827 13.7153C63.0827 12.2852 61.9308 11.126 60.5078 11.126C59.0849 11.126 57.9335 12.2852 57.9335 13.7153C57.9335 15.1453 59.0861 16.3048 60.509 16.3048C60.9944 16.3048 61.4433 16.1621 61.8307 15.9274L62.3691 16.338L69.7659 21.6964C69.3748 22.0574 69.0106 22.4679 68.7193 22.9286C68.1289 23.8679 67.7682 24.9012 67.7682 26.0284V26.2636C67.7682 27.0549 67.9177 27.802 68.1724 28.5037C68.3967 29.1165 68.7246 29.6736 69.1308 30.1774L66.6759 32.6516C66.4581 32.5709 66.2294 32.5267 65.9906 32.5267C65.4592 32.5267 64.9608 32.7354 64.5849 33.1126C64.2086 33.4909 64.0026 33.9933 64.0026 34.5279C64.0027 35.0624 64.2098 35.5648 64.5859 35.9427C64.9618 36.3208 65.4614 36.5292 65.9932 36.5292C66.525 36.5292 67.0248 36.3208 67.401 35.9427C67.7764 35.5648 67.9837 35.0622 67.9837 34.5279C67.9837 34.3211 67.9519 34.1192 67.8921 33.9274L70.4295 31.3759C70.7773 31.6175 71.1531 31.8209 71.557 31.9963C72.3536 32.3426 73.2329 32.5536 74.1953 32.5536H74.3716C75.4355 32.5536 76.4391 32.3024 77.3825 31.7884C78.3766 31.2453 79.1547 30.5026 79.7425 29.5544C80.3334 28.6036 80.6588 27.5531 80.6588 26.3974V26.3397C80.6588 25.2028 80.397 24.1538 79.8472 23.1929ZM76.7469 28.5452C76.0582 29.3147 75.2666 29.7887 74.3716 29.7887H74.2241C73.713 29.7887 73.213 29.6467 72.7235 29.3883C72.1718 29.1039 71.7524 28.6981 71.4092 28.1844C71.0544 27.6801 70.8619 27.1296 70.8619 26.5458V26.3685C70.8619 25.7946 70.9714 25.2505 71.2474 24.7365C71.5425 24.1748 71.9411 23.7379 72.4712 23.3906C72.9916 23.0456 73.5475 22.8765 74.1665 22.8765H74.2241C74.7855 22.8765 75.3169 22.9877 75.8184 23.2457C76.3294 23.5209 76.7469 23.8967 77.0705 24.3911C77.3849 24.8857 77.5719 25.4191 77.6321 26.0003C77.6415 26.1211 77.6463 26.2448 77.6463 26.363C77.6463 27.1517 77.3466 27.8821 76.7469 28.5452Z" fill="#83838E"/>
</g>
<defs>
<clipPath id="clip0_3184_33394">
<rect width="88" height="25.7481" fill="white" transform="translate(0.565063 11.126)"/>
</clipPath>
</defs>
</svg>
