<svg width="73" height="48" viewBox="0 0 73 48" fill="none" xmlns="http://www.w3.org/2000/svg">
<g clip-path="url(#clip0_3184_34758)">
<path d="M5.2568 20.3513C6.54174 19.7232 7.96422 19.4259 9.39342 19.4827C12.1579 19.5762 13.6777 20.9761 13.738 23.7157C13.8051 26.5856 13.785 29.4322 13.7749 32.2988C13.7749 33.4648 13.4663 33.7354 12.3088 33.7354H10.7052C9.68195 33.7354 9.36323 33.4247 9.3431 32.399V24.7147C9.3431 23.5253 8.77947 23.0375 7.5717 23.0843C7.36034 23.0876 7.15233 23.1077 6.94433 23.1444C5.36081 23.4651 5.27022 23.5787 5.27022 25.1858V32.0348C5.27022 33.4982 5.0186 33.7454 3.56928 33.7454H1.96227C1.20741 33.7454 0.875275 33.3913 0.824951 32.6162V14.5212C0.824951 13.1982 1.10676 12.9209 2.41518 12.9209H3.83096C4.92802 12.9209 5.26687 13.2283 5.287 14.3308C5.31719 15.9846 5.287 17.6384 5.287 19.2889C5.2568 19.5929 5.2568 19.9203 5.2568 20.3513ZM28.8989 27.0567C28.8016 27.8185 28.748 28.7941 28.5433 29.7462C28.2246 31.8912 26.5505 33.5884 24.4033 33.9426C22.9339 34.2566 21.4141 34.2366 19.9547 33.8858C18.1062 33.5316 16.63 32.1384 16.1804 30.3176C15.5128 28.0223 15.5128 25.5833 16.1804 23.2847C16.8883 20.8725 18.7402 19.5795 21.4544 19.486C22.434 19.4325 23.4136 19.496 24.3799 19.6664C26.9397 20.1776 28.3923 21.9049 28.7211 24.728C28.8016 25.443 28.8251 26.1346 28.8989 27.0567ZM24.4268 27.1135C24.3765 26.3284 24.3497 25.7905 24.2993 25.2626C24.2691 24.9853 24.2121 24.7113 24.1282 24.4441C23.9672 23.5553 23.152 22.9306 22.2495 23.0007C21.3671 22.9339 20.5754 23.542 20.4177 24.4106C20.0151 25.9976 20.0151 27.6581 20.4177 29.2418C20.5821 30.1238 21.4074 30.7285 22.3032 30.6283C23.152 30.6851 23.9102 30.1071 24.0746 29.2752C24.2322 28.5602 24.3497 27.8385 24.4302 27.1102V27.1135H24.4268ZM57.2245 24.9185C57.4191 23.4451 57.0903 22.9907 55.6645 23.0575C54.5003 23.1544 53.3463 23.3248 52.2056 23.5687C51.2394 23.7424 50.5315 23.4985 50.3973 22.7502C50.1792 21.5173 50.2631 20.4582 51.2561 20.1609C53.5543 19.4091 56.0168 19.2855 58.3786 19.8067C60.5258 20.3179 61.5658 21.7312 61.5658 24.0398V32.2086C61.5658 32.8267 61.5658 33.4615 60.8277 33.702C60.0091 33.9994 59.0865 33.7488 58.5363 33.0739L58.3082 32.7465C57.0534 33.7454 55.4699 34.2499 53.8629 34.1564C50.3738 34.0294 48.3709 30.7185 49.8873 27.5679C50.5952 26.0678 52.011 25.5967 53.4737 25.3628C54.7352 25.1757 55.9866 25.0588 57.2245 24.9185ZM57.2916 27.324C56.4462 27.451 55.7014 27.5211 54.9801 27.6782C54.2252 27.775 53.6583 28.4065 53.6415 29.1616C53.4838 29.92 53.8864 30.6884 54.6043 30.9891C55.3122 31.2631 56.8186 30.9891 57.1642 30.508C57.2313 30.4145 57.2682 30.3042 57.2715 30.1906C57.2916 29.2618 57.2916 28.3397 57.2916 27.314V27.324ZM31.9318 19.9771V18.1529C31.868 17.595 32.2304 17.0738 32.7772 16.9401C33.4985 16.6996 34.2333 16.4958 34.9781 16.3254C35.5148 16.1483 36.0952 16.4356 36.2731 16.9702C36.32 17.1139 36.3368 17.2642 36.3167 17.4146C36.3402 18.1997 36.3167 18.9815 36.3167 19.8535H38.4169C39.4401 19.8769 39.7924 20.2077 39.8326 21.2634C39.8897 23.4083 39.7722 23.5286 37.6452 23.5286H36.4106C36.3771 23.7191 36.3536 23.9128 36.3435 24.1066V28.6303C36.3435 30.0403 36.7696 30.4712 38.1451 30.5715C39.3529 30.6583 39.6817 30.9256 39.6817 31.9045C39.7253 33.4681 39.4066 33.996 38.1451 34.0695C37.1453 34.143 36.1389 34.0929 35.1525 33.9192C33.1027 33.5049 31.9989 32.1818 31.9284 30.0236C31.868 28.1392 31.9049 26.2549 31.8982 24.3806V23.5353H30.6603C30.0765 23.5821 29.5666 23.1511 29.5162 22.5697V22.4729C29.3451 21.0295 29.6035 20.6453 30.9823 20.2578L31.9318 19.9771ZM47.3342 28.7473C47.3342 31.1896 47.3812 33.6352 47.3342 36.0775C47.3208 38.8973 45.0193 41.1725 42.1878 41.1592C41.9194 41.1592 41.651 41.1358 41.3826 41.0923C40.3963 40.9687 40.044 40.5812 40.0306 39.5621V38.6567C40.0742 37.8048 40.3392 37.5074 41.188 37.3504C42.4998 37.1065 42.9259 36.6154 42.9292 35.2522V21.3536C42.9292 20.1742 43.2312 19.8602 44.4155 19.8234H46.0258C46.9786 19.8669 47.3376 20.211 47.3443 21.1665V28.7005L47.3342 28.7473ZM67.1149 20.8224C68.2757 19.9938 69.6579 19.5294 71.0837 19.486C72.4995 19.486 72.8249 19.7833 72.8216 21.1799V21.808C72.8216 22.7101 72.4458 23.0308 71.5601 23.1244C70.7281 23.2246 69.8994 23.3716 69.0808 23.5587C68.5306 23.6756 68.3226 24.0064 68.3327 24.6178C68.3763 27.167 68.3327 29.6961 68.3327 32.232C68.3327 33.4782 68.0609 33.7388 66.7961 33.7621H64.9711C64.4477 33.8056 63.9881 33.4147 63.9445 32.8935C63.9377 32.83 63.9411 32.7665 63.9478 32.703V20.9727C63.9075 20.4515 64.3001 19.9938 64.8234 19.9537H64.8268H64.8704C65.7561 19.8034 66.6854 19.6664 67.1149 20.8224Z" fill="black"/>
<path d="M46.8578 17.344C47.6596 14.4807 47.3711 13.0374 45.9654 12.7601C46.1801 13.7324 46.4217 14.7313 45.3951 15.4062C44.8583 15.7604 44.4322 15.6234 43.4794 14.895C43.0399 15.7938 43.1875 16.6892 43.3922 17.648C42.0267 17.4108 40.9498 16.8462 40.4499 15.5332C39.9333 14.3371 40.2184 12.9506 41.1578 12.0485C41.4866 11.7144 41.8422 11.4104 42.2213 11.1364C43.7579 9.98708 44.0565 8.87118 43.2446 7.14388C43.2077 7.04365 43.1775 6.94342 43.1573 6.83984C44.865 7.0971 46.4821 7.78201 47.8576 8.82441C50.8535 11.2633 50.4912 15.6501 47.1833 17.2605C47.0692 17.2672 46.9618 17.2939 46.8578 17.344Z" fill="#83838E"/>
</g>
<defs>
<clipPath id="clip0_3184_34758">
<rect width="72" height="34.3256" fill="white" transform="translate(0.824951 6.83691)"/>
</clipPath>
</defs>
</svg>
