<svg width="69" height="48" viewBox="0 0 69 48" fill="none" xmlns="http://www.w3.org/2000/svg">
<path d="M0.815078 32.5V18.5H2.55508V30.9H8.93508V32.5H0.815078ZM10.5555 18.5H12.1955V32.5H10.5555V18.5ZM23.9823 31V32.5H23.0823C22.4223 32.5 21.9623 32.38 21.6823 32.1C21.4023 31.84 21.2423 31.44 21.2423 30.92C20.4423 32.06 19.3023 32.62 17.8223 32.62C16.6823 32.62 15.7623 32.36 15.0823 31.82C14.4023 31.3 14.0623 30.56 14.0623 29.64C14.0623 28.62 14.4023 27.84 15.1023 27.28C15.8023 26.74 16.8223 26.46 18.1623 26.46H21.1623V25.76C21.1623 25.1 20.9223 24.58 20.4823 24.2C20.0423 23.84 19.4223 23.64 18.6223 23.64C17.9023 23.64 17.3223 23.8 16.8623 24.12C16.4023 24.44 16.1223 24.84 16.0223 25.36H14.3823C14.5023 24.36 14.9423 23.58 15.7023 23.02C16.4623 22.46 17.4623 22.18 18.7023 22.18C20.0023 22.18 21.0023 22.5 21.7223 23.14C22.4423 23.78 22.8023 24.68 22.8023 25.86V30.26C22.8023 30.76 23.0223 31 23.4823 31H23.9823ZM21.1623 27.84H18.0023C16.4823 27.84 15.7223 28.42 15.7223 29.54C15.7223 30.06 15.9223 30.46 16.3223 30.76C16.7223 31.08 17.2623 31.22 17.9423 31.22C18.9423 31.22 19.7223 30.96 20.3023 30.44C20.8623 29.92 21.1623 29.22 21.1623 28.34V27.84ZM39.403 23.26C40.123 23.98 40.483 25.1 40.483 26.62V32.5H38.843V26.72C38.843 25.74 38.623 24.98 38.203 24.46C37.783 23.94 37.183 23.68 36.423 23.68C35.563 23.68 34.883 23.98 34.403 24.58C33.923 25.18 33.683 26 33.683 27.04V32.5H32.043V26.72C32.043 25.74 31.823 24.98 31.403 24.46C30.963 23.94 30.363 23.68 29.583 23.68C28.743 23.68 28.083 24 27.603 24.64C27.123 25.28 26.883 26.1 26.883 27.12V32.5H25.243V22.3H26.663L26.883 23.7C27.603 22.7 28.603 22.18 29.863 22.18C30.583 22.18 31.243 22.36 31.803 22.68C32.363 23 32.803 23.48 33.083 24.12C33.803 22.84 34.983 22.18 36.623 22.18C37.763 22.18 38.683 22.54 39.403 23.26ZM52.1268 31V32.5H51.2268C50.5668 32.5 50.1068 32.38 49.8268 32.1C49.5468 31.84 49.3868 31.44 49.3868 30.92C48.5868 32.06 47.4468 32.62 45.9668 32.62C44.8268 32.62 43.9068 32.36 43.2268 31.82C42.5468 31.3 42.2068 30.56 42.2068 29.64C42.2068 28.62 42.5468 27.84 43.2468 27.28C43.9468 26.74 44.9668 26.46 46.3068 26.46H49.3068V25.76C49.3068 25.1 49.0668 24.58 48.6268 24.2C48.1868 23.84 47.5668 23.64 46.7668 23.64C46.0468 23.64 45.4668 23.8 45.0068 24.12C44.5468 24.44 44.2668 24.84 44.1668 25.36H42.5268C42.6468 24.36 43.0868 23.58 43.8468 23.02C44.6068 22.46 45.6068 22.18 46.8468 22.18C48.1468 22.18 49.1468 22.5 49.8668 23.14C50.5868 23.78 50.9468 24.68 50.9468 25.86V30.26C50.9468 30.76 51.1668 31 51.6268 31H52.1268ZM49.3068 27.84H46.1468C44.6268 27.84 43.8668 28.42 43.8668 29.54C43.8668 30.06 44.0668 30.46 44.4668 30.76C44.8668 31.08 45.4068 31.22 46.0868 31.22C47.0868 31.22 47.8668 30.96 48.4468 30.44C49.0068 29.92 49.3068 29.22 49.3068 28.34V27.84Z" fill="#83838E"/>
<path d="M67.702 26.4C68.262 26.98 68.562 27.72 68.562 28.62C68.562 29.42 68.342 30.12 67.922 30.72C67.502 31.32 66.902 31.8 66.142 32.12C65.362 32.46 64.462 32.62 63.462 32.62C61.902 32.62 60.682 32.24 59.762 31.44C58.842 30.64 58.382 29.56 58.382 28.18H60.102C60.102 29.1 60.422 29.82 61.062 30.34C61.702 30.86 62.522 31.12 63.562 31.12C64.502 31.12 65.282 30.88 65.902 30.4C66.522 29.92 66.842 29.3 66.842 28.5C66.842 27.76 66.542 27.18 65.942 26.74C65.342 26.32 64.482 26.1 63.402 26.1H62.202V24.64H63.302C64.322 24.64 65.102 24.42 65.662 23.96C66.202 23.52 66.482 22.92 66.482 22.18C66.482 21.48 66.202 20.92 65.642 20.5C65.082 20.1 64.382 19.88 63.522 19.88C62.602 19.88 61.862 20.12 61.302 20.58C60.742 21.04 60.442 21.66 60.442 22.44H58.762C58.762 21.18 59.202 20.18 60.062 19.46C60.902 18.74 62.042 18.38 63.462 18.38C64.422 18.38 65.262 18.54 65.982 18.84C66.702 19.16 67.242 19.58 67.622 20.14C68.002 20.7 68.202 21.36 68.202 22.08C68.202 22.94 67.962 23.64 67.502 24.2C67.022 24.76 66.402 25.12 65.602 25.28C66.422 25.44 67.122 25.82 67.702 26.4Z" fill="black"/>
</svg>
