<svg width="57" height="48" viewBox="0 0 57 48" fill="none" xmlns="http://www.w3.org/2000/svg">
<path d="M0.574844 18.5H9.27484V20.1H2.31484V24.78H8.07484V26.38H2.31484V32.5H0.574844V18.5ZM19.5428 31V32.5H18.6428C17.9828 32.5 17.5228 32.38 17.2428 32.1C16.9628 31.84 16.8028 31.44 16.8028 30.92C16.0028 32.06 14.8628 32.62 13.3828 32.62C12.2428 32.62 11.3228 32.36 10.6428 31.82C9.96281 31.3 9.62281 30.56 9.62281 29.64C9.62281 28.62 9.96281 27.84 10.6628 27.28C11.3628 26.74 12.3828 26.46 13.7228 26.46H16.7228V25.76C16.7228 25.1 16.4828 24.58 16.0428 24.2C15.6028 23.84 14.9828 23.64 14.1828 23.64C13.4628 23.64 12.8828 23.8 12.4228 24.12C11.9628 24.44 11.6828 24.84 11.5828 25.36H9.94281C10.0628 24.36 10.5028 23.58 11.2628 23.02C12.0228 22.46 13.0228 22.18 14.2628 22.18C15.5628 22.18 16.5628 22.5 17.2828 23.14C18.0028 23.78 18.3628 24.68 18.3628 25.86V30.26C18.3628 30.76 18.5828 31 19.0428 31H19.5428ZM16.7228 27.84H13.5628C12.0428 27.84 11.2828 28.42 11.2828 29.54C11.2828 30.06 11.4828 30.46 11.8828 30.76C12.2828 31.08 12.8228 31.22 13.5028 31.22C14.5028 31.22 15.2828 30.96 15.8628 30.44C16.4228 29.92 16.7228 29.22 16.7228 28.34V27.84ZM20.8036 18.5H22.4436V32.5H20.8036V18.5ZM32.2903 31.66C31.4903 32.3 30.4903 32.62 29.2903 32.62C28.2903 32.62 27.4303 32.4 26.6903 31.96C25.9303 31.52 25.3503 30.92 24.9503 30.12C24.5303 29.32 24.3303 28.42 24.3303 27.38C24.3303 26.36 24.5303 25.46 24.9503 24.66C25.3703 23.88 25.9703 23.28 26.7303 22.84C27.4903 22.4 28.3503 22.18 29.3503 22.18C30.5503 22.18 31.5303 22.5 32.3103 23.14C33.0903 23.78 33.5903 24.66 33.7903 25.78H32.1303C31.9703 25.14 31.6303 24.62 31.1303 24.22C30.6103 23.84 30.0103 23.64 29.2903 23.64C28.3103 23.64 27.5103 24 26.9103 24.68C26.3103 25.38 26.0103 26.28 26.0103 27.38C26.0103 28.5 26.3103 29.42 26.9103 30.12C27.5103 30.82 28.3103 31.16 29.2903 31.16C30.0303 31.16 30.6503 30.98 31.1703 30.58C31.6703 30.2 31.9903 29.66 32.1503 28.98H33.7903C33.5703 30.12 33.0703 31.02 32.2903 31.66ZM37.5316 31.96C36.7716 31.52 36.1716 30.92 35.7516 30.12C35.3116 29.34 35.1116 28.44 35.1116 27.4C35.1116 26.38 35.3116 25.48 35.7516 24.68C36.1716 23.9 36.7716 23.28 37.5316 22.84C38.2916 22.4 39.1716 22.18 40.1716 22.18C41.1516 22.18 42.0316 22.4 42.7916 22.84C43.5516 23.28 44.1516 23.9 44.5916 24.68C45.0116 25.48 45.2316 26.38 45.2316 27.4C45.2316 28.44 45.0116 29.34 44.5916 30.12C44.1516 30.92 43.5516 31.52 42.7916 31.96C42.0316 32.4 41.1516 32.62 40.1716 32.62C39.1716 32.62 38.2916 32.4 37.5316 31.96ZM41.9316 30.68C42.4516 30.36 42.8516 29.92 43.1316 29.34C43.4116 28.78 43.5516 28.12 43.5516 27.4C43.5516 26.68 43.4116 26.04 43.1316 25.46C42.8516 24.9 42.4516 24.44 41.9316 24.12C41.4116 23.8 40.8316 23.64 40.1716 23.64C39.4916 23.64 38.9116 23.8 38.3916 24.12C37.8716 24.44 37.4916 24.9 37.2116 25.46C36.9316 26.04 36.7916 26.68 36.7916 27.4C36.7916 28.12 36.9316 28.78 37.2116 29.34C37.4916 29.92 37.8716 30.36 38.3916 30.68C38.9116 31 39.4916 31.16 40.1716 31.16C40.8316 31.16 41.4116 31 41.9316 30.68ZM55.0922 23.3C55.8522 24.06 56.2322 25.22 56.2322 26.82V32.5H54.5922V26.92C54.5922 25.88 54.3522 25.08 53.8722 24.52C53.3922 23.96 52.7122 23.68 51.8322 23.68C50.8722 23.68 50.1122 24.02 49.5722 24.68C49.0122 25.36 48.7522 26.26 48.7522 27.4V32.5H47.1122V22.3H48.5322L48.7522 23.68C49.5122 22.68 50.6322 22.18 52.1122 22.18C53.3522 22.18 54.3322 22.56 55.0922 23.3Z" fill="black"/>
</svg>
