<svg width="80" height="48" viewBox="0 0 80 48" fill="none" xmlns="http://www.w3.org/2000/svg">
<g clip-path="url(#clip0_3235_30750)">
<path d="M27.2203 10.4863H0.193359V37.5133H27.2203V10.4863Z" fill="black"/>
<path d="M17.5493 16.1895L6.5918 31.8374H9.89062L20.8482 16.1895H17.5493Z" fill="white"/>
<path d="M46.1383 31.4896C45.241 31.7844 44.3044 31.9421 43.3601 31.9573C41.7558 31.9573 40.3439 31.6267 39.1241 30.9657C37.9455 30.3468 36.9671 29.4056 36.303 28.2519C35.6343 27.0715 35.292 25.7344 35.3113 24.3779C35.3113 22.7032 35.6661 21.2521 36.3757 20.0246C37.049 18.8324 38.0452 17.8545 39.2498 17.2035C40.468 16.5473 41.8327 16.2107 43.2163 16.225C44.0422 16.2203 44.8651 16.3242 45.664 16.5341C46.3834 16.7235 47.0768 17.001 47.7282 17.3605L47.0473 19.2545C46.5045 18.9638 45.9292 18.7386 45.3334 18.5835C44.7283 18.4043 44.1018 18.3076 43.4708 18.2959C42.3735 18.2739 41.2876 18.5226 40.3091 19.0198C39.4137 19.4824 38.6762 20.201 38.1904 21.084C37.6767 22.0459 37.42 23.1241 37.445 24.2143C37.4266 25.2491 37.6839 26.2701 38.1904 27.1727C38.6821 28.0339 39.4144 28.7329 40.2976 29.184C41.2599 29.6726 42.3273 29.9178 43.4063 29.898C43.9356 29.8972 44.4634 29.8418 44.9814 29.7327C45.429 29.6495 45.8603 29.4949 46.2589 29.2749V26.2306H43.1931V24.2473H48.3447V30.4632C47.8764 30.8323 47.142 31.1728 46.1416 31.4846L46.1383 31.4896Z" fill="black"/>
<path d="M54.68 23.7824C55.0747 23.4289 55.524 23.1415 56.0104 22.9313C56.3998 22.7526 56.8178 22.6446 57.245 22.6123L57.159 24.5956C56.5562 24.5592 55.9551 24.692 55.4237 24.979C54.917 25.2521 54.4968 25.6614 54.2106 26.1607C53.9241 26.6481 53.7734 27.2034 53.7743 27.7688V31.7932H51.791V22.9743H53.5578L53.7065 25.06C53.9376 24.5718 54.2673 24.1368 54.675 23.7824H54.68Z" fill="black"/>
<path d="M59.2789 24.9216C59.6944 24.2081 60.2982 23.6226 61.0242 23.2292C61.7978 22.81 62.6664 22.5972 63.5462 22.6111C64.4194 22.5958 65.2814 22.8088 66.0468 23.2292C66.7585 23.6224 67.3476 24.2047 67.7491 24.9117C68.1582 25.6392 68.3674 26.462 68.3556 27.2966C68.3662 28.1341 68.1571 28.9598 67.7491 29.6914C67.3477 30.405 66.7538 30.9914 66.0352 31.3838C65.2593 31.7839 64.3999 31.9953 63.5269 32.0008C62.6538 32.0062 61.7918 31.8056 61.011 31.4152C60.288 31.0392 59.6864 30.4662 59.2756 29.7624C58.8462 29.0116 58.6291 28.1581 58.6476 27.2933C58.6389 26.46 58.856 25.6399 59.2756 24.92L59.2789 24.9216ZM61.0242 28.8485C61.2589 29.3027 61.6117 29.6853 62.0456 29.9558C62.592 30.2866 63.2352 30.4206 63.8683 30.3356C64.5015 30.2505 65.0864 29.9514 65.5262 29.4881C66.0687 28.8974 66.3587 28.118 66.3344 27.3164C66.3571 26.5121 66.0675 25.7302 65.5262 25.1348C65.2698 24.8481 64.9542 24.6206 64.6012 24.4679C64.2482 24.3152 63.8663 24.2411 63.4818 24.2506C62.9688 24.2428 62.465 24.3872 62.034 24.6655C61.606 24.9443 61.2576 25.3292 61.0225 25.7827C60.7777 26.2566 60.65 26.7822 60.65 27.3156C60.65 27.849 60.7777 28.3746 61.0225 28.8485H61.0242Z" fill="black"/>
<path d="M75.5116 26.4434L78.7675 23.8238L77.5544 22.7611L72.9995 26.4219V16.2246H71.0195V31.7866H72.9995V28.4861L74.1481 27.5507L76.8735 31.7866H79.1939L75.5116 26.4434Z" fill="black"/>
</g>
<defs>
<clipPath id="clip0_3235_30750">
<rect width="79" height="27.0269" fill="white" transform="translate(0.193359 10.4863)"/>
</clipPath>
</defs>
</svg>
