<svg width="63" height="48" viewBox="0 0 63 48" fill="none" xmlns="http://www.w3.org/2000/svg">
<g clip-path="url(#clip0_3235_30726)">
<path d="M23.7204 20.1514C20.0343 20.1514 17.0469 23.158 17.0469 26.8679C17.0469 30.5778 20.0343 33.5844 23.7204 33.5844C27.4064 33.5844 30.3938 30.5778 30.3938 26.8679C30.3938 23.158 27.4064 20.1514 23.7204 20.1514ZM23.7204 30.4364C21.7623 30.4388 20.1723 28.8423 20.1699 26.8716C20.1675 24.9008 21.7538 23.3006 23.7119 23.2982C25.67 23.2957 27.2599 24.8923 27.2623 26.863V26.8679C27.2623 28.8374 25.6772 30.4352 23.7204 30.4364Z" fill="black"/>
<path d="M39.7444 25.0191C41.08 25.0191 42.1627 23.9294 42.1627 22.5852C42.1627 21.241 41.08 20.1514 39.7444 20.1514C38.4089 20.1514 37.3262 21.241 37.3262 22.5852C37.3262 23.9294 38.4089 25.0191 39.7444 25.0191Z" fill="black"/>
<path d="M36.075 20.4717H32.6855V33.4306H36.075V20.4717Z" fill="black"/>
<path d="M62.0847 14.498H58.6953V33.4606H62.0847V14.498Z" fill="black"/>
<path d="M49.5563 20.1514C45.8702 20.1514 42.8828 23.158 42.8828 26.8679C42.8828 30.5778 45.2369 33.5844 48.923 33.5844C50.3688 33.5844 52.2167 32.7837 52.9881 31.4577V33.4626H56.1692V26.8691C56.168 23.158 53.2424 20.1514 49.5563 20.1514ZM49.5018 30.4364C47.5437 30.4364 45.955 28.8386 45.955 26.8667C45.955 24.8947 47.5425 23.297 49.5018 23.297C51.4611 23.297 53.0486 24.8947 53.0486 26.8667C53.0486 28.8386 51.4611 30.4364 49.5018 30.4364Z" fill="black"/>
<path d="M9.57895 30.144C6.1968 30.1452 3.45402 27.3847 3.45281 23.9808C3.4516 20.5768 6.19438 17.8163 9.57652 17.8151C11.3542 17.8151 13.0446 18.5927 14.2084 19.9455L16.7913 17.7627C14.9894 15.6372 12.3532 14.4148 9.57652 14.416C4.34406 14.4233 0.0839844 18.7109 0.0839844 23.9795C0.0839844 29.2482 4.34406 33.5358 9.57895 33.5358C11.818 33.5358 13.9855 32.7387 15.6978 31.2872L13.4975 28.7144C12.398 29.6382 11.0115 30.144 9.57895 30.144Z" fill="black"/>
</g>
<defs>
<clipPath id="clip0_3235_30726">
<rect width="62" height="26" fill="white" transform="translate(0.0839844 11)"/>
</clipPath>
</defs>
</svg>
