<svg width="108" height="48" viewBox="0 0 108 48" fill="none" xmlns="http://www.w3.org/2000/svg">
<path fill-rule="evenodd" clip-rule="evenodd" d="M10.3441 12.2252C11.2723 11.6893 12.4159 11.6893 13.3441 12.2252L21.2917 16.8137C22.2199 17.3496 22.7917 18.34 22.7917 19.4118V28.5889C22.7917 29.6607 22.2199 30.6511 21.2917 31.187L13.3441 35.7755C12.4159 36.3114 11.2723 36.3114 10.3441 35.7755L2.39649 31.187C1.46828 30.6511 0.896484 29.6607 0.896484 28.5889V19.4118C0.896484 18.34 1.46828 17.3496 2.39648 16.8137L10.3441 12.2252ZM10.3441 15.6648C11.2723 15.1289 12.4159 15.1289 13.3441 15.6648L18.3129 18.5335C19.2411 19.0694 19.8129 20.0598 19.8129 21.1316V26.8691C19.8129 27.9409 19.2411 28.9313 18.3129 29.4672L13.3441 32.3359C12.4159 32.8718 11.2723 32.8718 10.3441 32.3359L5.37527 29.4672C4.44706 28.9313 3.87526 27.9409 3.87526 26.8691V21.1316C3.87526 20.0598 4.44706 19.0694 5.37526 18.5335L10.3441 15.6648ZM11.3436 16.4002C11.653 16.2216 12.0342 16.2216 12.3436 16.4002L18.1754 19.7672C18.4848 19.9459 18.6754 20.276 18.6754 20.6333V27.1861C17.0846 26.2536 14.2487 24.6195 13.2751 24.0585L13.0097 23.9056C12.9615 23.3036 12.4577 22.8301 11.8433 22.8301C11.197 22.8301 10.6731 23.354 10.6731 24.0003C10.6731 24.6465 11.197 25.1705 11.8433 25.1705C12.0255 25.1705 12.1979 25.1288 12.3517 25.0546L18.0019 28.3335L12.3436 31.6003C12.0342 31.7789 11.653 31.7789 11.3436 31.6003L5.51181 28.2333C5.2024 28.0546 5.01181 27.7245 5.01181 27.3672V20.6333C5.01181 20.276 5.2024 19.9459 5.51181 19.7672L11.3436 16.4002Z" fill="black"/>
<path d="M37.031 31.5L36.071 27.76H31.891L30.951 31.5H28.971L32.971 17.64H35.071L39.071 31.5H37.031ZM32.251 26.28H35.691L33.971 19.5L32.251 26.28ZM50.7998 31.5V24.66C50.7998 23.9533 50.7064 23.44 50.5198 23.12C50.3464 22.8 50.0598 22.64 49.6598 22.64C49.3664 22.64 49.0331 22.7133 48.6598 22.86C48.2864 23.0067 47.9131 23.2067 47.5398 23.46C47.5664 23.7533 47.5798 24 47.5798 24.2V31.5H45.6998V24.66C45.6998 23.9533 45.5998 23.44 45.3998 23.12C45.2131 22.8 44.9198 22.64 44.5198 22.64C44.2398 22.64 43.9198 22.7133 43.5598 22.86C43.1998 22.9933 42.8398 23.1867 42.4798 23.44V31.5H40.5998V21.36H42.1598L42.3198 22.34C43.3731 21.5133 44.3731 21.1 45.3198 21.1C45.7998 21.1 46.2064 21.22 46.5398 21.46C46.8864 21.6867 47.1398 22.0067 47.2998 22.42C47.8198 21.9933 48.3464 21.6667 48.8798 21.44C49.4264 21.2133 49.9398 21.1 50.4198 21.1C51.1398 21.1 51.6931 21.36 52.0798 21.88C52.4798 22.4 52.6798 23.1333 52.6798 24.08V31.5H50.7998ZM60.2263 31.5L60.0863 30.6C59.7397 30.96 59.3463 31.24 58.9063 31.44C58.4663 31.6267 58.0063 31.72 57.5263 31.72C56.7397 31.72 56.1197 31.46 55.6663 30.94C55.2263 30.4067 55.0063 29.68 55.0063 28.76C55.0063 27.7867 55.2797 27.02 55.8263 26.46C56.373 25.8867 57.133 25.6 58.1063 25.6C58.7063 25.6 59.333 25.7067 59.9863 25.92V24.52C59.9863 23.8133 59.8663 23.32 59.6263 23.04C59.3997 22.76 58.993 22.62 58.4063 22.62C57.513 22.62 56.5597 22.8267 55.5463 23.24V21.88C55.9597 21.64 56.4463 21.4533 57.0063 21.32C57.5663 21.1733 58.1463 21.1 58.7463 21.1C59.7997 21.1 60.5663 21.3533 61.0463 21.86C61.5263 22.3667 61.7663 23.1667 61.7663 24.26V31.5H60.2263ZM58.0263 30.28C58.6663 30.28 59.3197 30 59.9863 29.44V27.12C59.3997 26.9733 58.893 26.9 58.4663 26.9C57.9197 26.9 57.513 27.0467 57.2463 27.34C56.9797 27.6333 56.8463 28.08 56.8463 28.68C56.8463 29.2 56.9463 29.6 57.1463 29.88C57.3463 30.1467 57.6397 30.28 58.0263 30.28ZM63.7479 31.5V30.04L68.2879 22.94H63.9079V21.36H70.2679V22.82L65.7279 29.92H70.3279V31.5H63.7479ZM75.7785 31.76C74.5118 31.76 73.5385 31.3 72.8585 30.38C72.1918 29.46 71.8585 28.14 71.8585 26.42C71.8585 24.7133 72.1918 23.4 72.8585 22.48C73.5385 21.56 74.5118 21.1 75.7785 21.1C77.0452 21.1 78.0118 21.56 78.6785 22.48C79.3585 23.4 79.6985 24.7133 79.6985 26.42C79.6985 28.14 79.3585 29.46 78.6785 30.38C78.0118 31.3 77.0452 31.76 75.7785 31.76ZM75.7785 30.24C76.4718 30.24 76.9852 29.9333 77.3185 29.32C77.6518 28.6933 77.8185 27.7267 77.8185 26.42C77.8185 25.1133 77.6518 24.1533 77.3185 23.54C76.9852 22.9267 76.4718 22.62 75.7785 22.62C75.0852 22.62 74.5718 22.9267 74.2385 23.54C73.9052 24.1533 73.7385 25.1133 73.7385 26.42C73.7385 27.7267 73.9052 28.6933 74.2385 29.32C74.5718 29.9333 75.0852 30.24 75.7785 30.24ZM87.2879 31.5V24.74C87.2879 23.98 87.1812 23.44 86.9679 23.12C86.7679 22.8 86.4412 22.64 85.9879 22.64C85.3079 22.64 84.5812 22.9067 83.8079 23.44V31.5H81.9279V21.36H83.4879L83.6479 22.34C84.7012 21.5133 85.7479 21.1 86.7879 21.1C87.5612 21.1 88.1479 21.36 88.5479 21.88C88.9612 22.3867 89.1679 23.12 89.1679 24.08V31.5H87.2879ZM95.8695 24.58C95.8695 22.3 96.3295 20.5333 97.2495 19.28C98.1695 18.0133 99.4561 17.38 101.109 17.38C102.763 17.38 104.049 18.0133 104.969 19.28C105.889 20.5333 106.349 22.3 106.349 24.58C106.349 26.4733 106.029 28.0267 105.389 29.24C104.749 30.44 103.836 31.22 102.649 31.58C103.183 32.0067 103.736 32.3333 104.309 32.56C104.883 32.7867 105.516 32.94 106.209 33.02V34.72C105.196 34.5867 104.236 34.2733 103.329 33.78C102.423 33.2867 101.589 32.6267 100.829 31.8C99.7761 31.7467 98.8761 31.4267 98.1295 30.84C97.3828 30.2533 96.8161 29.4267 96.4295 28.36C96.0561 27.2933 95.8695 26.0333 95.8695 24.58ZM97.8495 24.58C97.8495 26.42 98.1228 27.8133 98.6695 28.76C99.2161 29.6933 100.029 30.16 101.109 30.16C102.189 30.16 103.003 29.6933 103.549 28.76C104.096 27.8133 104.369 26.42 104.369 24.58C104.369 22.74 104.096 21.3533 103.549 20.42C103.003 19.4867 102.189 19.02 101.109 19.02C100.029 19.02 99.2161 19.4867 98.6695 20.42C98.1228 21.3533 97.8495 22.74 97.8495 24.58Z" fill="black"/>
</svg>
