<svg width="68" height="68" viewBox="0 0 68 68" fill="none" xmlns="http://www.w3.org/2000/svg">
<path d="M46.2016 45.8955C46.5343 43.1253 46.4348 42.7189 48.4979 43.1674L49.0217 43.2138C50.6084 43.2859 52.6842 42.9585 53.9029 42.392C56.5277 41.1743 58.0839 39.1402 55.4959 39.6745C49.5919 40.8922 49.186 38.8938 49.186 38.8938C55.4206 29.6437 58.027 17.902 55.7775 15.0277C49.6424 7.18792 39.022 10.8951 38.8441 10.9914L38.7872 11.0025C37.6206 10.7598 36.3156 10.6156 34.8489 10.5919C32.1772 10.5482 30.1499 11.2926 28.6122 12.4586C28.6122 12.4586 9.66613 4.65311 10.5474 22.2746C10.7348 26.0234 15.9208 50.6403 22.1059 43.2048C24.3664 40.4863 26.5512 38.1873 26.5512 38.1873C27.6362 38.908 28.9349 39.2755 30.2973 39.1433L30.4026 39.0538C30.37 39.3913 30.3842 39.7214 30.4452 40.112C28.8517 41.8929 29.3202 42.2056 26.1342 42.8611C22.9114 43.5254 24.805 44.7078 26.0405 45.0168C27.5398 45.3922 31.0064 45.9234 33.3496 42.6431L33.2564 43.0174C33.8818 43.5175 33.8392 46.6114 33.9276 48.8219C34.0161 51.0325 34.1645 53.0951 34.6152 54.3122C35.0658 55.5283 35.5975 58.6611 39.7843 57.764C43.283 57.0133 45.9578 55.9341 46.2016 45.8955Z" fill="#83838E"/>
<path d="M38.4214 59.9489C36.5693 59.9489 35.3638 59.2329 34.631 58.5412C33.5255 57.4983 33.0869 56.1543 32.8253 55.3515L32.7121 55.0161C32.1846 53.5921 32.0062 51.5421 31.9004 48.9026C31.8848 48.4899 31.8716 48.0772 31.8609 47.6644C31.8519 47.348 31.8409 46.9511 31.8251 46.5346C31.1579 46.8528 30.4497 47.0768 29.7209 47.2001C28.4153 47.4233 27.0118 47.3506 25.5483 46.9847C24.516 46.7268 23.4431 46.1919 22.8319 45.3654C21.0499 46.9263 19.35 46.7142 18.424 46.4057C16.7905 45.8608 15.3285 44.3304 13.954 41.7256C12.9754 39.871 12.0283 37.4536 11.1391 34.5418C9.59141 29.4706 8.60802 24.1294 8.52063 22.3763C8.24583 16.8871 9.72302 12.962 12.9111 10.7104C17.9413 7.15747 25.5615 9.24639 28.3395 10.195C30.2057 9.07003 32.4015 8.52201 34.8832 8.56202C36.2161 8.5836 37.4848 8.701 38.6635 8.91052C39.8928 8.52411 42.3218 7.96924 45.1019 8.00346C50.2241 8.06453 54.4688 10.0608 57.3764 13.7764C59.4511 16.4276 58.4256 21.9941 57.629 25.077C56.5093 29.4122 54.5462 34.0243 52.1351 38.039C52.79 38.0437 53.7381 37.9647 55.0869 37.6868C57.7475 37.1372 58.525 38.5638 58.7361 39.2024C59.5821 41.7646 55.905 43.7003 54.7578 44.2325C53.288 44.9153 50.8922 45.3307 48.9296 45.2407L48.8438 45.2349L48.3284 45.1896L48.2774 45.6192L48.2284 46.0398C48.0968 51.1273 47.3698 54.3491 45.8742 56.4786C44.307 58.7101 42.128 59.3361 40.2091 59.7472C39.622 59.8775 39.0227 59.9451 38.4214 59.9489ZM34.5247 41.4319C35.7202 42.3884 35.825 44.1883 35.9181 47.5523C35.9297 47.9718 35.9408 48.3693 35.9555 48.7404C36.0008 49.8638 36.1066 52.495 36.5183 53.6068C36.5767 53.7637 36.6288 53.9238 36.6836 54.0922C37.1426 55.4989 37.3732 56.2038 39.3584 55.7784C41.0257 55.4215 41.8822 55.1009 42.5529 54.1459C43.5278 52.7572 44.0732 49.9655 44.1732 45.8455L46.2011 45.895L44.1869 45.6534L44.2459 45.1506C44.4391 43.4934 44.5781 42.2952 45.6862 41.5035C46.5749 40.868 47.5883 40.9296 48.3953 41.0749C47.5088 40.4058 47.2634 39.6193 47.1982 39.2971L47.0292 38.4643L47.504 37.7589C50.2415 33.6969 52.4994 28.7047 53.6986 24.062C54.9305 19.2914 54.5546 16.7576 54.1793 16.2786C49.2065 9.92392 40.5819 12.5472 39.6817 12.8457L39.529 12.9278L38.7657 13.0704L38.3745 12.9894C37.2969 12.7656 36.0998 12.6419 34.8158 12.6209C32.799 12.5872 31.1723 13.0636 29.8383 14.0759L28.9128 14.7777L27.8383 14.335C25.5441 13.3968 18.8036 11.5106 15.247 14.0296C13.2728 15.4278 12.3736 18.168 12.5737 22.1736C12.6395 23.4961 13.5387 28.502 15.0201 33.3579C17.0684 40.0679 18.9299 42.2963 19.707 42.5558C19.8422 42.6016 20.1944 42.3279 20.5445 41.9078C22.8219 39.1687 24.9877 36.8855 25.0787 36.7892L26.2532 35.5536L27.673 36.497C28.2453 36.8776 28.8765 37.0929 29.5251 37.1335L32.9116 34.2454L32.421 39.2519C32.4099 39.3645 32.4047 39.5172 32.4489 39.8015L32.5963 40.7507L31.9577 41.4656L31.884 41.5482L33.7445 42.4074L34.5247 41.4319Z" fill="#83838E"/>
<path d="M55.498 39.6748C49.5934 40.8924 49.1876 38.8935 49.1876 38.8935C55.4217 29.6435 58.0275 17.9012 55.7786 15.0274C49.6429 7.18765 39.0225 10.8954 38.8451 10.9917L38.7877 11.0017C37.6211 10.7601 36.3161 10.6158 34.8489 10.5921C32.1772 10.5484 30.1504 11.2923 28.6127 12.4584C28.6127 12.4584 9.66613 4.65337 10.5474 22.2749C10.7348 26.0237 15.9208 50.6405 22.1059 43.2051C24.3664 40.4865 26.5506 38.1876 26.5506 38.1876C27.6356 38.9083 28.9344 39.2757 30.2963 39.1436L30.4021 39.0541C30.3694 39.3915 30.3842 39.7216 30.4442 40.1122C28.8512 41.8932 29.3187 42.2059 26.1337 42.8613C22.9103 43.5257 24.8039 44.7081 26.0405 45.0171C27.5393 45.3924 31.0064 45.9236 33.3491 42.6434L33.2554 43.0177C33.8797 43.5178 34.3183 46.2705 34.2446 48.7659C34.1709 51.2612 34.1219 52.9742 34.6141 54.3124C35.1063 55.6501 35.5965 58.6614 39.7838 57.7643C43.2825 57.0141 45.0955 55.071 45.3482 51.8303C45.5272 49.526 45.9321 49.8666 45.9579 47.8062L46.2832 46.8307C46.6575 43.7068 46.3427 42.6992 48.4984 43.1682L49.0223 43.214C50.6089 43.2867 52.6852 42.9587 53.9039 42.3923C56.5288 41.1741 58.0854 39.1404 55.498 39.6748Z" fill="black"/>
<path d="M38.6325 58.6978C35.1416 58.6983 34.0361 55.9339 33.5834 54.8037C32.9216 53.1475 32.7785 46.7186 32.9259 41.4463C32.9357 41.2703 33.0138 41.1051 33.1436 40.9857C33.2733 40.8664 33.4445 40.8024 33.6208 40.8073C33.797 40.8123 33.9643 40.8858 34.0872 41.0122C34.2101 41.1386 34.2788 41.3079 34.2788 41.4842C34.1088 47.5651 34.3504 53.0754 34.84 54.3009C35.6049 56.213 36.7647 57.8855 40.0449 57.1832C43.1588 56.5151 44.3249 55.3343 44.8439 52.3242C45.243 50.0136 46.0305 43.441 46.1274 42.1439C46.1407 41.9649 46.2246 41.7986 46.3605 41.6815C46.4965 41.5645 46.6734 41.5062 46.8523 41.5195C47.0312 41.5328 47.1975 41.6167 47.3146 41.7526C47.4317 41.8886 47.49 42.0655 47.4767 42.2444C47.3756 43.5942 46.5912 50.1547 46.1769 52.5542C45.5636 56.1103 43.9785 57.7233 40.3281 58.5061C39.7712 58.6292 39.2028 58.6935 38.6325 58.6978ZM19.7064 45.1972C19.4014 45.1969 19.0984 45.1469 18.8094 45.0493C16.542 44.2928 14.3825 40.6003 12.3905 34.0735C10.8743 29.105 9.91359 23.9196 9.82936 22.2344C9.5793 17.2385 10.8664 13.7035 13.6539 11.7283C19.1689 7.8205 28.4469 11.5419 28.8391 11.7019C29.0037 11.7708 29.1344 11.9019 29.2028 12.0667C29.2711 12.2315 29.2716 12.4167 29.2042 12.5818C29.1367 12.747 29.0067 12.8788 28.8425 12.9486C28.6783 13.0184 28.4931 13.0204 28.3274 12.9543V12.9549C28.2379 12.918 19.3411 9.35402 14.4336 12.8343C12.0499 14.5247 10.9554 17.6644 11.1802 22.1676C11.2513 23.5869 12.1488 28.6486 13.6845 33.6792C15.4628 39.5053 17.487 43.1825 19.2374 43.7658C19.5116 43.8579 20.3476 44.1364 21.5437 42.6992C23.7926 39.9933 25.8589 37.8339 25.8795 37.8123C26.0053 37.6904 26.1734 37.622 26.3486 37.6215C26.5238 37.621 26.6924 37.6884 26.8189 37.8096C26.9454 37.9308 27.02 38.0963 27.027 38.2714C27.034 38.4464 26.9729 38.6174 26.8565 38.7483C26.836 38.7694 24.8013 40.8967 22.5839 43.5642C21.5337 44.8266 20.5266 45.1972 19.7064 45.1972ZM49.1449 39.4964C49.0221 39.4966 48.9015 39.4633 48.7962 39.4001C48.6908 39.3369 48.6047 39.2461 48.5471 39.1377C48.4894 39.0292 48.4624 38.907 48.469 38.7844C48.4755 38.6617 48.5154 38.5431 48.5843 38.4414C54.8863 29.0897 57.0984 17.7907 55.2037 15.3702C52.819 12.3231 49.4513 10.7312 45.1951 10.6401C42.0433 10.5717 39.5379 11.3766 39.1289 11.5172L39.0262 11.5588C38.6146 11.6883 38.2987 11.4624 38.1797 11.1987C38.1119 11.0476 38.1017 10.8769 38.151 10.7187C38.2002 10.5606 38.3055 10.4259 38.4472 10.34L38.6293 10.2653L38.6204 10.2679L38.6298 10.2648C39.3253 10.0105 41.8685 9.24716 45.0192 9.28348C49.7293 9.33297 53.6197 11.1497 56.2698 14.5358C57.5238 16.1383 57.5264 19.8302 56.2777 24.6645C55.0047 29.593 52.6094 34.8906 49.7067 39.1979C49.6448 39.29 49.5611 39.3654 49.4632 39.4175C49.3652 39.4695 49.2559 39.4966 49.1449 39.4964ZM49.4666 43.8253C48.3906 43.8253 47.4261 43.6742 46.8486 43.3278C46.2548 42.9725 46.1416 42.4887 46.1269 42.2323C45.9647 39.3874 47.5346 38.892 48.3353 38.6662C48.2237 38.4977 48.0647 38.2993 47.901 38.0945C47.434 37.5112 46.7949 36.712 46.3022 35.517C46.2253 35.3307 45.9831 34.8964 45.7031 34.3941C44.1853 31.673 41.0278 26.0101 43.0561 23.1099C43.9953 21.768 45.8642 21.24 48.6185 21.5348C47.8083 19.0663 43.9495 11.344 34.7947 11.1939C32.0409 11.1476 29.7825 11.9946 28.0858 13.7077C24.2865 17.5449 24.4244 24.4876 24.426 24.5566C24.4283 24.6454 24.4131 24.7337 24.3812 24.8167C24.3494 24.8996 24.3015 24.9754 24.2404 25.0399C24.1792 25.1043 24.106 25.1561 24.0248 25.1922C23.9437 25.2283 23.8562 25.2481 23.7674 25.2504C23.6786 25.2527 23.5902 25.2375 23.5073 25.2057C23.4243 25.1738 23.3485 25.126 23.2841 25.0648C23.2196 25.0037 23.1679 24.9304 23.1318 24.8493C23.0956 24.7681 23.0758 24.6806 23.0735 24.5918C23.0651 24.2839 22.923 16.9985 27.1245 12.7554C29.0907 10.7696 31.6787 9.78939 34.8168 9.84045C40.6751 9.93679 44.4449 12.9143 46.5764 15.396C48.8991 18.0998 50.0383 21.0826 50.132 22.0775C50.202 22.8177 49.6709 22.9662 49.5635 22.9878L49.3197 22.9936C46.6165 22.5608 44.8824 22.8609 44.1653 23.8859C42.6224 26.0906 45.6094 31.4471 46.8849 33.735C47.2108 34.3183 47.4456 34.74 47.553 35.0006C47.972 36.0166 48.5185 36.6994 48.9575 37.248C49.3434 37.7307 49.6782 38.1487 49.7983 38.6404C49.8535 38.7378 50.6421 39.9033 55.3196 38.9378C56.4919 38.6962 57.1947 38.9031 57.4095 39.5527C57.8323 40.8314 55.4606 42.3223 54.1477 42.9325C52.9695 43.4794 51.0917 43.8253 49.4666 43.8253ZM47.4761 42.1207C47.6241 42.2707 48.3663 42.5287 49.9041 42.4629C51.2707 42.4039 52.7126 42.1065 53.5781 41.7053C54.6847 41.1915 55.4227 40.6172 55.8055 40.225L55.5928 40.2639C52.6021 40.8815 50.4868 40.7993 49.306 40.0191C49.2266 39.9668 49.1501 39.91 49.077 39.8491C48.9491 39.8996 48.8307 39.9328 48.7464 39.9565C48.0763 40.1444 47.3835 40.3387 47.4761 42.1207ZM28.1574 45.9C27.4146 45.9 26.6328 45.7995 25.8342 45.5989C25.0071 45.392 23.6121 44.7692 23.6337 43.7463C23.6574 42.5982 25.3267 42.2539 25.9558 42.1244C28.2258 41.6569 28.3737 41.4695 29.0834 40.5687C29.2903 40.3061 29.5477 39.9791 29.8983 39.5869C30.4195 39.0042 30.9891 38.7083 31.5913 38.7083C32.0104 38.7083 32.3547 38.851 32.5816 38.9447C33.3059 39.2448 33.9103 39.9702 34.1588 40.8388C34.383 41.6222 34.2762 42.376 33.8577 42.9614C32.4847 44.8845 30.5137 45.9 28.1574 45.9ZM25.0951 43.8048C25.2993 43.9622 25.7078 44.1728 26.1622 44.287C26.8539 44.4597 27.5246 44.5476 28.1574 44.5476C30.0852 44.5476 31.6324 43.749 32.7569 42.1754C32.9911 41.8469 32.9211 41.4305 32.8585 41.211C32.7269 40.7519 32.4005 40.3345 32.0641 40.1945C31.8814 40.1186 31.7303 40.0607 31.5913 40.0607C31.5166 40.0607 31.2897 40.0607 30.907 40.4887C30.5837 40.8499 30.3516 41.1447 30.1457 41.4053C29.2624 42.5271 28.8575 42.9077 26.2285 43.4494C25.5873 43.5821 25.2583 43.7158 25.0951 43.8048ZM30.2973 40.684C30.1358 40.6838 29.9798 40.6258 29.8573 40.5206C29.7348 40.4154 29.6539 40.2698 29.6293 40.1102C29.612 39.9979 29.6007 39.8847 29.5956 39.7712C27.872 39.7386 26.2095 38.9994 24.9477 37.6823C23.352 36.0171 22.6255 33.7103 22.9551 31.3534C23.3131 28.7939 23.1793 26.5344 23.1072 25.3204C23.0892 25.0707 23.0781 24.8206 23.0741 24.5702C23.0751 24.3565 23.0793 23.7885 24.9771 22.8267C25.652 22.4845 27.0055 21.8875 28.4838 21.7343C30.9338 21.4816 32.5484 22.5724 33.0317 24.8066C34.3362 30.8396 33.1349 33.5081 32.2578 35.4565C32.0941 35.8187 31.9398 36.1619 31.8166 36.4936L31.7077 36.7868C31.2444 38.0292 30.8438 39.1026 30.967 39.9049C30.994 40.0823 30.9497 40.2631 30.8436 40.4078C30.7375 40.5525 30.5783 40.6492 30.401 40.6767L30.2973 40.684ZM24.4312 24.7571L24.4581 25.2404C24.5328 26.5012 24.6718 28.8481 24.2949 31.5414C24.0232 33.485 24.6171 35.3828 25.9242 36.7468C26.9571 37.8249 28.3174 38.4198 29.7151 38.4198H29.7441C29.9009 37.7602 30.1605 37.0642 30.44 36.3141L30.5485 36.0229C30.688 35.6481 30.8512 35.2854 31.0238 34.9016C31.8682 33.0254 32.919 30.6901 31.7087 25.0925C31.4687 23.9843 30.8875 23.3426 29.932 23.131C27.9694 22.6972 25.045 24.1733 24.4312 24.7571ZM28.5143 24.4702C28.4806 24.7092 28.9528 25.3478 29.5677 25.4331C30.1821 25.5189 30.708 25.0198 30.7411 24.7808C30.7743 24.5413 30.3026 24.2781 29.6872 24.1923C29.0728 24.1064 28.5469 24.2307 28.5143 24.4702ZM29.7093 25.6689L29.5366 25.6568C29.155 25.6036 28.7691 25.3631 28.5053 25.013C28.4127 24.8903 28.2611 24.6513 28.2911 24.4386C28.3342 24.1265 28.7143 23.9401 29.3087 23.9401C29.4419 23.9401 29.5798 23.9501 29.7193 23.969C30.0436 24.0143 30.3452 24.108 30.5679 24.2323C30.9538 24.4481 30.9822 24.6882 30.9649 24.8129C30.917 25.1567 30.3684 25.6689 29.7093 25.6689ZM28.7386 24.5102C28.758 24.6576 29.1229 25.1446 29.5988 25.2104L29.7088 25.2183C30.1478 25.2183 30.4763 24.8724 30.5148 24.7592C30.4742 24.6824 30.1921 24.4902 29.6561 24.4165C29.5409 24.4 29.4246 24.3915 29.3082 24.3913C28.9649 24.3907 28.7812 24.4681 28.7386 24.5102ZM47.2276 23.9822C47.2608 24.2217 46.7896 24.8603 46.1742 24.9456C45.5594 25.0309 45.0334 24.5323 44.9998 24.2928C44.9671 24.0538 45.4388 23.7901 46.0537 23.7048C46.6686 23.6184 47.194 23.7437 47.2276 23.9822ZM46.0326 25.0677C45.4404 25.0677 44.9303 24.6071 44.8881 24.3086C44.8397 23.9501 45.4299 23.6774 46.0384 23.5932C46.1721 23.5742 46.3048 23.5647 46.4327 23.5647C46.9576 23.5647 47.305 23.719 47.3398 23.9669C47.3624 24.128 47.2392 24.376 47.0265 24.5992C46.8865 24.7466 46.5917 25.0019 46.1906 25.0572L46.0326 25.0677ZM46.4322 23.7901C46.3148 23.7901 46.1927 23.799 46.069 23.8159C45.4572 23.9006 45.0935 24.1465 45.1108 24.2781C45.1314 24.4223 45.5215 24.8424 46.0321 24.8424L46.1579 24.8335C46.4917 24.7866 46.7423 24.5692 46.8618 24.4434C47.0492 24.246 47.1239 24.0606 47.115 23.9969C47.1039 23.9143 46.8786 23.7901 46.4322 23.7901ZM48.1136 37.716C47.9911 37.7159 47.8709 37.6826 47.7659 37.6195C47.6608 37.5564 47.5748 37.466 47.5172 37.3579C47.4595 37.2498 47.4323 37.1281 47.4384 37.0057C47.4445 36.8833 47.4838 36.7649 47.5519 36.6631C48.9923 34.5115 48.7285 32.3168 48.4737 30.1952C48.3648 29.2908 48.2526 28.3564 48.2821 27.4588C48.3116 26.536 48.4285 25.7747 48.5422 25.0377C48.6764 24.1654 48.8033 23.3405 48.7506 22.3624C48.7468 22.1866 48.8115 22.0162 48.931 21.8872C49.0505 21.7583 49.2155 21.6809 49.3911 21.6714C49.5667 21.662 49.7391 21.7212 49.8718 21.8366C50.0044 21.952 50.087 22.1145 50.102 22.2897C50.162 23.4079 50.0183 24.3407 49.8793 25.2436C49.7719 25.94 49.6609 26.6602 49.634 27.502C49.6082 28.2964 49.7098 29.1403 49.8172 30.0331C50.0888 32.29 50.3958 34.8479 48.6764 37.4154C48.5459 37.6102 48.3316 37.716 48.1136 37.716Z" fill="white"/>
</svg>
