<svg width="79" height="48" viewBox="0 0 79 48" fill="none" xmlns="http://www.w3.org/2000/svg">
<path d="M12.25 39.4921C15.0991 39.4921 17.4121 37.1792 17.4121 34.3301V29.168H12.25C9.40081 29.168 7.08789 31.4809 7.08789 34.3301C7.08789 37.1792 9.40081 39.4921 12.25 39.4921Z" fill="black"/>
<path d="M7.08398 24C7.08398 21.1508 9.3969 18.8379 12.2461 18.8379H17.4082V29.1675H12.2461C9.3969 29.1675 7.08398 26.8546 7.08398 24.0054V24Z" fill="#34343D"/>
<path d="M7.08398 13.6709C7.08398 10.8217 9.3969 8.50879 12.2461 8.50879H17.4082V18.8384H12.2461C9.3969 18.8384 7.08398 16.5255 7.08398 13.6763V13.6709Z" fill="#5A5A65"/>
<path d="M17.3633 8.50879H22.5254C25.3745 8.50879 27.6874 10.8217 27.6874 13.6709C27.6874 16.52 25.3745 18.833 22.5254 18.833H17.3633V8.50879Z" fill="#83838E"/>
<path d="M27.9428 24.1621C27.9428 27.0112 25.6299 29.3242 22.7807 29.3242C19.9315 29.3242 17.5645 27.0112 17.5645 24.1621C17.5645 21.3129 19.8774 19 22.7265 19C25.5757 19 27.8886 21.3129 27.8886 24.1621H27.9428Z" fill="#5A5A65"/>
<path d="M33.3867 17.0664V27.8889H34.7788V22.7214H38.1263V21.3781H34.7788V18.4206H39.1284V17.0664H33.3867ZM41.6471 19.2656C42.1509 19.2656 42.5571 18.8593 42.5571 18.3556C42.5571 17.8518 42.1455 17.4997 41.6471 17.4997C41.1488 17.4997 40.7371 17.906 40.7371 18.4097C40.7371 18.6535 40.8346 18.881 41.008 19.0597C41.1813 19.2385 41.4088 19.3306 41.658 19.3306L41.6471 19.2656ZM40.943 20.6306V27.8889H42.2809V20.6306H40.8996H40.943ZM47.508 20.4139C45.6555 20.4139 44.3663 22.0389 44.3663 23.8372C44.3663 25.6356 45.6663 27.2497 47.508 27.2497C47.8912 27.2564 48.2716 27.1833 48.625 27.0351C48.9785 26.8868 49.2972 26.6666 49.5609 26.3885V27.3527C49.557 27.9319 49.3323 28.4879 48.9326 28.9072C48.7306 29.1133 48.4896 29.2769 48.2235 29.3885C47.9575 29.5001 47.6719 29.5575 47.3834 29.5572C46.9404 29.5432 46.5112 29.4002 46.1484 29.1456L45.4442 30.3535C45.985 30.7013 46.6095 30.8968 47.2521 30.9194C47.8946 30.9421 48.5314 30.791 49.0953 30.4822C49.6592 30.1733 50.1294 29.7181 50.4563 29.1645C50.7832 28.6109 50.9548 27.9793 50.953 27.3364V20.6197H49.5609V21.2697C49.2972 20.9916 48.9785 20.7714 48.625 20.6232C48.2716 20.4749 47.8912 20.4072 47.508 20.4139ZM45.7638 23.8372C45.7321 23.4851 45.7995 23.1311 45.9584 22.8152C46.1173 22.4993 46.3613 22.2342 46.663 22.0497C47.2805 21.6706 48.055 21.6706 48.6671 22.0497C49.2792 22.4289 49.6259 23.1222 49.5663 23.8372C49.598 24.1894 49.5306 24.5434 49.3717 24.8593C49.2128 25.1751 48.9688 25.4403 48.6671 25.6247C48.0496 26.0039 47.275 26.0039 46.663 25.6247C46.0509 25.2456 45.7042 24.5522 45.7638 23.8372Z" fill="black"/>
<path d="M55.9736 21.833C55.5733 21.8344 55.1897 21.9941 54.9066 22.2772C54.6235 22.5603 54.4638 22.9438 54.4624 23.3442V27.9375H53.0703V20.6792H54.4624V21.2913C54.8849 20.728 55.5566 20.403 56.2607 20.4138C57.1491 20.3921 57.9778 20.8688 58.4166 21.6434C58.9582 20.885 59.7382 20.4246 60.5832 20.4138C62.1703 20.4138 63.1561 21.6921 63.1616 23.2738V27.8942H61.7695V23.29C61.8103 23.0032 61.7681 22.7108 61.6479 22.4472C61.5277 22.1836 61.3345 21.9599 61.0912 21.8027C60.8479 21.6454 60.5647 21.5611 60.275 21.5598C59.9853 21.5584 59.7013 21.6401 59.4566 21.795C59.2132 21.9537 59.0205 22.179 58.9014 22.444C58.7823 22.709 58.7419 23.0027 58.7849 23.29V27.8834H57.447V23.2955C57.4455 22.8951 57.2859 22.5115 57.0028 22.2284C56.7197 21.9453 56.3361 21.7856 55.9357 21.7842L55.9736 21.833ZM70.5986 21.4538C70.2818 21.1232 69.9007 20.8608 69.4787 20.6829C69.0567 20.505 68.6028 20.4152 68.1449 20.4192C66.0703 20.4192 64.6241 22.1742 64.6241 24.2109C64.6241 26.2475 66.0866 28.0025 68.1449 28.0025C68.6028 28.0065 69.0567 27.9168 69.4787 27.7389C69.9007 27.5609 70.2818 27.2986 70.5986 26.968V27.7913H71.9907V20.533H70.5986V21.4538ZM65.9945 24.2705C65.9241 23.4038 66.3466 22.5696 67.0886 22.1146C67.8307 21.6596 68.7136 21.6596 69.5045 22.1146C69.8667 22.3394 70.1602 22.6593 70.3532 23.0395C70.5461 23.4196 70.631 23.8454 70.5986 24.2705C70.6691 25.1371 70.2466 25.9713 69.5045 26.4263C68.7624 26.8813 67.8795 26.8813 67.0886 26.4263C66.7264 26.2015 66.4329 25.8816 66.2399 25.5015C66.047 25.1213 65.9621 24.6955 65.9945 24.2705Z" fill="black"/>
</svg>
