<svg width="48" height="48" viewBox="0 0 48 48" fill="none" xmlns="http://www.w3.org/2000/svg">
<g clip-path="url(#clip0_3251_5670)">
<path d="M40.3917 33.4999C40.6584 33.0409 40.8242 32.5238 40.8242 32.0595V15.9403C40.8242 15.476 40.6587 14.959 40.3918 14.5L23.8242 23.9999L40.3917 33.4999Z" fill="black"/>
<path d="M25.2955 42.6516L39.3511 34.5921C39.756 34.3599 40.124 33.959 40.3907 33.4999L23.8233 24L7.25586 33.5001C7.52264 33.959 7.89075 34.36 8.29553 34.5921L22.3511 42.6516C23.1607 43.116 24.4859 43.116 25.2955 42.6516Z" fill="#34343D"/>
<path d="M40.3918 14.4999C40.1249 14.0409 39.7568 13.64 39.352 13.4078L25.2964 5.34827C24.4868 4.88391 23.1617 4.88391 22.352 5.34827L8.29644 13.4078C7.48666 13.872 6.82422 15.0118 6.82422 15.9404V32.0595C6.82422 32.5239 6.98989 33.041 7.25677 33.4999L23.8242 24L40.3918 14.4999Z" fill="#5A5A65"/>
<path d="M23.8236 35.2561C17.5743 35.2561 12.4902 30.2067 12.4902 24.0001C12.4902 17.7936 17.5743 12.7441 23.8236 12.7441C27.856 12.7441 31.6168 14.8993 33.6381 18.3686L28.7333 21.1875C27.7217 19.4509 25.8402 18.3721 23.8236 18.3721C20.6989 18.3721 18.1569 20.8968 18.1569 24.0001C18.1569 27.1034 20.6989 29.6281 23.8236 29.6281C25.8405 29.6281 27.7219 28.5493 28.7337 26.8125L33.6385 29.6312C31.6171 33.1008 27.8562 35.2561 23.8236 35.2561Z" fill="white"/>
<path d="M35.1567 23.3747H33.8974V22.124H32.6382V23.3747H31.3789V24.6253H32.6382V25.876H33.8974V24.6253H35.1567V23.3747Z" fill="white"/>
<path d="M39.8793 23.3747H38.62V22.124H37.3609V23.3747H36.1016V24.6253H37.3609V25.876H38.62V24.6253H39.8793V23.3747Z" fill="white"/>
</g>
<defs>
<clipPath id="clip0_3251_5670">
<rect width="34" height="38" fill="white" transform="translate(6.82422 5)"/>
</clipPath>
</defs>
</svg>
