<svg width="48" height="48" viewBox="0 0 48 48" fill="none" xmlns="http://www.w3.org/2000/svg">
<g clip-path="url(#clip0_3251_12576)">
<path d="M41.0184 7.08985C38.9448 4.14126 35.8038 2.08124 32.2364 1.33035C28.6691 0.579465 24.9445 1.19433 21.8231 3.04941L10.8543 9.78347C9.38334 10.6944 8.12218 11.897 7.15156 13.3143C6.18094 14.7316 5.52223 16.3323 5.2176 18.014C4.7088 20.8794 5.1915 23.8296 6.5887 26.3942C5.60949 27.7896 4.93517 29.3691 4.60823 31.0332C4.30663 32.7461 4.35328 34.5008 4.74548 36.1959C5.13769 37.8911 5.86769 39.4932 6.89338 40.9098C11.3114 47.0453 19.8426 48.841 26.0887 44.9502L37.0574 38.0665C38.5284 37.1556 39.7896 35.953 40.7602 34.5357C41.7308 33.1184 42.3895 31.5177 42.6942 29.836C43.1683 27.019 42.6865 24.1271 41.3231 21.6055C42.3023 20.2101 42.9766 18.6306 43.3035 16.9665C43.6051 15.2535 43.5585 13.4989 43.1663 11.8037C42.7741 10.1086 42.0441 8.50648 41.0184 7.08985Z" fill="black"/>
<path d="M20.7554 41.5086C17.2515 42.4065 13.4429 41.0597 11.4624 38.0668C10.8406 37.2085 10.3991 36.2371 10.1637 35.2093C9.92832 34.1816 9.9037 33.1181 10.0913 32.0809C10.1235 31.7789 10.1744 31.479 10.2436 31.183L10.5483 30.5845L11.1577 30.8838C12.4473 31.8163 13.8901 32.525 15.4233 32.9788L15.728 33.1284V33.5774C15.7057 34.1124 15.8666 34.6392 16.185 35.0738C16.48 35.5011 16.9002 35.8302 17.39 36.0173C17.8798 36.2044 18.4159 36.2407 18.9272 36.1214C19.1965 36.0646 19.4541 35.9634 19.689 35.8221L30.5054 29.088C30.78 28.9259 31.0168 28.709 31.2005 28.4512C31.3843 28.1933 31.5107 27.9005 31.5718 27.5915C31.6207 27.2774 31.6055 26.9568 31.5271 26.6485C31.4486 26.3402 31.3084 26.0503 31.1147 25.7958C30.8198 25.3685 30.3996 25.0395 29.9098 24.8524C29.42 24.6653 28.8838 24.629 28.3725 24.7483C28.1562 24.8195 27.951 24.9203 27.7632 25.0476L23.4975 27.5915C22.8445 28.0444 22.1254 28.3976 21.3647 28.6391C17.8608 29.5369 14.0522 28.0405 12.0718 25.1972C11.45 24.3389 11.0085 23.3675 10.7731 22.3398C10.5377 21.3121 10.5131 20.2486 10.7007 19.2114C10.8781 18.2043 11.2679 17.2447 11.8451 16.3942C12.4223 15.5438 13.1741 14.8213 14.0522 14.2731L25.021 7.38936C25.6832 6.98886 26.4018 6.68633 27.1538 6.49149C30.6577 5.59361 34.4663 6.94043 36.4468 9.7837C37.0685 10.642 37.51 11.6134 37.7454 12.6411C37.9808 13.6688 38.0055 14.7323 37.8179 15.7695C37.7918 16.1217 37.7409 16.4718 37.6655 16.8171L37.3608 17.4156L36.7515 16.9667C35.4619 16.0341 34.0191 15.3255 32.4858 14.8717H32.1811V14.4227C32.2397 13.8375 32.0771 13.2516 31.7241 12.7766C31.4292 12.3493 31.0089 12.0203 30.5192 11.8332C30.0294 11.6461 29.4932 11.6098 28.9819 11.7291C28.7126 11.7859 28.4551 11.8871 28.2202 12.0284L17.4038 18.9121C17.1292 19.0742 16.8923 19.2911 16.7086 19.5489C16.5249 19.8068 16.3984 20.0996 16.3374 20.4086C16.2884 20.7227 16.3036 21.0433 16.3821 21.3516C16.4606 21.6599 16.6007 21.9497 16.7944 22.2043C17.0893 22.6316 17.5096 22.9606 17.9994 23.1477C18.4892 23.3348 19.0253 23.3711 19.5366 23.2518C19.753 23.1806 19.9581 23.0798 20.146 22.9525L24.4116 20.4086C25.0647 19.9557 25.7838 19.6025 26.5444 19.361C30.0483 18.4632 33.8569 19.81 35.8374 22.8029C36.4592 23.6612 36.9006 24.6326 37.1361 25.6603C37.3715 26.688 37.3961 27.7515 37.2085 28.7887C37.0311 29.7958 36.6413 30.7554 36.0641 31.6059C35.4869 32.4563 34.7351 33.1788 33.8569 33.727L22.8882 40.4611C22.2351 40.914 21.516 41.2671 20.7554 41.5086Z" fill="white"/>
</g>
<defs>
<clipPath id="clip0_3251_12576">
<rect width="39" height="46.0909" fill="white" transform="translate(4.45508 0.95459)"/>
</clipPath>
</defs>
</svg>
