<svg width="51" height="48" viewBox="0 0 51 48" fill="none" xmlns="http://www.w3.org/2000/svg">
<g clip-path="url(#clip0_3251_4859)">
<path d="M8.48407 34.0033C8.78082 33.7107 9.18884 33.54 9.6216 33.54H48.8664C49.5835 33.54 49.9421 34.3934 49.4351 34.8933L41.6826 42.5372C41.3859 42.8297 40.9779 43.0004 40.5451 43.0004H1.30032C0.583184 43.0004 0.224615 42.147 0.731558 41.6472L8.48407 34.0033Z" fill="black"/>
<path d="M8.48407 5.46327C8.79318 5.17068 9.20121 5 9.6216 5H48.8664C49.5835 5 49.9421 5.85338 49.4351 6.35322L41.6826 13.9971C41.3859 14.2897 40.9779 14.4604 40.5451 14.4604H1.30032C0.583184 14.4604 0.224615 13.607 0.731558 13.1072L8.48407 5.46327Z" fill="black"/>
<path d="M41.6826 19.642C41.3859 19.3494 40.9779 19.1787 40.5451 19.1787H1.30032C0.583184 19.1787 0.224615 20.0321 0.731558 20.5319L8.48407 28.1758C8.78082 28.4684 9.18884 28.6391 9.6216 28.6391H48.8664C49.5835 28.6391 49.9421 27.7857 49.4351 27.2859L41.6826 19.642Z" fill="black"/>
</g>
<defs>
<clipPath id="clip0_3251_4859">
<rect width="50" height="38" fill="white" transform="translate(0.0839844 5)"/>
</clipPath>
</defs>
</svg>
