<svg width="93" height="48" viewBox="0 0 93 48" fill="none" xmlns="http://www.w3.org/2000/svg">
<g clip-path="url(#clip0_3251_7792)">
<path d="M92.1648 31.334C91.9415 29.0921 90.35 28.0925 88.8562 28.0925C88.1721 28.0925 87.6276 28.2924 87.4182 28.3781L87.1251 28.5066L86.8738 28.6922C86.5248 28.9635 85.9105 29.3348 85.366 29.5347C85.3381 29.0778 85.3521 28.4923 85.4219 28.0068L85.4358 27.9211C85.8407 23.9799 85.031 21.6808 83.0346 21.0953C82.6996 20.9954 82.3506 20.9525 82.0015 20.9525C80.787 20.9525 79.712 21.5523 79.014 22.0664C78.4277 21.3095 77.4504 20.8811 76.2219 20.8811C74.3931 20.8811 72.9272 21.7522 72.3967 23.1516C72.3409 23.2944 72.271 23.5086 72.1873 23.7942C71.1123 21.3666 68.9205 20.4384 66.8823 20.4384C64.9557 20.4384 63.085 21.2096 62.387 21.7522C62.3591 21.7808 62.3172 21.795 62.2753 21.8379C60.4465 23.1659 59.0225 24.8366 58.0173 26.8501C57.5287 25.108 56.4537 23.4801 54.5272 22.252L54.4993 22.2234C54.4434 22.1949 54.4015 22.1663 54.3457 22.1377C56.2304 18.7106 57.9056 14.1696 56.9005 9.84276C55.8395 5.23036 53.187 4.54492 51.6932 4.54492C51.0789 4.54492 50.4507 4.65916 49.8085 4.88764L49.7666 4.90192L49.7248 4.9162C46.9187 6.04431 45.6902 7.74362 45.4249 8.14346C45.1457 8.57185 42.0744 13.3413 41.3345 20.3242C41.2507 21.0953 41.167 21.895 41.0832 22.6947C40.6504 22.0664 39.9384 21.4952 38.8076 21.1382C38.4586 21.0239 38.0956 20.9811 37.7327 20.9811C36.183 20.9811 34.9266 21.9521 34.2565 22.5947L34.2425 22.5804C33.6562 21.6951 32.7208 21.1667 31.6877 21.1239H31.4365C29.7891 21.1239 28.4768 21.8664 27.5135 22.7089C26.8993 21.6094 25.7685 20.924 24.4422 20.924C24.3305 20.924 24.2328 20.924 24.1351 20.9382H23.9117C22.0829 20.9382 20.6449 21.8236 20.0586 23.2944C20.0167 23.4087 19.9609 23.5515 19.905 23.7371C18.4671 21.9093 16.6383 21.0525 14.1812 21.0525H13.9439C12.4082 21.081 8.58304 21.7379 6.23767 27.1357C5.87469 27.9639 5.59548 28.8065 5.38607 29.6347C4.86953 29.3919 4.39487 29.3348 4.04586 29.3348C2.81733 29.3348 1.89594 30.0488 1.4492 30.72C1.08622 31.2626 -0.0725016 33.1904 0.499881 35.0753C0.807013 36.0892 1.519 36.8603 2.52416 37.2602C3.40367 37.6172 4.52052 37.9599 5.35815 38.2026C5.87469 39.4021 6.79609 40.7873 8.42947 42.0582C9.5882 42.9578 11.068 43.4148 12.8131 43.4148C15.7448 43.4148 18.5788 42.1153 18.8859 41.9725L18.9976 41.9154L19.0255 41.8868C19.5839 42.4866 20.3239 42.915 21.2592 43.1006C21.5384 43.1578 21.9014 43.2006 22.3202 43.2006C23.9117 43.2006 25.0146 42.3724 26.0337 40.8158C26.8714 42.1582 28.3931 42.915 30.194 42.915H30.2079C30.3056 42.915 30.4034 42.9864 30.5151 42.9864C31.4644 42.9864 32.651 42.6437 33.6422 41.0158C34.4659 42.5294 35.9736 43.4005 37.7606 43.4005C39.3521 43.4005 40.7342 42.7294 40.9855 42.6008L41.0413 42.5723C41.5718 42.2867 42.0185 42.0296 42.3676 41.8297C43.5542 42.4723 45.3551 43.1863 47.5609 43.1863C47.9378 43.1863 48.3148 43.172 48.6917 43.1292L48.7894 43.1149L48.8871 43.1006C53.5639 42.1582 56.6073 41.0158 58.4222 40.1447C59.6926 41.6012 61.7169 43.0007 64.6067 43.2149C64.9278 43.2434 65.2629 43.2577 65.5839 43.2577C67.9572 43.2577 69.8559 42.5723 71.2519 41.8154C71.6987 42.301 72.2571 42.7436 72.983 43.0435C73.4158 43.2292 73.8625 43.3148 74.3232 43.3148C77.227 43.3148 78.5812 39.7734 78.9582 38.5739L79.6562 36.6604C80.2704 37.3316 81.0522 37.8742 82.0434 38.1598C82.5879 38.3169 83.1742 38.4025 83.7745 38.4025C86.9715 38.4025 90.0428 36.0892 90.5314 35.7036C91.411 34.9611 92.3742 33.4331 92.1648 31.334Z" fill="black"/>
<path d="M62.8769 32.3018C62.8769 32.3018 62.472 30.8452 63.9798 28.0321C65.4735 25.2332 66.6462 26.7612 66.6462 26.7612C66.6462 26.7612 67.9306 28.1891 66.4647 30.3168C64.9989 32.4588 62.8769 32.3018 62.8769 32.3018ZM51.3594 34.3295C49.6423 38.9276 45.4681 37.057 45.4681 37.057C45.4681 37.057 44.9934 35.4148 46.3476 30.8024C47.7018 26.2042 50.8848 28.0035 50.8848 28.0035C50.8848 28.0035 53.0766 29.7314 51.3594 34.3295ZM48.2462 15.0659C48.2462 15.0659 50.8429 8.14017 51.4711 11.5102C52.0993 14.8803 46.0265 24.9048 46.0265 24.9048C46.0823 22.6485 48.2462 15.0659 48.2462 15.0659ZM11.1112 32.3018C11.2229 27.8464 14.0708 25.9044 15.062 26.8754C16.0532 27.8464 15.6902 29.9456 13.8195 31.2593C11.9628 32.5731 11.1112 32.3018 11.1112 32.3018ZM89.7928 31.5735C89.6532 30.0741 88.327 30.631 88.327 30.631C88.327 30.631 86.2049 32.316 84.3342 32.1304C82.4775 31.9305 83.0638 27.6751 83.0638 27.6751C83.0638 27.6751 83.4687 23.7624 82.3658 23.4339C81.2629 23.1055 79.9087 24.4478 79.9087 24.4478C79.9087 24.4478 78.2195 26.3613 77.4238 28.7889L77.2004 28.8603C77.2004 28.8603 77.4517 24.5906 77.1585 23.6196C76.9351 23.1341 74.9248 23.1769 74.6037 24.0337C74.2687 24.8905 72.6632 30.8738 72.5515 33.387C72.5515 33.387 69.4104 36.1145 66.6602 36.5714C63.91 37.0141 63.2538 35.2577 63.2538 35.2577C63.2538 35.2577 70.7227 33.13 70.4575 27.0325C70.2062 20.935 64.4405 23.1912 63.7843 23.691C63.1561 24.1765 59.7916 26.2471 58.8004 32.0019C58.7725 32.2018 58.7027 33.0586 58.7027 33.0586C58.7027 33.0586 55.8128 35.0435 54.2074 35.5719C54.2074 35.5719 58.7027 27.8321 53.2162 24.305C50.7312 22.7771 48.7488 25.99 48.7488 25.99C48.7488 25.99 56.1758 17.5363 54.5285 10.3821C53.7467 6.9835 52.0854 6.61222 50.5497 7.16914C48.2323 8.11161 47.3527 9.48248 47.3527 9.48248C47.3527 9.48248 44.3512 13.9378 43.6532 20.5637C42.9552 27.1896 41.9361 35.1863 41.9361 35.1863C41.9361 35.1863 40.5121 36.6143 39.1998 36.6857C37.8875 36.7571 38.4738 32.6873 38.4738 32.6873C38.4738 32.6873 39.493 26.4756 39.4232 25.4331C39.3534 24.3907 39.2836 23.8195 38.069 23.4482C36.8684 23.0769 35.5421 24.6477 35.5421 24.6477C35.5421 24.6477 32.0659 30.0312 31.7728 30.8595L31.5913 31.2022L31.4098 30.9737C31.4098 30.9737 33.8669 23.6339 31.5215 23.5339C29.1761 23.4197 27.6405 26.1471 27.6405 26.1471C27.6405 26.1471 24.974 30.7167 24.8623 31.2308L24.6808 31.0023C24.6808 31.0023 25.7837 25.6902 25.5603 24.3764C25.337 23.0627 24.1364 23.334 24.1364 23.334C24.1364 23.334 22.6007 23.1483 22.1958 24.1622C21.791 25.1761 20.3251 31.8734 20.1436 34.0011C20.1436 34.0011 16.3045 36.8142 13.7776 36.8428C11.2508 36.8856 11.516 35.2006 11.516 35.2006C11.516 35.2006 20.7719 31.959 18.245 25.5616C17.1142 23.9195 15.788 23.4054 13.9312 23.4339C12.0605 23.4768 9.86868 24.6334 8.36094 28.0749C7.64895 29.7171 7.35578 31.2736 7.35578 32.4588C7.35578 32.4588 5.62467 32.8015 4.74516 32.0447C3.86564 31.3022 3.36307 32.0447 3.36307 32.0447C3.36307 32.0447 1.8274 34.2867 3.32118 34.8864C4.81496 35.4862 7.13241 36.0431 7.13241 36.0431C7.34182 37.0141 7.97005 38.5992 9.79888 40.0129C12.5351 42.1406 17.8122 39.6845 17.8122 39.6845L19.9761 38.3707C19.9761 38.3707 20.0459 40.3556 21.6235 40.6555C23.201 40.9554 23.8571 40.6269 26.5934 33.8297C28.1989 30.3454 28.3106 30.531 28.3106 30.531L28.492 30.4882C28.492 30.4882 27.2496 37.1426 27.7242 38.9419C28.1989 40.7412 30.279 40.5555 30.279 40.5555C30.279 40.5555 31.4098 40.9697 32.3312 37.671C33.2526 34.3723 34.9977 30.9309 34.9977 30.9309H35.221C35.221 30.9309 34.4532 37.5568 35.6259 39.7273C36.7986 41.8978 39.828 40.3699 39.828 40.3699C39.828 40.3699 41.95 39.2275 42.2851 38.8848C42.2851 38.8848 44.798 41.0553 48.3579 40.6555C56.3015 39.0561 59.1215 36.8856 59.1215 36.8856C59.1215 36.8856 60.4896 40.4127 64.7057 40.7412C69.536 41.1124 72.1746 37.9994 72.1746 37.9994C72.1746 37.9994 72.1327 40.0129 73.8219 40.7269C75.5112 41.4409 76.642 37.671 76.642 37.671L79.462 29.9456H79.7133C79.7133 29.9456 79.8529 34.8864 82.645 35.7146C85.4511 36.5286 89.0669 33.6726 89.0669 33.6726C89.0669 33.6726 89.9464 33.0729 89.7928 31.5735Z" fill="white"/>
</g>
<defs>
<clipPath id="clip0_3251_7792">
<rect width="92" height="39.1489" fill="white" transform="translate(0.214844 4.42529)"/>
</clipPath>
</defs>
</svg>
