<svg width="48" height="48" viewBox="0 0 48 48" fill="none" xmlns="http://www.w3.org/2000/svg">
<g clip-path="url(#clip0_3251_6532)">
<path d="M24.0841 38.1145V46.9997C39.1441 46.9997 50.8699 32.4508 45.9434 16.6697C43.7906 9.77324 38.3107 4.29335 31.4143 2.14052C15.6332 -2.7859 1.08398 8.94017 1.08398 24.0001H9.98952C9.99083 24.0001 9.99187 23.9977 9.99187 23.9977C9.99318 14.5466 19.3465 7.23961 29.2831 10.8452C32.9644 12.1812 35.9007 15.117 37.2374 18.798C40.8436 28.7287 33.5476 38.0784 24.1045 38.0918V29.2353C24.1045 29.2353 24.1037 29.2348 24.1029 29.2348H15.2248C15.224 29.2348 15.2232 29.2361 15.2232 29.2361V38.1145H24.0841ZM15.2216 44.9384H8.40007L8.3985 44.9369V38.1145H15.2232V44.9369C15.2232 44.9369 15.2224 44.9384 15.2216 44.9384ZM8.4032 38.1145H2.68465C2.68231 38.1145 2.68048 38.113 2.68048 38.113V32.397C2.68048 32.397 2.68231 32.3929 2.68465 32.3929H8.39903C8.40137 32.3929 8.4032 32.3947 8.4032 32.3947V38.1145Z" fill="black"/>
</g>
<defs>
<clipPath id="clip0_3251_6532">
<rect width="46" height="46" fill="white" transform="translate(1.08398 1)"/>
</clipPath>
</defs>
</svg>
