<svg width="67" height="48" viewBox="0 0 67 48" fill="none" xmlns="http://www.w3.org/2000/svg">
<path d="M0.764219 24.72C1.16422 23.94 1.70422 23.34 2.42422 22.9C3.14422 22.46 3.94422 22.24 4.86422 22.24C5.74422 22.24 6.54422 22.44 7.24422 22.82C7.92422 23.2 8.48422 23.74 8.88422 24.46C9.28422 25.18 9.50422 26.04 9.54422 27.02C9.54422 27.22 9.52422 27.36 9.52422 27.44H1.26422C1.24422 27.5 1.24422 27.58 1.24422 27.68C1.24422 28.48 1.42422 29.18 1.74422 29.78C2.06422 30.38 2.50422 30.86 3.06422 31.2C3.62422 31.54 4.24422 31.7 4.96422 31.7C5.78422 31.7 6.50422 31.48 7.12422 31.02C7.72422 30.56 8.14422 29.94 8.34422 29.14H9.38422C9.14422 30.18 8.62422 31.02 7.84422 31.66C7.06422 32.3 6.12422 32.62 5.04422 32.62C4.08422 32.62 3.24422 32.4 2.50422 31.96C1.76422 31.52 1.18422 30.92 0.784219 30.12C0.384219 29.34 0.184219 28.44 0.184219 27.42C0.184219 26.42 0.364219 25.52 0.764219 24.72ZM8.48422 26.58C8.38422 25.5 8.00422 24.64 7.36422 24.04C6.72422 23.44 5.88422 23.14 4.88422 23.14C4.26422 23.14 3.70422 23.3 3.18422 23.58C2.66422 23.86 2.22422 24.26 1.90422 24.78C1.56422 25.3 1.36422 25.9 1.32422 26.58H8.48422ZM14.2069 27.32L10.4669 22.36H11.6869L14.8669 26.56L18.0669 22.36H19.2069L15.4469 27.32L19.4069 32.5H18.1669L14.7869 28.04L11.4069 32.5H10.2669L14.2069 27.32ZM28.1772 22.88C28.8972 23.3 29.4772 23.9 29.8772 24.68C30.2772 25.48 30.4972 26.38 30.4972 27.42C30.4972 28.44 30.2772 29.34 29.8772 30.12C29.4772 30.92 28.8972 31.52 28.1772 31.96C27.4572 32.4 26.6372 32.62 25.7172 32.62C24.7572 32.62 23.9572 32.4 23.2772 31.96C22.5972 31.52 22.1172 30.92 21.8372 30.16V36.5H20.8172V22.36H21.6972L21.8572 24.68C22.1772 23.94 22.6772 23.34 23.3372 22.9C23.9972 22.46 24.7972 22.24 25.7172 22.24C26.6372 22.24 27.4572 22.46 28.1772 22.88ZM27.6172 31.16C28.1972 30.8 28.6572 30.3 28.9772 29.64C29.2972 29 29.4572 28.26 29.4572 27.42C29.4572 26.6 29.2972 25.86 28.9772 25.22C28.6572 24.58 28.1972 24.06 27.6172 23.7C27.0372 23.34 26.3772 23.14 25.6372 23.14C24.8772 23.14 24.2172 23.34 23.6372 23.7C23.0572 24.06 22.6172 24.58 22.2972 25.22C21.9772 25.86 21.8172 26.6 21.8172 27.4C21.8172 28.24 21.9772 29 22.2972 29.64C22.6172 30.3 23.0572 30.8 23.6372 31.16C24.2172 31.52 24.8772 31.7 25.6372 31.7C26.3772 31.7 27.0372 31.52 27.6172 31.16ZM37.1555 22.36V23.34H36.4955C35.3955 23.34 34.6355 23.72 34.2155 24.46C33.7755 25.2 33.5755 26.16 33.5755 27.36V32.5H32.5555V22.36H33.4355L33.5955 24.38C33.8355 23.76 34.1955 23.26 34.6755 22.9C35.1555 22.54 35.8155 22.36 36.6955 22.36H37.1555ZM38.3033 24.72C38.7033 23.94 39.2433 23.34 39.9633 22.9C40.6833 22.46 41.4833 22.24 42.4033 22.24C43.2833 22.24 44.0833 22.44 44.7833 22.82C45.4633 23.2 46.0233 23.74 46.4233 24.46C46.8233 25.18 47.0433 26.04 47.0833 27.02C47.0833 27.22 47.0633 27.36 47.0633 27.44H38.8033C38.7833 27.5 38.7833 27.58 38.7833 27.68C38.7833 28.48 38.9633 29.18 39.2833 29.78C39.6033 30.38 40.0433 30.86 40.6033 31.2C41.1633 31.54 41.7833 31.7 42.5033 31.7C43.3233 31.7 44.0433 31.48 44.6633 31.02C45.2633 30.56 45.6833 29.94 45.8833 29.14H46.9233C46.6833 30.18 46.1633 31.02 45.3833 31.66C44.6033 32.3 43.6633 32.62 42.5833 32.62C41.6233 32.62 40.7833 32.4 40.0433 31.96C39.3033 31.52 38.7233 30.92 38.3233 30.12C37.9233 29.34 37.7233 28.44 37.7233 27.42C37.7233 26.42 37.9033 25.52 38.3033 24.72ZM46.0233 26.58C45.9233 25.5 45.5433 24.64 44.9033 24.04C44.2633 23.44 43.4233 23.14 42.4233 23.14C41.8033 23.14 41.2433 23.3 40.7233 23.58C40.2033 23.86 39.7633 24.26 39.4433 24.78C39.1033 25.3 38.9033 25.9 38.8633 26.58H46.0233ZM49.778 29.38C49.818 30.12 50.118 30.7 50.718 31.12C51.298 31.54 52.078 31.74 53.038 31.74C53.878 31.74 54.558 31.56 55.118 31.2C55.658 30.84 55.938 30.38 55.938 29.78C55.938 29.32 55.798 28.96 55.538 28.7C55.278 28.44 54.938 28.26 54.538 28.14C54.118 28.02 53.558 27.92 52.878 27.8C52.018 27.68 51.318 27.56 50.798 27.4C50.258 27.24 49.818 26.98 49.478 26.62C49.118 26.26 48.958 25.76 48.958 25.12C48.958 24.56 49.118 24.06 49.438 23.62C49.758 23.18 50.218 22.84 50.778 22.6C51.338 22.36 51.998 22.22 52.718 22.22C53.878 22.22 54.818 22.48 55.538 23C56.258 23.52 56.678 24.26 56.778 25.22H55.758C55.658 24.58 55.338 24.06 54.798 23.68C54.258 23.3 53.578 23.1 52.778 23.1C51.938 23.1 51.258 23.28 50.738 23.64C50.218 24 49.958 24.48 49.958 25.04C49.958 25.48 50.078 25.82 50.338 26.06C50.598 26.3 50.918 26.48 51.298 26.56C51.658 26.66 52.198 26.76 52.918 26.84C53.778 26.96 54.498 27.12 55.058 27.3C55.618 27.48 56.058 27.76 56.418 28.14C56.778 28.54 56.958 29.06 56.958 29.72C56.958 30.6 56.578 31.32 55.818 31.84C55.058 32.36 54.138 32.62 53.038 32.62C51.758 32.62 50.718 32.34 49.958 31.78C49.178 31.22 48.778 30.42 48.758 29.38H49.778ZM59.4459 29.38C59.4859 30.12 59.7859 30.7 60.3859 31.12C60.9659 31.54 61.7459 31.74 62.7059 31.74C63.5459 31.74 64.2259 31.56 64.7859 31.2C65.3259 30.84 65.6059 30.38 65.6059 29.78C65.6059 29.32 65.4659 28.96 65.2059 28.7C64.9459 28.44 64.6059 28.26 64.2059 28.14C63.7859 28.02 63.2259 27.92 62.5459 27.8C61.6859 27.68 60.9859 27.56 60.4659 27.4C59.9259 27.24 59.4859 26.98 59.1459 26.62C58.7859 26.26 58.6259 25.76 58.6259 25.12C58.6259 24.56 58.7859 24.06 59.1059 23.62C59.4259 23.18 59.8859 22.84 60.4459 22.6C61.0059 22.36 61.6659 22.22 62.3859 22.22C63.5459 22.22 64.4859 22.48 65.2059 23C65.9259 23.52 66.3459 24.26 66.4459 25.22H65.4259C65.3259 24.58 65.0059 24.06 64.4659 23.68C63.9259 23.3 63.2459 23.1 62.4459 23.1C61.6059 23.1 60.9259 23.28 60.4059 23.64C59.8859 24 59.6259 24.48 59.6259 25.04C59.6259 25.48 59.7459 25.82 60.0059 26.06C60.2659 26.3 60.5859 26.48 60.9659 26.56C61.3259 26.66 61.8659 26.76 62.5859 26.84C63.4459 26.96 64.1659 27.12 64.7259 27.3C65.2859 27.48 65.7259 27.76 66.0859 28.14C66.4459 28.54 66.6259 29.06 66.6259 29.72C66.6259 30.6 66.2459 31.32 65.4859 31.84C64.7259 32.36 63.8059 32.62 62.7059 32.62C61.4259 32.62 60.3859 32.34 59.6259 31.78C58.8459 31.22 58.4459 30.42 58.4259 29.38H59.4459Z" fill="black"/>
</svg>
