<svg width="48" height="56" viewBox="0 0 48 56" fill="none" xmlns="http://www.w3.org/2000/svg">
<g clip-path="url(#clip0_3251_3028)">
<path fill-rule="evenodd" clip-rule="evenodd" d="M8.10249 50.7722L4.60352 11.5348H43.0439L39.5424 50.7654L23.8008 55.13L8.10249 50.7722ZM23.8534 46.4627L23.8305 46.4695L13.9737 43.7327L13.2997 36.1769H18.1297L18.4723 40.015L23.8322 41.4622L23.8365 41.4571L29.2032 40.0073L29.7645 33.7673H18.5333L18.4358 32.6864L18.2171 30.2472L18.1018 28.9559H30.1918L30.6326 24.0301H12.217L12.1203 22.9465L11.8999 20.5073L11.7863 19.2169H35.89L35.7755 20.5082L34.6115 33.5664L34.5945 33.7444L34.5928 33.7699L33.7738 42.9179L33.7018 43.7318L23.8568 46.4618L23.8534 46.4627ZM18.6834 2.95903H15.2412V6.10023H18.6834V8.19181H12.7935V0.869141H18.6834V2.95903ZM26.6656 2.87764H23.4761L26.7911 6.47497V8.18758H19.9576V6.18501H23.2752L19.9576 2.58514V0.869141H26.664V2.87849L26.6656 2.87764ZM34.7268 2.87764H31.5364L34.8548 6.47497V8.18758H28.0213V6.18501H31.3414L28.0205 2.58514V0.869141H34.7268V2.87849V2.87764Z" fill="black"/>
</g>
<defs>
<clipPath id="clip0_3251_3028">
<rect width="39" height="54.2609" fill="white" transform="translate(4.32422 0.869141)"/>
</clipPath>
</defs>
</svg>
