<svg width="52" height="48" viewBox="0 0 52 48" fill="none" xmlns="http://www.w3.org/2000/svg">
<g clip-path="url(#clip0_3251_8013)">
<path d="M25.6953 0.890625L11.3227 2.41027L0.195312 17.3475L25.6953 47.042L51.1953 17.3475L40.0681 2.41027L25.6953 0.890625Z" fill="#5A5A65"/>
<path d="M0.195312 17.3477L25.6953 47.042L10.524 17.3477H0.195312Z" fill="black"/>
<path d="M40.8664 17.3477L25.6953 47.042L51.1951 17.3477H40.8664Z" fill="black"/>
<path d="M10.5234 17.3477L25.6947 47.042L40.866 17.3477H10.5234Z" fill="#5A5A65"/>
<path d="M11.3221 2.41027L10.5234 17.3475L25.6947 0.890625L11.3221 2.41027Z" fill="#AEAEB7"/>
<path d="M40.8664 17.3475L40.0679 2.41007L25.6953 0.890625L40.8664 17.3475Z" fill="#AEAEB7"/>
<path d="M40.867 17.3476H51.1955L40.0684 2.41016L40.867 17.3476Z" fill="#5A5A65"/>
<path d="M0.195312 17.3476H10.524L11.3227 2.41016L0.195312 17.3476Z" fill="#5A5A65"/>
<path d="M25.6947 0.890625L10.5234 17.3475H40.866L25.6947 0.890625Z" fill="#DCDCE0"/>
</g>
<defs>
<clipPath id="clip0_3251_8013">
<rect width="51" height="46.2188" fill="white" transform="translate(0.195312 0.890625)"/>
</clipPath>
</defs>
</svg>
