<svg width="59" height="52" viewBox="0 0 59 52" fill="none" xmlns="http://www.w3.org/2000/svg">
<g clip-path="url(#clip0_3251_1572)">
<path d="M24.523 25.9421C24.523 23.0607 26.8459 20.7202 29.7056 20.7202C32.5654 20.7202 34.8883 23.0607 34.8883 25.9421C34.8883 28.8236 32.5654 31.1641 29.7056 31.1641C26.8459 31.1641 24.523 28.8236 24.523 25.9421ZM58.6953 25.9421C58.6953 29.5309 54.4935 33.1614 47.7209 35.4187C47.3699 35.5331 47.0086 35.6475 46.6369 35.7619C46.7711 36.2925 46.8847 36.8126 46.9879 37.3223C47.6177 40.547 47.7209 43.5429 47.277 45.977C46.8021 48.5672 45.7284 50.4084 44.1798 51.3134C43.4055 51.7711 42.4867 52 41.4646 52C38.6565 52 35.0947 50.294 31.3781 47.0693C30.8516 46.6116 30.3354 46.1331 29.8089 45.6234C29.4062 46.0187 29.0036 46.3931 28.601 46.7468C26.1439 48.9105 23.6145 50.4917 21.3019 51.3134C20.094 51.7503 18.9584 51.9688 17.9466 51.9688C16.8936 51.9688 15.9644 51.7399 15.1798 51.2822C12.2169 49.5554 11.1845 44.5831 12.4337 37.9776C12.5575 37.3015 12.7124 36.6045 12.8879 35.8972C12.3407 35.7411 11.8142 35.5747 11.3083 35.3979C8.22148 34.3368 5.59919 32.9221 3.73056 31.3097C1.74836 29.6038 0.695312 27.7417 0.695312 25.9421C0.695312 22.4886 4.45323 19.1078 10.7612 16.9025C11.4529 16.6633 12.1756 16.4344 12.9189 16.216C12.7537 15.5606 12.6092 14.9157 12.4853 14.2811C11.8762 11.1396 11.7626 8.25816 12.1549 5.93844C12.5885 3.41067 13.6106 1.61107 15.1282 0.726869C18.2047 -1.07274 23.439 0.778881 28.7662 5.55355C29.0862 5.84482 29.4062 6.14649 29.7366 6.45856C30.2218 5.99045 30.7071 5.54315 31.182 5.11666C33.5771 3.01538 36.0033 1.47584 38.1919 0.664455C40.5768 -0.219744 42.6416 -0.219744 44.1489 0.654053C47.2357 2.44325 48.2578 7.93569 46.8124 14.9677C46.7298 15.3942 46.6266 15.8207 46.5234 16.2576C47.1635 16.4448 47.7829 16.6424 48.3817 16.8505C51.3859 17.8907 53.9153 19.243 55.7117 20.741C57.6629 22.3845 58.6953 24.1841 58.6953 25.9421ZM31.471 8.23736C33.1229 10.0266 34.7747 12.107 36.3646 14.3955C39.1004 14.6556 41.7124 15.0717 44.1282 15.6334C44.2211 15.2381 44.314 14.8532 44.3863 14.4684C45.7387 7.84207 44.5721 3.78516 42.91 2.81774C42.0634 2.32883 40.6903 2.39124 39.0385 3.00498C37.1286 3.71234 34.9709 5.09585 32.8028 6.99948C32.3589 7.38437 31.915 7.80046 31.471 8.23736ZM15.9541 34.0976C17.606 34.4617 19.392 34.7529 21.2916 34.961C20.6722 33.9831 20.0631 32.9845 19.4746 31.9651C18.8965 30.9665 18.3493 29.9574 17.8331 28.9484C17.1001 30.696 16.46 32.4332 15.9541 34.0976ZM19.4746 20.044C20.0527 19.0454 20.6412 18.0572 21.2503 17.1002C19.4127 17.329 17.6473 17.6411 15.9851 18.0052C16.491 19.6487 17.1104 21.3443 17.8331 23.0711C18.3493 22.0621 18.8965 21.053 19.4746 20.044ZM21.622 30.7168C22.5202 32.2772 23.47 33.7959 24.4611 35.2418C26.1439 35.3459 27.8989 35.4083 29.7056 35.4083C31.5227 35.4083 33.2984 35.3459 35.0121 35.221C35.9516 33.7959 36.8808 32.2876 37.7996 30.696C38.7081 29.1149 39.5444 27.5233 40.298 25.9629C39.5444 24.4338 38.7185 22.8734 37.7996 21.2819C36.9014 19.7111 35.962 18.2132 35.0018 16.7777C33.2777 16.6424 31.502 16.58 29.7056 16.58C27.9299 16.58 26.1542 16.6529 24.4198 16.7881C23.4493 18.2236 22.4995 19.7319 21.6117 21.2923C20.7238 22.8422 19.8979 24.4234 19.1442 26.0046C19.8979 27.5753 20.7238 29.1565 21.622 30.7168ZM38.1713 34.9194C40.0812 34.6905 41.8982 34.3784 43.581 33.9935C43.0648 32.3604 42.4144 30.6336 41.6298 28.8444C41.1033 29.8742 40.5355 30.9145 39.947 31.9443C39.3585 32.9637 38.7701 33.9623 38.1713 34.9194ZM43.4571 18.0364C41.7847 17.6515 40.0089 17.3394 38.161 17.1002C38.7597 18.0468 39.3482 19.0246 39.9264 20.0232C40.5148 21.053 41.0723 22.0725 41.5988 23.0711C42.3318 21.3443 42.9616 19.6487 43.4571 18.0364ZM26.2884 14.1667C27.4137 14.1147 28.5494 14.0835 29.6953 14.0835C30.8619 14.0835 32.0079 14.1147 33.1538 14.1667C32.0285 12.6584 30.8826 11.2644 29.7366 10.0162C28.57 11.2748 27.4137 12.6688 26.2884 14.1667ZM14.9217 13.8026C15.0353 14.3955 15.1695 14.9885 15.3244 15.6022C17.7298 15.0509 20.3418 14.6452 23.0777 14.3851C24.6675 12.1278 26.3297 10.0578 28.0125 8.22696C27.7234 7.94609 27.4344 7.67563 27.1453 7.42598C22.1072 2.93217 18.0396 1.92314 16.3774 2.89056C15.5308 3.37947 14.9011 4.61734 14.6017 6.36494C14.261 8.38299 14.3642 10.9628 14.9217 13.8026ZM16.4084 26.015C15.2624 23.4976 14.3023 21.0114 13.5796 18.6293C12.8879 18.8269 12.2272 19.035 11.5871 19.2638C5.78502 21.3027 3.18339 24.0905 3.18339 25.9525C3.18339 27.8874 5.98118 30.9353 12.1136 33.0469C12.5782 33.203 13.0531 33.359 13.5486 33.5046C14.2816 31.0809 15.2418 28.5635 16.4084 26.015ZM28.0745 43.8446C26.371 42.0138 24.6985 39.9229 23.0983 37.6448C20.2695 37.4159 17.6473 37.031 15.2934 36.5005C15.1282 37.1663 14.994 37.8112 14.8701 38.4353C13.7241 44.5207 14.8288 48.1823 16.4187 49.1081C18.0809 50.0756 22.0969 49.1602 26.9801 44.8536C27.3311 44.5415 27.7028 44.1982 28.0745 43.8446ZM33.2055 37.8216C32.0595 37.8736 30.8826 37.9048 29.7056 37.9048C28.5494 37.9048 27.424 37.884 26.3194 37.8424C27.4653 39.3612 28.6319 40.7655 29.8089 42.045C30.9342 40.7863 32.0801 39.382 33.2055 37.8216ZM44.5721 37.8112C44.4792 37.3431 44.376 36.875 44.2521 36.3861C41.8569 36.9478 39.214 37.3535 36.4059 37.6032C34.8057 39.9437 33.1642 42.0346 31.5433 43.8238C32.0285 44.3023 32.5241 44.7496 32.999 45.1657C37.6551 49.2018 41.3511 50.0756 42.9513 49.1394C44.6134 48.1823 45.8317 44.219 44.5721 37.8112ZM56.2279 25.9421C56.2279 24.9539 55.4846 23.7889 54.1321 22.655C52.5732 21.3443 50.3019 20.148 47.5867 19.2014C47.0292 19.0142 46.4511 18.8269 45.8626 18.6501C45.1503 20.9698 44.2005 23.4352 43.0339 25.9525C44.2521 28.5427 45.2432 31.0289 45.9659 33.3486C46.2962 33.2446 46.6266 33.1406 46.9466 33.0365C53.3165 30.9145 56.2279 27.8666 56.2279 25.9421Z" fill="black"/>
</g>
<defs>
<clipPath id="clip0_3251_1572">
<rect width="58" height="52" fill="white" transform="translate(0.695312)"/>
</clipPath>
</defs>
</svg>
