<svg width="59" height="52" viewBox="0 0 59 52" fill="none" xmlns="http://www.w3.org/2000/svg">
<g clip-path="url(#clip0_3251_6450)">
<mask id="mask0_3251_6450" style="mask-type:luminance" maskUnits="userSpaceOnUse" x="0" y="0" width="60" height="52">
<path d="M0.861328 0.229492H59.119V51.757H0.861328V0.229492Z" fill="white"/>
</mask>
<g mask="url(#mask0_3251_6450)">
<mask id="mask1_3251_6450" style="mask-type:luminance" maskUnits="userSpaceOnUse" x="2" y="15" width="8" height="6">
<path d="M2.33203 15.583H9.90342V20.8409H2.33203V15.583Z" fill="white"/>
</mask>
<g mask="url(#mask1_3251_6450)">
<mask id="mask2_3251_6450" style="mask-type:luminance" maskUnits="userSpaceOnUse" x="2" y="15" width="8" height="6">
<path d="M2.97301 17.6245L8.21199 20.6497C8.38382 20.7489 8.57205 20.7958 8.75776 20.7958C8.99826 20.796 9.23208 20.7167 9.42293 20.5704C9.61378 20.424 9.75099 20.2188 9.81327 19.9865C9.87554 19.7542 9.8594 19.5078 9.76735 19.2856C9.67529 19.0634 9.51248 18.8779 9.30416 18.7577L4.06518 15.7327C3.8146 15.5932 3.51921 15.5578 3.24277 15.6342C2.96634 15.7106 2.73104 15.8927 2.58768 16.1411C2.44431 16.3895 2.40439 16.6843 2.47652 16.9619C2.54866 17.2394 2.72706 17.4775 2.97322 17.6247" fill="white"/>
</mask>
<g mask="url(#mask2_3251_6450)">
<path d="M12.3523 16.8145L4.26461 12.0498L-0.0742188 19.414L8.01308 24.179L12.3523 16.8145Z" fill="black"/>
</g>
</g>
<mask id="mask3_3251_6450" style="mask-type:luminance" maskUnits="userSpaceOnUse" x="13" y="4" width="6" height="9">
<path d="M13.4805 4.22559H18.9487V12.0073H13.4805V4.22559Z" fill="white"/>
</mask>
<g mask="url(#mask3_3251_6450)">
<mask id="mask4_3251_6450" style="mask-type:luminance" maskUnits="userSpaceOnUse" x="13" y="4" width="6" height="8">
<path d="M16.7727 11.2916C16.8686 11.4577 17.0065 11.5957 17.1727 11.6916C17.3388 11.7874 17.5273 11.8379 17.7191 11.8378C17.9048 11.8378 18.093 11.7903 18.2647 11.6908C18.3889 11.6191 18.4979 11.5237 18.5852 11.4099C18.6725 11.296 18.7366 11.1661 18.7736 11.0276C18.8107 10.889 18.8201 10.7445 18.8013 10.6022C18.7824 10.46 18.7357 10.3229 18.6638 10.1988L15.6399 4.95981C15.5682 4.83562 15.4727 4.72678 15.3589 4.63951C15.245 4.55223 15.1152 4.48823 14.9766 4.45117C14.8381 4.4141 14.6936 4.40468 14.5514 4.42347C14.4092 4.44225 14.2721 4.48886 14.1479 4.56063C13.897 4.70538 13.7139 4.94387 13.6389 5.22363C13.5638 5.50339 13.603 5.80151 13.7477 6.0524L16.7727 11.2916Z" fill="white"/>
</mask>
<g mask="url(#mask4_3251_6450)">
<path d="M22.28 6.21195L14.868 1.84473L10.1309 9.88512L17.5428 14.2517L22.28 6.21195Z" fill="black"/>
</g>
</g>
<mask id="mask5_3251_6450" style="mask-type:luminance" maskUnits="userSpaceOnUse" x="28" y="0" width="4" height="9">
<path d="M28.832 0.325195H31.1455V8.64258H28.832V0.325195Z" fill="white"/>
</mask>
<g mask="url(#mask5_3251_6450)">
<mask id="mask6_3251_6450" style="mask-type:luminance" maskUnits="userSpaceOnUse" x="28" y="0" width="4" height="9">
<path d="M29.9559 8.55887C30.0993 8.55887 30.2412 8.53063 30.3737 8.47575C30.5062 8.42087 30.6266 8.34043 30.7279 8.23903C30.8293 8.13763 30.9097 8.01725 30.9646 7.88477C31.0194 7.75229 31.0477 7.6103 31.0476 7.46691V1.41716C31.0477 1.27377 31.0194 1.13178 30.9646 0.999298C30.9097 0.866816 30.8293 0.746437 30.7279 0.645037C30.6266 0.543636 30.5062 0.463199 30.3737 0.40832C30.2412 0.353441 30.0993 0.325195 29.9559 0.325195C29.6662 0.325195 29.3884 0.440221 29.1835 0.644985C28.9786 0.84975 28.8634 1.12749 28.8633 1.41716V7.46691C28.8634 7.75657 28.9786 8.03432 29.1835 8.23908C29.3884 8.44385 29.6662 8.55887 29.9559 8.55887Z" fill="white"/>
</mask>
<g mask="url(#mask6_3251_6450)">
<path d="M34.6488 2.44705L29.4254 -0.629883L25.2617 6.43801L30.4843 9.51473L34.6488 2.44705Z" fill="black"/>
</g>
</g>
<mask id="mask7_3251_6450" style="mask-type:luminance" maskUnits="userSpaceOnUse" x="41" y="4" width="6" height="9">
<path d="M41.0312 4.22559H46.4995V12.0073H41.0312V4.22559Z" fill="white"/>
</mask>
<g mask="url(#mask7_3251_6450)">
<mask id="mask8_3251_6450" style="mask-type:luminance" maskUnits="userSpaceOnUse" x="41" y="4" width="6" height="8">
<path d="M41.648 11.6907C41.8196 11.7902 42.0077 11.8379 42.1927 11.8379C42.3847 11.8381 42.5733 11.7876 42.7396 11.6917C42.9058 11.5958 43.0439 11.4578 43.1398 11.2915L46.1641 6.05253C46.236 5.92836 46.2827 5.79124 46.3015 5.64901C46.3203 5.50678 46.3109 5.36224 46.2738 5.22366C46.2367 5.08508 46.1726 4.95518 46.0852 4.84139C45.9978 4.7276 45.8889 4.63217 45.7645 4.56054C45.5138 4.41566 45.2157 4.37632 44.936 4.45118C44.6562 4.52604 44.4177 4.70897 44.2728 4.95972L41.2478 10.1987C41.1761 10.3229 41.1296 10.4601 41.1109 10.6023C41.0922 10.7445 41.1017 10.8891 41.1389 11.0276C41.176 11.1661 41.2401 11.296 41.3275 11.4098C41.4148 11.5236 41.5238 11.619 41.648 11.6907Z" fill="white"/>
</mask>
<g mask="url(#mask8_3251_6450)">
<path d="M49.78 6.21195L42.3678 1.84473L37.6309 9.88512L45.0428 14.2517L49.78 6.21195Z" fill="black"/>
</g>
</g>
<mask id="mask9_3251_6450" style="mask-type:luminance" maskUnits="userSpaceOnUse" x="49" y="15" width="9" height="6">
<path d="M49.8652 15.583H57.6469V20.8409H49.8652V15.583Z" fill="white"/>
</mask>
<g mask="url(#mask9_3251_6450)">
<mask id="mask10_3251_6450" style="mask-type:luminance" maskUnits="userSpaceOnUse" x="50" y="15" width="8" height="6">
<path d="M51.1539 20.7967C51.3396 20.7967 51.5268 20.7495 51.6995 20.6503L56.9385 17.6253C57.1838 17.4776 57.3613 17.2395 57.4328 16.9623C57.5044 16.6851 57.4642 16.3908 57.321 16.1429C57.1779 15.8949 56.9431 15.7131 56.6672 15.6365C56.3913 15.5599 56.0964 15.5947 55.8459 15.7333L50.6069 18.7583C50.3985 18.8785 50.2357 19.0641 50.1437 19.2864C50.0516 19.5086 50.0355 19.7551 50.0979 19.9874C50.1602 20.2197 50.2976 20.425 50.4885 20.5713C50.6795 20.7176 50.9134 20.7969 51.1539 20.7967Z" fill="white"/>
</mask>
<g mask="url(#mask10_3251_6450)">
<path d="M59.9853 16.8145L51.8981 12.0498L47.5586 19.4142L55.6467 24.1792L59.9853 16.8145Z" fill="black"/>
</g>
</g>
<mask id="mask11_3251_6450" style="mask-type:luminance" maskUnits="userSpaceOnUse" x="0" y="12" width="59" height="40">
<path d="M0.955288 12.2178H58.9557V51.6391H0.955078L0.955288 12.2178Z" fill="white"/>
</mask>
<g mask="url(#mask11_3251_6450)">
<mask id="mask12_3251_6450" style="mask-type:luminance" maskUnits="userSpaceOnUse" x="0" y="12" width="59" height="40">
<path d="M43.91 49.4534H38.9891C40.7725 48.5309 42.4223 47.3292 43.8831 45.8692C47.6036 42.1483 49.6527 37.2018 49.6527 31.9406C49.6527 29.3339 49.1492 26.8042 48.1889 24.463C53.2165 26.2422 56.8125 31.0623 56.7707 36.6876C56.7181 43.7479 50.9582 49.4534 43.91 49.4534ZM13.5942 49.4536C10.7812 49.4313 8.1449 48.3158 6.17003 46.3119C4.19474 44.3074 3.11855 41.6538 3.14 38.8391C3.17449 34.1653 6.26341 30.2162 10.4954 28.8729C10.3371 29.8878 10.2576 30.9134 10.2577 31.9406C10.2577 37.2018 12.3069 42.1483 16.0267 45.8692C17.4641 47.3085 19.1148 48.5175 20.9208 49.4536H13.5942ZM17.5713 19.5565C20.8796 16.2491 25.2773 14.4277 29.9553 14.4277C34.6332 14.4277 39.0309 16.2491 42.3386 19.5565C42.9645 20.1832 43.5371 20.848 44.0547 21.5471C44.0432 21.5471 44.0324 21.5463 44.0211 21.5463C40.0019 21.5126 36.212 23.053 33.3492 25.8733C30.486 28.6947 28.893 32.4615 28.8634 36.4796C28.8371 39.9498 30.0218 43.3454 32.1982 46.04L33.8979 44.6672C32.0379 42.3643 31.0258 39.4627 31.0481 36.496C31.0734 33.0611 32.4356 29.8416 34.883 27.4303C37.3295 25.019 40.5721 23.7062 44.0045 23.7309C44.5057 23.7351 44.9986 23.7679 45.4843 23.827C46.7798 26.3016 47.4682 29.0676 47.4682 31.9406C47.4682 36.6184 45.646 41.0161 42.3386 44.324C39.0326 47.6306 34.6366 49.4519 29.961 49.4536H29.9488C25.2735 49.4519 20.8779 47.6306 17.5713 44.324C14.2636 41.0161 12.4423 36.6184 12.4423 31.9406C12.4423 30.7436 12.5622 29.5655 12.7948 28.4186C13.0875 28.3942 13.381 28.3819 13.6747 28.3816H13.7545C19.5634 28.4251 24.2545 33.1869 24.211 38.996L26.3955 39.0124C26.4481 31.9988 20.7843 26.2498 13.7709 26.1972H13.6739C13.5826 26.1972 13.4922 26.1989 13.4011 26.2004C14.2563 23.7275 15.6669 21.4618 17.5713 19.5565ZM46.8751 21.8414C46.0385 20.4471 45.0337 19.161 43.8831 18.0121C40.163 14.2921 35.2164 12.2432 29.9553 12.2432C24.6932 12.2432 19.7476 14.2921 16.0267 18.0121C13.6327 20.4066 11.9323 23.3094 11.0227 26.4763C5.31467 27.6924 1.00066 32.7515 0.955445 38.8227C0.929997 42.2206 2.22975 45.4246 4.6139 47.8449C6.99889 50.2652 10.1831 51.6125 13.5809 51.6382H43.9109C52.1553 51.6382 58.8934 44.9621 58.955 36.704C59.0093 29.3848 53.8008 23.2305 46.8751 21.8414Z" fill="white"/>
</mask>
<g mask="url(#mask12_3251_6450)">
<path d="M76.1841 22.3946L15.8999 -13.123L-16.2754 41.4877L44.0091 77.0053L76.1841 22.3946Z" fill="black"/>
</g>
</g>
</g>
</g>
<defs>
<clipPath id="clip0_3251_6450">
<rect width="58" height="51.3139" fill="white" transform="translate(0.955078 0.342773)"/>
</clipPath>
</defs>
</svg>
