<svg width="73" height="48" viewBox="0 0 73 48" fill="none" xmlns="http://www.w3.org/2000/svg">
<g clip-path="url(#clip0_3251_12494)">
<path d="M13.7222 12.9754C12.8783 13.974 11.5282 14.7616 10.178 14.6491C10.0092 13.2989 10.6703 11.8644 11.4438 10.9783C12.2876 9.95165 13.7644 9.22032 14.9598 9.16406C15.1004 10.5705 14.5519 11.9488 13.7222 12.9754ZM14.9457 14.9163C12.9908 14.8038 11.3172 16.0273 10.389 16.0273C9.44668 16.0273 8.0262 14.9725 6.47915 15.0007C4.46798 15.0288 2.59745 16.168 1.57077 17.9823C-0.538844 21.6108 1.02227 26.9833 3.06157 29.9368C4.06012 31.3994 5.25557 33.0027 6.83075 32.9465C8.32155 32.8902 8.91224 31.9761 10.7124 31.9761C12.5267 31.9761 13.0471 32.9465 14.6223 32.9183C16.2537 32.8902 17.2804 31.4557 18.2789 29.993C19.4181 28.3334 19.8822 26.7161 19.9104 26.6317C19.8822 26.6036 16.76 25.4081 16.7319 21.8077C16.7038 18.798 19.1931 17.3634 19.3056 17.2791C17.8992 15.1976 15.7052 14.9725 14.9457 14.9163ZM26.2392 10.8377V32.7636H29.6427V25.2675H34.3542C38.6578 25.2675 41.6816 22.314 41.6816 18.0385C41.6816 13.763 38.7141 10.8377 34.4667 10.8377H26.2392ZM29.6427 13.7068H33.5666C36.5201 13.7068 38.2078 15.282 38.2078 18.0526C38.2078 20.8232 36.5201 22.4125 33.5526 22.4125H29.6427V13.7068ZM47.898 32.9324C50.0357 32.9324 52.0187 31.8495 52.9188 30.1337H52.9892V32.7636H56.1395V21.8499C56.1395 18.6855 53.608 16.6462 49.7122 16.6462C46.0977 16.6462 43.4256 18.7136 43.3271 21.5545H46.3931C46.6463 20.2044 47.898 19.3184 49.6138 19.3184C51.6953 19.3184 52.8626 20.2888 52.8626 22.0749V23.2844L48.6152 23.5376C44.6632 23.7767 42.5255 25.394 42.5255 28.2069C42.5255 31.0478 44.7335 32.9324 47.898 32.9324ZM48.8121 30.3305C46.9979 30.3305 45.8446 29.4586 45.8446 28.1225C45.8446 26.7442 46.9557 25.9425 49.0793 25.816L52.8626 25.5769V26.8145C52.8626 28.8679 51.1186 30.3305 48.8121 30.3305ZM60.3447 38.7268C63.6638 38.7268 65.2249 37.4611 66.5892 33.6216L72.5664 16.8571H69.1066L65.0984 29.8102H65.028L61.0198 16.8571H57.4616L63.2278 32.8199L62.9184 33.7903C62.3981 35.4358 61.5542 36.0687 60.0493 36.0687C59.7821 36.0687 59.2618 36.0406 59.0508 36.0125V38.6424C59.2477 38.6987 60.0915 38.7268 60.3447 38.7268Z" fill="black"/>
</g>
<defs>
<clipPath id="clip0_3251_12494">
<rect width="72" height="29.6719" fill="white" transform="translate(0.566406 9.16406)"/>
</clipPath>
</defs>
</svg>
