<svg width="59" height="58" viewBox="0 0 59 58" fill="none" xmlns="http://www.w3.org/2000/svg">
<g clip-path="url(#clip0_3251_7985)">
<rect x="29.5664" width="41.0118" height="41.0118" rx="8.88698" transform="rotate(45 29.5664 0)" fill="black"/>
<path d="M23.6469 27.0925H18.189C17.4472 27.0925 17.0021 27.9146 17.4058 28.537L26.9043 43.1806C27.2744 43.7512 28.1104 43.7486 28.4771 43.1758L42.2444 21.6644C42.4866 21.2858 42.4255 20.7886 42.0988 20.48L39.2582 17.7972C38.8369 17.3993 38.1589 17.4763 37.8375 17.9584L28.5302 31.9194C28.1453 32.4966 27.2882 32.4689 26.9415 31.868L24.4564 27.5604C24.2893 27.2709 23.9812 27.0925 23.6469 27.0925Z" fill="white"/>
</g>
<defs>
<clipPath id="clip0_3251_7985">
<rect width="57.9995" height="57.9995" fill="white" transform="translate(0.566406)"/>
</clipPath>
</defs>
</svg>
