<svg width="48" height="66" viewBox="0 0 48 66" fill="none" xmlns="http://www.w3.org/2000/svg">
<g clip-path="url(#clip0_3251_6722)">
<path fill-rule="evenodd" clip-rule="evenodd" d="M46.6251 31.8125C46.6251 44.697 36.4222 55.1221 23.8233 55.1221C11.2403 55.1221 1.02148 44.6812 1.02148 31.8125C1.02148 18.928 11.2244 8.5029 23.8233 8.5029C36.4064 8.48703 46.6251 18.928 46.6251 31.8125Z" fill="#AEAEB7"/>
<path d="M1.95814 37.5889C1.95814 37.5889 0.307902 13.2796 22.713 12.5814L21.1421 9.97915L8.98751 14.0571L5.51249 18.0399L2.4659 23.8633L0.736328 30.6388L1.25996 35.1611" fill="#83838E"/>
<path d="M8.21045 15.8978C4.2118 19.9916 1.73644 25.6405 1.73644 31.8924C1.73644 38.1442 4.2118 43.7931 8.21045 47.887C12.2091 51.9808 17.731 54.5038 23.8242 54.5038C29.9174 54.5038 35.4394 51.9808 39.438 47.887C43.4367 43.7931 45.912 38.1442 45.912 31.8924C45.912 25.6405 43.4367 19.9916 39.438 15.8978C35.4394 11.8039 29.9174 9.28098 23.8242 9.28098C17.731 9.28098 12.2091 11.8198 8.21045 15.8978ZM7.19492 48.8708C2.94238 44.523 0.324219 38.5251 0.324219 31.8924C0.324219 25.2597 2.95825 19.2617 7.19492 14.914C11.4474 10.5663 17.3344 7.86876 23.8242 7.86876C30.3141 7.86876 36.201 10.5663 40.4535 14.914C44.7061 19.2617 47.3401 25.2756 47.3242 31.8924C47.3242 38.5251 44.6902 44.523 40.4535 48.8708C36.201 53.2185 30.3141 55.916 23.8242 55.916C17.3344 55.916 11.4474 53.2185 7.19492 48.8708Z" fill="black"/>
<path fill-rule="evenodd" clip-rule="evenodd" d="M33.4237 31.9398L29.9487 32.4634L25.2519 32.9871L22.2053 33.0664L19.2539 32.9871L17.0007 32.2889L15.0014 30.115L13.4305 25.6879L13.0814 24.7359L11.0027 24.0377L9.78092 22.0384L8.9082 19.1663L9.86026 16.6434L12.1135 15.8659L13.9383 16.7386L14.811 18.6427L15.8582 18.4682L16.2073 18.0397L15.8582 16.0404L15.7789 13.5175L16.3025 10.0424L16.2867 8.05898L17.8734 5.52016L20.6503 3.52083L25.5058 1.44217L30.8849 2.21968L35.5817 5.59949L37.7556 9.07451L39.152 11.5975L39.501 17.8493L38.4538 23.2285L36.5497 28.0364L34.7249 30.5593" fill="white"/>
<path fill-rule="evenodd" clip-rule="evenodd" d="M30.4721 46.9663L18.0477 47.4899V49.5686L19.095 56.8677L18.5713 57.4707L9.89172 54.5193L9.28875 53.4721L8.41603 43.6658L6.41671 37.7631L5.98828 36.3667L12.9383 31.5906L15.1122 30.7178L17.0163 33.0662L18.6665 34.5419L20.5707 35.1449L21.4434 35.3988L22.4906 39.9211L23.2682 40.8731L25.2675 40.175L23.8711 42.8725L31.4241 46.4427L30.4721 46.9663Z" fill="#34343D"/>
<path fill-rule="evenodd" clip-rule="evenodd" d="M9.89181 16.6589L12.145 15.8814L13.9698 16.7541L14.8425 18.6582L15.8898 18.4837L16.1437 17.4364L15.62 15.4371L16.1437 10.6609L15.7152 8.05861L17.2861 6.23383L20.666 3.53633L19.7139 2.23518L14.9377 4.5836L12.9384 6.15449L11.8118 8.58224L10.0822 10.9307L9.55859 13.7075L9.89181 16.6589Z" fill="#34343D"/>
<path fill-rule="evenodd" clip-rule="evenodd" d="M13.4466 8.48757C13.4466 8.48757 14.7477 5.2823 19.9523 3.7114C25.1569 2.1405 20.2062 2.5848 20.2062 2.5848L14.5573 4.75867L12.3993 6.93254L11.4473 8.66211L13.4466 8.48757Z" fill="#C5C5CB"/>
<path fill-rule="evenodd" clip-rule="evenodd" d="M10.8441 16.0406C10.8441 16.0406 9.01934 9.96327 15.9694 9.09055L15.7155 8.04329L10.9393 9.16989L9.54297 13.6922L9.89206 16.6436L10.8441 16.0406Z" fill="#C5C5CB"/>
<path fill-rule="evenodd" clip-rule="evenodd" d="M13.6211 24.1171L14.7636 23.0222C14.7636 23.0222 15.2713 23.0857 15.3665 23.6886C15.4459 24.2916 15.7156 29.7659 19.4445 32.7173C19.7777 32.9871 16.6677 32.2889 16.6677 32.2889L13.8908 27.9412" fill="#DCDCE0"/>
<path fill-rule="evenodd" clip-rule="evenodd" d="M29.5995 22.4668C29.5995 22.4668 29.8058 19.8328 30.504 20.039C31.218 20.2453 31.218 20.9435 31.218 20.9435C31.218 20.9435 29.5043 22.0701 29.5995 22.4668Z" fill="#DCDCE0"/>
<path d="M36.8042 12.8352C36.8042 12.8352 35.3761 13.1367 35.2333 14.4061C35.1064 15.6597 36.8042 14.66 37.0581 14.5807" fill="#DCDCE0"/>
<path d="M26.2986 12.9144C26.2986 12.9144 24.3945 13.1683 24.3945 14.3901C24.3945 15.6119 26.5684 15.5167 27.1714 14.9931" fill="#DCDCE0"/>
<path fill-rule="evenodd" clip-rule="evenodd" d="M14.4946 18.5637C14.4946 18.5637 11.1941 16.5644 10.845 18.4844C10.4959 20.3885 9.71842 21.7849 11.3687 23.7842L10.2421 23.4351L9.19479 20.7376L8.8457 18.1353L10.845 16.0566L13.0982 16.2312L14.3994 17.2784L14.4946 18.5637Z" fill="#DCDCE0"/>
<path fill-rule="evenodd" clip-rule="evenodd" d="M16.0493 13.0889C16.0493 13.0889 17.525 5.44066 24.9987 3.96496C31.1394 2.74316 34.3764 4.21885 35.5983 5.6152C35.5983 5.6152 30.1239 -0.890539 24.9193 1.09292C19.7147 3.09224 15.8906 6.7418 15.97 9.07435C16.1128 13.0889 16.0493 13.0889 16.0493 13.0889Z" fill="#DCDCE0"/>
<path fill-rule="evenodd" clip-rule="evenodd" d="M36.2019 6.4883C36.2019 6.4883 33.6789 6.40897 33.5996 8.66217C33.5996 8.66217 33.5996 9.01126 33.7742 9.36035C33.7742 9.36035 35.7735 7.10714 36.9794 8.31309" fill="#DCDCE0"/>
<path fill-rule="evenodd" clip-rule="evenodd" d="M25.1733 9.59814C25.1733 9.59814 24.7449 6.13899 21.7776 8.15418C19.8735 9.45533 20.0481 11.2801 20.3813 11.6292C20.7304 11.9783 20.6352 12.6765 20.9049 12.2004C21.1747 11.7244 21.0795 10.1535 22.0315 9.72508C22.9994 9.28078 24.5703 8.78889 25.1733 9.59814Z" fill="#DCDCE0"/>
<path fill-rule="evenodd" clip-rule="evenodd" d="M17.0004 33.0662L8.84446 36.7158C8.84446 36.7158 12.2243 50.1715 10.4947 54.3447L9.27289 53.9163L9.19355 48.791L6.94034 39.0642L5.98828 36.3667L14.4933 30.6384L17.0004 33.0662Z" fill="#5A5A65"/>
<path fill-rule="evenodd" clip-rule="evenodd" d="M17.8422 40.5082L19.0006 41.9204V47.125H17.6042C17.6042 47.125 17.4297 43.4754 17.4297 43.047C17.4297 42.6186 17.6042 41.0477 17.6042 41.0477" fill="#5A5A65"/>
<path fill-rule="evenodd" clip-rule="evenodd" d="M17.8741 47.9158L13.9707 48.0906L15.0973 48.8696L17.8741 49.2988" fill="#5A5A65"/>
<path fill-rule="evenodd" clip-rule="evenodd" d="M31.25 47.0462L34.4553 46.9669L35.2328 54.9483L31.9482 55.3926L31.25 47.0462Z" fill="#34343D"/>
<path fill-rule="evenodd" clip-rule="evenodd" d="M32.123 47.0459L36.9786 46.792C36.9786 46.792 38.9779 41.762 38.9779 41.4922C38.9779 41.2225 40.7075 34.1931 40.7075 34.1931L36.804 30.1151L36.0265 29.4169L33.9478 31.4956V39.5881L32.123 47.0459Z" fill="#34343D"/>
<path fill-rule="evenodd" clip-rule="evenodd" d="M34.281 46.4426L31.2344 47.0456L31.6628 49.4733C32.7894 49.997 34.7094 48.6006 34.7094 48.6006" fill="#5A5A65"/>
<path fill-rule="evenodd" clip-rule="evenodd" d="M34.377 31.2414L40.4543 35.7637L40.6288 33.685L36.0272 29.4325L34.377 31.2414Z" fill="#5A5A65"/>
<path fill-rule="evenodd" clip-rule="evenodd" d="M20.8889 64.1517L19.0959 56.8526L18.2073 51.4734L18.0645 47.4748L26.2046 47.0464H31.2663L30.8062 56.1703L31.5837 63.1996L31.5044 64.5008L24.9034 65.0244L20.8889 64.1517Z" fill="white"/>
<path fill-rule="evenodd" clip-rule="evenodd" d="M30.124 46.9662C30.124 46.9662 29.6956 55.9949 30.9967 62.4213C30.9967 62.4213 28.3944 64.0716 24.5703 64.5L31.8694 64.2461L32.7422 63.7225L31.6949 49.4892L31.4251 46.4426" fill="#C5C5CB"/>
<path fill-rule="evenodd" clip-rule="evenodd" d="M35.3913 54.25L38.7711 53.2979L45.1975 52.9489L46.1495 49.9975L44.42 44.8722L42.4206 44.6183L39.6438 45.4911L36.978 46.7922L35.5658 46.5383L34.4551 46.9667" fill="white"/>
<path fill-rule="evenodd" clip-rule="evenodd" d="M35.3281 52.5199C35.3281 52.5199 37.5813 51.4727 37.9304 51.5679L36.9784 46.7917L38.105 46.3633C38.105 46.3633 38.8825 50.8856 38.8825 51.3933C38.8825 51.3933 43.738 51.6472 44.1823 51.6472C44.1823 51.6472 45.2295 49.6479 44.9598 47.5692L45.9119 50.3461L45.9912 51.917L44.5948 53.9956L43.0239 54.3447L40.4216 54.2654L39.5489 53.1388L36.5499 53.5672L35.5979 53.9163" fill="#C5C5CB"/>
<path d="M31.9171 46.3477L30.013 41.4922L28.0137 38.6201C28.0137 38.6201 28.4421 37.3983 29.0609 37.3983H31.0603L32.9644 38.0965L32.7898 41.3017L31.9171 46.3477Z" fill="white"/>
<path fill-rule="evenodd" clip-rule="evenodd" d="M32.2984 44.6976C32.2984 44.6976 29.8707 40.0008 29.8707 39.3185C29.8707 39.3185 30.2991 38.2712 30.9179 38.5409C31.5209 38.7948 32.822 39.493 32.822 39.493V37.8428L29.8548 37.2398L27.8555 37.4937L31.2511 45.491L31.9493 45.5703" fill="#C5C5CB"/>
<path d="M21.667 33.2412L19.2552 32.9873L17.002 32.2892V33.0667L18.1127 34.2885L21.5877 35.8594" fill="white"/>
<path fill-rule="evenodd" clip-rule="evenodd" d="M17.7951 33.4951C17.7951 33.4951 20.4926 34.6217 21.3495 34.3678L21.4288 35.415L19.0011 34.8914L17.5254 33.8441L17.7951 33.4951Z" fill="#C5C5CB"/>
<path fill-rule="evenodd" clip-rule="evenodd" d="M35.3766 37.7002C33.9009 37.6526 32.568 37.478 31.4096 37.1607C31.489 36.6847 31.3462 36.2086 31.4572 35.8754C31.7746 35.6374 32.33 35.6374 32.8219 35.5898C32.3934 35.3835 31.8063 35.3042 31.3144 35.4153C31.2986 35.082 31.1558 34.8758 31.0605 34.6219C31.8857 34.3204 33.8374 32.3845 34.9481 33.0351C35.4718 33.3366 35.6939 35.082 35.7415 35.9389C35.7732 36.6212 35.6622 37.3352 35.3766 37.7002Z" fill="#AEAEB7"/>
<path d="M35.3766 37.7002C33.9009 37.6526 32.568 37.478 31.4096 37.1607C31.489 36.6847 31.3462 36.2086 31.4572 35.8754C31.7746 35.6374 32.33 35.6374 32.8219 35.5898C32.3934 35.3835 31.8063 35.3042 31.3144 35.4153C31.2986 35.082 31.1558 34.8758 31.0605 34.6219C31.8857 34.3204 33.8374 32.3845 34.9481 33.0351C35.4718 33.3366 35.6939 35.082 35.7415 35.9389C35.7732 36.6212 35.6622 37.3352 35.3766 37.7002Z" stroke="#AEAEB7" stroke-width="3.125" stroke-miterlimit="5"/>
<path fill-rule="evenodd" clip-rule="evenodd" d="M28.3313 35.3036C28.3313 35.4147 28.3155 35.5258 28.3155 35.6369C27.8553 35.9383 27.1095 35.9383 26.6018 36.1922C27.3475 36.224 27.9346 36.3985 28.4424 36.6524C28.4265 36.938 28.4265 37.2078 28.4107 37.4934C27.5697 38.0646 26.7922 38.9373 25.8084 39.4768C25.3323 39.7307 23.698 40.3972 23.1902 40.2702C22.9046 40.2067 22.8887 39.8577 22.7618 39.5244C22.5238 38.8104 21.9684 37.6838 21.9208 36.6207C21.8573 35.2719 21.7304 33.0187 23.1743 33.3043C24.3485 33.5265 25.7132 34.066 26.6176 34.5579C27.173 34.8593 27.4903 35.2243 28.3313 35.3036Z" fill="#AEAEB7"/>
<path d="M28.3313 35.3036C28.3313 35.4147 28.3155 35.5258 28.3155 35.6369C27.8553 35.9383 27.1095 35.9383 26.6018 36.1922C27.3475 36.224 27.9346 36.3985 28.4424 36.6524C28.4265 36.938 28.4265 37.2078 28.4107 37.4934C27.5697 38.0646 26.7922 38.9373 25.8084 39.4768C25.3323 39.7307 23.698 40.3972 23.1902 40.2702C22.9046 40.2067 22.8887 39.8577 22.7618 39.5244C22.5238 38.8104 21.9684 37.6838 21.9208 36.6207C21.8573 35.2719 21.7304 33.0187 23.1743 33.3043C24.3485 33.5265 25.7132 34.066 26.6176 34.5579C27.173 34.8593 27.4903 35.2243 28.3313 35.3036Z" stroke="#AEAEB7" stroke-width="3.125" stroke-miterlimit="5"/>
<path fill-rule="evenodd" clip-rule="evenodd" d="M29.171 36.9067C29.044 36.1767 28.9012 35.9705 28.9488 35.3199C30.9006 34.0187 31.2814 37.5572 29.171 36.9067Z" fill="#AEAEB7"/>
<path d="M29.171 36.9067C29.044 36.1767 28.9012 35.9705 28.9488 35.3199C30.9006 34.0187 31.2814 37.5572 29.171 36.9067Z" stroke="#AEAEB7" stroke-width="3.125" stroke-miterlimit="5"/>
<path fill-rule="evenodd" clip-rule="evenodd" d="M32.0111 37.4932C32.0111 37.4932 31.4081 36.6204 31.8366 36.3666C32.265 36.1127 32.7093 36.3666 32.9632 35.9381C33.2171 35.5097 32.9632 35.24 33.0425 34.7163C33.1218 34.1927 33.5661 34.1134 33.9946 34.0181C34.423 33.9388 35.6448 33.7643 35.8194 34.1927L35.2957 32.6218L34.2485 32.2727L30.948 34.1768L30.7734 35.1289V37.033" fill="#83838E"/>
<path fill-rule="evenodd" clip-rule="evenodd" d="M22.8878 40.3652C22.7768 39.0165 22.6657 37.6519 22.5546 36.3031C22.3642 34.2879 23.0465 34.637 24.792 34.637C25.0617 34.637 26.4422 34.9544 26.5374 35.1606C27.0134 36.1286 25.744 35.9064 27.0769 36.6363C28.2035 37.2552 30.2028 36.2555 29.7427 34.8909C29.4888 34.5894 28.4098 34.7957 28.029 34.5894C27.3466 34.2403 26.6643 33.8912 25.9979 33.5421C25.141 33.0978 23.1417 32.4473 22.2214 33.0661C19.8888 34.6529 22.3642 38.6198 23.2052 40.27" fill="#83838E"/>
<path fill-rule="evenodd" clip-rule="evenodd" d="M25.173 9.59814C22.8087 9.04277 21.6345 10.5819 20.9204 12.1846C20.2857 12.0259 20.5396 11.1532 20.6983 10.7089C21.1267 9.55054 22.8245 7.99551 24.2209 8.20179C24.808 8.29699 25.6331 8.85236 25.173 9.59814Z" fill="black"/>
<path fill-rule="evenodd" clip-rule="evenodd" d="M36.7087 12.2956H36.8197C37.3592 13.4064 37.8194 14.5806 38.4858 15.5644C38.0416 16.6116 35.0584 17.5478 35.106 15.6596C35.7407 15.374 36.8515 15.5961 37.4227 15.247C37.1054 14.3426 36.6293 13.565 36.7087 12.2956Z" fill="black"/>
<path fill-rule="evenodd" clip-rule="evenodd" d="M26.3784 12.3276C26.8862 13.2638 27.0449 14.2317 27.7748 14.9458C28.0922 15.2631 28.7269 15.6439 28.4254 16.5325C28.346 16.7388 27.8224 17.199 27.5051 17.2942C26.3784 17.6274 23.7444 17.3576 24.633 15.9613C25.5692 16.0089 26.8227 16.5643 27.5209 15.8978C26.9814 15.0092 26.0294 13.3114 26.3784 12.3276Z" fill="black"/>
<path fill-rule="evenodd" clip-rule="evenodd" d="M36.28 21.7692C34.5821 22.864 32.6939 24.0382 29.9012 23.7685C29.3141 23.2448 29.0761 22.1024 29.6632 21.3407C29.9646 21.8644 29.7742 22.8006 30.6152 22.9434C32.1861 23.2131 34.0268 21.9754 35.1692 21.547C35.8674 20.3569 35.1058 19.9285 34.4711 19.1669C33.1699 17.596 31.4245 15.6601 31.4879 13.3117C32.0116 12.9309 32.0592 13.8988 32.1385 14.0733C32.8208 15.6601 34.5187 17.6912 35.7722 19.0558C36.0737 19.389 36.5815 19.7064 36.6449 19.9285C36.7877 20.5791 36.2165 21.3407 36.28 21.7692Z" fill="black"/>
<path fill-rule="evenodd" clip-rule="evenodd" d="M13.8906 20.6258C13.3511 20.3244 13.2241 18.9915 12.6053 18.9439C11.7167 18.8963 11.8754 20.6734 11.8754 21.7207C11.2565 21.1653 11.1455 19.4516 11.6056 18.563C11.0979 18.3092 10.8598 18.8487 10.5742 19.0232C10.955 16.3733 14.4777 17.8014 13.8906 20.6258Z" fill="black"/>
<path fill-rule="evenodd" clip-rule="evenodd" d="M37.359 22.8797C36.5656 24.3871 35.4548 26.0374 33.1382 26.085C33.0906 25.5931 33.0588 24.8632 33.1382 24.5617C34.9153 24.403 36.0102 23.4985 37.359 22.8797Z" fill="black"/>
<path fill-rule="evenodd" clip-rule="evenodd" d="M26.252 23.8632C27.7276 24.6407 30.4569 24.7201 32.4562 24.6725C32.5673 25.1168 32.5673 25.6563 32.5673 26.1958C29.9809 26.3068 26.9343 25.6721 26.252 23.8632Z" fill="black"/>
<path fill-rule="evenodd" clip-rule="evenodd" d="M25.9672 25.3072C26.9828 27.8778 30.5054 27.5763 33.4726 27.5128C33.3457 27.846 33.0601 28.2427 32.711 28.3855C31.7589 28.7664 29.1408 29.0678 27.8238 28.3697C26.9828 27.9254 26.4433 26.9257 25.999 26.3386C25.761 26.0371 24.6661 25.3072 25.9672 25.3072Z" fill="black"/>
<path fill-rule="evenodd" clip-rule="evenodd" d="M36.1535 39.4769C34.9475 41.5397 33.805 43.6501 32.377 45.459C32.9799 43.6977 33.2338 40.7622 33.3131 38.5248C34.5826 37.9377 35.6457 38.6518 36.1535 39.4769Z" fill="#5A5A65"/>
<path fill-rule="evenodd" clip-rule="evenodd" d="M42.6117 46.8684C41.263 47.1386 40.3268 48.4422 39.0098 48.3627C39.7397 47.3453 40.9932 46.9161 42.6117 46.8684Z" fill="black"/>
<path fill-rule="evenodd" clip-rule="evenodd" d="M43.2135 48.9657C42.1187 49.0769 40.8334 49.2518 39.7227 49.1723C40.2463 48.3616 42.2615 48.6477 43.2135 48.9657Z" fill="black"/>
<path fill-rule="evenodd" clip-rule="evenodd" d="M43.5953 50.7908C42.3577 50.8226 40.8344 50.7908 39.6602 50.6954C40.3425 49.9483 42.7861 50.4093 43.5953 50.7908Z" fill="black"/>
<path fill-rule="evenodd" clip-rule="evenodd" d="M33.8368 55.7412C34.0113 57.2804 34.6301 58.8513 34.5508 60.5491C33.8685 60.7713 33.4718 60.9775 32.5673 60.9775C32.5039 59.5336 32.3135 57.3438 32.3611 55.9634C32.8212 55.9951 33.4877 55.646 33.8368 55.7412Z" fill="#C5C5CB"/>
<path fill-rule="evenodd" clip-rule="evenodd" d="M31.8538 32.9527C31.235 33.3501 30.7113 33.8588 30.1084 34.2881C28.7913 34.3517 28.0773 34.1927 27.1094 33.4455C27.1252 33.3819 27.2204 33.4137 27.2204 33.3342C28.6485 33.9701 30.4257 33.0799 31.8538 32.9527Z" fill="white"/>
<path fill-rule="evenodd" clip-rule="evenodd" d="M24.459 42.5711C24.8398 40.8891 26.3631 40.0164 27.7436 39.0961C29.1717 40.905 30.0285 43.2216 30.9806 45.459C28.7274 44.7767 26.4266 43.6818 24.459 42.5711Z" fill="#5A5A65"/>
<path fill-rule="evenodd" clip-rule="evenodd" d="M32.3776 55.9635C32.3141 57.3281 32.5204 59.5337 32.5839 60.9777C33.4883 60.9777 33.885 60.7714 34.5673 60.5493C34.6467 58.8514 34.0278 57.2964 33.8533 55.7414C33.4883 55.6462 32.8219 55.9953 32.3776 55.9635ZM18.176 48.1725C18.779 53.6944 19.6517 58.3437 21.2385 63.2468C24.777 64.3258 29.0612 64.421 32.1872 63.4531C31.6159 60.6921 31.8698 57.3281 31.5207 54.3768C31.2669 52.1553 31.3938 49.9338 31.0447 47.6647C27.2682 46.8714 21.8891 47.4743 18.176 48.1725ZM31.965 47.6965C31.9333 50.0766 32.0761 52.4092 32.2506 54.7893C33.1551 54.6465 33.7739 54.5672 34.6308 54.3768C34.361 52.0918 34.3928 49.5054 33.8215 47.4902C33.171 47.4902 32.5997 47.4743 31.965 47.6965ZM36.5825 47.3156C36.1541 47.2204 35.6463 47.3156 35.2338 47.3156C35.4242 49.2515 35.9002 51.3936 36.0589 53.4247C36.7095 53.4406 37.0585 53.1391 37.598 53.028C37.6298 51.235 37.4394 48.7913 36.5825 47.3156ZM43.596 53.7103C44.9448 53.3771 45.8016 51.7269 45.4208 50.0131C45.1669 48.8707 44.7068 46.7127 44.2307 45.9828C43.8658 45.4433 42.8978 44.7292 42.1203 45.2211C40.8509 46.0304 38.6294 46.2684 37.7091 47.2363C38.1693 48.7755 38.3121 50.8859 38.5025 52.8376C40.0734 52.9328 42.0251 52.4092 43.3263 52.9645C42.4059 53.266 41.2159 53.266 40.4384 53.6944C41.0889 54.0118 42.5964 53.9483 43.596 53.7103ZM30.9812 45.4591C30.0292 43.2218 29.1565 40.9051 27.7442 39.0962C26.3637 40.0165 24.8563 40.8892 24.4596 42.5712C26.4272 43.682 28.728 44.7768 30.9812 45.4591ZM33.3296 38.525C33.2344 40.7623 32.9806 43.6978 32.3935 45.4591C33.8215 43.6502 34.964 41.5398 36.17 39.477C35.6463 38.6519 34.5832 37.9379 33.3296 38.525ZM30.6639 37.5729C30.1244 37.5094 29.6642 38.1917 28.966 37.9061C28.8074 38.0807 28.6646 38.2711 28.49 38.4456C30.045 40.318 30.7432 42.9679 31.9492 45.1576C32.5839 43.0472 32.5204 40.7464 32.6632 38.4456C31.7746 38.4932 31.2827 37.6522 30.6639 37.5729ZM28.9502 35.3197C28.8867 35.9544 29.0454 36.1607 29.1723 36.9065C31.2827 37.557 30.9019 34.0186 28.9502 35.3197ZM26.6176 34.5581C25.7132 34.0662 24.3486 33.5267 23.1743 33.3045C21.7304 33.0348 21.8573 35.288 21.9208 36.6208C21.9684 37.684 22.5238 38.8106 22.7618 39.5246C22.8729 39.8578 22.9046 40.2069 23.1902 40.2704C23.6821 40.3815 25.3323 39.7309 25.8084 39.477C26.808 38.9375 27.5697 38.0807 28.4107 37.4936C28.4265 37.208 28.4265 36.9382 28.4424 36.6526C27.9346 36.3987 27.3475 36.2242 26.6018 36.1924C27.1095 35.9385 27.8553 35.9385 28.3155 35.6371C28.3155 35.526 28.3313 35.4149 28.3313 35.3038C27.4903 35.2245 27.173 34.8595 26.6176 34.5581ZM17.9698 32.9872C17.224 33.7488 20.0802 34.7961 20.9846 34.8437C20.9846 34.3676 21.2544 33.9075 21.2068 33.5584C20.1278 33.368 18.6997 33.4949 17.9698 32.9872ZM27.2365 33.3362C27.2365 33.4156 27.1413 33.3838 27.1254 33.4473C28.0933 34.209 28.8074 34.3518 30.1244 34.2883C30.7115 33.8599 31.251 33.3521 31.8698 32.9554C30.4259 33.0824 28.6487 33.9709 27.2365 33.3362ZM35.7257 35.9227C35.6781 35.0817 35.4559 33.3362 34.9323 33.0189C33.8374 32.3842 31.8698 34.32 31.0447 34.6057C31.1399 34.8595 31.2827 35.0658 31.2986 35.399C31.7905 35.2721 32.3776 35.3673 32.806 35.5736C32.3141 35.6212 31.7746 35.6212 31.4414 35.8592C31.3145 36.2083 31.4731 36.6684 31.3938 37.1445C32.5521 37.4777 33.885 37.6522 35.3607 37.684C35.6622 37.3349 35.7733 36.6208 35.7257 35.9227ZM16.7003 33.7171C16.4623 33.5425 14.8597 31.4639 14.6534 31.5591C11.7655 32.7015 9.068 34.6691 6.64025 36.5256C8.94106 41.4605 9.87725 47.5219 10.0359 53.3454C12.67 54.583 14.9866 56.3602 18.5727 56.5506C18.1602 53.6151 17.7793 51.0128 17.5413 48.2518C16.6369 47.871 15.3516 48.2677 14.5106 48.1408C14.5106 47.1252 15.7959 47.6965 15.907 47.0142C15.9863 46.4905 15.1929 46.4588 15.4468 45.6495C16.0974 45.8876 16.4465 46.4112 17.1446 46.6175C17.7793 45.2211 17.1288 42.7299 17.224 41.5557C17.2398 41.3335 17.335 40.3339 17.8269 40.5084C18.2712 40.6671 17.7952 43.1583 17.8428 44.2691C17.8904 45.2846 17.7159 46.2843 18.1284 46.919C21.5876 46.4429 25.0943 46.1414 28.8391 46.0462C28.014 45.6971 27.0302 45.3639 25.9671 44.761C25.38 44.4277 23.5552 43.7454 23.3806 43.2059C23.1109 42.3332 24.0788 41.8572 24.2533 41.0955C22.5079 42.0476 22.1747 40.1752 21.7463 38.8582C21.3654 37.6681 21.1592 36.7637 21.0639 36.0813C19.6041 35.3673 18.0015 34.6374 16.7003 33.7171ZM34.2024 31.8129C36.6143 30.6387 37.0427 36.1766 36.1065 37.9537C36.2493 38.4774 36.7571 38.6836 36.9633 39.1597C35.6146 41.5716 34.123 43.8089 32.7584 46.189C33.7739 45.5543 35.2338 46.078 36.4397 45.6019C36.884 45.4274 37.2014 44.4277 37.5346 43.6185C38.4549 41.4129 39.407 38.6202 39.8354 36.5098C39.9306 36.0337 40.2003 34.9865 40.1369 34.5581C40.0258 33.7964 38.9944 33.2252 38.4708 32.7491C37.5028 31.8764 36.884 31.0989 35.8685 30.2897C35.4242 30.9085 34.5356 31.321 34.2024 31.8129ZM11.1943 10.4551C10.0518 11.7245 10.2898 14.0888 10.4326 15.7707C12.5113 14.4696 15.2564 15.8818 15.2405 18.0874C16.2243 18.0557 15.6055 16.8498 15.4309 16.0722C14.8438 13.5175 16.4147 10.7566 15.4944 8.42402C13.7172 8.56683 12.2574 9.29674 11.1943 10.4551ZM19.4137 3.14009C16.8114 3.87001 13.4951 5.75826 12.4161 8.0908C13.2412 7.96386 13.8124 7.5513 14.6375 7.5037C14.939 7.48783 15.3516 7.63064 15.7007 7.5513C16.3989 7.37675 17.0018 5.78999 17.5413 5.20289C18.065 4.63165 18.6838 4.37777 19.1122 3.85414C19.382 3.7272 19.7945 3.72719 19.8104 3.31463C19.6676 3.18769 19.5565 3.09249 19.4137 3.14009ZM32.933 3.8224C30.2355 2.29911 25.6656 1.15664 22.8094 2.58472C20.4927 3.74306 17.3668 5.64718 16.3036 8.05907C17.3033 10.3916 16.0022 12.5337 15.9228 14.898C15.8752 16.1516 16.5099 17.2623 16.5575 18.6269C16.2243 19.1823 15.177 19.2616 14.4471 19.214C14.2091 17.9922 13.7807 16.6276 12.5271 16.5007C10.75 16.3102 9.46469 17.7701 9.38535 19.3092C9.29015 21.1023 10.7658 24.0854 12.8604 23.8791C13.6696 23.7998 13.8759 22.9905 14.7486 22.9905C15.2247 23.9426 14.0187 24.2441 13.8918 24.9264C13.86 25.1009 13.987 25.7832 14.0663 26.1165C14.4471 27.6874 15.2881 29.7184 16.1291 30.9244C17.1922 32.4477 19.2709 32.6698 21.5082 32.8126C21.9049 31.9558 23.3806 32.0192 24.3486 32.2414C23.1902 31.7812 22.1271 30.6863 21.2385 29.7025C20.223 28.5759 19.1916 27.37 19.144 25.9102C21.0639 28.5759 22.6507 30.9085 26.1575 32.0827C28.8074 32.9713 31.9016 31.6701 33.9326 30.2421C34.7736 29.6549 35.2814 28.7029 35.8843 27.846C38.1217 24.6249 39.1689 20.0074 38.9468 15.5486C38.8516 13.708 38.8516 11.8673 38.2328 10.6296C37.5822 9.32848 35.4083 8.17014 34.123 9.34435C33.885 8.0908 35.1862 7.29742 36.7095 7.75758C35.6146 6.39296 34.4721 4.69512 32.933 3.8224ZM37.9471 45.3957C40.0575 44.3484 43.9927 42.5712 45.3097 45.3957C45.8016 46.4429 46.3729 48.1884 46.6267 49.2674C46.9758 50.7748 46.2459 53.9642 44.675 54.472C43.2945 54.9163 41.6919 54.9004 40.0417 54.5672C39.8513 54.4085 39.6291 54.1229 39.4704 53.8214C38.2804 53.7738 37.1855 53.8849 36.2493 54.3768C36.3445 55.2495 35.7415 55.3923 35.1862 55.5668C34.7736 57.2012 36.0113 59.3275 35.7098 60.819C35.5035 61.8822 34.2024 62.0408 33.2344 62.2471C33.2027 62.8342 33.282 63.3261 33.3455 63.818C33.1234 64.6273 32.1396 65.0874 31.2192 65.1985C28.1568 65.5635 23.5076 65.738 20.5562 64.6749C19.7311 62.6597 19.0805 60.2002 18.3982 57.8994C15.5261 58.2009 13.1936 56.6617 11.0039 55.6462C10.2422 55.2971 9.19494 55.1067 8.90932 54.5037C8.63957 53.9166 8.75065 52.8059 8.67131 51.7427C8.49676 49.0452 8.35396 46.4271 7.63991 43.6661C7.32256 42.4284 6.76719 41.3335 6.3705 40.1276C6.00554 39.0169 5.3867 37.6522 5.21216 36.5415C4.97414 34.9071 6.51331 34.8119 7.4971 34.0979C9.0204 33.003 10.2263 32.3842 11.8766 31.4004C12.3685 31.0989 13.8442 30.369 14.0028 30.0199C14.3361 29.3376 13.4316 28.3855 13.1936 27.846C12.8128 27.005 12.6065 26.291 12.5589 25.4659C11.1784 25.2437 10.1153 24.4186 9.48056 23.4983C8.43329 21.9591 7.70338 19.103 8.60784 16.945C8.67131 16.7704 9.03626 16.4372 9.08387 16.1833C9.19494 15.6597 8.89345 14.9774 8.87759 14.4379C8.78238 11.6293 9.35362 9.20154 11.2577 8.34468C12.0353 5.28223 14.7804 4.2667 17.3827 2.7434C18.3506 2.17216 19.4296 1.80721 20.5244 1.41051C24.4914 -0.0493088 30.5687 0.220444 33.8533 2.71167C35.2496 3.75893 37.4711 5.99627 38.2804 7.5989C40.3908 11.8514 40.2321 18.9601 38.7564 24.1489C38.566 24.847 38.2645 25.8626 37.8678 26.7036C37.5822 27.2907 36.7253 28.449 36.8205 28.9726C36.9316 29.5121 38.804 30.9244 39.2007 31.321C39.9306 32.0192 41.2952 32.9395 41.4063 33.8281C41.5332 34.7643 40.9937 36.0496 40.724 36.9541C39.8513 39.9213 38.9785 42.6982 37.9471 45.3957Z" fill="black"/>
<path fill-rule="evenodd" clip-rule="evenodd" d="M23.8886 24.5141C23.9997 24.3554 24.6344 24.1333 25.5071 24.5617C25.5071 24.5617 24.4599 24.7362 24.5551 26.4658L24.1266 26.3865C24.1266 26.3865 23.6823 24.7997 23.8886 24.5141Z" fill="#DCDCE0"/>
<path fill-rule="evenodd" clip-rule="evenodd" d="M31.5048 39.444C31.5048 39.7142 31.2985 39.9209 31.0288 39.9209C30.759 39.9209 30.5527 39.7142 30.5527 39.444C30.5527 39.1737 30.759 38.9671 31.0288 38.9671C31.2985 38.9671 31.5048 39.1896 31.5048 39.444Z" fill="black"/>
<path fill-rule="evenodd" clip-rule="evenodd" d="M31.9794 41.6657C31.9794 41.9359 31.7731 42.1426 31.5034 42.1426C31.2336 42.1426 31.0273 41.9359 31.0273 41.6657C31.0273 41.3954 31.2336 41.1887 31.5034 41.1887C31.7731 41.1887 31.9794 41.3954 31.9794 41.6657Z" fill="black"/>
</g>
<defs>
<clipPath id="clip0_3251_6722">
<rect width="47" height="64.9596" fill="white" transform="translate(0.324219 0.520508)"/>
</clipPath>
</defs>
</svg>
