<svg width="63" height="48" viewBox="0 0 63 48" fill="none" xmlns="http://www.w3.org/2000/svg">
<g clip-path="url(#clip0_3251_8248)">
<path d="M18.097 18.9499C18.097 19.7095 18.1791 20.3254 18.3228 20.7771C18.487 21.2287 18.6923 21.7214 18.9797 22.2552C19.0824 22.4194 19.1234 22.5837 19.1234 22.7274C19.1234 22.9327 19.0003 23.138 18.7334 23.3433L17.44 24.2055C17.2552 24.3287 17.0705 24.3903 16.9062 24.3903C16.7009 24.3903 16.4956 24.2877 16.2903 24.1029C16.0029 23.7949 15.7566 23.4665 15.5513 23.138C15.346 22.789 15.1407 22.3989 14.9148 21.9267C13.3135 23.8155 11.3016 24.7598 8.87907 24.7598C7.15457 24.7598 5.77907 24.2671 4.77311 23.2817C3.76715 22.2963 3.25391 20.9824 3.25391 19.34C3.25391 17.5949 3.8698 16.1784 5.12212 15.1108C6.37444 14.0433 8.03735 13.5095 10.1519 13.5095C10.8499 13.5095 11.5685 13.5711 12.3281 13.6737C13.0877 13.7764 13.8678 13.9406 14.689 14.1254V12.6267C14.689 11.0665 14.3605 9.97838 13.7241 9.34196C13.0672 8.70554 11.9585 8.39759 10.3777 8.39759C9.6592 8.39759 8.92013 8.47971 8.16053 8.66448C7.40093 8.84924 6.66185 9.07507 5.94331 9.36249C5.61483 9.5062 5.36848 9.58832 5.22477 9.62938C5.08106 9.67044 4.97841 9.69097 4.89629 9.69097C4.60887 9.69097 4.46516 9.48567 4.46516 9.05454V8.04858C4.46516 7.7201 4.50622 7.47375 4.60887 7.33004C4.71152 7.18633 4.89629 7.04262 5.18371 6.89891C5.90225 6.52938 6.7645 6.22143 7.77046 5.97507C8.77642 5.70818 9.84397 5.585 10.9731 5.585C13.4162 5.585 15.2023 6.13931 16.3519 7.24792C17.4811 8.35653 18.0559 10.04 18.0559 12.2983V18.9499H18.097ZM9.76185 22.0704C10.4393 22.0704 11.1374 21.9473 11.8764 21.7009C12.6155 21.4545 13.2725 21.0029 13.8268 20.387C14.1552 19.9969 14.4016 19.5658 14.5248 19.0731C14.6479 18.5804 14.7301 17.985 14.7301 17.287V16.4247C14.1347 16.281 13.4983 16.1579 12.8413 16.0757C12.1844 15.9936 11.5479 15.9526 10.9115 15.9526C9.53603 15.9526 8.53007 16.2194 7.85258 16.7737C7.1751 17.3281 6.84662 18.1082 6.84662 19.1347C6.84662 20.0996 7.09298 20.8181 7.60622 21.3108C8.09894 21.8241 8.81748 22.0704 9.76185 22.0704ZM26.2473 24.2877C25.8778 24.2877 25.6314 24.2261 25.4672 24.0824C25.3029 23.9592 25.1592 23.6718 25.036 23.2817L20.2115 7.41216C20.0883 7.00156 20.0268 6.73467 20.0268 6.59097C20.0268 6.26249 20.191 6.07772 20.5195 6.07772H22.5314C22.9215 6.07772 23.1883 6.13931 23.3321 6.28302C23.4963 6.4062 23.6195 6.69361 23.7427 7.08368L27.1917 20.6744L30.3943 7.08368C30.497 6.67308 30.6201 6.4062 30.7844 6.28302C30.9486 6.15984 31.236 6.07772 31.6056 6.07772H33.2479C33.638 6.07772 33.9049 6.13931 34.0691 6.28302C34.2334 6.4062 34.3771 6.69361 34.4592 7.08368L37.7029 20.8386L41.2546 7.08368C41.3778 6.67308 41.5215 6.4062 41.6652 6.28302C41.8294 6.15984 42.0963 6.07772 42.4658 6.07772H44.3751C44.7036 6.07772 44.8883 6.24196 44.8883 6.59097C44.8883 6.69361 44.8678 6.79626 44.8473 6.91944C44.8268 7.04262 44.7857 7.20686 44.7036 7.43269L39.7559 23.3022C39.6327 23.7128 39.489 23.9797 39.3248 24.1029C39.1605 24.2261 38.8936 24.3082 38.5446 24.3082H36.7791C36.389 24.3082 36.1221 24.2466 35.9579 24.1029C35.7936 23.9592 35.6499 23.6923 35.5678 23.2817L32.3857 10.04L29.2241 23.2612C29.1215 23.6718 28.9983 23.9387 28.834 24.0824C28.6698 24.2261 28.3824 24.2877 28.0128 24.2877H26.2473ZM52.6281 24.842C51.5605 24.842 50.493 24.7188 49.4665 24.4724C48.44 24.2261 47.6393 23.9592 47.1056 23.6512C46.7771 23.4665 46.5513 23.2612 46.4691 23.0764C46.387 22.8916 46.346 22.6863 46.346 22.5016V21.4545C46.346 21.0234 46.5102 20.8181 46.8181 20.8181C46.9413 20.8181 47.0645 20.8386 47.1877 20.8797C47.3109 20.9208 47.4956 21.0029 47.7009 21.085C48.3989 21.393 49.1585 21.6393 49.9592 21.8036C50.7804 21.9678 51.5811 22.0499 52.4023 22.0499C53.6956 22.0499 54.7016 21.8241 55.3996 21.3724C56.0976 20.9208 56.4672 20.2638 56.4672 19.4221C56.4672 18.8473 56.2824 18.3751 55.9129 17.985C55.5433 17.5949 54.8453 17.2459 53.8393 16.9175L50.8625 15.9936C49.3638 15.5214 48.2552 14.8234 47.5778 13.8996C46.9003 12.9963 46.5513 11.9903 46.5513 10.9228C46.5513 10.0605 46.736 9.3009 47.1056 8.64395C47.4751 7.98699 47.9678 7.41216 48.5837 6.9605C49.1996 6.48832 49.8976 6.13931 50.7188 5.89295C51.54 5.64659 52.4023 5.54395 53.3056 5.54395C53.7572 5.54395 54.2294 5.56448 54.6811 5.62606C55.1533 5.68765 55.5844 5.76977 56.0155 5.85189C56.4261 5.95454 56.8162 6.05719 57.1857 6.18037C57.5552 6.30355 57.8427 6.42673 58.048 6.54991C58.3354 6.71414 58.5407 6.87838 58.6638 7.06315C58.787 7.22739 58.8486 7.45322 58.8486 7.74063V8.70553C58.8486 9.13666 58.6844 9.36249 58.3764 9.36249C58.2122 9.36249 57.9453 9.28037 57.5963 9.11613C56.4261 8.58236 55.1122 8.31547 53.6546 8.31547C52.4844 8.31547 51.5605 8.50024 50.9241 8.8903C50.2877 9.28037 49.9592 9.87573 49.9592 10.7175C49.9592 11.2923 50.1645 11.785 50.5751 12.1751C50.9857 12.5651 51.7453 12.9552 52.8334 13.3042L55.7486 14.2281C57.2268 14.7002 58.2943 15.3572 58.9307 16.1989C59.5672 17.0406 59.8751 18.0055 59.8751 19.0731C59.8751 19.9559 59.6903 20.7565 59.3413 21.4545C58.9718 22.1526 58.4791 22.7685 57.8427 23.2612C57.2062 23.7744 56.4466 24.1439 55.5638 24.4108C54.64 24.6983 53.6751 24.842 52.6281 24.842Z" fill="black"/>
<path d="M56.5077 34.8198C49.7534 39.8086 39.9402 42.4569 31.5024 42.4569C19.6773 42.4569 9.02231 38.0841 0.974632 30.8165C0.338208 30.2417 0.913043 29.4616 1.67265 29.9132C10.3773 34.9635 21.1144 38.0225 32.221 38.0225C39.7144 38.0225 47.9468 36.4622 55.5223 33.2596C56.6515 32.7463 57.6164 33.9986 56.5077 34.8198Z" fill="#83838E"/>
<path d="M59.3204 31.6172C58.4581 30.5086 53.6131 31.0834 51.4164 31.3503C50.7595 31.4324 50.6568 30.8576 51.2522 30.4264C55.1118 27.7165 61.4555 28.4966 62.1946 29.4C62.9336 30.3238 61.9893 36.6675 58.376 39.7059C57.8217 40.1781 57.2879 39.9317 57.5343 39.3158C58.3555 37.2834 60.1827 32.7053 59.3204 31.6172Z" fill="#83838E"/>
</g>
<defs>
<clipPath id="clip0_3251_8248">
<rect width="62" height="36.9536" fill="white" transform="translate(0.564453 5.52344)"/>
</clipPath>
</defs>
</svg>
