<svg width="96" height="48" viewBox="0 0 96 48" fill="none" xmlns="http://www.w3.org/2000/svg">
<path d="M71.9719 15.1417C74.1859 15.1417 76.2321 15.3763 78.7143 15.8794L76.9455 19.6054C75.5702 19.3371 76.8354 19.5695 75.7961 19.4688V20.0057L75.8629 22.1856L75.8963 25.0034C75.9298 25.7075 75.9298 26.4121 75.9636 27.1164V28.5253C75.9636 32.953 75.5946 35.0325 74.4878 36.7431C72.8776 39.259 70.0936 40.5 66.1357 40.5C64.123 40.5 62.3792 40.1981 60.5676 39.4936V34.7307H60.5678C62.3794 35.6698 64.1905 36.1056 66.1023 36.1056C69.4899 36.1056 70.9323 34.7307 70.9323 31.4433V31.3427C69.9261 31.8456 68.9197 32.047 67.5783 32.047C63.05 32.047 60.1649 29.0617 60.1649 24.3324C60.1649 18.462 64.4251 15.1417 71.9719 15.1417ZM25.117 15.4771V27.4516C25.117 31.5775 24.8151 33.5563 23.9095 35.2671C23.0708 36.911 21.9638 37.9505 19.6831 39.0911L14.8864 36.8102C17.1673 35.7369 18.2742 34.798 18.9785 33.3551C19.7166 31.8793 19.9516 30.1686 19.9516 25.674V15.4771H25.117ZM86.7334 15.0411C91.8988 15.0411 95.052 18.2949 95.052 23.5609C95.052 28.9616 91.7651 32.3493 86.5322 32.3493C81.3663 32.3493 78.1798 29.0955 78.1798 23.863C78.18 18.4287 81.4674 15.0411 86.7334 15.0411ZM35.0799 15.1084C37.7298 15.1084 39.4739 15.8125 40.2455 17.1879C40.6813 17.9593 40.8155 18.9655 40.8155 21.1125V31.611C38.5008 31.9464 35.5828 32.1814 33.4362 32.1814C29.1093 32.1814 27.1636 30.6714 27.1636 27.3174C27.1636 23.6947 29.7464 22.0177 36.0861 21.4808V20.3404C36.0861 19.4013 35.6166 19.0661 34.3083 19.0661C32.3965 19.0661 30.2497 19.6028 28.2369 20.6427V16.651H28.2371C30.5182 15.578 32.6983 15.1084 35.0799 15.1084ZM16.8994 7.5V31.41C14.2496 31.9131 12.304 32.1143 10.191 32.1143C3.8848 32.1143 0.597656 29.2634 0.597656 23.7957C0.597656 18.5295 4.08626 15.1084 9.48643 15.1084C10.3249 15.1084 10.9622 15.1753 11.7338 15.3765V7.5H16.8994ZM51.4486 15.1084C54.0984 15.1084 56.0104 15.7119 57.1512 16.886C58.2245 17.9926 58.5597 19.2001 58.5597 21.7833V31.9129H53.3941V21.9846C53.3941 20.0057 52.7233 19.2674 50.8786 19.2674C50.1743 19.2674 49.537 19.3345 48.4968 19.6363V31.9129H43.3314V16.2821C46.3836 15.4771 48.8993 15.1084 51.4486 15.1084ZM36.3209 24.869C32.8994 25.2044 31.7925 25.7413 31.7925 27.0829C31.7925 28.0891 32.43 28.5586 33.8387 28.5586C34.6103 28.5586 35.3145 28.4918 36.3209 28.3241V24.869ZM86.6665 19.2003C84.6201 19.2003 83.4458 20.8442 83.4458 23.6949C83.446 26.5462 84.6201 28.1897 86.6323 28.1897C88.6116 28.1897 89.7858 26.546 89.7858 23.6949C89.7858 20.8775 88.6452 19.2003 86.6665 19.2003ZM9.98975 19.2674C7.37341 19.2674 5.86388 20.8775 5.86388 23.6949C5.86388 26.4456 7.30632 27.9549 9.95621 27.9549C10.5262 27.9549 10.996 27.9214 11.7338 27.821V19.5355C11.1301 19.3345 10.627 19.2674 9.98975 19.2674ZM67.31 20.0386C66.0692 20.7431 65.4315 22.0179 65.4315 23.8291C65.4315 26.4121 66.7065 27.8878 68.9872 27.8878C69.6916 27.8878 70.262 27.7535 70.9325 27.5524V25.7748C70.9325 25.1711 70.8992 24.4999 70.8992 23.7957L70.8659 21.4144L70.8321 19.7036V19.3009H70.2953C69.2893 19.2674 68.1154 19.5355 67.31 20.0386ZM25.117 7.52748V12.8272H19.9516V7.52748H25.117Z" fill="black"/>
</svg>
