<svg width="47" height="56" viewBox="0 0 47 56" fill="none" xmlns="http://www.w3.org/2000/svg">
<g clip-path="url(#clip0_3251_6604)">
<path fill-rule="evenodd" clip-rule="evenodd" d="M23.6947 55.13L8.03361 50.6899L4.42188 11.5034H42.9683L39.3506 50.6899L23.6947 55.13ZM35.8186 19.5044H11.5648L12.9213 34.1768L12.951 34.0853H29.5218L28.9809 40.2914L23.6947 41.8149L18.3279 40.2685L18.0057 36.5126H13.135L13.8302 44.0243L23.6947 46.8196L33.5591 44.0184L34.9156 29.2883H17.3334L16.8798 24.3751H35.3709L35.8203 19.5035L35.8186 19.5044ZM35.9513 5.72379V0.869141H33.4955V8.18588H39.3794V5.72379H35.9513ZM16.2223 3.33123H18.3631V8.18588H20.8303V3.33123H22.9702V0.869141H16.23V3.33123H16.2232H16.2223ZM32.2429 0.869141V8.18588H29.8626V4.45884L28.1245 7.16849L28.1173 7.17357L28.1114 7.16764L26.4158 4.5309V8.18503H24.0338V0.869141H26.5879L28.1106 3.37023L29.6379 0.869141H32.2429ZM12.692 3.29647H10.4665V0.869141H8.00564V8.18588H10.4665V5.75855H12.6928V8.18588H15.1481V0.869141H12.6895V3.29647H12.6911H12.692Z" fill="black"/>
</g>
<defs>
<clipPath id="clip0_3251_6604">
<rect width="39" height="54.2609" fill="white" transform="translate(4.19531 0.869141)"/>
</clipPath>
</defs>
</svg>
