<svg width="103" height="48" viewBox="0 0 103 48" fill="none" xmlns="http://www.w3.org/2000/svg">
<g clip-path="url(#clip0_3251_2340)">
<path d="M38.8415 17.1191H33.1991C33.0123 17.119 32.8316 17.1856 32.6896 17.3069C32.5475 17.4282 32.4535 17.5963 32.4244 17.7808L30.1424 32.2494C30.1319 32.3165 30.1361 32.3851 30.1546 32.4505C30.1732 32.5159 30.2057 32.5764 30.2499 32.628C30.2942 32.6796 30.349 32.721 30.4108 32.7494C30.4726 32.7777 30.5397 32.7923 30.6077 32.7922H33.3014C33.4883 32.7923 33.6691 32.7256 33.8112 32.6041C33.9532 32.4827 34.0472 32.3144 34.0761 32.1297L34.6916 28.2273C34.7205 28.0428 34.8143 27.8747 34.9562 27.7532C35.0981 27.6318 35.2787 27.565 35.4655 27.5648H37.2516C40.9684 27.5648 43.1135 25.7663 43.6737 22.2022C43.9261 20.6428 43.6844 19.4177 42.9543 18.5596C42.1523 17.6175 40.73 17.1191 38.8415 17.1191ZM39.4924 22.4035C39.1839 24.4281 37.6369 24.4281 36.1412 24.4281H35.2897L35.887 20.647C35.9045 20.5363 35.9609 20.4356 36.0461 20.3629C36.1312 20.2901 36.2395 20.2501 36.3515 20.2501H36.7418C37.7607 20.2501 38.7218 20.2501 39.2185 20.831C39.5147 21.1775 39.6055 21.6923 39.4924 22.4035ZM55.7076 22.3383H53.0056C52.8936 22.3383 52.7853 22.3783 52.7001 22.451C52.615 22.5238 52.5586 22.6245 52.5411 22.7351L52.4215 23.4908L52.2325 23.2169C51.6476 22.368 50.3432 22.0842 49.0413 22.0842C46.0555 22.0842 43.5054 24.3456 43.0087 27.5178C42.7505 29.1002 43.1176 30.6133 44.0152 31.6686C44.8386 32.6388 46.0168 33.043 47.4185 33.043C49.8243 33.043 51.1584 31.4961 51.1584 31.4961L51.0379 32.2469C51.0272 32.314 51.0311 32.3827 51.0495 32.4481C51.0678 32.5136 51.1001 32.5743 51.1442 32.626C51.1883 32.6778 51.2431 32.7194 51.3048 32.7479C51.3664 32.7765 51.4336 32.7913 51.5016 32.7914H53.9354C54.1223 32.7915 54.3031 32.7248 54.4452 32.6033C54.5872 32.4818 54.6812 32.3136 54.7101 32.1289L56.1704 22.8812C56.1812 22.8142 56.1772 22.7457 56.1589 22.6804C56.1406 22.615 56.1083 22.5545 56.0643 22.5029C56.0203 22.4512 55.9656 22.4098 55.904 22.3814C55.8424 22.353 55.7754 22.3383 55.7076 22.3383ZM51.9413 27.597C51.6806 29.1407 50.4554 30.1769 48.8928 30.1769C48.1082 30.1769 47.4812 29.9253 47.0786 29.4484C46.6793 28.9748 46.5275 28.3008 46.6545 27.55C46.8979 26.0196 48.1437 24.9495 49.6824 24.9495C50.4497 24.9495 51.0734 25.2044 51.4842 25.6854C51.8959 26.1714 52.0593 26.8495 51.9413 27.597ZM70.0977 22.3383H67.3826C67.2545 22.3385 67.1285 22.3699 67.0153 22.4299C66.9022 22.4898 66.8053 22.5765 66.7333 22.6823L62.9885 28.1985L61.4011 22.8977C61.3524 22.736 61.2529 22.5943 61.1174 22.4935C60.9819 22.3928 60.8175 22.3384 60.6487 22.3383H57.9805C57.9056 22.3381 57.8318 22.3558 57.7651 22.3899C57.6984 22.424 57.6409 22.4735 57.5972 22.5344C57.5535 22.5952 57.525 22.6657 57.5141 22.7397C57.5031 22.8138 57.51 22.8895 57.5342 22.9604L60.5249 31.737L57.7132 35.7062C57.6632 35.7766 57.6336 35.8594 57.6275 35.9455C57.6215 36.0316 57.6392 36.1177 57.6789 36.1944C57.7185 36.2711 57.7784 36.3353 57.8522 36.3802C57.9259 36.4251 58.0105 36.4488 58.0969 36.4488H60.8087C60.9353 36.4489 61.0601 36.4184 61.1723 36.3598C61.2846 36.3012 61.3809 36.2162 61.4531 36.1122L70.4839 23.0767C70.5328 23.0062 70.5615 22.9236 70.5669 22.8379C70.5722 22.7522 70.554 22.6667 70.5143 22.5906C70.4745 22.5146 70.4146 22.4508 70.3412 22.4063C70.2678 22.3619 70.1836 22.3383 70.0977 22.3383Z" fill="black"/>
<path d="M79.0877 17.119H73.4445C73.2579 17.1191 73.0774 17.1858 72.9355 17.3071C72.7936 17.4283 72.6997 17.5963 72.6706 17.7807L70.3886 32.2492C70.378 32.3162 70.382 32.3848 70.4004 32.4501C70.4189 32.5154 70.4512 32.5759 70.4953 32.6275C70.5394 32.6791 70.5941 32.7206 70.6557 32.749C70.7173 32.7774 70.7844 32.7921 70.8523 32.7921H73.7481C73.8788 32.7919 74.005 32.7451 74.1043 32.6601C74.2035 32.5751 74.2691 32.4575 74.2893 32.3284L74.937 28.2272C74.9659 28.0427 75.0597 27.8745 75.2016 27.7531C75.3435 27.6316 75.5241 27.5648 75.7109 27.5647H77.4962C81.2138 27.5647 83.3581 25.7661 83.9191 22.202C84.1724 20.6427 83.929 19.4175 83.1988 18.5595C82.3977 17.6173 80.9762 17.119 79.0877 17.119ZM79.7387 22.4033C79.4309 24.4279 77.884 24.4279 76.3874 24.4279H75.5368L76.1349 20.6468C76.1521 20.5362 76.2083 20.4354 76.2933 20.3626C76.3784 20.2898 76.4866 20.2498 76.5986 20.25H76.9888C78.0069 20.25 78.9689 20.25 79.4656 20.8308C79.7618 21.1773 79.8517 21.6921 79.7387 22.4033ZM95.953 22.3381H93.2527C93.1407 22.3378 93.0323 22.3777 92.9472 22.4505C92.8621 22.5233 92.806 22.6243 92.789 22.735L92.6694 23.4907L92.4796 23.2168C91.8947 22.3678 90.5911 22.084 89.2892 22.084C86.3034 22.084 83.7541 24.3454 83.2574 27.5177C83 29.1001 83.3655 30.6132 84.2631 31.6684C85.0882 32.6386 86.2646 33.0429 87.6664 33.0429C90.0722 33.0429 91.4062 31.496 91.4062 31.496L91.2858 32.2467C91.275 32.314 91.279 32.3828 91.2975 32.4484C91.3159 32.5139 91.3484 32.5747 91.3926 32.6265C91.4369 32.6783 91.4919 32.7198 91.5538 32.7483C91.6157 32.7767 91.683 32.7914 91.7511 32.7913H94.1841C94.3709 32.7912 94.5515 32.7243 94.6934 32.6029C94.8352 32.4814 94.9291 32.3133 94.958 32.1288L96.4191 22.881C96.4295 22.8138 96.4252 22.7452 96.4065 22.6798C96.3878 22.6145 96.3552 22.5539 96.3109 22.5023C96.2667 22.4508 96.2117 22.4094 96.1499 22.381C96.0881 22.3527 96.021 22.3381 95.953 22.3381ZM92.1867 27.5969C91.9277 29.1405 90.7008 30.1767 89.1382 30.1767C88.3553 30.1767 87.7266 29.9251 87.324 29.4482C86.9247 28.9747 86.7745 28.3006 86.8999 27.5498C87.145 26.0194 88.3891 24.9494 89.9278 24.9494C90.6951 24.9494 91.3188 25.2043 91.7297 25.6853C92.143 26.1712 92.3063 26.8494 92.1867 27.5969ZM99.1384 17.5158L96.8226 32.2492C96.8119 32.3162 96.816 32.3848 96.8344 32.4501C96.8528 32.5154 96.8852 32.5759 96.9293 32.6275C96.9733 32.6791 97.0281 32.7206 97.0897 32.749C97.1513 32.7774 97.2184 32.7921 97.2862 32.7921H99.6145C100.001 32.7921 100.33 32.5116 100.389 32.1296L102.673 17.6619C102.683 17.5948 102.679 17.5262 102.661 17.4609C102.643 17.3955 102.61 17.3349 102.566 17.2833C102.522 17.2316 102.467 17.1901 102.406 17.1616C102.344 17.1331 102.277 17.1183 102.209 17.1182H99.6021C99.4902 17.1186 99.382 17.1588 99.2971 17.2317C99.2121 17.3045 99.1559 17.4053 99.1384 17.5158Z" fill="#5A5A65"/>
<path d="M6.71306 35.6036L7.14455 32.8629L6.18339 32.8406H1.59375L4.78332 12.6166C4.79281 12.5548 4.8242 12.4985 4.87175 12.4579C4.9193 12.4173 4.97986 12.3952 5.04238 12.3955H12.7812C15.3503 12.3955 17.1233 12.9301 18.049 13.9853C18.4829 14.4804 18.7593 14.9977 18.893 15.5669C19.0332 16.1642 19.0357 16.8779 18.8988 17.7483L18.8889 17.8118V18.3696L19.3228 18.6154C19.6541 18.7833 19.9519 19.0103 20.2015 19.2853C20.5727 19.7086 20.8128 20.2465 20.9143 20.8842C21.0191 21.5401 20.9844 22.3206 20.8128 23.2042C20.6148 24.2207 20.2947 25.1059 19.8624 25.8303C19.481 26.4792 18.9681 27.0413 18.3567 27.4804C17.7825 27.8879 17.1002 28.1973 16.3288 28.3953C15.5813 28.59 14.7291 28.6882 13.7943 28.6882H13.192C12.7614 28.6882 12.3431 28.8433 12.0147 29.1213C11.6868 29.4024 11.4693 29.7906 11.4009 30.217L11.3555 30.4637L10.5932 35.2942L10.5585 35.4716C10.5495 35.5277 10.5338 35.5558 10.5107 35.5747C10.4883 35.593 10.4604 35.6032 10.4315 35.6036H6.71306Z" fill="black"/>
<path d="M19.7339 17.876C19.7108 18.0237 19.6844 18.1746 19.6547 18.3297C18.6342 23.5695 15.1426 25.3796 10.6834 25.3796H8.41287C7.86753 25.3796 7.40799 25.7756 7.32301 26.3136L6.16054 33.686L5.83135 35.7758C5.81824 35.8587 5.82325 35.9435 5.84603 36.0243C5.86881 36.105 5.90883 36.1799 5.96332 36.2437C6.01782 36.3076 6.0855 36.3588 6.1617 36.394C6.2379 36.4291 6.32082 36.4474 6.40475 36.4474H10.4317C10.9086 36.4474 11.3137 36.1009 11.3888 35.6306L11.4284 35.426L12.1866 30.6144L12.2352 30.3504C12.3095 29.8785 12.7154 29.532 13.1923 29.532H13.7945C17.6961 29.532 20.7504 27.9479 21.6431 23.3641C22.016 21.4492 21.8229 19.8503 20.8362 18.7258C20.5234 18.3779 20.1499 18.0899 19.7339 17.876Z" fill="#5A5A65"/>
<path d="M18.6637 17.4506C18.3378 17.3563 18.0063 17.2828 17.6711 17.2303C17.0089 17.1285 16.3396 17.0797 15.6696 17.0843H9.604C9.37316 17.0841 9.14987 17.1665 8.9745 17.3166C8.79913 17.4667 8.68324 17.6746 8.64779 17.9027L7.35744 26.0755L7.32031 26.3139C7.36051 26.0537 7.4925 25.8165 7.6924 25.6452C7.89231 25.4739 8.14692 25.3798 8.41018 25.38H10.6807C15.1399 25.38 18.6315 23.569 19.652 18.3301C19.6826 18.175 19.7081 18.024 19.7312 17.8763C19.4619 17.7351 19.1813 17.6167 18.8922 17.5224C18.8164 17.4972 18.7402 17.4733 18.6637 17.4506Z" fill="#34343D"/>
<path d="M8.65052 17.9027C8.68567 17.6745 8.80149 17.4665 8.97696 17.3165C9.15242 17.1665 9.37587 17.0844 9.60673 17.0851H15.6724C16.391 17.0851 17.0617 17.1321 17.6739 17.2311C18.0881 17.2962 18.4967 17.3936 18.8957 17.5223C19.1969 17.6222 19.4766 17.7402 19.7348 17.8763C20.0384 15.9399 19.7323 14.6215 18.6854 13.4277C17.5311 12.1135 15.4479 11.5508 12.7823 11.5508H5.04349C4.49897 11.5508 4.03447 11.9468 3.95032 12.4855L0.726926 32.9174C0.711912 33.0123 0.717624 33.1093 0.74367 33.2017C0.769716 33.2941 0.815477 33.3798 0.877805 33.4529C0.940134 33.526 1.01755 33.5847 1.10473 33.625C1.19191 33.6653 1.28678 33.6862 1.38282 33.6863H6.16058L7.36017 26.0754L8.65052 17.9027Z" fill="black"/>
</g>
<defs>
<clipPath id="clip0_3251_2340">
<rect width="102" height="27.132" fill="white" transform="translate(0.695312 10.4336)"/>
</clipPath>
</defs>
</svg>
