<svg width="49" height="48" viewBox="0 0 49 48" fill="none" xmlns="http://www.w3.org/2000/svg">
<g clip-path="url(#clip0_3251_8028)">
<path d="M40.8555 0.5625H8.79297C4.39195 0.5625 0.824219 4.13023 0.824219 8.53125V39.3937C0.824219 43.7948 4.39195 47.3625 8.79297 47.3625H40.8555C45.2565 47.3625 48.8242 43.7948 48.8242 39.3937V8.53125C48.8242 4.13023 45.2565 0.5625 40.8555 0.5625Z" fill="black"/>
<path d="M26.0576 12.8701L20.0683 22.7555L26.4761 33.2527C26.5173 33.3262 26.5288 33.4125 26.5084 33.4942C26.4984 33.529 26.477 33.5377 26.4443 33.5389L26.4077 33.5385L26.3636 33.5373C26.3396 33.5372 26.3127 33.5384 26.283 33.5433L21.663 33.5432L21.5722 33.5419C21.3231 33.5353 21.1438 33.4997 21.0343 33.3171C20.6047 32.4799 20.1753 31.6481 19.7464 30.8216C19.3704 30.0987 18.9741 29.3633 18.5576 28.6153L18.3779 28.2939C17.8949 27.4356 17.4173 26.5662 16.945 25.6857H16.9128C16.4831 26.5445 16.0376 27.4032 15.5764 28.2617C15.1146 29.1206 14.6585 29.9739 14.208 30.8216C13.7572 31.6699 13.2957 32.5124 12.8234 33.3493C12.7475 33.5198 12.6214 33.5554 12.4455 33.5614L12.3725 33.5625H7.96121L7.94212 33.563L7.87902 33.5688C7.84399 33.5708 7.82308 33.5633 7.81628 33.5103C7.80417 33.4318 7.82137 33.3516 7.86462 33.2849L14.0792 23.0775L8.02556 12.8379C7.96121 12.7524 7.95046 12.6826 7.99333 12.6286C8.04154 12.5729 8.11311 12.5431 8.1866 12.5481H12.7267C12.8257 12.5427 12.9247 12.5592 13.0166 12.5964C13.0936 12.6401 13.1596 12.7006 13.2097 12.7735C13.5962 13.6323 14.0255 14.491 14.4977 15.3495C14.9697 16.2084 15.4473 17.0563 15.9306 17.8933C16.4136 18.7305 16.8591 19.5785 17.267 20.4371H17.2992C17.7283 19.5571 18.163 18.6985 18.6033 17.8611C19.043 17.0239 19.4938 16.1814 19.9556 15.3334C20.4171 14.4857 20.8625 13.6431 21.292 12.8057C21.3167 12.7263 21.3609 12.6543 21.4208 12.5964C21.5003 12.5561 21.5897 12.5393 21.6784 12.5481H25.8965C25.9803 12.5274 26.0672 12.5676 26.1058 12.6447C26.1409 12.7149 26.1275 12.7986 26.0746 12.8543L26.0576 12.8701ZM35.5208 33.9587L35.2986 33.9611C33.8165 33.9837 32.348 33.6757 30.9999 33.0595C29.744 32.4783 28.6942 31.5295 27.9892 30.3386C27.2784 29.158 26.9136 27.687 26.8951 25.9258L26.8944 25.7823C26.8823 24.3045 27.2599 22.8495 27.9892 21.5641C28.7196 20.2912 29.7841 19.2432 31.0666 18.533L31.177 18.4729C32.5722 17.7001 34.2573 17.3137 36.2324 17.3137L36.3188 17.3147L36.4174 17.3178L36.5281 17.3228L36.651 17.3298L36.8576 17.3444L37.0916 17.3632L37.2628 17.3781V11.0347C37.2628 10.8848 37.3272 10.8093 37.456 10.8093H41.5132C41.5664 10.8017 41.6201 10.8196 41.6581 10.8576C41.6961 10.8956 41.714 10.9493 41.7064 11.0025V30.0327C41.7064 30.3523 41.7187 30.6964 41.7434 31.0647L41.8034 31.9001L41.8352 32.3833C41.8433 32.5202 41.7666 32.6481 41.642 32.7053C40.5953 33.1419 39.5051 33.4657 38.3898 33.6713C37.4429 33.8461 36.4833 33.9422 35.5208 33.9587ZM37.2628 29.9683V21.1777C37.0887 21.1306 36.911 21.0983 36.7315 21.0811C36.5122 21.0591 36.2918 21.0483 36.0714 21.0489C35.29 21.0412 34.5178 21.2177 33.8174 21.5641C33.1352 21.9032 32.5527 22.4136 32.1269 23.0453C31.7019 23.6671 31.4821 24.479 31.4675 25.481L31.4668 25.5891C31.4511 26.2911 31.5657 26.9898 31.8049 27.6499C31.9995 28.1818 32.3071 28.6652 32.7065 29.0667C33.0889 29.4362 33.5518 29.7117 34.0589 29.8718C34.5944 30.0452 35.1542 30.1321 35.7172 30.1294C36.0176 30.1294 36.2966 30.1186 36.5544 30.0971C36.7601 30.0816 36.9639 30.0477 37.1634 29.9958L37.2628 29.9683Z" fill="white"/>
</g>
<defs>
<clipPath id="clip0_3251_8028">
<rect width="48" height="46.875" fill="white" transform="translate(0.824219 0.5625)"/>
</clipPath>
</defs>
</svg>
