<svg width="131" height="48" viewBox="0 0 131 48" fill="none" xmlns="http://www.w3.org/2000/svg">
<g clip-path="url(#clip0_3251_5958)">
<path d="M101.148 17.3447H102.757L99.5392 29.3875H97.9622L95.3787 21.4564H95.3132L92.7297 29.3875H91.1527L87.7891 17.3447H89.398L91.9329 26.8034H91.9983L94.5987 18.9536H96.0448L98.6452 26.8034H98.7106L101.148 17.3447Z" fill="#5A5A65"/>
<path d="M106.153 20.8711C107.291 20.8711 108.202 21.1799 108.868 21.7812C109.534 22.3989 109.859 23.2277 109.859 24.3004V29.371H108.38V28.2333H108.315C107.681 29.176 106.82 29.6472 105.763 29.6472C104.853 29.6472 104.09 29.371 103.488 28.8346C102.871 28.2983 102.578 27.6319 102.578 26.8194C102.578 25.9743 102.903 25.2916 103.537 24.7878C104.187 24.2841 105.048 24.0241 106.121 24.0241C107.047 24.0241 107.795 24.1865 108.396 24.5278V24.1703C108.396 23.634 108.185 23.1789 107.763 22.8051C107.34 22.4313 106.836 22.2362 106.267 22.2362C105.406 22.2362 104.723 22.5938 104.22 23.3252L102.854 22.4638C103.57 21.4237 104.674 20.8711 106.153 20.8711ZM104.154 26.8681C104.154 27.2745 104.317 27.6158 104.674 27.8758C105.016 28.152 105.422 28.282 105.877 28.282C106.527 28.282 107.113 28.0382 107.616 27.567C108.12 27.0795 108.38 26.5269 108.38 25.8767C107.893 25.503 107.226 25.3079 106.365 25.3079C105.731 25.3079 105.211 25.4542 104.788 25.763C104.366 26.0393 104.154 26.413 104.154 26.8681Z" fill="#5A5A65"/>
<path d="M112.865 17.3447V29.3875H111.32V17.3447H112.865Z" fill="#5A5A65"/>
<path d="M115.954 17.3447V29.3875H114.41V17.3447H115.954Z" fill="#5A5A65"/>
<path d="M121.254 29.6472C120.051 29.6472 119.044 29.241 118.264 28.3959C117.484 27.567 117.094 26.5268 117.094 25.2592C117.094 24.0078 117.467 22.9514 118.231 22.1226C118.995 21.2938 119.97 20.8711 121.156 20.8711C122.376 20.8711 123.35 21.2611 124.066 22.0575C124.781 22.8539 125.155 23.959 125.155 25.373L125.138 25.5355H118.67C118.686 26.3481 118.963 26.9982 119.483 27.4857C120.003 27.9732 120.62 28.2333 121.336 28.2333C122.326 28.2333 123.091 27.7458 123.659 26.7544L125.041 27.4207C124.667 28.1196 124.163 28.6559 123.497 29.0459C122.83 29.436 122.083 29.6472 121.254 29.6472ZM118.784 24.2677H123.513C123.465 23.6989 123.236 23.2277 122.814 22.8538C122.392 22.4801 121.823 22.285 121.124 22.285C120.539 22.285 120.035 22.4638 119.613 22.8213C119.19 23.1789 118.914 23.6664 118.784 24.2677Z" fill="#5A5A65"/>
<path d="M129.298 29.5169C128.632 29.5169 128.064 29.3056 127.625 28.8992C127.186 28.4767 126.958 27.9079 126.942 27.1603V22.561H125.496V21.147H126.942V18.6279H128.486V21.147H130.501V22.561H128.486V26.6565C128.486 27.209 128.6 27.5828 128.811 27.7778C129.022 27.9729 129.267 28.0704 129.527 28.0704C129.657 28.0704 129.77 28.0541 129.884 28.0217C129.997 27.9892 130.111 27.9567 130.209 27.9079L130.696 29.2893C130.307 29.4518 129.835 29.5169 129.298 29.5169Z" fill="#5A5A65"/>
<path d="M35.6689 29.647C31.9146 29.647 28.7617 26.5915 28.7617 22.8374C28.7617 19.0832 31.9146 16.0439 35.6689 16.0439C37.7491 16.0439 39.2118 16.8565 40.3332 17.9129L39.0167 19.2294C38.2203 18.4817 37.1477 17.8967 35.6688 17.8967C32.9385 17.8967 30.7932 20.107 30.7932 22.8374C30.7932 25.5677 32.9385 27.778 35.6688 27.778C37.4402 27.778 38.4479 27.0629 39.0979 26.4128C39.6342 25.8765 39.9755 25.1126 40.1055 24.0725H35.6199V22.236H41.9258C41.9908 22.5611 42.0233 22.9674 42.0233 23.39C42.0233 24.7876 41.6496 26.5104 40.4144 27.7456C39.2118 28.9806 37.6841 29.647 35.6689 29.647Z" fill="#5A5A65"/>
<path d="M51.448 25.2757C51.448 27.7948 49.4815 29.6638 47.0599 29.6638C44.6383 29.6638 42.6719 27.8111 42.6719 25.2757C42.6719 22.7404 44.6383 20.8877 47.0599 20.8877C49.4815 20.8877 51.448 22.7242 51.448 25.2757ZM49.5302 25.2757C49.5302 23.6993 48.3926 22.6266 47.0599 22.6266C45.7273 22.6266 44.5896 23.6993 44.5896 25.2757C44.5896 26.8359 45.7273 27.9249 47.0599 27.9249C48.3927 27.9249 49.5302 26.8359 49.5302 25.2757Z" fill="#5A5A65"/>
<path d="M61.0066 25.2757C61.0066 27.7948 59.0402 29.6638 56.6186 29.6638C54.197 29.6638 52.2305 27.8111 52.2305 25.2757C52.2305 22.7404 54.197 20.8877 56.6186 20.8877C59.0402 20.8877 61.0066 22.7242 61.0066 25.2757ZM59.0889 25.2757C59.0889 23.6993 57.9512 22.6266 56.6186 22.6266C55.2859 22.6266 54.1483 23.6993 54.1483 25.2757C54.1483 26.8359 55.2859 27.9249 56.6186 27.9249C57.9513 27.9249 59.0889 26.8359 59.0889 25.2757Z" fill="#5A5A65"/>
<path d="M70.1557 21.1475V29.0135C70.1557 32.2477 68.2542 33.5804 65.9952 33.5804C63.8661 33.5804 62.5984 32.1502 62.111 30.9963L63.7849 30.2975C64.0774 31.0125 64.8088 31.8577 65.9952 31.8577C67.4415 31.8577 68.3355 30.9637 68.3355 29.2898V28.656H68.2704C67.8316 29.1923 67.0028 29.6473 65.9626 29.6473C63.7686 29.6473 61.7695 27.7458 61.7695 25.2755C61.7695 22.8052 63.7685 20.8711 65.9626 20.8711C67.0028 20.8711 67.8316 21.3425 68.2704 21.8463H68.3355V21.1312H70.1557V21.1475ZM68.4655 25.2918C68.4655 23.7479 67.4415 22.6264 66.1252 22.6264C64.7926 22.6264 63.6873 23.7479 63.6873 25.2918C63.6873 26.8195 64.7924 27.9246 66.1252 27.9246C67.4253 27.9246 68.4655 26.8195 68.4655 25.2918Z" fill="#5A5A65"/>
<path d="M73.4569 16.499V29.3707H71.5391V16.499H73.4569Z" fill="#5A5A65"/>
<path d="M80.915 26.7053L82.4101 27.6966C81.9226 28.4117 80.7687 29.6306 78.7534 29.6306C76.2668 29.6306 74.4141 27.7129 74.4141 25.2426C74.4141 22.6423 76.2831 20.8545 78.5421 20.8545C80.8174 20.8545 81.9225 22.6585 82.2963 23.6498L82.4913 24.1536L76.6406 26.5752C77.0956 27.4528 77.7782 27.9079 78.7696 27.9079C79.7448 27.9242 80.4275 27.4366 80.915 26.7053ZM76.3157 25.1288L80.2324 23.5036C80.0211 22.9511 79.371 22.5772 78.6072 22.5772C77.6322 22.5773 76.2669 23.4385 76.3157 25.1288Z" fill="#5A5A65"/>
<path fill-rule="evenodd" clip-rule="evenodd" d="M20.7342 20.6435V17.6043C20.7342 15.8492 19.304 14.4189 17.5487 14.4189H3.88069C2.12554 14.4353 0.695312 15.8654 0.695312 17.6043V20.6434C0.695312 20.9523 0.939103 21.1959 1.24792 21.1959H20.1816C20.4903 21.196 20.7342 20.9523 20.7342 20.6435Z" fill="#DCDCE0"/>
<path fill-rule="evenodd" clip-rule="evenodd" d="M20.7342 23.3089V20.286C20.7342 18.5307 19.304 17.1006 17.5488 17.1006H3.88069C2.12554 17.1005 0.695312 18.5307 0.695312 20.2859V23.3251C0.695312 23.6339 0.939103 23.8776 1.24792 23.8776H20.1816C20.4903 23.8614 20.7342 23.6176 20.7342 23.3089Z" fill="#AEAEB7"/>
<path fill-rule="evenodd" clip-rule="evenodd" d="M20.7342 25.9901V22.951C20.7342 21.1958 19.304 19.7656 17.5488 19.7656H3.88069C2.12554 19.7656 0.695312 21.1959 0.695312 22.951V25.9901C0.695312 26.2989 0.939103 26.5426 1.24792 26.5426H20.1816C20.4903 26.5265 20.7342 26.2826 20.7342 25.9901Z" fill="#5A5A65"/>
<path fill-rule="evenodd" clip-rule="evenodd" d="M13.4369 24.5274L0.695312 21.5695V28.2654C0.695312 30.0206 2.12554 31.4508 3.88069 31.4508H17.5487C19.304 31.4508 20.7341 30.0205 20.7341 28.2654V21.4395L17.6949 23.6498C16.4598 24.5436 14.9159 24.8686 13.4369 24.5274Z" fill="black"/>
</g>
<defs>
<clipPath id="clip0_3251_5958">
<rect width="130" height="19.1613" fill="white" transform="translate(0.695312 14.4189)"/>
</clipPath>
</defs>
</svg>
