<svg width="49" height="48" viewBox="0 0 49 48" fill="none" xmlns="http://www.w3.org/2000/svg">
<g clip-path="url(#clip0_3251_10043)">
<mask id="mask0_3251_10043" style="mask-type:luminance" maskUnits="userSpaceOnUse" x="0" y="6" width="49" height="35">
<path d="M0.955078 40.401H48.9775V6.50293H0.955078V40.401Z" fill="white"/>
</mask>
<g mask="url(#mask0_3251_10043)">
<path d="M0.955078 40.401L12.2546 23.4519L0.955078 6.50293H9.42969L20.7292 23.4519L9.42969 40.401H0.955078Z" fill="black"/>
<path d="M12.254 40.401L23.5535 23.4519L12.254 6.50293H20.7286L43.3272 40.401H34.8526L27.7907 29.8081L20.7285 40.4011H12.2539L12.254 40.401Z" fill="#83838E"/>
<path d="M39.5608 30.5141L35.7945 24.8637L48.9768 24.8633V30.5132H39.5606L39.5608 30.5141ZM33.9112 22.0395L30.1445 16.3891L48.9769 16.3887V22.0386H33.9102L33.9112 22.0395Z" fill="black"/>
</g>
</g>
<defs>
<clipPath id="clip0_3251_10043">
<rect width="48" height="48" fill="white" transform="translate(0.955078)"/>
</clipPath>
</defs>
</svg>
