<svg width="107" height="48" viewBox="0 0 107 48" fill="none" xmlns="http://www.w3.org/2000/svg">
<g clip-path="url(#clip0_3251_6634)">
<path fill-rule="evenodd" clip-rule="evenodd" d="M44.3349 26.0008H51.0874L47.5265 20.2511L40.981 30.6441L37.9947 30.6466L45.9671 18.1667C46.3066 17.6583 46.8896 17.3535 47.524 17.3535C48.1533 17.3535 48.7281 17.6492 49.0684 18.1435L57.0681 30.6466L54.0811 30.6449L52.6799 28.3212H45.8313L44.339 26.0008H44.3349ZM6.79595 30.6449C3.16297 30.6449 0.214844 27.6985 0.214844 24.0646C0.214844 20.4292 3.16297 17.4827 6.79678 17.4827H14.4462C18.08 17.4827 21.0265 20.4292 21.0265 24.0646C21.0265 27.7001 18.0866 30.6466 14.4511 30.6466L6.80506 30.6449H6.79595ZM75.3175 28.3229V17.4827H72.7876V29.3829C72.7876 29.7141 72.9201 30.0271 73.1561 30.2607C73.4045 30.5091 73.7316 30.6449 74.0836 30.6449H85.6243L87.1125 28.3229H75.3175ZM33.4475 26.385C35.907 26.385 37.8987 24.3893 37.8987 21.933C37.8987 19.4752 35.9062 17.4827 33.4492 17.4827H22.3738V30.6449H24.9029V19.8015H33.2752C34.4545 19.8015 35.4052 20.7555 35.4052 21.933C35.4052 23.109 34.4545 24.0646 33.2769 24.0646L26.1434 24.0622L33.6959 30.6457H37.3728L32.2914 26.3809L33.4508 26.3842L33.4475 26.385ZM62.3391 30.6449C58.707 30.6449 55.758 27.6985 55.758 24.0646C55.758 20.4292 58.7061 17.4827 62.3416 17.4827H71.4336L69.943 19.8039L62.5122 19.8023C60.1562 19.8023 58.2498 21.7153 58.2498 24.0671C58.2498 26.4273 60.1545 28.332 62.5114 28.332H71.6373L70.1508 30.6507H62.3416L62.3391 30.6449ZM93.2986 28.3262C91.3525 28.3262 89.7045 27.0144 89.201 25.229H100.019L101.509 22.9078H89.1969C89.702 21.119 91.345 19.8023 93.2978 19.8023L100.724 19.8106L102.214 17.4918H93.1214C89.4859 17.4918 86.5378 20.4399 86.5378 24.0754C86.5378 27.7076 89.4859 30.654 93.1156 30.654H100.925L102.411 28.3353H93.2961L93.2986 28.3262ZM14.2764 28.3262C16.6283 28.3262 18.5355 26.419 18.5355 24.0646C18.5355 21.7111 16.6291 19.8039 14.2756 19.8039L6.96406 19.8015C4.61219 19.8015 2.70336 21.7111 2.70336 24.0646C2.70336 26.419 4.61136 28.3262 6.96406 28.3262H14.2739H14.2764ZM104.732 20.3695C105.552 20.3695 106.215 19.707 106.215 18.8897C106.215 18.0698 105.552 17.4073 104.732 17.4073C103.918 17.4073 103.256 18.0698 103.256 18.8814C103.256 19.6971 103.918 20.3604 104.733 20.3604L104.732 20.3695ZM103.571 18.8839C103.571 18.2429 104.09 17.722 104.733 17.722C105.379 17.722 105.901 18.2355 105.901 18.8814C105.901 19.5273 105.385 20.0408 104.742 20.0408C104.099 20.0408 103.58 19.5191 103.58 18.8748L103.571 18.8839ZM104.594 18.0119C104.822 18.0119 104.916 18.0119 105.029 18.0533C105.319 18.1527 105.35 18.4177 105.35 18.517C105.35 18.5336 105.346 18.5916 105.332 18.6495C105.315 18.7116 105.278 18.84 105.127 18.9328C105.11 18.9452 105.099 18.9543 105.052 18.9717L105.436 19.6607H105.064L104.728 19.0313H104.502V19.6656H104.178V18.0094H104.594V18.0119ZM104.71 18.7572C104.81 18.7572 104.92 18.7489 104.985 18.6495C105.012 18.6081 105.023 18.5626 105.023 18.5087C105.023 18.4177 104.982 18.3448 104.899 18.3059C104.824 18.2769 104.75 18.2769 104.601 18.2769H104.51V18.7539H104.717L104.71 18.7572Z" fill="black"/>
</g>
<defs>
<clipPath id="clip0_3251_6634">
<rect width="106" height="14.9062" fill="white" transform="translate(0.214844 16.5469)"/>
</clipPath>
</defs>
</svg>
