<svg width="49" height="48" viewBox="0 0 49 48" fill="none" xmlns="http://www.w3.org/2000/svg">
<g clip-path="url(#clip0_3251_7920)">
<path d="M-3.61914 -4.23828H52.7478V52.1287H-3.61914" fill="black"/>
<path d="M37.7972 29.7248C37.8412 29.5707 37.8963 29.4055 37.9293 29.2514C39.6797 22.2936 35.4192 14.0698 28.2082 9.74316C31.3678 14.0257 32.766 19.2111 31.5219 23.7468C31.4119 24.1542 31.2797 24.5395 31.1366 24.9138C30.9825 24.8037 30.7733 24.6936 30.5091 24.5395C30.5091 24.5395 23.3421 20.1138 15.5697 12.2753C15.3605 12.0661 19.7091 18.4955 24.6522 23.7028C22.3293 22.3927 15.8449 17.6808 11.7495 13.9266C12.2559 14.7633 12.8504 15.578 13.5109 16.3597C16.9348 20.7083 21.4045 26.0698 26.755 30.1762C22.9898 32.4771 17.6834 32.6533 12.388 30.1762C11.0779 29.5597 9.84488 28.8221 8.71094 27.9854C10.9458 31.5633 14.4027 34.6569 18.5972 36.4624C23.6064 38.6092 28.5825 38.4661 32.2926 36.4955C32.3146 36.4844 32.3256 36.4734 32.3476 36.4624C32.4999 36.3813 32.6504 36.2969 32.799 36.2092C34.5825 35.2844 38.0944 34.3487 39.988 38.0257C40.4504 38.9285 41.4302 34.1615 37.8192 29.7138L37.7972 29.7248Z" fill="white"/>
</g>
<defs>
<clipPath id="clip0_3251_7920">
<rect x="0.564453" width="48" height="48" rx="11" fill="white"/>
</clipPath>
</defs>
</svg>
