<svg width="103" height="48" viewBox="0 0 103 48" fill="none" xmlns="http://www.w3.org/2000/svg">
<g clip-path="url(#clip0_3251_8497)">
<path d="M4.43743 28.7718H6.81806C8.65574 28.7718 9.57451 28.1661 9.57451 26.9967C9.57451 25.8484 8.59301 25.2218 6.6719 25.2218H4.43743V28.7718ZM4.43743 20.2101V23.5095H6.52573C8.09187 23.5095 8.90627 22.9247 8.90627 21.8598C8.90627 20.7738 8.07103 20.2101 6.5048 20.2101H4.43743ZM1.11719 30.5469V28.7718H2.51631V20.2101H1.11719V18.4349H6.71369C9.28211 18.4349 10.8483 19.6253 10.8483 21.6927C10.8483 23.05 10.0549 23.8854 9.05253 24.282C10.4933 24.6789 11.5166 25.7021 11.5166 27.1012C11.5166 29.3147 9.80427 30.5469 7.00592 30.5469H1.11719Z" fill="black"/>
<path d="M21.6654 24.2403C21.4566 23.5304 20.9345 23.1126 20.2454 23.1126C18.6375 23.1126 17.113 24.3029 17.113 26.4746V28.7718H20.2037V30.5469H13.3125V28.7718H15.2753V23.4259H13.7301V21.6508H17.0922V23.1543C17.656 22.1102 18.8045 21.3586 20.3289 21.3586C22.0414 21.3586 23.1062 22.3401 23.4195 23.7391L21.6654 24.2403Z" fill="black"/>
<path d="M31.0635 26.9548C30.4788 26.746 29.6017 26.579 28.7873 26.579C27.6178 26.579 26.4902 26.9548 26.4902 28.0199C26.4902 28.8133 27.2001 29.1894 28.1816 29.1894C29.5391 29.1894 31.0635 28.4583 31.0635 27.2055V26.9548ZM31.0635 25.3678V24.8667C31.0635 23.6136 30.061 23.0916 28.9753 23.0916C27.9521 23.0916 27.0749 23.5094 26.3648 24.1565L25.1537 22.8411C25.9891 22.0684 27.1794 21.3584 28.9753 21.3584C31.2096 21.3584 32.9429 22.5487 32.9429 24.8039V28.7716H34.2376V30.5467H31.0635V29.6069C30.5832 30.3796 29.2886 30.8389 28.0146 30.8389C26.1769 30.8389 24.5898 29.8993 24.5898 28.0408C24.5898 25.8482 26.7409 25.0129 28.7036 25.0129C29.6645 25.0129 30.4579 25.2008 31.0635 25.3678Z" fill="black"/>
<path d="M41.9649 19.8759H39.8975V17.1613H41.9649V19.8759ZM45.3897 28.7718V30.5469H36.4102V28.7718H40.1273V23.4259H37.2873V21.6508H41.9649V28.7718H45.3897Z" fill="black"/>
<path d="M47.6016 28.7718H48.9588V23.4259H47.6849V21.6508H50.7756V22.7993C51.3185 21.9224 52.4462 21.3586 53.8243 21.3586C55.8082 21.3586 57.2282 22.6115 57.2282 24.637V28.7718H58.5856V30.5469H53.9706V28.7718H55.3906V25.1382C55.3906 23.593 54.4509 23.1543 53.5947 23.1543C52.1954 23.1543 50.7966 24.1986 50.7966 25.8064V28.7718H52.2164V30.5469H47.6016V28.7718Z" fill="black"/>
<path d="M61.1147 23.4257H58.7969V21.6506H61.1147V18.4348H62.9523V21.6506H67.2749V23.4257H62.9523V27.1636C62.9523 28.542 63.9129 29.1057 65.0196 29.1057C66.0638 29.1057 66.9409 28.5212 67.5882 27.8738L68.8203 29.1474C68.006 30.0246 66.753 30.8389 65.0196 30.8389C62.7853 30.8389 61.1147 29.6069 61.1147 27.2264V23.4257Z" fill="black"/>
<path d="M78.8451 24.2403C78.6362 23.5304 78.1142 23.1126 77.4251 23.1126C75.8173 23.1126 74.2926 24.3029 74.2926 26.4746V28.7718H77.3834V30.5469H70.4922V28.7718H72.4551V23.4259H70.9099V21.6508H74.2719V23.1543C74.8357 22.1102 75.9843 21.3586 77.5088 21.3586C79.2212 21.3586 80.286 22.3401 80.5993 23.7391L78.8451 24.2403Z" fill="black"/>
<path d="M83.7952 25.18H89.2662C88.9948 23.9061 87.8671 23.0499 86.6143 23.0499C85.1941 23.0499 84.1083 23.9269 83.7952 25.18ZM91.2084 29.1894C90.2896 30.1498 88.6608 30.8389 86.8439 30.8389C83.8578 30.8389 81.7695 28.8342 81.7695 26.0986C81.7695 23.3631 83.7952 21.3584 86.6143 21.3584C89.4125 21.3584 91.3754 23.5094 91.3754 26.4328V26.746H83.7117C84.0248 28.2287 85.2569 29.1266 86.8649 29.1266C88.2014 29.1266 89.3497 28.5837 89.9763 27.8946L91.2084 29.1894Z" fill="black"/>
<path d="M95.2169 25.18H100.688C100.417 23.9061 99.289 23.0499 98.036 23.0499C96.6162 23.0499 95.5302 23.9269 95.2169 25.18ZM102.63 29.1894C101.711 30.1498 100.083 30.8389 98.2658 30.8389C95.2797 30.8389 93.1914 28.8342 93.1914 26.0986C93.1914 23.3631 95.2169 21.3584 98.036 21.3584C100.834 21.3584 102.797 23.5094 102.797 26.4328V26.746H95.1334C95.4467 28.2287 96.6788 29.1266 98.2867 29.1266C99.6232 29.1266 100.772 28.5837 101.398 27.8946L102.63 29.1894Z" fill="black"/>
</g>
<defs>
<clipPath id="clip0_3251_8497">
<rect width="102" height="13.9981" fill="white" transform="translate(0.957031 17.001)"/>
</clipPath>
</defs>
</svg>
