<svg width="47" height="48" viewBox="0 0 47 48" fill="none" xmlns="http://www.w3.org/2000/svg">
<g clip-path="url(#clip0_3251_4468)">
<path d="M35.8708 5.14667L27.1072 18.1667C26.5012 19.0533 27.6666 20.1267 28.5056 19.38L37.1294 11.8667C37.3625 11.68 37.6888 11.82 37.6888 12.1467V35.62C37.6888 35.9467 37.2692 36.0867 37.0828 35.8533L10.9784 4.58667C10.1394 3.56 8.92739 3 7.57555 3H6.64326C4.21928 3 2.21484 5.00667 2.21484 7.48V40.52C2.21484 42.9933 4.21928 45 6.68987 45C8.22816 45 9.67322 44.2067 10.5123 42.8533L19.2759 29.8333C19.8819 28.9467 18.7165 27.8733 17.8774 28.62L9.25369 36.0867C9.02062 36.2733 8.69431 36.1333 8.69431 35.8067V12.38C8.69431 12.0533 9.11384 11.9133 9.3003 12.1467L35.4046 43.4133C36.2437 44.44 37.5023 45 38.8075 45H39.7398C42.2104 45 44.2148 42.9933 44.2148 40.52V7.48C44.2148 5.00667 42.2104 3 39.7398 3C38.1549 3 36.7099 3.79333 35.8708 5.14667Z" fill="black"/>
</g>
<defs>
<clipPath id="clip0_3251_4468">
<rect width="42" height="42" fill="white" transform="translate(2.21484 3)"/>
</clipPath>
</defs>
</svg>
