<svg width="48" height="48" viewBox="0 0 48 48" fill="none" xmlns="http://www.w3.org/2000/svg">
<g clip-path="url(#clip0_3251_1621)">
<path d="M0.877227 22.4542C5.33599 32.6971 16.6498 34.4147 30.1528 25.7328C36.3808 31.497 37.9324 38.3307 32.7356 45.2094C29.9949 46.3623 26.9842 46.9999 23.8242 46.9999C11.1217 46.9999 0.824219 36.7025 0.824219 23.9999C0.824219 23.4804 0.843266 22.9652 0.877227 22.4542ZM21.9112 18.0079C23.9246 9.61738 29.5468 4.80463 38.3846 6.19577C43.5362 10.4138 46.8243 16.8225 46.8243 23.9999C46.8243 33.0553 41.5905 40.8868 33.9838 44.6383C40.8939 34.7943 35.247 24.4084 21.9112 18.0079ZM23.8243 1C28.7541 1 33.321 2.5516 37.065 5.19211C24.4956 3.73089 18.56 14.2079 19.3891 28.6762C11.2219 31.1812 4.56848 29.3355 1.05235 20.7615C2.62659 9.59248 12.2212 1 23.8243 1Z" fill="black"/>
</g>
<defs>
<clipPath id="clip0_3251_1621">
<rect width="46" height="46" fill="white" transform="translate(0.824219 1)"/>
</clipPath>
</defs>
</svg>
