<svg width="107" height="48" viewBox="0 0 107 48" fill="none" xmlns="http://www.w3.org/2000/svg">
<g clip-path="url(#clip0_3251_8513)">
<mask id="mask0_3251_8513" style="mask-type:luminance" maskUnits="userSpaceOnUse" x="0" y="13" width="107" height="22">
<path d="M106.828 13.832H0.828125V34.1673H106.828V13.832Z" fill="white"/>
</mask>
<g mask="url(#mask0_3251_8513)">
<path fill-rule="evenodd" clip-rule="evenodd" d="M42.6541 29.739C38.737 32.6299 33.0579 34.1672 28.1673 34.1672C21.3136 34.1672 15.1415 31.6337 10.4707 27.4162C10.1044 27.0848 10.4311 26.6326 10.8719 26.889C15.9108 29.8213 22.1429 31.5874 28.5787 31.5874C32.9204 31.5874 37.6933 30.686 42.0848 28.8232C42.7472 28.5428 43.3027 29.2598 42.6541 29.739Z" fill="#83838E"/>
<path fill-rule="evenodd" clip-rule="evenodd" d="M44.2859 27.877C43.7845 27.2357 40.9741 27.5732 39.7112 27.7245C39.3287 27.7707 39.2692 27.4362 39.6139 27.1942C41.8563 25.6191 45.5308 26.0737 45.9578 26.6015C46.3878 27.133 45.8443 30.8171 43.7437 32.5749C43.42 32.8451 43.1125 32.701 43.2561 32.3443C43.7293 31.163 44.7874 28.5196 44.2859 27.877Z" fill="#83838E"/>
<path fill-rule="evenodd" clip-rule="evenodd" d="M39.8011 16.0684V14.5383C39.8023 14.3053 39.9776 14.1504 40.189 14.151L47.0481 14.1504C47.2673 14.1504 47.4439 14.3095 47.4439 14.5365V15.8486C47.4415 16.069 47.2559 16.3561 46.9274 16.8119L43.3742 21.885C44.6929 21.8544 46.0879 22.052 47.2865 22.7252C47.5567 22.8771 47.6294 23.1023 47.6504 23.3227V24.9555C47.6504 25.1807 47.4042 25.4407 47.1448 25.3056C45.034 24.1994 42.2326 24.0787 39.8978 25.3188C39.6594 25.4461 39.4102 25.1891 39.4102 24.9639V23.4115C39.4102 23.1635 39.415 22.7384 39.6654 22.36L43.7813 16.4546L40.1974 16.454C39.9782 16.454 39.8023 16.2978 39.8011 16.0684Z" fill="black"/>
<path fill-rule="evenodd" clip-rule="evenodd" d="M14.7806 25.6262H12.6938C12.4951 25.6136 12.3365 25.4646 12.3203 25.2737L12.3221 14.5635C12.3221 14.3497 12.5023 14.1785 12.7251 14.1785L14.6683 14.1779C14.8713 14.1882 15.0346 14.3419 15.0473 14.5377V15.9357H15.0869C15.5931 14.5833 16.5473 13.9521 17.833 13.9521C19.138 13.9521 19.9565 14.5833 20.5408 15.9357C21.047 14.5833 22.1964 13.9521 23.4232 13.9521C24.3 13.9521 25.2542 14.3131 25.8385 15.1244C26.5009 16.0263 26.3652 17.3331 26.3652 18.4824L26.3628 25.2412C26.3628 25.4544 26.1832 25.6262 25.9604 25.6262H23.8766C23.6665 25.613 23.5019 25.4472 23.5019 25.2418L23.5013 19.564C23.5013 19.1136 23.5403 17.987 23.4425 17.5588C23.2869 16.837 22.8197 16.6341 22.2162 16.6341C21.7094 16.6341 21.1833 16.9721 20.9689 17.5126C20.7546 18.0543 20.7744 18.955 20.7744 19.564V25.2412C20.7744 25.4544 20.5942 25.6262 20.372 25.6262H18.2876C18.0781 25.613 17.9129 25.4472 17.9129 25.2418L17.9105 19.564C17.9105 18.3695 18.1057 16.6124 16.6254 16.6124C15.1253 16.6124 15.1842 18.3245 15.1842 19.564L15.183 25.2412C15.183 25.4544 15.0028 25.6262 14.7806 25.6262Z" fill="black"/>
<path fill-rule="evenodd" clip-rule="evenodd" d="M53.3658 16.1386C51.8273 16.1386 51.73 18.2338 51.73 19.5411C51.73 20.8485 51.7108 23.6433 53.3472 23.6433C54.9638 23.6433 55.0418 21.3895 55.0418 20.015C55.0418 19.1136 55.0022 18.0314 54.7296 17.1751C54.496 16.4311 54.0282 16.1386 53.3658 16.1386ZM53.3472 13.9521C56.444 13.9521 58.1189 16.6124 58.1189 19.9927C58.1189 23.2595 56.2687 25.852 53.3472 25.852C50.308 25.852 48.6523 23.1923 48.6523 19.8798C48.6523 16.544 50.3272 13.9521 53.3472 13.9521Z" fill="black"/>
<path fill-rule="evenodd" clip-rule="evenodd" d="M62.137 25.6262H60.0574C59.849 25.613 59.6833 25.4472 59.6833 25.2418L59.6797 14.528C59.6977 14.3317 59.8707 14.1785 60.0808 14.1785L62.0163 14.1779C62.1988 14.1876 62.349 14.3113 62.3874 14.4776V16.1158H62.4264C63.0113 14.6505 63.8286 13.9521 65.2699 13.9521C66.2049 13.9521 67.1207 14.2902 67.705 15.2144C68.2502 16.0708 68.2502 17.5126 68.2502 18.5497V25.2893C68.2274 25.479 68.0569 25.6262 67.8503 25.6262H65.7587C65.5653 25.6142 65.4098 25.4718 65.387 25.2893V19.4745C65.387 18.3023 65.5239 16.589 64.0821 16.589C63.5758 16.589 63.108 16.9271 62.8744 17.4453C62.582 18.0993 62.5429 18.7527 62.5429 19.4745V25.2412C62.5393 25.4544 62.3592 25.6262 62.137 25.6262Z" fill="black"/>
<path fill-rule="evenodd" clip-rule="evenodd" d="M36.4359 25.5999C36.2984 25.7236 36.0996 25.732 35.9435 25.6485C35.2505 25.0726 35.1261 24.8066 34.7472 24.2577C33.602 25.4245 32.7907 25.7746 31.3069 25.7746C29.5504 25.7746 28.1836 24.6901 28.1836 22.5223C28.1836 20.8282 29.1018 19.6764 30.4091 19.1119C31.5411 18.6147 33.1222 18.5246 34.3329 18.3889V18.1181C34.3329 17.6202 34.3719 17.0341 34.0789 16.6048C33.8248 16.2204 33.3372 16.0625 32.9078 16.0625C32.1116 16.0625 31.4048 16.4703 31.2306 17.3152C31.194 17.5031 31.0571 17.6899 30.8685 17.6995L28.8454 17.4803C28.6748 17.4413 28.4851 17.3044 28.5337 17.0438C28.9931 14.6243 31.1537 13.87 33.1174 13.8496H33.2724C34.2776 13.8622 35.5615 14.1379 36.3434 14.8879C37.3589 15.8367 37.2604 17.1014 37.2604 18.4796V21.7302C37.2604 22.7084 37.6669 23.1372 38.0483 23.6638C38.1822 23.8542 38.2116 24.0794 38.0417 24.2187C37.6153 24.576 36.858 25.2336 36.4419 25.6047L36.4359 25.5999ZM34.3329 20.5123C34.3329 21.3254 34.3521 22.0028 33.9425 22.7258C33.6104 23.3125 33.0832 23.674 32.4977 23.674C31.6978 23.674 31.2294 23.0645 31.2294 22.1607C31.2294 20.3832 32.8232 20.0601 34.3329 20.0601V20.5123Z" fill="black"/>
<path fill-rule="evenodd" clip-rule="evenodd" d="M9.08101 25.6009C8.9429 25.7246 8.74353 25.733 8.58799 25.6495C7.8944 25.0736 7.77009 24.8076 7.39176 24.2587C6.24598 25.4255 5.43528 25.7756 3.95141 25.7756C2.1949 25.7756 0.828125 24.6911 0.828125 22.5232C0.828125 20.8292 1.74511 19.6774 3.05364 19.1129C4.18561 18.6157 5.76677 18.5256 6.97681 18.3899V18.1191C6.97681 17.6212 7.01644 17.0351 6.72339 16.6058C6.46937 16.2214 5.98115 16.0635 5.55238 16.0635C4.7561 16.0635 4.04809 16.4712 3.87514 17.3162C3.83911 17.5041 3.70159 17.6909 3.51243 17.7005L1.48989 17.4813C1.31875 17.4423 1.12898 17.3054 1.17823 17.0447C1.63642 14.6253 3.79768 13.871 5.76196 13.8506H5.9169C6.92216 13.8632 8.20606 14.1388 8.98794 14.8889C10.0028 15.8377 9.90492 17.1024 9.90492 18.4806V21.7312C9.90492 22.7094 10.3115 23.1382 10.6928 23.6648C10.8255 23.8552 10.8561 24.0804 10.6862 24.2197C10.2598 24.577 9.50198 25.2346 9.08582 25.6057L9.08101 25.6009ZM6.97681 20.5133C6.97681 21.3264 6.99662 22.0038 6.58647 22.7268C6.25499 23.3135 5.72773 23.675 5.14163 23.675C4.34174 23.675 3.87334 23.0655 3.87334 22.1617C3.87334 20.3842 5.46771 20.0611 6.97681 20.0611V20.5133Z" fill="black"/>
<path fill-rule="evenodd" clip-rule="evenodd" d="M96.7755 29.4687C96.7755 29.1972 96.7755 28.9534 96.7755 28.682C96.7755 28.458 96.8854 28.3037 97.119 28.3175C97.555 28.3793 98.1717 28.4412 98.6095 28.3511C99.1812 28.2322 99.5913 27.8268 99.8339 27.2714C100.176 26.4895 100.402 25.859 100.545 25.4452L96.2038 14.6912C96.1306 14.5086 96.1089 14.1699 96.4735 14.1699H97.991C98.2804 14.1699 98.3981 14.3537 98.463 14.5338L101.61 23.2689L104.615 14.5338C104.676 14.3549 104.799 14.1699 105.086 14.1699H106.517C106.879 14.1699 106.859 14.508 106.787 14.6912L102.48 25.7809C101.923 27.257 101.181 29.608 99.5091 30.0163C98.6707 30.2355 97.6132 30.1562 96.9923 29.8962C96.8356 29.8176 96.7755 29.6074 96.7755 29.4687Z" fill="black"/>
<path fill-rule="evenodd" clip-rule="evenodd" d="M94.7502 24.9716C94.7502 25.1716 94.5863 25.3355 94.3851 25.3355H93.315C93.0838 25.3355 92.9259 25.1686 92.8964 24.9716L92.7889 24.2432C92.2971 24.6593 91.6936 25.025 91.039 25.2797C89.7804 25.7685 88.3295 25.8495 87.0996 25.0941C86.2103 24.5482 85.7383 23.4811 85.7383 22.3804C85.7383 21.5288 86.0007 20.6845 86.5826 20.0714C87.3591 19.2337 88.4844 18.8223 89.8434 18.8223C90.6643 18.8223 91.8389 18.919 92.6935 19.1982V17.7324C92.6935 16.2419 92.0659 15.5969 90.4115 15.5969C89.1468 15.5969 88.1794 15.7879 86.833 16.2065C86.6174 16.2137 86.4913 16.0497 86.4913 15.8498V15.0138C86.4913 14.8133 86.6625 14.6193 86.848 14.5605C87.8095 14.1413 89.1714 13.8801 90.6193 13.832C92.5067 13.832 94.7502 14.2578 94.7502 17.1607V24.9716ZM92.6935 22.8314V20.6197C91.9752 20.4233 90.7868 20.3416 90.3268 20.3416C89.6002 20.3416 88.8045 20.5134 88.389 20.9608C88.0785 21.2886 87.938 21.7594 87.938 22.2146C87.938 22.8031 88.1415 23.3934 88.6171 23.6853C89.1696 24.0606 90.0266 24.015 90.8319 23.7862C91.6059 23.5664 92.3325 23.1779 92.6935 22.8314Z" fill="black"/>
<path fill-rule="evenodd" clip-rule="evenodd" d="M78.9704 15.6292C81.3449 15.6292 81.9916 17.4962 81.9916 19.6341C82.0048 21.0753 81.74 22.3604 80.9936 23.096C80.4351 23.6467 79.8111 23.7968 78.8719 23.7968C78.036 23.7968 76.9365 23.3609 76.115 22.7537V16.6411C76.9701 15.9841 78.0612 15.6292 78.9704 15.6292ZM75.7511 29.8518H74.3176C74.1171 29.8518 73.9531 29.6879 73.9531 29.4879C73.9531 24.5097 73.9531 19.5308 73.9531 14.5525C73.9531 14.3525 74.1171 14.1886 74.3176 14.1886H75.4148C75.6454 14.1886 75.8033 14.3555 75.8327 14.5525L75.948 15.335C76.9755 14.4228 78.2984 13.8379 79.5589 13.8379C83.0894 13.8379 84.2502 16.7468 84.2502 19.7716C84.2502 23.0078 82.4744 25.608 79.4713 25.608C78.2066 25.608 77.0242 25.1414 76.115 24.3307V29.4879C76.115 29.6879 75.951 29.8518 75.7511 29.8518Z" fill="black"/>
</g>
</g>
<defs>
<clipPath id="clip0_3251_8513">
<rect width="106" height="20.3353" fill="white" transform="translate(0.828125 13.832)"/>
</clipPath>
</defs>
</svg>
