<svg width="49" height="48" viewBox="0 0 49 48" fill="none" xmlns="http://www.w3.org/2000/svg">
<g clip-path="url(#clip0_3251_6552)">
<path d="M0.214844 0H48.2148V48H0.214844" fill="black"/>
<path d="M34.6211 9.28125H13.8086C11.7461 9.28125 10.9961 10.0312 10.9961 12.0938V35.9062C10.9961 37.9688 11.7461 38.7188 13.8086 38.7188H34.6211C36.6836 38.7188 37.4336 37.9688 37.4336 35.9062V12.0938C37.4336 10.0312 36.5898 9.28125 34.6211 9.28125Z" fill="black" stroke="white" stroke-width="1.5"/>
<path d="M17.2773 26.625C22.5273 24 26.0898 23.7188 27.3086 24.2812C28.1523 24.6562 28.1523 25.6875 28.1523 25.6875V34.9688H31.2461V25.5938C31.2461 25.5938 31.1523 22.5938 28.7148 21.4688C26.2773 20.3438 22.9023 21.375 20.4648 22.0312V13.125H17.2773M28.9023 18.1875C28.9023 18.1875 30.9648 16.125 31.2461 13.125H28.0586C27.5898 15.8438 25.7148 18.1875 25.7148 18.1875M17.2773 34.875L20.7461 31.7812L17.2773 28.6875" fill="white"/>
</g>
<defs>
<clipPath id="clip0_3251_6552">
<rect x="0.214844" width="48" height="48" rx="8" fill="white"/>
</clipPath>
</defs>
</svg>
