<svg width="48" height="48" viewBox="0 0 48 48" fill="none" xmlns="http://www.w3.org/2000/svg">
<g clip-path="url(#clip0_3251_11279)">
<path d="M41.3709 1.99472C41.4236 1.99134 41.4762 2.00281 41.5227 2.02785C41.5692 2.05288 41.6078 2.09047 41.634 2.13633C41.6602 2.1822 41.673 2.2345 41.6709 2.28728C41.6689 2.34006 41.6521 2.39121 41.6224 2.4349L30.7454 17.2099C30.706 17.2543 30.6576 17.29 30.6034 17.3143C30.5492 17.3387 30.4904 17.3513 30.431 17.3513C30.3716 17.3513 30.3129 17.3387 30.2587 17.3143C30.2045 17.29 30.1561 17.2543 30.1167 17.2099L26.2814 12.9346C26.2351 12.8866 26.1787 12.8496 26.1162 12.8263C26.0538 12.8031 25.9869 12.7941 25.9205 12.8002C25.8541 12.8062 25.79 12.8271 25.7327 12.8613C25.6755 12.8954 25.6267 12.942 25.5899 12.9976L23.2635 15.9525C23.2273 16.0342 23.2141 16.1241 23.2252 16.2127C23.2363 16.3014 23.2713 16.3853 23.3265 16.4555L30.2424 23.6229C30.2818 23.6674 30.3302 23.703 30.3844 23.7274C30.4386 23.7518 30.4973 23.7645 30.5568 23.7645C30.6162 23.7645 30.675 23.7518 30.7292 23.7274C30.7834 23.703 30.8318 23.6674 30.8712 23.6229L44.4515 8.34509C44.4907 8.3029 44.5415 8.27331 44.5976 8.26009C44.6536 8.24687 44.7123 8.2506 44.7662 8.27083C44.8201 8.29105 44.8668 8.32684 44.9003 8.37366C44.9339 8.42048 44.9527 8.47621 44.9545 8.53376V45.6915C44.9571 45.7334 44.9507 45.7754 44.9358 45.8148C44.9209 45.8541 44.8978 45.8898 44.8681 45.9195C44.8383 45.9492 44.8026 45.9723 44.7633 45.9872C44.724 46.002 44.6819 46.0084 44.64 46.0058H3.27015C3.22819 46.0084 3.18616 46.002 3.14684 45.9872C3.10752 45.9723 3.07181 45.9492 3.04207 45.9195C3.01234 45.8898 2.98925 45.8541 2.97435 45.8148C2.95945 45.7754 2.95308 45.7334 2.95564 45.6915V2.30923C2.95305 2.26725 2.95941 2.22521 2.9743 2.18587C2.98919 2.14654 3.01227 2.11082 3.04201 2.08108C3.07174 2.05135 3.10746 2.02827 3.14679 2.01338C3.18613 1.99849 3.22817 1.99213 3.27015 1.99472H41.3709ZM30.6825 27.081C29.7563 27.0647 28.8363 27.2362 27.978 27.5851C27.1198 27.934 26.3412 28.4531 25.689 29.1111C25.0369 29.7691 24.5247 30.5524 24.1835 31.4137C23.8423 32.275 23.6791 33.1965 23.7036 34.1226C23.7036 38.4609 26.8472 41.2273 30.9339 41.2273C32.8257 41.2744 34.6809 40.7002 36.2154 39.5926C36.2842 39.5301 36.3284 39.445 36.3399 39.3527C36.3515 39.2604 36.3296 39.1671 36.2782 39.0896L35.1465 37.392C35.0851 37.3215 34.9998 37.2762 34.907 37.2646C34.8142 37.253 34.7204 37.276 34.6435 37.3292C33.6599 38.0009 32.5022 38.3723 31.3114 38.3981C29.1107 38.3981 27.7274 37.0148 27.4761 35.3801C27.4783 35.3475 27.4923 35.3168 27.5154 35.2937C27.5385 35.2706 27.5692 35.2567 27.6018 35.2545H37.0956C37.1934 35.2478 37.2856 35.2059 37.3549 35.1365C37.4243 35.0672 37.4662 34.975 37.4728 34.8771V34.4998C37.4728 30.0988 34.7063 27.0809 30.6825 27.0809V27.081ZM21.3146 24.6918C19.4049 23.1308 16.9885 22.3254 14.5242 22.4284C10.2489 22.4284 7.60829 24.9433 7.60829 27.9612C7.60829 34.8143 18.0451 32.6137 18.0451 35.8203C18.0451 36.8262 17.0391 37.8322 14.9015 37.8322C12.8713 37.8489 10.9126 37.0834 9.43168 35.6945C9.38798 35.6536 9.33605 35.6225 9.27936 35.6033C9.22268 35.5842 9.16255 35.5773 9.103 35.5833C9.04346 35.5892 8.98587 35.6078 8.9341 35.6378C8.88234 35.6679 8.83758 35.7086 8.80283 35.7573L7.16827 38.0207C7.11694 38.0983 7.09508 38.1916 7.10663 38.2839C7.11819 38.3762 7.16241 38.4612 7.23127 38.5237C8.92883 40.0954 11.3181 41.1645 14.6502 41.1645C19.5542 41.1645 21.9434 38.6494 22.0691 35.3801C22.0691 28.5899 11.6323 30.539 11.6323 27.6469C11.6323 26.578 12.5754 25.8235 14.21 25.8235C16.012 25.7988 17.767 26.3986 19.177 27.521C19.218 27.5547 19.2654 27.5797 19.3162 27.5948C19.3671 27.6098 19.4204 27.6146 19.4731 27.6087C19.5259 27.6029 19.5769 27.5865 19.6232 27.5607C19.6695 27.5348 19.7102 27.5 19.7428 27.4582L21.3776 25.2576C21.4112 25.2166 21.4362 25.1693 21.4513 25.1184C21.4664 25.0676 21.4711 25.0142 21.4653 24.9615C21.4594 24.9088 21.4431 24.8577 21.4172 24.8114C21.3914 24.7651 21.3564 24.7244 21.3146 24.6918ZM30.7454 29.8473C32.4554 29.7516 33.9318 31.033 34.0776 32.7395C34.0754 32.7721 34.0615 32.8028 34.0384 32.8259C34.0153 32.849 33.9846 32.863 33.952 32.8652H27.5388C27.5062 32.863 27.4755 32.849 27.4524 32.8259C27.4293 32.8028 27.4153 32.7721 27.4131 32.7395C27.6234 31.0664 29.0595 29.82 30.7454 29.8473Z" fill="black"/>
</g>
<defs>
<clipPath id="clip0_3251_11279">
<rect width="42" height="44.0119" fill="white" transform="translate(2.95508 1.99414)"/>
</clipPath>
</defs>
</svg>
