<svg width="70" height="48" viewBox="0 0 70 48" fill="none" xmlns="http://www.w3.org/2000/svg">
<g clip-path="url(#clip0_3251_8492)">
<path d="M69.0664 24.4151C69.0664 19.5084 66.6897 15.6367 62.1472 15.6367C57.5856 15.6367 54.8256 19.5084 54.8256 24.3767C54.8256 30.1459 58.0839 33.0592 62.7606 33.0592C65.0414 33.0592 66.7664 32.5417 68.0697 31.8134V27.9801C66.7664 28.6317 65.2714 29.0342 63.3739 29.0342C61.5147 29.0342 59.8664 28.3826 59.6556 26.1209H69.0281C69.0281 25.8717 69.0664 24.8751 69.0664 24.4151ZM59.5981 22.5942C59.5981 20.4284 60.9206 19.5276 62.1281 19.5276C63.2972 19.5276 64.5431 20.4284 64.5431 22.5942H59.5981ZM47.4272 15.6367C45.5489 15.6367 44.3414 16.5184 43.6706 17.1317L43.4214 15.9434H39.2047V38.2917L43.9964 37.2759L44.0156 31.8517C44.7056 32.3501 45.7214 33.0592 47.4081 33.0592C50.8389 33.0592 53.9631 30.2992 53.9631 24.2234C53.9439 18.6651 50.7814 15.6367 47.4272 15.6367ZM46.2772 28.8426C45.1464 28.8426 44.4756 28.4401 44.0156 27.9417L43.9964 20.8309C44.4947 20.2751 45.1847 19.8917 46.2772 19.8917C48.0214 19.8917 49.2289 21.8467 49.2289 24.3576C49.2289 26.9259 48.0406 28.8426 46.2772 28.8426ZM32.6114 14.5059L37.4222 13.4709V9.58008L32.6114 10.5959V14.5059ZM32.6114 15.9626H37.4222V32.7334H32.6114V15.9626ZM27.4556 17.3809L27.1489 15.9626H23.0089V32.7334H27.8006V21.3676C28.9314 19.8917 30.8481 20.1601 31.4422 20.3709V15.9626C30.8289 15.7326 28.5864 15.3109 27.4556 17.3809ZM17.8722 11.8034L13.1956 12.8001L13.1764 28.1526C13.1764 30.9892 15.3039 33.0784 18.1406 33.0784C19.7122 33.0784 20.8622 32.7909 21.4947 32.4459V28.5551C20.8814 28.8042 17.8531 29.6859 17.8531 26.8492V20.0451H21.4947V15.9626H17.8531L17.8722 11.8034ZM4.91557 20.8309C4.91557 20.0834 5.52891 19.7959 6.54474 19.7959C8.00141 19.7959 9.84141 20.2367 11.2981 21.0226V16.5184C9.70724 15.8859 8.13557 15.6367 6.54474 15.6367C2.65391 15.6367 0.0664062 17.6684 0.0664062 21.0609C0.0664062 26.3509 7.34974 25.5076 7.34974 27.7884C7.34974 28.6701 6.58307 28.9576 5.50974 28.9576C3.91891 28.9576 1.88724 28.3059 0.27724 27.4242V31.9859C2.05974 32.7526 3.86141 33.0784 5.50974 33.0784C9.49641 33.0784 12.2372 31.1042 12.2372 27.6734C12.2181 21.9617 4.91557 22.9776 4.91557 20.8309Z" fill="black"/>
</g>
<defs>
<clipPath id="clip0_3251_8492">
<rect width="69" height="28.8398" fill="white" transform="translate(0.0664062 9.58008)"/>
</clipPath>
</defs>
</svg>
