<svg width="48" height="48" viewBox="0 0 48 48" fill="none" xmlns="http://www.w3.org/2000/svg">
<path fill-rule="evenodd" clip-rule="evenodd" d="M45.0844 3.05957H41.0414V3.08368L6.88591 3.08368V3.07794H3.08398V44.8983H6.88591V14.9746H33.4304V33.0494H25.9391V37.3303H35.9277V37.3063H37.4734V10.6701H33.4304V10.6938L6.88591 10.6938V7.3645L41.0414 7.3645V40.6595H22.491V29.7197H29.7445V29.7197H29.8633V18.3041H25.8203V18.3042L22.491 18.3042V18.3041H18.2102V40.6595V44.9404H22.491H45.0843V44.9165H45.0844V3.05957ZM14.6422 18.3041H10.5992V44.9404H14.6422V18.3041ZM22.491 25.6767H25.8203V22.3472H22.491V25.6767Z" fill="black"/>
</svg>
