<svg width="47" height="48" viewBox="0 0 47 48" fill="none" xmlns="http://www.w3.org/2000/svg">
<g clip-path="url(#clip0_3251_3023)">
<path d="M0.695312 1H46.6953V47H0.695312" fill="black"/>
<path d="M23.1289 42.3999C22.9492 40.7828 22.8204 39.3752 22.7426 38.1773C22.5629 38.0874 7.64882 26.857 20.5863 10.173C21.7243 8.79539 22.7426 7.46271 23.641 6.17495C23.668 6.13901 23.7129 6.13002 23.7488 6.17495C24.7671 7.61245 25.7254 8.87026 26.6238 9.94838C39.8309 26.5695 25.0066 37.9796 24.6473 38.1593C24.5275 39.6567 24.3957 41.0703 24.2519 42.3999M22.8414 36.9734C22.9612 37.1531 23.2457 37.4436 23.6949 37.8449C24.1142 37.4855 24.3987 37.195 24.5484 36.9734L23.7398 18.807C23.7398 18.7441 23.65 18.7441 23.65 18.807" fill="white"/>
</g>
<defs>
<clipPath id="clip0_3251_3023">
<rect x="0.695312" y="1" width="46" height="46" rx="23" fill="white"/>
</clipPath>
</defs>
</svg>
