<svg width="58" height="48" viewBox="0 0 58 48" fill="none" xmlns="http://www.w3.org/2000/svg">
<g clip-path="url(#clip0_3251_6426)">
<path d="M38.2324 13.7174L43.1872 8.76264L43.5174 6.67635C34.4884 -1.53365 20.1358 -0.602728 11.9966 8.6188C9.73574 11.18 8.05847 14.3731 7.16406 17.6704L8.93863 17.4204L18.848 15.7863L19.613 15.0039C24.0209 10.1629 31.4739 9.51165 36.5634 13.6306L38.2324 13.7174Z" fill="#34343D"/>
<path d="M50.2453 17.525C49.1064 13.3311 46.7683 9.56082 43.5173 6.67676L36.5633 13.6308C39.4997 16.0301 41.1725 19.6447 41.1008 23.4359V24.6703C44.5188 24.6703 47.29 27.4412 47.29 30.8592C47.29 34.2775 44.5188 36.9789 41.1008 36.9789H28.7053L27.4883 38.3002V45.7235L28.7053 46.8883H41.1008C49.9915 46.9575 57.255 39.8759 57.3242 30.9853C57.3661 25.5963 54.7091 20.5442 50.2453 17.525Z" fill="#83838E"/>
<path d="M16.3257 46.8886H28.7038V36.979H16.3257C15.4438 36.9788 14.5896 36.7893 13.7876 36.4229L12.0316 36.9617L7.04205 41.9165L6.60742 43.6028C9.40554 45.7156 12.8195 46.9037 16.3257 46.8886Z" fill="#5A5A65"/>
<path d="M16.3266 14.7433C7.43571 14.7963 0.271519 22.0468 0.324511 30.9375C0.354124 35.9023 2.67287 40.5758 6.60832 43.6024L13.7885 36.4224C10.6734 35.015 9.2891 31.349 10.6965 28.234C12.1037 25.1191 15.77 23.7348 18.8847 25.142C20.2574 25.7621 21.3566 26.8616 21.9767 28.234L29.1569 21.054C26.1019 17.0602 21.3548 14.7252 16.3266 14.7433Z" fill="black"/>
</g>
<defs>
<clipPath id="clip0_3251_6426">
<rect width="57" height="45.8672" fill="white" transform="translate(0.324219 1.06641)"/>
</clipPath>
</defs>
</svg>
