<svg width="80" height="48" viewBox="0 0 80 48" fill="none" xmlns="http://www.w3.org/2000/svg">
<g clip-path="url(#clip0_3251_8536)">
<path d="M48.7224 28.2026L11.0595 40.0419L0.0664062 10.1746L39.6073 7.95117L48.7224 28.2026Z" fill="black"/>
<path d="M15.5425 22.2742C15.5425 21.1575 14.715 20.5991 13.0687 20.5991H12.4729V24.0356H13.0212C13.8393 24.0356 14.4646 23.891 14.8978 23.6119C15.3216 23.3233 15.5425 22.8808 15.5425 22.2742ZM20.2397 22.2166C20.2397 22.9765 20.0763 23.6406 19.7295 24.2184C19.3928 24.7962 18.9214 25.2775 18.3149 25.6625C17.7083 26.0475 16.9772 26.336 16.1203 26.5288C15.2633 26.721 14.32 26.8167 13.2709 26.8167H12.501V30.6676H7.62109V17.8268H13.358C15.5044 17.8268 17.1888 18.193 18.4113 18.9147C19.6338 19.6465 20.2397 20.7438 20.2397 22.2166ZM32.3387 30.6482C31.5882 30.7928 30.7319 30.8598 29.7786 30.8598C28.4215 30.8598 27.2185 30.7058 26.1499 30.3978C25.0908 30.0899 24.1863 29.6473 23.4546 29.0789C22.7327 28.5329 22.1546 27.8195 21.7701 27.0002C21.3852 26.182 21.193 25.2675 21.193 24.2666C21.193 23.2758 21.3952 22.3706 21.809 21.5525C22.2229 20.7325 22.8148 20.0154 23.5416 19.4536C24.2827 18.8765 25.1685 18.424 26.2075 18.1066C27.2379 17.7886 28.3733 17.6346 29.6052 17.6346C30.5585 17.6346 31.4436 17.6634 32.2142 17.8274C32.9935 18.0002 33.0029 18.0196 33.6288 18.2412L33.6195 21.6871C33.1028 21.4026 32.5575 21.1737 31.9926 21.0042C31.3954 20.8207 30.7507 20.7344 30.0578 20.7344C28.9511 20.7344 28.056 21.0423 27.3624 21.6482C26.6695 22.2548 26.3233 23.1211 26.3233 24.2572C26.3233 24.8444 26.4291 25.3545 26.6507 25.7877C26.8717 26.2296 27.1609 26.5958 27.5264 26.885C27.9103 27.1837 28.3481 27.4057 28.8159 27.5391C29.3073 27.6931 29.8362 27.76 30.4139 27.76C31.0011 27.76 31.5688 27.7031 32.1372 27.5779C32.6949 27.4527 33.2921 27.27 33.9274 27.039L33.9368 30.2539C33.1568 30.4748 33.0899 30.5036 32.3387 30.6482ZM35.9386 17.8274H40.8573V30.6583H35.9386V17.8274ZM41.3862 13.8132C41.3862 14.6795 41.0984 15.353 40.53 15.8444C39.9622 16.3352 39.2499 16.5855 38.403 16.5855C37.5661 16.5855 36.8531 16.3445 36.276 15.8444C35.6982 15.3537 35.4191 14.6701 35.4191 13.8132C35.4191 12.9281 35.7076 12.2446 36.276 11.7538C36.8437 11.2624 37.5561 11.0127 38.403 11.0127C39.2398 11.0127 39.9529 11.2624 40.53 11.7538C41.0984 12.2446 41.3862 12.9281 41.3862 13.8132Z" fill="white"/>
<path d="M61.6207 18.6264C61.6207 20.349 61.1487 21.6679 60.196 22.6019C59.2426 23.5352 57.9144 23.9971 56.2011 23.9971H52.8711V13.6983H56.4422C58.0978 13.6983 59.3779 14.1214 60.273 14.969C61.1681 15.8159 61.6207 17.0284 61.6207 18.6264ZM58.7231 18.7229C58.7231 17.7789 58.5403 17.0766 58.1648 16.6247C57.7898 16.1721 57.2214 15.9411 56.4609 15.9411H55.6528V21.7162H56.2688C57.1157 21.7162 57.7316 21.4658 58.1266 20.975C58.531 20.4843 58.7231 19.7331 58.7231 18.7229ZM70.2062 20.8692C70.2062 21.5046 70.0429 22.0723 69.7155 22.5731C69.3874 23.0732 68.9255 23.4582 68.3096 23.728C67.7037 24.0072 66.982 24.1417 66.1638 24.1417C65.4803 24.1417 64.9025 24.0935 64.4406 23.9971C63.9379 23.8897 63.4501 23.7217 62.9878 23.497V21.0132C63.5167 21.283 64.075 21.4952 64.6428 21.6492C65.2205 21.8032 65.7401 21.8795 66.2214 21.8795C66.6352 21.8795 66.9338 21.8126 67.1259 21.6679C67.3187 21.5233 67.4151 21.3406 67.4151 21.119C67.4181 20.9876 67.3774 20.8591 67.2993 20.7534C67.2223 20.6476 67.0971 20.5419 66.9244 20.4361C66.7503 20.3303 66.2984 20.1087 65.5573 19.7719C64.8831 19.464 64.383 19.1654 64.0462 18.8862C63.7233 18.6178 63.4663 18.2788 63.2951 17.8954C63.1317 17.5198 63.0541 17.0866 63.0541 16.5765C63.0541 15.6231 63.4009 14.8827 64.0938 14.3531C64.7874 13.8235 65.7307 13.5537 66.9431 13.5537C68.0116 13.5537 69.0989 13.8041 70.2062 14.2948L69.3493 16.4412C68.3872 15.9987 67.5497 15.7771 66.8568 15.7771C66.4906 15.7771 66.2308 15.8447 66.0668 15.9699C65.9034 16.0951 65.817 16.2585 65.817 16.4412C65.817 16.6434 65.9228 16.8262 66.1344 16.9802C66.3466 17.1442 66.9143 17.4327 67.8382 17.8565C68.724 18.2609 69.3399 18.684 69.686 19.146C70.0328 19.5986 70.2062 20.1763 70.2062 20.8692ZM78.532 20.8692C78.532 21.5046 78.3687 22.0723 78.0413 22.5731C77.7139 23.0732 77.252 23.4582 76.6354 23.728C76.0295 24.0072 75.3078 24.1417 74.4896 24.1417C73.8061 24.1417 73.2283 24.0935 72.7664 23.9971C72.2637 23.8897 71.7759 23.7217 71.3136 23.497V21.0132C71.8425 21.283 72.4008 21.4952 72.9686 21.6492C73.5463 21.8032 74.0665 21.8795 74.5472 21.8795C74.961 21.8795 75.2596 21.8126 75.4517 21.6679C75.6445 21.5233 75.7409 21.3406 75.7409 21.119C75.7439 20.9876 75.7032 20.8591 75.6251 20.7534C75.5481 20.6476 75.4229 20.5419 75.2502 20.4361C75.0761 20.3303 74.6242 20.1087 73.8831 19.7719C73.2096 19.464 72.7088 19.1654 72.372 18.8862C72.0491 18.6178 71.7921 18.2788 71.6209 17.8954C71.4575 17.5198 71.3805 17.0866 71.3805 16.5765C71.3805 15.6231 71.7273 14.8827 72.4202 14.3531C73.1132 13.8235 74.0565 13.5537 75.2689 13.5537C76.3374 13.5537 77.4247 13.8041 78.532 14.2948L77.6751 16.4412C76.713 15.9987 75.8755 15.7771 75.1826 15.7771C74.817 15.7771 74.5566 15.8447 74.3932 15.9699C74.2299 16.0951 74.1428 16.2585 74.1428 16.4412C74.1428 16.6434 74.2486 16.8262 74.4609 16.9802C74.6724 17.1442 75.2401 17.4327 76.164 17.8565C77.0498 18.2609 77.6657 18.684 78.0118 19.146C78.3687 19.5986 78.532 20.1763 78.532 20.8692ZM54.3339 26.2687C54.0835 26.2687 53.8914 26.3651 53.7562 26.5479C53.6223 26.7306 53.5546 27.0004 53.5546 27.3278C53.5546 28.0208 53.8144 28.3676 54.3339 28.3676C54.5549 28.3676 54.8153 28.3093 55.1326 28.2035V28.7619C54.8605 28.8723 54.5693 28.9278 54.2757 28.9252C53.8238 28.9252 53.4777 28.7913 53.2366 28.5115C52.9956 28.2323 52.8805 27.838 52.8805 27.3278C52.8805 27.0004 52.938 26.7213 53.0539 26.4709C53.169 26.2299 53.3424 26.0377 53.564 25.9125C53.7849 25.7786 54.0454 25.7204 54.3433 25.7204C54.6513 25.7204 54.9499 25.7974 55.2578 25.9413L55.0463 26.4809C54.9318 26.4229 54.8127 26.3745 54.6901 26.3363C54.5649 26.2881 54.4491 26.2687 54.3339 26.2687ZM58.6267 27.3178C58.6267 27.838 58.5015 28.2323 58.2418 28.5115C57.982 28.7907 57.6164 28.9252 57.1445 28.9252C56.6631 28.9252 56.2975 28.7913 56.0472 28.5115C55.7874 28.2323 55.6622 27.838 55.6622 27.3178C55.6622 26.7983 55.7874 26.4039 56.0472 26.1248C56.3069 25.8549 56.6731 25.711 57.1545 25.711C57.6352 25.711 58.0014 25.8449 58.2518 26.1248C58.5015 26.4039 58.6267 26.7983 58.6267 27.3178ZM56.3458 27.3178C56.3458 27.6646 56.4127 27.9337 56.5479 28.1078C56.6825 28.2805 56.8753 28.3769 57.1445 28.3769C57.674 28.3769 57.9345 28.0301 57.9345 27.3278C57.9345 26.6249 57.674 26.2687 57.1445 26.2687C56.8847 26.2687 56.6825 26.3557 56.5479 26.5385C56.4134 26.7019 56.3458 26.9717 56.3458 27.3178ZM60.6004 28.8777L59.8492 26.4327H59.8298C59.8592 26.9328 59.8686 27.2602 59.8686 27.4336V28.8871H59.2815V25.7686H60.186L60.9271 28.1553H60.9371L61.7164 25.7686H62.6216V28.8871H62.0056V27.4048V27.1638C62.0056 27.0774 62.015 26.827 62.0344 26.4421H62.015L61.2063 28.8877H60.6004V28.8777ZM65.5573 26.7306C65.5573 27.0681 65.4515 27.3278 65.2393 27.5006C65.0277 27.6746 64.7291 27.7704 64.3442 27.7704H64.0556V28.8777H63.4009V25.7585H64.4024C64.7773 25.7585 65.0665 25.8355 65.2687 25.9996C65.4515 26.1629 65.5573 26.4133 65.5573 26.7306ZM64.0556 27.2314H64.2765C64.4794 27.2314 64.6334 27.1933 64.7291 27.1062C64.7791 27.0638 64.819 27.0107 64.8456 26.9507C64.8723 26.8908 64.8851 26.8257 64.8831 26.7601C64.8831 26.6061 64.8449 26.4903 64.7586 26.4133C64.6715 26.3363 64.537 26.2982 64.3636 26.2982H64.065V27.2314H64.0556ZM66.1444 28.8777V25.7585H66.8086V28.3381H68.0793V28.8871H66.1444V28.8777ZM68.6182 28.8777V25.7585H69.2823V28.8777H68.6182ZM71.977 28.8777L71.7461 28.1366H70.6106L70.3796 28.8777H69.6673L70.7646 25.7398H71.5733L72.68 28.8777H71.977ZM71.5921 27.5782C71.3805 26.904 71.2647 26.5191 71.2359 26.4327C71.2114 26.3635 71.1921 26.2926 71.1783 26.2205C71.1301 26.4039 70.9956 26.8565 70.774 27.5682H71.5921V27.5782ZM75.846 28.8777H75.0092L73.6521 26.5191H73.6327C73.6615 26.9328 73.6715 27.2314 73.6715 27.4142V28.8871H73.0844V25.7686H73.9212L75.279 28.1071H75.2977C75.2823 27.8217 75.2727 27.536 75.2689 27.2502V25.7686H75.8661V28.8777H75.846ZM77.8391 28.8777H77.175V26.3069H76.3281V25.7585H78.686V26.3075H77.8391V28.8777Z" fill="black"/>
</g>
<defs>
<clipPath id="clip0_3251_8536">
<rect width="79" height="32.1356" fill="white" transform="translate(0.0664062 7.93262)"/>
</clipPath>
</defs>
</svg>
