<svg width="57" height="48" viewBox="0 0 57 48" fill="none" xmlns="http://www.w3.org/2000/svg">
<g clip-path="url(#clip0_3251_6589)">
<path d="M54.7609 36.8604C51.7725 38.4141 36.2911 44.763 32.9951 46.4766C29.6993 48.1907 27.8683 48.1741 25.2647 46.9326C22.661 45.6911 6.18599 39.0536 3.21834 37.6389C1.73495 36.9317 0.955078 36.335 0.955078 35.7712V30.1256C0.955078 30.1256 22.4033 25.4683 25.866 24.2295C29.3285 22.9904 30.5299 22.9456 33.4766 24.0222C36.4234 25.0989 54.0428 28.2697 56.9551 29.3335C56.9551 29.3335 56.9538 34.3759 56.9538 34.8993C56.9542 35.4574 56.2822 36.0697 54.7609 36.8604Z" fill="black"/>
<path d="M54.7599 31.2476C51.7716 32.8006 36.2906 39.1497 32.9947 40.8633C29.6991 42.5775 27.8681 42.5607 25.2646 41.3193C22.6608 40.0787 6.18651 33.4401 3.21895 32.026C0.251394 30.6111 0.18905 29.6374 3.10433 28.4989C6.01939 27.36 22.4033 20.9487 25.8663 19.7097C29.3287 18.4711 30.5299 18.4259 33.4764 19.5028C36.4232 20.5793 51.8118 26.6887 54.7238 27.7523C57.6365 28.8172 57.7482 29.6939 54.7599 31.2476Z" fill="#34343D"/>
<path d="M54.7609 27.7246C51.7725 29.2783 36.2911 35.6272 32.9951 37.3415C29.6993 39.0549 27.8683 39.0383 25.2647 37.7968C22.6608 36.556 6.18599 29.9178 3.21834 28.5031C1.73495 27.7959 0.955078 27.1998 0.955078 26.636V20.9898C0.955078 20.9898 22.4033 16.3327 25.866 15.0936C29.3285 13.8548 30.5299 13.8098 33.4766 14.8864C36.4234 15.9631 54.0428 19.1332 56.9551 20.1973C56.9551 20.1973 56.9538 25.2396 56.9538 25.7637C56.9542 26.3216 56.2822 26.9339 54.7609 27.7246Z" fill="black"/>
<path d="M54.7599 22.1127C51.7716 23.6661 36.2906 30.0148 32.9947 31.729C29.6991 33.4426 27.8681 33.4258 25.2646 32.1844C22.6608 30.9438 6.18651 24.3054 3.21895 22.8912C0.251394 21.4767 0.18905 20.5027 3.10433 19.3638C6.01939 18.2256 22.4033 11.8139 25.8663 10.575C29.3287 9.33619 30.5299 9.29124 33.4764 10.368C36.4232 11.4445 51.8118 17.5533 54.7238 18.6174C57.6365 19.6819 57.7482 20.5592 54.7599 22.1127Z" fill="#34343D"/>
<path d="M54.7609 18.2513C51.7725 19.8051 36.2911 26.1541 32.9951 27.8684C29.6993 29.5821 27.8683 29.5653 25.2647 28.3238C22.6608 27.083 6.18599 20.4446 3.21834 19.0303C1.73495 18.3229 0.955078 17.7266 0.955078 17.1632V11.5167C0.955078 11.5167 22.4033 6.85994 25.866 5.62106C29.3285 4.38197 30.5299 4.33724 33.4766 5.41378C36.4234 6.49054 54.0428 9.6606 56.9551 10.7247C56.9551 10.7247 56.9538 15.767 56.9538 16.2909C56.9542 16.8484 56.2822 17.4606 54.7609 18.2513Z" fill="black"/>
<path d="M54.7599 12.6388C51.7716 14.1922 36.2906 20.5413 32.9947 22.2551C29.6991 23.9687 27.8681 23.9519 25.2646 22.7109C22.661 21.4699 6.18651 14.832 3.21895 13.4175C0.251394 12.003 0.18905 11.0288 3.10433 9.89014C6.01939 8.75167 22.4033 2.34062 25.8663 1.10135C29.3287 -0.137706 30.5299 -0.182215 33.4764 0.894511C36.4232 1.97124 51.8118 8.0801 54.7238 9.14418C57.6365 10.208 57.7482 11.0853 54.7599 12.6388Z" fill="#34343D"/>
<path d="M35.7982 7.1466L30.9838 7.64517L29.9059 10.2318L28.1649 7.34534L22.6055 6.84697L26.7538 5.35492L25.5092 3.06445L29.393 4.57945L33.0545 3.38378L32.0649 5.75218L35.7982 7.1466Z" fill="#83838E"/>
<path d="M29.6184 19.6961L20.6328 15.979L33.5087 14.0078L29.6184 19.6961Z" fill="#83838E"/>
<path d="M17.1612 8.58398C20.9621 8.58398 24.0431 9.77533 24.0431 11.2447C24.0431 12.7142 20.9621 13.9053 17.1612 13.9053C13.3606 13.9053 10.2793 12.7142 10.2793 11.2447C10.2793 9.77533 13.3606 8.58398 17.1612 8.58398Z" fill="#83838E"/>
<path d="M41.4883 7.85352L49.1086 10.8571L41.4948 13.8577L41.4883 7.85352Z" fill="black"/>
<path d="M33.0586 11.1797L41.4892 7.85352L41.4957 13.8577L40.6692 14.1802L33.0586 11.1797Z" fill="#83838E"/>
</g>
<defs>
<clipPath id="clip0_3251_6589">
<rect width="56" height="48" fill="white" transform="translate(0.955078)"/>
</clipPath>
</defs>
</svg>
