<svg width="61" height="60" viewBox="0 0 61 60" fill="none" xmlns="http://www.w3.org/2000/svg">
<g clip-path="url(#clip0_3251_7310)">
<path d="M43.869 14.4131C43.869 14.4131 40.0834 18.7668 39.1365 18.262L40.9646 14.5551C40.9646 14.5551 39.1374 18.2615 36.6774 17.6311C37.8118 16.1798 38.2496 14.849 38.2496 14.849C38.2496 14.849 36.3615 17.8832 34.0271 17.0625C33.4787 16.8703 34.7091 15.4762 34.7091 15.4762C34.7091 15.4762 33.143 17.0006 32.0705 16.8107C30.9985 16.6223 32.1338 14.6657 32.1338 14.6657C32.1338 14.6657 30.2415 17.6315 29.8623 17.505C29.4845 17.3789 30.0521 15.4228 30.0521 15.4228C30.0521 15.4228 28.6646 17.6939 27.9076 17.5682C27.1505 17.4417 27.9076 15.2343 27.9076 15.2343C27.9076 15.2343 27.0882 17.6943 26.4568 17.505C25.8254 17.3161 25.6993 15.8653 25.6993 15.8653C25.6993 15.8653 25.5287 17.8345 24.6263 18.0093C17.8126 19.335 10.3046 22.2365 0.904297 31.6368C6.61461 28.559 10.1199 24.547 16.3009 21.9004C16.1103 22.6746 16.0132 23.4689 16.0116 24.2662C16.0116 30.3646 21.518 35.3081 28.3107 35.3081C35.1034 35.3081 40.6107 30.3646 40.6107 24.2662C40.6107 22.8004 40.2882 21.4036 39.7098 20.1243C45.811 21.6834 49.0777 24.5132 50.4305 24.5709C56.3621 24.824 60.084 19.0814 60.084 19.0814C60.084 19.0814 56.3621 23.3714 53.6485 22.3307C56.078 20.9118 57.939 17.4417 57.939 17.4417C57.939 17.4417 53.206 22.3307 49.9262 21.6056C52.891 19.2712 54.3418 15.2343 54.3418 15.2343C54.3418 15.2343 50.5768 21.045 48.2223 21.2896C50.9354 18.8925 52.0712 15.4851 52.0712 15.4851C52.0712 15.4851 48.9788 20.0287 46.5821 20.3446C49.7996 17.4421 49.9262 15.6126 49.9262 15.6126C49.9262 15.6126 45.473 21.367 43.6805 20.4703C45.8241 18.1359 47.2759 15.1701 47.2759 15.1701C47.2759 15.1701 43.554 20.2171 42.5443 19.3973C41.8505 19.2707 43.6805 16.9996 43.6805 16.9996C43.6805 16.9996 41.4095 19.0186 40.778 18.5137C41.9134 17.8204 43.869 14.4131 43.869 14.4131ZM31.5807 19.1207C32.6307 19.1245 33.6291 19.1732 34.5802 19.2571C35.318 19.5103 36.0165 19.8389 36.6015 20.2725C36.4557 20.952 36.2282 21.6115 35.9241 22.2365C35.8506 22.2187 35.7753 22.2093 35.6996 22.2084C35.5699 22.2084 35.4415 22.234 35.3217 22.2836C35.2019 22.3333 35.093 22.4061 35.0014 22.4979C34.9098 22.5897 34.8371 22.6986 34.7876 22.8185C34.7381 22.9384 34.7127 23.0668 34.7129 23.1965C34.7129 23.4332 34.7991 23.647 34.9379 23.8176C34.9098 23.8537 34.8798 23.8889 34.8512 23.9245L32.4746 24.7757L32.4652 24.757L34.352 22.1414L31.7612 23.8631C31.7513 23.8542 31.7424 23.8443 31.7321 23.8359L32.6373 20.7961L30.8649 23.2936L30.8246 23.2762L30.7852 20.1234L29.5932 22.9968L28.5999 20.0892L28.6477 23.1646C28.5934 23.1806 28.5399 23.1998 28.4874 23.2186L26.9363 20.4445L27.8199 23.5439C27.7885 23.5636 27.7562 23.5823 27.7257 23.6034L25.5713 22.0368C25.6402 21.8979 25.6783 21.7458 25.6831 21.5908C25.6879 21.4358 25.6592 21.2816 25.599 21.1387C27.4046 19.6809 29.8384 18.96 32.1934 19.2857C31.9932 19.2239 31.7893 19.1686 31.5807 19.1207ZM27.3732 19.3082C26.5168 19.5855 25.7135 20.0055 24.9971 20.5504C24.8014 20.4728 24.5874 20.4536 24.381 20.4952C24.1746 20.5368 23.9847 20.6374 23.8343 20.7848C23.684 20.9321 23.5796 21.12 23.5339 21.3255C23.4882 21.531 23.5031 21.7454 23.5768 21.9426C23.1761 22.4504 22.839 23.0053 22.5732 23.595C21.8564 22.6148 21.352 21.496 21.092 20.31C22.9416 19.8553 25.013 19.5107 27.3732 19.3082ZM20.9115 20.3531C20.9907 21.7907 21.4611 23.1794 22.2718 24.3693C22.1887 24.6212 22.1182 24.8769 22.0604 25.1357C21.861 26.0234 21.8161 26.9389 21.9277 27.8418C21.6857 27.9586 21.4815 28.1413 21.3386 28.3689C21.1958 28.5965 21.12 28.8598 21.1201 29.1286C21.1203 29.5077 21.271 29.8712 21.5391 30.1392C21.8072 30.4073 22.1707 30.558 22.5498 30.5582C22.6248 30.5582 22.6974 30.5517 22.7691 30.54C23.1475 31.2675 23.636 31.932 24.2176 32.5101C24.2143 32.5218 24.2129 32.5322 24.2101 32.5429C20.7366 30.9848 18.316 27.4982 18.316 23.4445C18.316 22.3195 18.7379 21.45 19.4016 20.7726C19.9013 20.6204 20.405 20.4806 20.9115 20.3531ZM36.7712 20.4023C37.6632 21.1228 38.2552 22.1043 38.2552 23.4445C38.2552 25.2051 37.7968 26.8589 36.9962 28.2932C35.8928 27.3835 34.5653 26.787 33.1524 26.5659C33.2298 26.5157 33.3038 26.4628 33.3788 26.4103L35.8187 25.8281L34.2095 25.7456C34.7188 25.2793 35.1653 24.7487 35.5379 24.1673C35.5909 24.1757 35.6448 24.1837 35.6996 24.1837C35.9615 24.1837 36.2127 24.0797 36.398 23.8946C36.5833 23.7095 36.6875 23.4584 36.6877 23.1965C36.6877 22.9059 36.5598 22.6457 36.3591 22.4662C36.5832 21.8118 36.7238 21.1204 36.7712 20.4023ZM25.4841 22.1878L27.0779 24.1898C27.0437 24.2311 27.0113 24.2737 26.9785 24.3164L23.8243 23.1562C23.9448 22.9579 24.0709 22.7634 24.2087 22.5778C24.4343 22.664 24.6822 22.6725 24.9132 22.6018C25.1441 22.5312 25.3454 22.3855 25.4841 22.1878ZM23.821 23.1618L26.5135 25.1531C26.5116 25.1582 26.5097 25.1634 26.5079 25.1686L24.1477 25.2412C23.8188 24.9788 23.5096 24.6924 23.2229 24.3843C23.3838 23.9591 23.584 23.5498 23.821 23.1618ZM34.4345 24.405C33.9841 24.8876 33.4786 25.3157 32.9284 25.6804L32.7929 25.6734L32.7901 25.6612L34.4345 24.405ZM49.9234 25.0251C49.2887 24.9825 48.729 25.2182 48.443 25.9973C45.5087 31.5806 39.3577 34.7029 32.1648 35.744C24.9732 36.7846 19.673 35.2725 15.3202 34.0457C9.59492 32.4318 5.05273 35.3039 0.0839844 32.8115C1.23336 33.7214 2.54445 34.6092 6.32961 34.6209C7.61352 34.6251 11.724 34.4203 12.481 35.0821C13.238 35.745 9.92633 38.8668 9.92633 38.8668C9.92633 38.8668 15.5307 34.1287 16.0773 35.744C16.418 36.749 14.4685 39.4354 14.4685 39.4354C14.4685 39.4354 16.4232 36.7832 17.8754 36.2175C18.8724 35.8284 19.7129 35.8757 20.4305 36.8803C20.904 37.5421 18.1599 40.7601 18.1599 40.7601C18.1599 40.7601 21.8499 37.1639 22.5127 37.3537C23.1755 37.5422 22.5127 40.7601 22.5127 40.7601C22.5127 40.7601 23.8707 37.4995 24.5945 37.2586C25.5882 36.9271 22.3229 44.8298 22.3229 44.8298C22.3229 44.8298 26.3105 37.5187 27.0559 37.3532C28.3332 37.0696 29.1854 42.464 29.1854 42.464C29.1854 42.464 28.5634 37.7507 29.2332 37.4479C33.4698 35.5303 31.0304 45.5868 31.0304 45.5868C31.0304 45.5868 33.8021 38.7623 32.0991 37.2492C36.594 40.2295 36.046 45.5868 36.046 45.5868C36.046 45.5868 37.2277 43.0364 33.9132 36.764C35.7118 36.6693 38.4113 41.4234 38.4113 41.4234C38.4113 41.4234 35.4779 36.2175 37.4654 36.1228C41.4141 35.9353 41.8187 43.0317 41.8187 43.0317C41.8187 43.0317 43.0018 42.0379 39.8312 35.0817C41.8501 33.7889 46.7396 41.5176 46.7396 41.5176C46.7396 41.5176 42.2284 33.9782 42.954 33.4739C43.6787 32.9686 46.3304 35.8711 46.3304 35.8711C46.3304 35.8711 44.311 33.0951 44.8463 32.8115C45.3826 32.527 50.746 38.3311 50.746 38.3311C50.746 38.3311 46.0135 32.6536 46.8334 31.9593C47.319 31.5482 48.7257 32.3081 49.7991 32.9976C48.2945 31.9214 46.1321 30.2376 46.8334 29.8734C48.2851 29.1201 52.418 31.6753 52.418 31.6753C52.418 31.6753 49.9257 29.625 50.3354 29.1201C50.746 28.6153 55.6346 32.3381 55.6346 32.3381C55.6346 32.3381 51.3137 28.9303 51.0924 28.079C50.8721 27.2278 54.5002 28.3631 54.5002 28.3631C54.5002 28.3631 50.4934 26.5021 50.4305 25.9664C50.3668 25.4292 53.0804 26.565 53.0804 26.565C53.0804 26.565 51.3202 25.1189 49.9234 25.0251ZM49.7991 32.9976C50.5332 33.5226 51.1238 33.915 51.1238 33.915C51.1238 33.915 50.5388 33.4725 49.7991 32.9976ZM22.9613 25.2412C23.4504 25.7772 24.0102 26.244 24.6254 26.6287L23.0307 26.9742L25.6323 27.1617C25.8432 27.255 26.0588 27.3379 26.2791 27.4125L23.9612 28.8975C23.9136 28.6077 23.7781 28.3397 23.573 28.1296C23.3679 27.9195 23.1031 27.7777 22.8146 27.7232C22.7214 26.9248 22.7633 26.1163 22.9384 25.3317C22.9454 25.3021 22.9543 25.2717 22.9613 25.2412ZM24.8518 25.7446L26.3096 26.122C26.3063 26.1698 26.3026 26.2176 26.3021 26.2664L25.9688 26.3386C25.581 26.1712 25.2074 25.9726 24.8518 25.7446ZM32.7418 27.4696L33.5593 27.5334C34.6666 27.7712 35.7155 28.2272 36.6446 28.875C34.8666 31.6064 31.7884 33.4148 28.2859 33.4148C27.4154 33.4148 26.5702 33.3023 25.7663 33.0937C25.4991 32.8664 25.2451 32.625 25.007 32.3686C25.4466 31.237 26.1221 30.2076 26.9945 29.3775L26.2468 32.1726L28.2638 29.3123C28.2807 29.3198 28.298 29.3264 28.3154 29.3334L28.0323 32.7051L29.207 29.5659L29.2168 29.5678L30.2166 32.8664L30.4604 29.542L31.951 32.3784L31.0932 29.219L31.1434 29.1909L33.7984 31.2468L32.0368 28.5525L35.0307 29.7187L32.7418 27.4696ZM26.6546 28.0261L24.5241 30.7232L25.2324 30.1518C24.9178 30.6441 24.6581 31.1695 24.458 31.7184C24.0924 31.2391 23.7781 30.7227 23.5205 30.1776C23.6655 30.044 23.7813 29.8818 23.8605 29.7013C23.9397 29.5207 23.9807 29.3257 23.9809 29.1286C23.9809 29.0845 23.9729 29.0423 23.9691 28.9992L26.6546 28.0261Z" fill="black"/>
</g>
<defs>
<clipPath id="clip0_3251_7310">
<rect width="60" height="60" fill="white" transform="translate(0.0839844)"/>
</clipPath>
</defs>
</svg>
