<svg width="59" height="48" viewBox="0 0 59 48" fill="none" xmlns="http://www.w3.org/2000/svg">
<g clip-path="url(#clip0_3251_7870)">
<path d="M57.3672 19.015C56.0612 18.1088 53.0681 17.7689 50.7281 18.222C50.456 15.9565 49.2044 13.9742 47.0277 12.2184L45.776 11.3122L44.9053 12.6148C43.817 14.314 43.2728 16.6928 43.436 18.9583C43.4904 19.7513 43.7625 21.1672 44.5788 22.4133C43.817 22.8664 42.2388 23.4328 40.1709 23.4328H0.826081L0.717243 23.8859C0.336311 26.1514 0.336311 33.2312 4.79866 38.6685C8.17262 42.8031 13.1792 44.8987 19.7638 44.8987C34.0216 44.8987 44.5788 38.0455 49.5309 25.6417C51.49 25.6983 55.6803 25.6417 57.8026 21.3938C57.857 21.2805 57.9658 21.054 58.3468 20.2044L58.5645 19.7513L57.3672 19.015ZM32.2802 3.04297H26.2941V8.7068H32.2802V3.04297ZM32.2802 9.83957H26.2941V15.5034H32.2802V9.83957ZM25.2057 9.83957H19.2196V15.5034H25.2057V9.83957ZM18.1313 9.83957H12.1452V15.5034H18.1313V9.83957ZM11.0568 16.6362H5.07075V22.3H11.0568V16.6362ZM18.1313 16.6362H12.1452V22.3H18.1313V16.6362ZM25.2057 16.6362H19.2196V22.3H25.2057V16.6362ZM32.2802 16.6362H26.2941V22.3H32.2802V16.6362ZM39.3546 16.6362H33.3685V22.3H39.3546V16.6362Z" fill="black"/>
</g>
<defs>
<clipPath id="clip0_3251_7870">
<rect width="58" height="41.9141" fill="white" transform="translate(0.564453 3.04297)"/>
</clipPath>
</defs>
</svg>
