<svg width="53" height="52" viewBox="0 0 53 52" fill="none" xmlns="http://www.w3.org/2000/svg">
<g clip-path="url(#clip0_3251_6663)">
<path d="M17.3681 50.464C16.1604 50.464 15.0197 49.9273 14.2481 48.9544L2.50617 34.3608C1.73456 33.3879 1.43262 32.1466 1.73456 30.9389L5.9281 12.7221C6.19649 11.5144 7.00165 10.5415 8.10875 10.0047L25.0842 1.88598C25.621 1.61759 26.2249 1.4834 26.8288 1.4834C27.4326 1.4834 28.0365 1.61759 28.5733 1.88598L45.5488 9.97114C46.6558 10.5079 47.461 11.4808 47.7294 12.6886L51.9229 30.9053C52.1913 32.1131 51.9229 33.3544 51.1513 34.3273L39.4094 48.9208C38.6378 49.8602 37.4971 50.4305 36.2894 50.4305L17.3681 50.464Z" fill="black"/>
<path d="M26.7954 2.32189C27.2651 2.32189 27.7348 2.42254 28.1709 2.62383L45.1464 10.709C46.0186 11.1451 46.6896 11.9503 46.8909 12.8896L51.0844 31.1064C51.3193 32.0793 51.0844 33.0858 50.447 33.8574L38.7051 48.4509C38.1012 49.2225 37.1619 49.6587 36.189 49.6587H17.3683C16.3954 49.6587 15.4561 49.2225 14.8522 48.4509L3.11025 33.8574C2.50638 33.0858 2.27154 32.0793 2.47284 31.1064L6.66638 12.8896C6.90122 11.9167 7.53864 11.1116 8.4109 10.709L25.3864 2.59028C25.8225 2.42254 26.3257 2.32189 26.7954 2.32189ZM26.7954 0.745117C26.0909 0.745117 25.3864 0.912859 24.7154 1.21479L7.73993 9.3335C6.398 9.97092 5.45864 11.1451 5.12316 12.5877L0.929609 30.8045C0.594125 32.247 0.929609 33.7232 1.86896 34.8974L13.6109 49.4909C14.5167 50.6316 15.8922 51.269 17.3348 51.269H36.1554C37.598 51.269 38.9735 50.6316 39.8793 49.4909L51.6212 34.8974C52.5606 33.7567 52.8961 32.247 52.5606 30.8045L48.367 12.5877C48.0315 11.1451 47.0922 9.97092 45.7503 9.3335L28.8419 1.21479C28.2045 0.912859 27.4999 0.745117 26.7954 0.745117Z" fill="white"/>
<path d="M43.8039 29.6632C43.7703 29.6632 43.7703 29.6632 43.8039 29.6632H43.7703C43.7368 29.6632 43.7032 29.6632 43.7032 29.6296C43.6361 29.6296 43.569 29.5961 43.5019 29.5961C43.2671 29.5625 43.0658 29.529 42.8645 29.529C42.7639 29.529 42.6632 29.529 42.529 29.4954H42.4955C41.791 29.4283 41.2206 29.3612 40.6839 29.1935C40.449 29.0929 40.3819 28.9587 40.3148 28.8245C40.3148 28.7909 40.2813 28.7909 40.2813 28.7574L39.8451 28.6232C40.0464 27.0799 39.9793 25.4696 39.6103 23.8928C39.2413 22.3161 38.6039 20.8399 37.7316 19.498L38.0671 19.1961V19.129C38.0671 18.9612 38.1006 18.7935 38.2348 18.6258C38.6374 18.2567 39.1406 17.9548 39.7445 17.5858C39.8451 17.5187 39.9458 17.4851 40.0464 17.418C40.2477 17.3174 40.4155 17.2167 40.6168 17.0825C40.6503 17.049 40.7174 17.0154 40.7845 16.9483C40.818 16.9148 40.8516 16.9148 40.8516 16.8812C41.3213 16.4787 41.4219 15.8077 41.0864 15.3716C40.9187 15.1367 40.6168 15.0025 40.3148 15.0025C40.0464 15.0025 39.8116 15.1032 39.5768 15.2709C39.5432 15.3045 39.5432 15.3045 39.5097 15.338C39.4426 15.3716 39.409 15.4387 39.3419 15.4722C39.1742 15.6399 39.04 15.7741 38.9058 15.9419C38.8387 16.009 38.7716 16.1096 38.671 16.1767C38.2013 16.6799 37.7651 17.0825 37.329 17.3845C37.2284 17.4516 37.1277 17.4851 37.0271 17.4851C36.96 17.4851 36.8929 17.4851 36.8258 17.4516H36.7587L36.3561 17.7199C35.92 17.2503 35.4503 16.8477 34.9806 16.4451C32.9677 14.8683 30.5187 13.8954 27.969 13.6606L27.9355 13.2245C27.9019 13.1909 27.9019 13.1909 27.8684 13.1574C27.7677 13.0567 27.6335 12.9561 27.6 12.7212C27.5664 12.1845 27.6335 11.5806 27.7006 10.9096V10.8761C27.7006 10.7754 27.7342 10.6412 27.7677 10.5406C27.8013 10.3393 27.8348 10.138 27.8684 9.90317V9.70188V9.60124C27.8684 8.99737 27.3987 8.49414 26.8284 8.49414C26.56 8.49414 26.2916 8.62833 26.0903 8.82962C25.889 9.03091 25.7884 9.2993 25.7884 9.60124V9.66833V9.86962C25.7884 10.1045 25.8219 10.3058 25.889 10.507C25.9226 10.6077 25.9226 10.7083 25.9561 10.8425V10.8761C26.0232 11.547 26.1239 12.1509 26.0568 12.6877C26.0232 12.9225 25.889 13.0232 25.7884 13.1238C25.7548 13.1574 25.7548 13.1574 25.7213 13.1909L25.6877 13.627C25.0839 13.6941 24.48 13.7612 23.8761 13.8954C21.2929 14.4658 19.0116 15.7741 17.2335 17.6528L16.898 17.418H16.831C16.7639 17.418 16.6968 17.4516 16.6297 17.4516C16.529 17.4516 16.4284 17.418 16.3277 17.3509C15.8916 17.049 15.4555 16.6128 14.9858 16.1096C14.9187 16.0425 14.8516 15.9419 14.751 15.8748C14.6168 15.707 14.4826 15.5728 14.3148 15.4051C14.2813 15.3716 14.2142 15.338 14.1471 15.2709C14.1135 15.2374 14.08 15.2374 14.08 15.2038C13.8787 15.0361 13.6103 14.9354 13.3419 14.9354C13.04 14.9354 12.738 15.0696 12.5703 15.3045C12.2348 15.7406 12.3355 16.4116 12.8051 16.8141C12.8387 16.8141 12.8387 16.8477 12.8722 16.8477C12.9393 16.8812 12.9729 16.9483 13.04 16.9819C13.2413 17.1161 13.409 17.2167 13.6103 17.3174C13.711 17.3509 13.8116 17.418 13.9122 17.4851C14.5161 17.8541 15.0193 18.1561 15.4219 18.5251C15.5897 18.6929 15.5897 18.8606 15.5897 19.0283V19.0954L15.9251 19.3974C15.858 19.498 15.791 19.5651 15.7574 19.6658C14.08 22.3161 13.4426 25.4361 13.8787 28.5225L13.4426 28.6567C13.4426 28.6903 13.409 28.6903 13.409 28.7238C13.3419 28.858 13.2413 28.9922 13.04 29.0929C12.5368 29.2606 11.9329 29.3277 11.2284 29.3948H11.1948C11.0942 29.3948 10.96 29.3948 10.8593 29.4283C10.658 29.4283 10.4568 29.4619 10.2219 29.4954C10.1548 29.4954 10.0877 29.529 10.0206 29.529C9.98708 29.529 9.95353 29.529 9.91998 29.5625C9.31611 29.6967 8.94708 30.267 9.04773 30.8038C9.14837 31.2735 9.5845 31.5754 10.1213 31.5754C10.2219 31.5754 10.289 31.5754 10.3897 31.5419C10.4232 31.5419 10.4568 31.5419 10.4568 31.5083C10.5239 31.5083 10.591 31.4748 10.658 31.4748C10.8929 31.4077 11.0606 31.3406 11.2619 31.2399C11.3626 31.2064 11.4632 31.1393 11.5639 31.1058H11.5974C12.2348 30.8709 12.8051 30.6696 13.3419 30.6025H13.409C13.6103 30.6025 13.7445 30.7032 13.8451 30.7703C13.8787 30.7703 13.8787 30.8038 13.9122 30.8038L14.3819 30.7367C15.1871 33.2193 16.7303 35.4335 18.7768 37.0438C19.2464 37.4128 19.7161 37.7148 20.2193 38.0167L20.018 38.4529C20.018 38.4864 20.0516 38.4864 20.0516 38.5199C20.1187 38.6541 20.1858 38.8219 20.1187 39.0567C19.9174 39.5599 19.6155 40.0632 19.2464 40.6335V40.667C19.1793 40.7677 19.1122 40.8348 19.0451 40.9354C18.911 41.1032 18.8103 41.2709 18.6761 41.4722C18.6426 41.5058 18.609 41.5728 18.5755 41.6399C18.5755 41.6735 18.5419 41.707 18.5419 41.707C18.2735 42.2774 18.4748 42.9148 18.978 43.1496C19.1122 43.2167 19.2464 43.2503 19.3806 43.2503C19.7832 43.2503 20.1858 42.9819 20.3871 42.6129C20.3871 42.5793 20.4206 42.5458 20.4206 42.5458C20.4542 42.4787 20.4877 42.4116 20.5213 42.378C20.6219 42.1432 20.6555 41.9754 20.7226 41.7741C20.7561 41.6735 20.7897 41.5728 20.8232 41.4722C21.058 40.8012 21.2258 40.2645 21.5277 39.7948C21.6619 39.5935 21.8297 39.5599 21.9639 39.4929C21.9974 39.4929 21.9974 39.4929 22.031 39.4593L22.2658 39.0232C23.7419 39.5935 25.3522 39.8954 26.9626 39.8954C27.9355 39.8954 28.9419 39.7948 29.8813 39.5599C30.4851 39.4258 31.0555 39.258 31.6258 39.0567L31.8271 39.4258C31.8606 39.4258 31.8606 39.4258 31.8942 39.4593C32.0619 39.4929 32.1961 39.5599 32.3303 39.7612C32.5987 40.2309 32.8 40.8012 33.0348 41.4387V41.4722C33.0684 41.5728 33.1019 41.6735 33.1355 41.7741C33.2026 41.9754 33.2361 42.1767 33.3368 42.378C33.3703 42.4451 33.4039 42.4787 33.4374 42.5458C33.4374 42.5793 33.471 42.6129 33.471 42.6129C33.6722 43.0154 34.0748 43.2503 34.4774 43.2503C34.6116 43.2503 34.7458 43.2167 34.88 43.1496C35.1148 43.0154 35.3161 42.8141 35.3832 42.5458C35.4503 42.2774 35.4503 41.9754 35.3161 41.707C35.3161 41.6735 35.2826 41.6735 35.2826 41.6399C35.249 41.5728 35.2155 41.5058 35.1819 41.4722C35.0813 41.2709 34.9471 41.1032 34.8129 40.9354C34.7458 40.8348 34.6787 40.7677 34.6116 40.667V40.6335C34.2426 40.0632 33.9071 39.5599 33.7393 39.0567C33.6722 38.8219 33.7393 38.6877 33.7729 38.5199C33.7729 38.4864 33.8064 38.4864 33.8064 38.4529L33.6387 38.0503C35.4168 37.0103 36.9264 35.5341 38.0671 33.7225C38.6709 32.7832 39.1406 31.7432 39.4761 30.7032L39.8787 30.7703C39.9122 30.7703 39.9122 30.7367 39.9458 30.7367C40.08 30.6696 40.1806 30.569 40.3819 30.569H40.449C40.9858 30.6361 41.5561 30.8374 42.1935 31.0722H42.2271C42.3277 31.1058 42.4284 31.1728 42.529 31.2064C42.7303 31.307 42.898 31.3741 43.1329 31.4412C43.2 31.4412 43.2671 31.4748 43.3342 31.4748C43.3677 31.4748 43.4013 31.4748 43.4348 31.5083C43.5355 31.5419 43.6026 31.5419 43.7032 31.5419C44.2064 31.5419 44.6426 31.2064 44.7768 30.7703C44.7768 30.3677 44.4077 29.8309 43.8039 29.6632ZM28.271 28.0193L26.7948 28.7238L25.3187 28.0193L24.9497 26.4425L25.9561 25.1677H27.6L28.6064 26.4425L28.271 28.0193ZM37.0271 24.5303C37.2955 25.6709 37.3626 26.8116 37.2619 27.9187L32.129 26.4425C31.6593 26.3083 31.391 25.8387 31.4916 25.369C31.5251 25.2348 31.5922 25.1006 31.6929 24.9999L35.7522 21.3432C36.3226 22.2825 36.7587 23.3561 37.0271 24.5303ZM34.1419 19.3303L29.7471 22.4503C29.378 22.6851 28.8748 22.618 28.5729 22.249C28.4722 22.1483 28.4387 22.0141 28.4051 21.8799L28.1032 16.4116C30.418 16.6799 32.5316 17.7199 34.1419 19.3303ZM24.4129 16.5793C24.7819 16.5122 25.1174 16.4451 25.4864 16.378L25.1845 21.7458C25.151 22.2154 24.7819 22.618 24.2787 22.618C24.1445 22.618 23.9768 22.5845 23.8761 22.5174L19.4142 19.3303C20.7897 17.9548 22.5006 17.0154 24.4129 16.5793ZM17.8039 21.3432L21.7961 24.8993C22.1651 25.2012 22.1987 25.7716 21.8968 26.1406C21.7961 26.2748 21.6619 26.3754 21.4942 26.409L16.2942 27.9187C16.0929 25.6374 16.5961 23.3225 17.8039 21.3432ZM16.898 30.4348L22.2322 29.529C22.6684 29.4954 23.071 29.7974 23.1716 30.2335C23.2051 30.4348 23.2051 30.6025 23.1381 30.7703L21.0916 35.7019C19.2129 34.4941 17.7032 32.649 16.898 30.4348ZM29.1432 37.1109C28.3716 37.2787 27.6 37.3793 26.7948 37.3793C25.6206 37.3793 24.48 37.178 23.4064 36.8425L26.0568 32.0451C26.3251 31.7432 26.7613 31.609 27.1303 31.8103C27.298 31.9109 27.4322 32.0451 27.5329 32.1793L30.1161 36.8425C29.8142 36.9432 29.4787 37.0103 29.1432 37.1109ZM35.6851 32.4477C34.8464 33.7896 33.7393 34.8632 32.4645 35.7019L30.351 30.6361C30.2503 30.2335 30.418 29.7974 30.8206 29.5961C30.9548 29.529 31.1226 29.4954 31.2903 29.4954L36.658 30.4012C36.4568 31.1393 36.1213 31.8103 35.6851 32.4477Z" fill="white"/>
</g>
<defs>
<clipPath id="clip0_3251_6663">
<rect width="52" height="50.5781" fill="white" transform="translate(0.695312 0.710938)"/>
</clipPath>
</defs>
</svg>
