<svg width="48" height="48" viewBox="0 0 48 48" fill="none" xmlns="http://www.w3.org/2000/svg">
<g clip-path="url(#clip0_3251_2828)">
<path d="M47.084 24C47.084 36.7032 36.7872 47 24.084 47C11.3808 47 1.08398 36.7032 1.08398 24C1.08398 11.2968 11.3822 1 24.084 1C36.7857 1 47.084 11.2983 47.084 24Z" fill="black"/>
<path d="M24.4714 15.0498L30.4227 29.7396L21.4325 22.6577L24.4714 15.0498ZM35.037 33.1242L25.8888 11.0909C25.6272 10.4555 25.0982 10.1191 24.4707 10.1191C23.8432 10.1191 23.2747 10.4555 23.0131 11.0909L12.957 35.2581H16.3948L20.3724 25.2941L32.2425 34.8844C32.7198 35.2704 33.0648 35.445 33.5126 35.445C34.4096 35.445 35.193 34.7723 35.193 33.802C35.193 33.6438 35.1369 33.3923 35.0363 33.1235L35.037 33.1242Z" fill="white"/>
</g>
<defs>
<clipPath id="clip0_3251_2828">
<rect width="46" height="46" fill="white" transform="translate(1.08398 1)"/>
</clipPath>
</defs>
</svg>
