<svg width="68" height="48" viewBox="0 0 68 48" fill="none" xmlns="http://www.w3.org/2000/svg">
<g clip-path="url(#clip0_3251_6562)">
<path d="M20.2553 31.302L22.2916 37.9087C22.749 39.4087 22.9398 40.4559 22.8635 41.0527C23.9772 38.0702 24.7552 34.8198 25.1978 31.302H27.6462C26.5935 37.0291 25.2049 41.1911 23.4814 43.7874C22.1385 45.7879 20.6673 46.7882 19.0653 46.7882C18.6383 46.7882 18.1117 46.6592 17.4868 46.403V45.0224C17.7921 45.0672 18.1503 45.0911 18.5623 45.0911C19.3096 45.0911 19.9119 44.884 20.3701 44.4706C20.9189 43.967 21.1935 43.4009 21.1935 42.7735C21.1935 42.345 20.9793 41.4657 20.5528 40.1356L17.7157 31.302H20.2553ZM4.6719 27.2412L8.4015 38.6203H8.42438L12.1769 27.2412H15.2426C15.914 32.8844 16.3104 38.0478 16.4322 42.7279H13.8474C13.7565 38.3529 13.5045 34.2389 13.0926 30.3852H13.0698L9.13382 42.7279H7.16553L3.25339 30.3852H3.23034C2.94006 34.0862 2.75744 38.2002 2.68128 42.7279H0.324219C0.476537 37.2214 0.85773 32.0596 1.4678 27.2412H4.6719Z" fill="black"/>
<path d="M46.4523 27.0107C50.464 27.0107 52.4701 29.5739 52.4701 34.6973C52.4701 37.4815 51.8668 39.5845 50.6614 41.0054C50.4441 41.265 50.204 41.4892 49.9512 41.6971L52.7903 43.1008L52.7875 43.1006L51.7795 44.8413L48.0824 42.6841C47.4695 42.8656 46.7952 42.9563 46.0604 42.9563C44.0906 42.9563 42.6192 42.3822 41.6463 41.2355C40.5785 39.967 40.045 37.9699 40.045 35.2477C40.045 32.4793 40.6471 30.3842 41.8529 28.9617C42.951 27.6604 44.4845 27.0107 46.4523 27.0107ZM34.1672 27.0334C35.6011 27.0334 36.9049 27.4171 38.0792 28.1817L37.4827 29.5107C36.4779 29.0836 35.487 28.8692 34.5101 28.8692C33.7174 28.8692 33.1065 29.06 32.6807 29.4439C32.2525 29.8245 31.9877 30.3142 31.9877 30.9111C31.9877 31.8283 32.6412 32.6239 33.8478 33.296C34.1724 33.4725 34.5952 33.7079 35.0296 33.9518L35.1196 34.0024C35.1347 34.0108 35.1497 34.0193 35.1647 34.0277L35.2549 34.0785C35.27 34.0869 35.285 34.0954 35.3 34.1038L35.39 34.1546C36.3035 34.6695 37.1629 35.161 37.1629 35.161C38.3695 36.0175 38.9708 36.9306 38.9708 38.4346C38.9708 39.748 38.4895 40.8262 37.5301 41.6698C36.57 42.5097 35.2801 42.9308 33.6648 42.9308C32.154 42.9308 30.6898 42.4461 29.2715 41.4848L29.935 40.1545C31.1555 40.7662 32.26 41.0717 33.2517 41.0717C34.1819 41.0717 34.91 40.8641 35.4368 40.454C35.9623 40.0409 36.2773 39.4648 36.2773 38.7341C36.2773 37.8146 35.6377 37.0286 34.4643 36.3692C34.1596 36.2015 33.7693 35.9826 33.3657 35.7544L33.2758 35.7036C33.1107 35.6102 32.9443 35.5158 32.7815 35.4232L32.693 35.373C31.9008 34.9223 31.2157 34.5285 31.2157 34.5285C30.0426 33.6705 29.4545 32.7499 29.4545 31.233C29.4545 29.9785 29.8931 28.9644 30.7691 28.193C31.6472 27.4199 32.78 27.0334 34.1672 27.0334ZM57.1847 27.2405V40.8222H62.0577V42.7272H54.7134V27.2405H57.1847ZM64.7656 40.8281V41.15H64.2297V42.7256H63.8201V41.15H63.2635V40.8281H64.7656ZM65.7548 40.8281L66.2692 42.1215L66.7417 40.8281H67.3223V42.7256H66.9363V41.2815L66.3984 42.7256H66.1201L65.5814 41.2815H65.5606V42.7256H65.1954V40.8281H65.7548ZM46.1999 28.9153C43.8358 28.9153 42.6531 30.8664 42.6531 34.766C42.6531 36.9997 42.9665 38.6197 43.5922 39.6292C44.1715 40.5636 45.0791 41.0298 46.3147 41.0298C48.6789 41.0298 49.8615 39.0635 49.8615 35.1327C49.8615 32.9302 49.5481 31.3243 48.9233 30.3143C48.3431 29.382 47.436 28.9153 46.1999 28.9153Z" fill="#83838E"/>
<path d="M40.0025 2.12466C40.7869 0.197619 43.529 1.65689 44.5932 2.33016C44.854 2.49847 45.153 2.8543 45.4521 2.98583C45.9186 3.00422 46.3847 3.0406 46.8521 3.06019C47.7285 3.26609 48.5495 3.43441 49.2401 3.82781C52.4499 5.71807 54.5393 7.64431 56.4624 10.8259C56.8731 11.5 57.0785 12.2292 57.4142 12.9585C57.88 14.0455 58.4035 15.1866 58.9442 16.2146C59.1862 16.7018 59.3736 17.2438 59.7098 17.6553C59.841 17.8435 60.2138 17.8989 60.4367 18.0114C61.0527 18.3302 61.7992 18.5723 62.3785 18.9466C63.4607 19.6213 64.507 20.4253 65.458 21.2483C65.8125 21.5661 66.0541 22.0159 66.3918 22.352V22.5216C66.092 22.6136 65.7933 22.7078 65.4943 22.7832C64.8411 22.9511 64.2626 22.9131 63.629 23.081C63.2374 23.1945 62.7513 23.3445 62.3406 23.3824C62.359 23.4009 62.3785 23.4207 62.3785 23.4207C62.6202 24.111 63.9272 24.6724 64.5249 25.0852C65.251 25.6091 65.9237 26.2447 66.4652 26.9744C66.6522 27.1607 66.8392 27.3302 67.0254 27.5158C67.1554 27.704 67.1921 27.9473 67.3237 28.1152V28.1719C67.1779 28.1205 67.0731 28.0224 66.9737 27.9197L66.9144 27.8579C66.8552 27.7962 66.7953 27.7359 66.7272 27.6861C66.3153 27.4046 65.9062 27.0681 65.4943 26.8065C64.7861 26.3572 63.9647 26.0964 63.2374 25.6454C62.8263 25.3834 62.4343 25.0852 62.0424 24.7856C61.6871 24.523 61.2959 24.0185 61.0727 23.6443C60.9411 23.4376 60.9231 23.1945 60.7728 23.0451C60.7997 22.7952 61.0286 22.7209 61.2595 22.6599L61.3127 22.646C61.3923 22.6253 61.4703 22.6046 61.5384 22.5774C62.5085 22.1654 63.6652 22.0159 65.1589 22.0534C65.1027 21.6783 64.1692 21.211 63.8714 20.9865C63.2733 20.5554 62.6401 20.1056 62.0057 19.7133C61.6696 19.5078 61.0902 19.3579 60.7178 19.19C60.2138 18.984 59.0937 18.7782 58.8146 18.3859C58.3402 17.7675 57.9995 17.0298 57.6686 16.2846L57.5785 16.0813C57.5485 16.0135 57.5185 15.9457 57.4884 15.8781C57.0972 14.9808 56.6116 14.0452 56.2196 13.1265C56.0147 12.6783 55.9206 12.2849 55.6961 11.8551C54.3344 9.21725 52.3188 7.00875 49.8749 5.45552C49.0718 4.95017 48.1763 4.48241 47.1878 4.16456C46.6276 3.99545 45.9553 4.089 45.3584 3.95907H44.9656C44.6303 3.86471 44.3504 3.50929 44.0888 3.32178C43.511 2.92958 42.9325 2.66611 42.2414 2.38625C41.9994 2.27391 41.308 2.01244 41.0668 2.21833C40.9172 2.25591 40.8415 2.31229 40.8048 2.46222C40.6561 2.6861 40.7869 3.02314 40.8794 3.22943C41.1597 3.82754 41.5512 4.18296 41.9065 4.68831C42.2227 5.13649 42.6155 5.64183 42.8396 6.12919C43.3232 7.17667 43.5485 8.33729 43.9967 9.38477C44.163 9.77857 44.4257 10.2268 44.6678 10.5822C44.8727 10.864 45.2455 11.0679 45.3584 11.425C45.5833 11.7992 45.0219 13.0342 44.8919 13.4264C44.4058 14.9609 44.4999 17.094 45.0597 18.4243C45.0697 18.4475 45.0796 18.4709 45.0896 18.4944L45.1194 18.5654C45.3238 19.0526 45.5426 19.5772 46.0861 19.7135C46.1236 19.6763 46.0861 19.6958 46.1602 19.6763C46.2918 18.6466 46.3289 17.6551 46.6838 16.8496C46.8887 16.3459 47.2982 15.9898 47.579 15.5786C47.766 15.6906 47.766 16.0284 47.8776 16.2519C48.1204 16.8316 48.3812 17.4672 48.6807 18.0487C49.2951 19.2461 49.9865 20.4069 50.7701 21.4543C51.0324 21.8283 51.4048 22.2402 51.7406 22.5772C51.8901 22.7076 52.0576 22.783 52.17 22.9509H52.2067V23.0075C51.6469 22.801 51.292 22.2219 50.8454 21.8838C50.0049 21.2482 48.9981 20.2937 48.4187 19.3777C48.1763 18.852 47.9143 18.3481 47.6531 17.8249V17.7871C47.5415 17.9366 47.579 18.0849 47.5231 18.311C47.2807 19.2461 47.4673 20.3127 46.6276 20.6489C45.6758 21.0428 44.9656 20.0133 44.6678 19.5456C43.7156 17.9928 43.4548 15.3733 44.1263 13.2587C44.2754 12.7906 44.2957 12.2292 44.5561 11.8554C44.4999 11.5176 44.2395 11.4252 44.0888 11.2181C43.8276 10.8643 43.6039 10.4521 43.3994 10.0591C43.0066 9.29149 42.7271 8.37435 42.4289 7.55116C42.2977 7.21493 42.2602 6.87749 42.1294 6.55925C41.9065 6.07349 41.4954 5.58614 41.1784 5.15635C40.749 4.53866 39.4985 3.34165 40.0025 2.12466ZM46.1232 5.79067C46.173 5.84064 46.2332 5.88435 46.2955 5.92734L46.3706 5.97893C46.4708 6.0482 46.5676 6.12128 46.6272 6.22085C46.7213 6.35239 46.7388 6.48232 46.8517 6.61426C46.8517 7.06404 46.7213 7.36309 46.4581 7.54939C46.4581 7.54939 46.4402 7.56899 46.4218 7.58738C46.2727 7.28753 46.1419 6.98928 45.9916 6.68983C45.8066 6.42836 45.545 6.22086 45.3943 5.92221H45.358V5.88463C45.5833 5.82905 45.8066 5.79067 46.1232 5.79067Z" fill="black"/>
</g>
<defs>
<clipPath id="clip0_3251_6562">
<rect width="67" height="45.6699" fill="white" transform="translate(0.324219 1.16504)"/>
</clipPath>
</defs>
</svg>
