<svg width="47" height="48" viewBox="0 0 47 48" fill="none" xmlns="http://www.w3.org/2000/svg">
<path d="M16.6688 4.13576C16.2479 4.13415 15.8376 4.26715 15.4976 4.51535C15.1577 4.76354 14.9061 5.11392 14.7795 5.5153L2.73175 41.2103C2.62417 41.5102 2.5904 41.8316 2.6333 42.1473C2.67619 42.463 2.79448 42.7638 2.97818 43.0241C3.16193 43.2843 3.4056 43.4965 3.6886 43.6428C3.97171 43.7889 4.28578 43.8647 4.60434 43.864H14.5648C14.9357 43.7976 15.2824 43.6341 15.5695 43.39C15.8566 43.1459 16.0737 42.8299 16.1987 42.4744L18.6013 35.3938L27.1832 43.3983C27.5429 43.6957 27.994 43.8602 28.4606 43.864H39.6218L34.7268 29.8752L20.4566 29.8784L29.1904 4.13576H16.6688Z" fill="#83838E"/>
<path d="M32.6056 5.48699C32.4726 5.09314 32.2194 4.75091 31.8818 4.50848C31.5441 4.26604 31.1389 4.13566 30.7232 4.13574H16.8184C17.234 4.13577 17.6392 4.26616 17.9768 4.50857C18.3145 4.75097 18.5676 5.09317 18.7005 5.48699L30.7679 41.2425C30.8688 41.5413 30.8971 41.8598 30.8504 42.1717C30.8038 42.4837 30.6835 42.78 30.4994 43.0363C30.3155 43.2925 30.0733 43.5013 29.7927 43.6453C29.512 43.7893 29.2012 43.8644 28.8858 43.8645H42.7911C43.1065 43.8643 43.4172 43.7891 43.6978 43.6451C43.9784 43.501 44.2206 43.2923 44.4046 43.036C44.5884 42.7798 44.7086 42.4835 44.7553 42.1717C44.802 41.8598 44.7737 41.5413 44.6727 41.2425L32.6056 5.48699Z" fill="black"/>
</svg>
