<svg width="47" height="56" viewBox="0 0 47 56" fill="none" xmlns="http://www.w3.org/2000/svg">
<g clip-path="url(#clip0_3251_10147)">
<path d="M16.5941 42.7607C16.5941 42.7607 14.5319 43.96 18.0618 44.3658C22.3381 44.8537 24.5237 44.7837 29.2363 43.8918C29.2363 43.8918 30.4753 44.6687 32.2056 45.3415C21.6413 49.8693 8.2964 45.0793 16.5941 42.7607Z" fill="black"/>
<path d="M15.3029 36.8525C15.3029 36.8525 12.9899 38.5647 16.5224 38.9301C21.0906 39.4013 24.6981 39.4399 30.9406 38.2378C30.9406 38.2378 31.804 39.1132 33.1617 39.5919C20.3887 43.3269 6.16198 39.8864 15.3029 36.8525Z" fill="black"/>
<path d="M26.1864 26.8302C28.7894 29.8272 25.5025 32.524 25.5025 32.524C25.5025 32.524 32.1121 29.112 29.0766 24.8392C26.2415 20.8546 24.0674 18.8749 35.8371 12.0488C35.8371 12.0488 17.3625 16.6629 26.1864 26.8302Z" fill="#83838E"/>
<path d="M40.1578 47.1312C40.1578 47.1312 41.6839 48.3887 38.477 49.3615C32.3791 51.2088 13.097 51.7666 7.74045 49.4351C5.81492 48.5974 9.42583 47.4349 10.5617 47.191C11.7463 46.9341 12.4232 46.982 12.4232 46.982C10.2818 45.4735 -1.41781 49.944 6.48037 51.2243C28.0199 54.7174 45.7448 49.6514 40.1578 47.1312Z" fill="black"/>
<path d="M17.5855 30.7305C17.5855 30.7305 7.77733 33.0601 14.1122 33.906C16.7869 34.2641 22.119 34.1831 27.0857 33.767C31.1447 33.4246 35.2205 32.6966 35.2205 32.6966C35.2205 32.6966 33.7893 33.3095 32.7538 34.0166C22.7938 36.6361 3.55289 35.4174 9.09209 32.738C13.7766 30.4736 17.5855 30.7305 17.5855 30.7305Z" fill="black"/>
<path d="M35.1801 40.5651C45.3049 35.3039 40.6235 30.2479 37.3561 30.929C36.5552 31.0957 36.1981 31.2402 36.1981 31.2402C36.1981 31.2402 36.4954 30.7744 37.0633 30.5728C43.5274 28.3002 48.4987 37.2755 34.9766 40.8303C34.9766 40.8303 35.1332 40.6904 35.1801 40.5651Z" fill="black"/>
<path d="M29.0762 1.02637C29.0762 1.02637 34.6835 6.63553 23.758 15.2608C14.9968 22.1798 21.7601 26.1248 23.7543 30.6322C18.6403 26.0181 14.8873 21.9563 17.4051 18.1759C21.1006 12.6267 31.3386 9.93618 29.0762 1.02637Z" fill="#83838E"/>
<path d="M18.5807 54.8226C28.2992 55.4447 43.2232 54.4775 43.5766 49.8789C43.5766 49.8789 42.8972 51.6222 35.5448 53.0066C27.2498 54.5676 17.0191 54.3854 10.9512 53.3849C10.9512 53.3849 12.1934 54.413 18.5807 54.8226Z" fill="black"/>
</g>
<defs>
<clipPath id="clip0_3251_10147">
<rect width="40" height="54.0625" fill="white" transform="translate(3.69531 0.96875)"/>
</clipPath>
</defs>
</svg>
