<svg width="48" height="48" viewBox="0 0 48 48" fill="none" xmlns="http://www.w3.org/2000/svg">
<g clip-path="url(#clip0_3251_6334)">
<path d="M42.9624 3.6555C42.323 5.19061 41.4955 6.64021 40.4989 7.97096C38.3652 5.76124 35.8103 4.0024 32.9855 2.7985C30.1607 1.59461 27.1234 0.970123 24.0532 0.961994C20.9831 0.953866 17.9425 1.56226 15.1114 2.75118C12.2803 3.9401 9.71617 5.68539 7.57075 7.88378C5.42532 10.0822 3.74219 12.689 2.62094 15.55C1.49969 18.4111 0.963097 21.4681 1.04292 24.5404C1.12274 27.6127 1.81735 30.6377 3.08564 33.4366C4.35394 36.2354 6.17016 38.7511 8.42684 40.8349L9.27957 41.5936C12.5155 44.3256 16.4437 46.1077 20.6291 46.7425C24.8145 47.3773 29.0938 46.8402 32.993 45.1905C36.8922 43.5408 40.2593 40.843 42.7212 37.3959C45.1831 33.9487 46.6439 29.8867 46.9418 25.6596C47.605 19.8741 45.8522 12.4761 42.9624 3.6555ZM11.743 41.0246C11.4994 41.3242 11.1726 41.5448 10.8038 41.6586C10.435 41.7723 10.0408 41.7741 9.671 41.6636C9.30121 41.5531 8.97243 41.3354 8.72621 41.038C8.47999 40.7405 8.32738 40.3767 8.28767 39.9924C8.24796 39.6082 8.32293 39.2207 8.50311 38.8791C8.68329 38.5375 8.96059 38.257 9.29996 38.0731C9.63933 37.8892 10.0255 37.8102 10.4098 37.8459C10.794 37.8817 11.1591 38.0307 11.4588 38.2741C11.8516 38.6072 12.1006 39.0794 12.1536 39.5921C12.2066 40.1047 12.0594 40.618 11.743 41.0246ZM42.8202 34.1483C37.1828 41.6885 25.0551 39.1277 17.3331 39.507C17.3331 39.507 15.9593 39.6019 14.5854 39.7916C14.5854 39.7916 15.1065 39.5545 15.7698 39.3174C21.2178 37.4204 23.776 37.0411 27.0921 35.3338C33.2981 32.1565 39.5041 25.1854 40.7358 17.9771C38.3671 24.9009 31.1663 30.8761 24.6287 33.2947C20.1282 34.9545 12.0273 36.5668 12.0273 36.5668L11.6956 36.3771C6.20027 33.6741 6.01077 21.7235 16.054 17.8823C20.4598 16.1751 24.6287 17.1235 29.4135 15.9854C34.4825 14.7998 40.3568 11.006 42.7255 6.02663C45.3784 14.0411 48.5999 26.4658 42.8202 34.1483Z" fill="black"/>
</g>
<defs>
<clipPath id="clip0_3251_6334">
<rect width="46" height="46" fill="white" transform="translate(1.08398 1)"/>
</clipPath>
</defs>
</svg>
