<svg width="53" height="52" viewBox="0 0 53 52" fill="none" xmlns="http://www.w3.org/2000/svg">
<path d="M26.6459 50.9401C13.3734 50.9401 2.12064 39.73 2.01623 26.3745C1.99346 23.1526 2.61034 19.9581 3.83113 16.9763C5.05192 13.9945 6.85233 11.2846 9.12805 9.00368C11.4188 6.65813 14.1526 4.79097 17.1709 3.51056C20.1891 2.23015 23.4316 1.56202 26.7101 1.54493C29.9298 1.5422 33.1182 2.1765 36.0916 3.41129C39.0651 4.64608 41.7649 6.45695 44.0355 8.73962C46.3438 10.99 48.1839 13.675 49.4499 16.6398C50.7159 19.6046 51.3826 22.7906 51.4118 26.0142C51.4731 39.6658 40.4983 50.804 26.8462 50.9429H26.6459V50.9401ZM26.7231 2.83762C23.6157 2.85604 20.5429 3.49135 17.683 4.70667C14.823 5.92199 12.2329 7.69313 10.0628 9.91734C7.90457 12.0754 6.19608 14.6403 5.03638 17.4635C3.87668 20.2867 3.28883 23.3119 3.30689 26.364C3.40276 39.0223 14.0705 49.6364 26.6378 49.6364H26.806C39.7504 49.5186 50.167 38.9658 50.1187 26.0219C50.0899 22.9682 49.457 19.9504 48.2566 17.1424C47.0561 14.3344 45.3119 11.7918 43.1243 9.66099C40.9782 7.4947 38.4235 5.77605 35.6081 4.60474C32.7927 3.43344 29.7724 2.83278 26.7231 2.83762Z" fill="black"/>
<path d="M7.55705 33.4675V19.0383H11.067V20.3314H9.2052V32.2012H11.0675V33.4943L7.55705 33.4675ZM19.4695 26.1099C19.4695 28.7415 17.8717 30.2402 15.7076 30.2402C13.5435 30.2402 12.1014 28.5518 12.1014 26.2464C12.1014 23.8336 13.6134 22.1347 15.8255 22.1347C18.0375 22.1347 19.4695 23.906 19.4695 26.1099ZM13.6134 26.2277C13.6134 27.825 14.415 29.0917 15.7909 29.0917C17.1669 29.0917 17.9575 27.7986 17.9575 26.1688C17.9575 24.6888 17.2278 23.2913 15.7905 23.2913C14.3532 23.2913 13.6 24.6433 13.6 26.2598L13.6134 26.2277ZM20.685 22.4073C21.3716 22.2895 22.0691 22.231 22.7662 22.2334C23.5497 22.1572 24.3372 22.3312 25.0156 22.7303C25.2702 22.8795 25.4801 23.0943 25.6234 23.3523C25.7667 23.6102 25.8383 23.9018 25.8306 24.1968C25.8215 24.5802 25.6917 24.9509 25.4594 25.2561C25.2272 25.5612 24.9046 25.7853 24.5375 25.8962C25.4593 26.083 26.1219 26.8955 26.1219 27.836C26.1267 28.1451 26.0611 28.4512 25.9301 28.7312C25.7991 29.0112 25.6062 29.2577 25.3658 29.4521C24.8101 29.9436 23.8859 30.1817 22.4563 30.1817C21.8687 30.1844 21.2815 30.1495 20.6984 30.0773L20.685 22.4073ZM22.1065 25.5037H22.8357C23.8241 25.5037 24.3799 25.0386 24.3799 24.3735C24.3799 23.7081 23.8241 23.2994 22.9133 23.2994C22.6403 23.291 22.3673 23.3107 22.0984 23.3583L22.1065 25.5037ZM22.1065 29.1104C22.3575 29.1368 22.6115 29.1478 22.8621 29.1421C23.7815 29.1421 24.5935 28.7923 24.5935 27.8494C24.5935 26.9065 23.8054 26.5563 22.817 26.5563H22.1061L22.1065 29.1104ZM28.9461 22.3029H30.3749V27.403C30.3749 29.5699 29.328 30.2938 27.7891 30.2938C27.378 30.2912 26.9701 30.2217 26.5813 30.0879L26.7552 28.9365C27.0408 29.0275 27.3402 29.0726 27.642 29.0783C28.457 29.0783 28.9351 28.7042 28.9351 27.3469L28.9461 22.3029ZM34.4415 26.5506V27.5395H31.4677V26.5506H34.4415ZM41.3847 29.9115C40.7408 30.1683 40.0518 30.2857 39.3624 30.2617C36.8725 30.2617 35.3604 28.7042 35.3604 26.3183C35.2454 24.1436 36.9151 22.287 39.0898 22.1721C39.2421 22.164 39.3973 22.164 39.5492 22.1745C40.2137 22.1469 40.8762 22.2665 41.4891 22.5247L41.171 23.6626C40.6844 23.4565 40.1605 23.3528 39.6321 23.3579C38.0347 23.3579 36.8859 24.3601 36.8859 26.2488C36.8859 27.9693 37.9011 29.0808 39.6215 29.0808C40.155 29.089 40.6847 28.9899 41.1791 28.7895L41.3847 29.9115ZM45.8705 18.998V33.4646H42.3601V32.1719H44.2219V20.2911H42.3601V18.998H45.8705Z" fill="black"/>
</svg>
