<svg width="48" height="52" viewBox="0 0 48 52" fill="none" xmlns="http://www.w3.org/2000/svg">
<g clip-path="url(#clip0_3251_7964)">
<path fill-rule="evenodd" clip-rule="evenodd" d="M9.41986 32.3706H38.5877C41.5171 26.7309 42.9411 19.4956 42.5021 10.6104C37.2271 11.092 30.6964 8.66807 23.8933 4.35528C18.4508 8.58384 12.1877 10.6847 5.35382 10.327C5.11301 19.5115 6.58563 26.7864 9.41986 32.3706ZM41.9769 32.4281C43.4426 32.7125 44.5594 34.0137 44.5594 35.5527V48.2037C44.5594 49.9468 43.1205 51.3867 41.3763 51.3867H6.53112C4.78797 51.3867 3.34905 49.9537 3.34905 48.2037V35.5527C3.34905 33.971 4.52536 32.6362 6.05644 32.4063C3.16076 25.9599 1.7159 17.7059 1.98743 7.35005C9.45355 7.74149 16.7799 6.12717 23.8784 0.612305C32.0838 5.81303 39.4944 8.27267 45.8556 7.69194C46.3521 17.7307 44.9687 25.9321 41.9769 32.4281ZM17.9761 18.1796H18.5717V16.8011C18.5717 15.275 19.1732 13.8837 20.1414 12.8728C21.1195 11.8541 22.4682 11.2219 23.9547 11.2219C25.4402 11.2219 26.7909 11.8541 27.7671 12.8728C28.7362 13.8837 29.3378 15.274 29.3378 16.8011V18.1796H29.9324C30.416 18.1796 30.8114 18.575 30.8114 19.0576V28.3392C30.8114 28.8228 30.416 29.2183 29.9324 29.2183H17.9761C17.4925 29.2183 17.0981 28.8228 17.0981 28.3392V19.0576C17.0971 18.575 17.4925 18.1796 17.9761 18.1796ZM20.2335 18.1796H27.6749V16.8011C27.6749 15.715 27.2517 14.7319 26.5709 14.0224C25.8981 13.3198 24.9715 12.8847 23.9537 12.8847C22.937 12.8847 22.0094 13.3198 21.3375 14.0224C20.6557 14.7319 20.2335 15.715 20.2335 16.8011V18.1796ZM23.2333 24.1077L22.2859 26.5901H25.6235L24.7455 24.073C25.3025 23.7866 25.684 23.2059 25.684 22.536C25.684 21.5807 24.91 20.8067 23.9537 20.8067C22.9994 20.8067 22.2254 21.5807 22.2254 22.536C22.2254 23.2327 22.6387 23.8342 23.2333 24.1077ZM12.3799 40.0468L12.0212 37.9955C13.1787 37.6466 14.3302 37.4722 15.4788 37.4722C15.9376 37.4722 16.3201 37.4851 16.6283 37.5128C16.9355 37.5406 17.2546 37.609 17.5856 37.719C17.9156 37.83 18.1772 37.9806 18.3695 38.1738C18.8115 38.6138 19.0315 39.2897 19.0315 40.1984C19.0315 41.1072 18.7738 41.7771 18.2595 42.2092C17.7462 42.6402 16.662 43.1357 15.01 43.6956V44.0821H18.8927V46.2851H11.829V44.5637C11.829 44.0494 11.9251 43.5589 12.1173 43.0901C12.2372 42.8236 12.5266 42.5025 12.9854 42.1259C13.2332 41.9148 13.5662 41.7127 13.9834 41.5204C14.4016 41.3272 14.796 41.1458 15.1686 40.9764C15.5402 40.8069 15.8405 40.6662 16.0704 40.5562V39.8129C15.6572 39.7673 15.2756 39.7436 14.9268 39.7436C14.0825 39.7436 13.2332 39.8446 12.3799 40.0468ZM26.3232 43.323H23.9825V46.2851H21.2275V37.6773H26.8742L26.5293 39.8823H23.9825V41.2707H26.3232V43.323ZM30.1524 46.2851H27.3627L29.5944 37.6773H33.8498L36.0805 46.2851H33.2908L32.9737 44.9225H30.4695L30.1524 46.2851ZM31.3544 40.3223L30.965 42.7324H32.4644L32.0878 40.3223H31.3544Z" fill="black"/>
</g>
<defs>
<clipPath id="clip0_3251_7964">
<rect width="44" height="50.7744" fill="white" transform="translate(1.95508 0.612305)"/>
</clipPath>
</defs>
</svg>
