<svg width="48" height="48" viewBox="0 0 48 48" fill="none" xmlns="http://www.w3.org/2000/svg">
<g clip-path="url(#clip0_3251_3901)">
<mask id="mask0_3251_3901" style="mask-type:luminance" maskUnits="userSpaceOnUse" x="7" y="8" width="33" height="32">
<path d="M7.82422 8H39.8242V40H7.82422V8Z" fill="white"/>
</mask>
<g mask="url(#mask0_3251_3901)">
<path d="M39.8242 8H7.82422V40H39.8242V8Z" fill="black"/>
<path d="M18.0045 16.5983L23.8245 13.333L29.6431 16.5983L27.5098 17.8077L23.8245 15.745L20.1445 17.8077L18.0045 16.5983ZM29.6445 20.7223L27.5111 19.5143L23.8245 21.5757L20.1445 19.5143L18.0045 20.7223V23.1357L21.6791 25.197V29.3157L23.8245 30.5237L25.9631 29.3157V25.1957L29.6431 23.1343L29.6445 20.7223ZM29.6445 27.2597V24.8397L27.5111 26.049V28.461L29.6445 27.2597ZM31.1658 28.113L27.4858 30.169V32.5863L33.3058 29.3157V22.785L31.1658 23.9877V28.113ZM29.0271 18.6597L31.1605 19.869V22.2823L33.3058 21.0783V18.661L31.1658 17.4517L29.0271 18.6663V18.6597ZM21.6791 31.0463V33.457L23.8245 34.6663L25.9631 33.457V31.053L23.8245 32.253L21.6845 31.0437L21.6791 31.0463ZM18.0045 27.253L20.1378 28.4623V26.049L18.0045 24.841V27.2583V27.253ZM21.6791 18.661L23.8245 19.869L25.9631 18.661L23.8245 17.4517L21.6845 18.6663L21.6791 18.661ZM16.4818 19.869L18.6218 18.661L16.4885 17.4517L14.3418 18.6663V21.0837L16.4818 22.2877V19.869ZM16.4818 23.989L14.3431 22.785V29.3157L20.1618 32.5863V30.1623L16.4885 28.1063V23.9823L16.4818 23.989Z" fill="white"/>
</g>
</g>
<defs>
<clipPath id="clip0_3251_3901">
<rect x="7.82422" y="8" width="32" height="32" rx="16" fill="white"/>
</clipPath>
</defs>
</svg>
