<svg width="51" height="48" viewBox="0 0 51 48" fill="none" xmlns="http://www.w3.org/2000/svg">
<g clip-path="url(#clip0_3251_3998)">
<path d="M24.4771 45.5932C24.5207 44.8296 25.175 44.2459 25.9386 44.2893C26.3055 44.3102 26.6491 44.476 26.8937 44.7503C27.1383 45.0245 27.2639 45.3848 27.2428 45.7517C27.1989 46.5153 26.5444 47.0988 25.7808 47.055C25.0171 47.0113 24.4335 46.3569 24.4771 45.5932ZM13.1329 44.0945C13.4629 43.5918 14.1379 43.4517 14.6407 43.7816C14.8822 43.9401 15.0509 44.1881 15.1096 44.471C15.1682 44.7539 15.112 45.0485 14.9534 45.29C14.6232 45.7925 13.9482 45.9324 13.4455 45.6023C12.9429 45.2722 12.8029 44.5972 13.1329 44.0945ZM37.4646 43.6676C37.7224 43.5371 38.0215 43.5146 38.2958 43.605C38.5702 43.6954 38.7973 43.8913 38.927 44.1495C39.1254 44.5428 39.0673 45.0168 38.7799 45.3506C38.4925 45.6844 38.0323 45.8121 37.6139 45.6742C37.1956 45.5364 36.9015 45.16 36.8688 44.7208C36.8361 44.2815 37.0713 43.8658 37.4646 43.6676ZM15.7626 38.3317C16.2711 37.5551 17.3128 37.3375 18.0897 37.8457C18.8663 38.355 19.0837 39.3972 18.5753 40.1744C18.0663 40.9508 17.0244 41.1677 16.2479 40.659C15.4714 40.1502 15.2542 39.1084 15.7626 38.3317ZM34.0488 37.7114C34.446 37.5087 34.9076 37.4724 35.3317 37.6104C35.7558 37.7485 36.1076 38.0495 36.3095 38.4472C36.6191 39.0538 36.5326 39.7873 36.0903 40.3053C35.648 40.8233 34.9371 41.0236 34.2894 40.8128C33.6418 40.602 33.185 40.0216 33.1323 39.3426C33.081 38.6814 33.4226 38.0535 34.0013 37.7364L34.0488 37.7114ZM24.0531 36.6844C24.4034 35.9637 25.1536 35.5254 25.9533 35.574C27.0418 35.6391 27.8722 36.5731 27.8093 37.6617C27.7639 38.4617 27.2407 39.1554 26.484 39.4188C25.7273 39.6822 24.8864 39.4634 24.354 38.8646C23.8217 38.2658 23.7029 37.405 24.0531 36.6844ZM6.5471 33.6205C6.87515 33.4547 7.25565 33.4261 7.6048 33.541C7.95395 33.6558 8.24312 33.9048 8.40862 34.233C8.75299 34.9159 8.47869 35.7487 7.7959 36.0932C7.1131 36.4378 6.28025 36.1638 5.93548 35.4811C5.59774 34.8123 5.85359 33.9994 6.50582 33.6422L6.5471 33.6205ZM43.6261 34.0144C44.0453 33.3747 44.9037 33.1959 45.5435 33.6149C45.851 33.8163 46.0658 34.1317 46.1407 34.4915C46.2155 34.8513 46.1443 35.2262 45.9427 35.5335C45.5231 36.173 44.6646 36.3513 44.0251 35.9319C43.3855 35.5125 43.2069 34.6541 43.6261 34.0144ZM20.402 27.8715C21.758 27.1395 23.438 27.4218 24.4803 28.5568C25.5227 29.6918 25.6612 31.3897 24.8166 32.6787C24.1961 33.631 23.1351 34.2038 21.9985 34.1999C20.4575 34.1988 19.114 33.1513 18.7371 31.6571C18.3601 30.1629 19.0459 28.6035 20.402 27.8715ZM28.9063 27.6183C30.4842 27.1105 32.1969 27.8269 32.9433 29.3069C33.7743 30.9652 33.1082 32.9833 31.4533 33.821C30.9834 34.0593 30.4645 34.1852 29.9376 34.1889C28.28 34.1889 26.8691 32.9821 26.6121 31.3446C26.3551 29.7071 27.3284 28.1262 28.9063 27.6183ZM12.6967 29.4875C13.2191 28.8808 14.0555 28.6485 14.8159 28.899C15.5763 29.1495 16.1109 29.8334 16.1704 30.6318C16.2299 31.4302 15.8026 32.1858 15.0877 32.5462C14.1119 33.0382 12.922 32.6462 12.4297 31.6706C12.069 30.9559 12.1743 30.0942 12.6967 29.4875ZM36.0851 29.6399C36.685 28.7261 37.912 28.4716 38.8258 29.0715C39.7378 29.6726 39.992 30.8981 39.3942 31.8123C38.7943 32.7261 37.5673 32.9805 36.6535 32.3806C35.7397 31.7808 35.4852 30.5537 36.0851 29.6399ZM14.6462 23.7849C14.7514 21.9544 16.3022 20.5448 18.1344 20.6143C19.9666 20.6837 21.4062 22.2068 21.3725 24.04C21.3391 25.8526 19.8775 27.3092 18.0722 27.3436L18.0106 27.3442H17.8266C15.9884 27.2368 14.5799 25.6767 14.6524 23.8442L14.6554 23.7831L14.6462 23.7849ZM30.5271 23.7472C30.6338 21.8906 32.2253 20.4721 34.0819 20.5787C34.9727 20.6245 35.8078 21.0261 36.3996 21.6934C37.2833 22.683 37.5035 24.0993 36.9617 25.3104C36.4292 26.5005 35.2586 27.2743 33.9591 27.3012L33.8906 27.3019H33.6956C31.839 27.1953 30.4205 25.6038 30.5271 23.7472ZM6.63719 23.9003C6.68981 22.9735 7.48363 22.2647 8.41046 22.317C9.33773 22.3704 10.0465 23.1648 9.99423 24.0921C9.94096 25.0189 9.14664 25.7271 8.21985 25.6741C7.29305 25.6212 6.58456 24.8271 6.63719 23.9003ZM41.9142 23.8242C41.9671 22.8974 42.7612 22.1889 43.688 22.2416C44.6148 22.2942 45.3236 23.088 45.2713 24.0148C45.2179 24.9421 44.4235 25.6509 43.4962 25.5986C42.5694 25.5453 41.8612 24.751 41.9142 23.8242ZM2.06226 22.928L2.10298 22.9296C2.39131 22.9452 2.66152 23.0751 2.85381 23.2905C3.0461 23.5059 3.14462 23.7891 3.12755 24.0774C3.0931 24.6766 2.57959 25.1345 1.98038 25.1003C1.38117 25.0662 0.922996 24.5529 0.956839 23.9537C0.989912 23.3681 1.48066 22.9169 2.06226 22.928ZM49.8834 22.8157L49.9288 22.8173C50.5287 22.8529 50.9868 23.367 50.9534 23.967C50.9281 24.4067 50.6404 24.7879 50.2245 24.9328C49.8085 25.0777 49.3463 24.9578 49.0532 24.629C48.7602 24.3002 48.6941 23.8272 48.8857 23.4307C49.0708 23.0478 49.4609 22.8089 49.8834 22.8157ZM21.9691 13.7322C23.2396 13.7262 24.4045 14.4383 24.9784 15.5717C25.5071 16.616 25.4557 17.8597 24.8427 18.8568C24.2298 19.8539 23.1432 20.4613 21.9728 20.461C20.6993 20.4651 19.5334 19.7474 18.9634 18.6087C18.4409 17.5655 18.4955 16.3263 19.1077 15.3331C19.7198 14.3399 20.8024 13.7343 21.9691 13.7322ZM29.91 13.7084C31.4508 13.7103 32.7936 14.7583 33.1699 16.2525C33.5463 17.7467 32.86 19.3056 31.5039 20.0372C30.1478 20.7687 28.4681 20.4861 27.426 19.3511C26.384 18.2161 26.2456 16.5184 27.0901 15.2296C27.7135 14.2795 28.7737 13.7076 29.91 13.7084ZM12.5124 16.1015C13.1118 15.1875 14.3387 14.9323 15.2528 15.5316C16.1669 16.1309 16.4221 17.3578 15.8229 18.2719C15.2237 19.1861 13.9969 19.4414 13.0827 18.8423C12.6432 18.5548 12.336 18.1043 12.2291 17.5902C12.1221 17.076 12.224 16.5404 12.5124 16.1015ZM36.8227 15.3676C37.2914 15.1309 37.835 15.0905 38.3336 15.255C38.8322 15.4196 39.2449 15.7758 39.4807 16.245C39.9724 17.2213 39.5795 18.4113 38.6033 18.903C37.627 19.3947 36.4369 19.0018 35.9453 18.0256C35.4536 17.0493 35.8464 15.8593 36.8227 15.3676ZM5.96583 12.3821C6.27308 11.9135 6.83246 11.6761 7.383 11.7808C7.93353 11.8855 8.36672 12.3117 8.48047 12.8604C8.59422 13.4091 8.36611 13.9723 7.90256 14.2873C7.43902 14.6022 6.83138 14.6067 6.36315 14.2988C5.72463 13.8789 5.54683 13.0212 5.96583 12.3821ZM44.1127 11.8214C44.7958 11.4775 45.6282 11.7523 45.9724 12.4352C46.3166 13.118 46.0423 13.9506 45.3596 14.2952C44.6758 14.6391 43.8428 14.3641 43.498 13.6808C43.1545 12.9976 43.4297 12.1652 44.1127 11.8214ZM23.9465 10.252C24.0091 9.16107 24.9441 8.3273 26.0351 8.38945C27.1261 8.45161 27.9602 9.38617 27.8986 10.4772C27.8369 11.5682 26.9027 12.4028 25.8117 12.3417C24.7197 12.2794 23.8848 11.344 23.9465 10.252ZM16.3442 7.19982C17.1733 6.7821 18.184 7.11544 18.602 7.94443C19.0199 8.77342 18.6868 9.78425 17.8579 10.2024C17.4596 10.4033 16.9978 10.4377 16.5741 10.2979C16.1504 10.1582 15.7997 9.85584 15.599 9.45739C15.1815 8.6282 15.5151 7.61753 16.3442 7.19982ZM33.3277 7.73934C33.8362 6.96144 34.8789 6.74287 35.657 7.25109C36.435 7.75932 36.6539 8.80198 36.146 9.5802C35.638 10.3584 34.5954 10.5777 33.817 10.0699C33.4425 9.82623 33.1804 9.44347 33.0886 9.00619C32.9968 8.56891 33.0828 8.11307 33.3277 7.73934ZM13.4543 2.3052C13.9899 2.0351 14.643 2.24902 14.9151 2.78363C15.1872 3.31824 14.9756 3.97219 14.442 4.24621C14.1832 4.37858 13.8822 4.40214 13.6059 4.31166C13.3296 4.22117 13.1009 4.02413 12.9705 3.76428C12.7023 3.22769 12.9186 2.5753 13.4543 2.3052ZM36.9533 2.62566C37.1943 2.25687 37.6338 2.06966 38.0667 2.15136C38.4997 2.23307 38.8407 2.56759 38.9308 2.99887C39.0208 3.43014 38.8421 3.87318 38.4781 4.12129C38.114 4.3694 37.6363 4.3737 37.2678 4.13217C36.7653 3.80277 36.6245 3.12861 36.9533 2.62566ZM25.448 0.93414C25.9769 0.74918 26.5651 0.901106 26.9383 1.31905C27.3115 1.737 27.3962 2.33863 27.1528 2.84333C26.9093 3.34802 26.3858 3.65634 25.8264 3.62448C25.0631 3.58101 24.4794 2.92729 24.5222 2.16395C24.5537 1.60451 24.919 1.1191 25.448 0.93414Z" fill="black"/>
</g>
<defs>
<clipPath id="clip0_3251_3998">
<rect width="50" height="46.2891" fill="white" transform="translate(0.955078 0.855469)"/>
</clipPath>
</defs>
</svg>
