<svg width="47" height="48" viewBox="0 0 47 48" fill="none" xmlns="http://www.w3.org/2000/svg">
<mask id="mask0_3251_8646" style="mask-type:luminance" maskUnits="userSpaceOnUse" x="4" y="1" width="39" height="46">
<path d="M42.0239 22.2262L29.6416 34.6129L42.0239 46.9996H27.8746L15.4878 34.6129L27.8746 22.2262H42.0239ZM27.8746 1L4.87695 23.9976L11.9538 31.0745L42.0239 1H27.8746Z" fill="white"/>
</mask>
<g mask="url(#mask0_3251_8646)">
<path d="M15.4922 34.6133L22.5646 41.6902L42.0238 22.2266H27.8745L15.4922 34.6133Z" fill="black"/>
</g>
<mask id="mask1_3251_8646" style="mask-type:luminance" maskUnits="userSpaceOnUse" x="4" y="1" width="39" height="46">
<path d="M42.0239 22.2262L29.6416 34.6129L42.0239 46.9996H27.8746L15.4878 34.6129L27.8746 22.2262H42.0239ZM27.8746 1L4.87695 23.9976L11.9538 31.0745L42.0239 1H27.8746Z" fill="white"/>
</mask>
<g mask="url(#mask1_3251_8646)">
<path d="M27.8746 1H42.0239L11.9538 31.0745L4.87695 23.9976L27.8746 1Z" fill="black"/>
</g>
<mask id="mask2_3251_8646" style="mask-type:luminance" maskUnits="userSpaceOnUse" x="4" y="1" width="39" height="46">
<path d="M42.0239 22.2262L29.6416 34.6129L42.0239 46.9996H27.8746L15.4878 34.6129L27.8746 22.2262H42.0239ZM27.8746 1L4.87695 23.9976L11.9538 31.0745L42.0239 1H27.8746Z" fill="white"/>
</mask>
<g mask="url(#mask2_3251_8646)">
<path d="M22.5645 41.6901L27.8743 46.9956H42.0236L29.6413 34.6133L22.5645 41.6901Z" fill="#83838E"/>
</g>
<mask id="mask3_3251_8646" style="mask-type:luminance" maskUnits="userSpaceOnUse" x="4" y="1" width="39" height="46">
<path d="M42.0239 22.2262L29.6416 34.6129L42.0239 46.9996H27.8746L15.4878 34.6129L27.8746 22.2262H42.0239ZM27.8746 1L4.87695 23.9976L11.9538 31.0745L42.0239 1H27.8746Z" fill="white"/>
</mask>
<g mask="url(#mask3_3251_8646)">
<path d="M33.0602 38.0543L29.6413 34.6133L22.5645 41.6901L33.0602 38.0543Z" fill="#AEAEB7"/>
</g>
<mask id="mask4_3251_8646" style="mask-type:luminance" maskUnits="userSpaceOnUse" x="4" y="1" width="39" height="46">
<path d="M42.0239 22.2262L29.6416 34.6129L42.0239 46.9996H27.8746L15.4878 34.6129L27.8746 22.2262H42.0239ZM27.8746 1L4.87695 23.9976L11.9538 31.0745L42.0239 1H27.8746Z" fill="white"/>
</mask>
<g mask="url(#mask4_3251_8646)">
<path d="M15.4922 34.6103L22.5692 27.5332L29.6467 34.6103L22.5692 41.6874L15.4922 34.6103Z" fill="#34343D"/>
</g>
</svg>
