<svg width="111" height="84" viewBox="0 0 111 84" fill="none" xmlns="http://www.w3.org/2000/svg">
<path d="M57.8828 42.2643L59.5145 40.3026C60.5411 41.2559 61.8795 41.7876 63.2728 41.8426C64.4095 41.8426 65.0878 41.3843 65.0878 40.6509V40.6143C65.0878 39.9176 64.6661 39.5509 62.5578 39.0193C60.0095 38.3776 58.3778 37.6626 58.3778 35.1693V35.1326C58.3778 32.8409 60.2111 31.3376 62.7961 31.3376C64.5011 31.3009 66.1511 31.8693 67.4711 32.9326L66.0228 35.0226C65.0878 34.2893 63.9328 33.8493 62.7411 33.7759C61.6778 33.7759 61.1278 34.2709 61.1278 34.8759V34.9126C61.1278 35.7376 61.6595 36.0126 63.8411 36.5626C66.3895 37.2226 67.8378 38.1393 67.8378 40.3393V40.3759C67.8378 42.8876 65.9311 44.2809 63.2178 44.2809C61.2745 44.2809 59.3678 43.5659 57.8828 42.2643Z" fill="black"/>
<path d="M69.2305 42.2643L70.8621 40.3026C71.8888 41.2559 73.2271 41.7876 74.6205 41.8426C75.7571 41.8426 76.4355 41.3843 76.4355 40.6509V40.6143C76.4355 39.9176 76.0138 39.5509 73.9055 39.0193C71.3571 38.3776 69.7255 37.6626 69.7255 35.1693V35.1326C69.7255 32.8409 71.5588 31.3376 74.1438 31.3376C75.8488 31.3009 77.4988 31.8693 78.8188 32.9326L77.3705 35.0226C76.4355 34.2893 75.2805 33.8493 74.0888 33.7759C73.0255 33.7759 72.4755 34.2709 72.4755 34.8759V34.9126C72.4755 35.7376 73.0071 36.0126 75.1888 36.5626C77.7371 37.2226 79.1855 38.1393 79.1855 40.3393V40.3759C79.1855 42.8876 77.2788 44.2809 74.5655 44.2809C72.6038 44.2809 70.7155 43.5659 69.2305 42.2643Z" fill="black"/>
<path d="M81.625 31.4844H84.3933V41.5677H90.6817V44.0977H81.625V31.4844Z" fill="black"/>
<path d="M57.5508 50.4777L58.1741 49.726C58.5774 50.0927 59.0908 50.2943 59.6224 50.3127C60.0624 50.3127 60.3191 50.1477 60.3191 49.8543V49.836C60.3191 49.561 60.1541 49.4327 59.3474 49.2127C58.3758 48.956 57.7341 48.6993 57.7341 47.7277V47.7093C57.7524 46.866 58.4491 46.206 59.2924 46.2427C59.3291 46.2427 59.3841 46.2427 59.4208 46.261C60.0808 46.2427 60.7041 46.4627 61.2174 46.8843L60.6674 47.691C60.3008 47.416 59.8608 47.2327 59.4024 47.2143C58.9991 47.2143 58.7791 47.3977 58.7791 47.636V47.6543C58.7791 47.966 58.9808 48.076 59.8241 48.296C60.8141 48.5527 61.3641 48.901 61.3641 49.7443V49.7627C61.3641 50.7343 60.6308 51.266 59.5858 51.266C58.8524 51.2477 58.1191 50.9727 57.5508 50.4777Z" fill="black"/>
<path d="M62.3203 46.334H65.9686V47.2873H63.3653V48.2773H65.657V49.2306H63.3653V50.2573H66.0053V51.2107H62.3203V46.334Z" fill="black"/>
<path d="M66.7541 48.7725C66.7358 47.3975 67.8175 46.2792 69.1741 46.2425C69.2108 46.2425 69.2475 46.2425 69.2841 46.2425C69.9991 46.2058 70.6958 46.4808 71.1908 46.9942L70.5125 47.7825C70.1825 47.4525 69.7425 47.2508 69.2658 47.2325C68.4775 47.2508 67.8358 47.9108 67.8541 48.6992C67.8541 48.7175 67.8541 48.7358 67.8541 48.7358V48.7542C67.7991 49.5425 68.4225 50.2208 69.2108 50.2758C69.2291 50.2758 69.2475 50.2758 69.2658 50.2758C69.7425 50.2758 70.2191 50.0742 70.5491 49.7075L71.2275 50.3858C70.7325 50.9725 69.9991 51.2842 69.2475 51.2475C67.8908 51.2658 66.7908 50.1842 66.7541 48.8458C66.7541 48.8275 66.7541 48.8092 66.7541 48.7725Z" fill="black"/>
<path d="M71.9988 49.1023V46.334H73.0621V49.0657C73.0621 49.854 73.4655 50.2573 74.1071 50.2573C74.7488 50.2573 75.1521 49.854 75.1521 49.1023V46.334H76.2155V49.0657C76.3438 50.129 75.5921 51.119 74.5288 51.2473C74.3821 51.2656 74.2355 51.2656 74.0888 51.2473C73.0255 51.3573 72.0905 50.5873 71.9805 49.524C71.9805 49.3957 71.9805 49.249 71.9988 49.1023Z" fill="black"/>
<path d="M77.3164 46.3337H79.5347C80.0481 46.2971 80.5614 46.4804 80.9464 46.8287C81.2214 47.1221 81.3864 47.5254 81.3681 47.9287V47.947C81.4047 48.6254 80.9831 49.2487 80.3231 49.4504L81.5147 51.1737H80.2681L79.2231 49.6154H78.3797V51.1737H77.3164V46.3337ZM79.4614 48.6987C79.9747 48.6987 80.2864 48.4237 80.2864 48.0204V48.0021C80.2864 47.5437 79.9747 47.3054 79.4431 47.3054H78.3797V48.6987H79.4614Z" fill="black"/>
<path d="M82.3398 46.334H85.9882V47.2873H83.3848V48.2773H85.6765V49.2306H83.3848V50.2573H86.0249V51.2107H82.3398V46.334Z" fill="black"/>
<path d="M86.9766 46.3339H88.8649C90.2032 46.2422 91.3399 47.2506 91.4316 48.5889C91.4316 48.6439 91.4316 48.6989 91.4316 48.7539V48.7722C91.4316 50.1106 90.3499 51.1922 89.0116 51.2106C88.9566 51.2106 88.9016 51.2106 88.8649 51.2106H86.9766V46.3339ZM88.8649 50.2206C89.6349 50.2572 90.2766 49.6889 90.3316 48.9189C90.3316 48.8639 90.3316 48.8272 90.3316 48.7722V48.7539C90.3682 47.9839 89.7816 47.3239 89.0116 47.2872C88.9566 47.2872 88.9199 47.2872 88.8649 47.2872H88.0399V50.2022L88.8649 50.2206Z" fill="black"/>
<path d="M19.9871 42.5392C19.9871 53.6308 30.8037 59.2592 35.4421 61.1658L35.6071 61.2392C35.9554 61.4042 36.3588 61.4042 36.6888 61.2392L36.8538 61.1658C41.5104 59.2592 52.3088 53.6308 52.3088 42.5392V27.6892C52.3088 27.1208 51.9238 26.6258 51.3738 26.4975L36.4321 22.7942C36.2304 22.7392 36.0288 22.7392 35.8454 22.7942L20.9038 26.4975C20.3538 26.6258 19.9688 27.1208 19.9688 27.6892M49.8704 42.5392C49.8704 51.9808 40.4654 57.0042 36.1754 58.8008C31.8671 57.0042 22.4804 51.9808 22.4804 42.5392V28.6425L36.1754 25.2508L49.8704 28.6425V42.5392Z" fill="black"/>
<path d="M36.1198 30.2012C33.3698 30.2012 31.1332 32.4378 31.1332 35.1878V36.4162C30.1615 36.5812 29.4648 37.4062 29.4648 38.3778V47.1045C29.4648 48.2045 30.3632 49.1028 31.4632 49.1028H40.9048C42.0048 49.1028 42.9032 48.2045 42.9032 47.1045V38.3778C42.9032 37.3695 42.1332 36.5262 41.1432 36.3978V35.1695C41.0882 32.4195 38.8698 30.2012 36.1198 30.2012ZM36.1198 32.3645C37.6782 32.3645 38.9432 33.6295 38.9432 35.1878V36.3795H33.3148V35.1878C33.2965 33.6295 34.5615 32.3645 36.1198 32.3645ZM40.7032 46.9212H31.6282V38.5612H40.7032V46.9212ZM37.8798 40.0278L39.3832 41.5312L37.1098 43.8045L35.6065 45.3078L34.1032 43.8045L32.9482 42.6495L34.4515 41.1462L35.6065 42.3012L37.8798 40.0278Z" fill="black"/>
</svg>
