<svg width="49" height="48" viewBox="0 0 49 48" fill="none" xmlns="http://www.w3.org/2000/svg">
<path d="M43.4453 3H5.94531C4.70267 3 3.69531 4.00736 3.69531 5.25V42.75C3.69531 43.9926 4.70267 45 5.94531 45H43.4453C44.688 45 45.6953 43.9926 45.6953 42.75V5.25C45.6953 4.00736 44.688 3 43.4453 3Z" fill="black"/>
<path opacity="0.1" d="M5.94531 3C4.69881 3 3.69531 4.0035 3.69531 5.25V6C3.69531 4.7535 4.69881 3.75 5.94531 3.75H43.4453C44.6918 3.75 45.6953 4.7535 45.6953 6V5.25C45.6953 4.0035 44.6918 3 43.4453 3H5.94531Z" fill="white"/>
<path opacity="0.2" d="M3.69531 42.75V43.5C3.69531 44.7465 4.69881 45.75 5.94531 45.75H43.4453C44.6918 45.75 45.6953 44.7465 45.6953 43.5V42.75C45.6953 43.9965 44.6918 45 43.4453 45H5.94531C4.69881 45 3.69531 43.9965 3.69531 42.75Z" fill="black"/>
<g opacity="0.2">
<path d="M27.691 26.2566L26.1914 24.7568L24.6919 26.2566L26.1914 27.7563L27.691 26.2566Z" fill="black"/>
<path d="M30.692 11.25L29.1923 20.2497H23.1931L21.6934 11.25H30.692Z" fill="black"/>
<path d="M23.1934 21.75H29.1925V23.25H23.1934V21.75Z" fill="black"/>
<path d="M11.1953 21.7493L20.194 23.2492V29.2491L11.1953 30.749V21.7493Z" fill="black"/>
<path d="M21.6934 29.249V23.2492H23.1931V29.249H21.6934Z" fill="black"/>
<path d="M33.6174 39.7496L28.3149 32.3251L32.5569 28.0826L39.9805 33.3857L33.6174 39.7496Z" fill="black"/>
<path d="M31.4961 27.0215L27.2541 31.264L26.1935 30.2034L30.4356 25.9608L31.4961 27.0215Z" fill="black"/>
</g>
<path d="M27.691 25.5066L26.1914 24.0068L24.6919 25.5066L26.1914 27.0063L27.691 25.5066Z" fill="white"/>
<path d="M30.692 10.5L29.1923 19.4997H23.1931L21.6934 10.5H30.692Z" fill="white"/>
<path d="M23.1934 21H29.1925V22.5H23.1934V21Z" fill="white"/>
<path d="M11.1953 20.9993L20.194 22.4992V28.4991L11.1953 29.999V20.9993Z" fill="white"/>
<path d="M21.6934 28.499V22.4992H23.1931V28.499H21.6934Z" fill="white"/>
<path d="M33.6174 38.9996L28.3149 31.5751L32.5569 27.3326L39.9805 32.6357L33.6174 38.9996Z" fill="white"/>
<path d="M31.4961 26.2715L27.2541 30.514L26.1935 29.4534L30.4356 25.2108L31.4961 26.2715Z" fill="white"/>
</svg>
