<svg width="110" height="22" viewBox="0 0 110 22" fill="none" xmlns="http://www.w3.org/2000/svg">
<path d="M10.5465 0.976481C10.7257 0.590615 11.2743 0.590615 11.4535 0.976482L13.9993 6.45829C14.0721 6.61517 14.2209 6.72325 14.3926 6.74406L20.3928 7.47127C20.8152 7.52246 20.9847 8.04418 20.6731 8.33385L16.2462 12.449C16.1196 12.5668 16.0627 12.7417 16.096 12.9114L17.2586 18.8426C17.3404 19.2601 16.8966 19.5826 16.5248 19.3757L11.2431 16.4372C11.0919 16.3531 10.9081 16.3532 10.7569 16.4372L5.4752 19.3757C5.10342 19.5826 4.65962 19.2601 4.74145 18.8426L5.90399 12.9114C5.93726 12.7417 5.88044 12.5668 5.75376 12.449L1.32693 8.33385C1.01533 8.04418 1.18485 7.52246 1.6072 7.47127L7.60741 6.74406C7.77912 6.72325 7.92788 6.61517 8.00073 6.45829L10.5465 0.976481Z" fill="#DD3C0E"/>
<path d="M32.5465 0.976481C32.7257 0.590615 33.2743 0.590615 33.4535 0.976482L35.9993 6.45829C36.0721 6.61517 36.2209 6.72325 36.3926 6.74406L42.3928 7.47127C42.8152 7.52246 42.9847 8.04418 42.6731 8.33385L38.2462 12.449C38.1196 12.5668 38.0627 12.7417 38.096 12.9114L39.2586 18.8426C39.3404 19.2601 38.8966 19.5826 38.5248 19.3757L33.2431 16.4372C33.0919 16.3531 32.9081 16.3532 32.7569 16.4372L27.4752 19.3757C27.1034 19.5826 26.6596 19.2601 26.7414 18.8426L27.904 12.9114C27.9373 12.7417 27.8804 12.5668 27.7538 12.449L23.3269 8.33385C23.0153 8.04418 23.1848 7.52246 23.6072 7.47127L29.6074 6.74406C29.7791 6.72325 29.9279 6.61517 30.0007 6.45829L32.5465 0.976481Z" fill="#DD3C0E"/>
<path d="M54.5465 0.976481C54.7257 0.590615 55.2743 0.590615 55.4535 0.976482L57.9993 6.45829C58.0721 6.61517 58.2209 6.72325 58.3926 6.74406L64.3928 7.47127C64.8152 7.52246 64.9847 8.04418 64.6731 8.33385L60.2462 12.449C60.1196 12.5668 60.0627 12.7417 60.096 12.9114L61.2586 18.8426C61.3404 19.2601 60.8966 19.5826 60.5248 19.3757L55.2431 16.4372C55.0919 16.3531 54.9081 16.3532 54.7569 16.4372L49.4752 19.3757C49.1034 19.5826 48.6596 19.2601 48.7414 18.8426L49.904 12.9114C49.9373 12.7417 49.8804 12.5668 49.7538 12.449L45.3269 8.33385C45.0153 8.04418 45.1848 7.52246 45.6072 7.47127L51.6074 6.74406C51.7791 6.72325 51.9279 6.61517 52.0007 6.45829L54.5465 0.976481Z" fill="#DD3C0E"/>
<path d="M76.5465 0.976481C76.7257 0.590615 77.2743 0.590615 77.4535 0.976482L79.9993 6.45829C80.0721 6.61517 80.2209 6.72325 80.3926 6.74406L86.3928 7.47127C86.8152 7.52246 86.9847 8.04418 86.6731 8.33385L82.2462 12.449C82.1196 12.5668 82.0627 12.7417 82.096 12.9114L83.2586 18.8426C83.3404 19.2601 82.8966 19.5826 82.5248 19.3757L77.2431 16.4372C77.0919 16.3531 76.9081 16.3532 76.7569 16.4372L71.4752 19.3757C71.1034 19.5826 70.6596 19.2601 70.7414 18.8426L71.904 12.9114C71.9373 12.7417 71.8804 12.5668 71.7538 12.449L67.3269 8.33385C67.0153 8.04418 67.1848 7.52246 67.6072 7.47127L73.6074 6.74406C73.7791 6.72325 73.9279 6.61517 74.0007 6.45829L76.5465 0.976481Z" fill="#DD3C0E"/>
<path d="M98.5465 0.976481C98.7257 0.590615 99.2743 0.590615 99.4535 0.976482L101.999 6.45829C102.072 6.61517 102.221 6.72325 102.393 6.74406L108.393 7.47127C108.815 7.52246 108.985 8.04418 108.673 8.33385L104.246 12.449C104.12 12.5668 104.063 12.7417 104.096 12.9114L105.259 18.8426C105.34 19.2601 104.897 19.5826 104.525 19.3757L99.2431 16.4372C99.0919 16.3531 98.9081 16.3532 98.7569 16.4372L93.4752 19.3757C93.1034 19.5826 92.6596 19.2601 92.7414 18.8426L93.904 12.9114C93.9373 12.7417 93.8804 12.5668 93.7538 12.449L89.3269 8.33385C89.0153 8.04418 89.1848 7.52246 89.6072 7.47127L95.6074 6.74406C95.7791 6.72325 95.9279 6.61517 96.0007 6.45829L98.5465 0.976481Z" fill="#DD3C0E"/>
</svg>
