<svg width="221" height="218" viewBox="0 0 221 218" fill="none" xmlns="http://www.w3.org/2000/svg">
<path d="M52.4062 114.513C52.4062 107.981 52.4062 100.652 52.4062 100.652H171.26C171.26 100.652 171.26 110.354 171.26 114.513C171.26 134.368 144.653 150.463 111.833 150.463C79.0129 150.463 52.4062 134.368 52.4062 114.513Z" fill="white" stroke="#AEAEB7" stroke-width="2" stroke-miterlimit="10" stroke-linejoin="round"/>
<path d="M108.539 72.0819C108.539 73.6204 109.792 74.8678 111.329 74.8678C112.866 74.8678 114.111 73.6204 114.111 72.0819V32.9834H108.539V72.0819Z" fill="white" stroke="#AEAEB7" stroke-width="2" stroke-miterlimit="10" stroke-linejoin="round"/>
<path d="M102.492 32.7637C102.492 37.6461 106.449 41.6049 111.331 41.6049C116.212 41.6049 120.169 37.6461 120.169 32.7637C120.169 27.8806 116.212 23.9219 111.331 23.9219C106.449 23.9219 102.492 27.8806 102.492 32.7637Z" fill="white" stroke="#AEAEB7" stroke-width="2" stroke-miterlimit="10" stroke-linejoin="round"/>
<path d="M147.096 81.8016C147.459 81.7668 147.829 81.6593 148.171 81.4707L171.654 68.5634L171.64 68.5278C172.608 68.1072 173.298 67.1786 173.319 66.0549L173.903 39.2703L168.331 39.022L167.797 64.3278L145.481 76.5961C144.157 77.3248 143.666 78.9694 144.363 80.3115C144.897 81.3526 145.993 81.9077 147.096 81.8016Z" fill="white" stroke="#AEAEB7" stroke-width="2" stroke-miterlimit="10" stroke-linejoin="round"/>
<path d="M180.122 34.9339C180.122 39.8171 176.165 43.7751 171.284 43.7751C166.402 43.7751 162.445 39.8171 162.445 34.9339C162.445 30.0515 166.402 26.0928 171.284 26.0928C176.165 26.0928 180.122 30.0515 180.122 34.9339Z" fill="white" stroke="#AEAEB7" stroke-width="2" stroke-miterlimit="10" stroke-linejoin="round"/>
<path d="M78.7228 81.8016C78.3571 81.7668 77.9892 81.6593 77.6462 81.4707L54.1621 68.5634L54.1741 68.5278C53.2113 68.1072 52.5182 67.1786 52.494 66.0549L51.9141 39.2703L57.4867 39.022L58.019 64.3278L80.3318 76.5961C81.6568 77.3248 82.1521 78.9694 81.4555 80.3115C80.9154 81.3526 79.8194 81.9077 78.7228 81.8016Z" fill="white" stroke="#AEAEB7" stroke-width="2" stroke-miterlimit="10" stroke-linejoin="round"/>
<path d="M45.6875 34.9339C45.6875 39.8171 49.6455 43.7751 54.5287 43.7751C59.4118 43.7751 63.3698 39.8171 63.3698 34.9339C63.3698 30.0515 59.4118 26.0928 54.5287 26.0928C49.6455 26.0928 45.6875 30.0515 45.6875 34.9339Z" fill="white" stroke="#AEAEB7" stroke-width="2" stroke-miterlimit="10" stroke-linejoin="round"/>
<path d="M165.918 113.068C164.36 113.081 163.115 114.364 163.157 115.918C163.193 117.44 164.438 118.652 165.961 118.638L208.295 118.271C209.847 118.257 211.092 116.974 211.056 115.42C211.021 113.898 209.768 112.687 208.245 112.7L165.918 113.068Z" fill="white" stroke="#AEAEB7" stroke-width="2" stroke-miterlimit="10" stroke-linejoin="round"/>
<path d="M219.317 115.365C219.317 110.482 215.36 106.523 210.478 106.523C205.589 106.523 201.633 110.482 201.633 115.365C201.633 120.248 205.589 124.206 210.478 124.206C215.36 124.206 219.317 120.248 219.317 115.365Z" fill="white" stroke="#AEAEB7" stroke-width="2" stroke-miterlimit="10" stroke-linejoin="round"/>
<path d="M54.719 113.068C56.2731 113.081 57.5156 114.364 57.4793 115.918C57.4437 117.44 56.1927 118.652 54.6706 118.638L12.3392 118.271C10.7851 118.257 9.54261 116.974 9.5789 115.42C9.61448 113.898 10.8655 112.687 12.3876 112.7L54.719 113.068Z" fill="white" stroke="#AEAEB7" stroke-width="2" stroke-miterlimit="10" stroke-linejoin="round"/>
<path d="M1.3125 115.365C1.3125 110.482 5.27049 106.523 10.1536 106.523C15.0367 106.523 18.9948 110.482 18.9948 115.365C18.9948 120.248 15.0367 124.206 10.1536 124.206C5.27049 124.206 1.3125 120.248 1.3125 115.365Z" fill="white" stroke="#AEAEB7" stroke-width="2" stroke-miterlimit="10" stroke-linejoin="round"/>
<path d="M208.262 89.4199C209.827 89.4192 211.08 90.7073 211.044 92.2714C211.009 93.7829 209.778 94.9919 208.262 94.9926L185.405 95.004L162.846 107.403C161.466 108.16 159.737 107.638 159.011 106.243C158.313 104.904 158.811 103.256 160.121 102.517L182.921 89.775C183.305 89.5736 183.725 89.432 184.188 89.432L208.262 89.4199Z" fill="white" stroke="#AEAEB7" stroke-width="2" stroke-miterlimit="10" stroke-linejoin="round"/>
<path d="M219.317 92.2169C219.317 97.0993 215.36 101.058 210.478 101.058C205.589 101.058 201.633 97.0993 201.633 92.2169C201.633 87.3337 205.589 83.375 210.478 83.375C215.36 83.375 219.317 87.3337 219.317 92.2169Z" fill="white" stroke="#AEAEB7" stroke-width="2" stroke-miterlimit="10" stroke-linejoin="round"/>
<path d="M12.367 89.4199C10.8029 89.4192 9.54973 90.7073 9.58674 92.2714C9.62232 93.7829 10.8548 94.9919 12.367 94.9926L35.2242 95.004L57.7854 107.403C59.1623 108.16 60.8944 107.638 61.6181 106.243C62.3134 104.904 61.8224 103.256 60.5066 102.517L37.7085 89.775C37.3235 89.5736 36.9072 89.432 36.4425 89.432L12.367 89.4199Z" fill="white" stroke="#AEAEB7" stroke-width="2" stroke-miterlimit="10" stroke-linejoin="round"/>
<path d="M1.3125 92.2169C1.3125 97.0993 5.27049 101.058 10.1536 101.058C15.0367 101.058 18.9948 97.0993 18.9948 92.2169C18.9948 87.3337 15.0367 83.375 10.1536 83.375C5.27049 83.375 1.3125 87.3337 1.3125 92.2169Z" fill="white" stroke="#AEAEB7" stroke-width="2" stroke-miterlimit="10" stroke-linejoin="round"/>
<path d="M161.762 122.998C162.132 123.033 162.495 123.14 162.837 123.329L185.416 135.728L208.273 135.74C209.782 135.741 211.013 136.949 211.049 138.461C211.084 140.025 209.832 141.313 208.273 141.312L184.192 141.3C183.644 141.3 183.16 141.103 182.726 140.827L160.132 128.215C158.816 127.477 158.325 125.829 159.015 124.489C159.563 123.443 160.659 122.892 161.762 122.998Z" fill="white" stroke="#AEAEB7" stroke-width="2" stroke-miterlimit="10" stroke-linejoin="round"/>
<path d="M219.317 138.518C219.317 133.635 215.36 129.677 210.478 129.677C205.589 129.677 201.633 133.635 201.633 138.518C201.633 143.402 205.589 147.36 210.478 147.36C215.36 147.36 219.317 143.402 219.317 138.518Z" fill="white" stroke="#AEAEB7" stroke-width="2" stroke-miterlimit="10" stroke-linejoin="round"/>
<path d="M58.8656 122.998C58.4984 123.033 58.1334 123.14 57.7889 123.329L35.2157 135.728L12.3592 135.74C10.847 135.741 9.6145 136.949 9.57892 138.461C9.54192 140.025 10.7951 141.313 12.3592 141.312L36.4347 141.3C36.9848 141.3 37.4687 141.103 37.9013 140.827L60.4981 128.215C61.8153 127.477 62.3056 125.829 61.6103 124.489C61.0681 123.443 59.9665 122.892 58.8656 122.998Z" fill="white" stroke="#AEAEB7" stroke-width="2" stroke-miterlimit="10" stroke-linejoin="round"/>
<path d="M1.3125 138.518C1.3125 133.635 5.27049 129.677 10.1536 129.677C15.0367 129.677 18.9948 133.635 18.9948 138.518C18.9948 143.402 15.0367 147.36 10.1536 147.36C5.27049 147.36 1.3125 143.402 1.3125 138.518Z" fill="white" stroke="#AEAEB7" stroke-width="2" stroke-miterlimit="10" stroke-linejoin="round"/>
<path d="M52.4062 100.652C52.4062 80.7961 79.0129 64.7007 111.833 64.7007C144.653 64.7007 171.26 80.7961 171.26 100.652C171.26 120.507 144.653 136.603 111.833 136.603C79.0129 136.603 52.4062 120.507 52.4062 100.652Z" fill="white" stroke="#AEAEB7" stroke-width="2" stroke-miterlimit="10" stroke-linejoin="round"/>
<path d="M108.539 143.737C108.539 142.198 109.792 140.952 111.329 140.952C112.866 140.952 114.111 142.198 114.111 143.737V182.835H108.539V143.737Z" fill="white" stroke="#AEAEB7" stroke-width="2" stroke-miterlimit="10" stroke-linejoin="round"/>
<path d="M102.492 183.058C102.492 178.175 106.449 174.217 111.331 174.217C116.212 174.217 120.169 178.175 120.169 183.058C120.169 187.941 116.212 191.899 111.331 191.899C106.449 191.899 102.492 187.941 102.492 183.058Z" fill="white" stroke="#AEAEB7" stroke-width="2" stroke-miterlimit="10" stroke-linejoin="round"/>
<path d="M147.096 134.026C147.459 134.062 147.829 134.169 148.171 134.358L171.654 147.265L171.64 147.3C172.608 147.72 173.298 148.65 173.319 149.773L173.903 176.557L168.331 176.806L167.797 151.5L145.481 139.232C144.157 138.503 143.666 136.859 144.363 135.517C144.897 134.475 145.993 133.92 147.096 134.026Z" fill="white" stroke="#AEAEB7" stroke-width="2" stroke-miterlimit="10" stroke-linejoin="round"/>
<path d="M180.122 180.893C180.122 176.01 176.165 172.052 171.284 172.052C166.402 172.052 162.445 176.01 162.445 180.893C162.445 185.776 166.402 189.734 171.284 189.734C176.165 189.734 180.122 185.776 180.122 180.893Z" fill="white" stroke="#AEAEB7" stroke-width="2" stroke-miterlimit="10" stroke-linejoin="round"/>
<path d="M78.7228 134.026C78.3571 134.062 77.9892 134.169 77.6462 134.358L54.1621 147.265L54.1741 147.3C53.2113 147.72 52.5182 148.65 52.494 149.773L51.9141 176.557L57.4867 176.806L58.019 151.5L80.3318 139.232C81.6568 138.503 82.1521 136.859 81.4555 135.517C80.9154 134.475 79.8194 133.92 78.7228 134.026Z" fill="white" stroke="#AEAEB7" stroke-width="2" stroke-miterlimit="10" stroke-linejoin="round"/>
<path d="M45.6875 180.893C45.6875 176.01 49.6455 172.052 54.5287 172.052C59.4118 172.052 63.3698 176.01 63.3698 180.893C63.3698 185.776 59.4118 189.734 54.5287 189.734C49.6455 189.734 45.6875 185.776 45.6875 180.893Z" fill="white" stroke="#AEAEB7" stroke-width="2" stroke-miterlimit="10" stroke-linejoin="round"/>
<path d="M136.254 103.09C136.254 103.09 141.747 100.916 142.075 97.681C142.402 94.4453 137.257 90.6915 137.257 90.6915L142.338 88.1126L137.442 85.3885L132.361 87.6771C132.361 87.6771 124.334 84.0614 117.203 83.5924C110.08 83.1228 103.17 84.9338 102.466 88.2727C101.768 91.6116 104.935 94.5755 106.978 97.3067C109.027 100.037 110.635 102.618 107.184 104.204C103.725 105.791 97.0149 103.608 95.7631 100.727C94.5121 97.8454 98.4879 96.7182 98.4879 96.7182L89.725 90.7634C89.725 90.7634 83.909 91.8977 83.0166 96.4813C82.1242 101.065 88.3964 104.917 88.3964 104.917L84.2712 107.316L89.9236 111.355L94.9127 108.452C94.9127 108.452 101.897 111.304 108.856 112.065C115.816 112.826 119.466 111.27 122.22 108.845C124.967 106.42 124.348 103.011 122.868 101.053C121.388 99.0957 116.855 95.184 116.335 93.7038C115.816 92.2243 116.243 91.1327 119.317 90.5094C122.384 89.886 128.262 91.3398 129.579 93.59C130.895 95.8394 125.885 97.4469 125.885 97.4469L136.254 103.09Z" fill="#AEAEB7"/>
</svg>
