<svg width="220" height="218" viewBox="0 0 220 218" fill="none" xmlns="http://www.w3.org/2000/svg">
<path d="M91.5951 77.1807L90.5778 93.7609L97.4595 105.022C97.4595 105.022 95.784 106.127 94.2281 107.44C92.6722 108.752 91.1164 110.341 91.1164 110.341L68.7959 104.953L67.7188 121.809L81.3026 127.888C81.3026 127.888 80.764 129.961 80.7042 132.31C80.6443 134.659 80.8837 137.284 80.8837 137.284L68.9156 126.092L67.8384 142.603L73.5831 154.417L87.9448 153.657C87.9448 153.657 89.1417 155.108 91.0566 157.042C92.9715 158.976 95.6643 161.394 95.6643 161.394L90.877 170.444L106.136 177.905L115.711 171.55C115.711 171.55 118.703 172.793 122.533 173.691C126.362 174.589 131.15 175.073 131.15 175.073L134.8 183.985H150.897L155.804 174.728C155.804 174.728 160.352 173.899 164.481 172.655C168.61 171.411 172.26 169.961 172.26 169.961L180.817 177.284L194.94 170.168L195.777 153.726L196.017 152.482L212.114 153.864L217.859 141.636L218.756 125.263L202.36 136.109C202.36 136.109 202.48 134.313 202.48 132.448C202.42 130.583 202.18 128.717 202.18 128.717L217.978 122.5L218.876 105.851L194.222 112.552L189.195 107.509L195.538 94.1754L196.496 77.7333L179.98 86.2998L166.815 95.488L157.18 93.2773L151.316 80.3586C151.316 80.3586 145.87 79.7368 142.759 79.7368C139.707 79.7368 133.783 80.0822 133.783 80.0822L130.013 92.6555L117.686 95.1426L104.581 86.7143L91.5951 77.1807Z" fill="white" stroke="#AEAEB7" stroke-width="2" stroke-miterlimit="10" stroke-linejoin="round"/>
<path d="M68.7389 126.094L67.9609 142.674L73.586 154.556L74.6033 138.114L68.7389 126.094Z" fill="white" stroke="#AEAEB7" stroke-width="2" stroke-miterlimit="10" stroke-linejoin="round"/>
<path d="M91.8896 153.925L90.8125 170.575L106.132 178.105L107.329 161.248L91.8896 153.925Z" fill="white" stroke="#AEAEB7" stroke-width="2" stroke-miterlimit="10" stroke-linejoin="round"/>
<path d="M88.8404 137.274L88.0625 153.578" stroke="#AEAEB7" stroke-width="2" stroke-miterlimit="10" stroke-linejoin="round"/>
<path d="M116.616 155.241L115.719 171.545" stroke="#AEAEB7" stroke-width="2" stroke-miterlimit="10" stroke-linejoin="round"/>
<path d="M131.937 158.557L131.219 175.137" stroke="#AEAEB7" stroke-width="2" stroke-miterlimit="10" stroke-linejoin="round"/>
<path d="M135.64 167.536L134.742 184.047L150.72 184.116L152.036 167.398L135.64 167.536Z" stroke="#AEAEB7" stroke-width="2" stroke-miterlimit="10" stroke-linejoin="round"/>
<path d="M195.906 153.579L181.903 160.902L181.125 177.275L195.008 170.228L195.906 153.579Z" stroke="#AEAEB7" stroke-width="2" stroke-miterlimit="10" stroke-linejoin="round"/>
<path d="M156.772 158.21L155.695 174.86" stroke="#AEAEB7" stroke-width="2" stroke-miterlimit="10" stroke-linejoin="round"/>
<path d="M173.228 153.717L172.211 170.297" stroke="#AEAEB7" stroke-width="2" stroke-miterlimit="10" stroke-linejoin="round"/>
<path d="M196.921 136.111L196.203 152.346" stroke="#AEAEB7" stroke-width="2" stroke-miterlimit="10" stroke-linejoin="round"/>
<path d="M218.817 125.187L213.132 137.414L212.234 153.787L218.099 141.629L218.817 125.187Z" stroke="#AEAEB7" stroke-width="2" stroke-miterlimit="10" stroke-linejoin="round"/>
<path d="M143.66 63.147C140.608 63.147 134.684 63.4924 134.684 63.4924L130.974 76.0657L118.647 78.5527L105.541 70.1245L91.5388 77.1711L98.3606 88.4318C98.3606 88.4318 96.6851 89.5371 95.1292 90.8497C93.5734 92.1623 92.0175 93.7513 92.0175 93.7513L73.3472 93.0604L68.6797 105.288L82.3233 111.368C82.3233 111.368 81.7848 113.44 81.6651 115.789C81.6053 118.138 81.8446 120.763 81.8446 120.763L68.7994 126.014L74.6039 137.896L88.9656 137.136C88.9656 137.136 90.1026 138.587 92.0175 140.521C93.9324 142.456 96.6252 144.874 96.6252 144.874L91.838 153.924L107.037 161.385L116.612 155.029C116.612 155.029 119.604 156.272 123.434 157.171C127.264 158.069 132.051 158.552 132.051 158.552L135.701 167.464C135.701 167.464 141.027 167.74 143.72 167.74C146.472 167.74 151.858 167.464 151.858 167.464L156.825 158.207C156.825 158.207 161.373 157.378 165.502 156.134C169.631 154.891 173.281 153.44 173.281 153.44L181.838 160.763L195.961 153.647L190.814 143.008C190.814 143.008 192.609 141.281 194.165 139.623C195.661 137.965 197.038 135.962 197.038 135.962L213.135 137.343L218.879 125.116L203.381 119.589C203.381 119.589 203.56 117.793 203.5 115.927C203.441 114.062 203.201 112.197 203.201 112.197L218.999 105.979L213.075 93.3368L195.242 95.962L190.216 90.9188L196.559 77.5856L181.06 69.71L167.835 78.8982L158.201 76.6875L152.337 63.7687C152.217 63.7687 146.772 63.147 143.66 63.147Z" fill="white" stroke="#AEAEB7" stroke-width="2" stroke-miterlimit="10" stroke-linejoin="round"/>
<path d="M1 132.304C1 125.258 5.9069 119.593 12.0106 119.593C18.1144 119.593 23.0213 125.258 23.0213 132.304C23.0213 139.351 18.1144 145.016 12.0106 145.016C5.96674 145.016 1 139.351 1 132.304Z" fill="white" stroke="#AEAEB7" stroke-width="2" stroke-miterlimit="10" stroke-linejoin="round"/>
<path d="M45.3438 48.1587C45.3438 41.1121 50.2507 35.4473 56.3544 35.4473C62.4582 35.4473 67.3651 41.1121 67.3651 48.1587C67.3651 55.2053 62.4582 60.8702 56.3544 60.8702C50.2507 60.8702 45.3438 55.2053 45.3438 48.1587Z" fill="white" stroke="#AEAEB7" stroke-width="2" stroke-miterlimit="10" stroke-linejoin="round"/>
<path d="M62.6953 56.0371L94.2313 76.3478" stroke="#AEAEB7" stroke-width="2" stroke-miterlimit="10" stroke-linejoin="round"/>
<path d="M49.8892 55.7603L17.3359 120.768" stroke="#AEAEB7" stroke-width="2" stroke-miterlimit="10" stroke-linejoin="round"/>
<path d="M23.3203 133.131L68.2605 131.542" stroke="#AEAEB7" stroke-width="2" stroke-miterlimit="10" stroke-linejoin="round"/>
<path d="M135.809 100.581L123.961 112.049L141.135 124.139L165.49 121.375L135.809 100.581Z" fill="#AEAEB7"/>
<path d="M130.781 121.931C132.097 121.516 134.012 121.724 135.03 122.415C136.047 123.105 135.807 124.073 134.491 124.487C133.174 124.902 131.26 124.694 130.242 124.003C129.225 123.313 129.404 122.345 130.781 121.931Z" fill="#AEAEB7"/>
<path d="M120.559 114.814C121.876 114.399 123.791 114.607 124.808 115.297C125.825 115.988 125.586 116.955 124.269 117.37C122.953 117.784 121.038 117.577 120.021 116.886C119.003 116.195 119.243 115.297 120.559 114.814Z" fill="#AEAEB7"/>
<path d="M136.408 92.0864L141.135 95.6788L123.781 112.121" stroke="#AEAEB7" stroke-width="2" stroke-miterlimit="10" stroke-linejoin="round"/>
</svg>
