<svg width="218" height="218" viewBox="0 0 218 218" fill="none" xmlns="http://www.w3.org/2000/svg">
<path d="M91.3894 50.2507C98.1622 43.0974 107.591 38.6607 118.019 38.6607C131.882 38.6607 143.976 46.4963 150.417 58.1286C156.014 55.5937 162.209 54.1835 168.727 54.1835C193.73 54.1835 214 74.9102 214 100.476C214 126.045 193.73 146.772 168.727 146.772C165.733 146.774 162.745 146.472 159.81 145.871C154.138 156.127 143.33 163.056 130.924 163.056C125.731 163.056 120.819 161.84 116.446 159.678C110.696 173.387 97.3005 183 81.688 183C65.4295 183 51.5731 172.572 46.2544 157.946C43.9301 158.447 41.5219 158.708 39.0509 158.708C19.6932 158.708 4 142.636 4 122.807C4 109.519 11.0509 97.9169 21.5269 91.7096C19.3701 86.679 18.1705 81.1266 18.1705 75.289C18.1705 52.4854 36.4333 34 58.959 34C72.1842 34 83.9377 40.3741 91.3894 50.2507Z" fill="white" stroke="#AEAEB7" stroke-width="2" stroke-miterlimit="10" stroke-linejoin="round"/>
<path d="M31.5727 111.605C31.4361 111.962 31.6224 112.037 31.6659 112.099C32.0757 112.397 32.492 112.611 32.9112 112.85C35.1347 114.03 37.2341 114.375 39.4296 114.375C43.9014 114.375 46.6775 111.996 46.6775 108.167V108.093C46.6775 104.552 43.5444 103.267 40.6034 102.338L40.2215 102.214C38.0042 101.493 36.0913 100.873 36.0913 99.4129V99.3354C36.0913 98.087 37.2093 97.1676 38.9421 97.1676C40.8675 97.1676 43.1531 97.8074 44.625 98.621C44.625 98.621 45.0566 98.9005 45.215 98.4813C45.3019 98.2576 46.0473 96.2515 46.125 96.0342C46.2088 95.7981 46.0598 95.6242 45.9077 95.531C44.2276 94.5093 41.9047 93.8105 39.5012 93.8105L39.0541 93.8136C34.9612 93.8136 32.1043 96.2856 32.1043 99.8288V99.9034C32.1043 103.639 35.2562 104.85 38.2096 105.695L38.6846 105.841C40.8367 106.502 42.6907 107.071 42.6907 108.586V108.661C42.6907 110.046 41.4859 111.077 39.5418 111.077C38.7872 111.077 36.3805 111.061 33.7813 109.418C33.4675 109.235 33.2844 109.102 33.0422 108.956C32.9149 108.875 32.595 108.735 32.4554 109.157L31.5727 111.605ZM97.0377 111.605C96.9011 111.962 97.0875 112.037 97.1309 112.099C97.5407 112.397 97.9571 112.611 98.376 112.85C100.599 114.03 102.699 114.375 104.894 114.375C109.366 114.375 112.143 111.996 112.143 108.167V108.093C112.143 104.552 109.009 103.267 106.068 102.338L105.686 102.214C103.469 101.493 101.556 100.873 101.556 99.4129V99.3354C101.556 98.087 102.674 97.1676 104.407 97.1676C106.332 97.1676 108.618 97.8074 110.09 98.621C110.09 98.621 110.521 98.9005 110.68 98.4813C110.766 98.2576 111.512 96.2515 111.59 96.0342C111.674 95.7981 111.524 95.6242 111.372 95.531C109.692 94.5093 107.369 93.8105 104.966 93.8105L104.518 93.8136C100.426 93.8136 97.5686 96.2856 97.5686 99.8288V99.9034C97.5686 103.639 100.721 104.85 103.674 105.695L104.149 105.841C106.301 106.502 108.158 107.071 108.158 108.586V108.661C108.158 110.046 106.95 111.077 105.006 111.077C104.252 111.077 101.845 111.061 99.2459 109.418C98.9321 109.235 98.7459 109.108 98.51 108.956C98.4291 108.903 98.0502 108.757 97.9197 109.157L97.0377 111.605ZM141.729 104.105C141.729 106.269 141.325 107.974 140.53 109.179C139.745 110.371 138.555 110.952 136.897 110.952C135.236 110.952 134.053 110.374 133.279 109.179C132.497 107.977 132.099 106.269 132.099 104.105C132.099 101.943 132.497 100.241 133.279 99.0489C134.053 97.869 135.236 97.2944 136.897 97.2944C138.555 97.2944 139.745 97.869 140.534 99.0489C141.326 100.241 141.729 101.943 141.729 104.105ZM145.462 100.092C145.095 98.8531 144.524 97.7601 143.763 96.8503C143.002 95.9373 142.04 95.2045 140.897 94.6703C139.757 94.1394 138.409 93.8693 136.897 93.8693C135.382 93.8693 134.034 94.1394 132.894 94.6703C131.751 95.2045 130.789 95.9375 130.025 96.8503C129.267 97.7634 128.696 98.8564 128.326 100.092C127.963 101.325 127.78 102.673 127.78 104.105C127.78 105.536 127.963 106.887 128.326 108.117C128.696 109.353 129.264 110.446 130.028 111.359C130.789 112.272 131.755 113.002 132.894 113.52C134.037 114.039 135.382 114.303 136.897 114.303C138.41 114.303 139.754 114.039 140.897 113.52C142.037 113.002 143.002 112.272 143.763 111.359C144.524 110.449 145.095 109.356 145.462 108.117C145.829 106.884 146.012 105.533 146.012 104.105C146.012 102.676 145.828 101.325 145.462 100.092ZM176.114 110.374C175.99 110.011 175.639 110.147 175.639 110.147C175.096 110.355 174.518 110.548 173.903 110.644C173.279 110.74 172.593 110.79 171.857 110.79C170.05 110.79 168.615 110.253 167.587 109.191C166.556 108.129 165.978 106.412 165.984 104.089C165.991 101.974 166.5 100.384 167.416 99.1728C168.326 97.968 169.711 97.3498 171.559 97.3498C173.099 97.3498 174.273 97.5268 175.502 97.915C175.502 97.915 175.797 98.0422 175.937 97.6573C176.263 96.7504 176.505 96.1014 176.853 95.1046C176.953 94.822 176.71 94.7009 176.623 94.6666C176.139 94.4772 174.996 94.17 174.133 94.0395C173.325 93.9153 172.381 93.85 171.332 93.85C169.763 93.85 168.366 94.1171 167.171 94.6513C165.978 95.1823 164.966 95.915 164.165 96.8283C163.363 97.7413 162.755 98.8342 162.348 100.07C161.944 101.303 161.739 102.657 161.739 104.089C161.739 107.185 162.575 109.687 164.224 111.52C165.876 113.358 168.357 114.293 171.593 114.293C173.506 114.293 175.469 113.905 176.879 113.349C176.879 113.349 177.149 113.218 177.031 112.905L176.114 110.374ZM182.645 102.031C182.822 100.829 183.155 99.8292 183.667 99.05C184.44 97.8668 185.62 97.2178 187.279 97.2178C188.937 97.2178 190.033 97.8698 190.819 99.05C191.341 99.8292 191.567 100.873 191.658 102.031H182.645ZM195.213 99.3882C194.896 98.1926 194.111 96.9845 193.595 96.4318C192.781 95.5561 191.987 94.9444 191.198 94.6027C190.167 94.1617 188.931 93.8699 187.577 93.8699C185.999 93.8699 184.568 94.134 183.406 94.6804C182.242 95.227 181.264 95.9724 180.497 96.901C179.729 97.8262 179.152 98.9286 178.785 100.18C178.416 101.425 178.23 102.783 178.23 104.214C178.23 105.67 178.422 107.028 178.804 108.248C179.189 109.478 179.804 110.561 180.636 111.459C181.465 112.363 182.534 113.071 183.813 113.564C185.083 114.055 186.627 114.31 188.4 114.306C192.049 114.294 193.971 113.48 194.763 113.042C194.903 112.965 195.036 112.828 194.868 112.437L194.042 110.123C193.918 109.779 193.567 109.906 193.567 109.906C192.663 110.241 191.378 110.844 188.381 110.838C186.422 110.835 184.968 110.257 184.058 109.353C183.123 108.428 182.667 107.068 182.586 105.149L195.222 105.161C195.222 105.161 195.554 105.155 195.589 104.832C195.601 104.695 196.024 102.236 195.213 99.3882ZM81.4499 102.031C81.63 100.829 81.9593 99.8292 82.4716 99.05C83.2448 97.8668 84.4249 97.2178 86.0832 97.2178C87.7414 97.2178 88.8377 97.8698 89.6264 99.05C90.1449 99.8292 90.3716 100.873 90.4617 102.031H81.4499ZM94.0143 99.3882C93.6977 98.1926 92.9151 96.9845 92.3997 96.4318C91.586 95.5561 90.791 94.9444 90.0024 94.6027C88.9713 94.1617 87.7355 93.8699 86.3815 93.8699C84.807 93.8699 83.3722 94.134 82.2109 94.6804C81.0465 95.227 80.0682 95.9724 79.3012 96.901C78.5341 97.8262 77.9565 98.9286 77.5901 100.18C77.2237 101.425 77.0343 102.783 77.0343 104.214C77.0343 105.67 77.2268 107.028 77.6089 108.248C77.994 109.478 78.609 110.561 79.441 111.459C80.2703 112.363 81.3384 113.071 82.6179 113.564C83.8881 114.055 85.4313 114.31 87.2046 114.306C90.8534 114.294 92.7757 113.48 93.5676 113.042C93.7075 112.965 93.8408 112.828 93.6732 112.437L92.8503 110.123C92.7229 109.779 92.3722 109.906 92.3722 109.906C91.4686 110.241 90.1859 110.844 87.183 110.838C85.2267 110.835 83.7733 110.257 82.8633 109.353C81.9285 108.428 81.4722 107.068 81.3913 105.149L94.0272 105.161C94.0272 105.161 94.3593 105.155 94.3936 104.832C94.4056 104.695 94.8278 102.236 94.0143 99.3882ZM54.1375 110.305C53.6437 109.91 53.5754 109.811 53.4078 109.556C53.1593 109.168 53.032 108.615 53.032 107.914C53.032 106.802 53.3984 106.004 54.1594 105.466C54.1502 105.47 55.2463 104.519 57.8237 104.553C59.634 104.578 61.2519 104.845 61.2519 104.845V110.59H61.2549C61.2549 110.59 59.6495 110.935 57.8422 111.044C55.271 111.199 54.1282 110.302 54.1375 110.305ZM59.1651 101.426C58.6527 101.389 57.988 101.367 57.193 101.367C56.1094 101.367 55.0628 101.504 54.0815 101.768C53.094 102.032 52.2059 102.445 51.4419 102.991C50.6791 103.536 50.0521 104.249 49.6097 105.075C49.1626 105.907 48.9359 106.889 48.9359 107.988C48.9359 109.106 49.1283 110.078 49.5135 110.873C49.8986 111.671 50.4544 112.336 51.1623 112.848C51.8641 113.361 52.7307 113.736 53.7367 113.963C54.7274 114.19 55.8514 114.304 57.0813 114.304C58.3762 114.304 59.6681 114.199 60.9195 113.984C62.1586 113.773 63.6802 113.466 64.1025 113.37C64.3986 113.298 64.6936 113.223 64.9876 113.143C65.3014 113.065 65.2765 112.73 65.2765 112.73L65.2702 101.175C65.2702 98.6406 64.5932 96.7617 63.261 95.5973C61.9349 94.436 59.9816 93.8487 57.4571 93.8487C56.5098 93.8487 54.9851 93.9794 54.0721 94.1625C54.0721 94.1625 51.3114 94.6967 50.1747 95.5849C50.1747 95.5849 49.9264 95.7403 50.063 96.0881L50.9574 98.4918C51.0692 98.8023 51.3705 98.6967 51.3705 98.6967C51.3705 98.6967 51.4668 98.6594 51.5787 98.5941C54.0103 97.2713 57.0846 97.3116 57.0846 97.3116C58.4511 97.3116 59.5007 97.5849 60.2086 98.1282C60.8979 98.6561 61.2488 99.4541 61.2488 101.137V101.671C60.1619 101.516 59.1651 101.426 59.1651 101.426ZM161.079 94.9156C161.175 94.6297 160.974 94.4931 160.89 94.4622C160.676 94.3784 159.601 94.1516 158.772 94.0988C157.185 94.0026 156.303 94.2697 155.514 94.6236C154.732 94.9776 153.862 95.5489 153.378 96.1981V94.6609C153.378 94.4467 153.226 94.2758 153.014 94.2758H149.775C149.564 94.2758 149.412 94.4464 149.412 94.6609V113.508C149.412 113.719 149.586 113.893 149.797 113.893H153.117C153.219 113.892 153.316 113.851 153.388 113.779C153.459 113.707 153.499 113.609 153.499 113.508V104.092C153.499 102.828 153.639 101.568 153.918 100.776C154.191 99.9929 154.564 99.3657 155.024 98.9153C155.486 98.4682 156.011 98.1546 156.586 97.9776C157.173 97.7974 157.822 97.7385 158.281 97.7385C158.943 97.7385 159.669 97.9091 159.669 97.9091C159.911 97.9371 160.048 97.788 160.129 97.5676C160.346 96.99 160.961 95.2602 161.079 94.9156Z" fill="#AEAEB7"/>
<path d="M129.929 86.183C129.526 86.0588 129.159 85.9748 128.681 85.8849C128.196 85.798 127.619 85.7544 126.964 85.7544C124.678 85.7544 122.877 86.4003 121.613 87.6734C120.355 88.9406 119.501 90.869 119.072 93.4062L118.917 94.2601H116.048C116.048 94.2601 115.7 94.2477 115.626 94.6267L115.157 97.2569C115.123 97.5054 115.231 97.6636 115.567 97.6636H118.358L115.526 113.476C115.306 114.75 115.051 115.796 114.768 116.591C114.492 117.374 114.222 117.961 113.887 118.389C113.564 118.799 113.259 119.103 112.731 119.28C112.296 119.426 111.793 119.495 111.244 119.495C110.939 119.495 110.533 119.445 110.231 119.383C109.933 119.324 109.775 119.259 109.548 119.162C109.548 119.162 109.222 119.038 109.092 119.364C108.989 119.634 108.244 121.681 108.154 121.932C108.067 122.184 108.191 122.379 108.349 122.438C108.722 122.569 108.998 122.656 109.505 122.777C110.207 122.942 110.799 122.951 111.355 122.951C112.517 122.951 113.579 122.786 114.458 122.47C115.34 122.15 116.11 121.594 116.793 120.842C117.529 120.029 117.991 119.178 118.433 118.013C118.87 116.864 119.246 115.436 119.544 113.771L122.392 97.6636H126.553C126.553 97.6636 126.904 97.6761 126.976 97.2942L127.447 94.6671C127.479 94.4157 127.373 94.2603 127.034 94.2603H122.994C123.016 94.1704 123.199 92.7478 123.662 91.4097C123.861 90.8415 124.233 90.3787 124.547 90.0618C124.858 89.7513 125.215 89.5309 125.606 89.4034C126.007 89.2729 126.464 89.211 126.963 89.211C127.342 89.211 127.718 89.2544 128 89.3133C128.392 89.3973 128.544 89.4408 128.647 89.472C129.06 89.5961 129.115 89.475 129.196 89.2764L130.162 86.6244C130.261 86.3381 130.016 86.217 129.929 86.183ZM73.4806 113.511C73.4806 113.722 73.3285 113.893 73.1173 113.893H69.7665C69.5553 113.893 69.4062 113.722 69.4062 113.511V86.5433C69.4062 86.3322 69.5553 86.1614 69.7665 86.1614H73.1173C73.3285 86.1614 73.4806 86.3322 73.4806 86.5433V113.511Z" fill="#AEAEB7"/>
</svg>
