<svg width="219" height="218" viewBox="0 0 219 218" fill="none" xmlns="http://www.w3.org/2000/svg">
<path d="M113.385 120.217H135.227C141.44 120.217 145.374 116.8 145.374 111.288C145.374 106.113 141.44 102.36 135.227 102.36H113.385C112.659 102.36 112.04 102.982 112.04 103.604V118.927C112.143 119.652 112.662 120.171 113.385 120.171V120.217ZM113.385 155.521H135.95C142.887 155.521 147.027 152.003 147.027 145.789C147.027 140.377 143.093 136.056 135.95 136.056H113.385C112.659 136.056 112.04 136.679 112.04 137.301V154.176C112.143 155.004 112.662 155.521 113.385 155.521ZM193.302 22.077L128.704 86.472H139.264C155.726 86.472 165.455 96.8239 165.455 108.109C165.455 117.038 159.449 123.532 153.009 126.432C151.973 126.846 151.973 128.326 153.112 128.71C160.566 131.605 165.845 139.371 165.845 148.483C165.845 161.319 157.252 171.568 140.585 171.568H94.8507C94.1256 171.568 93.506 170.946 93.506 170.324V121.565L22.5929 192.164C21.6622 193.095 22.2818 194.753 23.6292 194.753H194.13C194.752 194.753 195.266 194.212 195.266 193.617V23.0105C195.577 21.8741 194.13 21.2518 193.299 22.0797L193.302 22.077Z" fill="white" stroke="#AEAEB7" stroke-width="2" stroke-miterlimit="10" stroke-linejoin="round"/>
</svg>
