<svg width="220" height="218" viewBox="0 0 220 218" fill="none" xmlns="http://www.w3.org/2000/svg">
<path d="M91.5653 80.6523L90.5483 95.0102L97.4281 104.762C97.4281 104.762 95.753 105.719 94.1976 106.855C92.6422 107.992 91.0868 109.368 91.0868 109.368L68.7722 104.762L67.6953 119.359L81.2755 124.623C81.2755 124.623 80.7371 126.418 80.6773 128.452C80.6174 130.486 80.8567 132.759 80.8567 132.759L68.8918 123.068L67.815 137.366L73.5581 147.596L87.916 146.938C87.916 146.938 89.1125 148.194 91.0269 149.869C92.9413 151.544 95.6334 153.638 95.6334 153.638L90.8474 161.475L106.103 167.936L115.675 162.432C115.675 162.432 118.666 163.509 122.495 164.287C126.323 165.065 131.109 165.483 131.109 165.483L134.759 173.201H150.851L155.757 165.184C155.757 165.184 160.364 164.466 164.432 163.39C168.559 162.313 172.209 161.056 172.209 161.056L180.764 167.398L194.882 161.236L195.72 146.998L195.959 145.921L212.052 147.117L217.795 136.528L218.692 122.35L202.3 131.742C202.3 131.742 202.42 130.187 202.42 128.572C202.36 126.957 202.121 125.341 202.121 125.341L217.915 119.957L218.812 105.539L194.164 111.342L189.139 106.975L195.481 95.429L196.438 81.1908L179.926 88.609L166.765 96.5657L157.133 94.6513L151.27 83.4641C151.27 83.4641 145.826 82.9257 142.715 82.9257C139.664 82.9257 133.742 83.2248 133.742 83.2248L129.973 94.1129L117.649 96.2665L104.547 88.9679L91.5653 80.6523Z" fill="white" stroke="#AEAEB7" stroke-width="2" stroke-miterlimit="10" stroke-linejoin="round"/>
<path d="M68.7309 123.069L67.9531 137.427L73.5766 147.717L74.5936 133.478L68.7309 123.069Z" fill="white" stroke="#AEAEB7" stroke-width="2" stroke-miterlimit="10" stroke-linejoin="round"/>
<path d="M91.8737 147.116L90.7969 161.534L106.112 168.055L107.308 153.458L91.8737 147.116Z" fill="white" stroke="#AEAEB7" stroke-width="2" stroke-miterlimit="10" stroke-linejoin="round"/>
<path d="M88.7543 132.76L87.9766 146.878" stroke="#AEAEB7" stroke-width="2" stroke-miterlimit="10" stroke-linejoin="round"/>
<path d="M116.593 148.256L115.695 162.374" stroke="#AEAEB7" stroke-width="2" stroke-miterlimit="10" stroke-linejoin="round"/>
<path d="M131.898 151.188L131.18 165.546" stroke="#AEAEB7" stroke-width="2" stroke-miterlimit="10" stroke-linejoin="round"/>
<path d="M135.616 158.96L134.719 173.258L150.692 173.318L152.008 158.84L135.616 158.96Z" stroke="#AEAEB7" stroke-width="2" stroke-miterlimit="10" stroke-linejoin="round"/>
<path d="M195.808 146.882L181.809 153.224L181.031 167.402L194.911 161.3L195.808 146.882Z" stroke="#AEAEB7" stroke-width="2" stroke-miterlimit="10" stroke-linejoin="round"/>
<path d="M156.741 150.889L155.664 165.306" stroke="#AEAEB7" stroke-width="2" stroke-miterlimit="10" stroke-linejoin="round"/>
<path d="M173.181 146.942L172.164 161.3" stroke="#AEAEB7" stroke-width="2" stroke-miterlimit="10" stroke-linejoin="round"/>
<path d="M196.866 131.687L196.148 145.745" stroke="#AEAEB7" stroke-width="2" stroke-miterlimit="10" stroke-linejoin="round"/>
<path d="M218.768 122.295L213.085 132.884L212.188 147.062L218.05 136.533L218.768 122.295Z" stroke="#AEAEB7" stroke-width="2" stroke-miterlimit="10" stroke-linejoin="round"/>
<path d="M143.627 68.5088C140.576 68.5088 134.653 68.8079 134.653 68.8079L130.944 79.696L118.62 81.8496L105.519 74.5511L91.5795 80.6532L98.3995 90.4046C98.3995 90.4046 96.7244 91.3618 95.169 92.4984C93.6135 93.6351 92.0581 95.011 92.0581 95.011L73.3928 94.4128L68.7266 105.002L82.3665 110.266C82.3665 110.266 81.8281 112.061 81.7085 114.095C81.6486 116.129 81.888 118.402 81.888 118.402L68.8462 122.949L74.6492 133.239L89.0071 132.581C89.0071 132.581 90.1437 133.837 92.0581 135.512C93.9725 137.187 96.6646 139.281 96.6646 139.281L91.8786 147.118L107.074 153.579L116.646 148.075C116.646 148.075 119.637 149.152 123.466 149.93C127.295 150.708 132.081 151.126 132.081 151.126L135.73 158.844C135.73 158.844 141.054 159.083 143.747 159.083C146.498 159.083 151.883 158.844 151.883 158.844L156.848 150.827C156.848 150.827 161.395 150.109 165.523 149.033C169.65 147.956 173.3 146.699 173.3 146.699L181.855 153.041L195.973 146.879L190.828 137.666C190.828 137.666 192.623 136.17 194.179 134.735C195.674 133.299 197.05 131.564 197.05 131.564L213.143 132.76L218.886 122.171L203.392 117.385C203.392 117.385 203.571 115.83 203.511 114.215C203.451 112.599 203.212 110.984 203.212 110.984L219.006 105.6L213.083 94.6521L195.255 96.9254L190.23 92.5582L196.572 81.0121L181.077 74.1921L167.856 82.1488L158.224 80.2344L152.361 69.0472C152.182 69.107 146.738 68.5088 143.627 68.5088Z" fill="white" stroke="#AEAEB7" stroke-width="2" stroke-miterlimit="10" stroke-linejoin="round"/>
<path d="M1.01562 128.397C1.01562 122.295 5.92125 117.39 12.0233 117.39C18.1254 117.39 23.0311 122.295 23.0311 128.397C23.0311 134.499 18.1254 139.405 12.0233 139.405C5.92125 139.405 1.01562 134.499 1.01562 128.397Z" fill="white" stroke="#AEAEB7" stroke-width="2" stroke-miterlimit="10" stroke-linejoin="round"/>
<path d="M45.3438 55.5287C45.3438 49.4266 50.2493 44.521 56.3514 44.521C62.4535 44.521 67.3591 49.4266 67.3591 55.5287C67.3591 61.6308 62.4535 66.5364 56.3514 66.5364C50.2493 66.5364 45.3438 61.6308 45.3438 55.5287Z" fill="white" stroke="#AEAEB7" stroke-width="2" stroke-miterlimit="10" stroke-linejoin="round"/>
<path d="M62.6875 62.3438L94.215 79.9322" stroke="#AEAEB7" stroke-width="2" stroke-miterlimit="10" stroke-linejoin="round"/>
<path d="M49.8649 62.104L17.3203 118.459" stroke="#AEAEB7" stroke-width="2" stroke-miterlimit="10" stroke-linejoin="round"/>
<path d="M23.2578 129.17L68.186 127.794" stroke="#AEAEB7" stroke-width="2" stroke-miterlimit="10" stroke-linejoin="round"/>
<path d="M131.412 90.2896C133.207 90.8878 135.48 91.7852 137.993 93.1013C141.104 94.7166 142.539 96.3916 142.48 98.0069C142.48 99.5025 141.223 101.058 138.711 102.494C136.138 103.93 133.506 104.767 130.814 104.947C127.105 105.246 123.336 104.408 120.285 102.853C119.328 102.374 118.55 101.896 118.012 101.357L106.705 107.818L103.594 106.203L131.412 90.2896ZM120.883 99.682C121.362 100.161 122.139 100.639 123.156 101.237C126.925 103.212 131.412 103.212 135.301 100.998C139.01 98.8445 138.591 96.631 135.121 94.8362C133.745 94.1183 132.609 93.6397 131.891 93.4602L120.883 99.682Z" fill="#AEAEB7"/>
<path d="M157.86 118.944C148.109 124.507 137.879 124.806 131.657 121.516C125.256 118.166 126.512 112.482 135.067 107.577C144.041 102.432 154.689 101.594 161.21 105.004C167.851 108.474 166.236 114.098 157.86 118.944ZM138.537 109.312C132.495 112.782 129.922 117.328 134.828 119.901C139.793 122.533 147.929 120.918 154.39 117.268C160.014 114.038 163.364 109.372 158.159 106.62C152.895 103.928 144.759 105.782 138.537 109.312Z" fill="#AEAEB7"/>
<path d="M151.511 126.544C151.93 127.86 153.126 129.415 155.28 130.552C158.511 132.227 162.339 132.107 165.211 130.432C167.843 128.937 168.083 127.381 166.228 124.809C163.895 121.817 163.835 119.125 167.843 116.852C172.27 114.339 178.671 114.1 183.398 116.553C185.91 117.869 187.047 119.185 187.406 120.142L183.577 121.399C183.278 120.681 182.5 119.365 180.287 118.228C176.996 116.493 173.407 117.151 171.492 118.228C168.86 119.724 169.04 121.279 170.894 123.852C173.168 127.082 172.928 129.475 168.8 131.868C164.433 134.381 157.912 135.039 152.169 132.047C149.836 130.791 148.041 128.996 147.742 127.74L151.511 126.544Z" fill="#AEAEB7"/>
</svg>
