<svg width="220" height="218" viewBox="0 0 220 218" fill="none" xmlns="http://www.w3.org/2000/svg">
<path d="M91.5952 71.5015L90.5779 85.8834L97.4596 95.6511C97.4596 95.6511 95.7841 96.6099 94.2282 97.7484C92.6724 98.887 91.1165 100.265 91.1165 100.265L68.7959 95.6511L67.7188 110.273L81.3026 115.546C81.3026 115.546 80.764 117.344 80.7042 119.381C80.6444 121.419 80.8837 123.696 80.8837 123.696L68.9156 113.988L67.8384 128.31L73.5832 138.557L87.945 137.898C87.945 137.898 89.1418 139.156 91.0567 140.834C92.9716 142.512 95.6644 144.609 95.6644 144.609L90.8771 152.46L106.137 158.931L115.711 153.418C115.711 153.418 118.703 154.497 122.533 155.276C126.363 156.055 131.15 156.475 131.15 156.475L134.8 164.205H150.897L155.804 156.175C155.804 156.175 160.412 155.456 164.481 154.377C168.61 153.299 172.261 152.04 172.261 152.04L180.818 158.392L194.94 152.22L195.778 137.958L196.017 136.879L212.115 138.078L217.859 127.471L218.757 113.269L202.361 122.677C202.361 122.677 202.48 121.119 202.48 119.501C202.42 117.883 202.181 116.265 202.181 116.265L217.979 110.872L218.877 96.4301L194.282 102.243L189.255 97.8683L195.599 86.3028L196.556 72.0408L180.04 79.4714L166.875 87.4414L157.241 85.5238L151.376 74.3179C151.376 74.3179 145.931 73.7786 142.819 73.7786C139.827 73.7786 133.843 74.0782 133.843 74.0782L130.073 84.9845L117.746 87.1418L104.641 79.831L91.5952 71.5015Z" fill="white" stroke="#AEAEB7" stroke-width="2" stroke-miterlimit="10" stroke-linejoin="round"/>
<path d="M68.7389 113.93L67.9609 128.312L73.586 138.619L74.6032 124.357L68.7389 113.93Z" fill="white" stroke="#AEAEB7" stroke-width="2" stroke-miterlimit="10" stroke-linejoin="round"/>
<path d="M91.8974 138.079L90.8203 152.521L106.14 159.053L107.336 144.431L91.8974 138.079Z" fill="white" stroke="#AEAEB7" stroke-width="2" stroke-miterlimit="10" stroke-linejoin="round"/>
<path d="M88.8405 123.639L88.0625 137.781" stroke="#AEAEB7" stroke-width="2" stroke-miterlimit="10" stroke-linejoin="round"/>
<path d="M116.616 139.219L115.719 153.361" stroke="#AEAEB7" stroke-width="2" stroke-miterlimit="10" stroke-linejoin="round"/>
<path d="M131.992 142.097L131.273 156.479" stroke="#AEAEB7" stroke-width="2" stroke-miterlimit="10" stroke-linejoin="round"/>
<path d="M135.64 149.887L134.742 164.209L150.72 164.269L152.036 149.767L135.64 149.887Z" stroke="#AEAEB7" stroke-width="2" stroke-miterlimit="10" stroke-linejoin="round"/>
<path d="M195.906 137.779L181.903 144.131L181.125 158.333L195.008 152.221L195.906 137.779Z" stroke="#AEAEB7" stroke-width="2" stroke-miterlimit="10" stroke-linejoin="round"/>
<path d="M156.765 141.797L155.688 156.239" stroke="#AEAEB7" stroke-width="2" stroke-miterlimit="10" stroke-linejoin="round"/>
<path d="M173.22 137.899L172.203 152.281" stroke="#AEAEB7" stroke-width="2" stroke-miterlimit="10" stroke-linejoin="round"/>
<path d="M196.921 122.619L196.203 136.701" stroke="#AEAEB7" stroke-width="2" stroke-miterlimit="10" stroke-linejoin="round"/>
<path d="M218.817 113.15L213.132 123.757L212.234 137.959L218.099 127.412L218.817 113.15Z" stroke="#AEAEB7" stroke-width="2" stroke-miterlimit="10" stroke-linejoin="round"/>
<path d="M143.66 59.3398C140.668 59.3398 134.684 59.6395 134.684 59.6395L130.914 70.5458L118.587 72.703L105.482 65.3922L91.5389 71.5045L98.3607 81.2723C98.3607 81.2723 96.6852 82.231 95.1293 83.3696C93.5735 84.5082 92.0176 85.8865 92.0176 85.8865L73.3473 85.2872L68.6797 95.8939L82.3234 101.167C82.3234 101.167 81.7848 102.965 81.6651 105.002C81.6053 107.04 81.8447 109.317 81.8447 109.317L68.7994 113.871L74.6039 124.178L88.9657 123.519C88.9657 123.519 90.1027 124.778 92.0176 126.455C93.9325 128.133 96.6253 130.231 96.6253 130.231L91.8381 138.081L107.038 144.553L116.612 139.04C116.612 139.04 119.604 140.118 123.434 140.897C127.264 141.676 132.051 142.096 132.051 142.096L135.701 149.826C135.701 149.826 141.027 150.066 143.72 150.066C146.473 150.066 151.858 149.826 151.858 149.826L156.825 141.796C156.825 141.796 161.373 141.077 165.502 139.998C169.631 138.92 173.281 137.661 173.281 137.661L181.839 144.013L195.961 137.841L190.815 128.613C190.815 128.613 192.61 127.115 194.166 125.676C195.662 124.238 197.038 122.5 197.038 122.5L213.135 123.699L218.88 113.092L203.381 108.298C203.381 108.298 203.561 106.74 203.501 105.122C203.441 103.504 203.202 101.886 203.202 101.886L219 96.4931L213.075 85.5269L195.243 87.804L190.216 83.4295L196.559 71.8641L181.061 65.0327L167.836 73.0027L158.202 71.0851L152.337 59.8792C152.217 59.8792 146.772 59.3398 143.66 59.3398Z" fill="white" stroke="#AEAEB7" stroke-width="2" stroke-miterlimit="10" stroke-linejoin="round"/>
<path d="M1 119.325C1 113.213 5.90696 108.299 12.0107 108.299C18.1145 108.299 23.0214 113.213 23.0214 119.325C23.0214 125.437 18.1145 130.351 12.0107 130.351C5.9668 130.351 1 125.437 1 119.325Z" fill="white" stroke="#AEAEB7" stroke-width="2" stroke-miterlimit="10" stroke-linejoin="round"/>
<path d="M45.3438 46.3362C45.3438 40.2239 50.2507 35.3101 56.3544 35.3101C62.4582 35.3101 67.3652 40.2239 67.3652 46.3362C67.3652 52.4485 62.4582 57.3623 56.3544 57.3623C50.2507 57.3623 45.3438 52.4485 45.3438 46.3362Z" fill="white" stroke="#AEAEB7" stroke-width="2" stroke-miterlimit="10" stroke-linejoin="round"/>
<path d="M62.6953 53.1689L94.2314 70.7868" stroke="#AEAEB7" stroke-width="2" stroke-miterlimit="10" stroke-linejoin="round"/>
<path d="M49.892 52.9292L17.3984 109.318" stroke="#AEAEB7" stroke-width="2" stroke-miterlimit="10" stroke-linejoin="round"/>
<path d="M23.3203 120.045L68.2607 118.667" stroke="#AEAEB7" stroke-width="2" stroke-miterlimit="10" stroke-linejoin="round"/>
<path d="M117.984 94.2764L104.161 97.8719L100.57 95.9543L144.793 84.6885L148.982 86.9057L123.19 107.999L119.48 106.022L127.618 99.4299L117.984 94.2764ZM130.431 97.3925L137.851 91.3401C139.527 89.9618 141.202 88.8233 142.818 87.6248L142.758 87.5649C140.305 88.2839 137.731 89.063 135.039 89.7821L122.233 93.018L130.431 97.3925Z" fill="#AEAEB7"/>
<path d="M161.783 94.1577C163.818 94.8768 166.331 95.8955 169.144 97.3936C172.614 99.2513 174.111 101.049 173.811 102.787C173.632 104.345 171.956 105.963 168.844 107.401C165.673 108.839 162.442 109.618 159.27 109.738C154.902 109.918 150.593 108.899 147.182 107.101C146.165 106.562 145.207 106.023 144.669 105.483L130.666 111.955L127.195 110.098L161.783 94.1577ZM148.379 103.806C148.858 104.345 149.755 104.884 150.892 105.483C155.081 107.701 160.347 107.88 165.134 105.663C169.742 103.506 169.443 101.169 165.613 99.1315C164.057 98.2925 162.741 97.7532 161.963 97.5734L148.379 103.806Z" fill="#AEAEB7"/>
<path d="M187.048 107.218L152.041 123.337L148.57 121.48L183.577 105.36L187.048 107.218Z" fill="#AEAEB7"/>
</svg>
