<svg width="219" height="218" viewBox="0 0 219 218" fill="none" xmlns="http://www.w3.org/2000/svg">
<path d="M28.1394 49.8618H189.227C199.422 49.8618 207.675 58.1141 207.675 68.3091V129.799C207.675 139.993 199.422 148.246 189.227 148.246H131.46L139.389 167.664L104.517 148.246H28.2213C18.0271 148.246 9.77403 139.994 9.77403 129.799V68.3091C9.69312 58.1953 17.9452 49.8618 28.1394 49.8618Z" fill="white" stroke="#AEAEB7" stroke-width="2" stroke-miterlimit="10" stroke-linejoin="round"/>
<path d="M21.0403 66.6744C22.1666 65.1459 23.856 64.3414 26.1085 64.1805C30.2113 63.8587 32.5443 65.7895 33.1075 69.9727C35.6013 86.7866 38.3365 101.025 41.233 112.691L58.8508 79.1442C60.4597 76.0872 62.4709 74.4782 64.8844 74.3174C68.4241 74.076 70.5961 76.3285 71.481 81.075C73.4922 91.7748 76.0665 100.865 79.1236 108.588C81.2152 88.1538 84.7549 73.4326 89.7429 64.3415C90.9497 62.089 92.7195 60.9628 95.0525 60.8018C96.9028 60.6409 98.5922 61.2041 100.121 62.4108C101.649 63.6175 102.454 65.146 102.615 66.9963C102.695 68.4444 102.454 69.651 101.81 70.8577C98.6726 76.65 96.0983 86.3844 94.0068 99.8989C91.9957 113.012 91.2716 123.229 91.7543 130.55C91.9152 132.561 91.5934 134.331 90.7889 135.859C89.8236 137.629 88.3755 138.594 86.5253 138.755C84.4336 138.916 82.2616 137.951 80.17 135.779C72.6884 128.136 66.7351 116.713 62.3914 101.508C57.1623 111.805 53.3011 119.528 50.8072 124.677C46.0608 133.767 42.0385 138.433 38.6595 138.674C36.4874 138.835 34.6371 136.985 33.0281 133.124C28.9253 122.585 24.5006 102.232 19.7541 72.0642C19.4323 69.9726 19.915 68.1223 21.0412 66.6742L21.0403 66.6744ZM193.925 79.3045C191.029 74.2363 186.765 71.1789 181.054 69.9722C179.525 69.6504 178.077 69.4895 176.71 69.4895C168.987 69.4895 162.712 73.5119 157.805 81.5568C153.622 88.3948 151.53 95.9572 151.53 104.243C151.53 110.437 152.817 115.746 155.391 120.171C158.287 125.24 162.551 128.297 168.263 129.504C169.791 129.825 171.239 129.986 172.607 129.986C180.41 129.986 186.685 125.964 191.512 117.919C195.695 111.001 197.787 103.438 197.787 95.1528C197.867 88.8778 196.499 83.649 193.925 79.3045ZM183.789 101.588C182.663 106.898 180.651 110.839 177.675 113.495C175.342 115.587 173.17 116.471 171.159 116.069C169.228 115.667 167.619 113.978 166.412 110.84C165.447 108.346 164.964 105.852 164.964 103.519C164.964 101.508 165.125 99.4971 165.527 97.6468C166.251 94.3485 167.619 91.1306 169.791 88.0734C172.446 84.1315 175.261 82.5225 178.158 83.0857C180.089 83.4879 181.697 85.1773 182.904 88.3147C183.87 90.8086 184.352 93.3025 184.352 95.6354C184.352 97.7271 184.191 99.7381 183.789 101.588ZM143.565 79.3045C140.669 74.2363 136.325 71.1789 130.694 69.9722C129.165 69.6504 127.717 69.4895 126.349 69.4895C118.626 69.4895 112.352 73.5119 107.444 81.5568C103.261 88.3948 101.17 95.9572 101.17 104.243C101.17 110.437 102.457 115.746 105.031 120.171C107.927 125.24 112.191 128.297 117.902 129.504C119.431 129.825 120.879 129.986 122.246 129.986C130.05 129.986 136.324 125.964 141.151 117.919C145.335 111.001 147.426 103.438 147.426 95.1528C147.426 88.8778 146.139 83.649 143.565 79.3045ZM133.348 101.588C132.222 106.898 130.211 110.839 127.234 113.495C124.901 115.587 122.729 116.471 120.718 116.069C118.787 115.667 117.178 113.978 115.972 110.84C115.006 108.346 114.524 105.852 114.524 103.519C114.524 101.508 114.684 99.4971 115.087 97.6468C115.811 94.3485 117.178 91.1306 119.35 88.0734C122.005 84.1315 124.821 82.5225 127.717 83.0857C129.648 83.4879 131.257 85.1773 132.463 88.3147C133.429 90.8086 133.911 93.3025 133.911 95.6354C133.992 97.7271 133.75 99.7381 133.348 101.588Z" fill="white" stroke="#AEAEB7" stroke-width="2" stroke-miterlimit="10" stroke-linejoin="round"/>
</svg>
