<svg width="220" height="218" viewBox="0 0 220 218" fill="none" xmlns="http://www.w3.org/2000/svg">
<path d="M91.5951 81.8218L90.5778 96.0325L97.4595 105.684C97.4595 105.684 95.7839 106.631 94.2281 107.756C92.6722 108.881 91.1164 110.243 91.1164 110.243L68.7959 105.684L67.7188 120.131L81.3025 125.342C81.3025 125.342 80.764 127.118 80.7041 129.132C80.6443 131.145 80.8837 133.395 80.8837 133.395L68.9156 123.803L67.8384 137.954L73.5831 148.079L87.9448 147.428C87.9448 147.428 89.1417 148.671 91.0566 150.329C92.9715 151.987 95.6643 154.059 95.6643 154.059L90.877 161.816L106.136 168.211L115.711 162.764C115.711 162.764 118.703 163.829 122.533 164.599C126.362 165.369 131.15 165.783 131.15 165.783L134.8 173.422H150.897L155.804 165.487C155.804 165.487 160.352 164.777 164.481 163.711C168.61 162.645 172.26 161.402 172.26 161.402L180.817 167.678L194.94 161.579L195.777 147.487L196.017 146.421L212.114 147.605L217.859 137.125L218.756 123.092L202.36 132.388C202.36 132.388 202.48 130.849 202.48 129.25C202.48 127.651 202.18 126.053 202.18 126.053L217.978 120.724L218.876 106.454L194.222 112.197L189.195 107.875L195.538 96.447L196.496 82.3547L179.98 89.6969L166.815 97.572L157.18 95.6772L151.316 84.6047C151.316 84.6047 145.87 84.0718 142.759 84.0718C139.707 84.0718 133.783 84.3679 133.783 84.3679L130.013 95.1443L117.686 97.2759L104.58 89.9337L91.5951 81.8218Z" fill="white" stroke="#AEAEB7" stroke-width="2" stroke-miterlimit="10" stroke-linejoin="round"/>
<path d="M68.7389 123.747L67.9609 137.957L73.5859 148.142L74.6032 134.049L68.7389 123.747Z" fill="white" stroke="#AEAEB7" stroke-width="2" stroke-miterlimit="10" stroke-linejoin="round"/>
<path d="M91.8975 147.602L90.8203 161.872L106.139 168.326L107.336 153.878L91.8975 147.602Z" fill="white" stroke="#AEAEB7" stroke-width="2" stroke-miterlimit="10" stroke-linejoin="round"/>
<path d="M88.8404 133.335L88.0625 147.309" stroke="#AEAEB7" stroke-width="2" stroke-miterlimit="10" stroke-linejoin="round"/>
<path d="M116.609 148.729L115.711 162.703" stroke="#AEAEB7" stroke-width="2" stroke-miterlimit="10" stroke-linejoin="round"/>
<path d="M131.937 151.632L131.219 165.843" stroke="#AEAEB7" stroke-width="2" stroke-miterlimit="10" stroke-linejoin="round"/>
<path d="M135.64 159.271L134.742 173.422L150.72 173.481L152.036 159.152L135.64 159.271Z" stroke="#AEAEB7" stroke-width="2" stroke-miterlimit="10" stroke-linejoin="round"/>
<path d="M195.906 147.368L181.903 153.585L181.125 167.618L195.008 161.579L195.906 147.368Z" stroke="#AEAEB7" stroke-width="2" stroke-miterlimit="10" stroke-linejoin="round"/>
<path d="M156.765 151.338L155.688 165.608" stroke="#AEAEB7" stroke-width="2" stroke-miterlimit="10" stroke-linejoin="round"/>
<path d="M173.22 147.428L172.203 161.639" stroke="#AEAEB7" stroke-width="2" stroke-miterlimit="10" stroke-linejoin="round"/>
<path d="M196.921 132.328L196.203 146.243" stroke="#AEAEB7" stroke-width="2" stroke-miterlimit="10" stroke-linejoin="round"/>
<path d="M218.817 122.973L213.132 133.453L212.234 147.486L218.099 137.065L218.817 122.973Z" stroke="#AEAEB7" stroke-width="2" stroke-miterlimit="10" stroke-linejoin="round"/>
<path d="M143.66 69.8042C140.608 69.8042 134.684 70.1003 134.684 70.1003L130.974 80.8767L118.647 83.0083L105.541 75.7845L91.5388 81.8833L98.3606 91.5347C98.3606 91.5347 96.6851 92.4821 95.1292 93.6071C93.5734 94.7321 92.0175 96.094 92.0175 96.094L73.3473 95.5019L68.6797 105.982L82.3233 111.193C82.3233 111.193 81.7848 112.969 81.6651 114.982C81.6052 116.996 81.8446 119.246 81.8446 119.246L68.7994 123.746L74.6039 133.93L88.9656 133.279C88.9656 133.279 90.1026 134.522 92.0175 136.18C93.9324 137.838 96.6252 139.91 96.6252 139.91L91.838 147.667L107.037 154.062L116.612 148.614C116.612 148.614 119.604 149.68 123.434 150.45C127.264 151.22 132.051 151.634 132.051 151.634L135.701 159.272C135.701 159.272 141.027 159.509 143.72 159.509C146.472 159.509 151.858 159.272 151.858 159.272L156.825 151.338C156.825 151.338 161.373 150.628 165.502 149.562C169.631 148.496 173.281 147.252 173.281 147.252L181.838 153.529L195.961 147.43L190.814 138.312C190.814 138.312 192.609 136.831 194.165 135.41C195.661 133.989 197.038 132.272 197.038 132.272L213.135 133.456L218.879 122.976L203.381 118.239C203.381 118.239 203.56 116.699 203.5 115.101C203.441 113.502 203.201 111.903 203.201 111.903L218.999 106.574L213.075 95.7387L195.242 97.9887L190.216 93.6663L196.559 82.2386L181.06 75.4885L167.835 83.3636L158.201 81.4688L152.337 70.3963C152.217 70.3371 146.772 69.8042 143.66 69.8042Z" fill="white" stroke="#AEAEB7" stroke-width="2" stroke-miterlimit="10" stroke-linejoin="round"/>
<path d="M140.968 104.676L129.18 120.604L173.282 113.499" stroke="#AEAEB7" stroke-width="2" stroke-miterlimit="10" stroke-linejoin="round"/>
<path d="M1 129.07C1 123.031 5.90693 118.175 12.0107 118.175C18.1144 118.175 23.0213 123.031 23.0213 129.07C23.0213 135.11 18.1144 139.965 12.0107 139.965C5.96677 139.965 1 135.11 1 129.07Z" fill="white" stroke="#AEAEB7" stroke-width="2" stroke-miterlimit="10" stroke-linejoin="round"/>
<path d="M45.3438 56.951C45.3438 50.9115 50.2507 46.0562 56.3544 46.0562C62.4582 46.0562 67.3651 50.9115 67.3651 56.951C67.3651 62.9906 62.4582 67.8459 56.3544 67.8459C50.2507 67.8459 45.3438 62.9906 45.3438 56.951Z" fill="white" stroke="#AEAEB7" stroke-width="2" stroke-miterlimit="10" stroke-linejoin="round"/>
<path d="M62.6953 63.7051L94.2313 81.1132" stroke="#AEAEB7" stroke-width="2" stroke-miterlimit="10" stroke-linejoin="round"/>
<path d="M49.8892 63.4653L17.3359 119.183" stroke="#AEAEB7" stroke-width="2" stroke-miterlimit="10" stroke-linejoin="round"/>
<path d="M23.3203 129.786L68.2605 128.424" stroke="#AEAEB7" stroke-width="2" stroke-miterlimit="10" stroke-linejoin="round"/>
</svg>
