<svg width="47" height="46" viewBox="0 0 47 46" fill="none" xmlns="http://www.w3.org/2000/svg">
<g clip-path="url(#clip0_3720_16700)">
<path d="M46.8203 0H0.820312V46H46.8203V0Z" fill="black"/>
<path d="M9.02248 29.3887C8.69723 29.3887 8.42076 29.2803 8.19308 29.0635C7.9654 28.8412 7.85156 28.5772 7.85156 28.2716C7.85156 27.9602 7.9654 27.6935 8.19308 27.4712C8.42076 27.2489 8.69723 27.1377 9.02248 27.1377C9.35315 27.1377 9.63233 27.2489 9.86001 27.4712C10.0931 27.6935 10.2097 27.9602 10.2097 28.2716C10.2097 28.5772 10.0931 28.8412 9.86001 29.0635C9.63233 29.2803 9.35315 29.3887 9.02248 29.3887Z" fill="white"/>
<path d="M22.0206 29.2055H19.9064L14.3365 20.4181C14.1955 20.1958 14.0789 19.9651 13.9868 19.7261H13.938C13.9814 19.9819 14.0031 20.5293 14.0031 21.3685V29.2055H12.1328V17.25H14.3852L19.7682 25.8289C19.9959 26.1847 20.1423 26.4292 20.2073 26.5626H20.2398C20.1856 26.2458 20.1585 25.7095 20.1585 24.9535V17.25H22.0206V29.2055Z" fill="white"/>
<path d="M31.1317 29.2055H24.5859V17.25H30.8715V18.9341H26.5213V22.319H30.53V23.9947H26.5213V27.5297H31.1317V29.2055Z" fill="white"/>
<path d="M40.4321 18.9341H37.082V29.2055H35.1466V18.9341H31.8047V17.25H40.4321V18.9341Z" fill="white"/>
</g>
<defs>
<clipPath id="clip0_3720_16700">
<rect width="46" height="46" fill="white" transform="translate(0.820312)"/>
</clipPath>
</defs>
</svg>
