<svg width="172" height="66" viewBox="0 0 172 66" fill="none" xmlns="http://www.w3.org/2000/svg">
<path d="M34.7801 22.1406V20.8182H42.6601V22.1406H39.4833V31H37.952V22.1406H34.7801ZM45.8313 31.1541C45.1154 31.1541 44.4906 30.9901 43.957 30.6619C43.4234 30.3338 43.0091 29.8748 42.7141 29.2848C42.4191 28.6948 42.2716 28.0054 42.2716 27.2166C42.2716 26.4245 42.4191 25.7318 42.7141 25.1385C43.0091 24.5452 43.4234 24.0845 43.957 23.7564C44.4906 23.4283 45.1154 23.2642 45.8313 23.2642C46.5472 23.2642 47.172 23.4283 47.7056 23.7564C48.2392 24.0845 48.6535 24.5452 48.9485 25.1385C49.2435 25.7318 49.3909 26.4245 49.3909 27.2166C49.3909 28.0054 49.2435 28.6948 48.9485 29.2848C48.6535 29.8748 48.2392 30.3338 47.7056 30.6619C47.172 30.9901 46.5472 31.1541 45.8313 31.1541ZM45.8363 29.9062C46.3003 29.9062 46.6847 29.7836 46.9897 29.5384C47.2946 29.2931 47.52 28.9666 47.6658 28.5589C47.815 28.1513 47.8895 27.7022 47.8895 27.2116C47.8895 26.7244 47.815 26.277 47.6658 25.8693C47.52 25.4583 47.2946 25.1286 46.9897 24.88C46.6847 24.6314 46.3003 24.5071 45.8363 24.5071C45.3689 24.5071 44.9811 24.6314 44.6729 24.88C44.368 25.1286 44.1409 25.4583 43.9918 25.8693C43.846 26.277 43.773 26.7244 43.773 27.2116C43.773 27.7022 43.846 28.1513 43.9918 28.5589C44.1409 28.9666 44.368 29.2931 44.6729 29.5384C44.9811 29.7836 45.3689 29.9062 45.8363 29.9062ZM50.4902 33.8636V23.3636H51.9419V24.6016H52.0662C52.1524 24.4425 52.2767 24.2585 52.4391 24.0497C52.6015 23.8409 52.8269 23.6586 53.1152 23.5028C53.4036 23.3438 53.7847 23.2642 54.2587 23.2642C54.8752 23.2642 55.4253 23.42 55.9092 23.7315C56.3932 24.0431 56.7726 24.4922 57.0477 25.0788C57.3262 25.6655 57.4654 26.3714 57.4654 27.1967C57.4654 28.022 57.3278 28.7296 57.0527 29.3196C56.7776 29.9062 56.3998 30.3587 55.9192 30.6768C55.4386 30.9917 54.8901 31.1491 54.2736 31.1491C53.8096 31.1491 53.4301 31.0713 53.1351 30.9155C52.8434 30.7597 52.6147 30.5774 52.449 30.3686C52.2833 30.1598 52.1557 29.9742 52.0662 29.8118H51.9767V33.8636H50.4902ZM51.9469 27.1818C51.9469 27.7187 52.0248 28.1894 52.1806 28.5938C52.3363 28.9981 52.5617 29.3146 52.8567 29.5433C53.1517 29.7687 53.5129 29.8814 53.9405 29.8814C54.3846 29.8814 54.7558 29.7637 55.0541 29.5284C55.3524 29.2898 55.5778 28.9666 55.7303 28.5589C55.886 28.1513 55.9639 27.6922 55.9639 27.1818C55.9639 26.678 55.8877 26.2256 55.7352 25.8246C55.5861 25.4235 55.3607 25.107 55.0591 24.875C54.7608 24.643 54.3879 24.527 53.9405 24.527C53.5096 24.527 53.145 24.638 52.8467 24.8601C52.5518 25.0821 52.328 25.392 52.1756 25.7898C52.0231 26.1875 51.9469 26.6515 51.9469 27.1818ZM65.0071 31.1541C64.2547 31.1541 63.6068 30.9934 63.0632 30.6719C62.523 30.3471 62.1054 29.8913 61.8104 29.3047C61.5187 28.7147 61.3729 28.0237 61.3729 27.2315C61.3729 26.4493 61.5187 25.7599 61.8104 25.1634C62.1054 24.5668 62.5163 24.1011 63.0433 23.7663C63.5736 23.4316 64.1934 23.2642 64.9027 23.2642C65.3336 23.2642 65.7512 23.3355 66.1555 23.478C66.5599 23.6205 66.9228 23.8442 67.2443 24.1491C67.5658 24.4541 67.8194 24.8501 68.005 25.3374C68.1906 25.8213 68.2834 26.4096 68.2834 27.1023V27.6293H62.2131V26.5156H66.8267C66.8267 26.1245 66.7472 25.7782 66.5881 25.4766C66.429 25.1716 66.2053 24.9313 65.9169 24.7557C65.6319 24.58 65.2971 24.4922 64.9127 24.4922C64.495 24.4922 64.1305 24.5949 63.8189 24.8004C63.5107 25.0026 63.272 25.2678 63.103 25.5959C62.9373 25.9207 62.8544 26.2737 62.8544 26.6548V27.5249C62.8544 28.0353 62.9439 28.4695 63.1229 28.8274C63.3052 29.1854 63.5587 29.4588 63.8835 29.6477C64.2083 29.8333 64.5878 29.9261 65.022 29.9261C65.3038 29.9261 65.5606 29.8864 65.7926 29.8068C66.0246 29.724 66.2252 29.6013 66.3942 29.4389C66.5632 29.2765 66.6925 29.076 66.782 28.8374L68.1889 29.0909C68.0762 29.5052 67.8741 29.8681 67.5824 30.1797C67.294 30.4879 66.9311 30.7282 66.4936 30.9006C66.0594 31.0696 65.5639 31.1541 65.0071 31.1541ZM77.9487 24.1293H76.3976C76.3379 23.7978 76.2269 23.5062 76.0645 23.2543C75.9021 23.0024 75.7032 22.7886 75.4679 22.6129C75.2326 22.4373 74.9691 22.3047 74.6774 22.2152C74.389 22.1257 74.0825 22.081 73.7577 22.081C73.171 22.081 72.6457 22.2285 72.1817 22.5234C71.721 22.8184 71.3564 23.2509 71.0879 23.821C70.8228 24.3911 70.6902 25.0871 70.6902 25.9091C70.6902 26.7377 70.8228 27.437 71.0879 28.0071C71.3564 28.5772 71.7226 29.008 72.1866 29.2997C72.6507 29.5914 73.1727 29.7372 73.7527 29.7372C74.0742 29.7372 74.3791 29.6941 74.6675 29.608C74.9591 29.5185 75.2226 29.3875 75.4579 29.2152C75.6933 29.0429 75.8921 28.8324 76.0545 28.5838C76.2203 28.3319 76.3346 28.0436 76.3976 27.7188L77.9487 27.7237C77.8658 28.2242 77.7051 28.6849 77.4665 29.1058C77.2311 29.5234 76.9279 29.8847 76.5567 30.1896C76.1888 30.4912 75.7678 30.7249 75.2939 30.8906C74.8199 31.0563 74.3029 31.1392 73.7427 31.1392C72.8611 31.1392 72.0756 30.9304 71.3862 30.5128C70.6968 30.0919 70.1533 29.4903 69.7555 28.7081C69.3611 27.9259 69.1639 26.9929 69.1639 25.9091C69.1639 24.822 69.3628 23.889 69.7605 23.1101C70.1582 22.3279 70.7018 21.728 71.3912 21.3104C72.0806 20.8894 72.8644 20.679 73.7427 20.679C74.283 20.679 74.7868 20.7569 75.2541 20.9126C75.7248 21.0651 76.1473 21.2905 76.5219 21.5888C76.8964 21.8838 77.2063 22.245 77.4515 22.6726C77.6968 23.0968 77.8625 23.5824 77.9487 24.1293ZM82.3243 31.1541C81.6083 31.1541 80.9836 30.9901 80.45 30.6619C79.9163 30.3338 79.502 29.8748 79.2071 29.2848C78.9121 28.6948 78.7646 28.0054 78.7646 27.2166C78.7646 26.4245 78.9121 25.7318 79.2071 25.1385C79.502 24.5452 79.9163 24.0845 80.45 23.7564C80.9836 23.4283 81.6083 23.2642 82.3243 23.2642C83.0402 23.2642 83.6649 23.4283 84.1985 23.7564C84.7322 24.0845 85.1465 24.5452 85.4414 25.1385C85.7364 25.7318 85.8839 26.4245 85.8839 27.2166C85.8839 28.0054 85.7364 28.6948 85.4414 29.2848C85.1465 29.8748 84.7322 30.3338 84.1985 30.6619C83.6649 30.9901 83.0402 31.1541 82.3243 31.1541ZM82.3292 29.9062C82.7932 29.9062 83.1777 29.7836 83.4826 29.5384C83.7876 29.2931 84.0129 28.9666 84.1588 28.5589C84.3079 28.1513 84.3825 27.7022 84.3825 27.2116C84.3825 26.7244 84.3079 26.277 84.1588 25.8693C84.0129 25.4583 83.7876 25.1286 83.4826 24.88C83.1777 24.6314 82.7932 24.5071 82.3292 24.5071C81.8619 24.5071 81.4741 24.6314 81.1659 24.88C80.8609 25.1286 80.6339 25.4583 80.4848 25.8693C80.3389 26.277 80.266 26.7244 80.266 27.2116C80.266 27.7022 80.3389 28.1513 80.4848 28.5589C80.6339 28.9666 80.8609 29.2931 81.1659 29.5384C81.4741 29.7836 81.8619 29.9062 82.3292 29.9062ZM86.9832 31V23.3636H88.41V24.6065H88.5045C88.6636 24.1856 88.9238 23.8575 89.285 23.6222C89.6463 23.3835 90.0788 23.2642 90.5826 23.2642C91.093 23.2642 91.5206 23.3835 91.8653 23.6222C92.2133 23.8608 92.4702 24.1889 92.6359 24.6065H92.7154C92.8977 24.1989 93.1877 23.8741 93.5855 23.6321C93.9832 23.3868 94.4571 23.2642 95.0073 23.2642C95.7 23.2642 96.2651 23.4813 96.7026 23.9155C97.1435 24.3497 97.3639 25.0043 97.3639 25.8793V31H95.8774V26.0185C95.8774 25.5014 95.7365 25.1269 95.4548 24.8949C95.1731 24.6629 94.8366 24.5469 94.4455 24.5469C93.9616 24.5469 93.5855 24.696 93.317 24.9943C93.0485 25.2893 92.9143 25.6688 92.9143 26.1328V31H91.4328V25.924C91.4328 25.5097 91.3035 25.1766 91.045 24.9247C90.7865 24.6728 90.45 24.5469 90.0357 24.5469C89.754 24.5469 89.4938 24.6214 89.2552 24.7706C89.0199 24.9164 88.8293 25.1203 88.6835 25.3821C88.5409 25.6439 88.4697 25.9472 88.4697 26.2919V31H86.9832ZM98.7962 31V23.3636H100.223V24.6065H100.318C100.477 24.1856 100.737 23.8575 101.098 23.6222C101.459 23.3835 101.892 23.2642 102.396 23.2642C102.906 23.2642 103.334 23.3835 103.678 23.6222C104.026 23.8608 104.283 24.1889 104.449 24.6065H104.528C104.711 24.1989 105.001 23.8741 105.398 23.6321C105.796 23.3868 106.27 23.2642 106.82 23.2642C107.513 23.2642 108.078 23.4813 108.516 23.9155C108.957 24.3497 109.177 25.0043 109.177 25.8793V31H107.69V26.0185C107.69 25.5014 107.55 25.1269 107.268 24.8949C106.986 24.6629 106.65 24.5469 106.259 24.5469C105.775 24.5469 105.398 24.696 105.13 24.9943C104.862 25.2893 104.727 25.6688 104.727 26.1328V31H103.246V25.924C103.246 25.5097 103.117 25.1766 102.858 24.9247C102.599 24.6728 102.263 24.5469 101.849 24.5469C101.567 24.5469 101.307 24.6214 101.068 24.7706C100.833 24.9164 100.642 25.1203 100.497 25.3821C100.354 25.6439 100.283 25.9472 100.283 26.2919V31H98.7962ZM113.9 31.1541C113.148 31.1541 112.5 30.9934 111.957 30.6719C111.416 30.3471 110.999 29.8913 110.704 29.3047C110.412 28.7147 110.266 28.0237 110.266 27.2315C110.266 26.4493 110.412 25.7599 110.704 25.1634C110.999 24.5668 111.41 24.1011 111.937 23.7663C112.467 23.4316 113.087 23.2642 113.796 23.2642C114.227 23.2642 114.645 23.3355 115.049 23.478C115.453 23.6205 115.816 23.8442 116.138 24.1491C116.459 24.4541 116.713 24.8501 116.898 25.3374C117.084 25.8213 117.177 26.4096 117.177 27.1023V27.6293H111.106V26.5156H115.72C115.72 26.1245 115.641 25.7782 115.481 25.4766C115.322 25.1716 115.099 24.9313 114.81 24.7557C114.525 24.58 114.19 24.4922 113.806 24.4922C113.388 24.4922 113.024 24.5949 112.712 24.8004C112.404 25.0026 112.165 25.2678 111.996 25.5959C111.831 25.9207 111.748 26.2737 111.748 26.6548V27.5249C111.748 28.0353 111.837 28.4695 112.016 28.8274C112.199 29.1854 112.452 29.4588 112.777 29.6477C113.102 29.8333 113.481 29.9261 113.915 29.9261C114.197 29.9261 114.454 29.8864 114.686 29.8068C114.918 29.724 115.119 29.6013 115.288 29.4389C115.457 29.2765 115.586 29.076 115.675 28.8374L117.082 29.0909C116.97 29.5052 116.767 29.8681 116.476 30.1797C116.187 30.4879 115.824 30.7282 115.387 30.9006C114.953 31.0696 114.457 31.1541 113.9 31.1541ZM118.266 31V23.3636H119.703V24.5767H119.782C119.922 24.1657 120.167 23.8426 120.518 23.6072C120.873 23.3686 121.274 23.2493 121.721 23.2493C121.814 23.2493 121.924 23.2526 122.049 23.2592C122.179 23.2659 122.28 23.2741 122.353 23.2841V24.706C122.293 24.6894 122.187 24.6712 122.035 24.6513C121.882 24.6281 121.73 24.6165 121.577 24.6165C121.226 24.6165 120.913 24.6911 120.638 24.8402C120.366 24.986 120.15 25.1899 119.991 25.4517C119.832 25.7102 119.753 26.0052 119.753 26.3366V31H118.266ZM126.022 31.1541C125.283 31.1541 124.647 30.9867 124.113 30.652C123.583 30.3139 123.175 29.8482 122.89 29.255C122.605 28.6617 122.463 27.9822 122.463 27.2166C122.463 26.4411 122.608 25.7566 122.9 25.1634C123.192 24.5668 123.603 24.1011 124.133 23.7663C124.663 23.4316 125.288 23.2642 126.007 23.2642C126.587 23.2642 127.104 23.3719 127.559 23.5874C128.013 23.7995 128.379 24.0978 128.657 24.4822C128.939 24.8667 129.106 25.3158 129.159 25.8295H127.713C127.633 25.4716 127.451 25.1634 127.166 24.9048C126.884 24.6463 126.506 24.517 126.032 24.517C125.618 24.517 125.255 24.6264 124.943 24.8452C124.635 25.0606 124.395 25.3688 124.223 25.7699C124.05 26.1676 123.964 26.6383 123.964 27.1818C123.964 27.7386 124.049 28.2192 124.218 28.6236C124.387 29.0279 124.625 29.3411 124.934 29.5632C125.245 29.7853 125.611 29.8963 126.032 29.8963C126.314 29.8963 126.569 29.8449 126.798 29.7422C127.03 29.6361 127.224 29.4853 127.38 29.2898C127.539 29.0942 127.65 28.8589 127.713 28.5838H129.159C129.106 29.0777 128.946 29.5185 128.677 29.9062C128.409 30.294 128.049 30.599 127.598 30.821C127.151 31.0431 126.626 31.1541 126.022 31.1541ZM133.48 31.1541C132.728 31.1541 132.08 30.9934 131.536 30.6719C130.996 30.3471 130.578 29.8913 130.284 29.3047C129.992 28.7147 129.846 28.0237 129.846 27.2315C129.846 26.4493 129.992 25.7599 130.284 25.1634C130.578 24.5668 130.989 24.1011 131.516 23.7663C132.047 23.4316 132.667 23.2642 133.376 23.2642C133.807 23.2642 134.224 23.3355 134.629 23.478C135.033 23.6205 135.396 23.8442 135.717 24.1491C136.039 24.4541 136.292 24.8501 136.478 25.3374C136.664 25.8213 136.757 26.4096 136.757 27.1023V27.6293H130.686V26.5156H135.3C135.3 26.1245 135.22 25.7782 135.061 25.4766C134.902 25.1716 134.678 24.9313 134.39 24.7557C134.105 24.58 133.77 24.4922 133.386 24.4922C132.968 24.4922 132.604 24.5949 132.292 24.8004C131.984 25.0026 131.745 25.2678 131.576 25.5959C131.41 25.9207 131.328 26.2737 131.328 26.6548V27.5249C131.328 28.0353 131.417 28.4695 131.596 28.8274C131.778 29.1854 132.032 29.4588 132.357 29.6477C132.681 29.8333 133.061 29.9261 133.495 29.9261C133.777 29.9261 134.034 29.8864 134.266 29.8068C134.498 29.724 134.698 29.6013 134.867 29.4389C135.036 29.2765 135.166 29.076 135.255 28.8374L136.662 29.0909C136.549 29.5052 136.347 29.8681 136.056 30.1797C135.767 30.4879 135.404 30.7282 134.967 30.9006C134.533 31.0696 134.037 31.1541 133.48 31.1541ZM54.7297 47.1491C54.1133 47.1491 53.5631 46.9917 53.0792 46.6768C52.5986 46.3587 52.2207 45.9062 51.9456 45.3196C51.6739 44.7296 51.538 44.022 51.538 43.1967C51.538 42.3714 51.6755 41.6655 51.9506 41.0788C52.229 40.4922 52.6102 40.0431 53.0941 39.7315C53.578 39.42 54.1265 39.2642 54.7397 39.2642C55.2136 39.2642 55.5948 39.3438 55.8831 39.5028C56.1748 39.6586 56.4002 39.8409 56.5593 40.0497C56.7217 40.2585 56.8476 40.4425 56.9371 40.6016H57.0266V36.8182H58.5131V47H57.0614V45.8118H56.9371C56.8476 45.9742 56.7184 46.1598 56.5493 46.3686C56.3836 46.5774 56.1549 46.7597 55.8633 46.9155C55.5716 47.0713 55.1938 47.1491 54.7297 47.1491ZM55.0579 45.8814C55.4854 45.8814 55.8467 45.7687 56.1417 45.5433C56.44 45.3146 56.6653 44.9981 56.8178 44.5938C56.9736 44.1894 57.0515 43.7187 57.0515 43.1818C57.0515 42.6515 56.9752 42.1875 56.8228 41.7898C56.6703 41.392 56.4466 41.0821 56.1516 40.8601C55.8566 40.638 55.492 40.527 55.0579 40.527C54.6104 40.527 54.2376 40.643 53.9393 40.875C53.641 41.107 53.4156 41.4235 53.2631 41.8246C53.114 42.2256 53.0394 42.678 53.0394 43.1818C53.0394 43.6922 53.1156 44.1513 53.2681 44.5589C53.4206 44.9666 53.6459 45.2898 53.9442 45.5284C54.2458 45.7637 54.617 45.8814 55.0579 45.8814ZM63.3659 47.1541C62.6136 47.1541 61.9656 46.9934 61.422 46.6719C60.8818 46.3471 60.4642 45.8913 60.1692 45.3047C59.8775 44.7147 59.7317 44.0237 59.7317 43.2315C59.7317 42.4493 59.8775 41.7599 60.1692 41.1634C60.4642 40.5668 60.8752 40.1011 61.4022 39.7663C61.9325 39.4316 62.5523 39.2642 63.2615 39.2642C63.6924 39.2642 64.11 39.3355 64.5144 39.478C64.9187 39.6205 65.2817 39.8442 65.6032 40.1491C65.9247 40.4541 66.1782 40.8501 66.3638 41.3374C66.5494 41.8213 66.6422 42.4096 66.6422 43.1023V43.6293H60.5719V42.5156H65.1855C65.1855 42.1245 65.106 41.7782 64.9469 41.4766C64.7878 41.1716 64.5641 40.9313 64.2757 40.7557C63.9907 40.58 63.6559 40.4922 63.2715 40.4922C62.8539 40.4922 62.4893 40.5949 62.1777 40.8004C61.8695 41.0026 61.6309 41.2678 61.4618 41.5959C61.2961 41.9207 61.2132 42.2737 61.2132 42.6548V43.5249C61.2132 44.0353 61.3027 44.4695 61.4817 44.8274C61.664 45.1854 61.9175 45.4588 62.2424 45.6477C62.5672 45.8333 62.9467 45.9261 63.3809 45.9261C63.6626 45.9261 63.9194 45.8864 64.1514 45.8068C64.3835 45.724 64.584 45.6013 64.753 45.4389C64.922 45.2765 65.0513 45.076 65.1408 44.8374L66.5478 45.0909C66.4351 45.5052 66.2329 45.8681 65.9412 46.1797C65.6529 46.4879 65.2899 46.7282 64.8524 46.9006C64.4183 47.0696 63.9228 47.1541 63.3659 47.1541ZM74.0455 39.3636L71.2763 47H69.6854L66.9112 39.3636H68.5071L70.4411 45.2401H70.5206L72.4496 39.3636H74.0455ZM77.9139 47.1541C77.1615 47.1541 76.5136 46.9934 75.97 46.6719C75.4298 46.3471 75.0122 45.8913 74.7172 45.3047C74.4255 44.7147 74.2797 44.0237 74.2797 43.2315C74.2797 42.4493 74.4255 41.7599 74.7172 41.1634C75.0122 40.5668 75.4231 40.1011 75.9501 39.7663C76.4804 39.4316 77.1002 39.2642 77.8095 39.2642C78.2404 39.2642 78.658 39.3355 79.0623 39.478C79.4667 39.6205 79.8296 39.8442 80.1511 40.1491C80.4726 40.4541 80.7262 40.8501 80.9118 41.3374C81.0974 41.8213 81.1902 42.4096 81.1902 43.1023V43.6293H75.1199V42.5156H79.7335C79.7335 42.1245 79.654 41.7782 79.4949 41.4766C79.3358 41.1716 79.1121 40.9313 78.8237 40.7557C78.5387 40.58 78.2039 40.4922 77.8194 40.4922C77.4018 40.4922 77.0373 40.5949 76.7257 40.8004C76.4175 41.0026 76.1788 41.2678 76.0098 41.5959C75.8441 41.9207 75.7612 42.2737 75.7612 42.6548V43.5249C75.7612 44.0353 75.8507 44.4695 76.0297 44.8274C76.212 45.1854 76.4655 45.4588 76.7903 45.6477C77.1151 45.8333 77.4946 45.9261 77.9288 45.9261C78.2105 45.9261 78.4674 45.8864 78.6994 45.8068C78.9314 45.724 79.1319 45.6013 79.301 45.4389C79.47 45.2765 79.5993 45.076 79.6888 44.8374L81.0957 45.0909C80.983 45.5052 80.7809 45.8681 80.4892 46.1797C80.2008 46.4879 79.8379 46.7282 79.4004 46.9006C78.9662 47.0696 78.4707 47.1541 77.9139 47.1541ZM83.766 36.8182V47H82.2795V36.8182H83.766ZM88.4225 47.1541C87.7066 47.1541 87.0818 46.9901 86.5482 46.6619C86.0146 46.3338 85.6003 45.8748 85.3053 45.2848C85.0103 44.6948 84.8628 44.0054 84.8628 43.2166C84.8628 42.4245 85.0103 41.7318 85.3053 41.1385C85.6003 40.5452 86.0146 40.0845 86.5482 39.7564C87.0818 39.4283 87.7066 39.2642 88.4225 39.2642C89.1384 39.2642 89.7631 39.4283 90.2967 39.7564C90.8304 40.0845 91.2447 40.5452 91.5396 41.1385C91.8346 41.7318 91.9821 42.4245 91.9821 43.2166C91.9821 44.0054 91.8346 44.6948 91.5396 45.2848C91.2447 45.8748 90.8304 46.3338 90.2967 46.6619C89.7631 46.9901 89.1384 47.1541 88.4225 47.1541ZM88.4274 45.9062C88.8914 45.9062 89.2759 45.7836 89.5808 45.5384C89.8858 45.2931 90.1111 44.9666 90.257 44.5589C90.4061 44.1513 90.4807 43.7022 90.4807 43.2116C90.4807 42.7244 90.4061 42.277 90.257 41.8693C90.1111 41.4583 89.8858 41.1286 89.5808 40.88C89.2759 40.6314 88.8914 40.5071 88.4274 40.5071C87.9601 40.5071 87.5723 40.6314 87.2641 40.88C86.9592 41.1286 86.7321 41.4583 86.583 41.8693C86.4371 42.277 86.3642 42.7244 86.3642 43.2116C86.3642 43.7022 86.4371 44.1513 86.583 44.5589C86.7321 44.9666 86.9592 45.2931 87.2641 45.5384C87.5723 45.7836 87.9601 45.9062 88.4274 45.9062ZM93.0814 49.8636V39.3636H94.5331V40.6016H94.6574C94.7436 40.4425 94.8678 40.2585 95.0302 40.0497C95.1927 39.8409 95.418 39.6586 95.7064 39.5028C95.9947 39.3438 96.3759 39.2642 96.8498 39.2642C97.4663 39.2642 98.0165 39.42 98.5004 39.7315C98.9843 40.0431 99.3638 40.4922 99.6389 41.0788C99.9173 41.6655 100.057 42.3714 100.057 43.1967C100.057 44.022 99.919 44.7296 99.6439 45.3196C99.3688 45.9062 98.9909 46.3587 98.5104 46.6768C98.0298 46.9917 97.4812 47.1491 96.8648 47.1491C96.4007 47.1491 96.0212 47.0713 95.7263 46.9155C95.4346 46.7597 95.2059 46.5774 95.0402 46.3686C94.8745 46.1598 94.7469 45.9742 94.6574 45.8118H94.5679V49.8636H93.0814ZM94.5381 43.1818C94.5381 43.7187 94.6159 44.1894 94.7717 44.5938C94.9275 44.9981 95.1529 45.3146 95.4479 45.5433C95.7428 45.7687 96.1041 45.8814 96.5317 45.8814C96.9758 45.8814 97.347 45.7637 97.6453 45.5284C97.9436 45.2898 98.169 44.9666 98.3214 44.5589C98.4772 44.1513 98.5551 43.6922 98.5551 43.1818C98.5551 42.678 98.4789 42.2256 98.3264 41.8246C98.1773 41.4235 97.9519 41.107 97.6503 40.875C97.352 40.643 96.9791 40.527 96.5317 40.527C96.1008 40.527 95.7362 40.638 95.4379 40.8601C95.1429 41.0821 94.9192 41.392 94.7668 41.7898C94.6143 42.1875 94.5381 42.6515 94.5381 43.1818ZM104.453 47.1541C103.701 47.1541 103.053 46.9934 102.509 46.6719C101.969 46.3471 101.551 45.8913 101.256 45.3047C100.965 44.7147 100.819 44.0237 100.819 43.2315C100.819 42.4493 100.965 41.7599 101.256 41.1634C101.551 40.5668 101.962 40.1011 102.489 39.7663C103.02 39.4316 103.64 39.2642 104.349 39.2642C104.78 39.2642 105.197 39.3355 105.602 39.478C106.006 39.6205 106.369 39.8442 106.69 40.1491C107.012 40.4541 107.265 40.8501 107.451 41.3374C107.637 41.8213 107.729 42.4096 107.729 43.1023V43.6293H101.659V42.5156H106.273C106.273 42.1245 106.193 41.7782 106.034 41.4766C105.875 41.1716 105.651 40.9313 105.363 40.7557C105.078 40.58 104.743 40.4922 104.359 40.4922C103.941 40.4922 103.577 40.5949 103.265 40.8004C102.957 41.0026 102.718 41.2678 102.549 41.5959C102.383 41.9207 102.301 42.2737 102.301 42.6548V43.5249C102.301 44.0353 102.39 44.4695 102.569 44.8274C102.751 45.1854 103.005 45.4588 103.33 45.6477C103.654 45.8333 104.034 45.9261 104.468 45.9261C104.75 45.9261 105.007 45.8864 105.239 45.8068C105.471 45.724 105.671 45.6013 105.84 45.4389C106.009 45.2765 106.139 45.076 106.228 44.8374L107.635 45.0909C107.522 45.5052 107.32 45.8681 107.028 46.1797C106.74 46.4879 106.377 46.7282 105.94 46.9006C105.506 47.0696 105.01 47.1541 104.453 47.1541ZM108.819 47V39.3636H110.256V40.5767H110.335C110.474 40.1657 110.72 39.8426 111.071 39.6072C111.426 39.3686 111.827 39.2493 112.274 39.2493C112.367 39.2493 112.476 39.2526 112.602 39.2592C112.731 39.2659 112.833 39.2741 112.905 39.2841V40.706C112.846 40.6894 112.74 40.6712 112.587 40.6513C112.435 40.6281 112.282 40.6165 112.13 40.6165C111.779 40.6165 111.465 40.6911 111.19 40.8402C110.918 40.986 110.703 41.1899 110.544 41.4517C110.385 41.7102 110.305 42.0052 110.305 42.3366V47H108.819ZM119.354 41.228L118.007 41.4666C117.951 41.2943 117.861 41.1302 117.738 40.9744C117.619 40.8187 117.457 40.6911 117.251 40.5916C117.046 40.4922 116.789 40.4425 116.481 40.4425C116.06 40.4425 115.708 40.5369 115.427 40.7259C115.145 40.9115 115.004 41.1518 115.004 41.4467C115.004 41.7019 115.098 41.9074 115.287 42.0632C115.476 42.219 115.781 42.3466 116.202 42.446L117.415 42.7244C118.118 42.8868 118.642 43.1371 118.986 43.4751C119.331 43.8132 119.503 44.2524 119.503 44.7926C119.503 45.25 119.371 45.6577 119.106 46.0156C118.844 46.3703 118.478 46.6487 118.007 46.8509C117.54 47.053 116.998 47.1541 116.381 47.1541C115.526 47.1541 114.828 46.9718 114.288 46.6072C113.748 46.2393 113.416 45.7173 113.294 45.0412L114.731 44.8224C114.82 45.197 115.004 45.4804 115.282 45.6726C115.561 45.8615 115.924 45.956 116.371 45.956C116.858 45.956 117.248 45.8549 117.54 45.6527C117.831 45.4472 117.977 45.197 117.977 44.902C117.977 44.6634 117.888 44.4628 117.709 44.3004C117.533 44.138 117.263 44.0154 116.898 43.9325L115.606 43.6491C114.893 43.4867 114.366 43.2282 114.025 42.8736C113.687 42.5189 113.518 42.0698 113.518 41.5263C113.518 41.0755 113.643 40.6811 113.895 40.343C114.147 40.005 114.495 39.7415 114.939 39.5526C115.384 39.3603 115.892 39.2642 116.466 39.2642C117.291 39.2642 117.941 39.4432 118.415 39.8011C118.888 40.1558 119.202 40.6314 119.354 41.228Z" fill="#C5C5CB"/>
<path d="M64.6619 58.6364H65.3224V61.5064C65.3224 61.8118 65.2507 62.0824 65.1072 62.3182C64.9637 62.5526 64.762 62.7372 64.5021 62.8722C64.2421 63.0057 63.9374 63.0724 63.588 63.0724C63.24 63.0724 62.936 63.0057 62.6761 62.8722C62.4161 62.7372 62.2144 62.5526 62.071 62.3182C61.9275 62.0824 61.8558 61.8118 61.8558 61.5064V58.6364H62.5142V61.4531C62.5142 61.6506 62.5575 61.826 62.6441 61.9794C62.7322 62.1328 62.8565 62.2536 63.017 62.3416C63.1775 62.4283 63.3678 62.4716 63.588 62.4716C63.8096 62.4716 64.0007 62.4283 64.1612 62.3416C64.3231 62.2536 64.4467 62.1328 64.5319 61.9794C64.6186 61.826 64.6619 61.6506 64.6619 61.4531V58.6364ZM66.0996 63V58.6364H66.758V60.7202H66.8112L68.6415 58.6364H69.4703L67.7104 60.6009L69.4767 63H68.6841L67.2736 61.0504L66.758 61.6428V63H66.0996ZM70.6817 62.4034L70.6497 62.6357C70.6284 62.8061 70.5922 62.9837 70.541 63.1683C70.4913 63.3544 70.4395 63.527 70.3855 63.6861C70.333 63.8452 70.2896 63.9716 70.2555 64.0653H69.8038C69.8223 63.9773 69.8479 63.858 69.8805 63.7074C69.9132 63.5582 69.9452 63.3913 69.9764 63.2067C70.0077 63.022 70.0311 62.8338 70.0467 62.642L70.068 62.4034H70.6817ZM76.4144 60.0554H75.7496C75.724 59.9134 75.6764 59.7884 75.6068 59.6804C75.5372 59.5724 75.452 59.4808 75.3511 59.4055C75.2503 59.3303 75.1374 59.2734 75.0124 59.2351C74.8888 59.1967 74.7574 59.1776 74.6182 59.1776C74.3668 59.1776 74.1416 59.2408 73.9428 59.3672C73.7453 59.4936 73.5891 59.679 73.474 59.9233C73.3604 60.1676 73.3036 60.4659 73.3036 60.8182C73.3036 61.1733 73.3604 61.473 73.474 61.7173C73.5891 61.9616 73.746 62.1463 73.9449 62.2713C74.1438 62.3963 74.3675 62.4588 74.6161 62.4588C74.7538 62.4588 74.8845 62.4403 75.0081 62.4034C75.1331 62.3651 75.246 62.3089 75.3469 62.2351C75.4477 62.1612 75.533 62.071 75.6026 61.9645C75.6736 61.8565 75.7226 61.733 75.7496 61.5938L76.4144 61.5959C76.3788 61.8104 76.31 62.0078 76.2077 62.1882C76.1068 62.3672 75.9769 62.522 75.8178 62.6527C75.6601 62.782 75.4797 62.8821 75.2766 62.9531C75.0734 63.0241 74.8519 63.0597 74.6118 63.0597C74.234 63.0597 73.8973 62.9702 73.6019 62.7912C73.3064 62.6108 73.0734 62.353 72.903 62.0178C72.734 61.6825 72.6494 61.2827 72.6494 60.8182C72.6494 60.3523 72.7347 59.9524 72.9051 59.6186C73.0756 59.2834 73.3085 59.0263 73.604 58.8473C73.8994 58.6669 74.2354 58.5767 74.6118 58.5767C74.8433 58.5767 75.0592 58.6101 75.2595 58.6768C75.4612 58.7422 75.6423 58.8388 75.8029 58.9666C75.9634 59.093 76.0962 59.2479 76.2013 59.4311C76.3064 59.6129 76.3774 59.821 76.4144 60.0554ZM77.6081 58.6364V63H76.971V58.6364H77.6081ZM80.3583 61.6428V59.7273H80.9975V63H80.3711V62.4332H80.337C80.2617 62.608 80.141 62.7536 79.9748 62.87C79.81 62.9851 79.6048 63.0426 79.359 63.0426C79.1488 63.0426 78.9627 62.9964 78.8008 62.9041C78.6403 62.8104 78.5139 62.6719 78.4215 62.4886C78.3306 62.3054 78.2852 62.0788 78.2852 61.8089V59.7273H78.9223V61.7322C78.9223 61.9553 78.984 62.1328 79.1076 62.2649C79.2312 62.397 79.3917 62.4631 79.5892 62.4631C79.7085 62.4631 79.8271 62.4332 79.945 62.3736C80.0643 62.3139 80.163 62.2237 80.2411 62.103C80.3207 61.9822 80.3598 61.8288 80.3583 61.6428ZM83.2012 59.7273V60.2386H81.4136V59.7273H83.2012ZM81.893 58.9432H82.5301V62.0391C82.5301 62.1626 82.5485 62.2557 82.5855 62.3182C82.6224 62.3793 82.67 62.4212 82.7282 62.4439C82.7879 62.4652 82.8525 62.4759 82.9221 62.4759C82.9733 62.4759 83.018 62.4723 83.0564 62.4652C83.0947 62.4581 83.1245 62.4524 83.1458 62.4482L83.2609 62.9744C83.224 62.9886 83.1714 63.0028 83.1032 63.017C83.035 63.0327 82.9498 63.0412 82.8475 63.0426C82.6799 63.0455 82.5237 63.0156 82.3788 62.9531C82.2339 62.8906 82.1167 62.794 82.0272 62.6634C81.9377 62.5327 81.893 62.3686 81.893 62.1712V58.9432ZM85.0694 63.0661C84.7526 63.0661 84.4799 62.9943 84.2512 62.8509C84.0239 62.706 83.8492 62.5064 83.727 62.2521C83.6049 61.9979 83.5438 61.7067 83.5438 61.3786C83.5438 61.0462 83.6063 60.7528 83.7313 60.4986C83.8563 60.2429 84.0324 60.0433 84.2597 59.8999C84.487 59.7564 84.7547 59.6847 85.063 59.6847C85.3115 59.6847 85.5331 59.7308 85.7277 59.8232C85.9223 59.9141 86.0793 60.0419 86.1986 60.2067C86.3194 60.3714 86.3911 60.5639 86.4138 60.7841H85.7938C85.7597 60.6307 85.6816 60.4986 85.5594 60.3878C85.4387 60.277 85.2767 60.2216 85.0736 60.2216C84.8961 60.2216 84.7405 60.2685 84.607 60.3622C84.4749 60.4545 84.3719 60.5866 84.2981 60.7585C84.2242 60.929 84.1873 61.1307 84.1873 61.3636C84.1873 61.6023 84.2235 61.8082 84.2959 61.9815C84.3684 62.1548 84.4706 62.2891 84.6027 62.3842C84.7363 62.4794 84.8932 62.527 85.0736 62.527C85.1944 62.527 85.3037 62.505 85.4017 62.4609C85.5012 62.4155 85.5843 62.3509 85.651 62.267C85.7192 62.1832 85.7668 62.0824 85.7938 61.9645H86.4138C86.3911 62.1761 86.3222 62.3651 86.2071 62.5312C86.0921 62.6974 85.938 62.8281 85.7448 62.9233C85.553 63.0185 85.3279 63.0661 85.0694 63.0661ZM87.5522 61.0568V63H86.9151V58.6364H87.5437V60.2599H87.5841C87.6608 60.0838 87.778 59.9439 87.9357 59.8402C88.0934 59.7365 88.2993 59.6847 88.5536 59.6847C88.778 59.6847 88.9741 59.7308 89.1417 59.8232C89.3107 59.9155 89.4414 60.0533 89.5337 60.2365C89.6275 60.4183 89.6743 60.6456 89.6743 60.9183V63H89.0373V60.995C89.0373 60.755 88.9755 60.5689 88.8519 60.4368C88.7283 60.3033 88.5564 60.2365 88.3363 60.2365C88.1857 60.2365 88.0508 60.2685 87.9314 60.3324C87.8135 60.3963 87.7205 60.4901 87.6523 60.6136C87.5856 60.7358 87.5522 60.8835 87.5522 61.0568ZM91.1733 62.4034L91.1414 62.6357C91.12 62.8061 91.0838 62.9837 91.0327 63.1683C90.983 63.3544 90.9311 63.527 90.8771 63.6861C90.8246 63.8452 90.7813 63.9716 90.7472 64.0653H90.2955C90.3139 63.9773 90.3395 63.858 90.3722 63.7074C90.4048 63.5582 90.4368 63.3913 90.4681 63.2067C90.4993 63.022 90.5227 62.8338 90.5384 62.642L90.5597 62.4034H91.1733ZM93.222 63V62.5227L94.6986 60.9929C94.8563 60.8267 94.9863 60.6811 95.0885 60.5561C95.1922 60.4297 95.2696 60.3097 95.3208 60.196C95.3719 60.0824 95.3975 59.9616 95.3975 59.8338C95.3975 59.6889 95.3634 59.5639 95.2952 59.4588C95.227 59.3523 95.134 59.2706 95.0161 59.2138C94.8982 59.1555 94.7654 59.1264 94.6176 59.1264C94.4614 59.1264 94.325 59.1584 94.2086 59.2223C94.0921 59.2862 94.0026 59.3764 93.9401 59.4929C93.8776 59.6094 93.8463 59.7457 93.8463 59.902H93.2178C93.2178 59.6364 93.2789 59.4041 93.401 59.2053C93.5232 59.0064 93.6908 58.8523 93.9039 58.7429C94.1169 58.6321 94.3591 58.5767 94.6304 58.5767C94.9046 58.5767 95.1461 58.6314 95.3549 58.7408C95.5651 58.8487 95.7292 58.9964 95.847 59.1839C95.9649 59.37 96.0239 59.5803 96.0239 59.8146C96.0239 59.9766 95.9934 60.1349 95.9323 60.2898C95.8726 60.4446 95.7682 60.6172 95.6191 60.8075C95.4699 60.9964 95.2625 61.2259 94.9969 61.4957L94.1297 62.4034V62.4354H96.0942V63H93.222ZM98.2409 63.0724C97.9043 63.071 97.6166 62.9822 97.378 62.8061C97.1394 62.63 96.9568 62.3736 96.8304 62.0369C96.704 61.7003 96.6408 61.2947 96.6408 60.8203C96.6408 60.3473 96.704 59.9432 96.8304 59.608C96.9582 59.2727 97.1415 59.017 97.3801 58.8409C97.6202 58.6648 97.9071 58.5767 98.2409 58.5767C98.5747 58.5767 98.8609 58.6655 99.0996 58.843C99.3382 59.0192 99.5207 59.2749 99.6472 59.6101C99.775 59.9439 99.8389 60.3473 99.8389 60.8203C99.8389 61.2962 99.7757 61.7024 99.6493 62.0391C99.5229 62.3743 99.3403 62.6307 99.1017 62.8082C98.8631 62.9844 98.5761 63.0724 98.2409 63.0724ZM98.2409 62.5036C98.5364 62.5036 98.7672 62.3594 98.9334 62.071C99.101 61.7827 99.1848 61.3658 99.1848 60.8203C99.1848 60.4581 99.1465 60.152 99.0698 59.902C98.9945 59.6506 98.8858 59.4602 98.7438 59.331C98.6031 59.2003 98.4355 59.1349 98.2409 59.1349C97.9469 59.1349 97.7161 59.2798 97.5484 59.5696C97.3808 59.8594 97.2963 60.2763 97.2949 60.8203C97.2949 61.1839 97.3325 61.4915 97.4078 61.7429C97.4845 61.9929 97.5932 62.1825 97.7338 62.3118C97.8744 62.4396 98.0435 62.5036 98.2409 62.5036ZM100.415 63V62.5227L101.891 60.9929C102.049 60.8267 102.179 60.6811 102.281 60.5561C102.385 60.4297 102.462 60.3097 102.514 60.196C102.565 60.0824 102.59 59.9616 102.59 59.8338C102.59 59.6889 102.556 59.5639 102.488 59.4588C102.42 59.3523 102.327 59.2706 102.209 59.2138C102.091 59.1555 101.958 59.1264 101.81 59.1264C101.654 59.1264 101.518 59.1584 101.401 59.2223C101.285 59.2862 101.195 59.3764 101.133 59.4929C101.07 59.6094 101.039 59.7457 101.039 59.902H100.411C100.411 59.6364 100.472 59.4041 100.594 59.2053C100.716 59.0064 100.884 58.8523 101.097 58.7429C101.31 58.6321 101.552 58.5767 101.823 58.5767C102.097 58.5767 102.339 58.6314 102.548 58.7408C102.758 58.8487 102.922 58.9964 103.04 59.1839C103.158 59.37 103.217 59.5803 103.217 59.8146C103.217 59.9766 103.186 60.1349 103.125 60.2898C103.065 60.4446 102.961 60.6172 102.812 60.8075C102.663 60.9964 102.455 61.2259 102.19 61.4957L101.322 62.4034V62.4354H103.287V63H100.415ZM105.434 63.0597C105.141 63.0597 104.88 63.0092 104.65 62.9084C104.421 62.8075 104.24 62.6676 104.106 62.4886C103.974 62.3082 103.903 62.0994 103.893 61.8622H104.562C104.571 61.9915 104.614 62.1037 104.692 62.1989C104.772 62.2926 104.875 62.3651 105.003 62.4162C105.131 62.4673 105.273 62.4929 105.429 62.4929C105.601 62.4929 105.753 62.4631 105.885 62.4034C106.019 62.3437 106.123 62.2607 106.199 62.1541C106.274 62.0462 106.311 61.9219 106.311 61.7812C106.311 61.6349 106.274 61.5064 106.199 61.3956C106.125 61.2834 106.016 61.1953 105.873 61.1314C105.731 61.0675 105.559 61.0355 105.357 61.0355H104.988V60.4986H105.357C105.519 60.4986 105.661 60.4695 105.783 60.4112C105.907 60.353 106.003 60.272 106.073 60.1683C106.142 60.0632 106.177 59.9403 106.177 59.7997C106.177 59.6648 106.147 59.5476 106.086 59.4482C106.026 59.3473 105.941 59.2685 105.83 59.2116C105.721 59.1548 105.591 59.1264 105.442 59.1264C105.3 59.1264 105.167 59.1527 105.044 59.2053C104.922 59.2564 104.822 59.3303 104.745 59.4268C104.669 59.522 104.628 59.6364 104.622 59.7699H103.985C103.992 59.5341 104.061 59.3267 104.194 59.1477C104.327 58.9687 104.503 58.8288 104.722 58.728C104.941 58.6271 105.184 58.5767 105.451 58.5767C105.731 58.5767 105.972 58.6314 106.175 58.7408C106.38 58.8487 106.537 58.9929 106.648 59.1733C106.76 59.3537 106.816 59.5511 106.814 59.7656C106.816 60.0099 106.748 60.2173 106.61 60.3878C106.473 60.5582 106.292 60.6726 106.064 60.7308V60.7649C106.354 60.8089 106.579 60.924 106.738 61.1101C106.898 61.2962 106.978 61.527 106.976 61.8026C106.978 62.0426 106.911 62.2578 106.776 62.4482C106.642 62.6385 106.46 62.7884 106.228 62.8977C105.997 63.0057 105.732 63.0597 105.434 63.0597Z" fill="#AEAEB7"/>
<path d="M25.7644 58.3112C25.3873 58.0208 25.0103 57.8031 24.6333 57.6579C24.2562 57.5128 23.8792 57.4402 23.4267 57.4402C22.5972 57.3676 21.6923 57.5854 20.7874 57.7305C19.8825 57.9483 19.053 58.166 18.4498 58.3837C17.8465 58.6015 17.394 58.7466 17.394 58.7466C17.394 58.7466 17.7711 58.9644 18.4498 59.2547C19.053 59.545 19.9579 59.8354 20.9382 59.9805C21.9186 60.1257 22.8989 60.1257 23.8038 59.9079C24.7841 59.6902 25.5382 59.1821 25.7644 58.3112Z" fill="#34343D"/>
<path d="M23.1274 54.608C23.5044 55.3338 23.9569 56.0596 24.6356 56.4951C24.9372 56.7128 25.3142 56.9305 25.6913 57.0031C26.0683 57.0757 26.5208 57.0757 26.8978 56.858C26.8978 55.987 26.6716 55.2612 26.2946 54.6805C25.9175 54.0999 25.3143 53.5193 24.7864 53.0838C24.1831 52.6483 23.6553 52.2854 23.2028 51.9951C22.7504 51.7047 22.4487 51.5596 22.4487 51.5596C22.4487 51.5596 22.4487 51.6321 22.4487 51.8499C22.4487 51.995 22.5241 52.2128 22.5241 52.5031C22.5996 53.0838 22.7504 53.8096 23.1274 54.608Z" fill="#34343D"/>
<path d="M16.7912 56.5686C17.6962 56.496 18.4502 56.2057 18.9781 55.4799C18.5256 54.7541 17.847 54.3186 17.0929 54.1009C16.3388 53.8831 15.3585 53.8105 14.4536 53.8105C13.5487 53.8105 12.6438 53.8105 11.9651 53.8105C11.2864 53.8105 10.834 53.8105 10.834 53.8105C10.834 53.8105 10.9094 53.8831 11.0602 54.0283C11.211 54.1734 11.4372 54.3912 11.7389 54.6089C12.3421 55.0444 13.0962 55.5525 14.0011 55.988C14.9814 56.3509 15.9618 56.5686 16.7912 56.5686Z" fill="#34343D"/>
<path d="M18.4514 53.23C18.9793 53.8107 19.658 54.2462 20.4875 54.1736C20.8645 53.3752 20.7891 52.5768 20.5629 51.851C20.3367 51.1252 19.8842 50.472 19.5072 49.8913C19.0547 49.3107 18.6777 48.8752 18.3006 48.5123C18.1498 48.3671 17.999 48.222 17.9236 48.0768C17.8482 48.0042 17.7728 47.9316 17.7728 47.9316C17.7728 47.9316 17.7728 48.0042 17.6973 48.1494C17.6219 48.2945 17.622 48.5123 17.5465 48.8026C17.4711 49.3833 17.3957 50.1091 17.5465 50.9075C17.6974 51.7784 17.999 52.5768 18.4514 53.23Z" fill="#34343D"/>
<path d="M7.74273 47.2054C7.13946 46.9876 6.68701 46.915 6.68701 46.915C6.68701 46.915 6.76241 46.9876 6.83781 47.2054C6.91322 47.3505 7.06404 47.5683 7.21486 47.8586C7.36567 48.1489 7.59191 48.4392 7.81814 48.8021C7.96896 48.9473 8.04436 49.165 8.19518 49.3102L8.27057 49.4554L8.4214 49.6005C8.49681 49.6731 8.5722 49.8183 8.64761 49.8908C9.4017 50.6892 10.3066 51.3425 11.1361 51.6328C12.041 51.9231 12.8705 51.8505 13.6246 51.2699C13.3984 50.3989 12.9459 49.8183 12.2672 49.3828C12.1164 49.2376 11.8902 49.165 11.7394 49.0199C11.5885 48.8747 11.3623 48.8021 11.1361 48.657C10.9099 48.5118 10.7591 48.4392 10.5328 48.2941C10.3066 48.2215 10.1558 48.0763 9.92957 48.0037C9.17548 47.6408 8.34599 47.3505 7.74273 47.2054Z" fill="#34343D"/>
<path d="M13.851 48.6571C14.0772 49.3829 14.6051 49.9636 15.4346 50.1813C16.0378 49.5281 16.1887 48.7297 16.2641 48.0765C16.3395 47.3507 16.1887 46.6975 16.1133 46.1168C16.1133 45.8991 15.9624 45.4636 15.887 45.1733C15.8116 44.8829 15.6608 44.5926 15.5854 44.3023C15.51 44.0846 15.4346 43.8668 15.3592 43.7217C15.2838 43.5765 15.2838 43.5039 15.2838 43.5039C15.2838 43.5039 15.2084 43.5765 15.133 43.7217C15.0575 43.8668 14.9067 44.0846 14.7559 44.3023C14.4543 44.8104 14.1526 45.5362 13.9264 46.262C13.851 46.4797 13.851 46.6249 13.7756 46.8426C13.7002 47.0604 13.7002 47.2055 13.7002 47.4233C13.7002 47.641 13.7002 47.7862 13.7002 48.0039C13.7002 48.2942 13.7756 48.512 13.851 48.6571Z" fill="#34343D"/>
<path d="M6.83897 44.2292C6.98978 44.3743 7.1406 44.5195 7.29142 44.6647C7.44224 44.8098 7.66847 44.955 7.81929 45.0276C8.57337 45.463 9.32745 45.6808 10.2323 45.3905C10.3078 44.955 10.3078 44.5921 10.1569 44.2292C10.0815 44.084 10.0061 43.8663 9.93072 43.7211C9.85531 43.5759 9.7045 43.4308 9.62909 43.213C9.17664 42.5598 8.42255 42.0518 7.74388 41.5437C7.0652 41.0356 6.31111 40.6001 5.70784 40.3098C5.10457 40.0195 4.72754 39.8018 4.72754 39.8018C4.72754 39.8018 4.72754 39.8743 4.80295 40.0921C4.87836 40.3098 4.95376 40.5276 5.02917 40.8179C5.25539 41.3985 5.55702 42.2695 6.08488 42.9953C6.2357 43.5034 6.53733 43.8663 6.83897 44.2292Z" fill="#34343D"/>
<path d="M11.5126 43.867C11.6634 44.2299 11.965 44.5202 12.2667 44.738C13.0207 44.3025 13.4732 43.6493 13.7748 42.9235C13.8502 42.7783 13.8502 42.5605 13.9256 42.4154C13.9256 42.3428 13.9256 42.1976 14.001 42.1251C14.001 42.0525 14.001 41.9073 14.0764 41.8347C14.1519 41.4718 14.1519 41.1089 14.1519 40.746C14.0765 40.0202 14.0764 39.367 13.9256 38.8589C13.8502 38.6412 13.8502 38.4235 13.7748 38.2783C13.7748 38.1331 13.6994 38.0605 13.6994 38.0605C13.6994 38.0605 13.624 38.1331 13.4732 38.2783C13.3224 38.4235 13.1716 38.5686 13.0207 38.7864C12.6437 39.2218 12.1912 39.8751 11.8142 40.6009C11.4372 41.3267 11.2109 42.1251 11.2109 42.9235C11.2109 43.1412 11.2109 43.2864 11.2863 43.5041C11.3617 43.5767 11.4372 43.7218 11.5126 43.867Z" fill="#34343D"/>
<path d="M5.25437 37.3352C5.32978 37.553 5.48059 37.6981 5.63141 37.9159C5.78223 38.061 5.93305 38.2788 6.08387 38.4239C6.68713 39.0046 7.44122 39.3675 8.34612 39.2223C8.49694 38.8594 8.57235 38.4239 8.49695 38.061C8.49695 37.8433 8.42153 37.6981 8.34612 37.4804C8.27071 37.3352 8.19531 37.1175 8.1199 36.9723C7.96909 36.6094 7.74287 36.2465 7.44123 35.9562C7.29041 35.811 7.1396 35.5933 7.06419 35.4481C6.91337 35.303 6.76255 35.1578 6.61173 34.9401C6.00847 34.2869 5.32978 33.7062 4.87733 33.2707C4.42488 32.8352 4.04785 32.5449 4.04785 32.5449C4.04785 32.5449 4.04785 32.9804 4.04785 33.6336C4.04785 33.9965 4.12325 34.3594 4.19865 34.7223C4.27406 34.9401 4.27407 35.1578 4.34948 35.3756C4.42489 35.5933 4.42488 35.8111 4.5757 36.0288C4.87733 36.4643 5.10355 36.8998 5.25437 37.3352Z" fill="#34343D"/>
<path d="M10.5341 38.714C11.3636 38.4236 11.9669 37.843 12.344 37.2624C12.4194 37.1172 12.4948 36.972 12.5702 36.7543C12.6456 36.6091 12.721 36.3914 12.7964 36.2462C12.9472 35.8833 13.0226 35.5204 13.098 35.2301C13.1735 34.8672 13.2488 34.5769 13.2488 34.214C13.2488 34.0688 13.2489 33.9236 13.3243 33.7785C13.3243 33.6333 13.3243 33.4882 13.3243 33.4156C13.3997 32.9075 13.3997 32.6172 13.3997 32.6172C13.3997 32.6172 13.098 32.7624 12.5702 33.1253C12.4194 33.1978 12.344 33.2704 12.1931 33.4156C12.0423 33.4882 11.8915 33.6333 11.8161 33.7785C11.5145 33.9962 11.2882 34.2866 10.9866 34.5769C10.8358 34.722 10.7604 34.8672 10.6096 35.0849C10.5341 35.1575 10.4588 35.2301 10.4588 35.3753C10.3833 35.4478 10.3833 35.5204 10.3079 35.6656C10.1571 36.0285 10.0063 36.3914 9.93088 36.7543C9.93088 36.972 9.85547 37.1172 9.85547 37.3349C9.85547 37.5527 9.93088 37.6978 9.93088 37.843C10.0817 38.0607 10.2325 38.4236 10.5341 38.714Z" fill="#34343D"/>
<path d="M7.36457 28.1903C7.13835 27.8274 6.91211 27.4645 6.76129 27.1016C6.53507 26.7387 6.30885 26.4484 6.15804 26.1581C5.78099 25.65 5.55478 25.2871 5.55478 25.2871C5.55478 25.2871 5.40395 25.7226 5.32854 26.3758C5.25313 26.6661 5.25314 27.1016 5.17773 27.4645C5.17773 27.6823 5.17773 27.9 5.17773 28.1177C5.17773 28.3355 5.17773 28.5532 5.17773 28.771C5.25314 29.2065 5.25313 29.6419 5.40395 30.0774C5.55477 30.5129 5.70559 30.9484 5.93182 31.2387C6.38427 31.9645 7.06293 32.4726 7.96783 32.5452C8.11865 32.4 8.19405 32.1823 8.26946 32.0371C8.34487 31.8919 8.42029 31.6742 8.42029 31.529C8.4957 31.1661 8.42028 30.8032 8.34488 30.4403C8.26947 30.0774 8.11865 29.6419 7.96783 29.279C7.81702 28.9887 7.5908 28.5532 7.36457 28.1903Z" fill="#34343D"/>
<path d="M12.2685 31.528C12.5702 31.2377 12.7964 31.02 12.9472 30.6571C13.1734 30.3667 13.3243 30.0764 13.4751 29.7135C13.5505 29.5684 13.6259 29.4232 13.7013 29.278C13.7767 29.1329 13.8521 28.9877 13.9275 28.8425C14.0783 28.5522 14.1538 28.3345 14.2292 28.0442C14.38 27.6087 14.4554 27.3184 14.4554 27.3184C14.4554 27.3184 14.0783 27.3909 13.5505 27.6087C13.0226 27.8264 12.3439 28.1167 11.6653 28.6248C11.5145 28.77 11.3637 28.8425 11.2128 28.9877C11.062 29.1329 10.9112 29.278 10.7604 29.4232C10.4587 29.7135 10.2325 30.0764 10.0817 30.3667C9.93089 30.7296 9.85547 31.0926 9.85547 31.4555C9.85547 31.6006 9.85547 31.8184 9.93088 31.9635C10.0063 32.1087 10.0817 32.3264 10.1571 32.4716C11.062 32.399 11.7407 32.0361 12.2685 31.528Z" fill="#34343D"/>
<path d="M9.627 25.8671C9.77782 25.722 9.85322 25.5768 9.92863 25.3591C10.004 25.2139 10.0795 24.9962 10.0795 24.851C10.0795 24.7058 10.1548 24.4881 10.1548 24.2703C10.1548 23.9074 10.1549 23.472 10.0795 23.0365C10.004 22.601 9.92862 22.2381 9.85322 21.8026C9.62699 21.0042 9.40077 20.2058 9.17454 19.6252C8.94832 19.0445 8.7975 18.6816 8.7975 18.6816C8.7975 18.6816 8.72208 18.7542 8.64668 18.8994C8.57127 19.0445 8.42045 19.3349 8.26963 19.6252C7.968 20.2058 7.66637 21.0042 7.51555 21.8752C7.44014 22.3107 7.36475 22.7462 7.36475 23.1816C7.36475 23.3994 7.36475 23.6171 7.44016 23.8349C7.44016 24.0526 7.51555 24.2703 7.59096 24.4881C7.74178 24.851 7.89261 25.2139 8.19424 25.5768C8.49588 25.8671 8.79751 26.1574 9.24996 26.3026C9.40077 26.23 9.55159 26.0849 9.627 25.8671Z" fill="#34343D"/>
<path d="M16.7929 22.7451C16.8683 22.5999 16.9437 22.5273 16.9437 22.5273C16.9437 22.5273 16.8683 22.5273 16.6421 22.5273C16.4913 22.5273 16.2651 22.5273 15.9634 22.5999C15.6618 22.5999 15.3602 22.6725 14.9831 22.7451C14.8323 22.8177 14.6061 22.8177 14.4553 22.8902C14.3044 22.9628 14.0782 23.0354 13.9274 23.108C13.5503 23.2532 13.1733 23.3983 12.7963 23.6161C12.4946 23.8338 12.193 24.1241 11.8914 24.3419C11.7406 24.487 11.6651 24.6322 11.5897 24.7773C11.5143 24.9225 11.4389 25.1402 11.3635 25.2854C11.2881 25.4306 11.2881 25.6483 11.2881 25.7935C11.2881 26.0112 11.3635 26.1564 11.3635 26.3741C11.8159 26.4467 12.193 26.4467 12.57 26.3741C12.9471 26.3015 13.3241 26.1564 13.6258 25.9386C13.7766 25.8661 13.9274 25.7209 14.0782 25.6483C14.1536 25.5757 14.229 25.5032 14.3044 25.5032C14.3798 25.4306 14.4553 25.358 14.5307 25.358C14.8323 25.1402 15.0585 24.8499 15.2847 24.6322C15.511 24.3419 15.7372 24.1241 15.888 23.9064C15.9634 23.8338 15.9634 23.7612 16.0388 23.6886C16.1142 23.6161 16.1142 23.5435 16.1896 23.5435C16.265 23.3983 16.3405 23.3257 16.4159 23.2532C16.5667 23.0354 16.7175 22.8902 16.7929 22.7451Z" fill="#34343D"/>
<path d="M12.114 20.5686C12.4911 20.3508 12.7927 20.1331 13.0189 19.8428C13.2451 19.5525 13.396 19.1895 13.5468 18.8266C13.773 18.1008 13.8484 17.2299 13.8484 16.4315C13.8484 16.2137 13.8484 15.996 13.8484 15.7783C13.8484 15.5605 13.8484 15.3428 13.8484 15.1976C13.8484 14.8347 13.773 14.4718 13.773 14.1089C13.6976 13.5283 13.6222 13.0928 13.6222 13.0928C13.6222 13.0928 13.5468 13.1654 13.396 13.3105C13.2451 13.4557 13.0943 13.6734 12.8681 13.8912C12.6419 14.1815 12.4157 14.4718 12.2648 14.7621C12.0386 15.125 11.8124 15.4879 11.6616 15.8508C11.5107 16.2863 11.3599 16.6492 11.2091 17.0847C11.1337 17.5202 11.0583 17.9557 11.0583 18.3186C10.9829 19.2621 11.3599 20.0605 12.114 20.5686Z" fill="#34343D"/>
<path d="M18.4487 20.1328C18.7503 19.9151 19.0519 19.6974 19.2782 19.4796C19.5044 19.2619 19.7306 19.1167 19.9568 18.899C20.1076 18.7538 20.2585 18.6087 20.4093 18.4635C20.4847 18.3909 20.5601 18.3183 20.5601 18.3183C20.5601 18.3183 20.1831 18.2458 19.5798 18.1732C19.2782 18.1732 18.9765 18.1006 18.5995 18.1006C18.2224 18.1006 17.8454 18.1006 17.3929 18.1732C16.5635 18.3183 15.734 18.5361 15.1307 18.9716C14.8291 19.1893 14.6028 19.4796 14.3766 19.7699C14.2258 20.0603 14.1504 20.4232 14.1504 20.8587C14.9799 21.2216 15.8094 21.149 16.4881 21.0038C16.8651 20.9312 17.1667 20.7861 17.5438 20.5683C17.8454 20.4958 18.147 20.3506 18.4487 20.1328Z" fill="#34343D"/>
<path d="M24.9372 57.3667C22.0716 56.278 19.2061 54.9716 16.7931 53.0845C14.2292 51.0522 12.4194 48.2942 11.1374 45.1006C9.55385 41.399 8.42272 37.5522 8.57354 33.4877C8.72436 30.0039 9.70467 26.5926 11.2128 23.399C12.4948 20.8587 14.0784 18.3184 16.039 16.0684C15.8882 15.778 15.8882 15.4151 15.9636 15.1248C16.039 14.7619 16.1898 14.399 16.416 14.1087C16.8685 13.4555 17.5471 12.8748 18.3012 12.5119C19.0553 12.0764 19.8094 11.8587 20.4127 11.7135C20.7143 11.6409 20.9405 11.5684 21.0913 11.5684H21.3176H21.393V11.6409C21.393 11.6409 21.393 11.7135 21.3176 11.7861C21.2422 11.9313 21.1668 12.149 21.0159 12.3668C20.7897 12.8748 20.4127 13.4555 19.9602 14.1087C19.734 14.399 19.4323 14.6893 19.2061 14.9797L18.8291 15.3426L18.829 15.3427C18.6782 15.4878 18.5274 15.6329 18.3766 15.7055C18.075 15.8506 17.7734 16.0684 17.3963 16.1409C17.1701 16.2135 16.8685 16.2135 16.5668 16.2135C15.7373 17.2297 14.9079 18.2458 14.2292 19.2619C11.4391 23.2538 9.47843 27.899 9.1768 32.7619C8.95057 36.9716 9.93089 40.8909 11.5899 44.7377C12.4194 46.77 13.4751 48.7296 14.9833 50.399C16.4914 52.0684 18.3012 53.3748 20.2619 54.4635C24.0323 56.4958 29.5371 58.8184 34.7403 60.4877L33.3075 61.1409C30.2912 59.7619 27.2748 58.2377 24.9372 57.3667Z" fill="#34343D"/>
<path d="M142.957 58.3092C143.334 58.0189 143.711 57.8011 144.088 57.656C144.465 57.5108 144.843 57.4382 145.295 57.4382C146.124 57.3657 147.029 57.5834 147.934 57.7286C148.839 57.9463 149.669 58.164 150.272 58.3818C150.875 58.5995 151.328 58.7447 151.328 58.7447C151.328 58.7447 150.951 58.9624 150.272 59.2528C149.669 59.5431 148.764 59.8334 147.783 59.9786C146.803 60.1237 145.823 60.1237 144.918 59.906C143.938 59.6882 143.184 59.1802 142.957 58.3092Z" fill="#34343D"/>
<path d="M145.594 54.607C145.217 55.3328 144.764 56.0586 144.086 56.4941C143.784 56.7118 143.407 56.9296 143.03 57.0021C142.653 57.0747 142.2 57.0747 141.823 56.857C141.823 55.986 142.05 55.2602 142.427 54.6796C142.804 54.0989 143.407 53.5183 143.935 53.0828C144.538 52.6473 145.066 52.2844 145.518 51.9941C145.971 51.7038 146.272 51.5586 146.272 51.5586C146.272 51.5586 146.272 51.6312 146.272 51.8489C146.272 51.9941 146.197 52.2118 146.197 52.5021C146.122 53.0828 145.971 53.8086 145.594 54.607Z" fill="#34343D"/>
<path d="M151.931 56.5676C151.026 56.495 150.272 56.2047 149.744 55.4789C150.197 54.7531 150.875 54.3176 151.629 54.0999C152.383 53.8821 153.364 53.8096 154.269 53.8096C155.173 53.8096 156.078 53.8096 156.757 53.8096C157.436 53.8096 157.888 53.8096 157.888 53.8096C157.888 53.8096 157.813 53.8821 157.662 54.0273C157.511 54.1725 157.285 54.3902 156.983 54.608C156.38 55.0434 155.626 55.5515 154.721 55.987C153.741 56.3499 152.76 56.5676 151.931 56.5676Z" fill="#34343D"/>
<path d="M150.27 53.2291C149.742 53.8097 149.064 54.2452 148.234 54.1726C147.857 53.3742 147.933 52.5758 148.159 51.85C148.385 51.1242 148.837 50.471 149.215 49.8903C149.667 49.3097 150.044 48.8742 150.421 48.5113C150.572 48.3662 150.723 48.221 150.798 48.0758C150.873 48.0032 150.949 47.9307 150.949 47.9307C150.949 47.9307 150.949 48.0032 151.024 48.1484C151.1 48.2936 151.1 48.5113 151.175 48.8016C151.251 49.3823 151.326 50.1081 151.175 50.9065C151.024 51.7774 150.723 52.5758 150.27 53.2291Z" fill="#34343D"/>
<path d="M160.979 47.2044C161.582 46.9866 162.035 46.9141 162.035 46.9141C162.035 46.9141 161.959 46.9866 161.884 47.2044C161.808 47.3495 161.658 47.5673 161.507 47.8576C161.356 48.1479 161.13 48.4382 160.904 48.8012C160.753 48.9463 160.677 49.1641 160.526 49.3092L160.451 49.4544L160.3 49.5995C160.225 49.6721 160.149 49.8173 160.074 49.8899C159.32 50.6882 158.415 51.3415 157.586 51.6318C156.681 51.9221 155.851 51.8495 155.097 51.2689C155.323 50.3979 155.776 49.8173 156.454 49.3818C156.605 49.2366 156.831 49.1641 156.982 49.0189C157.133 48.8737 157.359 48.8012 157.586 48.656C157.812 48.5108 157.963 48.4383 158.189 48.2931C158.415 48.2205 158.566 48.0754 158.792 48.0028C159.546 47.6399 160.376 47.3495 160.979 47.2044Z" fill="#34343D"/>
<path d="M154.871 48.6562C154.644 49.382 154.117 49.9626 153.287 50.1804C152.684 49.5271 152.533 48.7287 152.458 48.0755C152.382 47.3497 152.533 46.6965 152.608 46.1158C152.608 45.8981 152.759 45.4626 152.835 45.1723C152.91 44.882 153.061 44.5916 153.136 44.3013C153.212 44.0836 153.287 43.8658 153.362 43.7207C153.438 43.5755 153.438 43.5029 153.438 43.5029C153.438 43.5029 153.513 43.5755 153.589 43.7207C153.664 43.8658 153.815 44.0836 153.966 44.3013C154.267 44.8094 154.569 45.5352 154.795 46.261C154.871 46.4787 154.871 46.6239 154.946 46.8416C155.021 47.0594 155.021 47.2045 155.021 47.4223C155.021 47.64 155.021 47.7852 155.021 48.0029C155.021 48.2933 154.946 48.511 154.871 48.6562Z" fill="#34343D"/>
<path d="M161.883 44.2282C161.732 44.3734 161.582 44.5185 161.431 44.6637C161.28 44.8088 161.054 44.954 160.903 45.0266C160.149 45.4621 159.395 45.6798 158.49 45.3895C158.414 44.954 158.414 44.5911 158.565 44.2282C158.641 44.083 158.716 43.8653 158.791 43.7201C158.867 43.575 159.018 43.4298 159.093 43.2121C159.546 42.5588 160.3 42.0508 160.978 41.5427C161.657 41.0346 162.411 40.5992 163.014 40.3088C163.618 40.0185 163.995 39.8008 163.995 39.8008C163.995 39.8008 163.995 39.8734 163.919 40.0911C163.844 40.3088 163.768 40.5266 163.693 40.8169C163.467 41.3976 163.165 42.2685 162.637 42.9943C162.486 43.5024 162.185 43.8653 161.883 44.2282Z" fill="#34343D"/>
<path d="M157.209 43.865C157.058 44.2279 156.757 44.5183 156.455 44.736C155.701 44.3005 155.248 43.6473 154.947 42.9215C154.871 42.7763 154.871 42.5586 154.796 42.4134C154.796 42.3409 154.796 42.1957 154.721 42.1231C154.721 42.0505 154.721 41.9054 154.645 41.8328C154.57 41.4699 154.57 41.107 154.57 40.7441C154.645 40.0183 154.645 39.365 154.796 38.857C154.871 38.6392 154.871 38.4215 154.947 38.2763C154.947 38.1312 155.022 38.0586 155.022 38.0586C155.022 38.0586 155.098 38.1312 155.248 38.2763C155.399 38.4215 155.55 38.5667 155.701 38.7844C156.078 39.2199 156.53 39.8731 156.907 40.5989C157.285 41.3247 157.511 42.1231 157.511 42.9215C157.511 43.1392 157.511 43.2844 157.435 43.5021C157.36 43.5747 157.285 43.7199 157.209 43.865Z" fill="#34343D"/>
<path d="M163.467 37.3343C163.392 37.552 163.241 37.6972 163.09 37.9149C162.939 38.0601 162.789 38.2778 162.638 38.423C162.035 39.0036 161.28 39.3665 160.376 39.2214C160.225 38.8585 160.149 38.423 160.225 38.0601C160.225 37.8423 160.3 37.6972 160.376 37.4794C160.451 37.3343 160.526 37.1165 160.602 36.9714C160.753 36.6085 160.979 36.2456 161.28 35.9552C161.431 35.8101 161.582 35.5923 161.657 35.4472C161.808 35.302 161.959 35.1569 162.11 34.9391C162.713 34.2859 163.392 33.7052 163.844 33.2698C164.297 32.8343 164.674 32.5439 164.674 32.5439C164.674 32.5439 164.674 32.9794 164.674 33.6327C164.674 33.9956 164.598 34.3585 164.523 34.7214C164.448 34.9391 164.448 35.1568 164.372 35.3746C164.297 35.5923 164.297 35.8101 164.146 36.0278C163.844 36.4633 163.618 36.8988 163.467 37.3343Z" fill="#34343D"/>
<path d="M158.188 38.713C157.358 38.4227 156.755 37.842 156.378 37.2614C156.302 37.1162 156.227 36.9711 156.152 36.7533C156.076 36.6082 156.001 36.3904 155.925 36.2452C155.774 35.8823 155.699 35.5194 155.624 35.2291C155.548 34.8662 155.473 34.5759 155.473 34.213C155.473 34.0678 155.473 33.9227 155.397 33.7775C155.397 33.6323 155.397 33.4872 155.397 33.4146C155.322 32.9065 155.322 32.6162 155.322 32.6162C155.322 32.6162 155.624 32.7614 156.152 33.1243C156.302 33.1969 156.378 33.2694 156.529 33.4146C156.679 33.4872 156.83 33.6323 156.906 33.7775C157.207 33.9952 157.433 34.2856 157.735 34.5759C157.886 34.7211 157.961 34.8662 158.112 35.084C158.188 35.1565 158.263 35.2291 158.263 35.3743C158.338 35.4469 158.338 35.5194 158.414 35.6646C158.565 36.0275 158.715 36.3904 158.791 36.7533C158.791 36.9711 158.866 37.1162 158.866 37.334C158.866 37.5517 158.791 37.6969 158.791 37.842C158.64 38.0598 158.489 38.4227 158.188 38.713Z" fill="#34343D"/>
<path d="M161.357 28.1884C161.583 27.8255 161.809 27.4626 161.96 27.0997C162.186 26.7368 162.412 26.4464 162.563 26.1561C162.94 25.6481 163.166 25.2852 163.166 25.2852C163.166 25.2852 163.317 25.7206 163.393 26.3739C163.468 26.6642 163.468 27.0997 163.543 27.4626C163.543 27.6803 163.543 27.8981 163.543 28.1158C163.543 28.3335 163.543 28.5513 163.543 28.769C163.468 29.2045 163.468 29.64 163.317 30.0755C163.166 30.511 163.016 30.9464 162.789 31.2368C162.337 31.9626 161.658 32.4706 160.753 32.5432C160.603 32.3981 160.527 32.1803 160.452 32.0352C160.376 31.89 160.301 31.6722 160.301 31.5271C160.225 31.1642 160.301 30.8013 160.376 30.4384C160.452 30.0755 160.603 29.64 160.753 29.2771C160.904 28.9868 161.13 28.5513 161.357 28.1884Z" fill="#34343D"/>
<path d="M156.453 31.5271C156.151 31.2367 155.925 31.019 155.774 30.6561C155.548 30.3658 155.397 30.0754 155.247 29.7125C155.171 29.5674 155.096 29.4222 155.02 29.2771C154.945 29.1319 154.87 28.9867 154.794 28.8416C154.643 28.5512 154.568 28.3335 154.493 28.0432C154.342 27.6077 154.266 27.3174 154.266 27.3174C154.266 27.3174 154.643 27.39 155.171 27.6077C155.699 27.8254 156.378 28.1158 157.056 28.6238C157.207 28.769 157.358 28.8416 157.509 28.9867C157.66 29.1319 157.81 29.2771 157.961 29.4222C158.263 29.7125 158.489 30.0754 158.64 30.3658C158.791 30.7287 158.866 31.0916 158.866 31.4545C158.866 31.5996 158.866 31.8174 158.791 31.9625C158.715 32.1077 158.64 32.3254 158.565 32.4706C157.66 32.398 156.981 32.0351 156.453 31.5271Z" fill="#34343D"/>
<path d="M159.095 25.8662C158.944 25.721 158.868 25.5758 158.793 25.3581C158.718 25.2129 158.642 24.9952 158.642 24.85C158.642 24.7049 158.567 24.4871 158.567 24.2694C158.567 23.9065 158.567 23.471 158.642 23.0355C158.718 22.6 158.793 22.2371 158.868 21.8016C159.095 21.0032 159.321 20.2049 159.547 19.6242C159.773 19.0436 159.924 18.6807 159.924 18.6807C159.924 18.6807 160 18.7532 160.075 18.8984C160.15 19.0436 160.301 19.3339 160.452 19.6242C160.754 20.2049 161.055 21.0033 161.206 21.8742C161.282 22.3097 161.357 22.7452 161.357 23.1807C161.357 23.3984 161.357 23.6162 161.282 23.8339C161.282 24.0516 161.206 24.2694 161.131 24.4871C160.98 24.85 160.829 25.2129 160.527 25.5758C160.226 25.8661 159.924 26.1565 159.472 26.3016C159.321 26.2291 159.17 26.0839 159.095 25.8662Z" fill="#34343D"/>
<path d="M151.929 22.7441C151.854 22.599 151.778 22.5264 151.778 22.5264C151.778 22.5264 151.854 22.5264 152.08 22.5264C152.231 22.5264 152.457 22.5264 152.759 22.599C153.06 22.599 153.362 22.6715 153.739 22.7441C153.89 22.8167 154.116 22.8167 154.267 22.8893C154.418 22.9619 154.644 23.0344 154.795 23.107C155.172 23.2522 155.549 23.3973 155.926 23.6151C156.228 23.8328 156.529 24.1231 156.831 24.3409C156.982 24.486 157.057 24.6312 157.132 24.7764C157.208 24.9215 157.283 25.1393 157.359 25.2844C157.434 25.4296 157.434 25.6473 157.434 25.7925C157.434 26.0102 157.359 26.1554 157.359 26.3731C156.906 26.4457 156.529 26.4457 156.152 26.3731C155.775 26.3006 155.398 26.1554 155.096 25.9377C154.946 25.8651 154.795 25.7199 154.644 25.6473C154.569 25.5748 154.493 25.5022 154.418 25.5022C154.342 25.4296 154.267 25.357 154.192 25.357C153.89 25.1393 153.664 24.8489 153.437 24.6312C153.211 24.3409 152.985 24.1231 152.834 23.9054C152.759 23.8328 152.759 23.7602 152.683 23.6877C152.608 23.6151 152.608 23.5425 152.533 23.5425C152.457 23.3973 152.382 23.3248 152.306 23.2522C152.155 23.0344 152.005 22.8893 151.929 22.7441Z" fill="#34343D"/>
<path d="M156.608 20.5676C156.231 20.3499 155.929 20.1321 155.703 19.8418C155.477 19.5515 155.326 19.1886 155.175 18.8257C154.949 18.0999 154.873 17.2289 154.873 16.4305C154.873 16.2128 154.873 15.995 154.873 15.7773C154.873 15.5595 154.873 15.3418 154.873 15.1966C154.873 14.8337 154.949 14.4708 154.949 14.1079C155.024 13.5273 155.099 13.0918 155.099 13.0918C155.099 13.0918 155.175 13.1644 155.326 13.3095C155.477 13.4547 155.627 13.6724 155.854 13.8902C156.08 14.1805 156.306 14.4708 156.457 14.7612C156.683 15.1241 156.909 15.487 157.06 15.8499C157.211 16.2853 157.362 16.6482 157.513 17.0837C157.588 17.5192 157.663 17.9547 157.663 18.3176C157.739 19.2611 157.362 20.0595 156.608 20.5676Z" fill="#34343D"/>
<path d="M150.273 20.1319C149.971 19.9141 149.669 19.6964 149.443 19.4786C149.217 19.2609 148.991 19.1157 148.764 18.898C148.614 18.7528 148.463 18.6077 148.312 18.4625C148.236 18.3899 148.161 18.3174 148.161 18.3174C148.161 18.3174 148.538 18.2448 149.141 18.1722C149.443 18.1722 149.745 18.0996 150.122 18.0996C150.499 18.0996 150.876 18.0996 151.328 18.1722C152.158 18.3174 152.987 18.5351 153.591 18.9706C153.892 19.1883 154.118 19.4786 154.345 19.769C154.495 20.0593 154.571 20.4222 154.571 20.8577C153.741 21.2206 152.912 21.148 152.233 21.0028C151.856 20.9303 151.554 20.7851 151.177 20.5674C150.876 20.4948 150.574 20.3496 150.273 20.1319Z" fill="#34343D"/>
<path d="M143.785 57.3658C146.65 56.2771 149.516 54.9706 151.929 53.0835C154.493 51.0513 156.302 48.2932 157.584 45.0996C159.168 41.398 160.299 37.5513 160.148 33.4867C159.997 30.0029 159.017 26.5916 157.509 23.398C156.227 20.8577 154.643 18.3174 152.683 16.0674C152.834 15.7771 152.834 15.4142 152.758 15.1238C152.683 14.7609 152.532 14.398 152.306 14.1077C151.853 13.4545 151.175 12.8738 150.42 12.5109C149.666 12.0754 148.912 11.8577 148.309 11.7126C148.007 11.64 147.781 11.5674 147.63 11.5674H147.404H147.329V11.64C147.329 11.64 147.329 11.7125 147.404 11.7851C147.48 11.9303 147.555 12.148 147.706 12.3658C147.932 12.8738 148.309 13.4545 148.761 14.1077C148.988 14.398 149.289 14.6884 149.516 14.9787L149.893 15.3416L149.893 15.3417C150.043 15.4868 150.194 15.6319 150.345 15.7045C150.647 15.8496 150.948 16.0674 151.325 16.14C151.552 16.2125 151.853 16.2126 152.155 16.2126C152.984 17.2287 153.814 18.2448 154.493 19.2609C157.283 23.2529 159.243 27.898 159.545 32.7609C159.771 36.9706 158.791 40.89 157.132 44.7367C156.302 46.769 155.247 48.7287 153.738 50.398C152.23 52.0674 150.42 53.3738 148.46 54.4625C144.689 56.4948 139.185 58.8174 133.981 60.4867L135.414 61.14C138.431 59.7609 141.447 58.2367 143.785 57.3658Z" fill="#34343D"/>
<path d="M78.644 3.9043H79.8986V11.6498H78.644V3.9043Z" fill="#C5C5CB"/>
<path d="M84.2616 9.1949C84.2616 10.3949 83.2797 10.504 82.9525 10.504C82.1888 10.504 82.0797 9.7949 82.0797 9.41309V6.41309H80.8252V9.35854C80.8252 10.0676 81.0434 10.7222 81.4797 11.104C81.8616 11.4858 82.3525 11.6494 82.9525 11.6494C83.3888 11.6494 83.9343 11.5404 84.2616 11.2131V11.6494H85.5161V6.41309H84.2616V9.1949Z" fill="#C5C5CB"/>
<path d="M87.9704 4.50488H86.7158V6.41397H85.7886V7.61397H86.7158V11.6503H87.9704V7.61397H88.8977V6.41397H87.9704V4.50488Z" fill="#C5C5CB"/>
<path d="M92.8243 10.0673C92.5516 10.2855 92.1698 10.4492 91.788 10.4492C90.9152 10.4492 90.3152 9.79462 90.3152 8.92189C90.3152 8.04916 90.9152 7.44916 91.788 7.44916C92.1698 7.44916 92.5516 7.55826 92.8243 7.83098L92.988 7.99462L93.8607 7.17644L93.6425 7.0128C93.1516 6.57644 92.4971 6.30371 91.788 6.30371C90.2607 6.30371 89.1152 7.44916 89.1152 8.97644C89.1152 10.5037 90.2607 11.6492 91.788 11.6492C92.4971 11.6492 93.1516 11.3764 93.6425 10.9401L93.8607 10.7764L92.988 9.90371L92.8243 10.0673Z" fill="#C5C5CB"/>
<path d="M98.2772 6.84975C97.8953 6.46793 97.5135 6.3043 96.9135 6.3043C96.4772 6.3043 96.0408 6.41339 95.7135 6.74066V3.9043H94.459V11.6498H95.7135V8.75884C95.7135 7.55884 96.5317 7.44975 96.859 7.44975C97.6226 7.44975 97.5681 8.15884 97.5681 8.54066V11.5952H98.8226V8.59521C98.8226 7.88612 98.659 7.23157 98.2772 6.84975Z" fill="#C5C5CB"/>
<path d="M91.7341 9.84995C92.216 9.84995 92.6068 9.45921 92.6068 8.97722C92.6068 8.49523 92.216 8.10449 91.7341 8.10449C91.2521 8.10449 90.8613 8.49523 90.8613 8.97722C90.8613 9.45921 91.2521 9.84995 91.7341 9.84995Z" fill="#AEAEB7"/>
<path d="M76.8972 9.74074C76.4608 10.1771 75.8063 10.4498 75.0972 10.4498C73.7336 10.4498 72.7518 9.35893 72.7518 7.8862C72.7518 6.41347 73.7336 5.32256 75.1518 5.32256C75.8063 5.32256 76.4608 5.59529 76.9518 6.0862L77.1154 6.24983L77.9336 5.43165L77.7699 5.26802C77.0608 4.55892 76.1336 4.17711 75.1518 4.17711C73.079 4.12256 71.5518 5.75892 71.5518 7.8862C71.5518 10.0135 73.079 11.6498 75.0972 11.6498C76.079 11.6498 77.0608 11.268 77.7154 10.5589L77.879 10.3953L77.0608 9.57711L76.8972 9.74074Z" fill="#C5C5CB"/>
</svg>
