<svg width="172" height="66" viewBox="0 0 172 66" fill="none" xmlns="http://www.w3.org/2000/svg">
<path d="M52.6051 31V20.8182H54.1413V25.2429H59.2173V20.8182H60.7585V31H59.2173V26.5604H54.1413V31H52.6051ZM65.533 31.1541C64.8171 31.1541 64.1923 30.9901 63.6587 30.6619C63.1251 30.3338 62.7108 29.8748 62.4158 29.2848C62.1208 28.6948 61.9733 28.0054 61.9733 27.2166C61.9733 26.4245 62.1208 25.7318 62.4158 25.1385C62.7108 24.5452 63.1251 24.0845 63.6587 23.7564C64.1923 23.4283 64.8171 23.2642 65.533 23.2642C66.2489 23.2642 66.8737 23.4283 67.4073 23.7564C67.9409 24.0845 68.3552 24.5452 68.6502 25.1385C68.9452 25.7318 69.0926 26.4245 69.0926 27.2166C69.0926 28.0054 68.9452 28.6948 68.6502 29.2848C68.3552 29.8748 67.9409 30.3338 67.4073 30.6619C66.8737 30.9901 66.2489 31.1541 65.533 31.1541ZM65.538 29.9062C66.002 29.9062 66.3864 29.7836 66.6914 29.5384C66.9963 29.2931 67.2217 28.9666 67.3675 28.5589C67.5166 28.1513 67.5912 27.7022 67.5912 27.2116C67.5912 26.7244 67.5166 26.277 67.3675 25.8693C67.2217 25.4583 66.9963 25.1286 66.6914 24.88C66.3864 24.6314 66.002 24.5071 65.538 24.5071C65.0706 24.5071 64.6828 24.6314 64.3746 24.88C64.0697 25.1286 63.8426 25.4583 63.6935 25.8693C63.5477 26.277 63.4747 26.7244 63.4747 27.2116C63.4747 27.7022 63.5477 28.1513 63.6935 28.5589C63.8426 28.9666 64.0697 29.2931 64.3746 29.5384C64.6828 29.7836 65.0706 29.9062 65.538 29.9062ZM71.6784 26.4659V31H70.1919V23.3636H71.6188V24.6065H71.7132C71.8889 24.2022 72.164 23.8774 72.5385 23.6321C72.9163 23.3868 73.392 23.2642 73.9653 23.2642C74.4857 23.2642 74.9414 23.3736 75.3325 23.5923C75.7236 23.8078 76.0269 24.1293 76.2423 24.5568C76.4578 24.9844 76.5655 25.513 76.5655 26.1428V31H75.079V26.3217C75.079 25.7682 74.9348 25.3357 74.6465 25.0241C74.3581 24.7093 73.962 24.5518 73.4582 24.5518C73.1135 24.5518 72.807 24.6264 72.5385 24.7756C72.2733 24.9247 72.0629 25.1435 71.9071 25.4318C71.7546 25.7169 71.6784 26.0616 71.6784 26.4659ZM81.2157 31.1541C80.4998 31.1541 79.875 30.9901 79.3414 30.6619C78.8078 30.3338 78.3935 29.8748 78.0985 29.2848C77.8035 28.6948 77.6561 28.0054 77.6561 27.2166C77.6561 26.4245 77.8035 25.7318 78.0985 25.1385C78.3935 24.5452 78.8078 24.0845 79.3414 23.7564C79.875 23.4283 80.4998 23.2642 81.2157 23.2642C81.9316 23.2642 82.5564 23.4283 83.09 23.7564C83.6236 24.0845 84.0379 24.5452 84.3329 25.1385C84.6279 25.7318 84.7754 26.4245 84.7754 27.2166C84.7754 28.0054 84.6279 28.6948 84.3329 29.2848C84.0379 29.8748 83.6236 30.3338 83.09 30.6619C82.5564 30.9901 81.9316 31.1541 81.2157 31.1541ZM81.2207 29.9062C81.6847 29.9062 82.0692 29.7836 82.3741 29.5384C82.679 29.2931 82.9044 28.9666 83.0502 28.5589C83.1994 28.1513 83.274 27.7022 83.274 27.2116C83.274 26.7244 83.1994 26.277 83.0502 25.8693C82.9044 25.4583 82.679 25.1286 82.3741 24.88C82.0692 24.6314 81.6847 24.5071 81.2207 24.5071C80.7534 24.5071 80.3656 24.6314 80.0573 24.88C79.7524 25.1286 79.5254 25.4583 79.3762 25.8693C79.2304 26.277 79.1575 26.7244 79.1575 27.2116C79.1575 27.7022 79.2304 28.1513 79.3762 28.5589C79.5254 28.9666 79.7524 29.2931 80.0573 29.5384C80.3656 29.7836 80.7534 29.9062 81.2207 29.9062ZM85.8746 31V23.3636H87.3114V24.5767H87.391C87.5302 24.1657 87.7754 23.8426 88.1268 23.6072C88.4814 23.3686 88.8825 23.2493 89.3299 23.2493C89.4227 23.2493 89.5321 23.2526 89.658 23.2592C89.7873 23.2659 89.8884 23.2741 89.9613 23.2841V24.706C89.9016 24.6894 89.7956 24.6712 89.6431 24.6513C89.4906 24.6281 89.3382 24.6165 89.1857 24.6165C88.8344 24.6165 88.5212 24.6911 88.2461 24.8402C87.9743 24.986 87.7589 25.1899 87.5998 25.4517C87.4407 25.7102 87.3612 26.0052 87.3612 26.3366V31H85.8746ZM92.8416 31.169C92.3577 31.169 91.9202 31.0795 91.5291 30.9006C91.138 30.7183 90.8281 30.4548 90.5994 30.1101C90.3741 29.7654 90.2614 29.3428 90.2614 28.8423C90.2614 28.4115 90.3442 28.0568 90.51 27.7784C90.6757 27.5 90.8994 27.2796 91.1811 27.1172C91.4628 26.9548 91.7777 26.8321 92.1257 26.7493C92.4737 26.6664 92.8284 26.6035 93.1896 26.5604C93.647 26.5073 94.0182 26.4643 94.3033 26.4311C94.5883 26.3946 94.7955 26.3366 94.9247 26.2571C95.054 26.1776 95.1186 26.0483 95.1186 25.8693V25.8345C95.1186 25.4003 94.996 25.0639 94.7507 24.8253C94.5088 24.5866 94.1475 24.4673 93.6669 24.4673C93.1664 24.4673 92.772 24.5784 92.4837 24.8004C92.1986 25.0192 92.0014 25.2628 91.8921 25.5312L90.495 25.2131C90.6608 24.7491 90.9027 24.3745 91.2209 24.0895C91.5424 23.8011 91.9119 23.5923 92.3296 23.4631C92.7472 23.3305 93.1863 23.2642 93.647 23.2642C93.952 23.2642 94.2751 23.3007 94.6165 23.3736C94.9612 23.4432 95.2827 23.5724 95.581 23.7614C95.8826 23.9503 96.1295 24.2204 96.3217 24.5717C96.514 24.9197 96.6101 25.3722 96.6101 25.929V31H95.1584V29.956H95.0987C95.0026 30.1482 94.8584 30.3371 94.6662 30.5227C94.474 30.7083 94.2271 30.8625 93.9254 30.9851C93.6238 31.1077 93.2626 31.169 92.8416 31.169ZM93.1648 29.9759C93.5758 29.9759 93.9271 29.8946 94.2188 29.7322C94.5137 29.5698 94.7375 29.3577 94.8899 29.0959C95.0457 28.8307 95.1236 28.5473 95.1236 28.2457V27.2614C95.0706 27.3144 94.9678 27.3641 94.8154 27.4105C94.6662 27.4536 94.4955 27.4917 94.3033 27.5249C94.111 27.5547 93.9238 27.5829 93.7415 27.6094C93.5592 27.6326 93.4067 27.6525 93.2841 27.669C92.9958 27.7055 92.7323 27.7668 92.4936 27.853C92.2583 27.9392 92.0694 28.0634 91.9269 28.2259C91.7877 28.3849 91.7181 28.5971 91.7181 28.8622C91.7181 29.2301 91.8539 29.5085 92.1257 29.6974C92.3975 29.883 92.7439 29.9759 93.1648 29.9759ZM98.1494 31V20.8182H99.6359V24.6016H99.7253C99.8115 24.4425 99.9358 24.2585 100.098 24.0497C100.261 23.8409 100.486 23.6586 100.774 23.5028C101.063 23.3438 101.444 23.2642 101.918 23.2642C102.534 23.2642 103.084 23.42 103.568 23.7315C104.052 24.0431 104.432 24.4922 104.707 25.0788C104.985 25.6655 105.124 26.3714 105.124 27.1967C105.124 28.022 104.987 28.7296 104.712 29.3196C104.437 29.9062 104.059 30.3587 103.578 30.6768C103.098 30.9917 102.549 31.1491 101.933 31.1491C101.469 31.1491 101.089 31.0713 100.794 30.9155C100.503 30.7597 100.274 30.5774 100.108 30.3686C99.9424 30.1598 99.8148 29.9742 99.7253 29.8118H99.6011V31H98.1494ZM99.606 27.1818C99.606 27.7187 99.6839 28.1894 99.8397 28.5938C99.9955 28.9981 100.221 29.3146 100.516 29.5433C100.811 29.7687 101.172 29.8814 101.6 29.8814C102.044 29.8814 102.415 29.7637 102.713 29.5284C103.012 29.2898 103.237 28.9666 103.389 28.5589C103.545 28.1513 103.623 27.6922 103.623 27.1818C103.623 26.678 103.547 26.2256 103.394 25.8246C103.245 25.4235 103.02 25.107 102.718 24.875C102.42 24.643 102.047 24.527 101.6 24.527C101.169 24.527 100.804 24.638 100.506 24.8601C100.211 25.0821 99.9872 25.392 99.8347 25.7898C99.6823 26.1875 99.606 26.6515 99.606 27.1818ZM107.72 20.8182V31H106.234V20.8182H107.72ZM112.451 31.1541C111.699 31.1541 111.051 30.9934 110.507 30.6719C109.967 30.3471 109.549 29.8913 109.255 29.3047C108.963 28.7147 108.817 28.0237 108.817 27.2315C108.817 26.4493 108.963 25.7599 109.255 25.1634C109.549 24.5668 109.96 24.1011 110.487 23.7663C111.018 23.4316 111.638 23.2642 112.347 23.2642C112.778 23.2642 113.195 23.3355 113.6 23.478C114.004 23.6205 114.367 23.8442 114.688 24.1491C115.01 24.4541 115.263 24.8501 115.449 25.3374C115.635 25.8213 115.728 26.4096 115.728 27.1023V27.6293H109.657V26.5156H114.271C114.271 26.1245 114.191 25.7782 114.032 25.4766C113.873 25.1716 113.649 24.9313 113.361 24.7557C113.076 24.58 112.741 24.4922 112.357 24.4922C111.939 24.4922 111.575 24.5949 111.263 24.8004C110.955 25.0026 110.716 25.2678 110.547 25.5959C110.381 25.9207 110.299 26.2737 110.299 26.6548V27.5249C110.299 28.0353 110.388 28.4695 110.567 28.8274C110.749 29.1854 111.003 29.4588 111.328 29.6477C111.652 29.8333 112.032 29.9261 112.466 29.9261C112.748 29.9261 113.005 29.8864 113.237 29.8068C113.469 29.724 113.669 29.6013 113.838 29.4389C114.007 29.2765 114.137 29.076 114.226 28.8374L115.633 29.0909C115.52 29.5052 115.318 29.8681 115.027 30.1797C114.738 30.4879 114.375 30.7282 113.938 30.9006C113.504 31.0696 113.008 31.1541 112.451 31.1541ZM60.9799 36.8182H62.8442L66.0857 44.733H66.205L69.4465 36.8182H71.3109V47H69.8492V39.6321H69.7548L66.7519 46.9851H65.5389L62.536 39.6271H62.4415V47H60.9799V36.8182ZM76.1562 47.1541C75.4039 47.1541 74.7559 46.9934 74.2123 46.6719C73.6721 46.3471 73.2545 45.8913 72.9595 45.3047C72.6678 44.7147 72.522 44.0237 72.522 43.2315C72.522 42.4493 72.6678 41.7599 72.9595 41.1634C73.2545 40.5668 73.6655 40.1011 74.1925 39.7663C74.7228 39.4316 75.3425 39.2642 76.0518 39.2642C76.4827 39.2642 76.9003 39.3355 77.3047 39.478C77.709 39.6205 78.0719 39.8442 78.3934 40.1491C78.7149 40.4541 78.9685 40.8501 79.1541 41.3374C79.3397 41.8213 79.4325 42.4096 79.4325 43.1023V43.6293H73.3622V42.5156H77.9758C77.9758 42.1245 77.8963 41.7782 77.7372 41.4766C77.5781 41.1716 77.3544 40.9313 77.066 40.7557C76.781 40.58 76.4462 40.4922 76.0618 40.4922C75.6442 40.4922 75.2796 40.5949 74.968 40.8004C74.6598 41.0026 74.4211 41.2678 74.2521 41.5959C74.0864 41.9207 74.0035 42.2737 74.0035 42.6548V43.5249C74.0035 44.0353 74.093 44.4695 74.272 44.8274C74.4543 45.1854 74.7078 45.4588 75.0326 45.6477C75.3575 45.8333 75.737 45.9261 76.1711 45.9261C76.4529 45.9261 76.7097 45.8864 76.9417 45.8068C77.1737 45.724 77.3743 45.6013 77.5433 45.4389C77.7123 45.2765 77.8416 45.076 77.9311 44.8374L79.338 45.0909C79.2254 45.5052 79.0232 45.8681 78.7315 46.1797C78.4432 46.4879 78.0802 46.7282 77.6427 46.9006C77.2085 47.0696 76.713 47.1541 76.1562 47.1541ZM82.0083 42.4659V47H80.5218V39.3636H81.9487V40.6065H82.0431C82.2188 40.2022 82.4939 39.8774 82.8684 39.6321C83.2463 39.3868 83.7219 39.2642 84.2953 39.2642C84.8156 39.2642 85.2714 39.3736 85.6625 39.5923C86.0536 39.8078 86.3568 40.1293 86.5723 40.5568C86.7877 40.9844 86.8954 41.513 86.8954 42.1428V47H85.4089V42.3217C85.4089 41.7682 85.2647 41.3357 84.9764 41.0241C84.688 40.7093 84.292 40.5518 83.7882 40.5518C83.4435 40.5518 83.1369 40.6264 82.8684 40.7756C82.6033 40.9247 82.3928 41.1435 82.237 41.4318C82.0846 41.7169 82.0083 42.0616 82.0083 42.4659ZM91.8937 39.3636V40.5568H87.7225V39.3636H91.8937ZM88.8411 37.5341H90.3276V44.7578C90.3276 45.0462 90.3707 45.2633 90.4569 45.4091C90.543 45.5516 90.6541 45.6494 90.79 45.7024C90.9292 45.7521 91.08 45.777 91.2424 45.777C91.3617 45.777 91.4661 45.7687 91.5556 45.7521C91.6451 45.7356 91.7147 45.7223 91.7644 45.7124L92.0329 46.9403C91.9467 46.9735 91.824 47.0066 91.665 47.0398C91.5059 47.0762 91.307 47.0961 91.0684 47.0994C90.6773 47.1061 90.3127 47.0365 89.9746 46.8906C89.6365 46.7448 89.3631 46.5194 89.1543 46.2145C88.9455 45.9096 88.8411 45.5268 88.8411 45.0661V37.5341ZM92.978 47V39.3636H94.4645V47H92.978ZM93.7287 38.1854C93.4702 38.1854 93.2481 38.0992 93.0625 37.9268C92.8802 37.7512 92.7891 37.5424 92.7891 37.3004C92.7891 37.0552 92.8802 36.8464 93.0625 36.674C93.2481 36.4983 93.4702 36.4105 93.7287 36.4105C93.9872 36.4105 94.2076 36.4983 94.3899 36.674C94.5755 36.8464 94.6683 37.0552 94.6683 37.3004C94.6683 37.5424 94.5755 37.7512 94.3899 37.9268C94.2076 38.0992 93.9872 38.1854 93.7287 38.1854ZM99.121 47.1541C98.405 47.1541 97.7803 46.9901 97.2467 46.6619C96.713 46.3338 96.2987 45.8748 96.0038 45.2848C95.7088 44.6948 95.5613 44.0054 95.5613 43.2166C95.5613 42.4245 95.7088 41.7318 96.0038 41.1385C96.2987 40.5452 96.713 40.0845 97.2467 39.7564C97.7803 39.4283 98.405 39.2642 99.121 39.2642C99.8369 39.2642 100.462 39.4283 100.995 39.7564C101.529 40.0845 101.943 40.5452 102.238 41.1385C102.533 41.7318 102.681 42.4245 102.681 43.2166C102.681 44.0054 102.533 44.6948 102.238 45.2848C101.943 45.8748 101.529 46.3338 100.995 46.6619C100.462 46.9901 99.8369 47.1541 99.121 47.1541ZM99.1259 45.9062C99.5899 45.9062 99.9744 45.7836 100.279 45.5384C100.584 45.2931 100.81 44.9666 100.955 44.5589C101.105 44.1513 101.179 43.7022 101.179 43.2116C101.179 42.7244 101.105 42.277 100.955 41.8693C100.81 41.4583 100.584 41.1286 100.279 40.88C99.9744 40.6314 99.5899 40.5071 99.1259 40.5071C98.6586 40.5071 98.2708 40.6314 97.9626 40.88C97.6576 41.1286 97.4306 41.4583 97.2815 41.8693C97.1356 42.277 97.0627 42.7244 97.0627 43.2116C97.0627 43.7022 97.1356 44.1513 97.2815 44.5589C97.4306 44.9666 97.6576 45.2931 97.9626 45.5384C98.2708 45.7836 98.6586 45.9062 99.1259 45.9062ZM105.266 42.4659V47H103.78V39.3636H105.207V40.6065H105.301C105.477 40.2022 105.752 39.8774 106.126 39.6321C106.504 39.3868 106.98 39.2642 107.553 39.2642C108.074 39.2642 108.529 39.3736 108.921 39.5923C109.312 39.8078 109.615 40.1293 109.83 40.5568C110.046 40.9844 110.153 41.513 110.153 42.1428V47H108.667V42.3217C108.667 41.7682 108.523 41.3357 108.234 41.0241C107.946 40.7093 107.55 40.5518 107.046 40.5518C106.702 40.5518 106.395 40.6264 106.126 40.7756C105.861 40.9247 105.651 41.1435 105.495 41.4318C105.343 41.7169 105.266 42.0616 105.266 42.4659Z" fill="#C5C5CB"/>
<g clip-path="url(#clip0_4310_61631)">
<path d="M63.8329 7.37056C63.9867 6.57107 64.6939 6.01758 65.6779 6.01758C66.8156 6.01758 67.7074 6.50957 67.7074 8.04705V10.9068H66.7234L66.6004 10.2918C66.2621 10.7223 65.8009 10.999 65.1244 10.999C64.2942 10.999 63.6484 10.4763 63.6484 9.52302C63.6484 8.56979 64.5094 7.9548 65.7087 7.9548H66.5081V7.73955C66.5081 7.18606 66.1084 7.03231 65.6472 7.03231C65.3089 7.03231 64.9707 7.15531 64.8169 7.5858L63.8329 7.37056ZM65.4012 9.98427C65.9547 9.98427 66.5081 9.61527 66.5081 9.00028V8.90803H65.7394C65.2167 8.87728 64.9092 9.09253 64.9092 9.52302C64.9092 9.73827 65.0937 9.98427 65.4012 9.98427Z" fill="#C5C5CB"/>
<path d="M87.0199 7.37056C87.1737 6.57107 87.8809 6.01758 88.8649 6.01758C90.0026 6.01758 90.8944 6.50957 90.8944 8.04705V10.9068H89.9104L89.7874 10.2918C89.4492 10.7223 88.9879 10.999 88.3114 10.999C87.4812 10.999 86.8354 10.4763 86.8354 9.52302C86.8354 8.56979 87.6964 7.9548 88.8957 7.9548H89.6952V7.73955C89.6952 7.18606 89.2954 7.03231 88.8342 7.03231C88.4959 7.03231 88.1577 7.15531 88.0039 7.5858L87.0199 7.37056ZM88.5882 9.98427C89.1417 9.98427 89.6952 9.61527 89.6952 9.00028V8.90803H88.8957C88.3729 8.90803 88.0654 9.09253 88.0654 9.52302C88.0962 9.73827 88.2807 9.98427 88.5882 9.98427Z" fill="#C5C5CB"/>
<path d="M91.9707 10.9375V6.07908H93.1699V6.87856C93.5082 6.29432 94.0617 6.01758 94.5844 6.01758C94.7997 6.01758 94.9842 6.04833 95.1687 6.10983L94.9534 7.21681C94.7997 7.12456 94.6459 7.06306 94.4614 7.06306C93.7542 7.06306 93.1699 7.6473 93.1699 9.18478V10.9068L91.9707 10.9375Z" fill="#C5C5CB"/>
<path d="M97.7184 6.0183C98.2104 6.0183 98.6716 6.2643 98.8869 6.54104V4.14258H100.086V10.9382H98.8869V10.4462C98.7331 10.6922 98.3026 11.0305 97.7184 11.0305C96.2731 11.0305 95.5352 10.0157 95.5352 8.53976C95.5352 7.06378 96.2731 6.0183 97.7184 6.0183ZM97.9029 9.98499C98.5179 9.98499 99.0099 9.46225 99.0099 8.50901C99.0099 7.55577 98.5179 7.03303 97.9029 7.03303C97.2879 7.03303 96.7959 7.55577 96.7959 8.50901C96.7959 9.46225 97.2879 9.98499 97.9029 9.98499Z" fill="#C5C5CB"/>
<path d="M104.391 6.78727L103.684 7.43301C103.469 7.12551 103.131 7.00251 102.885 7.00251C102.639 7.00251 102.423 7.15626 102.423 7.40226C102.423 7.61751 102.608 7.77125 102.885 7.8635C103.561 8.1095 104.637 8.32474 104.637 9.33948C104.637 10.2312 103.961 10.9385 102.915 10.9385C101.901 10.9385 101.224 10.2312 101.009 9.64697L101.962 9.12423C102.147 9.58548 102.454 9.92372 102.946 9.92372C103.315 9.92372 103.561 9.73922 103.561 9.40098C103.561 9.00123 102.946 8.90899 102.362 8.66299C101.839 8.44774 101.378 8.1095 101.378 7.37151C101.378 6.63352 101.993 5.95703 102.915 5.95703C103.53 5.98778 104.114 6.32603 104.391 6.78727Z" fill="#C5C5CB"/>
<path d="M79.6065 6.0791L78.7455 9.4308L77.9153 6.0791H76.8083L76.0088 9.4308L75.3323 7.49358L75.2401 7.70883L74.8711 8.96956L75.4861 10.9375H76.5316L77.3618 7.80107L78.192 10.9375H79.2683L80.8058 6.0791H79.6065Z" fill="#C5C5CB"/>
<path d="M85.3575 6.0791L84.4965 9.4308L83.6663 6.0791H82.5593L81.7598 9.4308L81.0833 7.49358L80.9911 7.70883L80.5913 8.96956L81.237 10.9375H82.2825L83.1128 7.80107L83.943 10.9375H84.9885L86.5567 6.0791H85.3575Z" fill="#C5C5CB"/>
<path d="M75.0588 6.0791L73.5213 10.9068H72.4759L71.6456 7.80107L70.8154 10.9375H69.7699L68.2324 6.10985H69.4317L70.2926 9.4308L71.1229 6.10985H72.2299L73.0601 9.4308L73.9211 6.10985L75.0588 6.0791Z" fill="#C5C5CB"/>
<path d="M106.207 9.37012C106.668 9.37012 107.007 9.70836 107.007 10.1696C107.007 10.6308 106.668 10.9691 106.207 10.9691C105.746 10.9691 105.408 10.6308 105.408 10.1696C105.408 9.70836 105.746 9.37012 106.207 9.37012Z" fill="#C5C5CB"/>
</g>
<path d="M62.0385 63H61.3397L62.91 58.6364H63.6706L65.2409 63H64.5421L63.3084 59.429H63.2743L62.0385 63ZM62.1557 61.2912H64.4228V61.8452H62.1557V61.2912ZM65.9393 63L64.9762 59.7273H65.6346L66.276 62.1307H66.3079L66.9514 59.7273H67.6098L68.249 62.12H68.2809L68.918 59.7273H69.5764L68.6154 63H67.9656L67.3008 60.6371H67.2518L66.587 63H65.9393ZM70.7105 63L69.7474 59.7273H70.4058L71.0471 62.1307H71.0791L71.7226 59.7273H72.3809L73.0201 62.12H73.0521L73.6892 59.7273H74.3476L73.3866 63H72.7368L72.072 60.6371H72.023L71.3582 63H70.7105ZM75.4817 63L74.5186 59.7273H75.177L75.8183 62.1307H75.8503L76.4937 59.7273H77.1521L77.7913 62.12H77.8233L78.4603 59.7273H79.1187L78.1578 63H77.5079L76.8432 60.6371H76.7942L76.1294 63H75.4817ZM80.4957 63.0724C80.2883 63.0724 80.1008 63.0341 79.9332 62.9574C79.7656 62.8793 79.6328 62.7663 79.5348 62.6186C79.4382 62.4709 79.3899 62.2898 79.3899 62.0753C79.3899 61.8906 79.4254 61.7386 79.4964 61.6193C79.5675 61.5 79.6633 61.4055 79.7841 61.3359C79.9048 61.2663 80.0398 61.2138 80.1889 61.1783C80.3381 61.1428 80.49 61.1158 80.6449 61.0973C80.8409 61.0746 81 61.0561 81.1221 61.0419C81.2443 61.0263 81.3331 61.0014 81.3885 60.9673C81.4439 60.9332 81.4716 60.8778 81.4716 60.8011V60.7862C81.4716 60.6001 81.419 60.456 81.3139 60.3537C81.2102 60.2514 81.0554 60.2003 80.8494 60.2003C80.6349 60.2003 80.4659 60.2479 80.3423 60.343C80.2202 60.4368 80.1356 60.5412 80.0888 60.6562L79.49 60.5199C79.5611 60.321 79.6648 60.1605 79.8011 60.0384C79.9389 59.9148 80.0973 59.8253 80.2763 59.7699C80.4552 59.7131 80.6434 59.6847 80.8409 59.6847C80.9716 59.6847 81.1101 59.7003 81.2564 59.7315C81.4041 59.7614 81.5419 59.8168 81.6697 59.8977C81.799 59.9787 81.9048 60.0945 81.9872 60.245C82.0696 60.3942 82.1108 60.5881 82.1108 60.8267V63H81.4886V62.5526H81.4631C81.4219 62.6349 81.3601 62.7159 81.2777 62.7955C81.1953 62.875 81.0895 62.9411 80.9602 62.9936C80.8309 63.0462 80.6761 63.0724 80.4957 63.0724ZM80.6342 62.5611C80.8104 62.5611 80.9609 62.5263 81.0859 62.4567C81.2123 62.3871 81.3082 62.2962 81.3736 62.1839C81.4403 62.0703 81.4737 61.9489 81.4737 61.8196V61.3977C81.451 61.4205 81.4069 61.4418 81.3416 61.4616C81.2777 61.4801 81.2045 61.4964 81.1221 61.5107C81.0398 61.5234 80.9595 61.5355 80.8814 61.5469C80.8033 61.5568 80.7379 61.5653 80.6854 61.5724C80.5618 61.5881 80.4488 61.6143 80.3466 61.6513C80.2457 61.6882 80.1648 61.7415 80.1037 61.8111C80.044 61.8793 80.0142 61.9702 80.0142 62.0838C80.0142 62.2415 80.0724 62.3608 80.1889 62.4418C80.3054 62.5213 80.4538 62.5611 80.6342 62.5611ZM82.7793 63V59.7273H83.3951V60.2472H83.4292C83.4888 60.071 83.594 59.9325 83.7445 59.8317C83.8965 59.7294 84.0684 59.6783 84.2601 59.6783C84.2999 59.6783 84.3468 59.6797 84.4008 59.6825C84.4562 59.6854 84.4995 59.6889 84.5307 59.6932V60.3026C84.5052 60.2955 84.4597 60.2876 84.3944 60.2791C84.329 60.2692 84.2637 60.2642 84.1984 60.2642C84.0478 60.2642 83.9136 60.2962 83.7957 60.3601C83.6792 60.4226 83.5869 60.5099 83.5187 60.6222C83.4505 60.733 83.4164 60.8594 83.4164 61.0014V63H82.7793ZM86.01 63.0639C85.7458 63.0639 85.51 62.9964 85.3026 62.8615C85.0967 62.7251 84.9347 62.5312 84.8168 62.2798C84.7004 62.027 84.6421 61.7237 84.6421 61.37C84.6421 61.0163 84.7011 60.7138 84.819 60.4624C84.9383 60.2109 85.1016 60.0185 85.309 59.8849C85.5164 59.7514 85.7515 59.6847 86.0143 59.6847C86.2174 59.6847 86.3807 59.7188 86.5043 59.7869C86.6293 59.8537 86.7259 59.9318 86.7941 60.0213C86.8637 60.1108 86.9177 60.1896 86.956 60.2578H86.9944V58.6364H87.6315V63H87.0093V62.4908H86.956C86.9177 62.5604 86.8623 62.6399 86.7898 62.7294C86.7188 62.8189 86.6208 62.897 86.4958 62.9638C86.3708 63.0305 86.2089 63.0639 86.01 63.0639ZM86.1506 62.5206C86.3339 62.5206 86.4887 62.4723 86.6151 62.3757C86.743 62.2777 86.8396 62.142 86.9049 61.9688C86.9717 61.7955 87.005 61.5937 87.005 61.3636C87.005 61.1364 86.9724 60.9375 86.907 60.767C86.8417 60.5966 86.7458 60.4638 86.6194 60.3686C86.493 60.2734 86.3367 60.2259 86.1506 60.2259C85.9589 60.2259 85.7991 60.2756 85.6712 60.375C85.5434 60.4744 85.4468 60.6101 85.3815 60.782C85.3175 60.9538 85.2856 61.1477 85.2856 61.3636C85.2856 61.5824 85.3182 61.7791 85.3836 61.9538C85.4489 62.1286 85.5455 62.267 85.6734 62.3693C85.8026 62.4702 85.9617 62.5206 86.1506 62.5206ZM90.8131 60.5263L90.2357 60.6286C90.2116 60.5547 90.1732 60.4844 90.1207 60.4176C90.0695 60.3509 89.9999 60.2962 89.9119 60.2536C89.8238 60.2109 89.7137 60.1896 89.5816 60.1896C89.4012 60.1896 89.2506 60.2301 89.1299 60.3111C89.0092 60.3906 88.9488 60.4936 88.9488 60.62C88.9488 60.7294 88.9893 60.8175 89.0702 60.8842C89.1512 60.951 89.2819 61.0057 89.4623 61.0483L89.9822 61.1676C90.2833 61.2372 90.5077 61.3445 90.6555 61.4893C90.8032 61.6342 90.8771 61.8224 90.8771 62.054C90.8771 62.25 90.8202 62.4247 90.7066 62.5781C90.5944 62.7301 90.4374 62.8494 90.2357 62.9361C90.0354 63.0227 89.8032 63.0661 89.539 63.0661C89.1725 63.0661 88.8735 62.9879 88.642 62.8317C88.4104 62.674 88.2684 62.4503 88.2158 62.1605L88.8316 62.0668C88.87 62.2273 88.9488 62.3487 89.0681 62.4311C89.1874 62.5121 89.343 62.5526 89.5347 62.5526C89.7435 62.5526 89.9104 62.5092 90.0354 62.4226C90.1604 62.3345 90.2229 62.2273 90.2229 62.1009C90.2229 61.9986 90.1846 61.9126 90.1079 61.843C90.0326 61.7734 89.9168 61.7209 89.7606 61.6854L89.2066 61.5639C88.9012 61.4943 88.6754 61.3835 88.5291 61.2315C88.3842 61.0795 88.3117 60.8871 88.3117 60.6541C88.3117 60.4609 88.3657 60.2919 88.4737 60.147C88.5816 60.0021 88.7308 59.8892 88.9211 59.8082C89.1114 59.7259 89.3295 59.6847 89.5752 59.6847C89.9289 59.6847 90.2073 59.7614 90.4104 59.9148C90.6136 60.0668 90.7478 60.2706 90.8131 60.5263ZM92.2264 62.4034L92.1944 62.6357C92.1731 62.8061 92.1369 62.9837 92.0857 63.1683C92.036 63.3544 91.9842 63.527 91.9302 63.6861C91.8776 63.8452 91.8343 63.9716 91.8002 64.0653H91.3485C91.367 63.9773 91.3926 63.858 91.4252 63.7074C91.4579 63.5582 91.4899 63.3913 91.5211 63.2067C91.5524 63.022 91.5758 62.8338 91.5914 62.642L91.6127 62.4034H92.2264ZM94.2751 63V62.5227L95.7517 60.9929C95.9093 60.8267 96.0393 60.6811 96.1416 60.5561C96.2453 60.4297 96.3227 60.3097 96.3738 60.196C96.425 60.0824 96.4505 59.9616 96.4505 59.8338C96.4505 59.6889 96.4164 59.5639 96.3483 59.4588C96.2801 59.3523 96.187 59.2706 96.0691 59.2138C95.9512 59.1555 95.8184 59.1264 95.6707 59.1264C95.5144 59.1264 95.3781 59.1584 95.2616 59.2223C95.1451 59.2862 95.0556 59.3764 94.9931 59.4929C94.9306 59.6094 94.8994 59.7457 94.8994 59.902H94.2708C94.2708 59.6364 94.3319 59.4041 94.4541 59.2053C94.5762 59.0064 94.7438 58.8523 94.9569 58.7429C95.17 58.6321 95.4122 58.5767 95.6835 58.5767C95.9576 58.5767 96.1991 58.6314 96.4079 58.7408C96.6181 58.8487 96.7822 58.9964 96.9001 59.1839C97.018 59.37 97.0769 59.5803 97.0769 59.8146C97.0769 59.9766 97.0464 60.1349 96.9853 60.2898C96.9257 60.4446 96.8213 60.6172 96.6721 60.8075C96.523 60.9964 96.3156 61.2259 96.05 61.4957L95.1828 62.4034V62.4354H97.1473V63H94.2751ZM99.294 63.0724C98.9573 63.071 98.6697 62.9822 98.431 62.8061C98.1924 62.63 98.0099 62.3736 97.8835 62.0369C97.757 61.7003 97.6938 61.2947 97.6938 60.8203C97.6938 60.3473 97.757 59.9432 97.8835 59.608C98.0113 59.2727 98.1945 59.017 98.4332 58.8409C98.6732 58.6648 98.9602 58.5767 99.294 58.5767C99.6278 58.5767 99.914 58.6655 100.153 58.843C100.391 59.0192 100.574 59.2749 100.7 59.6101C100.828 59.9439 100.892 60.3473 100.892 60.8203C100.892 61.2962 100.829 61.7024 100.702 62.0391C100.576 62.3743 100.393 62.6307 100.155 62.8082C99.9161 62.9844 99.6292 63.0724 99.294 63.0724ZM99.294 62.5036C99.5894 62.5036 99.8202 62.3594 99.9864 62.071C100.154 61.7827 100.238 61.3658 100.238 60.8203C100.238 60.4581 100.2 60.152 100.123 59.902C100.048 59.6506 99.9388 59.4602 99.7968 59.331C99.6562 59.2003 99.4886 59.1349 99.294 59.1349C98.9999 59.1349 98.7691 59.2798 98.6015 59.5696C98.4339 59.8594 98.3494 60.2763 98.3479 60.8203C98.3479 61.1839 98.3856 61.4915 98.4609 61.7429C98.5376 61.9929 98.6462 62.1825 98.7869 62.3118C98.9275 62.4396 99.0965 62.5036 99.294 62.5036ZM101.468 63V62.5227L102.944 60.9929C103.102 60.8267 103.232 60.6811 103.334 60.5561C103.438 60.4297 103.515 60.3097 103.567 60.196C103.618 60.0824 103.643 59.9616 103.643 59.8338C103.643 59.6889 103.609 59.5639 103.541 59.4588C103.473 59.3523 103.38 59.2706 103.262 59.2138C103.144 59.1555 103.011 59.1264 102.863 59.1264C102.707 59.1264 102.571 59.1584 102.454 59.2223C102.338 59.2862 102.248 59.3764 102.186 59.4929C102.123 59.6094 102.092 59.7457 102.092 59.902H101.464C101.464 59.6364 101.525 59.4041 101.647 59.2053C101.769 59.0064 101.937 58.8523 102.15 58.7429C102.363 58.6321 102.605 58.5767 102.876 58.5767C103.15 58.5767 103.392 58.6314 103.601 58.7408C103.811 58.8487 103.975 58.9964 104.093 59.1839C104.211 59.37 104.27 59.5803 104.27 59.8146C104.27 59.9766 104.239 60.1349 104.178 60.2898C104.118 60.4446 104.014 60.6172 103.865 60.8075C103.716 60.9964 103.508 61.2259 103.243 61.4957L102.376 62.4034V62.4354H104.34V63H101.468ZM106.487 63.0597C106.194 63.0597 105.933 63.0092 105.703 62.9084C105.474 62.8075 105.293 62.6676 105.159 62.4886C105.027 62.3082 104.956 62.0994 104.946 61.8622H105.615C105.624 61.9915 105.667 62.1037 105.745 62.1989C105.825 62.2926 105.928 62.3651 106.056 62.4162C106.184 62.4673 106.326 62.4929 106.482 62.4929C106.654 62.4929 106.806 62.4631 106.938 62.4034C107.072 62.3437 107.176 62.2607 107.252 62.1541C107.327 62.0462 107.365 61.9219 107.365 61.7812C107.365 61.6349 107.327 61.5064 107.252 61.3956C107.178 61.2834 107.069 61.1953 106.926 61.1314C106.784 61.0675 106.612 61.0355 106.41 61.0355H106.041V60.4986H106.41C106.572 60.4986 106.714 60.4695 106.836 60.4112C106.96 60.353 107.056 60.272 107.126 60.1683C107.196 60.0632 107.23 59.9403 107.23 59.7997C107.23 59.6648 107.2 59.5476 107.139 59.4482C107.079 59.3473 106.994 59.2685 106.883 59.2116C106.774 59.1548 106.644 59.1264 106.495 59.1264C106.353 59.1264 106.22 59.1527 106.097 59.2053C105.975 59.2564 105.875 59.3303 105.798 59.4268C105.722 59.522 105.681 59.6364 105.675 59.7699H105.038C105.045 59.5341 105.115 59.3267 105.247 59.1477C105.38 58.9687 105.556 58.8288 105.775 58.728C105.994 58.6271 106.237 58.5767 106.504 58.5767C106.784 58.5767 107.025 58.6314 107.228 58.7408C107.433 58.8487 107.59 58.9929 107.701 59.1733C107.813 59.3537 107.869 59.5511 107.867 59.7656C107.869 60.0099 107.801 60.2173 107.663 60.3878C107.526 60.5582 107.345 60.6726 107.117 60.7308V60.7649C107.407 60.8089 107.632 60.924 107.791 61.1101C107.951 61.2962 108.031 61.527 108.029 61.8026C108.031 62.0426 107.964 62.2578 107.829 62.4482C107.696 62.6385 107.513 62.7884 107.281 62.8977C107.05 63.0057 106.785 63.0597 106.487 63.0597Z" fill="#AEAEB7"/>
<path d="M25.7595 58.3112C25.3825 58.0208 25.0054 57.8031 24.6284 57.6579C24.2513 57.5128 23.8743 57.4402 23.4218 57.4402C22.5923 57.3676 21.6874 57.5854 20.7825 57.7305C19.8776 57.9483 19.0481 58.166 18.4449 58.3837C17.8416 58.6015 17.3892 58.7466 17.3892 58.7466C17.3892 58.7466 17.7662 58.9644 18.4449 59.2547C19.0481 59.545 19.9531 59.8354 20.9334 59.9805C21.9137 60.1257 22.894 60.1257 23.7989 59.9079C24.7792 59.6902 25.5333 59.1821 25.7595 58.3112Z" fill="#34343D"/>
<path d="M23.1225 54.608C23.4996 55.3338 23.952 56.0596 24.6307 56.4951C24.9323 56.7128 25.3094 56.9305 25.6864 57.0031C26.0634 57.0757 26.5159 57.0757 26.8929 56.858C26.8929 55.987 26.6667 55.2612 26.2897 54.6805C25.9126 54.0999 25.3094 53.5193 24.7815 53.0838C24.1782 52.6483 23.6504 52.2854 23.1979 51.9951C22.7455 51.7047 22.4438 51.5596 22.4438 51.5596C22.4438 51.5596 22.4438 51.6321 22.4438 51.8499C22.4438 51.995 22.5193 52.2128 22.5193 52.5031C22.5947 53.0838 22.7455 53.8096 23.1225 54.608Z" fill="#34343D"/>
<path d="M16.7864 56.5686C17.6913 56.496 18.4453 56.2057 18.9732 55.4799C18.5208 54.7541 17.8421 54.3186 17.088 54.1009C16.3339 53.8831 15.3536 53.8105 14.4487 53.8105C13.5438 53.8105 12.6389 53.8105 11.9602 53.8105C11.2816 53.8105 10.8291 53.8105 10.8291 53.8105C10.8291 53.8105 10.9045 53.8831 11.0553 54.0283C11.2061 54.1734 11.4324 54.3912 11.734 54.6089C12.3373 55.0444 13.0913 55.5525 13.9962 55.988C14.9766 56.3509 15.9569 56.5686 16.7864 56.5686Z" fill="#34343D"/>
<path d="M18.4466 53.23C18.9744 53.8107 19.6531 54.2462 20.4826 54.1736C20.8596 53.3752 20.7842 52.5768 20.558 51.851C20.3318 51.1252 19.8793 50.472 19.5023 49.8913C19.0498 49.3107 18.6728 48.8752 18.2957 48.5123C18.1449 48.3671 17.9941 48.222 17.9187 48.0768C17.8433 48.0042 17.7679 47.9316 17.7679 47.9316C17.7679 47.9316 17.7679 48.0042 17.6925 48.1494C17.6171 48.2945 17.6171 48.5123 17.5417 48.8026C17.4663 49.3833 17.3908 50.1091 17.5417 50.9075C17.6925 51.7784 17.9941 52.5768 18.4466 53.23Z" fill="#34343D"/>
<path d="M7.73784 47.2054C7.13458 46.9876 6.68213 46.915 6.68213 46.915C6.68213 46.915 6.75752 46.9876 6.83293 47.2054C6.90834 47.3505 7.05916 47.5683 7.20997 47.8586C7.36079 48.1489 7.58703 48.4392 7.81326 48.8021C7.96407 48.9473 8.03948 49.165 8.1903 49.3102L8.26569 49.4554L8.41651 49.6005C8.49192 49.6731 8.56732 49.8183 8.64273 49.8908C9.39682 50.6892 10.3017 51.3425 11.1312 51.6328C12.0361 51.9231 12.8656 51.8505 13.6197 51.2699C13.3935 50.3989 12.941 49.8183 12.2624 49.3828C12.1115 49.2376 11.8853 49.165 11.7345 49.0199C11.5837 48.8747 11.3574 48.8021 11.1312 48.657C10.905 48.5118 10.7542 48.4392 10.5279 48.2941C10.3017 48.2215 10.1509 48.0763 9.92468 48.0037C9.1706 47.6408 8.34111 47.3505 7.73784 47.2054Z" fill="#34343D"/>
<path d="M13.8461 48.6571C14.0724 49.3829 14.6002 49.9636 15.4297 50.1813C16.033 49.5281 16.1838 48.7297 16.2592 48.0765C16.3346 47.3507 16.1838 46.6975 16.1084 46.1168C16.1084 45.8991 15.9576 45.4636 15.8822 45.1733C15.8067 44.8829 15.6559 44.5926 15.5805 44.3023C15.5051 44.0846 15.4297 43.8668 15.3543 43.7217C15.2789 43.5765 15.2789 43.5039 15.2789 43.5039C15.2789 43.5039 15.2035 43.5765 15.1281 43.7217C15.0527 43.8668 14.9018 44.0846 14.751 44.3023C14.4494 44.8104 14.1478 45.5362 13.9215 46.262C13.8461 46.4797 13.8461 46.6249 13.7707 46.8426C13.6953 47.0604 13.6953 47.2055 13.6953 47.4233C13.6953 47.641 13.6953 47.7862 13.6953 48.0039C13.6953 48.2942 13.7707 48.512 13.8461 48.6571Z" fill="#34343D"/>
<path d="M6.83408 44.2292C6.9849 44.3743 7.13572 44.5195 7.28654 44.6647C7.43736 44.8098 7.66359 44.955 7.81441 45.0276C8.56849 45.463 9.32256 45.6808 10.2275 45.3905C10.3029 44.955 10.3029 44.5921 10.1521 44.2292C10.0766 44.084 10.0012 43.8663 9.92583 43.7211C9.85043 43.5759 9.69961 43.4308 9.62421 43.213C9.17175 42.5598 8.41767 42.0518 7.73899 41.5437C7.06032 41.0356 6.30622 40.6001 5.70296 40.3098C5.09969 40.0195 4.72266 39.8018 4.72266 39.8018C4.72266 39.8018 4.72266 39.8743 4.79807 40.0921C4.87348 40.3098 4.94888 40.5276 5.02429 40.8179C5.25051 41.3985 5.55214 42.2695 6.08 42.9953C6.23082 43.5034 6.53245 43.8663 6.83408 44.2292Z" fill="#34343D"/>
<path d="M11.5077 43.867C11.6585 44.2299 11.9601 44.5202 12.2618 44.738C13.0159 44.3025 13.4683 43.6493 13.7699 42.9235C13.8453 42.7783 13.8453 42.5605 13.9207 42.4154C13.9207 42.3428 13.9207 42.1976 13.9962 42.1251C13.9962 42.0525 13.9962 41.9073 14.0716 41.8347C14.147 41.4718 14.147 41.1089 14.147 40.746C14.0716 40.0202 14.0716 39.367 13.9207 38.8589C13.8453 38.6412 13.8453 38.4235 13.7699 38.2783C13.7699 38.1331 13.6945 38.0605 13.6945 38.0605C13.6945 38.0605 13.6191 38.1331 13.4683 38.2783C13.3175 38.4235 13.1667 38.5686 13.0159 38.7864C12.6388 39.2218 12.1864 39.8751 11.8093 40.6009C11.4323 41.3267 11.2061 42.1251 11.2061 42.9235C11.2061 43.1412 11.206 43.2864 11.2814 43.5041C11.3569 43.5767 11.4323 43.7218 11.5077 43.867Z" fill="#34343D"/>
<path d="M5.24949 37.3352C5.32489 37.553 5.47571 37.6981 5.62653 37.9159C5.77734 38.061 5.92817 38.2788 6.07898 38.4239C6.68225 39.0046 7.43634 39.3675 8.34124 39.2223C8.49205 38.8594 8.56747 38.4239 8.49206 38.061C8.49206 37.8433 8.41664 37.6981 8.34124 37.4804C8.26583 37.3352 8.19043 37.1175 8.11502 36.9723C7.9642 36.6094 7.73798 36.2465 7.43635 35.9562C7.28553 35.811 7.13472 35.5933 7.05931 35.4481C6.90849 35.303 6.75767 35.1578 6.60685 34.9401C6.00358 34.2869 5.32489 33.7062 4.87244 33.2707C4.41999 32.8352 4.04297 32.5449 4.04297 32.5449C4.04297 32.5449 4.04297 32.9804 4.04297 33.6336C4.04297 33.9965 4.11836 34.3594 4.19377 34.7223C4.26918 34.9401 4.26919 35.1578 4.3446 35.3756C4.42001 35.5933 4.42 35.8111 4.57081 36.0288C4.87245 36.4643 5.09867 36.8998 5.24949 37.3352Z" fill="#34343D"/>
<path d="M10.5293 38.714C11.3588 38.4236 11.962 37.843 12.3391 37.2624C12.4145 37.1172 12.4899 36.972 12.5653 36.7543C12.6407 36.6091 12.7161 36.3914 12.7915 36.2462C12.9423 35.8833 13.0178 35.5204 13.0932 35.2301C13.1686 34.8672 13.244 34.5769 13.244 34.214C13.244 34.0688 13.244 33.9236 13.3194 33.7785C13.3194 33.6333 13.3194 33.4882 13.3194 33.4156C13.3948 32.9075 13.3948 32.6172 13.3948 32.6172C13.3948 32.6172 13.0932 32.7624 12.5653 33.1253C12.4145 33.1978 12.3391 33.2704 12.1883 33.4156C12.0374 33.4882 11.8866 33.6333 11.8112 33.7785C11.5096 33.9962 11.2833 34.2866 10.9817 34.5769C10.8309 34.722 10.7555 34.8672 10.6047 35.0849C10.5293 35.1575 10.4539 35.2301 10.4539 35.3753C10.3785 35.4478 10.3784 35.5204 10.303 35.6656C10.1522 36.0285 10.0014 36.3914 9.926 36.7543C9.926 36.972 9.85059 37.1172 9.85059 37.3349C9.85059 37.5527 9.926 37.6978 9.926 37.843C10.0768 38.0607 10.2276 38.4236 10.5293 38.714Z" fill="#34343D"/>
<path d="M7.36018 28.1903C7.13396 27.8274 6.90772 27.4645 6.7569 27.1016C6.53067 26.7387 6.30446 26.4484 6.15364 26.1581C5.7766 25.65 5.55038 25.2871 5.55038 25.2871C5.55038 25.2871 5.39955 25.7226 5.32414 26.3758C5.24873 26.6661 5.24875 27.1016 5.17334 27.4645C5.17334 27.6823 5.17334 27.9 5.17334 28.1177C5.17334 28.3355 5.17334 28.5532 5.17334 28.771C5.24875 29.2065 5.24874 29.6419 5.39956 30.0774C5.55037 30.5129 5.7012 30.9484 5.92742 31.2387C6.37988 31.9645 7.05854 32.4726 7.96344 32.5452C8.11426 32.4 8.18966 32.1823 8.26507 32.0371C8.34048 31.8919 8.41589 31.6742 8.41589 31.529C8.4913 31.1661 8.41589 30.8032 8.34048 30.4403C8.26507 30.0774 8.11426 29.6419 7.96344 29.279C7.81262 28.9887 7.58641 28.5532 7.36018 28.1903Z" fill="#34343D"/>
<path d="M12.2637 31.528C12.5653 31.2377 12.7915 31.02 12.9423 30.6571C13.1686 30.3667 13.3194 30.0764 13.4702 29.7135C13.5456 29.5684 13.621 29.4232 13.6964 29.278C13.7718 29.1329 13.8472 28.9877 13.9226 28.8425C14.0735 28.5522 14.1489 28.3345 14.2243 28.0442C14.3751 27.6087 14.4505 27.3184 14.4505 27.3184C14.4505 27.3184 14.0735 27.3909 13.5456 27.6087C13.0177 27.8264 12.3391 28.1167 11.6604 28.6248C11.5096 28.77 11.3588 28.8425 11.208 28.9877C11.0571 29.1329 10.9063 29.278 10.7555 29.4232C10.4539 29.7135 10.2276 30.0764 10.0768 30.3667C9.92601 30.7296 9.85059 31.0926 9.85059 31.4555C9.85059 31.6006 9.85059 31.8184 9.926 31.9635C10.0014 32.1087 10.0768 32.3264 10.1522 32.4716C11.0571 32.399 11.7358 32.0361 12.2637 31.528Z" fill="#34343D"/>
<path d="M9.62261 25.8671C9.77342 25.722 9.84883 25.5768 9.92423 25.3591C9.99964 25.2139 10.0751 24.9962 10.0751 24.851C10.0751 24.7058 10.1505 24.4881 10.1505 24.2703C10.1505 23.9074 10.1505 23.472 10.0751 23.0365C9.99965 22.601 9.92423 22.2381 9.84882 21.8026C9.6226 21.0042 9.39638 20.2058 9.17015 19.6252C8.94392 19.0445 8.79311 18.6816 8.79311 18.6816C8.79311 18.6816 8.71769 18.7542 8.64228 18.8994C8.56687 19.0445 8.41606 19.3349 8.26524 19.6252C7.96361 20.2058 7.66197 21.0042 7.51115 21.8752C7.43575 22.3107 7.36035 22.7462 7.36035 23.1816C7.36035 23.3994 7.36036 23.6171 7.43576 23.8349C7.43576 24.0526 7.51116 24.2703 7.58657 24.4881C7.73738 24.851 7.88822 25.2139 8.18985 25.5768C8.49148 25.8671 8.79311 26.1574 9.24556 26.3026C9.39638 26.23 9.5472 26.0849 9.62261 25.8671Z" fill="#34343D"/>
<path d="M16.788 22.7451C16.8634 22.5999 16.9388 22.5273 16.9388 22.5273C16.9388 22.5273 16.8634 22.5273 16.6372 22.5273C16.4864 22.5273 16.2602 22.5273 15.9585 22.5999C15.6569 22.5999 15.3553 22.6725 14.9782 22.7451C14.8274 22.8177 14.6012 22.8177 14.4504 22.8902C14.2996 22.9628 14.0733 23.0354 13.9225 23.108C13.5455 23.2532 13.1684 23.3983 12.7914 23.6161C12.4897 23.8338 12.1881 24.1241 11.8865 24.3419C11.7357 24.487 11.6603 24.6322 11.5849 24.7773C11.5094 24.9225 11.434 25.1402 11.3586 25.2854C11.2832 25.4306 11.2832 25.6483 11.2832 25.7935C11.2832 26.0112 11.3586 26.1564 11.3586 26.3741C11.8111 26.4467 12.1881 26.4467 12.5652 26.3741C12.9422 26.3015 13.3192 26.1564 13.6209 25.9386C13.7717 25.8661 13.9225 25.7209 14.0733 25.6483C14.1487 25.5757 14.2241 25.5032 14.2995 25.5032C14.3749 25.4306 14.4504 25.358 14.5258 25.358C14.8274 25.1402 15.0536 24.8499 15.2799 24.6322C15.5061 24.3419 15.7323 24.1241 15.8831 23.9064C15.9585 23.8338 15.9585 23.7612 16.0339 23.6886C16.1094 23.6161 16.1093 23.5435 16.1848 23.5435C16.2602 23.3983 16.3356 23.3257 16.411 23.2532C16.5618 23.0354 16.7126 22.8902 16.788 22.7451Z" fill="#34343D"/>
<path d="M12.1096 20.5686C12.4867 20.3508 12.7883 20.1331 13.0145 19.8428C13.2408 19.5525 13.3916 19.1895 13.5424 18.8266C13.7686 18.1008 13.844 17.2299 13.844 16.4315C13.844 16.2137 13.844 15.996 13.844 15.7783C13.844 15.5605 13.844 15.3428 13.844 15.1976C13.844 14.8347 13.7686 14.4718 13.7686 14.1089C13.6932 13.5283 13.6178 13.0928 13.6178 13.0928C13.6178 13.0928 13.5424 13.1654 13.3916 13.3105C13.2408 13.4557 13.0899 13.6734 12.8637 13.8912C12.6375 14.1815 12.4113 14.4718 12.2604 14.7621C12.0342 15.125 11.808 15.4879 11.6572 15.8508C11.5063 16.2863 11.3555 16.6492 11.2047 17.0847C11.1293 17.5202 11.0539 17.9557 11.0539 18.3186C10.9785 19.2621 11.3555 20.0605 12.1096 20.5686Z" fill="#34343D"/>
<path d="M18.4443 20.1328C18.7459 19.9151 19.0475 19.6974 19.2738 19.4796C19.5 19.2619 19.7262 19.1167 19.9524 18.899C20.1033 18.7538 20.2541 18.6087 20.4049 18.4635C20.4803 18.3909 20.5557 18.3183 20.5557 18.3183C20.5557 18.3183 20.1787 18.2458 19.5754 18.1732C19.2738 18.1732 18.9721 18.1006 18.5951 18.1006C18.218 18.1006 17.841 18.1006 17.3886 18.1732C16.5591 18.3183 15.7296 18.5361 15.1263 18.9716C14.8247 19.1893 14.5984 19.4796 14.3722 19.7699C14.2214 20.0603 14.146 20.4232 14.146 20.8587C14.9755 21.2216 15.805 21.149 16.4837 21.0038C16.8607 20.9312 17.1623 20.7861 17.5394 20.5683C17.841 20.4958 18.1426 20.3506 18.4443 20.1328Z" fill="#34343D"/>
<path d="M24.9323 57.3667C22.0668 56.278 19.2012 54.9716 16.7882 53.0845C14.2243 51.0522 12.4145 48.2942 11.1325 45.1006C9.54896 41.399 8.41784 37.5522 8.56866 33.4877C8.71947 30.0039 9.69978 26.5926 11.208 23.399C12.4899 20.8587 14.0735 18.3184 16.0341 16.0684C15.8833 15.778 15.8833 15.4151 15.9587 15.1248C16.0341 14.7619 16.1849 14.399 16.4111 14.1087C16.8636 13.4555 17.5423 12.8748 18.2963 12.5119C19.0504 12.0764 19.8045 11.8587 20.4078 11.7135C20.7094 11.6409 20.9356 11.5684 21.0864 11.5684H21.3127H21.3881V11.6409C21.3881 11.6409 21.3881 11.7135 21.3127 11.7861C21.2373 11.9313 21.1619 12.149 21.0111 12.3668C20.7848 12.8748 20.4078 13.4555 19.9553 14.1087C19.7291 14.399 19.4275 14.6893 19.2012 14.9797L18.8242 15.3426L18.8241 15.3427C18.6733 15.4878 18.5225 15.6329 18.3718 15.7055C18.0701 15.8506 17.7685 16.0684 17.3914 16.1409C17.1652 16.2135 16.8636 16.2135 16.5619 16.2135C15.7324 17.2297 14.903 18.2458 14.2243 19.2619C11.4342 23.2538 9.47355 27.899 9.17192 32.7619C8.94569 36.9716 9.92601 40.8909 11.585 44.7377C12.4145 46.77 13.4702 48.7296 14.9784 50.399C16.4865 52.0684 18.2963 53.3748 20.257 54.4635C24.0274 56.4958 29.5322 58.8184 34.7354 60.4877L33.3026 61.1409C30.2863 59.7619 27.2699 58.2377 24.9323 57.3667Z" fill="#34343D"/>
<path d="M142.961 58.3092C143.338 58.0189 143.715 57.8011 144.092 57.656C144.469 57.5108 144.846 57.4382 145.299 57.4382C146.128 57.3657 147.033 57.5834 147.938 57.7286C148.843 57.9463 149.673 58.164 150.276 58.3818C150.879 58.5995 151.332 58.7447 151.332 58.7447C151.332 58.7447 150.955 58.9624 150.276 59.2528C149.673 59.5431 148.768 59.8334 147.787 59.9786C146.807 60.1237 145.827 60.1237 144.922 59.906C143.942 59.6882 143.187 59.1802 142.961 58.3092Z" fill="#34343D"/>
<path d="M145.598 54.607C145.221 55.3328 144.768 56.0586 144.09 56.4941C143.788 56.7118 143.411 56.9296 143.034 57.0021C142.657 57.0747 142.204 57.0747 141.827 56.857C141.827 55.986 142.053 55.2602 142.431 54.6796C142.808 54.0989 143.411 53.5183 143.939 53.0828C144.542 52.6473 145.07 52.2844 145.522 51.9941C145.975 51.7038 146.276 51.5586 146.276 51.5586C146.276 51.5586 146.276 51.6312 146.276 51.8489C146.276 51.9941 146.201 52.2118 146.201 52.5021C146.126 53.0828 145.975 53.8086 145.598 54.607Z" fill="#34343D"/>
<path d="M151.935 56.5676C151.03 56.495 150.276 56.2047 149.748 55.4789C150.2 54.7531 150.879 54.3176 151.633 54.0999C152.387 53.8821 153.368 53.8096 154.272 53.8096C155.177 53.8096 156.082 53.8096 156.761 53.8096C157.44 53.8096 157.892 53.8096 157.892 53.8096C157.892 53.8096 157.817 53.8821 157.666 54.0273C157.515 54.1725 157.289 54.3902 156.987 54.608C156.384 55.0434 155.63 55.5515 154.725 55.987C153.745 56.3499 152.764 56.5676 151.935 56.5676Z" fill="#34343D"/>
<path d="M150.274 53.2291C149.746 53.8097 149.068 54.2452 148.238 54.1726C147.861 53.3742 147.936 52.5758 148.163 51.85C148.389 51.1242 148.841 50.471 149.218 49.8903C149.671 49.3097 150.048 48.8742 150.425 48.5113C150.576 48.3662 150.727 48.221 150.802 48.0758C150.877 48.0032 150.953 47.9307 150.953 47.9307C150.953 47.9307 150.953 48.0032 151.028 48.1484C151.104 48.2936 151.104 48.5113 151.179 48.8016C151.254 49.3823 151.33 50.1081 151.179 50.9065C151.028 51.7774 150.727 52.5758 150.274 53.2291Z" fill="#34343D"/>
<path d="M160.983 47.2044C161.586 46.9866 162.039 46.9141 162.039 46.9141C162.039 46.9141 161.963 46.9866 161.888 47.2044C161.812 47.3495 161.662 47.5673 161.511 47.8576C161.36 48.1479 161.134 48.4382 160.907 48.8012C160.757 48.9463 160.681 49.1641 160.53 49.3092L160.455 49.4544L160.304 49.5995C160.229 49.6721 160.153 49.8173 160.078 49.8899C159.324 50.6882 158.419 51.3415 157.589 51.6318C156.685 51.9221 155.855 51.8495 155.101 51.2689C155.327 50.3979 155.78 49.8173 156.458 49.3818C156.609 49.2366 156.835 49.1641 156.986 49.0189C157.137 48.8737 157.363 48.8012 157.589 48.656C157.816 48.5108 157.967 48.4383 158.193 48.2931C158.419 48.2205 158.57 48.0754 158.796 48.0028C159.55 47.6399 160.38 47.3495 160.983 47.2044Z" fill="#34343D"/>
<path d="M154.875 48.6562C154.648 49.382 154.12 49.9626 153.291 50.1804C152.688 49.5271 152.537 48.7287 152.462 48.0755C152.386 47.3497 152.537 46.6965 152.612 46.1158C152.612 45.8981 152.763 45.4626 152.839 45.1723C152.914 44.882 153.065 44.5916 153.14 44.3013C153.216 44.0836 153.291 43.8658 153.366 43.7207C153.442 43.5755 153.442 43.5029 153.442 43.5029C153.442 43.5029 153.517 43.5755 153.593 43.7207C153.668 43.8658 153.819 44.0836 153.97 44.3013C154.271 44.8094 154.573 45.5352 154.799 46.261C154.875 46.4787 154.875 46.6239 154.95 46.8416C155.025 47.0594 155.025 47.2045 155.025 47.4223C155.025 47.64 155.025 47.7852 155.025 48.0029C155.025 48.2933 154.95 48.511 154.875 48.6562Z" fill="#34343D"/>
<path d="M161.887 44.2282C161.736 44.3734 161.585 44.5185 161.435 44.6637C161.284 44.8088 161.058 44.954 160.907 45.0266C160.153 45.4621 159.399 45.6798 158.494 45.3895C158.418 44.954 158.418 44.5911 158.569 44.2282C158.645 44.083 158.72 43.8653 158.795 43.7201C158.871 43.575 159.022 43.4298 159.097 43.2121C159.549 42.5588 160.304 42.0508 160.982 41.5427C161.661 41.0346 162.415 40.5992 163.018 40.3088C163.622 40.0185 163.999 39.8008 163.999 39.8008C163.999 39.8008 163.999 39.8734 163.923 40.0911C163.848 40.3088 163.772 40.5266 163.697 40.8169C163.471 41.3976 163.169 42.2685 162.641 42.9943C162.49 43.5024 162.189 43.8653 161.887 44.2282Z" fill="#34343D"/>
<path d="M157.213 43.865C157.062 44.2279 156.761 44.5183 156.459 44.736C155.705 44.3005 155.252 43.6473 154.951 42.9215C154.875 42.7763 154.875 42.5586 154.8 42.4134C154.8 42.3409 154.8 42.1957 154.725 42.1231C154.725 42.0505 154.725 41.9054 154.649 41.8328C154.574 41.4699 154.574 41.107 154.574 40.7441C154.649 40.0183 154.649 39.365 154.8 38.857C154.875 38.6392 154.875 38.4215 154.951 38.2763C154.951 38.1312 155.026 38.0586 155.026 38.0586C155.026 38.0586 155.102 38.1312 155.252 38.2763C155.403 38.4215 155.554 38.5667 155.705 38.7844C156.082 39.2199 156.534 39.8731 156.911 40.5989C157.288 41.3247 157.515 42.1231 157.515 42.9215C157.515 43.1392 157.515 43.2844 157.439 43.5021C157.364 43.5747 157.288 43.7199 157.213 43.865Z" fill="#34343D"/>
<path d="M163.471 37.3343C163.396 37.552 163.245 37.6972 163.094 37.9149C162.943 38.0601 162.793 38.2778 162.642 38.423C162.038 39.0036 161.284 39.3665 160.379 39.2214C160.229 38.8585 160.153 38.423 160.229 38.0601C160.229 37.8423 160.304 37.6972 160.379 37.4794C160.455 37.3343 160.53 37.1165 160.606 36.9714C160.756 36.6085 160.983 36.2456 161.284 35.9552C161.435 35.8101 161.586 35.5923 161.661 35.4472C161.812 35.302 161.963 35.1569 162.114 34.9391C162.717 34.2859 163.396 33.7052 163.848 33.2698C164.301 32.8343 164.678 32.5439 164.678 32.5439C164.678 32.5439 164.678 32.9794 164.678 33.6327C164.678 33.9956 164.602 34.3585 164.527 34.7214C164.452 34.9391 164.452 35.1568 164.376 35.3746C164.301 35.5923 164.301 35.8101 164.15 36.0278C163.848 36.4633 163.622 36.8988 163.471 37.3343Z" fill="#34343D"/>
<path d="M158.191 38.713C157.362 38.4227 156.759 37.842 156.382 37.2614C156.306 37.1162 156.231 36.9711 156.155 36.7533C156.08 36.6082 156.005 36.3904 155.929 36.2452C155.778 35.8823 155.703 35.5194 155.628 35.2291C155.552 34.8662 155.477 34.5759 155.477 34.213C155.477 34.0678 155.477 33.9227 155.401 33.7775C155.401 33.6323 155.401 33.4872 155.401 33.4146C155.326 32.9065 155.326 32.6162 155.326 32.6162C155.326 32.6162 155.628 32.7614 156.155 33.1243C156.306 33.1969 156.382 33.2694 156.532 33.4146C156.683 33.4872 156.834 33.6323 156.909 33.7775C157.211 33.9952 157.437 34.2856 157.739 34.5759C157.89 34.7211 157.965 34.8662 158.116 35.084C158.191 35.1565 158.267 35.2291 158.267 35.3743C158.342 35.4469 158.342 35.5194 158.418 35.6646C158.568 36.0275 158.719 36.3904 158.795 36.7533C158.795 36.9711 158.87 37.1162 158.87 37.334C158.87 37.5517 158.795 37.6969 158.795 37.842C158.644 38.0598 158.493 38.4227 158.191 38.713Z" fill="#34343D"/>
<path d="M161.361 28.1884C161.587 27.8255 161.813 27.4626 161.964 27.0997C162.19 26.7368 162.416 26.4464 162.567 26.1561C162.944 25.6481 163.17 25.2852 163.17 25.2852C163.17 25.2852 163.321 25.7206 163.397 26.3739C163.472 26.6642 163.472 27.0997 163.547 27.4626C163.547 27.6803 163.547 27.8981 163.547 28.1158C163.547 28.3335 163.547 28.5513 163.547 28.769C163.472 29.2045 163.472 29.64 163.321 30.0755C163.17 30.511 163.02 30.9464 162.793 31.2368C162.341 31.9626 161.662 32.4706 160.757 32.5432C160.606 32.3981 160.531 32.1803 160.456 32.0352C160.38 31.89 160.305 31.6722 160.305 31.5271C160.229 31.1642 160.305 30.8013 160.38 30.4384C160.456 30.0755 160.606 29.64 160.757 29.2771C160.908 28.9868 161.134 28.5513 161.361 28.1884Z" fill="#34343D"/>
<path d="M156.457 31.5271C156.155 31.2367 155.929 31.019 155.778 30.6561C155.552 30.3658 155.401 30.0754 155.25 29.7125C155.175 29.5674 155.1 29.4222 155.024 29.2771C154.949 29.1319 154.873 28.9867 154.798 28.8416C154.647 28.5512 154.572 28.3335 154.496 28.0432C154.346 27.6077 154.27 27.3174 154.27 27.3174C154.27 27.3174 154.647 27.39 155.175 27.6077C155.703 27.8254 156.382 28.1158 157.06 28.6238C157.211 28.769 157.362 28.8416 157.513 28.9867C157.664 29.1319 157.814 29.2771 157.965 29.4222C158.267 29.7125 158.493 30.0754 158.644 30.3658C158.795 30.7287 158.87 31.0916 158.87 31.4545C158.87 31.5996 158.87 31.8174 158.795 31.9625C158.719 32.1077 158.644 32.3254 158.568 32.4706C157.664 32.398 156.985 32.0351 156.457 31.5271Z" fill="#34343D"/>
<path d="M159.099 25.8662C158.948 25.721 158.872 25.5758 158.797 25.3581C158.722 25.2129 158.646 24.9952 158.646 24.85C158.646 24.7049 158.571 24.4871 158.571 24.2694C158.571 23.9065 158.571 23.471 158.646 23.0355C158.722 22.6 158.797 22.2371 158.872 21.8016C159.099 21.0032 159.325 20.2049 159.551 19.6242C159.777 19.0436 159.928 18.6807 159.928 18.6807C159.928 18.6807 160.004 18.7532 160.079 18.8984C160.154 19.0436 160.305 19.3339 160.456 19.6242C160.758 20.2049 161.059 21.0033 161.21 21.8742C161.285 22.3097 161.361 22.7452 161.361 23.1807C161.361 23.3984 161.361 23.6162 161.285 23.8339C161.285 24.0516 161.21 24.2694 161.135 24.4871C160.984 24.85 160.833 25.2129 160.531 25.5758C160.23 25.8661 159.928 26.1565 159.476 26.3016C159.325 26.2291 159.174 26.0839 159.099 25.8662Z" fill="#34343D"/>
<path d="M151.933 22.7441C151.858 22.599 151.782 22.5264 151.782 22.5264C151.782 22.5264 151.858 22.5264 152.084 22.5264C152.235 22.5264 152.461 22.5264 152.763 22.599C153.064 22.599 153.366 22.6715 153.743 22.7441C153.894 22.8167 154.12 22.8167 154.271 22.8893C154.422 22.9619 154.648 23.0344 154.799 23.107C155.176 23.2522 155.553 23.3973 155.93 23.6151C156.231 23.8328 156.533 24.1231 156.835 24.3409C156.986 24.486 157.061 24.6312 157.136 24.7764C157.212 24.9215 157.287 25.1393 157.363 25.2844C157.438 25.4296 157.438 25.6473 157.438 25.7925C157.438 26.0102 157.363 26.1554 157.363 26.3731C156.91 26.4457 156.533 26.4457 156.156 26.3731C155.779 26.3006 155.402 26.1554 155.1 25.9377C154.95 25.8651 154.799 25.7199 154.648 25.6473C154.572 25.5748 154.497 25.5022 154.422 25.5022C154.346 25.4296 154.271 25.357 154.195 25.357C153.894 25.1393 153.668 24.8489 153.441 24.6312C153.215 24.3409 152.989 24.1231 152.838 23.9054C152.763 23.8328 152.763 23.7602 152.687 23.6877C152.612 23.6151 152.612 23.5425 152.536 23.5425C152.461 23.3973 152.386 23.3248 152.31 23.2522C152.159 23.0344 152.009 22.8893 151.933 22.7441Z" fill="#34343D"/>
<path d="M156.612 20.5676C156.235 20.3499 155.933 20.1321 155.707 19.8418C155.48 19.5515 155.33 19.1886 155.179 18.8257C154.953 18.0999 154.877 17.2289 154.877 16.4305C154.877 16.2128 154.877 15.995 154.877 15.7773C154.877 15.5595 154.877 15.3418 154.877 15.1966C154.877 14.8337 154.953 14.4708 154.953 14.1079C155.028 13.5273 155.103 13.0918 155.103 13.0918C155.103 13.0918 155.179 13.1644 155.33 13.3095C155.48 13.4547 155.631 13.6724 155.857 13.8902C156.084 14.1805 156.31 14.4708 156.461 14.7612C156.687 15.1241 156.913 15.487 157.064 15.8499C157.215 16.2853 157.366 16.6482 157.516 17.0837C157.592 17.5192 157.667 17.9547 157.667 18.3176C157.743 19.2611 157.366 20.0595 156.612 20.5676Z" fill="#34343D"/>
<path d="M150.276 20.1319C149.975 19.9141 149.673 19.6964 149.447 19.4786C149.221 19.2609 148.994 19.1157 148.768 18.898C148.617 18.7528 148.467 18.6077 148.316 18.4625C148.24 18.3899 148.165 18.3174 148.165 18.3174C148.165 18.3174 148.542 18.2448 149.145 18.1722C149.447 18.1722 149.749 18.0996 150.126 18.0996C150.503 18.0996 150.88 18.0996 151.332 18.1722C152.162 18.3174 152.991 18.5351 153.594 18.9706C153.896 19.1883 154.122 19.4786 154.348 19.769C154.499 20.0593 154.575 20.4222 154.575 20.8577C153.745 21.2206 152.916 21.148 152.237 21.0028C151.86 20.9303 151.558 20.7851 151.181 20.5674C150.88 20.4948 150.578 20.3496 150.276 20.1319Z" fill="#34343D"/>
<path d="M143.788 57.3658C146.654 56.2771 149.519 54.9706 151.933 53.0835C154.496 51.0513 156.306 48.2932 157.588 45.0996C159.172 41.398 160.303 37.5513 160.152 33.4867C160.001 30.0029 159.021 26.5916 157.513 23.398C156.231 20.8577 154.647 18.3174 152.687 16.0674C152.837 15.7771 152.837 15.4142 152.762 15.1238C152.687 14.7609 152.536 14.398 152.31 14.1077C151.857 13.4545 151.178 12.8738 150.424 12.5109C149.67 12.0754 148.916 11.8577 148.313 11.7126C148.011 11.64 147.785 11.5674 147.634 11.5674H147.408H147.333V11.64C147.333 11.64 147.333 11.7125 147.408 11.7851C147.483 11.9303 147.559 12.148 147.71 12.3658C147.936 12.8738 148.313 13.4545 148.765 14.1077C148.992 14.398 149.293 14.6884 149.519 14.9787L149.897 15.3416L149.897 15.3417C150.047 15.4868 150.198 15.6319 150.349 15.7045C150.651 15.8496 150.952 16.0674 151.329 16.14C151.555 16.2125 151.857 16.2126 152.159 16.2126C152.988 17.2287 153.818 18.2448 154.496 19.2609C157.287 23.2529 159.247 27.898 159.549 32.7609C159.775 36.9706 158.795 40.89 157.136 44.7367C156.306 46.769 155.25 48.7287 153.742 50.398C152.234 52.0674 150.424 53.3738 148.464 54.4625C144.693 56.4948 139.189 58.8174 133.985 60.4867L135.418 61.14C138.434 59.7609 141.451 58.2367 143.788 57.3658Z" fill="#34343D"/>
<defs>
<clipPath id="clip0_4310_61631">
<rect width="43.3568" height="6.85714" fill="white" transform="translate(63.6484 4.14258)"/>
</clipPath>
</defs>
</svg>
