<svg width="172" height="66" viewBox="0 0 172 66" fill="none" xmlns="http://www.w3.org/2000/svg">
<path d="M49.2625 22.1406V20.8182H57.1425V22.1406H53.9657V31H52.4344V22.1406H49.2625ZM60.3137 31.1541C59.5978 31.1541 58.973 30.9901 58.4394 30.6619C57.9058 30.3338 57.4915 29.8748 57.1965 29.2848C56.9015 28.6948 56.754 28.0054 56.754 27.2166C56.754 26.4245 56.9015 25.7318 57.1965 25.1385C57.4915 24.5452 57.9058 24.0845 58.4394 23.7564C58.973 23.4283 59.5978 23.2642 60.3137 23.2642C61.0296 23.2642 61.6544 23.4283 62.188 23.7564C62.7216 24.0845 63.1359 24.5452 63.4309 25.1385C63.7259 25.7318 63.8733 26.4245 63.8733 27.2166C63.8733 28.0054 63.7259 28.6948 63.4309 29.2848C63.1359 29.8748 62.7216 30.3338 62.188 30.6619C61.6544 30.9901 61.0296 31.1541 60.3137 31.1541ZM60.3187 29.9062C60.7827 29.9062 61.1671 29.7836 61.4721 29.5384C61.777 29.2931 62.0024 28.9666 62.1482 28.5589C62.2974 28.1513 62.3719 27.7022 62.3719 27.2116C62.3719 26.7244 62.2974 26.277 62.1482 25.8693C62.0024 25.4583 61.777 25.1286 61.4721 24.88C61.1671 24.6314 60.7827 24.5071 60.3187 24.5071C59.8513 24.5071 59.4635 24.6314 59.1553 24.88C58.8504 25.1286 58.6233 25.4583 58.4742 25.8693C58.3284 26.277 58.2555 26.7244 58.2555 27.2116C58.2555 27.7022 58.3284 28.1513 58.4742 28.5589C58.6233 28.9666 58.8504 29.2931 59.1553 29.5384C59.4635 29.7836 59.8513 29.9062 60.3187 29.9062ZM64.9726 33.8636V23.3636H66.4243V24.6016H66.5486C66.6348 24.4425 66.7591 24.2585 66.9215 24.0497C67.0839 23.8409 67.3093 23.6586 67.5976 23.5028C67.886 23.3438 68.2671 23.2642 68.7411 23.2642C69.3576 23.2642 69.9078 23.42 70.3917 23.7315C70.8756 24.0431 71.2551 24.4922 71.5301 25.0788C71.8086 25.6655 71.9478 26.3714 71.9478 27.1967C71.9478 28.022 71.8102 28.7296 71.5351 29.3196C71.26 29.9062 70.8822 30.3587 70.4016 30.6768C69.921 30.9917 69.3725 31.1491 68.756 31.1491C68.292 31.1491 67.9125 31.0713 67.6175 30.9155C67.3258 30.7597 67.0971 30.5774 66.9314 30.3686C66.7657 30.1598 66.6381 29.9742 66.5486 29.8118H66.4591V33.8636H64.9726ZM66.4293 27.1818C66.4293 27.7187 66.5072 28.1894 66.663 28.5938C66.8187 28.9981 67.0441 29.3146 67.3391 29.5433C67.6341 29.7687 67.9953 29.8814 68.4229 29.8814C68.867 29.8814 69.2382 29.7637 69.5365 29.5284C69.8348 29.2898 70.0602 28.9666 70.2127 28.5589C70.3685 28.1513 70.4463 27.6922 70.4463 27.1818C70.4463 26.678 70.3701 26.2256 70.2176 25.8246C70.0685 25.4235 69.8431 25.107 69.5415 24.875C69.2432 24.643 68.8703 24.527 68.4229 24.527C67.992 24.527 67.6274 24.638 67.3292 24.8601C67.0342 25.0821 66.8104 25.392 66.658 25.7898C66.5055 26.1875 66.4293 26.6515 66.4293 27.1818ZM81.8709 23.4929C81.8179 23.0223 81.5991 22.6577 81.2147 22.3991C80.8302 22.1373 80.3463 22.0064 79.7629 22.0064C79.3453 22.0064 78.9841 22.0727 78.6791 22.2053C78.3742 22.3345 78.1372 22.5135 77.9682 22.7422C77.8025 22.9676 77.7196 23.2244 77.7196 23.5128C77.7196 23.7547 77.776 23.9635 77.8887 24.1392C78.0047 24.3149 78.1555 24.4624 78.3411 24.5817C78.53 24.6977 78.7322 24.7955 78.9476 24.875C79.163 24.9512 79.3702 25.0142 79.5691 25.0639L80.5634 25.3224C80.8882 25.402 81.2213 25.5097 81.5627 25.6456C81.904 25.7815 82.2206 25.9605 82.5122 26.1825C82.8039 26.4046 83.0392 26.6797 83.2182 27.0078C83.4005 27.3359 83.4916 27.7287 83.4916 28.1861C83.4916 28.7628 83.3425 29.2749 83.0442 29.7223C82.7492 30.1697 82.32 30.5227 81.7566 30.7812C81.1964 31.0398 80.5186 31.169 79.7232 31.169C78.9609 31.169 78.3013 31.0481 77.7445 30.8061C77.1877 30.5642 76.7518 30.2211 76.437 29.777C76.1221 29.3295 75.9481 28.7992 75.9149 28.1861H77.4561C77.486 28.554 77.6053 28.8606 77.8141 29.1058C78.0262 29.3478 78.2963 29.5284 78.6245 29.6477C78.9559 29.7637 79.3188 29.8217 79.7132 29.8217C80.1474 29.8217 80.5335 29.7538 80.8716 29.6179C81.213 29.4787 81.4815 29.2865 81.677 29.0412C81.8726 28.7926 81.9703 28.5026 81.9703 28.1712C81.9703 27.8696 81.8842 27.6226 81.7118 27.4304C81.5428 27.2382 81.3124 27.0791 81.0208 26.9531C80.7324 26.8272 80.4059 26.7161 80.0414 26.62L78.8382 26.2919C78.0229 26.0698 77.3766 25.7434 76.8993 25.3125C76.4254 24.8816 76.1884 24.3116 76.1884 23.6023C76.1884 23.0156 76.3475 22.5036 76.6656 22.0661C76.9838 21.6286 77.4147 21.2888 77.9583 21.0469C78.5018 20.8016 79.115 20.679 79.7977 20.679C80.4871 20.679 81.0953 20.8 81.6223 21.0419C82.1526 21.2839 82.5702 21.617 82.8752 22.0412C83.1801 22.4621 83.3392 22.946 83.3524 23.4929H81.8709ZM86.1346 26.4659V31H84.6481V20.8182H86.1147V24.6065H86.2092C86.3881 24.1955 86.6616 23.8691 87.0295 23.6271C87.3974 23.3852 87.878 23.2642 88.4712 23.2642C88.9949 23.2642 89.4523 23.3719 89.8434 23.5874C90.2378 23.8028 90.5427 24.1243 90.7582 24.5518C90.9769 24.9761 91.0863 25.5064 91.0863 26.1428V31H89.5998V26.3217C89.5998 25.7616 89.4556 25.3274 89.1673 25.0192C88.8789 24.7076 88.4779 24.5518 87.9641 24.5518C87.6128 24.5518 87.2979 24.6264 87.0195 24.7756C86.7444 24.9247 86.5273 25.1435 86.3683 25.4318C86.2125 25.7169 86.1346 26.0616 86.1346 26.4659ZM95.7266 31.1541C95.0107 31.1541 94.3859 30.9901 93.8523 30.6619C93.3187 30.3338 92.9044 29.8748 92.6094 29.2848C92.3144 28.6948 92.1669 28.0054 92.1669 27.2166C92.1669 26.4245 92.3144 25.7318 92.6094 25.1385C92.9044 24.5452 93.3187 24.0845 93.8523 23.7564C94.3859 23.4283 95.0107 23.2642 95.7266 23.2642C96.4425 23.2642 97.0673 23.4283 97.6009 23.7564C98.1345 24.0845 98.5488 24.5452 98.8438 25.1385C99.1387 25.7318 99.2862 26.4245 99.2862 27.2166C99.2862 28.0054 99.1387 28.6948 98.8438 29.2848C98.5488 29.8748 98.1345 30.3338 97.6009 30.6619C97.0673 30.9901 96.4425 31.1541 95.7266 31.1541ZM95.7316 29.9062C96.1956 29.9062 96.58 29.7836 96.885 29.5384C97.1899 29.2931 97.4153 28.9666 97.5611 28.5589C97.7102 28.1513 97.7848 27.7022 97.7848 27.2116C97.7848 26.7244 97.7102 26.277 97.5611 25.8693C97.4153 25.4583 97.1899 25.1286 96.885 24.88C96.58 24.6314 96.1956 24.5071 95.7316 24.5071C95.2642 24.5071 94.8764 24.6314 94.5682 24.88C94.2633 25.1286 94.0362 25.4583 93.8871 25.8693C93.7413 26.277 93.6683 26.7244 93.6683 27.2116C93.6683 27.7022 93.7413 28.1513 93.8871 28.5589C94.0362 28.9666 94.2633 29.2931 94.5682 29.5384C94.8764 29.7836 95.2642 29.9062 95.7316 29.9062ZM100.386 33.8636V23.3636H101.837V24.6016H101.961C102.048 24.4425 102.172 24.2585 102.334 24.0497C102.497 23.8409 102.722 23.6586 103.011 23.5028C103.299 23.3438 103.68 23.2642 104.154 23.2642C104.77 23.2642 105.321 23.42 105.805 23.7315C106.288 24.0431 106.668 24.4922 106.943 25.0788C107.221 25.6655 107.361 26.3714 107.361 27.1967C107.361 28.022 107.223 28.7296 106.948 29.3196C106.673 29.9062 106.295 30.3587 105.814 30.6768C105.334 30.9917 104.785 31.1491 104.169 31.1491C103.705 31.1491 103.325 31.0713 103.03 30.9155C102.739 30.7597 102.51 30.5774 102.344 30.3686C102.179 30.1598 102.051 29.9742 101.961 29.8118H101.872V33.8636H100.386ZM101.842 27.1818C101.842 27.7187 101.92 28.1894 102.076 28.5938C102.232 28.9981 102.457 29.3146 102.752 29.5433C103.047 29.7687 103.408 29.8814 103.836 29.8814C104.28 29.8814 104.651 29.7637 104.949 29.5284C105.248 29.2898 105.473 28.9666 105.626 28.5589C105.781 28.1513 105.859 27.6922 105.859 27.1818C105.859 26.678 105.783 26.2256 105.631 25.8246C105.481 25.4235 105.256 25.107 104.954 24.875C104.656 24.643 104.283 24.527 103.836 24.527C103.405 24.527 103.04 24.638 102.742 24.8601C102.447 25.0821 102.223 25.392 102.071 25.7898C101.918 26.1875 101.842 26.6515 101.842 27.1818ZM108.466 31V23.3636H109.953V31H108.466ZM109.217 22.1854C108.958 22.1854 108.736 22.0992 108.551 21.9268C108.368 21.7512 108.277 21.5424 108.277 21.3004C108.277 21.0552 108.368 20.8464 108.551 20.674C108.736 20.4983 108.958 20.4105 109.217 20.4105C109.475 20.4105 109.696 20.4983 109.878 20.674C110.064 20.8464 110.156 21.0552 110.156 21.3004C110.156 21.5424 110.064 21.7512 109.878 21.9268C109.696 22.0992 109.475 22.1854 109.217 22.1854ZM115.027 23.3636V24.5568H110.711V23.3636H115.027ZM111.895 31V22.4787C111.895 22.0014 111.999 21.6053 112.208 21.2905C112.417 20.9723 112.693 20.7353 113.038 20.5795C113.383 20.4205 113.757 20.3409 114.162 20.3409C114.46 20.3409 114.715 20.3658 114.927 20.4155C115.139 20.4619 115.297 20.505 115.4 20.5447L115.052 21.7479C114.982 21.728 114.892 21.7048 114.783 21.6783C114.674 21.6484 114.541 21.6335 114.385 21.6335C114.024 21.6335 113.766 21.723 113.61 21.902C113.457 22.081 113.381 22.3395 113.381 22.6776V31H111.895ZM116.94 33.8636C116.718 33.8636 116.516 33.8454 116.334 33.8089C116.151 33.7758 116.015 33.7393 115.926 33.6996L116.284 32.4815C116.556 32.5545 116.798 32.5859 117.01 32.576C117.222 32.5661 117.409 32.4865 117.571 32.3374C117.737 32.1882 117.883 31.9446 118.009 31.6065L118.193 31.0994L115.399 23.3636H116.99L118.924 29.2898H119.003L120.937 23.3636H122.533L119.386 32.0192C119.24 32.4169 119.055 32.7533 118.829 33.0284C118.604 33.3068 118.335 33.5156 118.024 33.6548C117.712 33.794 117.351 33.8636 116.94 33.8636ZM60.711 47.1541C59.9719 47.1541 59.3355 46.9867 58.8019 46.652C58.2716 46.3139 57.8639 45.8482 57.5789 45.255C57.2939 44.6617 57.1513 43.9822 57.1513 43.2166C57.1513 42.4411 57.2972 41.7566 57.5888 41.1634C57.8805 40.5668 58.2915 40.1011 58.8218 39.7663C59.3521 39.4316 59.9769 39.2642 60.6961 39.2642C61.2761 39.2642 61.7931 39.3719 62.2472 39.5874C62.7013 39.7995 63.0675 40.0978 63.3459 40.4822C63.6277 40.8667 63.795 41.3158 63.8481 41.8295H62.4013C62.3218 41.4716 62.1395 41.1634 61.8545 40.9048C61.5727 40.6463 61.1949 40.517 60.7209 40.517C60.3066 40.517 59.9437 40.6264 59.6322 40.8452C59.3239 41.0606 59.0836 41.3688 58.9113 41.7699C58.7389 42.1676 58.6528 42.6383 58.6528 43.1818C58.6528 43.7386 58.7373 44.2192 58.9063 44.6236C59.0753 45.0279 59.314 45.3411 59.6222 45.5632C59.9338 45.7853 60.3 45.8963 60.7209 45.8963C61.0027 45.8963 61.2579 45.8449 61.4866 45.7422C61.7186 45.6361 61.9125 45.4853 62.0682 45.2898C62.2273 45.0942 62.3384 44.8589 62.4013 44.5838H63.8481C63.795 45.0777 63.6343 45.5185 63.3658 45.9062C63.0974 46.294 62.7377 46.599 62.287 46.821C61.8395 47.0431 61.3142 47.1541 60.711 47.1541ZM68.0944 47.1541C67.3784 47.1541 66.7537 46.9901 66.2201 46.6619C65.6864 46.3338 65.2721 45.8748 64.9772 45.2848C64.6822 44.6948 64.5347 44.0054 64.5347 43.2166C64.5347 42.4245 64.6822 41.7318 64.9772 41.1385C65.2721 40.5452 65.6864 40.0845 66.2201 39.7564C66.7537 39.4283 67.3784 39.2642 68.0944 39.2642C68.8103 39.2642 69.435 39.4283 69.9686 39.7564C70.5023 40.0845 70.9166 40.5452 71.2115 41.1385C71.5065 41.7318 71.654 42.4245 71.654 43.2166C71.654 44.0054 71.5065 44.6948 71.2115 45.2848C70.9166 45.8748 70.5023 46.3338 69.9686 46.6619C69.435 46.9901 68.8103 47.1541 68.0944 47.1541ZM68.0993 45.9062C68.5633 45.9062 68.9478 45.7836 69.2527 45.5384C69.5577 45.2931 69.783 44.9666 69.9289 44.5589C70.078 44.1513 70.1526 43.7022 70.1526 43.2116C70.1526 42.7244 70.078 42.277 69.9289 41.8693C69.783 41.4583 69.5577 41.1286 69.2527 40.88C68.9478 40.6314 68.5633 40.5071 68.0993 40.5071C67.632 40.5071 67.2442 40.6314 66.936 40.88C66.631 41.1286 66.404 41.4583 66.2549 41.8693C66.109 42.277 66.0361 42.7244 66.0361 43.2116C66.0361 43.7022 66.109 44.1513 66.2549 44.5589C66.404 44.9666 66.631 45.2931 66.936 45.5384C67.2442 45.7836 67.632 45.9062 68.0993 45.9062ZM72.7533 47V39.3636H74.1801V40.6065H74.2746C74.4337 40.1856 74.6939 39.8575 75.0551 39.6222C75.4164 39.3835 75.8489 39.2642 76.3527 39.2642C76.8631 39.2642 77.2907 39.3835 77.6354 39.6222C77.9834 39.8608 78.2403 40.1889 78.406 40.6065H78.4855C78.6678 40.1989 78.9578 39.8741 79.3556 39.6321C79.7533 39.3868 80.2272 39.2642 80.7774 39.2642C81.4701 39.2642 82.0352 39.4813 82.4727 39.9155C82.9136 40.3497 83.134 41.0043 83.134 41.8793V47H81.6475V42.0185C81.6475 41.5014 81.5066 41.1269 81.2249 40.8949C80.9431 40.6629 80.6067 40.5469 80.2156 40.5469C79.7317 40.5469 79.3556 40.696 79.0871 40.9943C78.8186 41.2893 78.6844 41.6688 78.6844 42.1328V47H77.2029V41.924C77.2029 41.5097 77.0736 41.1766 76.8151 40.9247C76.5565 40.6728 76.2201 40.5469 75.8058 40.5469C75.5241 40.5469 75.2639 40.6214 75.0253 40.7706C74.79 40.9164 74.5994 41.1203 74.4536 41.3821C74.311 41.6439 74.2398 41.9472 74.2398 42.2919V47H72.7533ZM84.5663 49.8636V39.3636H86.018V40.6016H86.1423C86.2285 40.4425 86.3528 40.2585 86.5152 40.0497C86.6776 39.8409 86.903 39.6586 87.1913 39.5028C87.4797 39.3438 87.8608 39.2642 88.3348 39.2642C88.9513 39.2642 89.5015 39.42 89.9854 39.7315C90.4693 40.0431 90.8488 40.4922 91.1239 41.0788C91.4023 41.6655 91.5415 42.3714 91.5415 43.1967C91.5415 44.022 91.4039 44.7296 91.1288 45.3196C90.8537 45.9062 90.4759 46.3587 89.9953 46.6768C89.5147 46.9917 88.9662 47.1491 88.3497 47.1491C87.8857 47.1491 87.5062 47.0713 87.2112 46.9155C86.9195 46.7597 86.6909 46.5774 86.5251 46.3686C86.3594 46.1598 86.2318 45.9742 86.1423 45.8118H86.0528V49.8636H84.5663ZM86.023 43.1818C86.023 43.7187 86.1009 44.1894 86.2567 44.5938C86.4124 44.9981 86.6378 45.3146 86.9328 45.5433C87.2278 45.7687 87.5891 45.8814 88.0166 45.8814C88.4607 45.8814 88.832 45.7637 89.1302 45.5284C89.4285 45.2898 89.6539 44.9666 89.8064 44.5589C89.9622 44.1513 90.04 43.6922 90.04 43.1818C90.04 42.678 89.9638 42.2256 89.8114 41.8246C89.6622 41.4235 89.4368 41.107 89.1352 40.875C88.8369 40.643 88.4641 40.527 88.0166 40.527C87.5857 40.527 87.2212 40.638 86.9229 40.8601C86.6279 41.0821 86.4042 41.392 86.2517 41.7898C86.0992 42.1875 86.023 42.6515 86.023 43.1818ZM94.8693 47.169C94.3853 47.169 93.9478 47.0795 93.5568 46.9006C93.1657 46.7183 92.8558 46.4548 92.6271 46.1101C92.4017 45.7654 92.289 45.3428 92.289 44.8423C92.289 44.4115 92.3719 44.0568 92.5376 43.7784C92.7033 43.5 92.927 43.2796 93.2087 43.1172C93.4905 42.9548 93.8053 42.8321 94.1533 42.7493C94.5014 42.6664 94.856 42.6035 95.2173 42.5604C95.6746 42.5073 96.0459 42.4643 96.3309 42.4311C96.6159 42.3946 96.8231 42.3366 96.9523 42.2571C97.0816 42.1776 97.1462 42.0483 97.1462 41.8693V41.8345C97.1462 41.4003 97.0236 41.0639 96.7783 40.8253C96.5364 40.5866 96.1751 40.4673 95.6945 40.4673C95.1941 40.4673 94.7996 40.5784 94.5113 40.8004C94.2263 41.0192 94.0291 41.2628 93.9197 41.5312L92.5227 41.2131C92.6884 40.7491 92.9303 40.3745 93.2485 40.0895C93.57 39.8011 93.9396 39.5923 94.3572 39.4631C94.7748 39.3305 95.2139 39.2642 95.6746 39.2642C95.9796 39.2642 96.3027 39.3007 96.6441 39.3736C96.9888 39.4432 97.3103 39.5724 97.6086 39.7614C97.9102 39.9503 98.1571 40.2204 98.3494 40.5717C98.5416 40.9197 98.6377 41.3722 98.6377 41.929V47H97.186V45.956H97.1264C97.0302 46.1482 96.8861 46.3371 96.6938 46.5227C96.5016 46.7083 96.2547 46.8625 95.9531 46.9851C95.6514 47.1077 95.2902 47.169 94.8693 47.169ZM95.1924 45.9759C95.6034 45.9759 95.9547 45.8946 96.2464 45.7322C96.5414 45.5698 96.7651 45.3577 96.9175 45.0959C97.0733 44.8307 97.1512 44.5473 97.1512 44.2457V43.2614C97.0982 43.3144 96.9954 43.3641 96.843 43.4105C96.6938 43.4536 96.5231 43.4917 96.3309 43.5249C96.1387 43.5547 95.9514 43.5829 95.7691 43.6094C95.5868 43.6326 95.4344 43.6525 95.3117 43.669C95.0234 43.7055 94.7599 43.7668 94.5212 43.853C94.2859 43.9392 94.097 44.0634 93.9545 44.2259C93.8153 44.3849 93.7457 44.5971 93.7457 44.8622C93.7457 45.2301 93.8816 45.5085 94.1533 45.6974C94.4251 45.883 94.7715 45.9759 95.1924 45.9759ZM101.544 42.4659V47H100.058V39.3636H101.485V40.6065H101.579C101.755 40.2022 102.03 39.8774 102.404 39.6321C102.782 39.3868 103.258 39.2642 103.831 39.2642C104.351 39.2642 104.807 39.3736 105.198 39.5923C105.589 39.8078 105.893 40.1293 106.108 40.5568C106.324 40.9844 106.431 41.513 106.431 42.1428V47H104.945V42.3217C104.945 41.7682 104.801 41.3357 104.512 41.0241C104.224 40.7093 103.828 40.5518 103.324 40.5518C102.979 40.5518 102.673 40.6264 102.404 40.7756C102.139 40.9247 101.929 41.1435 101.773 41.4318C101.62 41.7169 101.544 42.0616 101.544 42.4659ZM108.531 49.8636C108.309 49.8636 108.107 49.8454 107.925 49.8089C107.742 49.7758 107.606 49.7393 107.517 49.6996L107.875 48.4815C108.147 48.5545 108.389 48.5859 108.601 48.576C108.813 48.5661 109 48.4865 109.162 48.3374C109.328 48.1882 109.474 47.9446 109.6 47.6065L109.784 47.0994L106.99 39.3636H108.581L110.515 45.2898H110.594L112.528 39.3636H114.124L110.977 48.0192C110.831 48.4169 110.646 48.7533 110.42 49.0284C110.195 49.3068 109.926 49.5156 109.615 49.6548C109.303 49.794 108.942 49.8636 108.531 49.8636Z" fill="#C5C5CB"/>
<path d="M64.6599 58.6364H65.3204V61.5064C65.3204 61.8118 65.2487 62.0824 65.1052 62.3182C64.9618 62.5526 64.7601 62.7372 64.5001 62.8722C64.2402 63.0057 63.9355 63.0724 63.5861 63.0724C63.2381 63.0724 62.9341 63.0057 62.6741 62.8722C62.4142 62.7372 62.2125 62.5526 62.069 62.3182C61.9256 62.0824 61.8538 61.8118 61.8538 61.5064V58.6364H62.5122V61.4531C62.5122 61.6506 62.5555 61.826 62.6422 61.9794C62.7302 62.1328 62.8545 62.2536 63.015 62.3416C63.1756 62.4283 63.3659 62.4716 63.5861 62.4716C63.8077 62.4716 63.9987 62.4283 64.1592 62.3416C64.3211 62.2536 64.4447 62.1328 64.53 61.9794C64.6166 61.826 64.6599 61.6506 64.6599 61.4531V58.6364ZM66.0976 63V58.6364H66.756V60.7202H66.8093L68.6395 58.6364H69.4684L67.7084 60.6009L69.4748 63H68.6822L67.2717 61.0504L66.756 61.6428V63H66.0976ZM70.6797 62.4034L70.6478 62.6357C70.6265 62.8061 70.5902 62.9837 70.5391 63.1683C70.4894 63.3544 70.4375 63.527 70.3836 63.6861C70.331 63.8452 70.2877 63.9716 70.2536 64.0653H69.8019C69.8203 63.9773 69.8459 63.858 69.8786 63.7074C69.9113 63.5582 69.9432 63.3913 69.9745 63.2067C70.0057 63.022 70.0292 62.8338 70.0448 62.642L70.0661 62.4034H70.6797ZM76.4124 60.0554H75.7476C75.7221 59.9134 75.6745 59.7884 75.6049 59.6804C75.5353 59.5724 75.45 59.4808 75.3492 59.4055C75.2483 59.3303 75.1354 59.2734 75.0104 59.2351C74.8868 59.1967 74.7554 59.1776 74.6162 59.1776C74.3648 59.1776 74.1397 59.2408 73.9408 59.3672C73.7434 59.4936 73.5871 59.679 73.4721 59.9233C73.3584 60.1676 73.3016 60.4659 73.3016 60.8182C73.3016 61.1733 73.3584 61.473 73.4721 61.7173C73.5871 61.9616 73.7441 62.1463 73.9429 62.2713C74.1418 62.3963 74.3655 62.4588 74.6141 62.4588C74.7519 62.4588 74.8826 62.4403 75.0062 62.4034C75.1312 62.3651 75.2441 62.3089 75.3449 62.2351C75.4458 62.1612 75.531 62.071 75.6006 61.9645C75.6716 61.8565 75.7206 61.733 75.7476 61.5938L76.4124 61.5959C76.3769 61.8104 76.308 62.0078 76.2057 62.1882C76.1049 62.3672 75.9749 62.522 75.8158 62.6527C75.6581 62.782 75.4777 62.8821 75.2746 62.9531C75.0715 63.0241 74.8499 63.0597 74.6098 63.0597C74.232 63.0597 73.8954 62.9702 73.5999 62.7912C73.3044 62.6108 73.0715 62.353 72.901 62.0178C72.732 61.6825 72.6475 61.2827 72.6475 60.8182C72.6475 60.3523 72.7327 59.9524 72.9032 59.6186C73.0736 59.2834 73.3066 59.0263 73.602 58.8473C73.8975 58.6669 74.2334 58.5767 74.6098 58.5767C74.8414 58.5767 75.0573 58.6101 75.2576 58.6768C75.4593 58.7422 75.6404 58.8388 75.8009 58.9666C75.9614 59.093 76.0942 59.2479 76.1993 59.4311C76.3044 59.6129 76.3755 59.821 76.4124 60.0554ZM77.6062 58.6364V63H76.9691V58.6364H77.6062ZM80.3564 61.6428V59.7273H80.9956V63H80.3692V62.4332H80.3351C80.2598 62.608 80.1391 62.7536 79.9729 62.87C79.8081 62.9851 79.6028 63.0426 79.3571 63.0426C79.1469 63.0426 78.9608 62.9964 78.7989 62.9041C78.6383 62.8104 78.5119 62.6719 78.4196 62.4886C78.3287 62.3054 78.2832 62.0788 78.2832 61.8089V59.7273H78.9203V61.7322C78.9203 61.9553 78.9821 62.1328 79.1057 62.2649C79.2293 62.397 79.3898 62.4631 79.5872 62.4631C79.7065 62.4631 79.8251 62.4332 79.943 62.3736C80.0623 62.3139 80.1611 62.2237 80.2392 62.103C80.3187 61.9822 80.3578 61.8288 80.3564 61.6428ZM83.1993 59.7273V60.2386H81.4116V59.7273H83.1993ZM81.891 58.9432H82.5281V62.0391C82.5281 62.1626 82.5466 62.2557 82.5835 62.3182C82.6205 62.3793 82.668 62.4212 82.7263 62.4439C82.7859 62.4652 82.8506 62.4759 82.9202 62.4759C82.9713 62.4759 83.016 62.4723 83.0544 62.4652C83.0928 62.4581 83.1226 62.4524 83.1439 62.4482L83.2589 62.9744C83.222 62.9886 83.1695 63.0028 83.1013 63.017C83.0331 63.0327 82.9479 63.0412 82.8456 63.0426C82.678 63.0455 82.5217 63.0156 82.3768 62.9531C82.232 62.8906 82.1148 62.794 82.0253 62.6634C81.9358 62.5327 81.891 62.3686 81.891 62.1712V58.9432ZM85.0674 63.0661C84.7506 63.0661 84.4779 62.9943 84.2492 62.8509C84.0219 62.706 83.8472 62.5064 83.7251 62.2521C83.6029 61.9979 83.5418 61.7067 83.5418 61.3786C83.5418 61.0462 83.6043 60.7528 83.7293 60.4986C83.8543 60.2429 84.0305 60.0433 84.2577 59.8999C84.485 59.7564 84.7528 59.6847 85.061 59.6847C85.3096 59.6847 85.5312 59.7308 85.7258 59.8232C85.9204 59.9141 86.0773 60.0419 86.1967 60.2067C86.3174 60.3714 86.3891 60.5639 86.4119 60.7841H85.7918C85.7577 60.6307 85.6796 60.4986 85.5575 60.3878C85.4367 60.277 85.2748 60.2216 85.0717 60.2216C84.8941 60.2216 84.7386 60.2685 84.605 60.3622C84.4729 60.4545 84.37 60.5866 84.2961 60.7585C84.2222 60.929 84.1853 61.1307 84.1853 61.3636C84.1853 61.6023 84.2215 61.8082 84.294 61.9815C84.3664 62.1548 84.4687 62.2891 84.6008 62.3842C84.7343 62.4794 84.8913 62.527 85.0717 62.527C85.1924 62.527 85.3018 62.505 85.3998 62.4609C85.4992 62.4155 85.5823 62.3509 85.6491 62.267C85.7173 62.1832 85.7648 62.0824 85.7918 61.9645H86.4119C86.3891 62.1761 86.3202 62.3651 86.2052 62.5312C86.0901 62.6974 85.936 62.8281 85.7428 62.9233C85.5511 63.0185 85.3259 63.0661 85.0674 63.0661ZM87.5502 61.0568V63H86.9131V58.6364H87.5417V60.2599H87.5822C87.6589 60.0838 87.7761 59.9439 87.9337 59.8402C88.0914 59.7365 88.2974 59.6847 88.5516 59.6847C88.7761 59.6847 88.9721 59.7308 89.1397 59.8232C89.3087 59.9155 89.4394 60.0533 89.5318 60.2365C89.6255 60.4183 89.6724 60.6456 89.6724 60.9183V63H89.0353V60.995C89.0353 60.755 88.9735 60.5689 88.8499 60.4368C88.7264 60.3033 88.5545 60.2365 88.3343 60.2365C88.1837 60.2365 88.0488 60.2685 87.9295 60.3324C87.8116 60.3963 87.7185 60.4901 87.6504 60.6136C87.5836 60.7358 87.5502 60.8835 87.5502 61.0568ZM91.1714 62.4034L91.1394 62.6357C91.1181 62.8061 91.0819 62.9837 91.0307 63.1683C90.981 63.3544 90.9292 63.527 90.8752 63.6861C90.8226 63.8452 90.7793 63.9716 90.7452 64.0653H90.2935C90.312 63.9773 90.3376 63.858 90.3702 63.7074C90.4029 63.5582 90.4349 63.3913 90.4661 63.2067C90.4974 63.022 90.5208 62.8338 90.5364 62.642L90.5577 62.4034H91.1714ZM93.2201 63V62.5227L94.6967 60.9929C94.8543 60.8267 94.9843 60.6811 95.0866 60.5561C95.1903 60.4297 95.2677 60.3097 95.3188 60.196C95.37 60.0824 95.3955 59.9616 95.3955 59.8338C95.3955 59.6889 95.3614 59.5639 95.2932 59.4588C95.2251 59.3523 95.132 59.2706 95.0141 59.2138C94.8962 59.1555 94.7634 59.1264 94.6157 59.1264C94.4594 59.1264 94.3231 59.1584 94.2066 59.2223C94.0901 59.2862 94.0006 59.3764 93.9381 59.4929C93.8756 59.6094 93.8444 59.7457 93.8444 59.902H93.2158C93.2158 59.6364 93.2769 59.4041 93.3991 59.2053C93.5212 59.0064 93.6888 58.8523 93.9019 58.7429C94.115 58.6321 94.3572 58.5767 94.6285 58.5767C94.9026 58.5767 95.1441 58.6314 95.3529 58.7408C95.5631 58.8487 95.7272 58.9964 95.8451 59.1839C95.963 59.37 96.0219 59.5803 96.0219 59.8146C96.0219 59.9766 95.9914 60.1349 95.9303 60.2898C95.8707 60.4446 95.7663 60.6172 95.6171 60.8075C95.468 60.9964 95.2606 61.2259 94.995 61.4957L94.1278 62.4034V62.4354H96.0923V63H93.2201ZM98.239 63.0724C97.9023 63.071 97.6147 62.9822 97.376 62.8061C97.1374 62.63 96.9549 62.3736 96.8285 62.0369C96.702 61.7003 96.6388 61.2947 96.6388 60.8203C96.6388 60.3473 96.702 59.9432 96.8285 59.608C96.9563 59.2727 97.1395 59.017 97.3782 58.8409C97.6182 58.6648 97.9052 58.5767 98.239 58.5767C98.5728 58.5767 98.859 58.6655 99.0976 58.843C99.3363 59.0192 99.5188 59.2749 99.6452 59.6101C99.7731 59.9439 99.837 60.3473 99.837 60.8203C99.837 61.2962 99.7738 61.7024 99.6473 62.0391C99.5209 62.3743 99.3384 62.6307 99.0998 62.8082C98.8611 62.9844 98.5742 63.0724 98.239 63.0724ZM98.239 62.5036C98.5344 62.5036 98.7652 62.3594 98.9314 62.071C99.099 61.7827 99.1829 61.3658 99.1829 60.8203C99.1829 60.4581 99.1445 60.152 99.0678 59.902C98.9925 59.6506 98.8838 59.4602 98.7418 59.331C98.6012 59.2003 98.4336 59.1349 98.239 59.1349C97.9449 59.1349 97.7141 59.2798 97.5465 59.5696C97.3789 59.8594 97.2944 60.2763 97.2929 60.8203C97.2929 61.1839 97.3306 61.4915 97.4059 61.7429C97.4826 61.9929 97.5912 62.1825 97.7319 62.3118C97.8725 62.4396 98.0415 62.5036 98.239 62.5036ZM100.413 63V62.5227L101.889 60.9929C102.047 60.8267 102.177 60.6811 102.279 60.5561C102.383 60.4297 102.46 60.3097 102.512 60.196C102.563 60.0824 102.588 59.9616 102.588 59.8338C102.588 59.6889 102.554 59.5639 102.486 59.4588C102.418 59.3523 102.325 59.2706 102.207 59.2138C102.089 59.1555 101.956 59.1264 101.808 59.1264C101.652 59.1264 101.516 59.1584 101.399 59.2223C101.283 59.2862 101.193 59.3764 101.131 59.4929C101.068 59.6094 101.037 59.7457 101.037 59.902H100.409C100.409 59.6364 100.47 59.4041 100.592 59.2053C100.714 59.0064 100.882 58.8523 101.095 58.7429C101.308 58.6321 101.55 58.5767 101.821 58.5767C102.095 58.5767 102.337 58.6314 102.546 58.7408C102.756 58.8487 102.92 58.9964 103.038 59.1839C103.156 59.37 103.215 59.5803 103.215 59.8146C103.215 59.9766 103.184 60.1349 103.123 60.2898C103.063 60.4446 102.959 60.6172 102.81 60.8075C102.661 60.9964 102.453 61.2259 102.188 61.4957L101.321 62.4034V62.4354H103.285V63H100.413ZM105.432 63.0597C105.139 63.0597 104.878 63.0092 104.648 62.9084C104.419 62.8075 104.238 62.6676 104.104 62.4886C103.972 62.3082 103.901 62.0994 103.891 61.8622H104.56C104.569 61.9915 104.612 62.1037 104.69 62.1989C104.77 62.2926 104.873 62.3651 105.001 62.4162C105.129 62.4673 105.271 62.4929 105.427 62.4929C105.599 62.4929 105.751 62.4631 105.883 62.4034C106.017 62.3437 106.121 62.2607 106.197 62.1541C106.272 62.0462 106.31 61.9219 106.31 61.7812C106.31 61.6349 106.272 61.5064 106.197 61.3956C106.123 61.2834 106.014 61.1953 105.871 61.1314C105.729 61.0675 105.557 61.0355 105.355 61.0355H104.986V60.4986H105.355C105.517 60.4986 105.659 60.4695 105.781 60.4112C105.905 60.353 106.001 60.272 106.071 60.1683C106.141 60.0632 106.175 59.9403 106.175 59.7997C106.175 59.6648 106.145 59.5476 106.084 59.4482C106.024 59.3473 105.939 59.2685 105.828 59.2116C105.719 59.1548 105.589 59.1264 105.44 59.1264C105.298 59.1264 105.165 59.1527 105.042 59.2053C104.92 59.2564 104.82 59.3303 104.743 59.4268C104.667 59.522 104.626 59.6364 104.62 59.7699H103.983C103.99 59.5341 104.06 59.3267 104.192 59.1477C104.325 58.9687 104.501 58.8288 104.72 58.728C104.939 58.6271 105.182 58.5767 105.449 58.5767C105.729 58.5767 105.97 58.6314 106.173 58.7408C106.378 58.8487 106.535 58.9929 106.646 59.1733C106.758 59.3537 106.814 59.5511 106.812 59.7656C106.814 60.0099 106.746 60.2173 106.608 60.3878C106.471 60.5582 106.29 60.6726 106.062 60.7308V60.7649C106.352 60.8089 106.577 60.924 106.736 61.1101C106.896 61.2962 106.976 61.527 106.974 61.8026C106.976 62.0426 106.909 62.2578 106.774 62.4482C106.641 62.6385 106.458 62.7884 106.226 62.8977C105.995 63.0057 105.73 63.0597 105.432 63.0597Z" fill="#AEAEB7"/>
<path d="M25.7624 58.3112C25.3854 58.0208 25.0083 57.8031 24.6313 57.6579C24.2543 57.5128 23.8772 57.4402 23.4248 57.4402C22.5953 57.3676 21.6904 57.5854 20.7855 57.7305C19.8806 57.9483 19.0511 58.166 18.4478 58.3837C17.8445 58.6015 17.3921 58.7466 17.3921 58.7466C17.3921 58.7466 17.7691 58.9644 18.4478 59.2547C19.0511 59.545 19.956 59.8354 20.9363 59.9805C21.9166 60.1257 22.8969 60.1257 23.8018 59.9079C24.7821 59.6902 25.5362 59.1821 25.7624 58.3112Z" fill="#34343D"/>
<path d="M23.1254 54.608C23.5025 55.3338 23.9549 56.0596 24.6336 56.4951C24.9353 56.7128 25.3123 56.9305 25.6893 57.0031C26.0664 57.0757 26.5188 57.0757 26.8959 56.858C26.8959 55.987 26.6697 55.2612 26.2926 54.6805C25.9156 54.0999 25.3123 53.5193 24.7844 53.0838C24.1812 52.6483 23.6533 52.2854 23.2009 51.9951C22.7484 51.7047 22.4468 51.5596 22.4468 51.5596C22.4468 51.5596 22.4468 51.6321 22.4468 51.8499C22.4468 51.995 22.5222 52.2128 22.5222 52.5031C22.5976 53.0838 22.7484 53.8096 23.1254 54.608Z" fill="#34343D"/>
<path d="M16.7893 56.5686C17.6942 56.496 18.4483 56.2057 18.9761 55.4799C18.5237 54.7541 17.845 54.3186 17.0909 54.1009C16.3368 53.8831 15.3565 53.8105 14.4516 53.8105C13.5467 53.8105 12.6418 53.8105 11.9632 53.8105C11.2845 53.8105 10.832 53.8105 10.832 53.8105C10.832 53.8105 10.9074 53.8831 11.0582 54.0283C11.2091 54.1734 11.4353 54.3912 11.7369 54.6089C12.3402 55.0444 13.0943 55.5525 13.9992 55.988C14.9795 56.3509 15.9598 56.5686 16.7893 56.5686Z" fill="#34343D"/>
<path d="M18.4495 53.23C18.9773 53.8107 19.656 54.2462 20.4855 54.1736C20.8626 53.3752 20.7872 52.5768 20.5609 51.851C20.3347 51.1252 19.8823 50.472 19.5052 49.8913C19.0528 49.3107 18.6757 48.8752 18.2987 48.5123C18.1479 48.3671 17.997 48.222 17.9216 48.0768C17.8462 48.0042 17.7708 47.9316 17.7708 47.9316C17.7708 47.9316 17.7708 48.0042 17.6954 48.1494C17.62 48.2945 17.62 48.5123 17.5446 48.8026C17.4692 49.3833 17.3938 50.1091 17.5446 50.9075C17.6954 51.7784 17.997 52.5768 18.4495 53.23Z" fill="#34343D"/>
<path d="M7.74077 47.2054C7.1375 46.9876 6.68506 46.915 6.68506 46.915C6.68506 46.915 6.76045 46.9876 6.83586 47.2054C6.91127 47.3505 7.06209 47.5683 7.2129 47.8586C7.36372 48.1489 7.58996 48.4392 7.81619 48.8021C7.967 48.9473 8.04241 49.165 8.19323 49.3102L8.26862 49.4554L8.41944 49.6005C8.49485 49.6731 8.57025 49.8183 8.64566 49.8908C9.39974 50.6892 10.3047 51.3425 11.1342 51.6328C12.0391 51.9231 12.8685 51.8505 13.6226 51.2699C13.3964 50.3989 12.944 49.8183 12.2653 49.3828C12.1145 49.2376 11.8882 49.165 11.7374 49.0199C11.5866 48.8747 11.3604 48.8021 11.1342 48.657C10.9079 48.5118 10.7571 48.4392 10.5309 48.2941C10.3046 48.2215 10.1538 48.0763 9.92761 48.0037C9.17353 47.6408 8.34404 47.3505 7.74077 47.2054Z" fill="#34343D"/>
<path d="M13.8491 48.6571C14.0753 49.3829 14.6031 49.9636 15.4326 50.1813C16.0359 49.5281 16.1867 48.7297 16.2621 48.0765C16.3375 47.3507 16.1867 46.6975 16.1113 46.1168C16.1113 45.8991 15.9605 45.4636 15.8851 45.1733C15.8097 44.8829 15.6589 44.5926 15.5835 44.3023C15.508 44.0846 15.4326 43.8668 15.3572 43.7217C15.2818 43.5765 15.2818 43.5039 15.2818 43.5039C15.2818 43.5039 15.2064 43.5765 15.131 43.7217C15.0556 43.8668 14.9048 44.0846 14.754 44.3023C14.4523 44.8104 14.1507 45.5362 13.9245 46.262C13.849 46.4797 13.8491 46.6249 13.7737 46.8426C13.6982 47.0604 13.6982 47.2055 13.6982 47.4233C13.6982 47.641 13.6982 47.7862 13.6982 48.0039C13.6982 48.2942 13.7737 48.512 13.8491 48.6571Z" fill="#34343D"/>
<path d="M6.83701 44.2292C6.98783 44.3743 7.13865 44.5195 7.28947 44.6647C7.44029 44.8098 7.66652 44.955 7.81734 45.0276C8.57142 45.463 9.32549 45.6808 10.2304 45.3905C10.3058 44.955 10.3058 44.5921 10.155 44.2292C10.0796 44.084 10.0042 43.8663 9.92876 43.7211C9.85336 43.5759 9.70254 43.4308 9.62714 43.213C9.17468 42.5598 8.4206 42.0518 7.74192 41.5437C7.06325 41.0356 6.30915 40.6001 5.70589 40.3098C5.10262 40.0195 4.72559 39.8018 4.72559 39.8018C4.72559 39.8018 4.72559 39.8743 4.801 40.0921C4.87641 40.3098 4.95181 40.5276 5.02722 40.8179C5.25344 41.3985 5.55507 42.2695 6.08293 42.9953C6.23375 43.5034 6.53538 43.8663 6.83701 44.2292Z" fill="#34343D"/>
<path d="M11.5106 43.867C11.6614 44.2299 11.9631 44.5202 12.2647 44.738C13.0188 44.3025 13.4712 43.6493 13.7729 42.9235C13.8483 42.7783 13.8483 42.5605 13.9237 42.4154C13.9237 42.3428 13.9237 42.1976 13.9991 42.1251C13.9991 42.0525 13.9991 41.9073 14.0745 41.8347C14.1499 41.4718 14.1499 41.1089 14.1499 40.746C14.0745 40.0202 14.0745 39.367 13.9237 38.8589C13.8483 38.6412 13.8483 38.4235 13.7729 38.2783C13.7729 38.1331 13.6975 38.0605 13.6975 38.0605C13.6975 38.0605 13.6221 38.1331 13.4712 38.2783C13.3204 38.4235 13.1696 38.5686 13.0188 38.7864C12.6417 39.2218 12.1893 39.8751 11.8122 40.6009C11.4352 41.3267 11.209 42.1251 11.209 42.9235C11.209 43.1412 11.209 43.2864 11.2844 43.5041C11.3598 43.5767 11.4352 43.7218 11.5106 43.867Z" fill="#34343D"/>
<path d="M5.25242 37.3352C5.32782 37.553 5.47864 37.6981 5.62946 37.9159C5.78027 38.061 5.9311 38.2788 6.08191 38.4239C6.68518 39.0046 7.43926 39.3675 8.34417 39.2223C8.49498 38.8594 8.5704 38.4239 8.49499 38.061C8.49499 37.8433 8.41957 37.6981 8.34417 37.4804C8.26876 37.3352 8.19336 37.1175 8.11795 36.9723C7.96713 36.6094 7.74091 36.2465 7.43928 35.9562C7.28846 35.811 7.13764 35.5933 7.06224 35.4481C6.91142 35.303 6.7606 35.1578 6.60978 34.9401C6.00651 34.2869 5.32782 33.7062 4.87537 33.2707C4.42292 32.8352 4.0459 32.5449 4.0459 32.5449C4.0459 32.5449 4.0459 32.9804 4.0459 33.6336C4.0459 33.9965 4.12129 34.3594 4.1967 34.7223C4.27211 34.9401 4.27212 35.1578 4.34753 35.3756C4.42294 35.5933 4.42293 35.8111 4.57374 36.0288C4.87538 36.4643 5.1016 36.8998 5.25242 37.3352Z" fill="#34343D"/>
<path d="M10.5322 38.714C11.3617 38.4236 11.965 37.843 12.342 37.2624C12.4174 37.1172 12.4928 36.972 12.5682 36.7543C12.6436 36.6091 12.719 36.3914 12.7944 36.2462C12.9453 35.8833 13.0207 35.5204 13.0961 35.2301C13.1715 34.8672 13.2469 34.5769 13.2469 34.214C13.2469 34.0688 13.2469 33.9236 13.3223 33.7785C13.3223 33.6333 13.3223 33.4882 13.3223 33.4156C13.3977 32.9075 13.3977 32.6172 13.3977 32.6172C13.3977 32.6172 13.0961 32.7624 12.5682 33.1253C12.4174 33.1978 12.342 33.2704 12.1912 33.4156C12.0404 33.4882 11.8895 33.6333 11.8141 33.7785C11.5125 33.9962 11.2863 34.2866 10.9846 34.5769C10.8338 34.722 10.7584 34.8672 10.6076 35.0849C10.5322 35.1575 10.4568 35.2301 10.4568 35.3753C10.3814 35.4478 10.3814 35.5204 10.306 35.6656C10.1552 36.0285 10.0043 36.3914 9.92893 36.7543C9.92893 36.972 9.85352 37.1172 9.85352 37.3349C9.85352 37.5527 9.92893 37.6978 9.92893 37.843C10.0797 38.0607 10.2306 38.4236 10.5322 38.714Z" fill="#34343D"/>
<path d="M7.36262 28.1903C7.1364 27.8274 6.91016 27.4645 6.75934 27.1016C6.53311 26.7387 6.3069 26.4484 6.15608 26.1581C5.77904 25.65 5.55282 25.2871 5.55282 25.2871C5.55282 25.2871 5.40199 25.7226 5.32658 26.3758C5.25118 26.6661 5.25119 27.1016 5.17578 27.4645C5.17578 27.6823 5.17578 27.9 5.17578 28.1177C5.17578 28.3355 5.17578 28.5532 5.17578 28.771C5.25119 29.2065 5.25118 29.6419 5.402 30.0774C5.55281 30.5129 5.70364 30.9484 5.92987 31.2387C6.38232 31.9645 7.06098 32.4726 7.96588 32.5452C8.1167 32.4 8.1921 32.1823 8.26751 32.0371C8.34292 31.8919 8.41834 31.6742 8.41834 31.529C8.49374 31.1661 8.41833 30.8032 8.34292 30.4403C8.26751 30.0774 8.1167 29.6419 7.96588 29.279C7.81506 28.9887 7.58885 28.5532 7.36262 28.1903Z" fill="#34343D"/>
<path d="M12.2666 31.528C12.5682 31.2377 12.7945 31.02 12.9453 30.6571C13.1715 30.3667 13.3223 30.0764 13.4731 29.7135C13.5485 29.5684 13.6239 29.4232 13.6994 29.278C13.7748 29.1329 13.8502 28.9877 13.9256 28.8425C14.0764 28.5522 14.1518 28.3345 14.2272 28.0442C14.378 27.6087 14.4534 27.3184 14.4534 27.3184C14.4534 27.3184 14.0764 27.3909 13.5485 27.6087C13.0207 27.8264 12.342 28.1167 11.6633 28.6248C11.5125 28.77 11.3617 28.8425 11.2109 28.9877C11.0601 29.1329 10.9092 29.278 10.7584 29.4232C10.4568 29.7135 10.2306 30.0764 10.0798 30.3667C9.92894 30.7296 9.85352 31.0926 9.85352 31.4555C9.85352 31.6006 9.85352 31.8184 9.92893 31.9635C10.0043 32.1087 10.0797 32.3264 10.1551 32.4716C11.06 32.399 11.7387 32.0361 12.2666 31.528Z" fill="#34343D"/>
<path d="M9.62505 25.8671C9.77586 25.722 9.85127 25.5768 9.92668 25.3591C10.0021 25.2139 10.0775 24.9962 10.0775 24.851C10.0775 24.7058 10.1529 24.4881 10.1529 24.2703C10.1529 23.9074 10.1529 23.472 10.0775 23.0365C10.0021 22.601 9.92667 22.2381 9.85126 21.8026C9.62504 21.0042 9.39882 20.2058 9.17259 19.6252C8.94637 19.0445 8.79555 18.6816 8.79555 18.6816C8.79555 18.6816 8.72013 18.7542 8.64472 18.8994C8.56931 19.0445 8.4185 19.3349 8.26768 19.6252C7.96605 20.2058 7.66441 21.0042 7.5136 21.8752C7.43819 22.3107 7.36279 22.7462 7.36279 23.1816C7.36279 23.3994 7.3628 23.6171 7.43821 23.8349C7.43821 24.0526 7.5136 24.2703 7.58901 24.4881C7.73983 24.851 7.89066 25.2139 8.19229 25.5768C8.49392 25.8671 8.79555 26.1574 9.248 26.3026C9.39882 26.23 9.54964 26.0849 9.62505 25.8671Z" fill="#34343D"/>
<path d="M16.791 22.7451C16.8664 22.5999 16.9418 22.5273 16.9418 22.5273C16.9418 22.5273 16.8664 22.5273 16.6401 22.5273C16.4893 22.5273 16.2631 22.5273 15.9615 22.5999C15.6598 22.5999 15.3582 22.6725 14.9812 22.7451C14.8303 22.8177 14.6041 22.8177 14.4533 22.8902C14.3025 22.9628 14.0762 23.0354 13.9254 23.108C13.5484 23.2532 13.1713 23.3983 12.7943 23.6161C12.4927 23.8338 12.191 24.1241 11.8894 24.3419C11.7386 24.487 11.6632 24.6322 11.5878 24.7773C11.5124 24.9225 11.437 25.1402 11.3615 25.2854C11.2861 25.4306 11.2861 25.6483 11.2861 25.7935C11.2861 26.0112 11.3615 26.1564 11.3615 26.3741C11.814 26.4467 12.191 26.4467 12.5681 26.3741C12.9451 26.3015 13.3222 26.1564 13.6238 25.9386C13.7746 25.8661 13.9254 25.7209 14.0763 25.6483C14.1517 25.5757 14.2271 25.5032 14.3025 25.5032C14.3779 25.4306 14.4533 25.358 14.5287 25.358C14.8303 25.1402 15.0566 24.8499 15.2828 24.6322C15.509 24.3419 15.7352 24.1241 15.8861 23.9064C15.9615 23.8338 15.9615 23.7612 16.0369 23.6886C16.1123 23.6161 16.1123 23.5435 16.1877 23.5435C16.2631 23.3983 16.3385 23.3257 16.4139 23.2532C16.5647 23.0354 16.7156 22.8902 16.791 22.7451Z" fill="#34343D"/>
<path d="M12.1121 20.5686C12.4891 20.3508 12.7907 20.1331 13.017 19.8428C13.2432 19.5525 13.394 19.1895 13.5448 18.8266C13.771 18.1008 13.8465 17.2299 13.8465 16.4315C13.8465 16.2137 13.8465 15.996 13.8465 15.7783C13.8465 15.5605 13.8465 15.3428 13.8465 15.1976C13.8465 14.8347 13.7711 14.4718 13.7711 14.1089C13.6956 13.5283 13.6202 13.0928 13.6202 13.0928C13.6202 13.0928 13.5448 13.1654 13.394 13.3105C13.2432 13.4557 13.0924 13.6734 12.8661 13.8912C12.6399 14.1815 12.4137 14.4718 12.2629 14.7621C12.0367 15.125 11.8104 15.4879 11.6596 15.8508C11.5088 16.2863 11.358 16.6492 11.2072 17.0847C11.1318 17.5202 11.0563 17.9557 11.0563 18.3186C10.9809 19.2621 11.358 20.0605 12.1121 20.5686Z" fill="#34343D"/>
<path d="M18.4467 20.1328C18.7483 19.9151 19.05 19.6974 19.2762 19.4796C19.5024 19.2619 19.7286 19.1167 19.9549 18.899C20.1057 18.7538 20.2565 18.6087 20.4073 18.4635C20.4827 18.3909 20.5582 18.3183 20.5582 18.3183C20.5582 18.3183 20.1811 18.2458 19.5778 18.1732C19.2762 18.1732 18.9746 18.1006 18.5975 18.1006C18.2205 18.1006 17.8434 18.1006 17.391 18.1732C16.5615 18.3183 15.732 18.5361 15.1287 18.9716C14.8271 19.1893 14.6009 19.4796 14.3747 19.7699C14.2238 20.0603 14.1484 20.4232 14.1484 20.8587C14.9779 21.2216 15.8074 21.149 16.4861 21.0038C16.8631 20.9312 17.1648 20.7861 17.5418 20.5683C17.8435 20.4958 18.1451 20.3506 18.4467 20.1328Z" fill="#34343D"/>
<path d="M24.9352 57.3667C22.0697 56.278 19.2042 54.9716 16.7911 53.0845C14.2272 51.0522 12.4174 48.2942 11.1355 45.1006C9.55189 41.399 8.42077 37.5522 8.57159 33.4877C8.7224 30.0039 9.70271 26.5926 11.2109 23.399C12.4928 20.8587 14.0764 18.3184 16.037 16.0684C15.8862 15.778 15.8862 15.4151 15.9616 15.1248C16.037 14.7619 16.1878 14.399 16.4141 14.1087C16.8665 13.4555 17.5452 12.8748 18.2993 12.5119C19.0534 12.0764 19.8074 11.8587 20.4107 11.7135C20.7123 11.6409 20.9386 11.5684 21.0894 11.5684H21.3156H21.391V11.6409C21.391 11.6409 21.391 11.7135 21.3156 11.7861C21.2402 11.9313 21.1648 12.149 21.014 12.3668C20.7878 12.8748 20.4107 13.4555 19.9582 14.1087C19.732 14.399 19.4304 14.6893 19.2042 14.9797L18.8271 15.3426L18.827 15.3427C18.6762 15.4878 18.5255 15.6329 18.3747 15.7055C18.0731 15.8506 17.7714 16.0684 17.3944 16.1409C17.1681 16.2135 16.8665 16.2135 16.5649 16.2135C15.7354 17.2297 14.9059 18.2458 14.2272 19.2619C11.4371 23.2538 9.47648 27.899 9.17485 32.7619C8.94862 36.9716 9.92894 40.8909 11.5879 44.7377C12.4174 46.77 13.4731 48.7296 14.9813 50.399C16.4895 52.0684 18.2993 53.3748 20.2599 54.4635C24.0303 56.4958 29.5351 58.8184 34.7383 60.4877L33.3056 61.1409C30.2892 59.7619 27.2729 58.2377 24.9352 57.3667Z" fill="#34343D"/>
<path d="M142.955 58.3092C143.332 58.0189 143.709 57.8011 144.086 57.656C144.464 57.5108 144.841 57.4382 145.293 57.4382C146.122 57.3657 147.027 57.5834 147.932 57.7286C148.837 57.9463 149.667 58.164 150.27 58.3818C150.873 58.5995 151.326 58.7447 151.326 58.7447C151.326 58.7447 150.949 58.9624 150.27 59.2528C149.667 59.5431 148.762 59.8334 147.781 59.9786C146.801 60.1237 145.821 60.1237 144.916 59.906C143.936 59.6882 143.182 59.1802 142.955 58.3092Z" fill="#34343D"/>
<path d="M145.592 54.607C145.215 55.3328 144.762 56.0586 144.084 56.4941C143.782 56.7118 143.405 56.9296 143.028 57.0021C142.651 57.0747 142.198 57.0747 141.821 56.857C141.821 55.986 142.048 55.2602 142.425 54.6796C142.802 54.0989 143.405 53.5183 143.933 53.0828C144.536 52.6473 145.064 52.2844 145.516 51.9941C145.969 51.7038 146.271 51.5586 146.271 51.5586C146.271 51.5586 146.271 51.6312 146.271 51.8489C146.271 51.9941 146.195 52.2118 146.195 52.5021C146.12 53.0828 145.969 53.8086 145.592 54.607Z" fill="#34343D"/>
<path d="M151.928 56.5676C151.024 56.495 150.269 56.2047 149.742 55.4789C150.194 54.7531 150.873 54.3176 151.627 54.0999C152.381 53.8821 153.361 53.8096 154.266 53.8096C155.171 53.8096 156.076 53.8096 156.755 53.8096C157.433 53.8096 157.886 53.8096 157.886 53.8096C157.886 53.8096 157.81 53.8821 157.66 54.0273C157.509 54.1725 157.282 54.3902 156.981 54.608C156.378 55.0434 155.624 55.5515 154.719 55.987C153.738 56.3499 152.758 56.5676 151.928 56.5676Z" fill="#34343D"/>
<path d="M150.268 53.2291C149.74 53.8097 149.062 54.2452 148.232 54.1726C147.855 53.3742 147.931 52.5758 148.157 51.85C148.383 51.1242 148.836 50.471 149.213 49.8903C149.665 49.3097 150.042 48.8742 150.419 48.5113C150.57 48.3662 150.721 48.221 150.796 48.0758C150.872 48.0032 150.947 47.9307 150.947 47.9307C150.947 47.9307 150.947 48.0032 151.022 48.1484C151.098 48.2936 151.098 48.5113 151.173 48.8016C151.249 49.3823 151.324 50.1081 151.173 50.9065C151.022 51.7774 150.721 52.5758 150.268 53.2291Z" fill="#34343D"/>
<path d="M160.977 47.2044C161.58 46.9866 162.033 46.9141 162.033 46.9141C162.033 46.9141 161.957 46.9866 161.882 47.2044C161.807 47.3495 161.656 47.5673 161.505 47.8576C161.354 48.1479 161.128 48.4382 160.902 48.8012C160.751 48.9463 160.675 49.1641 160.525 49.3092L160.449 49.4544L160.298 49.5995C160.223 49.6721 160.148 49.8173 160.072 49.8899C159.318 50.6882 158.413 51.3415 157.584 51.6318C156.679 51.9221 155.849 51.8495 155.095 51.2689C155.321 50.3979 155.774 49.8173 156.452 49.3818C156.603 49.2366 156.83 49.1641 156.98 49.0189C157.131 48.8737 157.357 48.8012 157.584 48.656C157.81 48.5108 157.961 48.4383 158.187 48.2931C158.413 48.2205 158.564 48.0754 158.79 48.0028C159.544 47.6399 160.374 47.3495 160.977 47.2044Z" fill="#34343D"/>
<path d="M154.869 48.6562C154.642 49.382 154.115 49.9626 153.285 50.1804C152.682 49.5271 152.531 48.7287 152.456 48.0755C152.38 47.3497 152.531 46.6965 152.606 46.1158C152.606 45.8981 152.757 45.4626 152.833 45.1723C152.908 44.882 153.059 44.5916 153.134 44.3013C153.21 44.0836 153.285 43.8658 153.361 43.7207C153.436 43.5755 153.436 43.5029 153.436 43.5029C153.436 43.5029 153.511 43.5755 153.587 43.7207C153.662 43.8658 153.813 44.0836 153.964 44.3013C154.265 44.8094 154.567 45.5352 154.793 46.261C154.869 46.4787 154.869 46.6239 154.944 46.8416C155.02 47.0594 155.02 47.2045 155.02 47.4223C155.02 47.64 155.02 47.7852 155.02 48.0029C155.02 48.2933 154.944 48.511 154.869 48.6562Z" fill="#34343D"/>
<path d="M161.881 44.2282C161.73 44.3734 161.58 44.5185 161.429 44.6637C161.278 44.8088 161.052 44.954 160.901 45.0266C160.147 45.4621 159.393 45.6798 158.488 45.3895C158.412 44.954 158.412 44.5911 158.563 44.2282C158.639 44.083 158.714 43.8653 158.789 43.7201C158.865 43.575 159.016 43.4298 159.091 43.2121C159.544 42.5588 160.298 42.0508 160.976 41.5427C161.655 41.0346 162.409 40.5992 163.012 40.3088C163.616 40.0185 163.993 39.8008 163.993 39.8008C163.993 39.8008 163.993 39.8734 163.917 40.0911C163.842 40.3088 163.766 40.5266 163.691 40.8169C163.465 41.3976 163.163 42.2685 162.635 42.9943C162.485 43.5024 162.183 43.8653 161.881 44.2282Z" fill="#34343D"/>
<path d="M157.207 43.865C157.056 44.2279 156.755 44.5183 156.453 44.736C155.699 44.3005 155.247 43.6473 154.945 42.9215C154.869 42.7763 154.87 42.5586 154.794 42.4134C154.794 42.3409 154.794 42.1957 154.719 42.1231C154.719 42.0505 154.719 41.9054 154.643 41.8328C154.568 41.4699 154.568 41.107 154.568 40.7441C154.643 40.0183 154.643 39.365 154.794 38.857C154.87 38.6392 154.869 38.4215 154.945 38.2763C154.945 38.1312 155.02 38.0586 155.02 38.0586C155.02 38.0586 155.096 38.1312 155.247 38.2763C155.397 38.4215 155.548 38.5667 155.699 38.7844C156.076 39.2199 156.528 39.8731 156.906 40.5989C157.283 41.3247 157.509 42.1231 157.509 42.9215C157.509 43.1392 157.509 43.2844 157.433 43.5021C157.358 43.5747 157.283 43.7199 157.207 43.865Z" fill="#34343D"/>
<path d="M163.465 37.3343C163.39 37.552 163.239 37.6972 163.088 37.9149C162.937 38.0601 162.787 38.2778 162.636 38.423C162.033 39.0036 161.279 39.3665 160.374 39.2214C160.223 38.8585 160.147 38.423 160.223 38.0601C160.223 37.8423 160.298 37.6972 160.374 37.4794C160.449 37.3343 160.524 37.1165 160.6 36.9714C160.751 36.6085 160.977 36.2456 161.278 35.9552C161.429 35.8101 161.58 35.5923 161.656 35.4472C161.806 35.302 161.957 35.1569 162.108 34.9391C162.711 34.2859 163.39 33.7052 163.842 33.2698C164.295 32.8343 164.672 32.5439 164.672 32.5439C164.672 32.5439 164.672 32.9794 164.672 33.6327C164.672 33.9956 164.596 34.3585 164.521 34.7214C164.446 34.9391 164.446 35.1568 164.37 35.3746C164.295 35.5923 164.295 35.8101 164.144 36.0278C163.842 36.4633 163.616 36.8988 163.465 37.3343Z" fill="#34343D"/>
<path d="M158.186 38.713C157.356 38.4227 156.753 37.842 156.376 37.2614C156.3 37.1162 156.225 36.9711 156.15 36.7533C156.074 36.6082 155.999 36.3904 155.923 36.2452C155.773 35.8823 155.697 35.5194 155.622 35.2291C155.546 34.8662 155.471 34.5759 155.471 34.213C155.471 34.0678 155.471 33.9227 155.395 33.7775C155.395 33.6323 155.395 33.4872 155.395 33.4146C155.32 32.9065 155.32 32.6162 155.32 32.6162C155.32 32.6162 155.622 32.7614 156.15 33.1243C156.3 33.1969 156.376 33.2694 156.527 33.4146C156.677 33.4872 156.828 33.6323 156.904 33.7775C157.205 33.9952 157.431 34.2856 157.733 34.5759C157.884 34.7211 157.959 34.8662 158.11 35.084C158.186 35.1565 158.261 35.2291 158.261 35.3743C158.336 35.4469 158.336 35.5194 158.412 35.6646C158.563 36.0275 158.713 36.3904 158.789 36.7533C158.789 36.9711 158.864 37.1162 158.864 37.334C158.864 37.5517 158.789 37.6969 158.789 37.842C158.638 38.0598 158.487 38.4227 158.186 38.713Z" fill="#34343D"/>
<path d="M161.355 28.1884C161.581 27.8255 161.807 27.4626 161.958 27.0997C162.184 26.7368 162.41 26.4464 162.561 26.1561C162.938 25.6481 163.164 25.2852 163.164 25.2852C163.164 25.2852 163.315 25.7206 163.391 26.3739C163.466 26.6642 163.466 27.0997 163.542 27.4626C163.542 27.6803 163.542 27.8981 163.542 28.1158C163.542 28.3335 163.542 28.5513 163.542 28.769C163.466 29.2045 163.466 29.64 163.315 30.0755C163.164 30.511 163.014 30.9464 162.787 31.2368C162.335 31.9626 161.656 32.4706 160.751 32.5432C160.601 32.3981 160.525 32.1803 160.45 32.0352C160.374 31.89 160.299 31.6722 160.299 31.5271C160.224 31.1642 160.299 30.8013 160.374 30.4384C160.45 30.0755 160.601 29.64 160.751 29.2771C160.902 28.9868 161.128 28.5513 161.355 28.1884Z" fill="#34343D"/>
<path d="M156.451 31.5271C156.15 31.2367 155.923 31.019 155.773 30.6561C155.546 30.3658 155.395 30.0754 155.245 29.7125C155.169 29.5674 155.094 29.4222 155.018 29.2771C154.943 29.1319 154.868 28.9867 154.792 28.8416C154.641 28.5512 154.566 28.3335 154.491 28.0432C154.34 27.6077 154.264 27.3174 154.264 27.3174C154.264 27.3174 154.641 27.39 155.169 27.6077C155.697 27.8254 156.376 28.1158 157.054 28.6238C157.205 28.769 157.356 28.8416 157.507 28.9867C157.658 29.1319 157.809 29.2771 157.959 29.4222C158.261 29.7125 158.487 30.0754 158.638 30.3658C158.789 30.7287 158.864 31.0916 158.864 31.4545C158.864 31.5996 158.864 31.8174 158.789 31.9625C158.713 32.1077 158.638 32.3254 158.563 32.4706C157.658 32.398 156.979 32.0351 156.451 31.5271Z" fill="#34343D"/>
<path d="M159.093 25.8662C158.942 25.721 158.867 25.5758 158.791 25.3581C158.716 25.2129 158.64 24.9952 158.64 24.85C158.64 24.7049 158.565 24.4871 158.565 24.2694C158.565 23.9065 158.565 23.471 158.64 23.0355C158.716 22.6 158.791 22.2371 158.867 21.8016C159.093 21.0032 159.319 20.2049 159.545 19.6242C159.771 19.0436 159.922 18.6807 159.922 18.6807C159.922 18.6807 159.998 18.7532 160.073 18.8984C160.148 19.0436 160.299 19.3339 160.45 19.6242C160.752 20.2049 161.053 21.0033 161.204 21.8742C161.28 22.3097 161.355 22.7452 161.355 23.1807C161.355 23.3984 161.355 23.6162 161.28 23.8339C161.28 24.0516 161.204 24.2694 161.129 24.4871C160.978 24.85 160.827 25.2129 160.525 25.5758C160.224 25.8661 159.922 26.1565 159.47 26.3016C159.319 26.2291 159.168 26.0839 159.093 25.8662Z" fill="#34343D"/>
<path d="M151.927 22.7441C151.852 22.599 151.776 22.5264 151.776 22.5264C151.776 22.5264 151.852 22.5264 152.078 22.5264C152.229 22.5264 152.455 22.5264 152.757 22.599C153.058 22.599 153.36 22.6715 153.737 22.7441C153.888 22.8167 154.114 22.8167 154.265 22.8893C154.416 22.9619 154.642 23.0344 154.793 23.107C155.17 23.2522 155.547 23.3973 155.924 23.6151C156.226 23.8328 156.527 24.1231 156.829 24.3409C156.98 24.486 157.055 24.6312 157.13 24.7764C157.206 24.9215 157.281 25.1393 157.357 25.2844C157.432 25.4296 157.432 25.6473 157.432 25.7925C157.432 26.0102 157.357 26.1554 157.357 26.3731C156.904 26.4457 156.527 26.4457 156.15 26.3731C155.773 26.3006 155.396 26.1554 155.094 25.9377C154.944 25.8651 154.793 25.7199 154.642 25.6473C154.567 25.5748 154.491 25.5022 154.416 25.5022C154.34 25.4296 154.265 25.357 154.19 25.357C153.888 25.1393 153.662 24.8489 153.435 24.6312C153.209 24.3409 152.983 24.1231 152.832 23.9054C152.757 23.8328 152.757 23.7602 152.681 23.6877C152.606 23.6151 152.606 23.5425 152.531 23.5425C152.455 23.3973 152.38 23.3248 152.304 23.2522C152.154 23.0344 152.003 22.8893 151.927 22.7441Z" fill="#34343D"/>
<path d="M156.606 20.5676C156.229 20.3499 155.927 20.1321 155.701 19.8418C155.475 19.5515 155.324 19.1886 155.173 18.8257C154.947 18.0999 154.871 17.2289 154.871 16.4305C154.871 16.2128 154.871 15.995 154.871 15.7773C154.871 15.5595 154.871 15.3418 154.871 15.1966C154.871 14.8337 154.947 14.4708 154.947 14.1079C155.022 13.5273 155.098 13.0918 155.098 13.0918C155.098 13.0918 155.173 13.1644 155.324 13.3095C155.475 13.4547 155.625 13.6724 155.852 13.8902C156.078 14.1805 156.304 14.4708 156.455 14.7612C156.681 15.1241 156.907 15.487 157.058 15.8499C157.209 16.2853 157.36 16.6482 157.511 17.0837C157.586 17.5192 157.661 17.9547 157.661 18.3176C157.737 19.2611 157.36 20.0595 156.606 20.5676Z" fill="#34343D"/>
<path d="M150.271 20.1319C149.969 19.9141 149.667 19.6964 149.441 19.4786C149.215 19.2609 148.989 19.1157 148.762 18.898C148.612 18.7528 148.461 18.6077 148.31 18.4625C148.235 18.3899 148.159 18.3174 148.159 18.3174C148.159 18.3174 148.536 18.2448 149.139 18.1722C149.441 18.1722 149.743 18.0996 150.12 18.0996C150.497 18.0996 150.874 18.0996 151.326 18.1722C152.156 18.3174 152.985 18.5351 153.589 18.9706C153.89 19.1883 154.116 19.4786 154.343 19.769C154.493 20.0593 154.569 20.4222 154.569 20.8577C153.739 21.2206 152.91 21.148 152.231 21.0028C151.854 20.9303 151.553 20.7851 151.175 20.5674C150.874 20.4948 150.572 20.3496 150.271 20.1319Z" fill="#34343D"/>
<path d="M143.783 57.3658C146.648 56.2771 149.514 54.9706 151.927 53.0835C154.491 51.0513 156.3 48.2932 157.582 45.0996C159.166 41.398 160.297 37.5513 160.146 33.4867C159.995 30.0029 159.015 26.5916 157.507 23.398C156.225 20.8577 154.641 18.3174 152.681 16.0674C152.832 15.7771 152.832 15.4142 152.756 15.1238C152.681 14.7609 152.53 14.398 152.304 14.1077C151.851 13.4545 151.173 12.8738 150.418 12.5109C149.664 12.0754 148.91 11.8577 148.307 11.7126C148.005 11.64 147.779 11.5674 147.628 11.5674H147.402H147.327V11.64C147.327 11.64 147.327 11.7125 147.402 11.7851C147.478 11.9303 147.553 12.148 147.704 12.3658C147.93 12.8738 148.307 13.4545 148.76 14.1077C148.986 14.398 149.287 14.6884 149.514 14.9787L149.891 15.3416L149.891 15.3417C150.042 15.4868 150.192 15.6319 150.343 15.7045C150.645 15.8496 150.946 16.0674 151.323 16.14C151.55 16.2125 151.851 16.2126 152.153 16.2126C152.982 17.2287 153.812 18.2448 154.491 19.2609C157.281 23.2529 159.241 27.898 159.543 32.7609C159.769 36.9706 158.789 40.89 157.13 44.7367C156.3 46.769 155.245 48.7287 153.736 50.398C152.228 52.0674 150.418 53.3738 148.458 54.4625C144.687 56.4948 139.183 58.8174 133.979 60.4867L135.412 61.14C138.429 59.7609 141.445 58.2367 143.783 57.3658Z" fill="#34343D"/>
<path d="M78.6431 3.9043H79.8976V11.6498H78.6431V3.9043Z" fill="#C5C5CB"/>
<path d="M84.2601 9.1949C84.2601 10.3949 83.2783 10.504 82.951 10.504C82.1874 10.504 82.0783 9.7949 82.0783 9.41309V6.41309H80.8237V9.35854C80.8237 10.0676 81.0419 10.7222 81.4783 11.104C81.8601 11.4858 82.351 11.6494 82.951 11.6494C83.3874 11.6494 83.9328 11.5404 84.2601 11.2131V11.6494H85.5146V6.41309H84.2601V9.1949Z" fill="#C5C5CB"/>
<path d="M87.9694 4.50488H86.7149V6.41397H85.7876V7.61397H86.7149V11.6503H87.9694V7.61397H88.8967V6.41397H87.9694V4.50488Z" fill="#C5C5CB"/>
<path d="M92.8233 10.0673C92.5506 10.2855 92.1688 10.4492 91.787 10.4492C90.9143 10.4492 90.3143 9.79462 90.3143 8.92189C90.3143 8.04916 90.9143 7.44916 91.787 7.44916C92.1688 7.44916 92.5506 7.55826 92.8233 7.83098L92.987 7.99462L93.8597 7.17644L93.6415 7.0128C93.1506 6.57644 92.4961 6.30371 91.787 6.30371C90.2597 6.30371 89.1143 7.44916 89.1143 8.97644C89.1143 10.5037 90.2597 11.6492 91.787 11.6492C92.4961 11.6492 93.1506 11.3764 93.6415 10.9401L93.8597 10.7764L92.987 9.90371L92.8233 10.0673Z" fill="#C5C5CB"/>
<path d="M98.2757 6.84975C97.8939 6.46793 97.5121 6.3043 96.9121 6.3043C96.4757 6.3043 96.0393 6.41339 95.7121 6.74066V3.9043H94.4575V11.6498H95.7121V8.75884C95.7121 7.55884 96.5302 7.44975 96.8575 7.44975C97.6212 7.44975 97.5666 8.15884 97.5666 8.54066V11.5952H98.8212V8.59521C98.8212 7.88612 98.6575 7.23157 98.2757 6.84975Z" fill="#C5C5CB"/>
<path d="M91.7316 9.84995C92.2136 9.84995 92.6043 9.45921 92.6043 8.97722C92.6043 8.49523 92.2136 8.10449 91.7316 8.10449C91.2496 8.10449 90.8589 8.49523 90.8589 8.97722C90.8589 9.45921 91.2496 9.84995 91.7316 9.84995Z" fill="#AEAEB7"/>
<path d="M76.8957 9.74074C76.4594 10.1771 75.8048 10.4498 75.0957 10.4498C73.7321 10.4498 72.7503 9.35893 72.7503 7.8862C72.7503 6.41347 73.7321 5.32256 75.1503 5.32256C75.8048 5.32256 76.4594 5.59529 76.9503 6.0862L77.1139 6.24983L77.9321 5.43165L77.7685 5.26802C77.0594 4.55892 76.1321 4.17711 75.1503 4.17711C73.0776 4.12256 71.5503 5.75892 71.5503 7.8862C71.5503 10.0135 73.0776 11.6498 75.0957 11.6498C76.0776 11.6498 77.0594 11.268 77.7139 10.5589L77.8776 10.3953L77.0594 9.57711L76.8957 9.74074Z" fill="#C5C5CB"/>
</svg>
