<svg width="172" height="66" viewBox="0 0 172 66" fill="none" xmlns="http://www.w3.org/2000/svg">
<path d="M47.4017 22.2727H48.9997L51.7781 29.0568H51.8804L54.6588 22.2727H56.2568V31H55.004V24.6847H54.923L52.3491 30.9872H51.3094L48.7355 24.6804H48.6545V31H47.4017V22.2727ZM60.3461 31.1321C59.7324 31.1321 59.1969 30.9915 58.7395 30.7102C58.2821 30.429 57.927 30.0355 57.6742 29.5298C57.4213 29.0241 57.2949 28.4332 57.2949 27.7571C57.2949 27.0781 57.4213 26.4844 57.6742 25.9759C57.927 25.4673 58.2821 25.0724 58.7395 24.7912C59.1969 24.5099 59.7324 24.3693 60.3461 24.3693C60.9597 24.3693 61.4952 24.5099 61.9526 24.7912C62.41 25.0724 62.7651 25.4673 63.0179 25.9759C63.2708 26.4844 63.3972 27.0781 63.3972 27.7571C63.3972 28.4332 63.2708 29.0241 63.0179 29.5298C62.7651 30.0355 62.41 30.429 61.9526 30.7102C61.4952 30.9915 60.9597 31.1321 60.3461 31.1321ZM60.3503 30.0625C60.7481 30.0625 61.0776 29.9574 61.339 29.7472C61.6003 29.5369 61.7935 29.2571 61.9185 28.9077C62.0463 28.5582 62.1103 28.1733 62.1103 27.7528C62.1103 27.3352 62.0463 26.9517 61.9185 26.6023C61.7935 26.25 61.6003 25.9673 61.339 25.7543C61.0776 25.5412 60.7481 25.4347 60.3503 25.4347C59.9498 25.4347 59.6174 25.5412 59.3532 25.7543C59.0918 25.9673 58.8972 26.25 58.7694 26.6023C58.6444 26.9517 58.5819 27.3352 58.5819 27.7528C58.5819 28.1733 58.6444 28.5582 58.7694 28.9077C58.8972 29.2571 59.0918 29.5369 59.3532 29.7472C59.6174 29.9574 59.9498 30.0625 60.3503 30.0625ZM69.2443 26.0526L68.0894 26.2571C68.0411 26.1094 67.9644 25.9687 67.8593 25.8352C67.757 25.7017 67.6178 25.5923 67.4417 25.5071C67.2656 25.4219 67.0454 25.3793 66.7812 25.3793C66.4204 25.3793 66.1193 25.4602 65.8778 25.6222C65.6363 25.7812 65.5156 25.9872 65.5156 26.2401C65.5156 26.4588 65.5965 26.6349 65.7585 26.7685C65.9204 26.902 66.1818 27.0114 66.5426 27.0966L67.5823 27.3352C68.1846 27.4744 68.6335 27.6889 68.9289 27.9787C69.2244 28.2685 69.3721 28.6449 69.3721 29.108C69.3721 29.5 69.2585 29.8494 69.0312 30.1562C68.8068 30.4602 68.4928 30.6989 68.0894 30.8722C67.6889 31.0455 67.2244 31.1321 66.696 31.1321C65.963 31.1321 65.365 30.9759 64.9019 30.6634C64.4389 30.348 64.1548 29.9006 64.0497 29.321L65.2812 29.1335C65.3579 29.4545 65.5156 29.6974 65.7542 29.8622C65.9928 30.0241 66.3039 30.1051 66.6874 30.1051C67.1051 30.1051 67.4389 30.0185 67.6889 29.8452C67.9389 29.669 68.0639 29.4545 68.0639 29.2017C68.0639 28.9972 67.9872 28.8253 67.8337 28.6861C67.6832 28.5469 67.4516 28.4418 67.1391 28.3707L66.0312 28.1278C65.4204 27.9886 64.9687 27.767 64.6761 27.4631C64.3863 27.1591 64.2414 26.7741 64.2414 26.3082C64.2414 25.9219 64.3494 25.5838 64.5653 25.294C64.7812 25.0043 65.0795 24.7784 65.4602 24.6165C65.8408 24.4517 66.2769 24.3693 66.7684 24.3693C67.4758 24.3693 68.0326 24.5227 68.4389 24.8295C68.8451 25.1335 69.1136 25.5412 69.2443 26.0526ZM73.3484 24.4545V25.4773H69.7731V24.4545H73.3484ZM70.7319 22.8864H72.0061V29.0781C72.0061 29.3253 72.043 29.5114 72.1169 29.6364C72.1907 29.7585 72.2859 29.8423 72.4024 29.8878C72.5217 29.9304 72.651 29.9517 72.7902 29.9517C72.8925 29.9517 72.9819 29.9446 73.0586 29.9304C73.1353 29.9162 73.195 29.9048 73.2376 29.8963L73.4677 30.9489C73.3939 30.9773 73.2888 31.0057 73.1524 31.0341C73.016 31.0653 72.8456 31.0824 72.641 31.0852C72.3058 31.0909 71.9933 31.0312 71.7035 30.9062C71.4138 30.7812 71.1794 30.5881 71.0004 30.3267C70.8214 30.0653 70.7319 29.7372 70.7319 29.3423V22.8864ZM76.9736 31V24.4545H78.2052V25.4943H78.2734C78.3927 25.142 78.6029 24.8651 78.904 24.6634C79.208 24.4588 79.5518 24.3565 79.9353 24.3565C80.0148 24.3565 80.1086 24.3594 80.2165 24.3651C80.3273 24.3707 80.414 24.3778 80.4765 24.3864V25.6051C80.4253 25.5909 80.3344 25.5753 80.2038 25.5582C80.0731 25.5384 79.9424 25.5284 79.8117 25.5284C79.5106 25.5284 79.2421 25.5923 79.0063 25.7202C78.7734 25.8452 78.5887 26.0199 78.4523 26.2443C78.316 26.4659 78.2478 26.7187 78.2478 27.0028V31H76.9736ZM83.6858 31.1321C83.0409 31.1321 82.4855 30.9943 82.0196 30.7188C81.5565 30.4403 81.1985 30.0497 80.9457 29.5469C80.6957 29.0412 80.5707 28.4489 80.5707 27.7699C80.5707 27.0994 80.6957 26.5085 80.9457 25.9972C81.1985 25.4858 81.5508 25.0866 82.0025 24.7997C82.4571 24.5128 82.9883 24.3693 83.5963 24.3693C83.9656 24.3693 84.3235 24.4304 84.6701 24.5526C85.0167 24.6747 85.3278 24.8665 85.6034 25.1278C85.8789 25.3892 86.0963 25.7287 86.2554 26.1463C86.4145 26.5611 86.494 27.0653 86.494 27.6591V28.1108H81.2909V27.1562H85.2454C85.2454 26.821 85.1772 26.5241 85.0409 26.2656C84.9045 26.0043 84.7128 25.7983 84.4656 25.6477C84.2213 25.4972 83.9343 25.4219 83.6048 25.4219C83.2468 25.4219 82.9343 25.5099 82.6673 25.6861C82.4031 25.8594 82.1985 26.0866 82.0537 26.3679C81.9116 26.6463 81.8406 26.9489 81.8406 27.2756V28.0213C81.8406 28.4588 81.9173 28.831 82.0707 29.1378C82.227 29.4446 82.4443 29.679 82.7227 29.8409C83.0011 30 83.3264 30.0795 83.6985 30.0795C83.94 30.0795 84.1602 30.0455 84.3591 29.9773C84.5579 29.9062 84.7298 29.8011 84.8747 29.6619C85.0196 29.5227 85.1304 29.3509 85.2071 29.1463L86.413 29.3636C86.3164 29.7187 86.1431 30.0298 85.8931 30.2969C85.646 30.5611 85.3349 30.767 84.9599 30.9148C84.5878 31.0597 84.163 31.1321 83.6858 31.1321ZM92.8396 24.4545L90.4661 31H89.1024L86.7246 24.4545H88.0925L89.7502 29.4915H89.8183L91.4717 24.4545H92.8396ZM93.5571 31V24.4545H94.8312V31H93.5571ZM94.2006 23.4446C93.979 23.4446 93.7886 23.3707 93.6295 23.223C93.4733 23.0724 93.3952 22.8935 93.3952 22.6861C93.3952 22.4759 93.4733 22.2969 93.6295 22.1491C93.7886 21.9986 93.979 21.9233 94.2006 21.9233C94.4221 21.9233 94.6111 21.9986 94.7673 22.1491C94.9264 22.2969 95.0059 22.4759 95.0059 22.6861C95.0059 22.8935 94.9264 23.0724 94.7673 23.223C94.6111 23.3707 94.4221 23.4446 94.2006 23.4446ZM98.8864 31.1321C98.2415 31.1321 97.6861 30.9943 97.2202 30.7188C96.7571 30.4403 96.3992 30.0497 96.1463 29.5469C95.8963 29.0412 95.7713 28.4489 95.7713 27.7699C95.7713 27.0994 95.8963 26.5085 96.1463 25.9972C96.3992 25.4858 96.7514 25.0866 97.2032 24.7997C97.6577 24.5128 98.1889 24.3693 98.7969 24.3693C99.1662 24.3693 99.5242 24.4304 99.8708 24.5526C100.217 24.6747 100.528 24.8665 100.804 25.1278C101.08 25.3892 101.297 25.7287 101.456 26.1463C101.615 26.5611 101.695 27.0653 101.695 27.6591V28.1108H96.4915V27.1562H100.446C100.446 26.821 100.378 26.5241 100.242 26.2656C100.105 26.0043 99.9134 25.7983 99.6662 25.6477C99.4219 25.4972 99.135 25.4219 98.8054 25.4219C98.4475 25.4219 98.135 25.5099 97.8679 25.6861C97.6037 25.8594 97.3992 26.0866 97.2543 26.3679C97.1122 26.6463 97.0412 26.9489 97.0412 27.2756V28.0213C97.0412 28.4588 97.1179 28.831 97.2713 29.1378C97.4276 29.4446 97.6449 29.679 97.9233 29.8409C98.2017 30 98.527 30.0795 98.8992 30.0795C99.1407 30.0795 99.3608 30.0455 99.5597 29.9773C99.7585 29.9062 99.9304 29.8011 100.075 29.6619C100.22 29.5227 100.331 29.3509 100.408 29.1463L101.614 29.3636C101.517 29.7187 101.344 30.0298 101.094 30.2969C100.847 30.5611 100.536 30.767 100.161 30.9148C99.7884 31.0597 99.3637 31.1321 98.8864 31.1321ZM104.036 31L102.11 24.4545H103.426L104.709 29.2614H104.773L106.06 24.4545H107.377L108.655 29.2401H108.719L109.993 24.4545H111.31L109.388 31H108.088L106.759 26.2741H106.661L105.331 31H104.036ZM114.661 31.1321C114.016 31.1321 113.46 30.9943 112.995 30.7188C112.532 30.4403 112.174 30.0497 111.921 29.5469C111.671 29.0412 111.546 28.4489 111.546 27.7699C111.546 27.0994 111.671 26.5085 111.921 25.9972C112.174 25.4858 112.526 25.0866 112.978 24.7997C113.432 24.5128 113.963 24.3693 114.571 24.3693C114.941 24.3693 115.299 24.4304 115.645 24.5526C115.992 24.6747 116.303 24.8665 116.578 25.1278C116.854 25.3892 117.071 25.7287 117.23 26.1463C117.389 26.5611 117.469 27.0653 117.469 27.6591V28.1108H112.266V27.1562H116.22C116.22 26.821 116.152 26.5241 116.016 26.2656C115.88 26.0043 115.688 25.7983 115.441 25.6477C115.196 25.4972 114.909 25.4219 114.58 25.4219C114.222 25.4219 113.909 25.5099 113.642 25.6861C113.378 25.8594 113.174 26.0866 113.029 26.3679C112.887 26.6463 112.816 26.9489 112.816 27.2756V28.0213C112.816 28.4588 112.892 28.831 113.046 29.1378C113.202 29.4446 113.419 29.679 113.698 29.8409C113.976 30 114.301 30.0795 114.674 30.0795C114.915 30.0795 115.135 30.0455 115.334 29.9773C115.533 29.9062 115.705 29.8011 115.85 29.6619C115.995 29.5227 116.105 29.3509 116.182 29.1463L117.388 29.3636C117.291 29.7187 117.118 30.0298 116.868 30.2969C116.621 30.5611 116.31 30.767 115.935 30.9148C115.563 31.0597 115.138 31.1321 114.661 31.1321ZM120.853 31.1278C120.325 31.1278 119.853 30.9929 119.438 30.723C119.026 30.4503 118.702 30.0625 118.467 29.5597C118.234 29.054 118.117 28.4474 118.117 27.7401C118.117 27.0327 118.235 26.4276 118.471 25.9247C118.71 25.4219 119.036 25.0369 119.451 24.7699C119.866 24.5028 120.336 24.3693 120.862 24.3693C121.268 24.3693 121.594 24.4375 121.842 24.5739C122.092 24.7074 122.285 24.8636 122.421 25.0426C122.56 25.2216 122.668 25.3793 122.745 25.5156H122.822V22.2727H124.096V31H122.852V29.9815H122.745C122.668 30.1207 122.558 30.2798 122.413 30.4588C122.271 30.6378 122.075 30.794 121.825 30.9276C121.575 31.0611 121.251 31.1278 120.853 31.1278ZM121.134 30.0412C121.501 30.0412 121.81 29.9446 122.063 29.7514C122.319 29.5554 122.512 29.2841 122.643 28.9375C122.776 28.5909 122.843 28.1875 122.843 27.7273C122.843 27.2727 122.778 26.875 122.647 26.5341C122.516 26.1932 122.325 25.9276 122.072 25.7372C121.819 25.5469 121.506 25.4517 121.134 25.4517C120.751 25.4517 120.431 25.5511 120.175 25.75C119.92 25.9489 119.727 26.2202 119.596 26.5639C119.468 26.9077 119.404 27.2955 119.404 27.7273C119.404 28.1648 119.469 28.5582 119.6 28.9077C119.731 29.2571 119.924 29.5341 120.18 29.7386C120.438 29.9403 120.756 30.0412 121.134 30.0412ZM43.8568 45.1321C43.2119 45.1321 42.6565 44.9943 42.1906 44.7188C41.7275 44.4403 41.3696 44.0497 41.1167 43.5469C40.8667 43.0412 40.7417 42.4489 40.7417 41.7699C40.7417 41.0994 40.8667 40.5085 41.1167 39.9972C41.3696 39.4858 41.7218 39.0866 42.1735 38.7997C42.6281 38.5128 43.1593 38.3693 43.7673 38.3693C44.1366 38.3693 44.4946 38.4304 44.8412 38.5526C45.1877 38.6747 45.4988 38.8665 45.7744 39.1278C46.05 39.3892 46.2673 39.7287 46.4264 40.1463C46.5855 40.5611 46.665 41.0653 46.665 41.6591V42.1108H41.4619V41.1562H45.4164C45.4164 40.821 45.3483 40.5241 45.2119 40.2656C45.0755 40.0043 44.8838 39.7983 44.6366 39.6477C44.3923 39.4972 44.1054 39.4219 43.7758 39.4219C43.4179 39.4219 43.1054 39.5099 42.8383 39.6861C42.5741 39.8594 42.3696 40.0866 42.2247 40.3679C42.0826 40.6463 42.0116 40.9489 42.0116 41.2756V42.0213C42.0116 42.4588 42.0883 42.831 42.2417 43.1378C42.398 43.4446 42.6153 43.679 42.8937 43.8409C43.1721 44 43.4974 44.0795 43.8696 44.0795C44.111 44.0795 44.3312 44.0455 44.5301 43.9773C44.7289 43.9062 44.9008 43.8011 45.0457 43.6619C45.1906 43.5227 45.3014 43.3509 45.3781 43.1463L46.5841 43.3636C46.4875 43.7187 46.3142 44.0298 46.0642 44.2969C45.817 44.5611 45.5059 44.767 45.1309 44.9148C44.7588 45.0597 44.3341 45.1321 43.8568 45.1321ZM54.9496 39.1108H53.62C53.5689 38.8267 53.4737 38.5767 53.3345 38.3608C53.1953 38.1449 53.0249 37.9616 52.8232 37.8111C52.6215 37.6605 52.3956 37.5469 52.1456 37.4702C51.8984 37.3935 51.6357 37.3551 51.3572 37.3551C50.8544 37.3551 50.4041 37.4815 50.0064 37.7344C49.6115 37.9872 49.299 38.358 49.0689 38.8466C48.8416 39.3352 48.728 39.9318 48.728 40.6364C48.728 41.3466 48.8416 41.946 49.0689 42.4347C49.299 42.9233 49.6129 43.2926 50.0107 43.5426C50.4084 43.7926 50.8558 43.9176 51.353 43.9176C51.6286 43.9176 51.8899 43.8807 52.1371 43.8068C52.3871 43.7301 52.6129 43.6179 52.8146 43.4702C53.0163 43.3224 53.1868 43.142 53.326 42.929C53.468 42.7131 53.5661 42.4659 53.62 42.1875L54.9496 42.1918C54.8786 42.6207 54.7408 43.0156 54.5362 43.3764C54.3345 43.7344 54.0746 44.044 53.7564 44.3054C53.4411 44.5639 53.0803 44.7642 52.674 44.9062C52.2678 45.0483 51.8246 45.1193 51.3445 45.1193C50.5888 45.1193 49.9155 44.9403 49.3246 44.5824C48.7337 44.2216 48.2678 43.706 47.9269 43.0355C47.5888 42.3651 47.4197 41.5653 47.4197 40.6364C47.4197 39.7045 47.5902 38.9048 47.9311 38.2372C48.272 37.5668 48.7379 37.0526 49.3288 36.6946C49.9197 36.3338 50.5916 36.1534 51.3445 36.1534C51.8075 36.1534 52.2394 36.2202 52.6399 36.3537C53.0433 36.4844 53.4055 36.6776 53.7266 36.9332C54.0476 37.1861 54.3132 37.4957 54.5234 37.8622C54.7337 38.2259 54.8757 38.642 54.9496 39.1108ZM58.7 45.1321C58.0864 45.1321 57.5509 44.9915 57.0935 44.7102C56.6361 44.429 56.281 44.0355 56.0282 43.5298C55.7753 43.0241 55.6489 42.4332 55.6489 41.7571C55.6489 41.0781 55.7753 40.4844 56.0282 39.9759C56.281 39.4673 56.6361 39.0724 57.0935 38.7912C57.5509 38.5099 58.0864 38.3693 58.7 38.3693C59.3137 38.3693 59.8492 38.5099 60.3066 38.7912C60.764 39.0724 61.1191 39.4673 61.3719 39.9759C61.6248 40.4844 61.7512 41.0781 61.7512 41.7571C61.7512 42.4332 61.6248 43.0241 61.3719 43.5298C61.1191 44.0355 60.764 44.429 60.3066 44.7102C59.8492 44.9915 59.3137 45.1321 58.7 45.1321ZM58.7043 44.0625C59.102 44.0625 59.4316 43.9574 59.6929 43.7472C59.9543 43.5369 60.1475 43.2571 60.2725 42.9077C60.4003 42.5582 60.4643 42.1733 60.4643 41.7528C60.4643 41.3352 60.4003 40.9517 60.2725 40.6023C60.1475 40.25 59.9543 39.9673 59.6929 39.7543C59.4316 39.5412 59.102 39.4347 58.7043 39.4347C58.3037 39.4347 57.9714 39.5412 57.7071 39.7543C57.4458 39.9673 57.2512 40.25 57.1233 40.6023C56.9983 40.9517 56.9358 41.3352 56.9358 41.7528C56.9358 42.1733 56.9983 42.5582 57.1233 42.9077C57.2512 43.2571 57.4458 43.5369 57.7071 43.7472C57.9714 43.9574 58.3037 44.0625 58.7043 44.0625ZM62.6934 45V38.4545H63.9164V39.5199H63.9974C64.1338 39.1591 64.3568 38.8778 64.6664 38.6761C64.9761 38.4716 65.3468 38.3693 65.7786 38.3693C66.2161 38.3693 66.5826 38.4716 66.8781 38.6761C67.1764 38.8807 67.3965 39.1619 67.5386 39.5199H67.6068C67.763 39.1705 68.0116 38.892 68.3525 38.6847C68.6934 38.4744 69.0997 38.3693 69.5713 38.3693C70.165 38.3693 70.6494 38.5554 71.0244 38.9276C71.4022 39.2997 71.5911 39.8608 71.5911 40.6108V45H70.317V40.7301C70.317 40.2869 70.1963 39.9659 69.9548 39.767C69.7133 39.5682 69.4249 39.4688 69.0897 39.4688C68.6749 39.4688 68.3525 39.5966 68.1224 39.8523C67.8923 40.1051 67.7772 40.4304 67.7772 40.8281V45H66.5073V40.6491C66.5073 40.294 66.3965 40.0085 66.1749 39.7926C65.9534 39.5767 65.665 39.4688 65.3099 39.4688C65.0684 39.4688 64.8454 39.5327 64.6409 39.6605C64.4392 39.7855 64.2758 39.9602 64.1508 40.1847C64.0286 40.4091 63.9676 40.669 63.9676 40.9645V45H62.6934ZM72.8189 45V38.4545H74.0419V39.5199H74.1229C74.2592 39.1591 74.4822 38.8778 74.7919 38.6761C75.1016 38.4716 75.4723 38.3693 75.9041 38.3693C76.3416 38.3693 76.7081 38.4716 77.0035 38.6761C77.3018 38.8807 77.522 39.1619 77.6641 39.5199H77.7322C77.8885 39.1705 78.1371 38.892 78.478 38.6847C78.8189 38.4744 79.2251 38.3693 79.6967 38.3693C80.2905 38.3693 80.7748 38.5554 81.1498 38.9276C81.5277 39.2997 81.7166 39.8608 81.7166 40.6108V45H80.4425V40.7301C80.4425 40.2869 80.3217 39.9659 80.0802 39.767C79.8388 39.5682 79.5504 39.4688 79.2152 39.4688C78.8004 39.4688 78.478 39.5966 78.2479 39.8523C78.0177 40.1051 77.9027 40.4304 77.9027 40.8281V45H76.6328V40.6491C76.6328 40.294 76.522 40.0085 76.3004 39.7926C76.0788 39.5767 75.7905 39.4688 75.4354 39.4688C75.1939 39.4688 74.9709 39.5327 74.7663 39.6605C74.5646 39.7855 74.4013 39.9602 74.2763 40.1847C74.1541 40.4091 74.093 40.669 74.093 40.9645V45H72.8189ZM85.7654 45.1321C85.1205 45.1321 84.5651 44.9943 84.0992 44.7188C83.6361 44.4403 83.2782 44.0497 83.0253 43.5469C82.7753 43.0412 82.6503 42.4489 82.6503 41.7699C82.6503 41.0994 82.7753 40.5085 83.0253 39.9972C83.2782 39.4858 83.6304 39.0866 84.0821 38.7997C84.5367 38.5128 85.0679 38.3693 85.6759 38.3693C86.0452 38.3693 86.4032 38.4304 86.7497 38.5526C87.0963 38.6747 87.4074 38.8665 87.683 39.1278C87.9586 39.3892 88.1759 39.7287 88.335 40.1463C88.4941 40.5611 88.5736 41.0653 88.5736 41.6591V42.1108H83.3705V41.1562H87.325C87.325 40.821 87.2568 40.5241 87.1205 40.2656C86.9841 40.0043 86.7924 39.7983 86.5452 39.6477C86.3009 39.4972 86.014 39.4219 85.6844 39.4219C85.3265 39.4219 85.014 39.5099 84.7469 39.6861C84.4827 39.8594 84.2782 40.0866 84.1333 40.3679C83.9912 40.6463 83.9202 40.9489 83.9202 41.2756V42.0213C83.9202 42.4588 83.9969 42.831 84.1503 43.1378C84.3066 43.4446 84.5239 43.679 84.8023 43.8409C85.0807 44 85.406 44.0795 85.7782 44.0795C86.0196 44.0795 86.2398 44.0455 86.4387 43.9773C86.6375 43.9062 86.8094 43.8011 86.9543 43.6619C87.0992 43.5227 87.21 43.3509 87.2867 43.1463L88.4926 43.3636C88.3961 43.7187 88.2228 44.0298 87.9728 44.2969C87.7256 44.5611 87.4145 44.767 87.0395 44.9148C86.6674 45.0597 86.2426 45.1321 85.7654 45.1321ZM89.5073 45V38.4545H90.7389V39.4943H90.807C90.9264 39.142 91.1366 38.8651 91.4377 38.6634C91.7417 38.4588 92.0854 38.3565 92.469 38.3565C92.5485 38.3565 92.6423 38.3594 92.7502 38.3651C92.861 38.3707 92.9477 38.3778 93.0102 38.3864V39.6051C92.959 39.5909 92.8681 39.5753 92.7374 39.5582C92.6067 39.5384 92.4761 39.5284 92.3454 39.5284C92.0442 39.5284 91.7758 39.5923 91.54 39.7202C91.307 39.8452 91.1224 40.0199 90.986 40.2443C90.8496 40.4659 90.7815 40.7187 90.7815 41.0028V45H89.5073ZM96.1555 45.1321C95.522 45.1321 94.9765 44.9886 94.5192 44.7017C94.0646 44.4119 93.7152 44.0128 93.4709 43.5043C93.2265 42.9957 93.1044 42.4134 93.1044 41.7571C93.1044 41.0923 93.2294 40.5057 93.4794 39.9972C93.7294 39.4858 94.0817 39.0866 94.5362 38.7997C94.9907 38.5128 95.5263 38.3693 96.1427 38.3693C96.6399 38.3693 97.0831 38.4616 97.4723 38.6463C97.8615 38.8281 98.1754 39.0838 98.414 39.4134C98.6555 39.7429 98.799 40.1278 98.8444 40.5682H97.6044C97.5362 40.2614 97.3799 39.9972 97.1356 39.7756C96.8942 39.554 96.5703 39.4432 96.164 39.4432C95.8089 39.4432 95.4978 39.5369 95.2308 39.7244C94.9666 39.9091 94.7606 40.1733 94.6129 40.517C94.4652 40.858 94.3913 41.2614 94.3913 41.7273C94.3913 42.2045 94.4638 42.6165 94.6086 42.9631C94.7535 43.3097 94.9581 43.5781 95.2223 43.7685C95.4893 43.9588 95.8032 44.054 96.164 44.054C96.4055 44.054 96.6243 44.0099 96.8203 43.9219C97.0192 43.831 97.1853 43.7017 97.3189 43.5341C97.4552 43.3665 97.5504 43.1648 97.6044 42.929H98.8444C98.799 43.3523 98.6612 43.7301 98.4311 44.0625C98.201 44.3949 97.8927 44.6562 97.5064 44.8466C97.1228 45.0369 96.6726 45.1321 96.1555 45.1321ZM102.548 45.1321C101.903 45.1321 101.348 44.9943 100.882 44.7188C100.419 44.4403 100.061 44.0497 99.808 43.5469C99.558 43.0412 99.433 42.4489 99.433 41.7699C99.433 41.0994 99.558 40.5085 99.808 39.9972C100.061 39.4858 100.413 39.0866 100.865 38.7997C101.319 38.5128 101.851 38.3693 102.459 38.3693C102.828 38.3693 103.186 38.4304 103.532 38.5526C103.879 38.6747 104.19 38.8665 104.466 39.1278C104.741 39.3892 104.959 39.7287 105.118 40.1463C105.277 40.5611 105.356 41.0653 105.356 41.6591V42.1108H100.153V41.1562H104.108C104.108 40.821 104.04 40.5241 103.903 40.2656C103.767 40.0043 103.575 39.7983 103.328 39.6477C103.084 39.4972 102.797 39.4219 102.467 39.4219C102.109 39.4219 101.797 39.5099 101.53 39.6861C101.265 39.8594 101.061 40.0866 100.916 40.3679C100.774 40.6463 100.703 40.9489 100.703 41.2756V42.0213C100.703 42.4588 100.78 42.831 100.933 43.1378C101.089 43.4446 101.307 43.679 101.585 43.8409C101.863 44 102.189 44.0795 102.561 44.0795C102.802 44.0795 103.022 44.0455 103.221 43.9773C103.42 43.9062 103.592 43.8011 103.737 43.6619C103.882 43.5227 103.993 43.3509 104.069 43.1463L105.275 43.3636C105.179 43.7187 105.005 44.0298 104.755 44.2969C104.508 44.5611 104.197 44.767 103.822 44.9148C103.45 45.0597 103.025 45.1321 102.548 45.1321ZM111.436 45.1278C110.908 45.1278 110.436 44.9929 110.021 44.723C109.609 44.4503 109.285 44.0625 109.05 43.5597C108.817 43.054 108.7 42.4474 108.7 41.7401C108.7 41.0327 108.818 40.4276 109.054 39.9247C109.293 39.4219 109.619 39.0369 110.034 38.7699C110.449 38.5028 110.919 38.3693 111.445 38.3693C111.851 38.3693 112.178 38.4375 112.425 38.5739C112.675 38.7074 112.868 38.8636 113.004 39.0426C113.143 39.2216 113.251 39.3793 113.328 39.5156H113.405V36.2727H114.679V45H113.435V43.9815H113.328C113.251 44.1207 113.141 44.2798 112.996 44.4588C112.854 44.6378 112.658 44.794 112.408 44.9276C112.158 45.0611 111.834 45.1278 111.436 45.1278ZM111.717 44.0412C112.084 44.0412 112.393 43.9446 112.646 43.7514C112.902 43.5554 113.095 43.2841 113.226 42.9375C113.359 42.5909 113.426 42.1875 113.426 41.7273C113.426 41.2727 113.361 40.875 113.23 40.5341C113.099 40.1932 112.908 39.9276 112.655 39.7372C112.402 39.5469 112.089 39.4517 111.717 39.4517C111.334 39.4517 111.014 39.5511 110.758 39.75C110.503 39.9489 110.31 40.2202 110.179 40.5639C110.051 40.9077 109.987 41.2955 109.987 41.7273C109.987 42.1648 110.053 42.5582 110.183 42.9077C110.314 43.2571 110.507 43.5341 110.763 43.7386C111.021 43.9403 111.339 44.0412 111.717 44.0412ZM118.838 45.1321C118.194 45.1321 117.638 44.9943 117.172 44.7188C116.709 44.4403 116.351 44.0497 116.098 43.5469C115.848 43.0412 115.723 42.4489 115.723 41.7699C115.723 41.0994 115.848 40.5085 116.098 39.9972C116.351 39.4858 116.704 39.0866 117.155 38.7997C117.61 38.5128 118.141 38.3693 118.749 38.3693C119.118 38.3693 119.476 38.4304 119.823 38.5526C120.169 38.6747 120.481 38.8665 120.756 39.1278C121.032 39.3892 121.249 39.7287 121.408 40.1463C121.567 40.5611 121.647 41.0653 121.647 41.6591V42.1108H116.444V41.1562H120.398C120.398 40.821 120.33 40.5241 120.194 40.2656C120.057 40.0043 119.865 39.7983 119.618 39.6477C119.374 39.4972 119.087 39.4219 118.758 39.4219C118.4 39.4219 118.087 39.5099 117.82 39.6861C117.556 39.8594 117.351 40.0866 117.206 40.3679C117.064 40.6463 116.993 40.9489 116.993 41.2756V42.0213C116.993 42.4588 117.07 42.831 117.223 43.1378C117.38 43.4446 117.597 43.679 117.875 43.8409C118.154 44 118.479 44.0795 118.851 44.0795C119.093 44.0795 119.313 44.0455 119.512 43.9773C119.711 43.9062 119.883 43.8011 120.027 43.6619C120.172 43.5227 120.283 43.3509 120.36 43.1463L121.566 43.3636C121.469 43.7187 121.296 44.0298 121.046 44.2969C120.799 44.5611 120.488 44.767 120.113 44.9148C119.74 45.0597 119.316 45.1321 118.838 45.1321ZM127.992 38.4545L125.619 45H124.255L121.877 38.4545H123.245L124.903 43.4915H124.971L126.624 38.4545H127.992ZM129.139 45.081C128.906 45.081 128.706 44.9986 128.538 44.8338C128.371 44.6662 128.287 44.4645 128.287 44.2287C128.287 43.9957 128.371 43.7969 128.538 43.6321C128.706 43.4645 128.906 43.3807 129.139 43.3807C129.372 43.3807 129.572 43.4645 129.74 43.6321C129.908 43.7969 129.991 43.9957 129.991 44.2287C129.991 44.3849 129.952 44.5284 129.872 44.6591C129.795 44.7869 129.693 44.8892 129.565 44.9659C129.437 45.0426 129.295 45.081 129.139 45.081Z" fill="#C5C5CB"/>
<path d="M59.0872 59.2031V58.6364H62.4643V59.2031H61.1028V63H60.4465V59.2031H59.0872ZM63.6165 61.0568V63H62.9794V58.6364H63.608V60.2599H63.6485C63.7252 60.0838 63.8424 59.9439 64 59.8402C64.1577 59.7365 64.3637 59.6847 64.6179 59.6847C64.8424 59.6847 65.0384 59.7308 65.206 59.8232C65.375 59.9155 65.5057 60.0533 65.598 60.2365C65.6918 60.4183 65.7387 60.6456 65.7387 60.9183V63H65.1016V60.995C65.1016 60.755 65.0398 60.5689 64.9162 60.4368C64.7926 60.3033 64.6208 60.2365 64.4006 60.2365C64.25 60.2365 64.1151 60.2685 63.9958 60.3324C63.8779 60.3963 63.7848 60.4901 63.7167 60.6136C63.6499 60.7358 63.6165 60.8835 63.6165 61.0568ZM67.8193 63.0661C67.4969 63.0661 67.2192 62.9972 66.9862 62.8594C66.7547 62.7202 66.5757 62.5249 66.4493 62.2734C66.3243 62.0206 66.2618 61.7244 66.2618 61.3849C66.2618 61.0497 66.3243 60.7543 66.4493 60.4986C66.5757 60.2429 66.7519 60.0433 66.9777 59.8999C67.205 59.7564 67.4706 59.6847 67.7746 59.6847C67.9592 59.6847 68.1382 59.7152 68.3115 59.7763C68.4848 59.8374 68.6403 59.9332 68.7781 60.0639C68.9159 60.1946 69.0246 60.3643 69.1041 60.5732C69.1837 60.7805 69.2234 61.0327 69.2234 61.3295V61.5554H66.6219V61.0781H68.5992C68.5992 60.9105 68.5651 60.7621 68.4969 60.6328C68.4287 60.5021 68.3328 60.3991 68.2092 60.3239C68.0871 60.2486 67.9436 60.2109 67.7788 60.2109C67.5999 60.2109 67.4436 60.255 67.3101 60.343C67.178 60.4297 67.0757 60.5433 67.0033 60.6839C66.9323 60.8232 66.8967 60.9744 66.8967 61.1378V61.5107C66.8967 61.7294 66.9351 61.9155 67.0118 62.0689C67.0899 62.2223 67.1986 62.3395 67.3378 62.4205C67.477 62.5 67.6396 62.5398 67.8257 62.5398C67.9465 62.5398 68.0565 62.5227 68.156 62.4886C68.2554 62.4531 68.3413 62.4006 68.4138 62.331C68.4862 62.2614 68.5416 62.1754 68.58 62.0732L69.183 62.1818C69.1347 62.3594 69.048 62.5149 68.923 62.6484C68.7994 62.7805 68.6439 62.8835 68.4564 62.9574C68.2703 63.0298 68.058 63.0661 67.8193 63.0661ZM71.2093 58.6364H72.0083L73.3975 62.0284H73.4487L74.8379 58.6364H75.6369V63H75.0105V59.8423H74.97L73.683 62.9936H73.1632L71.8762 59.8402H71.8357V63H71.2093V58.6364ZM77.3154 63.0724C77.108 63.0724 76.9205 63.0341 76.7529 62.9574C76.5853 62.8793 76.4524 62.7663 76.3544 62.6186C76.2578 62.4709 76.2095 62.2898 76.2095 62.0753C76.2095 61.8906 76.2451 61.7386 76.3161 61.6193C76.3871 61.5 76.483 61.4055 76.6037 61.3359C76.7245 61.2663 76.8594 61.2138 77.0086 61.1783C77.1577 61.1428 77.3097 61.1158 77.4645 61.0973C77.6605 61.0746 77.8196 61.0561 77.9418 61.0419C78.064 61.0263 78.1527 61.0014 78.2081 60.9673C78.2635 60.9332 78.2912 60.8778 78.2912 60.8011V60.7862C78.2912 60.6001 78.2387 60.456 78.1336 60.3537C78.0299 60.2514 77.875 60.2003 77.6691 60.2003C77.4546 60.2003 77.2855 60.2479 77.162 60.343C77.0398 60.4368 76.9553 60.5412 76.9084 60.6562L76.3097 60.5199C76.3807 60.321 76.4844 60.1605 76.6208 60.0384C76.7586 59.9148 76.9169 59.8253 77.0959 59.7699C77.2749 59.7131 77.4631 59.6847 77.6605 59.6847C77.7912 59.6847 77.9297 59.7003 78.076 59.7315C78.2238 59.7614 78.3615 59.8168 78.4894 59.8977C78.6186 59.9787 78.7245 60.0945 78.8068 60.245C78.8892 60.3942 78.9304 60.5881 78.9304 60.8267V63H78.3083V62.5526H78.2827C78.2415 62.6349 78.1797 62.7159 78.0973 62.7955C78.0149 62.875 77.9091 62.9411 77.7799 62.9936C77.6506 63.0462 77.4958 63.0724 77.3154 63.0724ZM77.4539 62.5611C77.63 62.5611 77.7806 62.5263 77.9056 62.4567C78.032 62.3871 78.1279 62.2962 78.1932 62.1839C78.26 62.0703 78.2934 61.9489 78.2934 61.8196V61.3977C78.2706 61.4205 78.2266 61.4418 78.1613 61.4616C78.0973 61.4801 78.0242 61.4964 77.9418 61.5107C77.8594 61.5234 77.7791 61.5355 77.701 61.5469C77.6229 61.5568 77.5576 61.5653 77.505 61.5724C77.3814 61.5881 77.2685 61.6143 77.1662 61.6513C77.0654 61.6882 76.9844 61.7415 76.9233 61.8111C76.8637 61.8793 76.8338 61.9702 76.8338 62.0838C76.8338 62.2415 76.8921 62.3608 77.0086 62.4418C77.125 62.5213 77.2735 62.5611 77.4539 62.5611ZM80.236 61.0568V63H79.599V59.7273H80.2105V60.2599H80.251C80.3262 60.0866 80.4441 59.9474 80.6047 59.8423C80.7666 59.7372 80.9704 59.6847 81.2162 59.6847C81.4392 59.6847 81.6345 59.7315 81.8021 59.8253C81.9697 59.9176 82.0997 60.0554 82.192 60.2386C82.2843 60.4219 82.3305 60.6484 82.3305 60.9183V63H81.6934V60.995C81.6934 60.7578 81.6316 60.5724 81.5081 60.4389C81.3845 60.304 81.2147 60.2365 80.9988 60.2365C80.8511 60.2365 80.7197 60.2685 80.6047 60.3324C80.491 60.3963 80.4008 60.4901 80.3341 60.6136C80.2687 60.7358 80.236 60.8835 80.236 61.0568ZM83.0049 63V59.7273H83.642V63H83.0049ZM83.3266 59.2223C83.2158 59.2223 83.1207 59.1854 83.0411 59.1115C82.963 59.0362 82.9239 58.9467 82.9239 58.843C82.9239 58.7379 82.963 58.6484 83.0411 58.5746C83.1207 58.4993 83.2158 58.4616 83.3266 58.4616C83.4374 58.4616 83.5319 58.4993 83.61 58.5746C83.6896 58.6484 83.7293 58.7379 83.7293 58.843C83.7293 58.9467 83.6896 59.0362 83.61 59.1115C83.5319 59.1854 83.4374 59.2223 83.3266 59.2223ZM85.8766 59.7273V60.2386H84.0271V59.7273H85.8766ZM84.5342 63V59.348C84.5342 59.1435 84.579 58.9737 84.6685 58.8388C84.758 58.7024 84.8766 58.6009 85.0243 58.5341C85.172 58.4659 85.3325 58.4318 85.5058 58.4318C85.6337 58.4318 85.7431 58.4425 85.834 58.4638C85.9249 58.4837 85.9923 58.5021 86.0364 58.5192L85.8872 59.0348C85.8574 59.0263 85.819 59.0163 85.7722 59.005C85.7253 58.9922 85.6685 58.9858 85.6017 58.9858C85.4469 58.9858 85.3361 59.0241 85.2693 59.1009C85.204 59.1776 85.1713 59.2884 85.1713 59.4332V63H84.5342ZM87.6355 63.0661C87.3131 63.0661 87.0354 62.9972 86.8024 62.8594C86.5709 62.7202 86.3919 62.5249 86.2655 62.2734C86.1405 62.0206 86.078 61.7244 86.078 61.3849C86.078 61.0497 86.1405 60.7543 86.2655 60.4986C86.3919 60.2429 86.568 60.0433 86.7939 59.8999C87.0212 59.7564 87.2868 59.6847 87.5908 59.6847C87.7754 59.6847 87.9544 59.7152 88.1277 59.7763C88.301 59.8374 88.4565 59.9332 88.5943 60.0639C88.7321 60.1946 88.8408 60.3643 88.9203 60.5732C88.9998 60.7805 89.0396 61.0327 89.0396 61.3295V61.5554H86.4381V61.0781H88.4153C88.4153 60.9105 88.3812 60.7621 88.3131 60.6328C88.2449 60.5021 88.149 60.3991 88.0254 60.3239C87.9033 60.2486 87.7598 60.2109 87.595 60.2109C87.416 60.2109 87.2598 60.255 87.1263 60.343C86.9942 60.4297 86.8919 60.5433 86.8194 60.6839C86.7484 60.8232 86.7129 60.9744 86.7129 61.1378V61.5107C86.7129 61.7294 86.7513 61.9155 86.828 62.0689C86.9061 62.2223 87.0148 62.3395 87.154 62.4205C87.2932 62.5 87.4558 62.5398 87.6419 62.5398C87.7626 62.5398 87.8727 62.5227 87.9721 62.4886C88.0716 62.4531 88.1575 62.4006 88.23 62.331C88.3024 62.2614 88.3578 62.1754 88.3962 62.0732L88.9991 62.1818C88.9508 62.3594 88.8642 62.5149 88.7392 62.6484C88.6156 62.7805 88.4601 62.8835 88.2726 62.9574C88.0865 63.0298 87.8741 63.0661 87.6355 63.0661ZM92.0189 60.5263L91.4415 60.6286C91.4173 60.5547 91.379 60.4844 91.3264 60.4176C91.2753 60.3509 91.2057 60.2962 91.1176 60.2536C91.0295 60.2109 90.9195 60.1896 90.7874 60.1896C90.607 60.1896 90.4564 60.2301 90.3356 60.3111C90.2149 60.3906 90.1545 60.4936 90.1545 60.62C90.1545 60.7294 90.195 60.8175 90.276 60.8842C90.357 60.951 90.4876 61.0057 90.668 61.0483L91.1879 61.1676C91.4891 61.2372 91.7135 61.3445 91.8612 61.4893C92.0089 61.6342 92.0828 61.8224 92.0828 62.054C92.0828 62.25 92.026 62.4247 91.9124 62.5781C91.8001 62.7301 91.6432 62.8494 91.4415 62.9361C91.2412 63.0227 91.0089 63.0661 90.7447 63.0661C90.3783 63.0661 90.0793 62.9879 89.8477 62.8317C89.6162 62.674 89.4741 62.4503 89.4216 62.1605L90.0374 62.0668C90.0757 62.2273 90.1545 62.3487 90.2739 62.4311C90.3932 62.5121 90.5487 62.5526 90.7405 62.5526C90.9493 62.5526 91.1162 62.5092 91.2412 62.4226C91.3662 62.3345 91.4287 62.2273 91.4287 62.1009C91.4287 61.9986 91.3903 61.9126 91.3136 61.843C91.2383 61.7734 91.1226 61.7209 90.9663 61.6854L90.4124 61.5639C90.107 61.4943 89.8811 61.3835 89.7348 61.2315C89.5899 61.0795 89.5175 60.8871 89.5175 60.6541C89.5175 60.4609 89.5714 60.2919 89.6794 60.147C89.7874 60.0021 89.9365 59.8892 90.1268 59.8082C90.3172 59.7259 90.5352 59.6847 90.781 59.6847C91.1347 59.6847 91.4131 59.7614 91.6162 59.9148C91.8193 60.0668 91.9535 60.2706 92.0189 60.5263ZM94.131 59.7273V60.2386H92.3433V59.7273H94.131ZM92.8227 58.9432H93.4598V62.0391C93.4598 62.1626 93.4783 62.2557 93.5152 62.3182C93.5521 62.3793 93.5997 62.4212 93.658 62.4439C93.7176 62.4652 93.7822 62.4759 93.8518 62.4759C93.903 62.4759 93.9477 62.4723 93.9861 62.4652C94.0244 62.4581 94.0543 62.4524 94.0756 62.4482L94.1906 62.9744C94.1537 62.9886 94.1011 63.0028 94.033 63.017C93.9648 63.0327 93.8795 63.0412 93.7773 63.0426C93.6097 63.0455 93.4534 63.0156 93.3085 62.9531C93.1636 62.8906 93.0465 62.794 92.957 62.6634C92.8675 62.5327 92.8227 62.3686 92.8227 62.1712V58.9432ZM95.4845 62.4034L95.4526 62.6357C95.4313 62.8061 95.395 62.9837 95.3439 63.1683C95.2942 63.3544 95.2423 63.527 95.1884 63.6861C95.1358 63.8452 95.0925 63.9716 95.0584 64.0653H94.6067C94.6252 63.9773 94.6507 63.858 94.6834 63.7074C94.7161 63.5582 94.748 63.3913 94.7793 63.2067C94.8105 63.022 94.834 62.8338 94.8496 62.642L94.8709 62.4034H95.4845ZM97.5333 63V62.5227L99.0098 60.9929C99.1675 60.8267 99.2975 60.6811 99.3997 60.5561C99.5034 60.4297 99.5808 60.3097 99.632 60.196C99.6831 60.0824 99.7087 59.9616 99.7087 59.8338C99.7087 59.6889 99.6746 59.5639 99.6064 59.4588C99.5382 59.3523 99.4452 59.2706 99.3273 59.2138C99.2094 59.1555 99.0766 59.1264 98.9289 59.1264C98.7726 59.1264 98.6362 59.1584 98.5198 59.2223C98.4033 59.2862 98.3138 59.3764 98.2513 59.4929C98.1888 59.6094 98.1576 59.7457 98.1576 59.902H97.529C97.529 59.6364 97.5901 59.4041 97.7122 59.2053C97.8344 59.0064 98.002 58.8523 98.2151 58.7429C98.4281 58.6321 98.6703 58.5767 98.9416 58.5767C99.2158 58.5767 99.4573 58.6314 99.6661 58.7408C99.8763 58.8487 100.04 58.9964 100.158 59.1839C100.276 59.37 100.335 59.5803 100.335 59.8146C100.335 59.9766 100.305 60.1349 100.243 60.2898C100.184 60.4446 100.079 60.6172 99.9303 60.8075C99.7811 60.9964 99.5737 61.2259 99.3081 61.4957L98.4409 62.4034V62.4354H100.405V63H97.5333ZM102.552 63.0724C102.215 63.071 101.928 62.9822 101.689 62.8061C101.451 62.63 101.268 62.3736 101.142 62.0369C101.015 61.7003 100.952 61.2947 100.952 60.8203C100.952 60.3473 101.015 59.9432 101.142 59.608C101.269 59.2727 101.453 59.017 101.691 58.8409C101.931 58.6648 102.218 58.5767 102.552 58.5767C102.886 58.5767 103.172 58.6655 103.411 58.843C103.649 59.0192 103.832 59.2749 103.958 59.6101C104.086 59.9439 104.15 60.3473 104.15 60.8203C104.15 61.2962 104.087 61.7024 103.961 62.0391C103.834 62.3743 103.652 62.6307 103.413 62.8082C103.174 62.9844 102.887 63.0724 102.552 63.0724ZM102.552 62.5036C102.848 62.5036 103.078 62.3594 103.245 62.071C103.412 61.7827 103.496 61.3658 103.496 60.8203C103.496 60.4581 103.458 60.152 103.381 59.902C103.306 59.6506 103.197 59.4602 103.055 59.331C102.914 59.2003 102.747 59.1349 102.552 59.1349C102.258 59.1349 102.027 59.2798 101.86 59.5696C101.692 59.8594 101.608 60.2763 101.606 60.8203C101.606 61.1839 101.644 61.4915 101.719 61.7429C101.796 61.9929 101.904 62.1825 102.045 62.3118C102.186 62.4396 102.355 62.5036 102.552 62.5036ZM104.726 63V62.5227L106.203 60.9929C106.36 60.8267 106.49 60.6811 106.592 60.5561C106.696 60.4297 106.774 60.3097 106.825 60.196C106.876 60.0824 106.901 59.9616 106.901 59.8338C106.901 59.6889 106.867 59.5639 106.799 59.4588C106.731 59.3523 106.638 59.2706 106.52 59.2138C106.402 59.1555 106.269 59.1264 106.122 59.1264C105.965 59.1264 105.829 59.1584 105.713 59.2223C105.596 59.2862 105.507 59.3764 105.444 59.4929C105.382 59.6094 105.35 59.7457 105.35 59.902H104.722C104.722 59.6364 104.783 59.4041 104.905 59.2053C105.027 59.0064 105.195 58.8523 105.408 58.7429C105.621 58.6321 105.863 58.5767 106.134 58.5767C106.409 58.5767 106.65 58.6314 106.859 58.7408C107.069 58.8487 107.233 58.9964 107.351 59.1839C107.469 59.37 107.528 59.5803 107.528 59.8146C107.528 59.9766 107.497 60.1349 107.436 60.2898C107.377 60.4446 107.272 60.6172 107.123 60.8075C106.974 60.9964 106.766 61.2259 106.501 61.4957L105.634 62.4034V62.4354H107.598V63H104.726ZM109.745 63.0597C109.452 63.0597 109.191 63.0092 108.961 62.9084C108.732 62.8075 108.551 62.6676 108.417 62.4886C108.285 62.3082 108.214 62.0994 108.204 61.8622H108.873C108.882 61.9915 108.925 62.1037 109.003 62.1989C109.083 62.2926 109.187 62.3651 109.314 62.4162C109.442 62.4673 109.584 62.4929 109.741 62.4929C109.912 62.4929 110.064 62.4631 110.197 62.4034C110.33 62.3437 110.434 62.2607 110.51 62.1541C110.585 62.0462 110.623 61.9219 110.623 61.7812C110.623 61.6349 110.585 61.5064 110.51 61.3956C110.436 61.2834 110.327 61.1953 110.184 61.1314C110.042 61.0675 109.87 61.0355 109.668 61.0355H109.3V60.4986H109.668C109.83 60.4986 109.972 60.4695 110.094 60.4112C110.218 60.353 110.314 60.272 110.384 60.1683C110.454 60.0632 110.488 59.9403 110.488 59.7997C110.488 59.6648 110.458 59.5476 110.397 59.4482C110.337 59.3473 110.252 59.2685 110.141 59.2116C110.032 59.1548 109.903 59.1264 109.753 59.1264C109.611 59.1264 109.479 59.1527 109.355 59.2053C109.233 59.2564 109.133 59.3303 109.057 59.4268C108.98 59.522 108.939 59.6364 108.933 59.7699H108.296C108.303 59.5341 108.373 59.3267 108.505 59.1477C108.638 58.9687 108.814 58.8288 109.033 58.728C109.252 58.6271 109.495 58.5767 109.762 58.5767C110.042 58.5767 110.283 58.6314 110.486 58.7408C110.691 58.8487 110.849 58.9929 110.959 59.1733C111.072 59.3537 111.127 59.5511 111.126 59.7656C111.127 60.0099 111.059 60.2173 110.921 60.3878C110.785 60.5582 110.603 60.6726 110.376 60.7308V60.7649C110.665 60.8089 110.89 60.924 111.049 61.1101C111.209 61.2962 111.289 61.527 111.287 61.8026C111.289 62.0426 111.222 62.2578 111.087 62.4482C110.954 62.6385 110.771 62.7884 110.54 62.8977C110.308 63.0057 110.043 63.0597 109.745 63.0597Z" fill="#AEAEB7"/>
<path d="M25.7668 58.3112C25.3898 58.0208 25.0127 57.8031 24.6357 57.6579C24.2587 57.5128 23.8816 57.4402 23.4292 57.4402C22.5997 57.3676 21.6948 57.5854 20.7899 57.7305C19.885 57.9483 19.0555 58.166 18.4522 58.3837C17.8489 58.6015 17.3965 58.7466 17.3965 58.7466C17.3965 58.7466 17.7735 58.9644 18.4522 59.2547C19.0555 59.545 19.9604 59.8354 20.9407 59.9805C21.921 60.1257 22.9013 60.1257 23.8062 59.9079C24.7865 59.6902 25.5406 59.1821 25.7668 58.3112Z" fill="#34343D"/>
<path d="M23.1298 54.608C23.5069 55.3338 23.9593 56.0596 24.638 56.4951C24.9396 56.7128 25.3167 56.9305 25.6937 57.0031C26.0708 57.0757 26.5232 57.0757 26.9003 56.858C26.9003 55.987 26.674 55.2612 26.297 54.6805C25.92 54.0999 25.3167 53.5193 24.7888 53.0838C24.1856 52.6483 23.6577 52.2854 23.2053 51.9951C22.7528 51.7047 22.4512 51.5596 22.4512 51.5596C22.4512 51.5596 22.4512 51.6321 22.4512 51.8499C22.4512 51.995 22.5266 52.2128 22.5266 52.5031C22.602 53.0838 22.7528 53.8096 23.1298 54.608Z" fill="#34343D"/>
<path d="M16.7932 56.5686C17.6981 56.496 18.4522 56.2057 18.98 55.4799C18.5276 54.7541 17.8489 54.3186 17.0948 54.1009C16.3407 53.8831 15.3604 53.8105 14.4555 53.8105C13.5506 53.8105 12.6457 53.8105 11.9671 53.8105C11.2884 53.8105 10.8359 53.8105 10.8359 53.8105C10.8359 53.8105 10.9113 53.8831 11.0622 54.0283C11.213 54.1734 11.4392 54.3912 11.7408 54.6089C12.3441 55.0444 13.0982 55.5525 14.0031 55.988C14.9834 56.3509 15.9637 56.5686 16.7932 56.5686Z" fill="#34343D"/>
<path d="M18.4534 53.23C18.9812 53.8107 19.6599 54.2462 20.4894 54.1736C20.8665 53.3752 20.7911 52.5768 20.5648 51.851C20.3386 51.1252 19.8862 50.472 19.5091 49.8913C19.0567 49.3107 18.6796 48.8752 18.3026 48.5123C18.1518 48.3671 18.001 48.222 17.9255 48.0768C17.8501 48.0042 17.7747 47.9316 17.7747 47.9316C17.7747 47.9316 17.7747 48.0042 17.6993 48.1494C17.6239 48.2945 17.6239 48.5123 17.5485 48.8026C17.4731 49.3833 17.3977 50.1091 17.5485 50.9075C17.6993 51.7784 18.0009 52.5768 18.4534 53.23Z" fill="#34343D"/>
<path d="M7.74468 47.2054C7.14141 46.9876 6.68896 46.915 6.68896 46.915C6.68896 46.915 6.76436 46.9876 6.83977 47.2054C6.91518 47.3505 7.06599 47.5683 7.21681 47.8586C7.36763 48.1489 7.59387 48.4392 7.82009 48.8021C7.97091 48.9473 8.04632 49.165 8.19713 49.3102L8.27252 49.4554L8.42335 49.6005C8.49876 49.6731 8.57416 49.8183 8.64957 49.8908C9.40365 50.6892 10.3086 51.3425 11.1381 51.6328C12.043 51.9231 12.8724 51.8505 13.6265 51.2699C13.4003 50.3989 12.9479 49.8183 12.2692 49.3828C12.1184 49.2376 11.8921 49.165 11.7413 49.0199C11.5905 48.8747 11.3643 48.8021 11.1381 48.657C10.9118 48.5118 10.761 48.4392 10.5348 48.2941C10.3086 48.2215 10.1577 48.0763 9.93152 48.0037C9.17743 47.6408 8.34795 47.3505 7.74468 47.2054Z" fill="#34343D"/>
<path d="M13.853 48.6571C14.0792 49.3829 14.607 49.9636 15.4365 50.1813C16.0398 49.5281 16.1906 48.7297 16.266 48.0765C16.3414 47.3507 16.1906 46.6975 16.1152 46.1168C16.1152 45.8991 15.9644 45.4636 15.889 45.1733C15.8136 44.8829 15.6628 44.5926 15.5874 44.3023C15.512 44.0846 15.4366 43.8668 15.3611 43.7217C15.2857 43.5765 15.2857 43.5039 15.2857 43.5039C15.2857 43.5039 15.2103 43.5765 15.1349 43.7217C15.0595 43.8668 14.9087 44.0846 14.7579 44.3023C14.4562 44.8104 14.1546 45.5362 13.9284 46.262C13.853 46.4797 13.853 46.6249 13.7776 46.8426C13.7022 47.0604 13.7021 47.2055 13.7021 47.4233C13.7021 47.641 13.7021 47.7862 13.7021 48.0039C13.7021 48.2942 13.7776 48.512 13.853 48.6571Z" fill="#34343D"/>
<path d="M6.84092 44.2292C6.99174 44.3743 7.14256 44.5195 7.29337 44.6647C7.44419 44.8098 7.67043 44.955 7.82124 45.0276C8.57533 45.463 9.3294 45.6808 10.2343 45.3905C10.3097 44.955 10.3097 44.5921 10.1589 44.2292C10.0835 44.084 10.0081 43.8663 9.93267 43.7211C9.85726 43.5759 9.70645 43.4308 9.63104 43.213C9.17859 42.5598 8.42451 42.0518 7.74583 41.5437C7.06715 41.0356 6.31306 40.6001 5.70979 40.3098C5.10653 40.0195 4.72949 39.8018 4.72949 39.8018C4.72949 39.8018 4.7295 39.8743 4.80491 40.0921C4.88031 40.3098 4.95571 40.5276 5.03112 40.8179C5.25735 41.3985 5.55898 42.2695 6.08684 42.9953C6.23765 43.5034 6.53929 43.8663 6.84092 44.2292Z" fill="#34343D"/>
<path d="M11.5145 43.867C11.6653 44.2299 11.967 44.5202 12.2686 44.738C13.0227 44.3025 13.4751 43.6493 13.7768 42.9235C13.8522 42.7783 13.8522 42.5605 13.9276 42.4154C13.9276 42.3428 13.9276 42.1976 14.003 42.1251C14.003 42.0525 14.003 41.9073 14.0784 41.8347C14.1538 41.4718 14.1538 41.1089 14.1538 40.746C14.0784 40.0202 14.0784 39.367 13.9276 38.8589C13.8522 38.6412 13.8522 38.4235 13.7768 38.2783C13.7768 38.1331 13.7014 38.0605 13.7014 38.0605C13.7014 38.0605 13.626 38.1331 13.4751 38.2783C13.3243 38.4235 13.1735 38.5686 13.0227 38.7864C12.6456 39.2218 12.1932 39.8751 11.8161 40.6009C11.4391 41.3267 11.2129 42.1251 11.2129 42.9235C11.2129 43.1412 11.2129 43.2864 11.2883 43.5041C11.3637 43.5767 11.4391 43.7218 11.5145 43.867Z" fill="#34343D"/>
<path d="M5.25632 37.3352C5.33173 37.553 5.48255 37.6981 5.63336 37.9159C5.78418 38.061 5.935 38.2788 6.08582 38.4239C6.68909 39.0046 7.44317 39.3675 8.34807 39.2223C8.49889 38.8594 8.57431 38.4239 8.4989 38.061C8.4989 37.8433 8.42348 37.6981 8.34807 37.4804C8.27266 37.3352 8.19726 37.1175 8.12186 36.9723C7.97104 36.6094 7.74482 36.2465 7.44318 35.9562C7.29237 35.811 7.14155 35.5933 7.06614 35.4481C6.91533 35.303 6.7645 35.1578 6.61369 34.9401C6.01042 34.2869 5.33173 33.7062 4.87928 33.2707C4.42683 32.8352 4.0498 32.5449 4.0498 32.5449C4.0498 32.5449 4.0498 32.9804 4.0498 33.6336C4.0498 33.9965 4.1252 34.3594 4.20061 34.7223C4.27602 34.9401 4.27603 35.1578 4.35143 35.3756C4.42684 35.5933 4.42683 35.8111 4.57765 36.0288C4.87928 36.4643 5.1055 36.8998 5.25632 37.3352Z" fill="#34343D"/>
<path d="M10.5361 38.714C11.3656 38.4236 11.9689 37.843 12.3459 37.2624C12.4213 37.1172 12.4967 36.972 12.5721 36.7543C12.6475 36.6091 12.7229 36.3914 12.7983 36.2462C12.9492 35.8833 13.0246 35.5204 13.1 35.2301C13.1754 34.8672 13.2508 34.5769 13.2508 34.214C13.2508 34.0688 13.2508 33.9236 13.3262 33.7785C13.3262 33.6333 13.3262 33.4882 13.3262 33.4156C13.4016 32.9075 13.4016 32.6172 13.4016 32.6172C13.4016 32.6172 13.1 32.7624 12.5721 33.1253C12.4213 33.1978 12.3459 33.2704 12.1951 33.4156C12.0443 33.4882 11.8935 33.6333 11.818 33.7785C11.5164 33.9962 11.2902 34.2866 10.9885 34.5769C10.8377 34.722 10.7623 34.8672 10.6115 35.0849C10.5361 35.1575 10.4607 35.2301 10.4607 35.3753C10.3853 35.4478 10.3853 35.5204 10.3099 35.6656C10.1591 36.0285 10.0082 36.3914 9.93283 36.7543C9.93283 36.972 9.85742 37.1172 9.85742 37.3349C9.85742 37.5527 9.93283 37.6978 9.93283 37.843C10.0837 38.0607 10.2345 38.4236 10.5361 38.714Z" fill="#34343D"/>
<path d="M7.36702 28.1903C7.14079 27.8274 6.91455 27.4645 6.76373 27.1016C6.53751 26.7387 6.31129 26.4484 6.16048 26.1581C5.78343 25.65 5.55722 25.2871 5.55722 25.2871C5.55722 25.2871 5.40639 25.7226 5.33098 26.3758C5.25557 26.6661 5.25558 27.1016 5.18018 27.4645C5.18018 27.6823 5.18018 27.9 5.18018 28.1177C5.18018 28.3355 5.18018 28.5532 5.18018 28.771C5.25558 29.2065 5.25558 29.6419 5.40639 30.0774C5.55721 30.5129 5.70803 30.9484 5.93426 31.2387C6.38671 31.9645 7.06537 32.4726 7.97027 32.5452C8.12109 32.4 8.1965 32.1823 8.2719 32.0371C8.34731 31.8919 8.42273 31.6742 8.42273 31.529C8.49814 31.1661 8.42273 30.8032 8.34732 30.4403C8.27191 30.0774 8.12109 29.6419 7.97027 29.279C7.81946 28.9887 7.59324 28.5532 7.36702 28.1903Z" fill="#34343D"/>
<path d="M12.2705 31.528C12.5721 31.2377 12.7984 31.02 12.9492 30.6571C13.1754 30.3667 13.3262 30.0764 13.477 29.7135C13.5525 29.5684 13.6279 29.4232 13.7033 29.278C13.7787 29.1329 13.8541 28.9877 13.9295 28.8425C14.0803 28.5522 14.1557 28.3345 14.2311 28.0442C14.3819 27.6087 14.4573 27.3184 14.4573 27.3184C14.4573 27.3184 14.0803 27.3909 13.5524 27.6087C13.0246 27.8264 12.3459 28.1167 11.6672 28.6248C11.5164 28.77 11.3656 28.8425 11.2148 28.9877C11.064 29.1329 10.9131 29.278 10.7623 29.4232C10.4607 29.7135 10.2345 30.0764 10.0837 30.3667C9.93284 30.7296 9.85742 31.0926 9.85742 31.4555C9.85742 31.6006 9.85743 31.8184 9.93283 31.9635C10.0082 32.1087 10.0836 32.3264 10.1591 32.4716C11.064 32.399 11.7426 32.0361 12.2705 31.528Z" fill="#34343D"/>
<path d="M9.62895 25.8671C9.77977 25.722 9.85517 25.5768 9.93058 25.3591C10.006 25.2139 10.0814 24.9962 10.0814 24.851C10.0814 24.7058 10.1568 24.4881 10.1568 24.2703C10.1568 23.9074 10.1568 23.472 10.0814 23.0365C10.006 22.601 9.93058 22.2381 9.85517 21.8026C9.62894 21.0042 9.40272 20.2058 9.1765 19.6252C8.95027 19.0445 8.79946 18.6816 8.79946 18.6816C8.79946 18.6816 8.72404 18.7542 8.64863 18.8994C8.57322 19.0445 8.4224 19.3349 8.27159 19.6252C7.96995 20.2058 7.66832 21.0042 7.5175 21.8752C7.44209 22.3107 7.3667 22.7462 7.3667 23.1816C7.3667 23.3994 7.3667 23.6171 7.44211 23.8349C7.44211 24.0526 7.51751 24.2703 7.59292 24.4881C7.74373 24.851 7.89456 25.2139 8.1962 25.5768C8.49783 25.8671 8.79946 26.1574 9.25191 26.3026C9.40273 26.23 9.55354 26.0849 9.62895 25.8671Z" fill="#34343D"/>
<path d="M16.7949 22.7451C16.8703 22.5999 16.9457 22.5273 16.9457 22.5273C16.9457 22.5273 16.8703 22.5273 16.644 22.5273C16.4932 22.5273 16.267 22.5273 15.9654 22.5999C15.6637 22.5999 15.3621 22.6725 14.9851 22.7451C14.8343 22.8177 14.608 22.8177 14.4572 22.8902C14.3064 22.9628 14.0802 23.0354 13.9293 23.108C13.5523 23.2532 13.1753 23.3983 12.7982 23.6161C12.4966 23.8338 12.195 24.1241 11.8933 24.3419C11.7425 24.487 11.6671 24.6322 11.5917 24.7773C11.5163 24.9225 11.4409 25.1402 11.3655 25.2854C11.29 25.4306 11.29 25.6483 11.29 25.7935C11.29 26.0112 11.3655 26.1564 11.3655 26.3741C11.8179 26.4467 12.1949 26.4467 12.572 26.3741C12.949 26.3015 13.3261 26.1564 13.6277 25.9386C13.7785 25.8661 13.9293 25.7209 14.0802 25.6483C14.1556 25.5757 14.231 25.5032 14.3064 25.5032C14.3818 25.4306 14.4572 25.358 14.5326 25.358C14.8343 25.1402 15.0605 24.8499 15.2867 24.6322C15.5129 24.3419 15.7391 24.1241 15.89 23.9064C15.9654 23.8338 15.9654 23.7612 16.0408 23.6886C16.1162 23.6161 16.1162 23.5435 16.1916 23.5435C16.267 23.3983 16.3424 23.3257 16.4178 23.2532C16.5686 23.0354 16.7195 22.8902 16.7949 22.7451Z" fill="#34343D"/>
<path d="M12.116 20.5686C12.493 20.3508 12.7947 20.1331 13.0209 19.8428C13.2471 19.5525 13.3979 19.1895 13.5487 18.8266C13.7749 18.1008 13.8504 17.2299 13.8504 16.4315C13.8504 16.2137 13.8504 15.996 13.8504 15.7783C13.8504 15.5605 13.8504 15.3428 13.8504 15.1976C13.8504 14.8347 13.775 14.4718 13.775 14.1089C13.6996 13.5283 13.6241 13.0928 13.6241 13.0928C13.6241 13.0928 13.5487 13.1654 13.3979 13.3105C13.2471 13.4557 13.0963 13.6734 12.87 13.8912C12.6438 14.1815 12.4176 14.4718 12.2668 14.7621C12.0406 15.125 11.8143 15.4879 11.6635 15.8508C11.5127 16.2863 11.3619 16.6492 11.2111 17.0847C11.1357 17.5202 11.0603 17.9557 11.0603 18.3186C10.9848 19.2621 11.3619 20.0605 12.116 20.5686Z" fill="#34343D"/>
<path d="M18.4511 20.1328C18.7527 19.9151 19.0544 19.6974 19.2806 19.4796C19.5068 19.2619 19.733 19.1167 19.9593 18.899C20.1101 18.7538 20.2609 18.6087 20.4117 18.4635C20.4871 18.3909 20.5626 18.3183 20.5626 18.3183C20.5626 18.3183 20.1855 18.2458 19.5822 18.1732C19.2806 18.1732 18.979 18.1006 18.6019 18.1006C18.2249 18.1006 17.8478 18.1006 17.3954 18.1732C16.5659 18.3183 15.7364 18.5361 15.1331 18.9716C14.8315 19.1893 14.6053 19.4796 14.379 19.7699C14.2282 20.0603 14.1528 20.4232 14.1528 20.8587C14.9823 21.2216 15.8118 21.149 16.4905 21.0038C16.8675 20.9312 17.1692 20.7861 17.5462 20.5683C17.8478 20.4958 18.1495 20.3506 18.4511 20.1328Z" fill="#34343D"/>
<path d="M24.9391 57.3667C22.0736 56.278 19.2081 54.9716 16.795 53.0845C14.2311 51.0522 12.4213 48.2942 11.1394 45.1006C9.5558 41.399 8.42468 37.5522 8.57549 33.4877C8.72631 30.0039 9.70662 26.5926 11.2148 23.399C12.4967 20.8587 14.0803 18.3184 16.0409 16.0684C15.8901 15.778 15.8901 15.4151 15.9655 15.1248C16.0409 14.7619 16.1917 14.399 16.418 14.1087C16.8704 13.4555 17.5491 12.8748 18.3032 12.5119C19.0573 12.0764 19.8113 11.8587 20.4146 11.7135C20.7162 11.6409 20.9425 11.5684 21.0933 11.5684H21.3195H21.3949V11.6409C21.3949 11.6409 21.3949 11.7135 21.3195 11.7861C21.2441 11.9313 21.1687 12.149 21.0179 12.3668C20.7917 12.8748 20.4146 13.4555 19.9622 14.1087C19.7359 14.399 19.4343 14.6893 19.2081 14.9797L18.831 15.3426L18.8309 15.3427C18.6801 15.4878 18.5294 15.6329 18.3786 15.7055C18.077 15.8506 17.7753 16.0684 17.3983 16.1409C17.172 16.2135 16.8704 16.2135 16.5688 16.2135C15.7393 17.2297 14.9098 18.2458 14.2311 19.2619C11.441 23.2538 9.48039 27.899 9.17875 32.7619C8.95253 36.9716 9.93285 40.8909 11.5918 44.7377C12.4213 46.77 13.477 48.7296 14.9852 50.399C16.4934 52.0684 18.3032 53.3748 20.2638 54.4635C24.0342 56.4958 29.539 58.8184 34.7422 60.4877L33.3095 61.1409C30.2931 59.7619 27.2768 58.2377 24.9391 57.3667Z" fill="#34343D"/>
<path d="M142.961 58.3092C143.338 58.0189 143.715 57.8011 144.092 57.656C144.469 57.5108 144.846 57.4382 145.298 57.4382C146.128 57.3657 147.033 57.5834 147.938 57.7286C148.843 57.9463 149.672 58.164 150.275 58.3818C150.879 58.5995 151.331 58.7447 151.331 58.7447C151.331 58.7447 150.954 58.9624 150.275 59.2528C149.672 59.5431 148.767 59.8334 147.787 59.9786C146.807 60.1237 145.826 60.1237 144.921 59.906C143.941 59.6882 143.187 59.1802 142.961 58.3092Z" fill="#34343D"/>
<path d="M145.597 54.607C145.22 55.3328 144.768 56.0586 144.089 56.4941C143.787 56.7118 143.41 56.9296 143.033 57.0021C142.656 57.0747 142.204 57.0747 141.827 56.857C141.827 55.986 142.053 55.2602 142.43 54.6796C142.807 54.0989 143.41 53.5183 143.938 53.0828C144.541 52.6473 145.069 52.2844 145.522 51.9941C145.974 51.7038 146.276 51.5586 146.276 51.5586C146.276 51.5586 146.276 51.6312 146.276 51.8489C146.276 51.9941 146.2 52.2118 146.2 52.5021C146.125 53.0828 145.974 53.8086 145.597 54.607Z" fill="#34343D"/>
<path d="M151.934 56.5676C151.029 56.495 150.275 56.2047 149.747 55.4789C150.199 54.7531 150.878 54.3176 151.632 54.0999C152.386 53.8821 153.367 53.8096 154.272 53.8096C155.176 53.8096 156.081 53.8096 156.76 53.8096C157.439 53.8096 157.891 53.8096 157.891 53.8096C157.891 53.8096 157.816 53.8821 157.665 54.0273C157.514 54.1725 157.288 54.3902 156.986 54.608C156.383 55.0434 155.629 55.5515 154.724 55.987C153.744 56.3499 152.763 56.5676 151.934 56.5676Z" fill="#34343D"/>
<path d="M150.274 53.2291C149.746 53.8097 149.067 54.2452 148.238 54.1726C147.861 53.3742 147.936 52.5758 148.162 51.85C148.388 51.1242 148.841 50.471 149.218 49.8903C149.67 49.3097 150.047 48.8742 150.424 48.5113C150.575 48.3662 150.726 48.221 150.802 48.0758C150.877 48.0032 150.952 47.9307 150.952 47.9307C150.952 47.9307 150.952 48.0032 151.028 48.1484C151.103 48.2936 151.103 48.5113 151.179 48.8016C151.254 49.3823 151.329 50.1081 151.179 50.9065C151.028 51.7774 150.726 52.5758 150.274 53.2291Z" fill="#34343D"/>
<path d="M160.982 47.2044C161.586 46.9866 162.038 46.9141 162.038 46.9141C162.038 46.9141 161.963 46.9866 161.887 47.2044C161.812 47.3495 161.661 47.5673 161.51 47.8576C161.359 48.1479 161.133 48.4382 160.907 48.8012C160.756 48.9463 160.681 49.1641 160.53 49.3092L160.455 49.4544L160.304 49.5995C160.228 49.6721 160.153 49.8173 160.077 49.8899C159.323 50.6882 158.418 51.3415 157.589 51.6318C156.684 51.9221 155.855 51.8495 155.101 51.2689C155.327 50.3979 155.779 49.8173 156.458 49.3818C156.609 49.2366 156.835 49.1641 156.986 49.0189C157.137 48.8737 157.363 48.8012 157.589 48.656C157.815 48.5108 157.966 48.4383 158.192 48.2931C158.418 48.2205 158.569 48.0754 158.796 48.0028C159.55 47.6399 160.379 47.3495 160.982 47.2044Z" fill="#34343D"/>
<path d="M154.874 48.6562C154.648 49.382 154.12 49.9626 153.291 50.1804C152.687 49.5271 152.536 48.7287 152.461 48.0755C152.386 47.3497 152.536 46.6965 152.612 46.1158C152.612 45.8981 152.763 45.4626 152.838 45.1723C152.913 44.882 153.064 44.5916 153.14 44.3013C153.215 44.0836 153.29 43.8658 153.366 43.7207C153.441 43.5755 153.441 43.5029 153.441 43.5029C153.441 43.5029 153.517 43.5755 153.592 43.7207C153.668 43.8658 153.818 44.0836 153.969 44.3013C154.271 44.8094 154.572 45.5352 154.799 46.261C154.874 46.4787 154.874 46.6239 154.949 46.8416C155.025 47.0594 155.025 47.2045 155.025 47.4223C155.025 47.64 155.025 47.7852 155.025 48.0029C155.025 48.2933 154.949 48.511 154.874 48.6562Z" fill="#34343D"/>
<path d="M161.887 44.2282C161.736 44.3734 161.585 44.5185 161.434 44.6637C161.283 44.8088 161.057 44.954 160.906 45.0266C160.152 45.4621 159.398 45.6798 158.493 45.3895C158.418 44.954 158.418 44.5911 158.569 44.2282C158.644 44.083 158.719 43.8653 158.795 43.7201C158.87 43.575 159.021 43.4298 159.096 43.2121C159.549 42.5588 160.303 42.0508 160.982 41.5427C161.66 41.0346 162.414 40.5992 163.018 40.3088C163.621 40.0185 163.998 39.8008 163.998 39.8008C163.998 39.8008 163.998 39.8734 163.923 40.0911C163.847 40.3088 163.772 40.5266 163.696 40.8169C163.47 41.3976 163.169 42.2685 162.641 42.9943C162.49 43.5024 162.188 43.8653 161.887 44.2282Z" fill="#34343D"/>
<path d="M157.213 43.865C157.062 44.2279 156.76 44.5183 156.458 44.736C155.704 44.3005 155.252 43.6473 154.95 42.9215C154.875 42.7763 154.875 42.5586 154.799 42.4134C154.799 42.3409 154.799 42.1957 154.724 42.1231C154.724 42.0505 154.724 41.9054 154.649 41.8328C154.573 41.4699 154.573 41.107 154.573 40.7441C154.649 40.0183 154.649 39.365 154.799 38.857C154.875 38.6392 154.875 38.4215 154.95 38.2763C154.95 38.1312 155.026 38.0586 155.026 38.0586C155.026 38.0586 155.101 38.1312 155.252 38.2763C155.403 38.4215 155.554 38.5667 155.704 38.7844C156.081 39.2199 156.534 39.8731 156.911 40.5989C157.288 41.3247 157.514 42.1231 157.514 42.9215C157.514 43.1392 157.514 43.2844 157.439 43.5021C157.363 43.5747 157.288 43.7199 157.213 43.865Z" fill="#34343D"/>
<path d="M163.471 37.3343C163.395 37.552 163.245 37.6972 163.094 37.9149C162.943 38.0601 162.792 38.2778 162.641 38.423C162.038 39.0036 161.284 39.3665 160.379 39.2214C160.228 38.8585 160.153 38.423 160.228 38.0601C160.228 37.8423 160.304 37.6972 160.379 37.4794C160.454 37.3343 160.53 37.1165 160.605 36.9714C160.756 36.6085 160.982 36.2456 161.284 35.9552C161.435 35.8101 161.585 35.5923 161.661 35.4472C161.812 35.302 161.963 35.1569 162.113 34.9391C162.717 34.2859 163.395 33.7052 163.848 33.2698C164.3 32.8343 164.677 32.5439 164.677 32.5439C164.677 32.5439 164.677 32.9794 164.677 33.6327C164.677 33.9956 164.602 34.3585 164.526 34.7214C164.451 34.9391 164.451 35.1568 164.376 35.3746C164.3 35.5923 164.3 35.8101 164.149 36.0278C163.848 36.4633 163.622 36.8988 163.471 37.3343Z" fill="#34343D"/>
<path d="M158.191 38.713C157.361 38.4227 156.758 37.842 156.381 37.2614C156.306 37.1162 156.23 36.9711 156.155 36.7533C156.08 36.6082 156.004 36.3904 155.929 36.2452C155.778 35.8823 155.702 35.5194 155.627 35.2291C155.552 34.8662 155.476 34.5759 155.476 34.213C155.476 34.0678 155.476 33.9227 155.401 33.7775C155.401 33.6323 155.401 33.4872 155.401 33.4146C155.325 32.9065 155.325 32.6162 155.325 32.6162C155.325 32.6162 155.627 32.7614 156.155 33.1243C156.306 33.1969 156.381 33.2694 156.532 33.4146C156.683 33.4872 156.834 33.6323 156.909 33.7775C157.211 33.9952 157.437 34.2856 157.739 34.5759C157.889 34.7211 157.965 34.8662 158.116 35.084C158.191 35.1565 158.266 35.2291 158.266 35.3743C158.342 35.4469 158.342 35.5194 158.417 35.6646C158.568 36.0275 158.719 36.3904 158.794 36.7533C158.794 36.9711 158.87 37.1162 158.87 37.334C158.87 37.5517 158.794 37.6969 158.794 37.842C158.643 38.0598 158.493 38.4227 158.191 38.713Z" fill="#34343D"/>
<path d="M161.36 28.1884C161.586 27.8255 161.812 27.4626 161.963 27.0997C162.19 26.7368 162.416 26.4464 162.567 26.1561C162.944 25.6481 163.17 25.2852 163.17 25.2852C163.17 25.2852 163.321 25.7206 163.396 26.3739C163.471 26.6642 163.471 27.0997 163.547 27.4626C163.547 27.6803 163.547 27.8981 163.547 28.1158C163.547 28.3335 163.547 28.5513 163.547 28.769C163.471 29.2045 163.471 29.64 163.321 30.0755C163.17 30.511 163.019 30.9464 162.793 31.2368C162.34 31.9626 161.662 32.4706 160.757 32.5432C160.606 32.3981 160.531 32.1803 160.455 32.0352C160.38 31.89 160.304 31.6722 160.304 31.5271C160.229 31.1642 160.304 30.8013 160.38 30.4384C160.455 30.0755 160.606 29.64 160.757 29.2771C160.908 28.9868 161.134 28.5513 161.36 28.1884Z" fill="#34343D"/>
<path d="M156.457 31.5271C156.155 31.2367 155.929 31.019 155.778 30.6561C155.552 30.3658 155.401 30.0754 155.25 29.7125C155.175 29.5674 155.099 29.4222 155.024 29.2771C154.948 29.1319 154.873 28.9867 154.798 28.8416C154.647 28.5512 154.571 28.3335 154.496 28.0432C154.345 27.6077 154.27 27.3174 154.27 27.3174C154.27 27.3174 154.647 27.39 155.175 27.6077C155.702 27.8254 156.381 28.1158 157.06 28.6238C157.211 28.769 157.361 28.8416 157.512 28.9867C157.663 29.1319 157.814 29.2771 157.965 29.4222C158.266 29.7125 158.493 30.0754 158.643 30.3658C158.794 30.7287 158.87 31.0916 158.87 31.4545C158.87 31.5996 158.87 31.8174 158.794 31.9625C158.719 32.1077 158.643 32.3254 158.568 32.4706C157.663 32.398 156.984 32.0351 156.457 31.5271Z" fill="#34343D"/>
<path d="M159.098 25.8662C158.947 25.721 158.872 25.5758 158.796 25.3581C158.721 25.2129 158.646 24.9952 158.646 24.85C158.646 24.7049 158.57 24.4871 158.57 24.2694C158.57 23.9065 158.57 23.471 158.646 23.0355C158.721 22.6 158.796 22.2371 158.872 21.8016C159.098 21.0032 159.324 20.2049 159.551 19.6242C159.777 19.0436 159.928 18.6807 159.928 18.6807C159.928 18.6807 160.003 18.7532 160.078 18.8984C160.154 19.0436 160.305 19.3339 160.455 19.6242C160.757 20.2049 161.059 21.0033 161.21 21.8742C161.285 22.3097 161.36 22.7452 161.36 23.1807C161.36 23.3984 161.36 23.6162 161.285 23.8339C161.285 24.0516 161.21 24.2694 161.134 24.4871C160.983 24.85 160.832 25.2129 160.531 25.5758C160.229 25.8661 159.928 26.1565 159.475 26.3016C159.324 26.2291 159.174 26.0839 159.098 25.8662Z" fill="#34343D"/>
<path d="M151.933 22.7441C151.857 22.599 151.782 22.5264 151.782 22.5264C151.782 22.5264 151.857 22.5264 152.083 22.5264C152.234 22.5264 152.461 22.5264 152.762 22.599C153.064 22.599 153.365 22.6715 153.742 22.7441C153.893 22.8167 154.12 22.8167 154.27 22.8893C154.421 22.9619 154.647 23.0344 154.798 23.107C155.175 23.2522 155.552 23.3973 155.929 23.6151C156.231 23.8328 156.533 24.1231 156.834 24.3409C156.985 24.486 157.06 24.6312 157.136 24.7764C157.211 24.9215 157.287 25.1393 157.362 25.2844C157.437 25.4296 157.438 25.6473 157.438 25.7925C157.438 26.0102 157.362 26.1554 157.362 26.3731C156.91 26.4457 156.533 26.4457 156.156 26.3731C155.779 26.3006 155.401 26.1554 155.1 25.9377C154.949 25.8651 154.798 25.7199 154.647 25.6473C154.572 25.5748 154.497 25.5022 154.421 25.5022C154.346 25.4296 154.27 25.357 154.195 25.357C153.893 25.1393 153.667 24.8489 153.441 24.6312C153.215 24.3409 152.988 24.1231 152.838 23.9054C152.762 23.8328 152.762 23.7602 152.687 23.6877C152.611 23.6151 152.611 23.5425 152.536 23.5425C152.461 23.3973 152.385 23.3248 152.31 23.2522C152.159 23.0344 152.008 22.8893 151.933 22.7441Z" fill="#34343D"/>
<path d="M156.611 20.5676C156.234 20.3499 155.932 20.1321 155.706 19.8418C155.48 19.5515 155.329 19.1886 155.178 18.8257C154.952 18.0999 154.877 17.2289 154.877 16.4305C154.877 16.2128 154.877 15.995 154.877 15.7773C154.877 15.5595 154.877 15.3418 154.877 15.1966C154.877 14.8337 154.952 14.4708 154.952 14.1079C155.027 13.5273 155.103 13.0918 155.103 13.0918C155.103 13.0918 155.178 13.1644 155.329 13.3095C155.48 13.4547 155.631 13.6724 155.857 13.8902C156.083 14.1805 156.309 14.4708 156.46 14.7612C156.686 15.1241 156.913 15.487 157.064 15.8499C157.214 16.2853 157.365 16.6482 157.516 17.0837C157.591 17.5192 157.667 17.9547 157.667 18.3176C157.742 19.2611 157.365 20.0595 156.611 20.5676Z" fill="#34343D"/>
<path d="M150.276 20.1319C149.974 19.9141 149.673 19.6964 149.446 19.4786C149.22 19.2609 148.994 19.1157 148.768 18.898C148.617 18.7528 148.466 18.6077 148.315 18.4625C148.24 18.3899 148.164 18.3174 148.164 18.3174C148.164 18.3174 148.542 18.2448 149.145 18.1722C149.446 18.1722 149.748 18.0996 150.125 18.0996C150.502 18.0996 150.879 18.0996 151.332 18.1722C152.161 18.3174 152.991 18.5351 153.594 18.9706C153.896 19.1883 154.122 19.4786 154.348 19.769C154.499 20.0593 154.574 20.4222 154.574 20.8577C153.745 21.2206 152.915 21.148 152.237 21.0028C151.86 20.9303 151.558 20.7851 151.181 20.5674C150.879 20.4948 150.578 20.3496 150.276 20.1319Z" fill="#34343D"/>
<path d="M143.788 57.3658C146.653 56.2771 149.519 54.9706 151.932 53.0835C154.496 51.0513 156.306 48.2932 157.588 45.0996C159.171 41.398 160.302 37.5513 160.152 33.4867C160.001 30.0029 159.02 26.5916 157.512 23.398C156.23 20.8577 154.647 18.3174 152.686 16.0674C152.837 15.7771 152.837 15.4142 152.762 15.1238C152.686 14.7609 152.535 14.398 152.309 14.1077C151.857 13.4545 151.178 12.8738 150.424 12.5109C149.67 12.0754 148.916 11.8577 148.312 11.7126C148.011 11.64 147.785 11.5674 147.634 11.5674H147.408H147.332V11.64C147.332 11.64 147.332 11.7125 147.408 11.7851C147.483 11.9303 147.558 12.148 147.709 12.3658C147.935 12.8738 148.312 13.4545 148.765 14.1077C148.991 14.398 149.293 14.6884 149.519 14.9787L149.896 15.3416L149.896 15.3417C150.047 15.4868 150.198 15.6319 150.348 15.7045C150.65 15.8496 150.952 16.0674 151.329 16.14C151.555 16.2125 151.857 16.2126 152.158 16.2126C152.988 17.2287 153.817 18.2448 154.496 19.2609C157.286 23.2529 159.247 27.898 159.548 32.7609C159.775 36.9706 158.794 40.89 157.135 44.7367C156.306 46.769 155.25 48.7287 153.742 50.398C152.234 52.0674 150.424 53.3738 148.463 54.4625C144.693 56.4948 139.188 58.8174 133.985 60.4867L135.418 61.14C138.434 59.7609 141.45 58.2367 143.788 57.3658Z" fill="#34343D"/>
<g clip-path="url(#clip0_4310_61783)">
<g clip-path="url(#clip1_4310_61783)">
<path fill-rule="evenodd" clip-rule="evenodd" d="M87.1866 7.73926H86.8951L86.1064 9.54331H86.4292L86.6134 9.11094H87.4606L87.6426 9.54331H87.9782L87.1866 7.73926ZM87.3449 8.83158H86.7283L87.0328 8.11529L87.3449 8.83158Z" fill="#C5C5CB"/>
<path fill-rule="evenodd" clip-rule="evenodd" d="M96.8697 8.04447H97.4375V7.75293H95.9844V8.04447H96.5522V9.54404H96.8697V8.04447Z" fill="#C5C5CB"/>
<path fill-rule="evenodd" clip-rule="evenodd" d="M94.7757 8.22362C94.7757 8.19408 94.7826 8.16494 94.7958 8.13851C94.809 8.11209 94.8282 8.0891 94.8518 8.07138C94.914 8.02632 94.9898 8.00425 95.0665 8.00896C95.1497 8.00923 95.232 8.02524 95.3093 8.05615C95.3957 8.09131 95.4773 8.13736 95.5521 8.19317L95.7211 7.95491C95.6323 7.88352 95.5326 7.82697 95.4257 7.78745C95.3118 7.74745 95.1917 7.72786 95.071 7.7296C94.9879 7.72882 94.9051 7.74142 94.8259 7.7669C94.7553 7.78924 94.6898 7.82547 94.6333 7.87347C94.5804 7.9192 94.5377 7.97546 94.5077 8.03865C94.4767 8.10563 94.4611 8.17873 94.4621 8.25254C94.4599 8.32535 94.4734 8.39777 94.5016 8.46492C94.5276 8.52413 94.5672 8.57632 94.6173 8.61716C94.6737 8.66122 94.737 8.69569 94.8046 8.71916C94.8882 8.74978 94.9736 8.77521 95.0604 8.79528C95.1441 8.81583 95.2126 8.83563 95.2644 8.85389C95.3079 8.86849 95.3494 8.88871 95.3877 8.91403C95.4142 8.93134 95.4355 8.95555 95.4493 8.98406C95.4608 9.01153 95.4665 9.04107 95.4661 9.07084C95.467 9.10363 95.4596 9.13612 95.4446 9.16527C95.4295 9.19442 95.4073 9.21929 95.3801 9.23754C95.3122 9.28121 95.2324 9.30275 95.1517 9.2992C95.0471 9.30135 94.9432 9.28084 94.8472 9.23906C94.751 9.19282 94.662 9.13282 94.5831 9.06094L94.3936 9.2893C94.4956 9.38316 94.6147 9.45655 94.7445 9.50548C94.8714 9.55239 95.0057 9.57611 95.1411 9.57551C95.2286 9.57647 95.3158 9.56441 95.3999 9.53974C95.4732 9.51844 95.5415 9.48272 95.6008 9.43469C95.6565 9.38879 95.7012 9.33106 95.7318 9.2657C95.7641 9.194 95.7803 9.11602 95.7789 9.03734C95.7804 8.97024 95.7677 8.90358 95.7416 8.84172C95.7165 8.78563 95.6793 8.73575 95.6328 8.69556C95.5789 8.65007 95.5176 8.61404 95.4516 8.589C95.3701 8.55826 95.2867 8.53284 95.202 8.51288C95.1159 8.49232 95.0459 8.47253 94.9903 8.45426C94.9441 8.43976 94.9 8.41902 94.8594 8.39261C94.8317 8.37489 94.8091 8.35022 94.7939 8.32105C94.7804 8.29042 94.7742 8.25707 94.7757 8.22362Z" fill="#C5C5CB"/>
<path fill-rule="evenodd" clip-rule="evenodd" d="M94.1214 7.75195H92.7954V9.54306H94.1344V9.25913H93.1083V8.78034H94.0065V8.49641H93.1083V8.03588H94.1214V7.75195Z" fill="#C5C5CB"/>
<path fill-rule="evenodd" clip-rule="evenodd" d="M92.4478 7.75195H91.1172V9.54306H91.4293V8.81383H92.3328V8.5299H91.4293V8.03588H92.4478V7.75195Z" fill="#C5C5CB"/>
<path d="M90.6353 7.75195H90.3232V9.54382H90.6353V7.75195Z" fill="#C5C5CB"/>
<path fill-rule="evenodd" clip-rule="evenodd" d="M89.5333 8.99043L88.5757 7.75195H88.2842V9.54306H88.5963V8.26881L89.582 9.54306H89.8454V7.75195H89.5333V8.99043Z" fill="#C5C5CB"/>
<path fill-rule="evenodd" clip-rule="evenodd" d="M85.4891 8.25815V9.54306H85.802V7.75195H85.4663L84.9212 8.59841L84.3762 7.75195H84.0405V9.54306H84.3526V8.26348L84.9136 9.10309H84.9235L85.4891 8.25815Z" fill="#C5C5CB"/>
<path fill-rule="evenodd" clip-rule="evenodd" d="M82.8841 7.75293H81.5581V9.54404H82.8963V9.26011H81.8702V8.78131H82.7684V8.49739H81.8702V8.03686H82.8841V7.75293Z" fill="#C5C5CB"/>
<path fill-rule="evenodd" clip-rule="evenodd" d="M80.7838 8.78795V9.54306H81.0966V7.75195H80.7838V8.49641H79.9244V7.75195H79.6123V9.54306H79.9244V8.78795H80.7838Z" fill="#C5C5CB"/>
<path fill-rule="evenodd" clip-rule="evenodd" d="M78.7129 8.04349H79.2808V7.75195H77.8276V8.04349H78.3955V9.54306H78.7129V8.04349Z" fill="#C5C5CB"/>
<path fill-rule="evenodd" clip-rule="evenodd" d="M85.4916 10.0502V13.704H75.3867V12.687H84.2988V10.0502H83.9989V12.3878H75.3867V3.59596H83.9981V7.24973H84.2981V3.59596H85.4909V7.24973H85.7908V3.29604H84.2988V1.98145H73.5933V12.687H75.086V14.0008H85.7915V10.0502H85.4916ZM75.086 12.3863H73.8932V2.28212H83.9981V3.29604H75.086V12.3863Z" fill="#C5C5CB"/>
</g>
</g>
<defs>
<clipPath id="clip0_4310_61783">
<rect width="49.7143" height="12" fill="white" transform="translate(60.6523 2)"/>
</clipPath>
<clipPath id="clip1_4310_61783">
<rect width="23.8424" height="12.0194" fill="white" transform="translate(73.5898 1.98047)"/>
</clipPath>
</defs>
</svg>
