<svg width="172" height="66" viewBox="0 0 172 66" fill="none" xmlns="http://www.w3.org/2000/svg">
<path d="M47.3997 22.2727H48.9978L51.7762 29.0568H51.8784L54.6569 22.2727H56.2549V31H55.002V24.6847H54.9211L52.3472 30.9872H51.3074L48.7336 24.6804H48.6526V31H47.3997V22.2727ZM60.3441 31.1321C59.7305 31.1321 59.195 30.9915 58.7376 30.7102C58.2802 30.429 57.9251 30.0355 57.6722 29.5298C57.4194 29.0241 57.293 28.4332 57.293 27.7571C57.293 27.0781 57.4194 26.4844 57.6722 25.9759C57.9251 25.4673 58.2802 25.0724 58.7376 24.7912C59.195 24.5099 59.7305 24.3693 60.3441 24.3693C60.9577 24.3693 61.4933 24.5099 61.9506 24.7912C62.408 25.0724 62.7631 25.4673 63.016 25.9759C63.2688 26.4844 63.3952 27.0781 63.3952 27.7571C63.3952 28.4332 63.2688 29.0241 63.016 29.5298C62.7631 30.0355 62.408 30.429 61.9506 30.7102C61.4933 30.9915 60.9577 31.1321 60.3441 31.1321ZM60.3484 30.0625C60.7461 30.0625 61.0756 29.9574 61.337 29.7472C61.5984 29.5369 61.7916 29.2571 61.9166 28.9077C62.0444 28.5582 62.1083 28.1733 62.1083 27.7528C62.1083 27.3352 62.0444 26.9517 61.9166 26.6023C61.7916 26.25 61.5984 25.9673 61.337 25.7543C61.0756 25.5412 60.7461 25.4347 60.3484 25.4347C59.9478 25.4347 59.6154 25.5412 59.3512 25.7543C59.0898 25.9673 58.8952 26.25 58.7674 26.6023C58.6424 26.9517 58.5799 27.3352 58.5799 27.7528C58.5799 28.1733 58.6424 28.5582 58.7674 28.9077C58.8952 29.2571 59.0898 29.5369 59.3512 29.7472C59.6154 29.9574 59.9478 30.0625 60.3484 30.0625ZM69.2423 26.0526L68.0875 26.2571C68.0392 26.1094 67.9625 25.9687 67.8574 25.8352C67.7551 25.7017 67.6159 25.5923 67.4397 25.5071C67.2636 25.4219 67.0434 25.3793 66.7792 25.3793C66.4184 25.3793 66.1173 25.4602 65.8758 25.6222C65.6344 25.7812 65.5136 25.9872 65.5136 26.2401C65.5136 26.4588 65.5946 26.6349 65.7565 26.7685C65.9184 26.902 66.1798 27.0114 66.5406 27.0966L67.5804 27.3352C68.1826 27.4744 68.6315 27.6889 68.927 27.9787C69.2224 28.2685 69.3701 28.6449 69.3701 29.108C69.3701 29.5 69.2565 29.8494 69.0292 30.1562C68.8048 30.4602 68.4909 30.6989 68.0875 30.8722C67.6869 31.0455 67.2224 31.1321 66.694 31.1321C65.9611 31.1321 65.363 30.9759 64.9 30.6634C64.4369 30.348 64.1528 29.9006 64.0477 29.321L65.2792 29.1335C65.3559 29.4545 65.5136 29.6974 65.7522 29.8622C65.9909 30.0241 66.302 30.1051 66.6855 30.1051C67.1031 30.1051 67.4369 30.0185 67.6869 29.8452C67.9369 29.669 68.0619 29.4545 68.0619 29.2017C68.0619 28.9972 67.9852 28.8253 67.8318 28.6861C67.6812 28.5469 67.4497 28.4418 67.1372 28.3707L66.0292 28.1278C65.4184 27.9886 64.9667 27.767 64.6741 27.4631C64.3844 27.1591 64.2395 26.7741 64.2395 26.3082C64.2395 25.9219 64.3474 25.5838 64.5633 25.294C64.7792 25.0043 65.0775 24.7784 65.4582 24.6165C65.8389 24.4517 66.275 24.3693 66.7665 24.3693C67.4738 24.3693 68.0307 24.5227 68.4369 24.8295C68.8432 25.1335 69.1116 25.5412 69.2423 26.0526ZM73.3465 24.4545V25.4773H69.7712V24.4545H73.3465ZM70.73 22.8864H72.0041V29.0781C72.0041 29.3253 72.0411 29.5114 72.1149 29.6364C72.1888 29.7585 72.284 29.8423 72.4004 29.8878C72.5198 29.9304 72.649 29.9517 72.7882 29.9517C72.8905 29.9517 72.98 29.9446 73.0567 29.9304C73.1334 29.9162 73.1931 29.9048 73.2357 29.8963L73.4658 30.9489C73.3919 30.9773 73.2868 31.0057 73.1504 31.0341C73.0141 31.0653 72.8436 31.0824 72.6391 31.0852C72.3039 31.0909 71.9914 31.0312 71.7016 30.9062C71.4118 30.7812 71.1774 30.5881 70.9985 30.3267C70.8195 30.0653 70.73 29.7372 70.73 29.3423V22.8864ZM76.9717 31V24.4545H78.2032V25.4943H78.2714C78.3907 25.142 78.601 24.8651 78.9021 24.6634C79.2061 24.4588 79.5498 24.3565 79.9333 24.3565C80.0129 24.3565 80.1066 24.3594 80.2146 24.3651C80.3254 24.3707 80.412 24.3778 80.4745 24.3864V25.6051C80.4234 25.5909 80.3325 25.5753 80.2018 25.5582C80.0711 25.5384 79.9404 25.5284 79.8098 25.5284C79.5086 25.5284 79.2402 25.5923 79.0044 25.7202C78.7714 25.8452 78.5867 26.0199 78.4504 26.2443C78.314 26.4659 78.2458 26.7187 78.2458 27.0028V31H76.9717ZM83.6838 31.1321C83.0389 31.1321 82.4835 30.9943 82.0176 30.7188C81.5545 30.4403 81.1966 30.0497 80.9438 29.5469C80.6938 29.0412 80.5688 28.4489 80.5688 27.7699C80.5688 27.0994 80.6938 26.5085 80.9438 25.9972C81.1966 25.4858 81.5489 25.0866 82.0006 24.7997C82.4551 24.5128 82.9864 24.3693 83.5943 24.3693C83.9636 24.3693 84.3216 24.4304 84.6682 24.5526C85.0148 24.6747 85.3259 24.8665 85.6014 25.1278C85.877 25.3892 86.0943 25.7287 86.2534 26.1463C86.4125 26.5611 86.492 27.0653 86.492 27.6591V28.1108H81.2889V27.1562H85.2435C85.2435 26.821 85.1753 26.5241 85.0389 26.2656C84.9026 26.0043 84.7108 25.7983 84.4636 25.6477C84.2193 25.4972 83.9324 25.4219 83.6028 25.4219C83.2449 25.4219 82.9324 25.5099 82.6653 25.6861C82.4011 25.8594 82.1966 26.0866 82.0517 26.3679C81.9097 26.6463 81.8386 26.9489 81.8386 27.2756V28.0213C81.8386 28.4588 81.9153 28.831 82.0688 29.1378C82.225 29.4446 82.4423 29.679 82.7207 29.8409C82.9992 30 83.3244 30.0795 83.6966 30.0795C83.9381 30.0795 84.1582 30.0455 84.3571 29.9773C84.556 29.9062 84.7278 29.8011 84.8727 29.6619C85.0176 29.5227 85.1284 29.3509 85.2051 29.1463L86.4111 29.3636C86.3145 29.7187 86.1412 30.0298 85.8912 30.2969C85.644 30.5611 85.333 30.767 84.958 30.9148C84.5858 31.0597 84.1611 31.1321 83.6838 31.1321ZM92.8377 24.4545L90.4641 31H89.1005L86.7226 24.4545H88.0905L89.7482 29.4915H89.8164L91.4698 24.4545H92.8377ZM93.5551 31V24.4545H94.8293V31H93.5551ZM94.1986 23.4446C93.977 23.4446 93.7867 23.3707 93.6276 23.223C93.4713 23.0724 93.3932 22.8935 93.3932 22.6861C93.3932 22.4759 93.4713 22.2969 93.6276 22.1491C93.7867 21.9986 93.977 21.9233 94.1986 21.9233C94.4202 21.9233 94.6091 21.9986 94.7654 22.1491C94.9244 22.2969 95.004 22.4759 95.004 22.6861C95.004 22.8935 94.9244 23.0724 94.7654 23.223C94.6091 23.3707 94.4202 23.4446 94.1986 23.4446ZM98.8844 31.1321C98.2395 31.1321 97.6842 30.9943 97.2182 30.7188C96.7552 30.4403 96.3972 30.0497 96.1444 29.5469C95.8944 29.0412 95.7694 28.4489 95.7694 27.7699C95.7694 27.0994 95.8944 26.5085 96.1444 25.9972C96.3972 25.4858 96.7495 25.0866 97.2012 24.7997C97.6557 24.5128 98.187 24.3693 98.7949 24.3693C99.1643 24.3693 99.5222 24.4304 99.8688 24.5526C100.215 24.6747 100.526 24.8665 100.802 25.1278C101.078 25.3892 101.295 25.7287 101.454 26.1463C101.613 26.5611 101.693 27.0653 101.693 27.6591V28.1108H96.4895V27.1562H100.444C100.444 26.821 100.376 26.5241 100.24 26.2656C100.103 26.0043 99.9114 25.7983 99.6643 25.6477C99.4199 25.4972 99.133 25.4219 98.8035 25.4219C98.4455 25.4219 98.133 25.5099 97.866 25.6861C97.6018 25.8594 97.3972 26.0866 97.2523 26.3679C97.1103 26.6463 97.0393 26.9489 97.0393 27.2756V28.0213C97.0393 28.4588 97.116 28.831 97.2694 29.1378C97.4256 29.4446 97.643 29.679 97.9214 29.8409C98.1998 30 98.5251 30.0795 98.8972 30.0795C99.1387 30.0795 99.3589 30.0455 99.5577 29.9773C99.7566 29.9062 99.9285 29.8011 100.073 29.6619C100.218 29.5227 100.329 29.3509 100.406 29.1463L101.612 29.3636C101.515 29.7187 101.342 30.0298 101.092 30.2969C100.845 30.5611 100.534 30.767 100.159 30.9148C99.7864 31.0597 99.3617 31.1321 98.8844 31.1321ZM104.034 31L102.108 24.4545H103.424L104.707 29.2614H104.771L106.058 24.4545H107.375L108.653 29.2401H108.717L109.991 24.4545H111.308L109.386 31H108.086L106.757 26.2741H106.659L105.329 31H104.034ZM114.659 31.1321C114.014 31.1321 113.459 30.9943 112.993 30.7188C112.53 30.4403 112.172 30.0497 111.919 29.5469C111.669 29.0412 111.544 28.4489 111.544 27.7699C111.544 27.0994 111.669 26.5085 111.919 25.9972C112.172 25.4858 112.524 25.0866 112.976 24.7997C113.43 24.5128 113.961 24.3693 114.569 24.3693C114.939 24.3693 115.297 24.4304 115.643 24.5526C115.99 24.6747 116.301 24.8665 116.576 25.1278C116.852 25.3892 117.069 25.7287 117.228 26.1463C117.388 26.5611 117.467 27.0653 117.467 27.6591V28.1108H112.264V27.1562H116.218C116.218 26.821 116.15 26.5241 116.014 26.2656C115.878 26.0043 115.686 25.7983 115.439 25.6477C115.194 25.4972 114.907 25.4219 114.578 25.4219C114.22 25.4219 113.907 25.5099 113.64 25.6861C113.376 25.8594 113.172 26.0866 113.027 26.3679C112.885 26.6463 112.814 26.9489 112.814 27.2756V28.0213C112.814 28.4588 112.89 28.831 113.044 29.1378C113.2 29.4446 113.417 29.679 113.696 29.8409C113.974 30 114.299 30.0795 114.672 30.0795C114.913 30.0795 115.133 30.0455 115.332 29.9773C115.531 29.9062 115.703 29.8011 115.848 29.6619C115.993 29.5227 116.103 29.3509 116.18 29.1463L117.386 29.3636C117.289 29.7187 117.116 30.0298 116.866 30.2969C116.619 30.5611 116.308 30.767 115.933 30.9148C115.561 31.0597 115.136 31.1321 114.659 31.1321ZM120.851 31.1278C120.323 31.1278 119.851 30.9929 119.436 30.723C119.024 30.4503 118.7 30.0625 118.465 29.5597C118.232 29.054 118.115 28.4474 118.115 27.7401C118.115 27.0327 118.233 26.4276 118.469 25.9247C118.708 25.4219 119.034 25.0369 119.449 24.7699C119.864 24.5028 120.334 24.3693 120.86 24.3693C121.266 24.3693 121.593 24.4375 121.84 24.5739C122.09 24.7074 122.283 24.8636 122.419 25.0426C122.558 25.2216 122.666 25.3793 122.743 25.5156H122.82V22.2727H124.094V31H122.85V29.9815H122.743C122.666 30.1207 122.556 30.2798 122.411 30.4588C122.269 30.6378 122.073 30.794 121.823 30.9276C121.573 31.0611 121.249 31.1278 120.851 31.1278ZM121.132 30.0412C121.499 30.0412 121.808 29.9446 122.061 29.7514C122.317 29.5554 122.51 29.2841 122.641 28.9375C122.774 28.5909 122.841 28.1875 122.841 27.7273C122.841 27.2727 122.776 26.875 122.645 26.5341C122.514 26.1932 122.323 25.9276 122.07 25.7372C121.817 25.5469 121.504 25.4517 121.132 25.4517C120.749 25.4517 120.429 25.5511 120.173 25.75C119.918 25.9489 119.725 26.2202 119.594 26.5639C119.466 26.9077 119.402 27.2955 119.402 27.7273C119.402 28.1648 119.468 28.5582 119.598 28.9077C119.729 29.2571 119.922 29.5341 120.178 29.7386C120.436 29.9403 120.754 30.0412 121.132 30.0412ZM44.7942 38.5653C44.7488 38.1619 44.5613 37.8494 44.2317 37.6278C43.9022 37.4034 43.4874 37.2912 42.9874 37.2912C42.6295 37.2912 42.3198 37.348 42.0584 37.4616C41.7971 37.5724 41.5939 37.7259 41.4491 37.9219C41.307 38.1151 41.236 38.3352 41.236 38.5824C41.236 38.7898 41.2843 38.9687 41.3809 39.1193C41.4803 39.2699 41.6096 39.3963 41.7687 39.4986C41.9306 39.598 42.1039 39.6818 42.2885 39.75C42.4732 39.8153 42.6508 39.8693 42.8212 39.9119L43.6735 40.1335C43.9519 40.2017 44.2374 40.294 44.53 40.4105C44.8226 40.527 45.0939 40.6804 45.3439 40.8707C45.5939 41.0611 45.7956 41.2969 45.9491 41.5781C46.1053 41.8594 46.1834 42.196 46.1834 42.5881C46.1834 43.0824 46.0556 43.5213 45.7999 43.9048C45.5471 44.2884 45.1792 44.5909 44.6962 44.8125C44.2161 45.0341 43.6351 45.1449 42.9533 45.1449C42.2999 45.1449 41.7346 45.0412 41.2573 44.8338C40.78 44.6264 40.4064 44.3324 40.1366 43.9517C39.8667 43.5682 39.7175 43.1136 39.6891 42.5881H41.0101C41.0357 42.9034 41.138 43.1662 41.317 43.3764C41.4988 43.5838 41.7303 43.7386 42.0116 43.8409C42.2956 43.9403 42.6067 43.9901 42.9448 43.9901C43.317 43.9901 43.6479 43.9318 43.9377 43.8153C44.2303 43.696 44.4604 43.5312 44.628 43.321C44.7956 43.108 44.8795 42.8594 44.8795 42.5753C44.8795 42.3168 44.8056 42.1051 44.6579 41.9403C44.513 41.7756 44.3155 41.6392 44.0655 41.5312C43.8184 41.4233 43.5385 41.3281 43.226 41.2457L42.1948 40.9645C41.4959 40.7741 40.942 40.4943 40.5329 40.125C40.1266 39.7557 39.9235 39.267 39.9235 38.6591C39.9235 38.1562 40.0598 37.7173 40.3326 37.3423C40.6053 36.9673 40.9746 36.6761 41.4405 36.4688C41.9064 36.2585 42.432 36.1534 43.0172 36.1534C43.6081 36.1534 44.1295 36.2571 44.5812 36.4645C45.0357 36.6719 45.3937 36.9574 45.655 37.321C45.9164 37.6818 46.0527 38.0966 46.0641 38.5653H44.7942ZM48.4488 41.1136V45H47.1747V36.2727H48.4318V39.5199H48.5127C48.6661 39.1676 48.9005 38.8878 49.2159 38.6804C49.5312 38.473 49.9431 38.3693 50.4517 38.3693C50.9005 38.3693 51.2926 38.4616 51.6278 38.6463C51.9659 38.831 52.2272 39.1065 52.4119 39.473C52.5994 39.8366 52.6931 40.2912 52.6931 40.8366V45H51.419V40.9901C51.419 40.5099 51.2954 40.1378 51.0482 39.8736C50.8011 39.6065 50.4573 39.473 50.017 39.473C49.7159 39.473 49.446 39.5369 49.2073 39.6648C48.9715 39.7926 48.7855 39.9801 48.6491 40.2273C48.5156 40.4716 48.4488 40.767 48.4488 41.1136ZM56.6705 45.1321C56.0569 45.1321 55.5214 44.9915 55.064 44.7102C54.6066 44.429 54.2515 44.0355 53.9986 43.5298C53.7458 43.0241 53.6194 42.4332 53.6194 41.7571C53.6194 41.0781 53.7458 40.4844 53.9986 39.9759C54.2515 39.4673 54.6066 39.0724 55.064 38.7912C55.5214 38.5099 56.0569 38.3693 56.6705 38.3693C57.2842 38.3693 57.8197 38.5099 58.2771 38.7912C58.7344 39.0724 59.0896 39.4673 59.3424 39.9759C59.5952 40.4844 59.7217 41.0781 59.7217 41.7571C59.7217 42.4332 59.5952 43.0241 59.3424 43.5298C59.0896 44.0355 58.7344 44.429 58.2771 44.7102C57.8197 44.9915 57.2842 45.1321 56.6705 45.1321ZM56.6748 44.0625C57.0725 44.0625 57.4021 43.9574 57.6634 43.7472C57.9248 43.5369 58.118 43.2571 58.243 42.9077C58.3708 42.5582 58.4347 42.1733 58.4347 41.7528C58.4347 41.3352 58.3708 40.9517 58.243 40.6023C58.118 40.25 57.9248 39.9673 57.6634 39.7543C57.4021 39.5412 57.0725 39.4347 56.6748 39.4347C56.2742 39.4347 55.9418 39.5412 55.6776 39.7543C55.4163 39.9673 55.2217 40.25 55.0938 40.6023C54.9688 40.9517 54.9063 41.3352 54.9063 41.7528C54.9063 42.1733 54.9688 42.5582 55.0938 42.9077C55.2217 43.2571 55.4163 43.5369 55.6776 43.7472C55.9418 43.9574 56.2742 44.0625 56.6748 44.0625ZM60.6639 47.4545V38.4545H61.9082V39.5156H62.0147C62.0886 39.3793 62.1951 39.2216 62.3343 39.0426C62.4735 38.8636 62.6667 38.7074 62.9139 38.5739C63.161 38.4375 63.4877 38.3693 63.894 38.3693C64.4224 38.3693 64.894 38.5028 65.3088 38.7699C65.7235 39.0369 66.0488 39.4219 66.2846 39.9247C66.5233 40.4276 66.6426 41.0327 66.6426 41.7401C66.6426 42.4474 66.5247 43.054 66.2889 43.5597C66.0531 44.0625 65.7292 44.4503 65.3173 44.723C64.9054 44.9929 64.4352 45.1278 63.9068 45.1278C63.5091 45.1278 63.1838 45.0611 62.9309 44.9276C62.6809 44.794 62.4849 44.6378 62.3429 44.4588C62.2008 44.2798 62.0914 44.1207 62.0147 43.9815H61.938V47.4545H60.6639ZM61.9125 41.7273C61.9125 42.1875 61.9792 42.5909 62.1127 42.9375C62.2463 43.2841 62.4395 43.5554 62.6923 43.7514C62.9451 43.9446 63.2548 44.0412 63.6213 44.0412C64.002 44.0412 64.3201 43.9403 64.5758 43.7386C64.8315 43.5341 65.0247 43.2571 65.1554 42.9077C65.2889 42.5582 65.3556 42.1648 65.3556 41.7273C65.3556 41.2955 65.2903 40.9077 65.1596 40.5639C65.0318 40.2202 64.8386 39.9489 64.5801 39.75C64.3244 39.5511 64.0048 39.4517 63.6213 39.4517C63.252 39.4517 62.9395 39.5469 62.6838 39.7372C62.4309 39.9276 62.2392 40.1932 62.1085 40.5341C61.9778 40.875 61.9125 41.2727 61.9125 41.7273ZM67.5901 45V38.4545H68.8643V45H67.5901ZM68.2336 37.4446C68.012 37.4446 67.8217 37.3707 67.6626 37.223C67.5063 37.0724 67.4282 36.8935 67.4282 36.6861C67.4282 36.4759 67.5063 36.2969 67.6626 36.1491C67.8217 35.9986 68.012 35.9233 68.2336 35.9233C68.4552 35.9233 68.6441 35.9986 68.8004 36.1491C68.9594 36.2969 69.039 36.4759 69.039 36.6861C69.039 36.8935 68.9594 37.0724 68.8004 37.223C68.6441 37.3707 68.4552 37.4446 68.2336 37.4446ZM73.2135 38.4545V39.4773H69.5146V38.4545H73.2135ZM70.5288 45V37.696C70.5288 37.2869 70.6183 36.9474 70.7973 36.6776C70.9763 36.4048 71.2135 36.2017 71.5089 36.0682C71.8044 35.9318 72.1254 35.8636 72.472 35.8636C72.7277 35.8636 72.9464 35.8849 73.1282 35.9276C73.3101 35.9673 73.445 36.0043 73.5331 36.0384L73.2348 37.0696C73.1751 37.0526 73.0984 37.0327 73.0047 37.0099C72.9109 36.9844 72.7973 36.9716 72.6638 36.9716C72.3541 36.9716 72.1325 37.0483 71.999 37.2017C71.8683 37.3551 71.803 37.5767 71.803 37.8665V45H70.5288ZM74.8535 47.4545C74.6632 47.4545 74.4899 47.4389 74.3336 47.4077C74.1774 47.3793 74.0609 47.348 73.9842 47.3139L74.291 46.2699C74.524 46.3324 74.7313 46.3594 74.9132 46.3509C75.095 46.3423 75.2555 46.2741 75.3947 46.1463C75.5367 46.0185 75.6617 45.8097 75.7697 45.5199L75.9274 45.0852L73.5325 38.4545H74.8961L76.5538 43.5341H76.622L78.2796 38.4545H79.6475L76.9501 45.8736C76.8251 46.2145 76.666 46.5028 76.4728 46.7386C76.2796 46.9773 76.0495 47.1563 75.7825 47.2756C75.5154 47.3949 75.2058 47.4545 74.8535 47.4545ZM85.8179 45.1321C85.1843 45.1321 84.6389 44.9886 84.1815 44.7017C83.727 44.4119 83.3775 44.0128 83.1332 43.5043C82.8889 42.9957 82.7667 42.4134 82.7667 41.7571C82.7667 41.0923 82.8917 40.5057 83.1417 39.9972C83.3917 39.4858 83.744 39.0866 84.1985 38.7997C84.6531 38.5128 85.1886 38.3693 85.8051 38.3693C86.3022 38.3693 86.7454 38.4616 87.1346 38.6463C87.5238 38.8281 87.8377 39.0838 88.0764 39.4134C88.3179 39.7429 88.4613 40.1278 88.5068 40.5682H87.2667C87.1985 40.2614 87.0423 39.9972 86.798 39.7756C86.5565 39.554 86.2326 39.4432 85.8264 39.4432C85.4713 39.4432 85.1602 39.5369 84.8931 39.7244C84.6289 39.9091 84.423 40.1733 84.2752 40.517C84.1275 40.858 84.0537 41.2614 84.0537 41.7273C84.0537 42.2045 84.1261 42.6165 84.271 42.9631C84.4159 43.3097 84.6204 43.5781 84.8846 43.7685C85.1517 43.9588 85.4656 44.054 85.8264 44.054C86.0679 44.054 86.2866 44.0099 86.4826 43.9219C86.6815 43.831 86.8477 43.7017 86.9812 43.5341C87.1176 43.3665 87.2127 43.1648 87.2667 42.929H88.5068C88.4613 43.3523 88.3235 43.7301 88.0934 44.0625C87.8633 44.3949 87.5551 44.6562 87.1687 44.8466C86.7852 45.0369 86.3349 45.1321 85.8179 45.1321ZM92.1465 45.1321C91.5328 45.1321 90.9973 44.9915 90.5399 44.7102C90.0825 44.429 89.7274 44.0355 89.4746 43.5298C89.2217 43.0241 89.0953 42.4332 89.0953 41.7571C89.0953 41.0781 89.2217 40.4844 89.4746 39.9759C89.7274 39.4673 90.0825 39.0724 90.5399 38.7912C90.9973 38.5099 91.5328 38.3693 92.1465 38.3693C92.7601 38.3693 93.2956 38.5099 93.753 38.7912C94.2104 39.0724 94.5655 39.4673 94.8183 39.9759C95.0712 40.4844 95.1976 41.0781 95.1976 41.7571C95.1976 42.4332 95.0712 43.0241 94.8183 43.5298C94.5655 44.0355 94.2104 44.429 93.753 44.7102C93.2956 44.9915 92.7601 45.1321 92.1465 45.1321ZM92.1507 44.0625C92.5484 44.0625 92.878 43.9574 93.1394 43.7472C93.4007 43.5369 93.5939 43.2571 93.7189 42.9077C93.8467 42.5582 93.9107 42.1733 93.9107 41.7528C93.9107 41.3352 93.8467 40.9517 93.7189 40.6023C93.5939 40.25 93.4007 39.9673 93.1394 39.7543C92.878 39.5412 92.5484 39.4347 92.1507 39.4347C91.7501 39.4347 91.4178 39.5412 91.1536 39.7543C90.8922 39.9673 90.6976 40.25 90.5697 40.6023C90.4447 40.9517 90.3822 41.3352 90.3822 41.7528C90.3822 42.1733 90.4447 42.5582 90.5697 42.9077C90.6976 43.2571 90.8922 43.5369 91.1536 43.7472C91.4178 43.9574 91.7501 44.0625 92.1507 44.0625ZM96.1398 45V38.4545H97.3628V39.5199H97.4438C97.5802 39.1591 97.8032 38.8778 98.1128 38.6761C98.4225 38.4716 98.7932 38.3693 99.225 38.3693C99.6625 38.3693 100.029 38.4716 100.324 38.6761C100.623 38.8807 100.843 39.1619 100.985 39.5199H101.053C101.209 39.1705 101.458 38.892 101.799 38.6847C102.14 38.4744 102.546 38.3693 103.018 38.3693C103.611 38.3693 104.096 38.5554 104.471 38.9276C104.849 39.2997 105.038 39.8608 105.038 40.6108V45H103.763V40.7301C103.763 40.2869 103.643 39.9659 103.401 39.767C103.16 39.5682 102.871 39.4688 102.536 39.4688C102.121 39.4688 101.799 39.5966 101.569 39.8523C101.339 40.1051 101.224 40.4304 101.224 40.8281V45H99.9537V40.6491C99.9537 40.294 99.8429 40.0085 99.6214 39.7926C99.3998 39.5767 99.1114 39.4688 98.7563 39.4688C98.5148 39.4688 98.2918 39.5327 98.0873 39.6605C97.8856 39.7855 97.7222 39.9602 97.5972 40.1847C97.475 40.4091 97.414 40.669 97.414 40.9645V45H96.1398ZM106.265 47.4545V38.4545H107.51V39.5156H107.616C107.69 39.3793 107.797 39.2216 107.936 39.0426C108.075 38.8636 108.268 38.7074 108.515 38.5739C108.762 38.4375 109.089 38.3693 109.495 38.3693C110.024 38.3693 110.495 38.5028 110.91 38.7699C111.325 39.0369 111.65 39.4219 111.886 39.9247C112.125 40.4276 112.244 41.0327 112.244 41.7401C112.244 42.4474 112.126 43.054 111.89 43.5597C111.654 44.0625 111.331 44.4503 110.919 44.723C110.507 44.9929 110.037 45.1278 109.508 45.1278C109.11 45.1278 108.785 45.0611 108.532 44.9276C108.282 44.794 108.086 44.6378 107.944 44.4588C107.802 44.2798 107.693 44.1207 107.616 43.9815H107.539V47.4545H106.265ZM107.514 41.7273C107.514 42.1875 107.581 42.5909 107.714 42.9375C107.848 43.2841 108.041 43.5554 108.294 43.7514C108.547 43.9446 108.856 44.0412 109.223 44.0412C109.603 44.0412 109.922 43.9403 110.177 43.7386C110.433 43.5341 110.626 43.2571 110.757 42.9077C110.89 42.5582 110.957 42.1648 110.957 41.7273C110.957 41.2955 110.892 40.9077 110.761 40.5639C110.633 40.2202 110.44 39.9489 110.181 39.75C109.926 39.5511 109.606 39.4517 109.223 39.4517C108.853 39.4517 108.541 39.5469 108.285 39.7372C108.032 39.9276 107.841 40.1932 107.71 40.5341C107.579 40.875 107.514 41.2727 107.514 41.7273ZM115.096 45.1449C114.682 45.1449 114.307 45.0682 113.971 44.9148C113.636 44.7585 113.371 44.5327 113.174 44.2372C112.981 43.9418 112.885 43.5795 112.885 43.1506C112.885 42.7812 112.956 42.4773 113.098 42.2386C113.24 42 113.432 41.8111 113.673 41.6719C113.915 41.5327 114.184 41.4276 114.483 41.3565C114.781 41.2855 115.085 41.2315 115.395 41.1946C115.787 41.1491 116.105 41.1122 116.349 41.0838C116.594 41.0526 116.771 41.0028 116.882 40.9347C116.993 40.8665 117.048 40.7557 117.048 40.6023V40.5724C117.048 40.2003 116.943 39.9119 116.733 39.7074C116.525 39.5028 116.216 39.4006 115.804 39.4006C115.375 39.4006 115.037 39.4957 114.79 39.6861C114.545 39.8736 114.376 40.0824 114.282 40.3125L113.085 40.0398C113.227 39.642 113.434 39.321 113.707 39.0767C113.983 38.8295 114.299 38.6506 114.657 38.5398C115.015 38.4261 115.392 38.3693 115.787 38.3693C116.048 38.3693 116.325 38.4006 116.618 38.4631C116.913 38.5227 117.189 38.6335 117.444 38.7955C117.703 38.9574 117.915 39.1889 118.079 39.4901C118.244 39.7884 118.326 40.1761 118.326 40.6534V45H117.082V44.1051H117.031C116.949 44.2699 116.825 44.4318 116.66 44.5909C116.496 44.75 116.284 44.8821 116.025 44.9872C115.767 45.0923 115.457 45.1449 115.096 45.1449ZM115.373 44.1222C115.726 44.1222 116.027 44.0526 116.277 43.9134C116.53 43.7741 116.721 43.5923 116.852 43.3679C116.986 43.1406 117.052 42.8977 117.052 42.6392V41.7955C117.007 41.8409 116.919 41.8835 116.788 41.9233C116.66 41.9602 116.514 41.9929 116.349 42.0213C116.184 42.0469 116.024 42.071 115.868 42.0938C115.711 42.1136 115.581 42.1307 115.476 42.1449C115.228 42.1761 115.003 42.2287 114.798 42.3026C114.596 42.3764 114.434 42.483 114.312 42.6222C114.193 42.7585 114.133 42.9403 114.133 43.1676C114.133 43.483 114.25 43.7216 114.483 43.8835C114.716 44.0426 115.013 44.1222 115.373 44.1222ZM120.818 41.1136V45H119.544V38.4545H120.767V39.5199H120.848C120.998 39.1733 121.234 38.8949 121.555 38.6847C121.879 38.4744 122.286 38.3693 122.778 38.3693C123.224 38.3693 123.615 38.4631 123.95 38.6506C124.285 38.8352 124.545 39.1108 124.73 39.4773C124.914 39.8437 125.007 40.2969 125.007 40.8366V45H123.732V40.9901C123.732 40.5156 123.609 40.1449 123.362 39.8778C123.115 39.608 122.775 39.473 122.343 39.473C122.048 39.473 121.785 39.5369 121.555 39.6648C121.328 39.7926 121.147 39.9801 121.014 40.2273C120.883 40.4716 120.818 40.767 120.818 41.1136ZM126.806 47.4545C126.616 47.4545 126.443 47.4389 126.287 47.4077C126.13 47.3793 126.014 47.348 125.937 47.3139L126.244 46.2699C126.477 46.3324 126.684 46.3594 126.866 46.3509C127.048 46.3423 127.208 46.2741 127.348 46.1463C127.49 46.0185 127.615 45.8097 127.723 45.5199L127.88 45.0852L125.485 38.4545H126.849L128.507 43.5341H128.575L130.233 38.4545H131.6L128.903 45.8736C128.778 46.2145 128.619 46.5028 128.426 46.7386C128.233 46.9773 128.002 47.1563 127.735 47.2756C127.468 47.3949 127.159 47.4545 126.806 47.4545Z" fill="#C5C5CB"/>
<path d="M59.0872 59.2031V58.6364H62.4643V59.2031H61.1028V63H60.4465V59.2031H59.0872ZM63.6165 61.0568V63H62.9794V58.6364H63.608V60.2599H63.6485C63.7252 60.0838 63.8424 59.9439 64 59.8402C64.1577 59.7365 64.3637 59.6847 64.6179 59.6847C64.8424 59.6847 65.0384 59.7308 65.206 59.8232C65.375 59.9155 65.5057 60.0533 65.598 60.2365C65.6918 60.4183 65.7387 60.6456 65.7387 60.9183V63H65.1016V60.995C65.1016 60.755 65.0398 60.5689 64.9162 60.4368C64.7926 60.3033 64.6208 60.2365 64.4006 60.2365C64.25 60.2365 64.1151 60.2685 63.9958 60.3324C63.8779 60.3963 63.7848 60.4901 63.7167 60.6136C63.6499 60.7358 63.6165 60.8835 63.6165 61.0568ZM67.8193 63.0661C67.4969 63.0661 67.2192 62.9972 66.9862 62.8594C66.7547 62.7202 66.5757 62.5249 66.4493 62.2734C66.3243 62.0206 66.2618 61.7244 66.2618 61.3849C66.2618 61.0497 66.3243 60.7543 66.4493 60.4986C66.5757 60.2429 66.7519 60.0433 66.9777 59.8999C67.205 59.7564 67.4706 59.6847 67.7746 59.6847C67.9592 59.6847 68.1382 59.7152 68.3115 59.7763C68.4848 59.8374 68.6403 59.9332 68.7781 60.0639C68.9159 60.1946 69.0246 60.3643 69.1041 60.5732C69.1837 60.7805 69.2234 61.0327 69.2234 61.3295V61.5554H66.6219V61.0781H68.5992C68.5992 60.9105 68.5651 60.7621 68.4969 60.6328C68.4287 60.5021 68.3328 60.3991 68.2092 60.3239C68.0871 60.2486 67.9436 60.2109 67.7788 60.2109C67.5999 60.2109 67.4436 60.255 67.3101 60.343C67.178 60.4297 67.0757 60.5433 67.0033 60.6839C66.9323 60.8232 66.8967 60.9744 66.8967 61.1378V61.5107C66.8967 61.7294 66.9351 61.9155 67.0118 62.0689C67.0899 62.2223 67.1986 62.3395 67.3378 62.4205C67.477 62.5 67.6396 62.5398 67.8257 62.5398C67.9465 62.5398 68.0565 62.5227 68.156 62.4886C68.2554 62.4531 68.3413 62.4006 68.4138 62.331C68.4862 62.2614 68.5416 62.1754 68.58 62.0732L69.183 62.1818C69.1347 62.3594 69.048 62.5149 68.923 62.6484C68.7994 62.7805 68.6439 62.8835 68.4564 62.9574C68.2703 63.0298 68.058 63.0661 67.8193 63.0661ZM71.2093 58.6364H72.0083L73.3975 62.0284H73.4487L74.8379 58.6364H75.6369V63H75.0105V59.8423H74.97L73.683 62.9936H73.1632L71.8762 59.8402H71.8357V63H71.2093V58.6364ZM77.3154 63.0724C77.108 63.0724 76.9205 63.0341 76.7529 62.9574C76.5853 62.8793 76.4524 62.7663 76.3544 62.6186C76.2578 62.4709 76.2095 62.2898 76.2095 62.0753C76.2095 61.8906 76.2451 61.7386 76.3161 61.6193C76.3871 61.5 76.483 61.4055 76.6037 61.3359C76.7245 61.2663 76.8594 61.2138 77.0086 61.1783C77.1577 61.1428 77.3097 61.1158 77.4645 61.0973C77.6605 61.0746 77.8196 61.0561 77.9418 61.0419C78.064 61.0263 78.1527 61.0014 78.2081 60.9673C78.2635 60.9332 78.2912 60.8778 78.2912 60.8011V60.7862C78.2912 60.6001 78.2387 60.456 78.1336 60.3537C78.0299 60.2514 77.875 60.2003 77.6691 60.2003C77.4546 60.2003 77.2855 60.2479 77.162 60.343C77.0398 60.4368 76.9553 60.5412 76.9084 60.6562L76.3097 60.5199C76.3807 60.321 76.4844 60.1605 76.6208 60.0384C76.7586 59.9148 76.9169 59.8253 77.0959 59.7699C77.2749 59.7131 77.4631 59.6847 77.6605 59.6847C77.7912 59.6847 77.9297 59.7003 78.076 59.7315C78.2238 59.7614 78.3615 59.8168 78.4894 59.8977C78.6186 59.9787 78.7245 60.0945 78.8068 60.245C78.8892 60.3942 78.9304 60.5881 78.9304 60.8267V63H78.3083V62.5526H78.2827C78.2415 62.6349 78.1797 62.7159 78.0973 62.7955C78.0149 62.875 77.9091 62.9411 77.7799 62.9936C77.6506 63.0462 77.4958 63.0724 77.3154 63.0724ZM77.4539 62.5611C77.63 62.5611 77.7806 62.5263 77.9056 62.4567C78.032 62.3871 78.1279 62.2962 78.1932 62.1839C78.26 62.0703 78.2934 61.9489 78.2934 61.8196V61.3977C78.2706 61.4205 78.2266 61.4418 78.1613 61.4616C78.0973 61.4801 78.0242 61.4964 77.9418 61.5107C77.8594 61.5234 77.7791 61.5355 77.701 61.5469C77.6229 61.5568 77.5576 61.5653 77.505 61.5724C77.3814 61.5881 77.2685 61.6143 77.1662 61.6513C77.0654 61.6882 76.9844 61.7415 76.9233 61.8111C76.8637 61.8793 76.8338 61.9702 76.8338 62.0838C76.8338 62.2415 76.8921 62.3608 77.0086 62.4418C77.125 62.5213 77.2735 62.5611 77.4539 62.5611ZM80.236 61.0568V63H79.599V59.7273H80.2105V60.2599H80.251C80.3262 60.0866 80.4441 59.9474 80.6047 59.8423C80.7666 59.7372 80.9704 59.6847 81.2162 59.6847C81.4392 59.6847 81.6345 59.7315 81.8021 59.8253C81.9697 59.9176 82.0997 60.0554 82.192 60.2386C82.2843 60.4219 82.3305 60.6484 82.3305 60.9183V63H81.6934V60.995C81.6934 60.7578 81.6316 60.5724 81.5081 60.4389C81.3845 60.304 81.2147 60.2365 80.9988 60.2365C80.8511 60.2365 80.7197 60.2685 80.6047 60.3324C80.491 60.3963 80.4008 60.4901 80.3341 60.6136C80.2687 60.7358 80.236 60.8835 80.236 61.0568ZM83.0049 63V59.7273H83.642V63H83.0049ZM83.3266 59.2223C83.2158 59.2223 83.1207 59.1854 83.0411 59.1115C82.963 59.0362 82.9239 58.9467 82.9239 58.843C82.9239 58.7379 82.963 58.6484 83.0411 58.5746C83.1207 58.4993 83.2158 58.4616 83.3266 58.4616C83.4374 58.4616 83.5319 58.4993 83.61 58.5746C83.6896 58.6484 83.7293 58.7379 83.7293 58.843C83.7293 58.9467 83.6896 59.0362 83.61 59.1115C83.5319 59.1854 83.4374 59.2223 83.3266 59.2223ZM85.8766 59.7273V60.2386H84.0271V59.7273H85.8766ZM84.5342 63V59.348C84.5342 59.1435 84.579 58.9737 84.6685 58.8388C84.758 58.7024 84.8766 58.6009 85.0243 58.5341C85.172 58.4659 85.3325 58.4318 85.5058 58.4318C85.6337 58.4318 85.7431 58.4425 85.834 58.4638C85.9249 58.4837 85.9923 58.5021 86.0364 58.5192L85.8872 59.0348C85.8574 59.0263 85.819 59.0163 85.7722 59.005C85.7253 58.9922 85.6685 58.9858 85.6017 58.9858C85.4469 58.9858 85.3361 59.0241 85.2693 59.1009C85.204 59.1776 85.1713 59.2884 85.1713 59.4332V63H84.5342ZM87.6355 63.0661C87.3131 63.0661 87.0354 62.9972 86.8024 62.8594C86.5709 62.7202 86.3919 62.5249 86.2655 62.2734C86.1405 62.0206 86.078 61.7244 86.078 61.3849C86.078 61.0497 86.1405 60.7543 86.2655 60.4986C86.3919 60.2429 86.568 60.0433 86.7939 59.8999C87.0212 59.7564 87.2868 59.6847 87.5908 59.6847C87.7754 59.6847 87.9544 59.7152 88.1277 59.7763C88.301 59.8374 88.4565 59.9332 88.5943 60.0639C88.7321 60.1946 88.8408 60.3643 88.9203 60.5732C88.9998 60.7805 89.0396 61.0327 89.0396 61.3295V61.5554H86.4381V61.0781H88.4153C88.4153 60.9105 88.3812 60.7621 88.3131 60.6328C88.2449 60.5021 88.149 60.3991 88.0254 60.3239C87.9033 60.2486 87.7598 60.2109 87.595 60.2109C87.416 60.2109 87.2598 60.255 87.1263 60.343C86.9942 60.4297 86.8919 60.5433 86.8194 60.6839C86.7484 60.8232 86.7129 60.9744 86.7129 61.1378V61.5107C86.7129 61.7294 86.7513 61.9155 86.828 62.0689C86.9061 62.2223 87.0148 62.3395 87.154 62.4205C87.2932 62.5 87.4558 62.5398 87.6419 62.5398C87.7626 62.5398 87.8727 62.5227 87.9721 62.4886C88.0716 62.4531 88.1575 62.4006 88.23 62.331C88.3024 62.2614 88.3578 62.1754 88.3962 62.0732L88.9991 62.1818C88.9508 62.3594 88.8642 62.5149 88.7392 62.6484C88.6156 62.7805 88.4601 62.8835 88.2726 62.9574C88.0865 63.0298 87.8741 63.0661 87.6355 63.0661ZM92.0189 60.5263L91.4415 60.6286C91.4173 60.5547 91.379 60.4844 91.3264 60.4176C91.2753 60.3509 91.2057 60.2962 91.1176 60.2536C91.0295 60.2109 90.9195 60.1896 90.7874 60.1896C90.607 60.1896 90.4564 60.2301 90.3356 60.3111C90.2149 60.3906 90.1545 60.4936 90.1545 60.62C90.1545 60.7294 90.195 60.8175 90.276 60.8842C90.357 60.951 90.4876 61.0057 90.668 61.0483L91.1879 61.1676C91.4891 61.2372 91.7135 61.3445 91.8612 61.4893C92.0089 61.6342 92.0828 61.8224 92.0828 62.054C92.0828 62.25 92.026 62.4247 91.9124 62.5781C91.8001 62.7301 91.6432 62.8494 91.4415 62.9361C91.2412 63.0227 91.0089 63.0661 90.7447 63.0661C90.3783 63.0661 90.0793 62.9879 89.8477 62.8317C89.6162 62.674 89.4741 62.4503 89.4216 62.1605L90.0374 62.0668C90.0757 62.2273 90.1545 62.3487 90.2739 62.4311C90.3932 62.5121 90.5487 62.5526 90.7405 62.5526C90.9493 62.5526 91.1162 62.5092 91.2412 62.4226C91.3662 62.3345 91.4287 62.2273 91.4287 62.1009C91.4287 61.9986 91.3903 61.9126 91.3136 61.843C91.2383 61.7734 91.1226 61.7209 90.9663 61.6854L90.4124 61.5639C90.107 61.4943 89.8811 61.3835 89.7348 61.2315C89.5899 61.0795 89.5175 60.8871 89.5175 60.6541C89.5175 60.4609 89.5714 60.2919 89.6794 60.147C89.7874 60.0021 89.9365 59.8892 90.1268 59.8082C90.3172 59.7259 90.5352 59.6847 90.781 59.6847C91.1347 59.6847 91.4131 59.7614 91.6162 59.9148C91.8193 60.0668 91.9535 60.2706 92.0189 60.5263ZM94.131 59.7273V60.2386H92.3433V59.7273H94.131ZM92.8227 58.9432H93.4598V62.0391C93.4598 62.1626 93.4783 62.2557 93.5152 62.3182C93.5521 62.3793 93.5997 62.4212 93.658 62.4439C93.7176 62.4652 93.7822 62.4759 93.8518 62.4759C93.903 62.4759 93.9477 62.4723 93.9861 62.4652C94.0244 62.4581 94.0543 62.4524 94.0756 62.4482L94.1906 62.9744C94.1537 62.9886 94.1011 63.0028 94.033 63.017C93.9648 63.0327 93.8795 63.0412 93.7773 63.0426C93.6097 63.0455 93.4534 63.0156 93.3085 62.9531C93.1636 62.8906 93.0465 62.794 92.957 62.6634C92.8675 62.5327 92.8227 62.3686 92.8227 62.1712V58.9432ZM95.4845 62.4034L95.4526 62.6357C95.4313 62.8061 95.395 62.9837 95.3439 63.1683C95.2942 63.3544 95.2423 63.527 95.1884 63.6861C95.1358 63.8452 95.0925 63.9716 95.0584 64.0653H94.6067C94.6252 63.9773 94.6507 63.858 94.6834 63.7074C94.7161 63.5582 94.748 63.3913 94.7793 63.2067C94.8105 63.022 94.834 62.8338 94.8496 62.642L94.8709 62.4034H95.4845ZM97.5333 63V62.5227L99.0098 60.9929C99.1675 60.8267 99.2975 60.6811 99.3997 60.5561C99.5034 60.4297 99.5808 60.3097 99.632 60.196C99.6831 60.0824 99.7087 59.9616 99.7087 59.8338C99.7087 59.6889 99.6746 59.5639 99.6064 59.4588C99.5382 59.3523 99.4452 59.2706 99.3273 59.2138C99.2094 59.1555 99.0766 59.1264 98.9289 59.1264C98.7726 59.1264 98.6362 59.1584 98.5198 59.2223C98.4033 59.2862 98.3138 59.3764 98.2513 59.4929C98.1888 59.6094 98.1576 59.7457 98.1576 59.902H97.529C97.529 59.6364 97.5901 59.4041 97.7122 59.2053C97.8344 59.0064 98.002 58.8523 98.2151 58.7429C98.4281 58.6321 98.6703 58.5767 98.9416 58.5767C99.2158 58.5767 99.4573 58.6314 99.6661 58.7408C99.8763 58.8487 100.04 58.9964 100.158 59.1839C100.276 59.37 100.335 59.5803 100.335 59.8146C100.335 59.9766 100.305 60.1349 100.243 60.2898C100.184 60.4446 100.079 60.6172 99.9303 60.8075C99.7811 60.9964 99.5737 61.2259 99.3081 61.4957L98.4409 62.4034V62.4354H100.405V63H97.5333ZM102.552 63.0724C102.215 63.071 101.928 62.9822 101.689 62.8061C101.451 62.63 101.268 62.3736 101.142 62.0369C101.015 61.7003 100.952 61.2947 100.952 60.8203C100.952 60.3473 101.015 59.9432 101.142 59.608C101.269 59.2727 101.453 59.017 101.691 58.8409C101.931 58.6648 102.218 58.5767 102.552 58.5767C102.886 58.5767 103.172 58.6655 103.411 58.843C103.649 59.0192 103.832 59.2749 103.958 59.6101C104.086 59.9439 104.15 60.3473 104.15 60.8203C104.15 61.2962 104.087 61.7024 103.961 62.0391C103.834 62.3743 103.652 62.6307 103.413 62.8082C103.174 62.9844 102.887 63.0724 102.552 63.0724ZM102.552 62.5036C102.848 62.5036 103.078 62.3594 103.245 62.071C103.412 61.7827 103.496 61.3658 103.496 60.8203C103.496 60.4581 103.458 60.152 103.381 59.902C103.306 59.6506 103.197 59.4602 103.055 59.331C102.914 59.2003 102.747 59.1349 102.552 59.1349C102.258 59.1349 102.027 59.2798 101.86 59.5696C101.692 59.8594 101.608 60.2763 101.606 60.8203C101.606 61.1839 101.644 61.4915 101.719 61.7429C101.796 61.9929 101.904 62.1825 102.045 62.3118C102.186 62.4396 102.355 62.5036 102.552 62.5036ZM104.726 63V62.5227L106.203 60.9929C106.36 60.8267 106.49 60.6811 106.592 60.5561C106.696 60.4297 106.774 60.3097 106.825 60.196C106.876 60.0824 106.901 59.9616 106.901 59.8338C106.901 59.6889 106.867 59.5639 106.799 59.4588C106.731 59.3523 106.638 59.2706 106.52 59.2138C106.402 59.1555 106.269 59.1264 106.122 59.1264C105.965 59.1264 105.829 59.1584 105.713 59.2223C105.596 59.2862 105.507 59.3764 105.444 59.4929C105.382 59.6094 105.35 59.7457 105.35 59.902H104.722C104.722 59.6364 104.783 59.4041 104.905 59.2053C105.027 59.0064 105.195 58.8523 105.408 58.7429C105.621 58.6321 105.863 58.5767 106.134 58.5767C106.409 58.5767 106.65 58.6314 106.859 58.7408C107.069 58.8487 107.233 58.9964 107.351 59.1839C107.469 59.37 107.528 59.5803 107.528 59.8146C107.528 59.9766 107.497 60.1349 107.436 60.2898C107.377 60.4446 107.272 60.6172 107.123 60.8075C106.974 60.9964 106.766 61.2259 106.501 61.4957L105.634 62.4034V62.4354H107.598V63H104.726ZM109.745 63.0597C109.452 63.0597 109.191 63.0092 108.961 62.9084C108.732 62.8075 108.551 62.6676 108.417 62.4886C108.285 62.3082 108.214 62.0994 108.204 61.8622H108.873C108.882 61.9915 108.925 62.1037 109.003 62.1989C109.083 62.2926 109.187 62.3651 109.314 62.4162C109.442 62.4673 109.584 62.4929 109.741 62.4929C109.912 62.4929 110.064 62.4631 110.197 62.4034C110.33 62.3437 110.434 62.2607 110.51 62.1541C110.585 62.0462 110.623 61.9219 110.623 61.7812C110.623 61.6349 110.585 61.5064 110.51 61.3956C110.436 61.2834 110.327 61.1953 110.184 61.1314C110.042 61.0675 109.87 61.0355 109.668 61.0355H109.3V60.4986H109.668C109.83 60.4986 109.972 60.4695 110.094 60.4112C110.218 60.353 110.314 60.272 110.384 60.1683C110.454 60.0632 110.488 59.9403 110.488 59.7997C110.488 59.6648 110.458 59.5476 110.397 59.4482C110.337 59.3473 110.252 59.2685 110.141 59.2116C110.032 59.1548 109.903 59.1264 109.753 59.1264C109.611 59.1264 109.479 59.1527 109.355 59.2053C109.233 59.2564 109.133 59.3303 109.057 59.4268C108.98 59.522 108.939 59.6364 108.933 59.7699H108.296C108.303 59.5341 108.373 59.3267 108.505 59.1477C108.638 58.9687 108.814 58.8288 109.033 58.728C109.252 58.6271 109.495 58.5767 109.762 58.5767C110.042 58.5767 110.283 58.6314 110.486 58.7408C110.691 58.8487 110.849 58.9929 110.959 59.1733C111.072 59.3537 111.127 59.5511 111.126 59.7656C111.127 60.0099 111.059 60.2173 110.921 60.3878C110.785 60.5582 110.603 60.6726 110.376 60.7308V60.7649C110.665 60.8089 110.89 60.924 111.049 61.1101C111.209 61.2962 111.289 61.527 111.287 61.8026C111.289 62.0426 111.222 62.2578 111.087 62.4482C110.954 62.6385 110.771 62.7884 110.54 62.8977C110.308 63.0057 110.043 63.0597 109.745 63.0597Z" fill="#AEAEB7"/>
<path d="M25.7649 58.3112C25.3878 58.0208 25.0108 57.8031 24.6337 57.6579C24.2567 57.5128 23.8797 57.4402 23.4272 57.4402C22.5977 57.3676 21.6928 57.5854 20.7879 57.7305C19.883 57.9483 19.0535 58.166 18.4502 58.3837C17.847 58.6015 17.3945 58.7466 17.3945 58.7466C17.3945 58.7466 17.7716 58.9644 18.4502 59.2547C19.0535 59.545 19.9584 59.8354 20.9387 59.9805C21.919 60.1257 22.8993 60.1257 23.8043 59.9079C24.7846 59.6902 25.5386 59.1821 25.7649 58.3112Z" fill="#34343D"/>
<path d="M23.1279 54.608C23.5049 55.3338 23.9574 56.0596 24.6361 56.4951C24.9377 56.7128 25.3147 56.9305 25.6918 57.0031C26.0688 57.0757 26.5213 57.0757 26.8983 56.858C26.8983 55.987 26.6721 55.2612 26.2951 54.6805C25.918 54.0999 25.3147 53.5193 24.7869 53.0838C24.1836 52.6483 23.6558 52.2854 23.2033 51.9951C22.7509 51.7047 22.4492 51.5596 22.4492 51.5596C22.4492 51.5596 22.4492 51.6321 22.4492 51.8499C22.4492 51.995 22.5246 52.2128 22.5246 52.5031C22.6 53.0838 22.7508 53.8096 23.1279 54.608Z" fill="#34343D"/>
<path d="M16.7917 56.5686C17.6966 56.496 18.4507 56.2057 18.9786 55.4799C18.5261 54.7541 17.8475 54.3186 17.0934 54.1009C16.3393 53.8831 15.359 53.8105 14.4541 53.8105C13.5492 53.8105 12.6443 53.8105 11.9656 53.8105C11.2869 53.8105 10.8345 53.8105 10.8345 53.8105C10.8345 53.8105 10.9099 53.8831 11.0607 54.0283C11.2115 54.1734 11.4377 54.3912 11.7394 54.6089C12.3426 55.0444 13.0967 55.5525 14.0016 55.988C14.9819 56.3509 15.9622 56.5686 16.7917 56.5686Z" fill="#34343D"/>
<path d="M18.4519 53.23C18.9798 53.8107 19.6585 54.2462 20.488 54.1736C20.865 53.3752 20.7896 52.5768 20.5634 51.851C20.3371 51.1252 19.8847 50.472 19.5077 49.8913C19.0552 49.3107 18.6782 48.8752 18.3011 48.5123C18.1503 48.3671 17.9995 48.222 17.9241 48.0768C17.8487 48.0042 17.7733 47.9316 17.7733 47.9316C17.7733 47.9316 17.7732 48.0042 17.6978 48.1494C17.6224 48.2945 17.6224 48.5123 17.547 48.8026C17.4716 49.3833 17.3962 50.1091 17.547 50.9075C17.6979 51.7784 17.9995 52.5768 18.4519 53.23Z" fill="#34343D"/>
<path d="M7.74321 47.2054C7.13995 46.9876 6.6875 46.915 6.6875 46.915C6.6875 46.915 6.76289 46.9876 6.8383 47.2054C6.91371 47.3505 7.06453 47.5683 7.21535 47.8586C7.36616 48.1489 7.5924 48.4392 7.81863 48.8021C7.96944 48.9473 8.04485 49.165 8.19567 49.3102L8.27106 49.4554L8.42189 49.6005C8.49729 49.6731 8.57269 49.8183 8.6481 49.8908C9.40219 50.6892 10.3071 51.3425 11.1366 51.6328C12.0415 51.9231 12.871 51.8505 13.6251 51.2699C13.3988 50.3989 12.9464 49.8183 12.2677 49.3828C12.1169 49.2376 11.8907 49.165 11.7399 49.0199C11.589 48.8747 11.3628 48.8021 11.1366 48.657C10.9104 48.5118 10.7595 48.4392 10.5333 48.2941C10.3071 48.2215 10.1563 48.0763 9.93005 48.0037C9.17597 47.6408 8.34648 47.3505 7.74321 47.2054Z" fill="#34343D"/>
<path d="M13.851 48.6571C14.0772 49.3829 14.6051 49.9636 15.4346 50.1813C16.0378 49.5281 16.1887 48.7297 16.2641 48.0765C16.3395 47.3507 16.1887 46.6975 16.1133 46.1168C16.1133 45.8991 15.9624 45.4636 15.887 45.1733C15.8116 44.8829 15.6608 44.5926 15.5854 44.3023C15.51 44.0846 15.4346 43.8668 15.3592 43.7217C15.2838 43.5765 15.2838 43.5039 15.2838 43.5039C15.2838 43.5039 15.2084 43.5765 15.133 43.7217C15.0575 43.8668 14.9067 44.0846 14.7559 44.3023C14.4543 44.8104 14.1526 45.5362 13.9264 46.262C13.851 46.4797 13.851 46.6249 13.7756 46.8426C13.7002 47.0604 13.7002 47.2055 13.7002 47.4233C13.7002 47.641 13.7002 47.7862 13.7002 48.0039C13.7002 48.2942 13.7756 48.512 13.851 48.6571Z" fill="#34343D"/>
<path d="M6.83897 44.2292C6.98978 44.3743 7.1406 44.5195 7.29142 44.6647C7.44224 44.8098 7.66847 44.955 7.81929 45.0276C8.57337 45.463 9.32745 45.6808 10.2323 45.3905C10.3078 44.955 10.3078 44.5921 10.1569 44.2292C10.0815 44.084 10.0061 43.8663 9.93072 43.7211C9.85531 43.5759 9.7045 43.4308 9.62909 43.213C9.17664 42.5598 8.42255 42.0518 7.74388 41.5437C7.0652 41.0356 6.31111 40.6001 5.70784 40.3098C5.10457 40.0195 4.72754 39.8018 4.72754 39.8018C4.72754 39.8018 4.72754 39.8743 4.80295 40.0921C4.87836 40.3098 4.95376 40.5276 5.02917 40.8179C5.25539 41.3985 5.55702 42.2695 6.08488 42.9953C6.2357 43.5034 6.53733 43.8663 6.83897 44.2292Z" fill="#34343D"/>
<path d="M11.5131 43.867C11.6639 44.2299 11.9655 44.5202 12.2671 44.738C13.0212 44.3025 13.4737 43.6493 13.7753 42.9235C13.8507 42.7783 13.8507 42.5605 13.9261 42.4154C13.9261 42.3428 13.9261 42.1976 14.0015 42.1251C14.0015 42.0525 14.0015 41.9073 14.0769 41.8347C14.1523 41.4718 14.1524 41.1089 14.1524 40.746C14.0769 40.0202 14.0769 39.367 13.9261 38.8589C13.8507 38.6412 13.8507 38.4235 13.7753 38.2783C13.7753 38.1331 13.6999 38.0605 13.6999 38.0605C13.6999 38.0605 13.6245 38.1331 13.4737 38.2783C13.3229 38.4235 13.172 38.5686 13.0212 38.7864C12.6442 39.2218 12.1917 39.8751 11.8147 40.6009C11.4376 41.3267 11.2114 42.1251 11.2114 42.9235C11.2114 43.1412 11.2114 43.2864 11.2868 43.5041C11.3622 43.5767 11.4376 43.7218 11.5131 43.867Z" fill="#34343D"/>
<path d="M5.25486 37.3352C5.33027 37.553 5.48108 37.6981 5.6319 37.9159C5.78272 38.061 5.93354 38.2788 6.08435 38.4239C6.68762 39.0046 7.44171 39.3675 8.34661 39.2223C8.49742 38.8594 8.57284 38.4239 8.49743 38.061C8.49743 37.8433 8.42202 37.6981 8.34661 37.4804C8.2712 37.3352 8.1958 37.1175 8.12039 36.9723C7.96957 36.6094 7.74335 36.2465 7.44172 35.9562C7.2909 35.811 7.14009 35.5933 7.06468 35.4481C6.91386 35.303 6.76304 35.1578 6.61222 34.9401C6.00895 34.2869 5.33027 33.7062 4.87781 33.2707C4.42536 32.8352 4.04834 32.5449 4.04834 32.5449C4.04834 32.5449 4.04834 32.9804 4.04834 33.6336C4.04834 33.9965 4.12373 34.3594 4.19914 34.7223C4.27455 34.9401 4.27456 35.1578 4.34997 35.3756C4.42538 35.5933 4.42537 35.8111 4.57619 36.0288C4.87782 36.4643 5.10404 36.8998 5.25486 37.3352Z" fill="#34343D"/>
<path d="M10.5346 38.714C11.3641 38.4236 11.9674 37.843 12.3444 37.2624C12.4199 37.1172 12.4953 36.972 12.5707 36.7543C12.6461 36.6091 12.7215 36.3914 12.7969 36.2462C12.9477 35.8833 13.0231 35.5204 13.0985 35.2301C13.1739 34.8672 13.2493 34.5769 13.2493 34.214C13.2493 34.0688 13.2493 33.9236 13.3248 33.7785C13.3248 33.6333 13.3248 33.4882 13.3248 33.4156C13.4002 32.9075 13.4002 32.6172 13.4002 32.6172C13.4002 32.6172 13.0985 32.7624 12.5707 33.1253C12.4198 33.1978 12.3444 33.2704 12.1936 33.4156C12.0428 33.4882 11.892 33.6333 11.8166 33.7785C11.5149 33.9962 11.2887 34.2866 10.9871 34.5769C10.8363 34.722 10.7609 34.8672 10.61 35.0849C10.5346 35.1575 10.4592 35.2301 10.4592 35.3753C10.3838 35.4478 10.3838 35.5204 10.3084 35.6656C10.1576 36.0285 10.0068 36.3914 9.93137 36.7543C9.93137 36.972 9.85596 37.1172 9.85596 37.3349C9.85596 37.5527 9.93137 37.6978 9.93137 37.843C10.0822 38.0607 10.233 38.4236 10.5346 38.714Z" fill="#34343D"/>
<path d="M7.36506 28.1903C7.13884 27.8274 6.9126 27.4645 6.76178 27.1016C6.53556 26.7387 6.30934 26.4484 6.15852 26.1581C5.78148 25.65 5.55526 25.2871 5.55526 25.2871C5.55526 25.2871 5.40443 25.7226 5.32903 26.3758C5.25362 26.6661 5.25363 27.1016 5.17822 27.4645C5.17822 27.6823 5.17822 27.9 5.17822 28.1177C5.17822 28.3355 5.17822 28.5532 5.17822 28.771C5.25363 29.2065 5.25362 29.6419 5.40444 30.0774C5.55526 30.5129 5.70608 30.9484 5.93231 31.2387C6.38476 31.9645 7.06342 32.4726 7.96832 32.5452C8.11914 32.4 8.19454 32.1823 8.26995 32.0371C8.34536 31.8919 8.42078 31.6742 8.42078 31.529C8.49619 31.1661 8.42077 30.8032 8.34536 30.4403C8.26996 30.0774 8.11914 29.6419 7.96832 29.279C7.8175 28.9887 7.59129 28.5532 7.36506 28.1903Z" fill="#34343D"/>
<path d="M12.269 31.528C12.5707 31.2377 12.7969 31.02 12.9477 30.6571C13.1739 30.3667 13.3248 30.0764 13.4756 29.7135C13.551 29.5684 13.6264 29.4232 13.7018 29.278C13.7772 29.1329 13.8526 28.9877 13.928 28.8425C14.0788 28.5522 14.1543 28.3345 14.2297 28.0442C14.3805 27.6087 14.4559 27.3184 14.4559 27.3184C14.4559 27.3184 14.0788 27.3909 13.551 27.6087C13.0231 27.8264 12.3444 28.1167 11.6658 28.6248C11.5149 28.77 11.3641 28.8425 11.2133 28.9877C11.0625 29.1329 10.9117 29.278 10.7609 29.4232C10.4592 29.7135 10.233 30.0764 10.0822 30.3667C9.93138 30.7296 9.85596 31.0926 9.85596 31.4555C9.85596 31.6006 9.85596 31.8184 9.93137 31.9635C10.0068 32.1087 10.0822 32.3264 10.1576 32.4716C11.0625 32.399 11.7412 32.0361 12.269 31.528Z" fill="#34343D"/>
<path d="M9.62749 25.8671C9.77831 25.722 9.85371 25.5768 9.92912 25.3591C10.0045 25.2139 10.0799 24.9962 10.0799 24.851C10.0799 24.7058 10.1553 24.4881 10.1553 24.2703C10.1553 23.9074 10.1554 23.472 10.0799 23.0365C10.0045 22.601 9.92911 22.2381 9.8537 21.8026C9.62748 21.0042 9.40126 20.2058 9.17503 19.6252C8.94881 19.0445 8.79799 18.6816 8.79799 18.6816C8.79799 18.6816 8.72257 18.7542 8.64716 18.8994C8.57176 19.0445 8.42094 19.3349 8.27012 19.6252C7.96849 20.2058 7.66685 21.0042 7.51604 21.8752C7.44063 22.3107 7.36523 22.7462 7.36523 23.1816C7.36523 23.3994 7.36524 23.6171 7.44065 23.8349C7.44065 24.0526 7.51604 24.2703 7.59145 24.4881C7.74227 24.851 7.8931 25.2139 8.19473 25.5768C8.49637 25.8671 8.798 26.1574 9.25045 26.3026C9.40126 26.23 9.55208 26.0849 9.62749 25.8671Z" fill="#34343D"/>
<path d="M16.7929 22.7451C16.8683 22.5999 16.9437 22.5273 16.9437 22.5273C16.9437 22.5273 16.8683 22.5273 16.6421 22.5273C16.4913 22.5273 16.2651 22.5273 15.9634 22.5999C15.6618 22.5999 15.3602 22.6725 14.9831 22.7451C14.8323 22.8177 14.6061 22.8177 14.4553 22.8902C14.3044 22.9628 14.0782 23.0354 13.9274 23.108C13.5503 23.2532 13.1733 23.3983 12.7963 23.6161C12.4946 23.8338 12.193 24.1241 11.8914 24.3419C11.7406 24.487 11.6651 24.6322 11.5897 24.7773C11.5143 24.9225 11.4389 25.1402 11.3635 25.2854C11.2881 25.4306 11.2881 25.6483 11.2881 25.7935C11.2881 26.0112 11.3635 26.1564 11.3635 26.3741C11.8159 26.4467 12.193 26.4467 12.57 26.3741C12.9471 26.3015 13.3241 26.1564 13.6258 25.9386C13.7766 25.8661 13.9274 25.7209 14.0782 25.6483C14.1536 25.5757 14.229 25.5032 14.3044 25.5032C14.3798 25.4306 14.4553 25.358 14.5307 25.358C14.8323 25.1402 15.0585 24.8499 15.2847 24.6322C15.511 24.3419 15.7372 24.1241 15.888 23.9064C15.9634 23.8338 15.9634 23.7612 16.0388 23.6886C16.1142 23.6161 16.1142 23.5435 16.1896 23.5435C16.265 23.3983 16.3405 23.3257 16.4159 23.2532C16.5667 23.0354 16.7175 22.8902 16.7929 22.7451Z" fill="#34343D"/>
<path d="M12.1145 20.5686C12.4915 20.3508 12.7932 20.1331 13.0194 19.8428C13.2456 19.5525 13.3964 19.1895 13.5473 18.8266C13.7735 18.1008 13.8489 17.2299 13.8489 16.4315C13.8489 16.2137 13.8489 15.996 13.8489 15.7783C13.8489 15.5605 13.8489 15.3428 13.8489 15.1976C13.8489 14.8347 13.7735 14.4718 13.7735 14.1089C13.6981 13.5283 13.6227 13.0928 13.6227 13.0928C13.6227 13.0928 13.5473 13.1654 13.3965 13.3105C13.2456 13.4557 13.0948 13.6734 12.8686 13.8912C12.6424 14.1815 12.4161 14.4718 12.2653 14.7621C12.0391 15.125 11.8129 15.4879 11.662 15.8508C11.5112 16.2863 11.3604 16.6492 11.2096 17.0847C11.1342 17.5202 11.0588 17.9557 11.0588 18.3186C10.9834 19.2621 11.3604 20.0605 12.1145 20.5686Z" fill="#34343D"/>
<path d="M18.4491 20.1328C18.7508 19.9151 19.0524 19.6974 19.2786 19.4796C19.5049 19.2619 19.7311 19.1167 19.9573 18.899C20.1081 18.7538 20.259 18.6087 20.4098 18.4635C20.4852 18.3909 20.5606 18.3183 20.5606 18.3183C20.5606 18.3183 20.1835 18.2458 19.5803 18.1732C19.2786 18.1732 18.977 18.1006 18.6 18.1006C18.2229 18.1006 17.8459 18.1006 17.3934 18.1732C16.5639 18.3183 15.7344 18.5361 15.1312 18.9716C14.8295 19.1893 14.6033 19.4796 14.3771 19.7699C14.2263 20.0603 14.1509 20.4232 14.1509 20.8587C14.9804 21.2216 15.8099 21.149 16.4885 21.0038C16.8656 20.9312 17.1672 20.7861 17.5443 20.5683C17.8459 20.4958 18.1475 20.3506 18.4491 20.1328Z" fill="#34343D"/>
<path d="M24.9377 57.3667C22.0721 56.278 19.2066 54.9716 16.7935 53.0845C14.2297 51.0522 12.4199 48.2942 11.1379 45.1006C9.55433 41.399 8.42321 37.5522 8.57403 33.4877C8.72485 30.0039 9.70516 26.5926 11.2133 23.399C12.4953 20.8587 14.0788 18.3184 16.0395 16.0684C15.8886 15.778 15.8886 15.4151 15.964 15.1248C16.0395 14.7619 16.1903 14.399 16.4165 14.1087C16.869 13.4555 17.5476 12.8748 18.3017 12.5119C19.0558 12.0764 19.8099 11.8587 20.4131 11.7135C20.7148 11.6409 20.941 11.5684 21.0918 11.5684H21.3181H21.3935V11.6409C21.3935 11.6409 21.3935 11.7135 21.3181 11.7861C21.2426 11.9313 21.1672 12.149 21.0164 12.3668C20.7902 12.8748 20.4131 13.4555 19.9607 14.1087C19.7345 14.399 19.4328 14.6893 19.2066 14.9797L18.8296 15.3426L18.8295 15.3427C18.6787 15.4878 18.5279 15.6329 18.3771 15.7055C18.0755 15.8506 17.7738 16.0684 17.3968 16.1409C17.1706 16.2135 16.8689 16.2135 16.5673 16.2135C15.7378 17.2297 14.9083 18.2458 14.2297 19.2619C11.4395 23.2538 9.47892 27.899 9.17729 32.7619C8.95106 36.9716 9.93138 40.8909 11.5904 44.7377C12.4199 46.77 13.4756 48.7296 14.9837 50.399C16.4919 52.0684 18.3017 53.3748 20.2623 54.4635C24.0328 56.4958 29.5376 58.8184 34.7408 60.4877L33.308 61.1409C30.2917 59.7619 27.2753 58.2377 24.9377 57.3667Z" fill="#34343D"/>
<path d="M142.957 58.3092C143.334 58.0189 143.711 57.8011 144.088 57.656C144.465 57.5108 144.843 57.4382 145.295 57.4382C146.124 57.3657 147.029 57.5834 147.934 57.7286C148.839 57.9463 149.669 58.164 150.272 58.3818C150.875 58.5995 151.328 58.7447 151.328 58.7447C151.328 58.7447 150.951 58.9624 150.272 59.2528C149.669 59.5431 148.764 59.8334 147.783 59.9786C146.803 60.1237 145.823 60.1237 144.918 59.906C143.938 59.6882 143.184 59.1802 142.957 58.3092Z" fill="#34343D"/>
<path d="M145.594 54.607C145.217 55.3328 144.764 56.0586 144.086 56.4941C143.784 56.7118 143.407 56.9296 143.03 57.0021C142.653 57.0747 142.2 57.0747 141.823 56.857C141.823 55.986 142.05 55.2602 142.427 54.6796C142.804 54.0989 143.407 53.5183 143.935 53.0828C144.538 52.6473 145.066 52.2844 145.518 51.9941C145.971 51.7038 146.272 51.5586 146.272 51.5586C146.272 51.5586 146.272 51.6312 146.272 51.8489C146.272 51.9941 146.197 52.2118 146.197 52.5021C146.122 53.0828 145.971 53.8086 145.594 54.607Z" fill="#34343D"/>
<path d="M151.93 56.5676C151.026 56.495 150.271 56.2047 149.744 55.4789C150.196 54.7531 150.875 54.3176 151.629 54.0999C152.383 53.8821 153.363 53.8096 154.268 53.8096C155.173 53.8096 156.078 53.8096 156.757 53.8096C157.435 53.8096 157.888 53.8096 157.888 53.8096C157.888 53.8096 157.812 53.8821 157.661 54.0273C157.511 54.1725 157.284 54.3902 156.983 54.608C156.38 55.0434 155.625 55.5515 154.721 55.987C153.74 56.3499 152.76 56.5676 151.93 56.5676Z" fill="#34343D"/>
<path d="M150.27 53.2291C149.742 53.8097 149.064 54.2452 148.234 54.1726C147.857 53.3742 147.933 52.5758 148.159 51.85C148.385 51.1242 148.837 50.471 149.215 49.8903C149.667 49.3097 150.044 48.8742 150.421 48.5113C150.572 48.3662 150.723 48.221 150.798 48.0758C150.873 48.0032 150.949 47.9307 150.949 47.9307C150.949 47.9307 150.949 48.0032 151.024 48.1484C151.1 48.2936 151.1 48.5113 151.175 48.8016C151.251 49.3823 151.326 50.1081 151.175 50.9065C151.024 51.7774 150.723 52.5758 150.27 53.2291Z" fill="#34343D"/>
<path d="M160.979 47.2044C161.582 46.9866 162.035 46.9141 162.035 46.9141C162.035 46.9141 161.959 46.9866 161.884 47.2044C161.808 47.3495 161.658 47.5673 161.507 47.8576C161.356 48.1479 161.13 48.4382 160.904 48.8012C160.753 48.9463 160.677 49.1641 160.526 49.3092L160.451 49.4544L160.3 49.5995C160.225 49.6721 160.149 49.8173 160.074 49.8899C159.32 50.6882 158.415 51.3415 157.586 51.6318C156.681 51.9221 155.851 51.8495 155.097 51.2689C155.323 50.3979 155.776 49.8173 156.454 49.3818C156.605 49.2366 156.831 49.1641 156.982 49.0189C157.133 48.8737 157.359 48.8012 157.586 48.656C157.812 48.5108 157.963 48.4383 158.189 48.2931C158.415 48.2205 158.566 48.0754 158.792 48.0028C159.546 47.6399 160.376 47.3495 160.979 47.2044Z" fill="#34343D"/>
<path d="M154.871 48.6562C154.644 49.382 154.117 49.9626 153.287 50.1804C152.684 49.5271 152.533 48.7287 152.458 48.0755C152.382 47.3497 152.533 46.6965 152.608 46.1158C152.608 45.8981 152.759 45.4626 152.835 45.1723C152.91 44.882 153.061 44.5916 153.136 44.3013C153.212 44.0836 153.287 43.8658 153.362 43.7207C153.438 43.5755 153.438 43.5029 153.438 43.5029C153.438 43.5029 153.513 43.5755 153.589 43.7207C153.664 43.8658 153.815 44.0836 153.966 44.3013C154.267 44.8094 154.569 45.5352 154.795 46.261C154.871 46.4787 154.871 46.6239 154.946 46.8416C155.021 47.0594 155.021 47.2045 155.021 47.4223C155.021 47.64 155.021 47.7852 155.021 48.0029C155.021 48.2933 154.946 48.511 154.871 48.6562Z" fill="#34343D"/>
<path d="M161.883 44.2282C161.732 44.3734 161.582 44.5185 161.431 44.6637C161.28 44.8088 161.054 44.954 160.903 45.0266C160.149 45.4621 159.395 45.6798 158.49 45.3895C158.414 44.954 158.414 44.5911 158.565 44.2282C158.641 44.083 158.716 43.8653 158.791 43.7201C158.867 43.575 159.018 43.4298 159.093 43.2121C159.546 42.5588 160.3 42.0508 160.978 41.5427C161.657 41.0346 162.411 40.5992 163.014 40.3088C163.618 40.0185 163.995 39.8008 163.995 39.8008C163.995 39.8008 163.995 39.8734 163.919 40.0911C163.844 40.3088 163.768 40.5266 163.693 40.8169C163.467 41.3976 163.165 42.2685 162.637 42.9943C162.486 43.5024 162.185 43.8653 161.883 44.2282Z" fill="#34343D"/>
<path d="M157.209 43.865C157.058 44.2279 156.757 44.5183 156.455 44.736C155.701 44.3005 155.248 43.6473 154.947 42.9215C154.871 42.7763 154.871 42.5586 154.796 42.4134C154.796 42.3409 154.796 42.1957 154.721 42.1231C154.721 42.0505 154.721 41.9054 154.645 41.8328C154.57 41.4699 154.57 41.107 154.57 40.7441C154.645 40.0183 154.645 39.365 154.796 38.857C154.871 38.6392 154.871 38.4215 154.947 38.2763C154.947 38.1312 155.022 38.0586 155.022 38.0586C155.022 38.0586 155.098 38.1312 155.248 38.2763C155.399 38.4215 155.55 38.5667 155.701 38.7844C156.078 39.2199 156.53 39.8731 156.907 40.5989C157.285 41.3247 157.511 42.1231 157.511 42.9215C157.511 43.1392 157.511 43.2844 157.435 43.5021C157.36 43.5747 157.285 43.7199 157.209 43.865Z" fill="#34343D"/>
<path d="M163.467 37.3343C163.392 37.552 163.241 37.6972 163.09 37.9149C162.939 38.0601 162.789 38.2778 162.638 38.423C162.035 39.0036 161.28 39.3665 160.376 39.2214C160.225 38.8585 160.149 38.423 160.225 38.0601C160.225 37.8423 160.3 37.6972 160.376 37.4794C160.451 37.3343 160.526 37.1165 160.602 36.9714C160.753 36.6085 160.979 36.2456 161.28 35.9552C161.431 35.8101 161.582 35.5923 161.657 35.4472C161.808 35.302 161.959 35.1569 162.11 34.9391C162.713 34.2859 163.392 33.7052 163.844 33.2698C164.297 32.8343 164.674 32.5439 164.674 32.5439C164.674 32.5439 164.674 32.9794 164.674 33.6327C164.674 33.9956 164.598 34.3585 164.523 34.7214C164.448 34.9391 164.448 35.1568 164.372 35.3746C164.297 35.5923 164.297 35.8101 164.146 36.0278C163.844 36.4633 163.618 36.8988 163.467 37.3343Z" fill="#34343D"/>
<path d="M158.188 38.713C157.358 38.4227 156.755 37.842 156.378 37.2614C156.302 37.1162 156.227 36.9711 156.152 36.7533C156.076 36.6082 156.001 36.3904 155.925 36.2452C155.774 35.8823 155.699 35.5194 155.624 35.2291C155.548 34.8662 155.473 34.5759 155.473 34.213C155.473 34.0678 155.473 33.9227 155.397 33.7775C155.397 33.6323 155.397 33.4872 155.397 33.4146C155.322 32.9065 155.322 32.6162 155.322 32.6162C155.322 32.6162 155.624 32.7614 156.152 33.1243C156.302 33.1969 156.378 33.2694 156.529 33.4146C156.679 33.4872 156.83 33.6323 156.906 33.7775C157.207 33.9952 157.433 34.2856 157.735 34.5759C157.886 34.7211 157.961 34.8662 158.112 35.084C158.188 35.1565 158.263 35.2291 158.263 35.3743C158.338 35.4469 158.338 35.5194 158.414 35.6646C158.565 36.0275 158.715 36.3904 158.791 36.7533C158.791 36.9711 158.866 37.1162 158.866 37.334C158.866 37.5517 158.791 37.6969 158.791 37.842C158.64 38.0598 158.489 38.4227 158.188 38.713Z" fill="#34343D"/>
<path d="M161.357 28.1884C161.583 27.8255 161.809 27.4626 161.96 27.0997C162.186 26.7368 162.412 26.4464 162.563 26.1561C162.94 25.6481 163.166 25.2852 163.166 25.2852C163.166 25.2852 163.317 25.7206 163.393 26.3739C163.468 26.6642 163.468 27.0997 163.543 27.4626C163.543 27.6803 163.543 27.8981 163.543 28.1158C163.543 28.3335 163.543 28.5513 163.543 28.769C163.468 29.2045 163.468 29.64 163.317 30.0755C163.166 30.511 163.016 30.9464 162.789 31.2368C162.337 31.9626 161.658 32.4706 160.753 32.5432C160.603 32.3981 160.527 32.1803 160.452 32.0352C160.376 31.89 160.301 31.6722 160.301 31.5271C160.225 31.1642 160.301 30.8013 160.376 30.4384C160.452 30.0755 160.603 29.64 160.753 29.2771C160.904 28.9868 161.13 28.5513 161.357 28.1884Z" fill="#34343D"/>
<path d="M156.453 31.5271C156.151 31.2367 155.925 31.019 155.774 30.6561C155.548 30.3658 155.397 30.0754 155.247 29.7125C155.171 29.5674 155.096 29.4222 155.02 29.2771C154.945 29.1319 154.87 28.9867 154.794 28.8416C154.643 28.5512 154.568 28.3335 154.493 28.0432C154.342 27.6077 154.266 27.3174 154.266 27.3174C154.266 27.3174 154.643 27.39 155.171 27.6077C155.699 27.8254 156.378 28.1158 157.056 28.6238C157.207 28.769 157.358 28.8416 157.509 28.9867C157.66 29.1319 157.81 29.2771 157.961 29.4222C158.263 29.7125 158.489 30.0754 158.64 30.3658C158.791 30.7287 158.866 31.0916 158.866 31.4545C158.866 31.5996 158.866 31.8174 158.791 31.9625C158.715 32.1077 158.64 32.3254 158.565 32.4706C157.66 32.398 156.981 32.0351 156.453 31.5271Z" fill="#34343D"/>
<path d="M159.095 25.8662C158.944 25.721 158.868 25.5758 158.793 25.3581C158.718 25.2129 158.642 24.9952 158.642 24.85C158.642 24.7049 158.567 24.4871 158.567 24.2694C158.567 23.9065 158.567 23.471 158.642 23.0355C158.718 22.6 158.793 22.2371 158.868 21.8016C159.095 21.0032 159.321 20.2049 159.547 19.6242C159.773 19.0436 159.924 18.6807 159.924 18.6807C159.924 18.6807 160 18.7532 160.075 18.8984C160.15 19.0436 160.301 19.3339 160.452 19.6242C160.754 20.2049 161.055 21.0033 161.206 21.8742C161.282 22.3097 161.357 22.7452 161.357 23.1807C161.357 23.3984 161.357 23.6162 161.282 23.8339C161.282 24.0516 161.206 24.2694 161.131 24.4871C160.98 24.85 160.829 25.2129 160.527 25.5758C160.226 25.8661 159.924 26.1565 159.472 26.3016C159.321 26.2291 159.17 26.0839 159.095 25.8662Z" fill="#34343D"/>
<path d="M151.929 22.7441C151.854 22.599 151.778 22.5264 151.778 22.5264C151.778 22.5264 151.854 22.5264 152.08 22.5264C152.231 22.5264 152.457 22.5264 152.759 22.599C153.06 22.599 153.362 22.6715 153.739 22.7441C153.89 22.8167 154.116 22.8167 154.267 22.8893C154.418 22.9619 154.644 23.0344 154.795 23.107C155.172 23.2522 155.549 23.3973 155.926 23.6151C156.228 23.8328 156.529 24.1231 156.831 24.3409C156.982 24.486 157.057 24.6312 157.132 24.7764C157.208 24.9215 157.283 25.1393 157.359 25.2844C157.434 25.4296 157.434 25.6473 157.434 25.7925C157.434 26.0102 157.359 26.1554 157.359 26.3731C156.906 26.4457 156.529 26.4457 156.152 26.3731C155.775 26.3006 155.398 26.1554 155.096 25.9377C154.946 25.8651 154.795 25.7199 154.644 25.6473C154.569 25.5748 154.493 25.5022 154.418 25.5022C154.342 25.4296 154.267 25.357 154.192 25.357C153.89 25.1393 153.664 24.8489 153.437 24.6312C153.211 24.3409 152.985 24.1231 152.834 23.9054C152.759 23.8328 152.759 23.7602 152.683 23.6877C152.608 23.6151 152.608 23.5425 152.533 23.5425C152.457 23.3973 152.382 23.3248 152.306 23.2522C152.155 23.0344 152.005 22.8893 151.929 22.7441Z" fill="#34343D"/>
<path d="M156.608 20.5676C156.231 20.3499 155.929 20.1321 155.703 19.8418C155.477 19.5515 155.326 19.1886 155.175 18.8257C154.949 18.0999 154.873 17.2289 154.873 16.4305C154.873 16.2128 154.873 15.995 154.873 15.7773C154.873 15.5595 154.873 15.3418 154.873 15.1966C154.873 14.8337 154.949 14.4708 154.949 14.1079C155.024 13.5273 155.099 13.0918 155.099 13.0918C155.099 13.0918 155.175 13.1644 155.326 13.3095C155.477 13.4547 155.627 13.6724 155.854 13.8902C156.08 14.1805 156.306 14.4708 156.457 14.7612C156.683 15.1241 156.909 15.487 157.06 15.8499C157.211 16.2853 157.362 16.6482 157.513 17.0837C157.588 17.5192 157.663 17.9547 157.663 18.3176C157.739 19.2611 157.362 20.0595 156.608 20.5676Z" fill="#34343D"/>
<path d="M150.273 20.1319C149.971 19.9141 149.669 19.6964 149.443 19.4786C149.217 19.2609 148.991 19.1157 148.764 18.898C148.614 18.7528 148.463 18.6077 148.312 18.4625C148.236 18.3899 148.161 18.3174 148.161 18.3174C148.161 18.3174 148.538 18.2448 149.141 18.1722C149.443 18.1722 149.745 18.0996 150.122 18.0996C150.499 18.0996 150.876 18.0996 151.328 18.1722C152.158 18.3174 152.987 18.5351 153.591 18.9706C153.892 19.1883 154.118 19.4786 154.345 19.769C154.495 20.0593 154.571 20.4222 154.571 20.8577C153.741 21.2206 152.912 21.148 152.233 21.0028C151.856 20.9303 151.554 20.7851 151.177 20.5674C150.876 20.4948 150.574 20.3496 150.273 20.1319Z" fill="#34343D"/>
<path d="M143.785 57.3658C146.65 56.2771 149.516 54.9706 151.929 53.0835C154.493 51.0513 156.302 48.2932 157.584 45.0996C159.168 41.398 160.299 37.5513 160.148 33.4867C159.997 30.0029 159.017 26.5916 157.509 23.398C156.227 20.8577 154.643 18.3174 152.683 16.0674C152.834 15.7771 152.834 15.4142 152.758 15.1238C152.683 14.7609 152.532 14.398 152.306 14.1077C151.853 13.4545 151.175 12.8738 150.42 12.5109C149.666 12.0754 148.912 11.8577 148.309 11.7126C148.007 11.64 147.781 11.5674 147.63 11.5674H147.404H147.329V11.64C147.329 11.64 147.329 11.7125 147.404 11.7851C147.48 11.9303 147.555 12.148 147.706 12.3658C147.932 12.8738 148.309 13.4545 148.761 14.1077C148.988 14.398 149.289 14.6884 149.516 14.9787L149.893 15.3416L149.893 15.3417C150.043 15.4868 150.194 15.6319 150.345 15.7045C150.647 15.8496 150.948 16.0674 151.325 16.14C151.552 16.2125 151.853 16.2126 152.155 16.2126C152.984 17.2287 153.814 18.2448 154.493 19.2609C157.283 23.2529 159.243 27.898 159.545 32.7609C159.771 36.9706 158.791 40.89 157.132 44.7367C156.302 46.769 155.247 48.7287 153.738 50.398C152.23 52.0674 150.42 53.3738 148.46 54.4625C144.689 56.4948 139.185 58.8174 133.981 60.4867L135.414 61.14C138.431 59.7609 141.447 58.2367 143.785 57.3658Z" fill="#34343D"/>
<g clip-path="url(#clip0_4310_61840)">
<g clip-path="url(#clip1_4310_61840)">
<path fill-rule="evenodd" clip-rule="evenodd" d="M87.1817 7.73926H86.8902L86.1016 9.54331H86.4243L86.6085 9.11094H87.4557L87.6377 9.54331H87.9734L87.1817 7.73926ZM87.34 8.83158H86.7235L87.0279 8.11529L87.34 8.83158Z" fill="#C5C5CB"/>
<path fill-rule="evenodd" clip-rule="evenodd" d="M96.8653 8.04349H97.4331V7.75195H95.98V8.04349H96.5478V9.54306H96.8653V8.04349Z" fill="#C5C5CB"/>
<path fill-rule="evenodd" clip-rule="evenodd" d="M94.7713 8.22362C94.7713 8.19408 94.7782 8.16494 94.7914 8.13851C94.8046 8.11209 94.8238 8.0891 94.8474 8.07138C94.9096 8.02632 94.9854 8.00425 95.0621 8.00896C95.1453 8.00923 95.2276 8.02524 95.3049 8.05615C95.3913 8.09131 95.4729 8.13736 95.5477 8.19317L95.7167 7.95491C95.6279 7.88352 95.5282 7.82697 95.4214 7.78745C95.3074 7.74745 95.1874 7.72786 95.0666 7.7296C94.9835 7.72882 94.9007 7.74142 94.8215 7.7669C94.7509 7.78924 94.6854 7.82547 94.6289 7.87347C94.5761 7.9192 94.5333 7.97546 94.5033 8.03865C94.4723 8.10563 94.4567 8.17873 94.4577 8.25254C94.4555 8.32535 94.469 8.39777 94.4973 8.46492C94.5232 8.52413 94.5629 8.57632 94.613 8.61716C94.6693 8.66122 94.7326 8.69569 94.8002 8.71916C94.8838 8.74978 94.9692 8.77521 95.056 8.79528C95.1397 8.81583 95.2082 8.83563 95.26 8.85389C95.3035 8.86849 95.345 8.88871 95.3833 8.91403C95.4098 8.93134 95.4311 8.95555 95.4449 8.98406C95.4564 9.01153 95.4621 9.04107 95.4617 9.07084C95.4626 9.10363 95.4552 9.13612 95.4402 9.16527C95.4251 9.19442 95.4029 9.21929 95.3757 9.23754C95.3078 9.28121 95.228 9.30275 95.1473 9.2992C95.0427 9.30135 94.9388 9.28084 94.8428 9.23906C94.7466 9.19282 94.6576 9.13282 94.5787 9.06094L94.3892 9.2893C94.4912 9.38316 94.6103 9.45655 94.7401 9.50548C94.867 9.55239 95.0013 9.57611 95.1367 9.57551C95.2242 9.57647 95.3114 9.56441 95.3955 9.53974C95.4688 9.51844 95.5371 9.48272 95.5964 9.43469C95.6521 9.38879 95.6968 9.33106 95.7274 9.2657C95.7598 9.194 95.7759 9.11602 95.7745 9.03734C95.776 8.97024 95.7633 8.90358 95.7373 8.84172C95.7121 8.78563 95.6749 8.73575 95.6284 8.69556C95.5745 8.65007 95.5132 8.61404 95.4472 8.589C95.3657 8.55826 95.2823 8.53284 95.1976 8.51288C95.1115 8.49232 95.0415 8.47253 94.9859 8.45426C94.9397 8.43976 94.8957 8.41902 94.855 8.39261C94.8273 8.37489 94.8047 8.35022 94.7896 8.32105C94.776 8.29042 94.7698 8.25707 94.7713 8.22362Z" fill="#C5C5CB"/>
<path fill-rule="evenodd" clip-rule="evenodd" d="M94.1156 7.75195H92.7896V9.54306H94.1285V9.25913H93.1024V8.78034H94.0006V8.49641H93.1024V8.03588H94.1156V7.75195Z" fill="#C5C5CB"/>
<path fill-rule="evenodd" clip-rule="evenodd" d="M92.4419 7.75195H91.1113V9.54306H91.4234V8.81383H92.327V8.5299H91.4234V8.03588H92.4419V7.75195Z" fill="#C5C5CB"/>
<path d="M90.6309 7.75195H90.3188V9.54382H90.6309V7.75195Z" fill="#C5C5CB"/>
<path fill-rule="evenodd" clip-rule="evenodd" d="M89.5289 8.99043L88.5713 7.75195H88.2798V9.54306H88.5919V8.26881L89.5776 9.54306H89.841V7.75195H89.5289V8.99043Z" fill="#C5C5CB"/>
<path fill-rule="evenodd" clip-rule="evenodd" d="M85.4832 8.25815V9.54306H85.7961V7.75195H85.4604L84.9154 8.59841L84.3704 7.75195H84.0347V9.54306H84.3468V8.26348L84.9078 9.10309H84.9177L85.4832 8.25815Z" fill="#C5C5CB"/>
<path fill-rule="evenodd" clip-rule="evenodd" d="M82.8797 7.75195H81.5537V9.54306H82.8919V9.25913H81.8658V8.78034H82.764V8.49641H81.8658V8.03588H82.8797V7.75195Z" fill="#C5C5CB"/>
<path fill-rule="evenodd" clip-rule="evenodd" d="M80.7794 8.78795V9.54306H81.0923V7.75195H80.7794V8.49641H79.92V7.75195H79.6079V9.54306H79.92V8.78795H80.7794Z" fill="#C5C5CB"/>
<path fill-rule="evenodd" clip-rule="evenodd" d="M78.7071 8.04349H79.2749V7.75195H77.8218V8.04349H78.3896V9.54306H78.7071V8.04349Z" fill="#C5C5CB"/>
<path fill-rule="evenodd" clip-rule="evenodd" d="M85.4872 10.0502V13.704H75.3823V12.687H84.2944V10.0502H83.9945V12.3878H75.3823V3.59596H83.9937V7.24973H84.2937V3.59596H85.4865V7.24973H85.7864V3.29604H84.2944V1.98145H73.5889V12.687H75.0816V14.0008H85.7871V10.0502H85.4872ZM75.0816 12.3863H73.8888V2.28212H83.9937V3.29604H75.0816V12.3863Z" fill="#C5C5CB"/>
</g>
</g>
<defs>
<clipPath id="clip0_4310_61840">
<rect width="49.7143" height="12" fill="white" transform="translate(60.6504 2)"/>
</clipPath>
<clipPath id="clip1_4310_61840">
<rect width="23.8424" height="12.0194" fill="white" transform="translate(73.5879 1.98047)"/>
</clipPath>
</defs>
</svg>
