<svg width="172" height="66" viewBox="0 0 172 66" fill="none" xmlns="http://www.w3.org/2000/svg">
<path d="M49.8322 29.3097L44.1149 23.5923L45.0545 22.6527L50.7719 28.37L49.8322 29.3097ZM45.0545 29.3097L44.1149 28.37L49.8322 22.6527L50.7719 23.5923L45.0545 29.3097ZM56.0808 31.1392C55.6267 31.1326 55.1793 31.0497 54.7385 30.8906C54.301 30.7315 53.9033 30.4664 53.5453 30.0952C53.1873 29.724 52.9007 29.2251 52.6852 28.5987C52.4731 27.9723 52.367 27.1901 52.367 26.2521C52.367 25.3639 52.4549 24.575 52.6305 23.8857C52.8095 23.1963 53.0664 22.6146 53.4011 22.1406C53.7359 21.6634 54.1402 21.3004 54.6142 21.0518C55.0882 20.8033 55.6201 20.679 56.2101 20.679C56.8166 20.679 57.3552 20.7983 57.8258 21.0369C58.2965 21.2756 58.6776 21.6054 58.9693 22.0263C59.2643 22.4472 59.4516 22.9261 59.5311 23.4631H58.0148C57.912 23.0388 57.7082 22.6925 57.4033 22.424C57.0983 22.1555 56.7006 22.0213 56.2101 22.0213C55.4643 22.0213 54.8827 22.3461 54.465 22.9957C54.0507 23.6454 53.8419 24.5485 53.8386 25.7053H53.9132C54.0889 25.4169 54.3043 25.1716 54.5595 24.9695C54.818 24.764 55.1064 24.6065 55.4246 24.4972C55.7461 24.3845 56.0841 24.3281 56.4388 24.3281C57.0287 24.3281 57.5623 24.4723 58.0396 24.7607C58.5202 25.0457 58.903 25.4401 59.1881 25.9439C59.4731 26.4477 59.6156 27.0244 59.6156 27.674C59.6156 28.3236 59.4681 28.9119 59.1731 29.4389C58.8815 29.9659 58.4705 30.3835 57.9402 30.6918C57.4099 30.9967 56.7901 31.1458 56.0808 31.1392ZM56.0758 29.8466C56.4669 29.8466 56.8166 29.7505 57.1248 29.5582C57.4331 29.366 57.6767 29.1075 57.8557 28.7827C58.0346 28.4579 58.1241 28.0949 58.1241 27.6939C58.1241 27.3028 58.0363 26.9465 57.8606 26.625C57.6883 26.3035 57.4497 26.0483 57.1447 25.8594C56.8431 25.6705 56.4984 25.576 56.1106 25.576C55.8157 25.576 55.5422 25.6323 55.2903 25.745C55.0418 25.8577 54.823 26.0135 54.6341 26.2124C54.4452 26.4112 54.296 26.6399 54.1866 26.8984C54.0806 27.1536 54.0275 27.4238 54.0275 27.7088C54.0275 28.09 54.1154 28.4429 54.291 28.7678C54.47 29.0926 54.7136 29.3544 55.0219 29.5533C55.3334 29.7488 55.6847 29.8466 56.0758 29.8466ZM65.0109 31H63.3802L67.0443 20.8182H68.8191L72.4832 31H70.8525L67.974 22.6676H67.8944L65.0109 31ZM65.2843 27.0128H70.5741V28.3054H65.2843V27.0128ZM73.9727 31L71.7256 23.3636H73.2618L74.7582 28.9716H74.8328L76.3342 23.3636H77.8705L79.3619 28.9467H79.4365L80.923 23.3636H82.4592L80.217 31H78.7007L77.1496 25.4865H77.0352L75.4841 31H73.9727ZM85.5322 31.169C85.0483 31.169 84.6108 31.0795 84.2197 30.9006C83.8286 30.7183 83.5187 30.4548 83.29 30.1101C83.0647 29.7654 82.952 29.3428 82.952 28.8423C82.952 28.4115 83.0348 28.0568 83.2005 27.7784C83.3663 27.5 83.59 27.2796 83.8717 27.1172C84.1534 26.9548 84.4683 26.8321 84.8163 26.7493C85.1643 26.6664 85.519 26.6035 85.8802 26.5604C86.3376 26.5073 86.7088 26.4643 86.9939 26.4311C87.2789 26.3946 87.4861 26.3366 87.6153 26.2571C87.7446 26.1776 87.8092 26.0483 87.8092 25.8693V25.8345C87.8092 25.4003 87.6866 25.0639 87.4413 24.8253C87.1994 24.5866 86.8381 24.4673 86.3575 24.4673C85.857 24.4673 85.4626 24.5784 85.1743 24.8004C84.8892 25.0192 84.692 25.2628 84.5826 25.5312L83.1856 25.2131C83.3514 24.7491 83.5933 24.3745 83.9115 24.0895C84.233 23.8011 84.6025 23.5923 85.0201 23.4631C85.4378 23.3305 85.8769 23.2642 86.3376 23.2642C86.6425 23.2642 86.9657 23.3007 87.3071 23.3736C87.6518 23.4432 87.9733 23.5724 88.2716 23.7614C88.5732 23.9503 88.8201 24.2204 89.0123 24.5717C89.2046 24.9197 89.3007 25.3722 89.3007 25.929V31H87.849V29.956H87.7893C87.6932 30.1482 87.549 30.3371 87.3568 30.5227C87.1646 30.7083 86.9176 30.8625 86.616 30.9851C86.3144 31.1077 85.9531 31.169 85.5322 31.169ZM85.8554 29.9759C86.2664 29.9759 86.6177 29.8946 86.9094 29.7322C87.2043 29.5698 87.4281 29.3577 87.5805 29.0959C87.7363 28.8307 87.8142 28.5473 87.8142 28.2457V27.2614C87.7612 27.3144 87.6584 27.3641 87.5059 27.4105C87.3568 27.4536 87.1861 27.4917 86.9939 27.5249C86.8016 27.5547 86.6144 27.5829 86.4321 27.6094C86.2498 27.6326 86.0973 27.6525 85.9747 27.669C85.6863 27.7055 85.4228 27.7668 85.1842 27.853C84.9489 27.9392 84.76 28.0634 84.6174 28.2259C84.4782 28.3849 84.4086 28.5971 84.4086 28.8622C84.4086 29.2301 84.5445 29.5085 84.8163 29.6974C85.0881 29.883 85.4344 29.9759 85.8554 29.9759ZM90.7206 31V23.3636H92.1574V24.5767H92.237C92.3762 24.1657 92.6214 23.8426 92.9728 23.6072C93.3274 23.3686 93.7284 23.2493 94.1759 23.2493C94.2687 23.2493 94.3781 23.2526 94.504 23.2592C94.6333 23.2659 94.7344 23.2741 94.8073 23.2841V24.706C94.7476 24.6894 94.6416 24.6712 94.4891 24.6513C94.3366 24.6281 94.1842 24.6165 94.0317 24.6165C93.6804 24.6165 93.3672 24.6911 93.0921 24.8402C92.8203 24.986 92.6049 25.1899 92.4458 25.4517C92.2867 25.7102 92.2071 26.0052 92.2071 26.3366V31H90.7206ZM98.1189 31.1491C97.5024 31.1491 96.9522 30.9917 96.4683 30.6768C95.9877 30.3587 95.6099 29.9062 95.3348 29.3196C95.063 28.7296 94.9271 28.022 94.9271 27.1967C94.9271 26.3714 95.0647 25.6655 95.3398 25.0788C95.6182 24.4922 95.9993 24.0431 96.4832 23.7315C96.9671 23.42 97.5157 23.2642 98.1288 23.2642C98.6028 23.2642 98.984 23.3438 99.2723 23.5028C99.564 23.6586 99.7894 23.8409 99.9484 24.0497C100.111 24.2585 100.237 24.4425 100.326 24.6016H100.416V20.8182H101.902V31H100.451V29.8118H100.326C100.237 29.9742 100.108 30.1598 99.9385 30.3686C99.7728 30.5774 99.5441 30.7597 99.2524 30.9155C98.9608 31.0713 98.5829 31.1491 98.1189 31.1491ZM98.447 29.8814C98.8746 29.8814 99.2358 29.7687 99.5308 29.5433C99.8291 29.3146 100.055 28.9981 100.207 28.5938C100.363 28.1894 100.441 27.7187 100.441 27.1818C100.441 26.6515 100.364 26.1875 100.212 25.7898C100.059 25.392 99.8358 25.0821 99.5408 24.8601C99.2458 24.638 98.8812 24.527 98.447 24.527C97.9996 24.527 97.6267 24.643 97.3284 24.875C97.0301 25.107 96.8047 25.4235 96.6523 25.8246C96.5031 26.2256 96.4286 26.678 96.4286 27.1818C96.4286 27.6922 96.5048 28.1513 96.6573 28.5589C96.8097 28.9666 97.0351 29.2898 97.3334 29.5284C97.635 29.7637 98.0062 29.8814 98.447 29.8814ZM109.186 25.228L107.839 25.4666C107.783 25.2943 107.693 25.1302 107.57 24.9744C107.451 24.8187 107.289 24.6911 107.083 24.5916C106.878 24.4922 106.621 24.4425 106.313 24.4425C105.892 24.4425 105.54 24.5369 105.259 24.7259C104.977 24.9115 104.836 25.1518 104.836 25.4467C104.836 25.7019 104.931 25.9074 105.119 26.0632C105.308 26.219 105.613 26.3466 106.034 26.446L107.247 26.7244C107.95 26.8868 108.474 27.1371 108.818 27.4751C109.163 27.8132 109.335 28.2524 109.335 28.7926C109.335 29.25 109.203 29.6577 108.938 30.0156C108.676 30.3703 108.31 30.6487 107.839 30.8509C107.372 31.053 106.83 31.1541 106.213 31.1541C105.358 31.1541 104.66 30.9718 104.12 30.6072C103.58 30.2393 103.248 29.7173 103.126 29.0412L104.563 28.8224C104.652 29.197 104.836 29.4804 105.114 29.6726C105.393 29.8615 105.756 29.956 106.203 29.956C106.69 29.956 107.08 29.8549 107.372 29.6527C107.663 29.4472 107.809 29.197 107.809 28.902C107.809 28.6634 107.72 28.4628 107.541 28.3004C107.365 28.138 107.095 28.0154 106.73 27.9325L105.438 27.6491C104.725 27.4867 104.198 27.2282 103.857 26.8736C103.519 26.5189 103.35 26.0698 103.35 25.5263C103.35 25.0755 103.476 24.6811 103.727 24.343C103.979 24.005 104.327 23.7415 104.771 23.5526C105.216 23.3603 105.724 23.2642 106.298 23.2642C107.123 23.2642 107.773 23.4432 108.247 23.8011C108.721 24.1558 109.034 24.6314 109.186 25.228ZM116.771 31.1541C116.056 31.1541 115.431 30.9901 114.897 30.6619C114.364 30.3338 113.949 29.8748 113.654 29.2848C113.359 28.6948 113.212 28.0054 113.212 27.2166C113.212 26.4245 113.359 25.7318 113.654 25.1385C113.949 24.5452 114.364 24.0845 114.897 23.7564C115.431 23.4283 116.056 23.2642 116.771 23.2642C117.487 23.2642 118.112 23.4283 118.646 23.7564C119.179 24.0845 119.594 24.5452 119.889 25.1385C120.184 25.7318 120.331 26.4245 120.331 27.2166C120.331 28.0054 120.184 28.6948 119.889 29.2848C119.594 29.8748 119.179 30.3338 118.646 30.6619C118.112 30.9901 117.487 31.1541 116.771 31.1541ZM116.776 29.9062C117.24 29.9062 117.625 29.7836 117.93 29.5384C118.235 29.2931 118.46 28.9666 118.606 28.5589C118.755 28.1513 118.83 27.7022 118.83 27.2116C118.83 26.7244 118.755 26.277 118.606 25.8693C118.46 25.4583 118.235 25.1286 117.93 24.88C117.625 24.6314 117.24 24.5071 116.776 24.5071C116.309 24.5071 115.921 24.6314 115.613 24.88C115.308 25.1286 115.081 25.4583 114.932 25.8693C114.786 26.277 114.713 26.7244 114.713 27.2116C114.713 27.7022 114.786 28.1513 114.932 28.5589C115.081 28.9666 115.308 29.2931 115.613 29.5384C115.921 29.7836 116.309 29.9062 116.776 29.9062ZM122.917 26.4659V31H121.43V23.3636H122.857V24.6065H122.952C123.127 24.2022 123.402 23.8774 123.777 23.6321C124.155 23.3868 124.63 23.2642 125.204 23.2642C125.724 23.2642 126.18 23.3736 126.571 23.5923C126.962 23.8078 127.265 24.1293 127.481 24.5568C127.696 24.9844 127.804 25.513 127.804 26.1428V31H126.317V26.3217C126.317 25.7682 126.173 25.3357 125.885 25.0241C125.597 24.7093 125.201 24.5518 124.697 24.5518C124.352 24.5518 124.045 24.6264 123.777 24.7756C123.512 24.9247 123.301 25.1435 123.146 25.4318C122.993 25.7169 122.917 26.0616 122.917 26.4659ZM59.4406 47V36.8182H63.1693C63.8918 36.8182 64.49 36.9375 64.964 37.1761C65.438 37.4115 65.7926 37.7313 66.0279 38.1357C66.2632 38.5367 66.3809 38.9891 66.3809 39.4929C66.3809 39.9171 66.303 40.2751 66.1472 40.5668C65.9915 40.8551 65.7827 41.0871 65.5208 41.2628C65.2623 41.4351 64.9773 41.5611 64.6657 41.6406V41.7401C65.0038 41.7566 65.3336 41.866 65.6551 42.0682C65.9799 42.267 66.2483 42.5504 66.4605 42.9183C66.6726 43.2862 66.7786 43.7337 66.7786 44.2607C66.7786 44.781 66.656 45.2483 66.4107 45.6626C66.1688 46.0736 65.7943 46.4001 65.2872 46.642C64.7801 46.8807 64.1321 47 63.3433 47H59.4406ZM60.9768 45.6825H63.1941C63.9299 45.6825 64.4569 45.54 64.7751 45.255C65.0933 44.9699 65.2524 44.6136 65.2524 44.1861C65.2524 43.8646 65.1712 43.5696 65.0087 43.3011C64.8463 43.0327 64.6143 42.8189 64.3127 42.6598C64.0144 42.5007 63.6598 42.4212 63.2488 42.4212H60.9768V45.6825ZM60.9768 41.223H63.035C63.3797 41.223 63.6896 41.1567 63.9647 41.0241C64.2431 40.8916 64.4635 40.706 64.6259 40.4673C64.7917 40.2254 64.8745 39.9403 64.8745 39.6122C64.8745 39.1913 64.727 38.8383 64.432 38.5533C64.1371 38.2682 63.6846 38.1257 63.0748 38.1257H60.9768V41.223ZM71.2126 47.1541C70.4602 47.1541 69.8123 46.9934 69.2687 46.6719C68.7285 46.3471 68.3108 45.8913 68.0159 45.3047C67.7242 44.7147 67.5784 44.0237 67.5784 43.2315C67.5784 42.4493 67.7242 41.7599 68.0159 41.1634C68.3108 40.5668 68.7218 40.1011 69.2488 39.7663C69.7791 39.4316 70.3989 39.2642 71.1082 39.2642C71.5391 39.2642 71.9567 39.3355 72.361 39.478C72.7654 39.6205 73.1283 39.8442 73.4498 40.1491C73.7713 40.4541 74.0249 40.8501 74.2105 41.3374C74.3961 41.8213 74.4889 42.4096 74.4889 43.1023V43.6293H68.4186V42.5156H73.0322C73.0322 42.1245 72.9527 41.7782 72.7936 41.4766C72.6345 41.1716 72.4107 40.9313 72.1224 40.7557C71.8374 40.58 71.5026 40.4922 71.1181 40.4922C70.7005 40.4922 70.3359 40.5949 70.0244 40.8004C69.7161 41.0026 69.4775 41.2678 69.3085 41.5959C69.1428 41.9207 69.0599 42.2737 69.0599 42.6548V43.5249C69.0599 44.0353 69.1494 44.4695 69.3284 44.8274C69.5107 45.1854 69.7642 45.4588 70.089 45.6477C70.4138 45.8333 70.7933 45.9261 71.2275 45.9261C71.5092 45.9261 71.7661 45.8864 71.9981 45.8068C72.2301 45.724 72.4306 45.6013 72.5997 45.4389C72.7687 45.2765 72.898 45.076 72.9875 44.8374L74.3944 45.0909C74.2817 45.5052 74.0795 45.8681 73.7879 46.1797C73.4995 46.4879 73.1366 46.7282 72.6991 46.9006C72.2649 47.0696 71.7694 47.1541 71.2126 47.1541ZM77.0647 42.4659V47H75.5782V36.8182H77.0448V40.6065H77.1393C77.3183 40.1955 77.5917 39.8691 77.9596 39.6271C78.3275 39.3852 78.8081 39.2642 79.4014 39.2642C79.925 39.2642 80.3824 39.3719 80.7735 39.5874C81.1679 39.8028 81.4729 40.1243 81.6883 40.5518C81.907 40.9761 82.0164 41.5064 82.0164 42.1428V47H80.5299V42.3217C80.5299 41.7616 80.3857 41.3274 80.0974 41.0192C79.809 40.7076 79.408 40.5518 78.8943 40.5518C78.5429 40.5518 78.2281 40.6264 77.9496 40.7756C77.6746 40.9247 77.4575 41.1435 77.2984 41.4318C77.1426 41.7169 77.0647 42.0616 77.0647 42.4659ZM85.6624 47.169C85.1785 47.169 84.741 47.0795 84.3499 46.9006C83.9588 46.7183 83.6489 46.4548 83.4202 46.1101C83.1948 45.7654 83.0821 45.3428 83.0821 44.8423C83.0821 44.4115 83.165 44.0568 83.3307 43.7784C83.4964 43.5 83.7201 43.2796 84.0019 43.1172C84.2836 42.9548 84.5985 42.8321 84.9465 42.7493C85.2945 42.6664 85.6491 42.6035 86.0104 42.5604C86.4678 42.5073 86.839 42.4643 87.124 42.4311C87.4091 42.3946 87.6162 42.3366 87.7455 42.2571C87.8747 42.1776 87.9394 42.0483 87.9394 41.8693V41.8345C87.9394 41.4003 87.8167 41.0639 87.5715 40.8253C87.3295 40.5866 86.9682 40.4673 86.4877 40.4673C85.9872 40.4673 85.5928 40.5784 85.3044 40.8004C85.0194 41.0192 84.8222 41.2628 84.7128 41.5312L83.3158 41.2131C83.4815 40.7491 83.7235 40.3745 84.0416 40.0895C84.3631 39.8011 84.7327 39.5923 85.1503 39.4631C85.5679 39.3305 86.0071 39.2642 86.4678 39.2642C86.7727 39.2642 87.0959 39.3007 87.4372 39.3736C87.7819 39.4432 88.1034 39.5724 88.4017 39.7614C88.7033 39.9503 88.9503 40.2204 89.1425 40.5717C89.3347 40.9197 89.4308 41.3722 89.4308 41.929V47H87.9791V45.956H87.9195C87.8234 46.1482 87.6792 46.3371 87.4869 46.5227C87.2947 46.7083 87.0478 46.8625 86.7462 46.9851C86.4446 47.1077 86.0833 47.169 85.6624 47.169ZM85.9855 45.9759C86.3965 45.9759 86.7478 45.8946 87.0395 45.7322C87.3345 45.5698 87.5582 45.3577 87.7107 45.0959C87.8664 44.8307 87.9443 44.5473 87.9443 44.2457V43.2614C87.8913 43.3144 87.7886 43.3641 87.6361 43.4105C87.4869 43.4536 87.3163 43.4917 87.124 43.5249C86.9318 43.5547 86.7445 43.5829 86.5622 43.6094C86.3799 43.6326 86.2275 43.6525 86.1048 43.669C85.8165 43.7055 85.553 43.7668 85.3144 43.853C85.079 43.9392 84.8901 44.0634 84.7476 44.2259C84.6084 44.3849 84.5388 44.5971 84.5388 44.8622C84.5388 45.2301 84.6747 45.5085 84.9465 45.6974C85.2182 45.883 85.5646 45.9759 85.9855 45.9759ZM92.3373 42.4659V47H90.8508V39.3636H92.2776V40.6065H92.3721C92.5477 40.2022 92.8228 39.8774 93.1974 39.6321C93.5752 39.3868 94.0508 39.2642 94.6242 39.2642C95.1446 39.2642 95.6003 39.3736 95.9914 39.5923C96.3825 39.8078 96.6858 40.1293 96.9012 40.5568C97.1166 40.9844 97.2244 41.513 97.2244 42.1428V47H95.7379V42.3217C95.7379 41.7682 95.5937 41.3357 95.3053 41.0241C95.017 40.7093 94.6209 40.5518 94.1171 40.5518C93.7724 40.5518 93.4658 40.6264 93.1974 40.7756C92.9322 40.9247 92.7218 41.1435 92.566 41.4318C92.4135 41.7169 92.3373 42.0616 92.3373 42.4659ZM101.875 47.1541C101.135 47.1541 100.499 46.9867 99.9655 46.652C99.4352 46.3139 99.0275 45.8482 98.7425 45.255C98.4574 44.6617 98.3149 43.9822 98.3149 43.2166C98.3149 42.4411 98.4608 41.7566 98.7524 41.1634C99.0441 40.5668 99.4551 40.1011 99.9854 39.7663C100.516 39.4316 101.14 39.2642 101.86 39.2642C102.44 39.2642 102.957 39.3719 103.411 39.5874C103.865 39.7995 104.231 40.0978 104.51 40.4822C104.791 40.8667 104.959 41.3158 105.012 41.8295H103.565C103.485 41.4716 103.303 41.1634 103.018 40.9048C102.736 40.6463 102.358 40.517 101.885 40.517C101.47 40.517 101.107 40.6264 100.796 40.8452C100.488 41.0606 100.247 41.3688 100.075 41.7699C99.9025 42.1676 99.8163 42.6383 99.8163 43.1818C99.8163 43.7386 99.9009 44.2192 100.07 44.6236C100.239 45.0279 100.478 45.3411 100.786 45.5632C101.097 45.7853 101.464 45.8963 101.885 45.8963C102.166 45.8963 102.421 45.8449 102.65 45.7422C102.882 45.6361 103.076 45.4853 103.232 45.2898C103.391 45.0942 103.502 44.8589 103.565 44.5838H105.012C104.959 45.0777 104.798 45.5185 104.529 45.9062C104.261 46.294 103.901 46.599 103.451 46.821C103.003 47.0431 102.478 47.1541 101.875 47.1541ZM109.333 47.1541C108.58 47.1541 107.932 46.9934 107.389 46.6719C106.848 46.3471 106.431 45.8913 106.136 45.3047C105.844 44.7147 105.698 44.0237 105.698 43.2315C105.698 42.4493 105.844 41.7599 106.136 41.1634C106.431 40.5668 106.842 40.1011 107.369 39.7663C107.899 39.4316 108.519 39.2642 109.228 39.2642C109.659 39.2642 110.077 39.3355 110.481 39.478C110.885 39.6205 111.248 39.8442 111.57 40.1491C111.891 40.4541 112.145 40.8501 112.33 41.3374C112.516 41.8213 112.609 42.4096 112.609 43.1023V43.6293H106.538V42.5156H111.152C111.152 42.1245 111.073 41.7782 110.913 41.4766C110.754 41.1716 110.531 40.9313 110.242 40.7557C109.957 40.58 109.623 40.4922 109.238 40.4922C108.82 40.4922 108.456 40.5949 108.144 40.8004C107.836 41.0026 107.597 41.2678 107.428 41.5959C107.263 41.9207 107.18 42.2737 107.18 42.6548V43.5249C107.18 44.0353 107.269 44.4695 107.448 44.8274C107.631 45.1854 107.884 45.4588 108.209 45.6477C108.534 45.8333 108.913 45.9261 109.347 45.9261C109.629 45.9261 109.886 45.8864 110.118 45.8068C110.35 45.724 110.551 45.6013 110.72 45.4389C110.889 45.2765 111.018 45.076 111.107 44.8374L112.514 45.0909C112.402 45.5052 112.199 45.8681 111.908 46.1797C111.619 46.4879 111.257 46.7282 110.819 46.9006C110.385 47.0696 109.889 47.1541 109.333 47.1541Z" fill="#C5C5CB"/>
<path d="M73.6874 63V58.6364H75.2854C75.595 58.6364 75.8514 58.6875 76.0546 58.7898C76.2577 58.8906 76.4097 59.0277 76.5105 59.201C76.6114 59.3729 76.6618 59.5668 76.6618 59.7827C76.6618 59.9645 76.6284 60.1179 76.5617 60.2429C76.4949 60.3665 76.4054 60.4659 76.2932 60.5412C76.1824 60.6151 76.0602 60.669 75.9267 60.7031V60.7457C76.0716 60.7528 76.2129 60.7997 76.3507 60.8864C76.4899 60.9716 76.605 61.093 76.6959 61.2507C76.7868 61.4084 76.8323 61.6001 76.8323 61.826C76.8323 62.049 76.7797 62.2493 76.6746 62.4268C76.5709 62.603 76.4104 62.7429 76.1931 62.8466C75.9757 62.9489 75.698 63 75.36 63H73.6874ZM74.3458 62.4354H75.296C75.6114 62.4354 75.8372 62.3743 75.9736 62.2521C76.11 62.13 76.1781 61.9773 76.1781 61.794C76.1781 61.6562 76.1433 61.5298 76.0737 61.4148C76.0041 61.2997 75.9047 61.2081 75.7754 61.1399C75.6476 61.0717 75.4956 61.0376 75.3195 61.0376H74.3458V62.4354ZM74.3458 60.5241H75.2279C75.3756 60.5241 75.5084 60.4957 75.6263 60.4389C75.7456 60.3821 75.8401 60.3026 75.9097 60.2003C75.9807 60.0966 76.0162 59.9744 76.0162 59.8338C76.0162 59.6534 75.953 59.5021 75.8266 59.38C75.7002 59.2578 75.5063 59.1967 75.2449 59.1967H74.3458V60.5241ZM78.7925 63.0661C78.4701 63.0661 78.1924 62.9972 77.9594 62.8594C77.7279 62.7202 77.5489 62.5249 77.4225 62.2734C77.2975 62.0206 77.235 61.7244 77.235 61.3849C77.235 61.0497 77.2975 60.7543 77.4225 60.4986C77.5489 60.2429 77.7251 60.0433 77.9509 59.8999C78.1782 59.7564 78.4438 59.6847 78.7478 59.6847C78.9324 59.6847 79.1114 59.7152 79.2847 59.7763C79.458 59.8374 79.6136 59.9332 79.7513 60.0639C79.8891 60.1946 79.9978 60.3643 80.0773 60.5732C80.1569 60.7805 80.1966 61.0327 80.1966 61.3295V61.5554H77.5951V61.0781H79.5724C79.5724 60.9105 79.5383 60.7621 79.4701 60.6328C79.4019 60.5021 79.306 60.3991 79.1824 60.3239C79.0603 60.2486 78.9168 60.2109 78.752 60.2109C78.5731 60.2109 78.4168 60.255 78.2833 60.343C78.1512 60.4297 78.0489 60.5433 77.9765 60.6839C77.9055 60.8232 77.8699 60.9744 77.8699 61.1378V61.5107C77.8699 61.7294 77.9083 61.9155 77.985 62.0689C78.0631 62.2223 78.1718 62.3395 78.311 62.4205C78.4502 62.5 78.6128 62.5398 78.7989 62.5398C78.9197 62.5398 79.0297 62.5227 79.1292 62.4886C79.2286 62.4531 79.3145 62.4006 79.387 62.331C79.4594 62.2614 79.5148 62.1754 79.5532 62.0732L80.1562 62.1818C80.1079 62.3594 80.0212 62.5149 79.8962 62.6484C79.7726 62.7805 79.6171 62.8835 79.4296 62.9574C79.2435 63.0298 79.0312 63.0661 78.7925 63.0661ZM81.3606 61.0568V63H80.7235V58.6364H81.3521V60.2599H81.3925C81.4692 60.0838 81.5864 59.9439 81.7441 59.8402C81.9018 59.7365 82.1077 59.6847 82.362 59.6847C82.5864 59.6847 82.7825 59.7308 82.9501 59.8232C83.1191 59.9155 83.2498 60.0533 83.3421 60.2365C83.4359 60.4183 83.4827 60.6456 83.4827 60.9183V63H82.8457V60.995C82.8457 60.755 82.7839 60.5689 82.6603 60.4368C82.5367 60.3033 82.3648 60.2365 82.1447 60.2365C81.9941 60.2365 81.8592 60.2685 81.7398 60.3324C81.6219 60.3963 81.5289 60.4901 81.4607 60.6136C81.394 60.7358 81.3606 60.8835 81.3606 61.0568ZM85.1053 63.0724C84.8979 63.0724 84.7104 63.0341 84.5428 62.9574C84.3752 62.8793 84.2424 62.7663 84.1444 62.6186C84.0478 62.4709 83.9995 62.2898 83.9995 62.0753C83.9995 61.8906 84.035 61.7386 84.106 61.6193C84.177 61.5 84.2729 61.4055 84.3936 61.3359C84.5144 61.2663 84.6493 61.2138 84.7985 61.1783C84.9476 61.1428 85.0996 61.1158 85.2544 61.0973C85.4505 61.0746 85.6096 61.0561 85.7317 61.0419C85.8539 61.0263 85.9426 61.0014 85.998 60.9673C86.0534 60.9332 86.0811 60.8778 86.0811 60.8011V60.7862C86.0811 60.6001 86.0286 60.456 85.9235 60.3537C85.8198 60.2514 85.665 60.2003 85.459 60.2003C85.2445 60.2003 85.0755 60.2479 84.9519 60.343C84.8297 60.4368 84.7452 60.5412 84.6983 60.6562L84.0996 60.5199C84.1706 60.321 84.2743 60.1605 84.4107 60.0384C84.5485 59.9148 84.7069 59.8253 84.8858 59.7699C85.0648 59.7131 85.253 59.6847 85.4505 59.6847C85.5811 59.6847 85.7196 59.7003 85.8659 59.7315C86.0137 59.7614 86.1515 59.8168 86.2793 59.8977C86.4086 59.9787 86.5144 60.0945 86.5968 60.245C86.6792 60.3942 86.7203 60.5881 86.7203 60.8267V63H86.0982V62.5526H86.0726C86.0314 62.6349 85.9696 62.7159 85.8873 62.7955C85.8049 62.875 85.699 62.9411 85.5698 62.9936C85.4405 63.0462 85.2857 63.0724 85.1053 63.0724ZM85.2438 62.5611C85.4199 62.5611 85.5705 62.5263 85.6955 62.4567C85.8219 62.3871 85.9178 62.2962 85.9831 62.1839C86.0499 62.0703 86.0833 61.9489 86.0833 61.8196V61.3977C86.0605 61.4205 86.0165 61.4418 85.9512 61.4616C85.8873 61.4801 85.8141 61.4964 85.7317 61.5107C85.6493 61.5234 85.5691 61.5355 85.4909 61.5469C85.4128 61.5568 85.3475 61.5653 85.2949 61.5724C85.1713 61.5881 85.0584 61.6143 84.9561 61.6513C84.8553 61.6882 84.7743 61.7415 84.7132 61.8111C84.6536 61.8793 84.6238 61.9702 84.6238 62.0838C84.6238 62.2415 84.682 62.3608 84.7985 62.4418C84.915 62.5213 85.0634 62.5611 85.2438 62.5611ZM88.026 61.0568V63H87.3889V59.7273H88.0004V60.2599H88.0409C88.1162 60.0866 88.2341 59.9474 88.3946 59.8423C88.5565 59.7372 88.7603 59.6847 89.0061 59.6847C89.2291 59.6847 89.4244 59.7315 89.592 59.8253C89.7596 59.9176 89.8896 60.0554 89.9819 60.2386C90.0743 60.4219 90.1204 60.6484 90.1204 60.9183V63H89.4834V60.995C89.4834 60.7578 89.4216 60.5724 89.298 60.4389C89.1744 60.304 89.0047 60.2365 88.7887 60.2365C88.641 60.2365 88.5096 60.2685 88.3946 60.3324C88.2809 60.3963 88.1907 60.4901 88.124 60.6136C88.0586 60.7358 88.026 60.8835 88.026 61.0568ZM92.1734 63.0661C91.8566 63.0661 91.5839 62.9943 91.3552 62.8509C91.1279 62.706 90.9532 62.5064 90.8311 62.2521C90.7089 61.9979 90.6478 61.7067 90.6478 61.3786C90.6478 61.0462 90.7103 60.7528 90.8353 60.4986C90.9603 60.2429 91.1364 60.0433 91.3637 59.8999C91.591 59.7564 91.8587 59.6847 92.167 59.6847C92.4156 59.6847 92.6372 59.7308 92.8318 59.8232C93.0264 59.9141 93.1833 60.0419 93.3026 60.2067C93.4234 60.3714 93.4951 60.5639 93.5178 60.7841H92.8978C92.8637 60.6307 92.7856 60.4986 92.6634 60.3878C92.5427 60.277 92.3808 60.2216 92.1776 60.2216C92.0001 60.2216 91.8445 60.2685 91.711 60.3622C91.5789 60.4545 91.4759 60.5866 91.4021 60.7585C91.3282 60.929 91.2913 61.1307 91.2913 61.3636C91.2913 61.6023 91.3275 61.8082 91.3999 61.9815C91.4724 62.1548 91.5747 62.2891 91.7068 62.3842C91.8403 62.4794 91.9972 62.527 92.1776 62.527C92.2984 62.527 92.4078 62.505 92.5058 62.4609C92.6052 62.4155 92.6883 62.3509 92.7551 62.267C92.8232 62.1832 92.8708 62.0824 92.8978 61.9645H93.5178C93.4951 62.1761 93.4262 62.3651 93.3112 62.5312C93.1961 62.6974 93.042 62.8281 92.8488 62.9233C92.657 63.0185 92.4319 63.0661 92.1734 63.0661ZM95.4296 63.0661C95.1072 63.0661 94.8295 62.9972 94.5965 62.8594C94.365 62.7202 94.186 62.5249 94.0596 62.2734C93.9346 62.0206 93.8721 61.7244 93.8721 61.3849C93.8721 61.0497 93.9346 60.7543 94.0596 60.4986C94.186 60.2429 94.3622 60.0433 94.588 59.8999C94.8153 59.7564 95.0809 59.6847 95.3849 59.6847C95.5696 59.6847 95.7485 59.7152 95.9218 59.7763C96.0951 59.8374 96.2507 59.9332 96.3884 60.0639C96.5262 60.1946 96.6349 60.3643 96.7144 60.5732C96.794 60.7805 96.8338 61.0327 96.8338 61.3295V61.5554H94.2322V61.0781H96.2095C96.2095 60.9105 96.1754 60.7621 96.1072 60.6328C96.039 60.5021 95.9431 60.3991 95.8196 60.3239C95.6974 60.2486 95.5539 60.2109 95.3892 60.2109C95.2102 60.2109 95.0539 60.255 94.9204 60.343C94.7883 60.4297 94.686 60.5433 94.6136 60.6839C94.5426 60.8232 94.5071 60.9744 94.5071 61.1378V61.5107C94.5071 61.7294 94.5454 61.9155 94.6221 62.0689C94.7002 62.2223 94.8089 62.3395 94.9481 62.4205C95.0873 62.5 95.2499 62.5398 95.436 62.5398C95.5568 62.5398 95.6669 62.5227 95.7663 62.4886C95.8657 62.4531 95.9517 62.4006 96.0241 62.331C96.0965 62.2614 96.1519 62.1754 96.1903 62.0732L96.7933 62.1818C96.745 62.3594 96.6583 62.5149 96.5333 62.6484C96.4098 62.7805 96.2542 62.8835 96.0667 62.9574C95.8806 63.0298 95.6683 63.0661 95.4296 63.0661Z" fill="#AEAEB7"/>
<path d="M25.7688 58.3112C25.3917 58.0208 25.0147 57.8031 24.6377 57.6579C24.2606 57.5128 23.8836 57.4402 23.4311 57.4402C22.6016 57.3676 21.6967 57.5854 20.7918 57.7305C19.8869 57.9483 19.0574 58.166 18.4542 58.3837C17.8509 58.6015 17.3984 58.7466 17.3984 58.7466C17.3984 58.7466 17.7755 58.9644 18.4542 59.2547C19.0574 59.545 19.9623 59.8354 20.9426 59.9805C21.923 60.1257 22.9033 60.1257 23.8082 59.9079C24.7885 59.6902 25.5426 59.1821 25.7688 58.3112Z" fill="#34343D"/>
<path d="M23.1318 54.608C23.5088 55.3338 23.9613 56.0596 24.64 56.4951C24.9416 56.7128 25.3186 56.9305 25.6957 57.0031C26.0727 57.0757 26.5252 57.0757 26.9022 56.858C26.9022 55.987 26.676 55.2612 26.299 54.6805C25.9219 54.0999 25.3187 53.5193 24.7908 53.0838C24.1875 52.6483 23.6597 52.2854 23.2072 51.9951C22.7548 51.7047 22.4531 51.5596 22.4531 51.5596C22.4531 51.5596 22.4531 51.6321 22.4531 51.8499C22.4531 51.995 22.5285 52.2128 22.5285 52.5031C22.6039 53.0838 22.7548 53.8096 23.1318 54.608Z" fill="#34343D"/>
<path d="M16.7952 56.5686C17.7001 56.496 18.4541 56.2057 18.982 55.4799C18.5295 54.7541 17.8509 54.3186 17.0968 54.1009C16.3427 53.8831 15.3624 53.8105 14.4575 53.8105C13.5526 53.8105 12.6477 53.8105 11.969 53.8105C11.2903 53.8105 10.8379 53.8105 10.8379 53.8105C10.8379 53.8105 10.9133 53.8831 11.0641 54.0283C11.2149 54.1734 11.4411 54.3912 11.7428 54.6089C12.346 55.0444 13.1001 55.5525 14.005 55.988C14.9853 56.3509 15.9657 56.5686 16.7952 56.5686Z" fill="#34343D"/>
<path d="M18.4553 53.23C18.9832 53.8107 19.6619 54.2462 20.4914 54.1736C20.8684 53.3752 20.793 52.5768 20.5668 51.851C20.3406 51.1252 19.8881 50.472 19.5111 49.8913C19.0586 49.3107 18.6816 48.8752 18.3045 48.5123C18.1537 48.3671 18.0029 48.222 17.9275 48.0768C17.8521 48.0042 17.7767 47.9316 17.7767 47.9316C17.7767 47.9316 17.7767 48.0042 17.7013 48.1494C17.6258 48.2945 17.6259 48.5123 17.5505 48.8026C17.475 49.3833 17.3996 50.1091 17.5505 50.9075C17.7013 51.7784 18.0029 52.5768 18.4553 53.23Z" fill="#34343D"/>
<path d="M7.74663 47.2054C7.14336 46.9876 6.69092 46.915 6.69092 46.915C6.69092 46.915 6.76631 46.9876 6.84172 47.2054C6.91713 47.3505 7.06795 47.5683 7.21876 47.8586C7.36958 48.1489 7.59582 48.4392 7.82204 48.8021C7.97286 48.9473 8.04827 49.165 8.19909 49.3102L8.27448 49.4554L8.4253 49.6005C8.50071 49.6731 8.57611 49.8183 8.65152 49.8908C9.4056 50.6892 10.3105 51.3425 11.14 51.6328C12.0449 51.9231 12.8744 51.8505 13.6285 51.2699C13.4023 50.3989 12.9498 49.8183 12.2711 49.3828C12.1203 49.2376 11.8941 49.165 11.7433 49.0199C11.5925 48.8747 11.3662 48.8021 11.14 48.657C10.9138 48.5118 10.763 48.4392 10.5367 48.2941C10.3105 48.2215 10.1597 48.0763 9.93347 48.0037C9.17939 47.6408 8.3499 47.3505 7.74663 47.2054Z" fill="#34343D"/>
<path d="M13.8549 48.6571C14.0812 49.3829 14.609 49.9636 15.4385 50.1813C16.0418 49.5281 16.1926 48.7297 16.268 48.0765C16.3434 47.3507 16.1926 46.6975 16.1172 46.1168C16.1172 45.8991 15.9664 45.4636 15.8909 45.1733C15.8155 44.8829 15.6647 44.5926 15.5893 44.3023C15.5139 44.0846 15.4385 43.8668 15.3631 43.7217C15.2877 43.5765 15.2877 43.5039 15.2877 43.5039C15.2877 43.5039 15.2123 43.5765 15.1369 43.7217C15.0614 43.8668 14.9106 44.0846 14.7598 44.3023C14.4582 44.8104 14.1565 45.5362 13.9303 46.262C13.8549 46.4797 13.8549 46.6249 13.7795 46.8426C13.7041 47.0604 13.7041 47.2055 13.7041 47.4233C13.7041 47.641 13.7041 47.7862 13.7041 48.0039C13.7041 48.2942 13.7795 48.512 13.8549 48.6571Z" fill="#34343D"/>
<path d="M6.84287 44.2292C6.99369 44.3743 7.14451 44.5195 7.29533 44.6647C7.44615 44.8098 7.67238 44.955 7.8232 45.0276C8.57728 45.463 9.33135 45.6808 10.2363 45.3905C10.3117 44.955 10.3117 44.5921 10.1608 44.2292C10.0854 44.084 10.01 43.8663 9.93462 43.7211C9.85922 43.5759 9.7084 43.4308 9.63299 43.213C9.18054 42.5598 8.42646 42.0518 7.74778 41.5437C7.06911 41.0356 6.31501 40.6001 5.71175 40.3098C5.10848 40.0195 4.73145 39.8018 4.73145 39.8018C4.73145 39.8018 4.73145 39.8743 4.80686 40.0921C4.88227 40.3098 4.95767 40.5276 5.03307 40.8179C5.2593 41.3985 5.56093 42.2695 6.08879 42.9953C6.23961 43.5034 6.54124 43.8663 6.84287 44.2292Z" fill="#34343D"/>
<path d="M11.5165 43.867C11.6673 44.2299 11.9689 44.5202 12.2706 44.738C13.0246 44.3025 13.4771 43.6493 13.7787 42.9235C13.8541 42.7783 13.8541 42.5605 13.9295 42.4154C13.9295 42.3428 13.9295 42.1976 14.0049 42.1251C14.0049 42.0525 14.0049 41.9073 14.0804 41.8347C14.1558 41.4718 14.1558 41.1089 14.1558 40.746C14.0804 40.0202 14.0803 39.367 13.9295 38.8589C13.8541 38.6412 13.8541 38.4235 13.7787 38.2783C13.7787 38.1331 13.7033 38.0605 13.7033 38.0605C13.7033 38.0605 13.6279 38.1331 13.4771 38.2783C13.3263 38.4235 13.1755 38.5686 13.0246 38.7864C12.6476 39.2218 12.1951 39.8751 11.8181 40.6009C11.4411 41.3267 11.2148 42.1251 11.2148 42.9235C11.2148 43.1412 11.2148 43.2864 11.2902 43.5041C11.3656 43.5767 11.4411 43.7218 11.5165 43.867Z" fill="#34343D"/>
<path d="M5.25827 37.3352C5.33368 37.553 5.4845 37.6981 5.63532 37.9159C5.78613 38.061 5.93696 38.2788 6.08777 38.4239C6.69104 39.0046 7.44512 39.3675 8.35003 39.2223C8.50084 38.8594 8.57626 38.4239 8.50085 38.061C8.50085 37.8433 8.42543 37.6981 8.35003 37.4804C8.27462 37.3352 8.19922 37.1175 8.12381 36.9723C7.97299 36.6094 7.74677 36.2465 7.44514 35.9562C7.29432 35.811 7.1435 35.5933 7.0681 35.4481C6.91728 35.303 6.76646 35.1578 6.61564 34.9401C6.01237 34.2869 5.33368 33.7062 4.88123 33.2707C4.42878 32.8352 4.05176 32.5449 4.05176 32.5449C4.05176 32.5449 4.05176 32.9804 4.05176 33.6336C4.05176 33.9965 4.12715 34.3594 4.20256 34.7223C4.27797 34.9401 4.27798 35.1578 4.35339 35.3756C4.4288 35.5933 4.42879 35.8111 4.5796 36.0288C4.88124 36.4643 5.10746 36.8998 5.25827 37.3352Z" fill="#34343D"/>
<path d="M10.538 38.714C11.3675 38.4236 11.9708 37.843 12.3479 37.2624C12.4233 37.1172 12.4987 36.972 12.5741 36.7543C12.6495 36.6091 12.7249 36.3914 12.8003 36.2462C12.9511 35.8833 13.0265 35.5204 13.102 35.2301C13.1774 34.8672 13.2528 34.5769 13.2528 34.214C13.2528 34.0688 13.2528 33.9236 13.3282 33.7785C13.3282 33.6333 13.3282 33.4882 13.3282 33.4156C13.4036 32.9075 13.4036 32.6172 13.4036 32.6172C13.4036 32.6172 13.1019 32.7624 12.5741 33.1253C12.4233 33.1978 12.3479 33.2704 12.197 33.4156C12.0462 33.4882 11.8954 33.6333 11.82 33.7785C11.5184 33.9962 11.2921 34.2866 10.9905 34.5769C10.8397 34.722 10.7643 34.8672 10.6135 35.0849C10.5381 35.1575 10.4627 35.2301 10.4627 35.3753C10.3872 35.4478 10.3872 35.5204 10.3118 35.6656C10.161 36.0285 10.0102 36.3914 9.93479 36.7543C9.93479 36.972 9.85938 37.1172 9.85938 37.3349C9.85938 37.5527 9.93479 37.6978 9.93479 37.843C10.0856 38.0607 10.2364 38.4236 10.538 38.714Z" fill="#34343D"/>
<path d="M7.36897 28.1903C7.14274 27.8274 6.9165 27.4645 6.76569 27.1016C6.53946 26.7387 6.31325 26.4484 6.16243 26.1581C5.78539 25.65 5.55917 25.2871 5.55917 25.2871C5.55917 25.2871 5.40834 25.7226 5.33293 26.3758C5.25752 26.6661 5.25754 27.1016 5.18213 27.4645C5.18213 27.6823 5.18213 27.9 5.18213 28.1177C5.18213 28.3355 5.18213 28.5532 5.18213 28.771C5.25754 29.2065 5.25753 29.6419 5.40835 30.0774C5.55916 30.5129 5.70999 30.9484 5.93621 31.2387C6.38866 31.9645 7.06733 32.4726 7.97223 32.5452C8.12304 32.4 8.19845 32.1823 8.27386 32.0371C8.34927 31.8919 8.42468 31.6742 8.42468 31.529C8.50009 31.1661 8.42468 30.8032 8.34927 30.4403C8.27386 30.0774 8.12304 29.6419 7.97223 29.279C7.82141 28.9887 7.59519 28.5532 7.36897 28.1903Z" fill="#34343D"/>
<path d="M12.2725 31.528C12.5741 31.2377 12.8003 31.02 12.9511 30.6571C13.1774 30.3667 13.3282 30.0764 13.479 29.7135C13.5544 29.5684 13.6298 29.4232 13.7052 29.278C13.7806 29.1329 13.856 28.9877 13.9314 28.8425C14.0822 28.5522 14.1577 28.3345 14.2331 28.0442C14.3839 27.6087 14.4593 27.3184 14.4593 27.3184C14.4593 27.3184 14.0822 27.3909 13.5544 27.6087C13.0265 27.8264 12.3478 28.1167 11.6692 28.6248C11.5184 28.77 11.3676 28.8425 11.2167 28.9877C11.0659 29.1329 10.9151 29.278 10.7643 29.4232C10.4627 29.7135 10.2364 30.0764 10.0856 30.3667C9.9348 30.7296 9.85938 31.0926 9.85938 31.4555C9.85938 31.6006 9.85938 31.8184 9.93479 31.9635C10.0102 32.1087 10.0856 32.3264 10.161 32.4716C11.0659 32.399 11.7446 32.0361 12.2725 31.528Z" fill="#34343D"/>
<path d="M9.63091 25.8671C9.78172 25.722 9.85713 25.5768 9.93254 25.3591C10.0079 25.2139 10.0834 24.9962 10.0834 24.851C10.0834 24.7058 10.1588 24.4881 10.1588 24.2703C10.1588 23.9074 10.1588 23.472 10.0834 23.0365C10.008 22.601 9.93253 22.2381 9.85712 21.8026C9.6309 21.0042 9.40468 20.2058 9.17845 19.6252C8.95223 19.0445 8.80141 18.6816 8.80141 18.6816C8.80141 18.6816 8.72599 18.7542 8.65058 18.8994C8.57517 19.0445 8.42436 19.3349 8.27354 19.6252C7.97191 20.2058 7.67027 21.0042 7.51946 21.8752C7.44405 22.3107 7.36865 22.7462 7.36865 23.1816C7.36865 23.3994 7.36866 23.6171 7.44407 23.8349C7.44407 24.0526 7.51946 24.2703 7.59487 24.4881C7.74569 24.851 7.89652 25.2139 8.19815 25.5768C8.49978 25.8671 8.80141 26.1574 9.25386 26.3026C9.40468 26.23 9.5555 26.0849 9.63091 25.8671Z" fill="#34343D"/>
<path d="M16.7968 22.7451C16.8722 22.5999 16.9476 22.5273 16.9476 22.5273C16.9476 22.5273 16.8722 22.5273 16.646 22.5273C16.4952 22.5273 16.269 22.5273 15.9673 22.5999C15.6657 22.5999 15.3641 22.6725 14.987 22.7451C14.8362 22.8177 14.61 22.8177 14.4592 22.8902C14.3083 22.9628 14.0821 23.0354 13.9313 23.108C13.5542 23.2532 13.1772 23.3983 12.8002 23.6161C12.4985 23.8338 12.1969 24.1241 11.8953 24.3419C11.7445 24.487 11.6691 24.6322 11.5936 24.7773C11.5182 24.9225 11.4428 25.1402 11.3674 25.2854C11.292 25.4306 11.292 25.6483 11.292 25.7935C11.292 26.0112 11.3674 26.1564 11.3674 26.3741C11.8199 26.4467 12.1969 26.4467 12.5739 26.3741C12.951 26.3015 13.328 26.1564 13.6297 25.9386C13.7805 25.8661 13.9313 25.7209 14.0821 25.6483C14.1575 25.5757 14.2329 25.5032 14.3083 25.5032C14.3837 25.4306 14.4592 25.358 14.5346 25.358C14.8362 25.1402 15.0624 24.8499 15.2887 24.6322C15.5149 24.3419 15.7411 24.1241 15.8919 23.9064C15.9673 23.8338 15.9673 23.7612 16.0427 23.6886C16.1181 23.6161 16.1181 23.5435 16.1935 23.5435C16.269 23.3983 16.3444 23.3257 16.4198 23.2532C16.5706 23.0354 16.7214 22.8902 16.7968 22.7451Z" fill="#34343D"/>
<path d="M12.1179 20.5686C12.495 20.3508 12.7966 20.1331 13.0228 19.8428C13.2491 19.5525 13.3999 19.1895 13.5507 18.8266C13.7769 18.1008 13.8523 17.2299 13.8523 16.4315C13.8523 16.2137 13.8523 15.996 13.8523 15.7783C13.8523 15.5605 13.8523 15.3428 13.8523 15.1976C13.8523 14.8347 13.7769 14.4718 13.7769 14.1089C13.7015 13.5283 13.6261 13.0928 13.6261 13.0928C13.6261 13.0928 13.5507 13.1654 13.3999 13.3105C13.2491 13.4557 13.0982 13.6734 12.872 13.8912C12.6458 14.1815 12.4196 14.4718 12.2687 14.7621C12.0425 15.125 11.8163 15.4879 11.6655 15.8508C11.5146 16.2863 11.3638 16.6492 11.213 17.0847C11.1376 17.5202 11.0622 17.9557 11.0622 18.3186C10.9868 19.2621 11.3638 20.0605 12.1179 20.5686Z" fill="#34343D"/>
<path d="M18.4531 20.1328C18.7547 19.9151 19.0563 19.6974 19.2826 19.4796C19.5088 19.2619 19.735 19.1167 19.9612 18.899C20.112 18.7538 20.2629 18.6087 20.4137 18.4635C20.4891 18.3909 20.5645 18.3183 20.5645 18.3183C20.5645 18.3183 20.1874 18.2458 19.5842 18.1732C19.2825 18.1732 18.9809 18.1006 18.6039 18.1006C18.2268 18.1006 17.8498 18.1006 17.3973 18.1732C16.5678 18.3183 15.7384 18.5361 15.1351 18.9716C14.8335 19.1893 14.6072 19.4796 14.381 19.7699C14.2302 20.0603 14.1548 20.4232 14.1548 20.8587C14.9843 21.2216 15.8138 21.149 16.4925 21.0038C16.8695 20.9312 17.1711 20.7861 17.5482 20.5683C17.8498 20.4958 18.1514 20.3506 18.4531 20.1328Z" fill="#34343D"/>
<path d="M24.9411 57.3667C22.0755 56.278 19.21 54.9716 16.797 53.0845C14.2331 51.0522 12.4233 48.2942 11.1413 45.1006C9.55775 41.399 8.42663 37.5522 8.57745 33.4877C8.72826 30.0039 9.70857 26.5926 11.2167 23.399C12.4987 20.8587 14.0823 18.3184 16.0429 16.0684C15.8921 15.778 15.8921 15.4151 15.9675 15.1248C16.0429 14.7619 16.1937 14.399 16.4199 14.1087C16.8724 13.4555 17.551 12.8748 18.3051 12.5119C19.0592 12.0764 19.8133 11.8587 20.4166 11.7135C20.7182 11.6409 20.9444 11.5684 21.0952 11.5684H21.3215H21.3969V11.6409C21.3969 11.6409 21.3969 11.7135 21.3215 11.7861C21.2461 11.9313 21.1707 12.149 21.0198 12.3668C20.7936 12.8748 20.4166 13.4555 19.9641 14.1087C19.7379 14.399 19.4362 14.6893 19.21 14.9797L18.833 15.3426L18.8329 15.3427C18.6821 15.4878 18.5313 15.6329 18.3805 15.7055C18.0789 15.8506 17.7773 16.0684 17.4002 16.1409C17.174 16.2135 16.8724 16.2135 16.5707 16.2135C15.7412 17.2297 14.9118 18.2458 14.2331 19.2619C11.443 23.2538 9.48234 27.899 9.1807 32.7619C8.95448 36.9716 9.9348 40.8909 11.5938 44.7377C12.4233 46.77 13.479 48.7296 14.9872 50.399C16.4953 52.0684 18.3051 53.3748 20.2658 54.4635C24.0362 56.4958 29.541 58.8184 34.7442 60.4877L33.3114 61.1409C30.2951 59.7619 27.2787 58.2377 24.9411 57.3667Z" fill="#34343D"/>
<path d="M142.961 58.3092C143.338 58.0189 143.715 57.8011 144.092 57.656C144.469 57.5108 144.846 57.4382 145.298 57.4382C146.128 57.3657 147.033 57.5834 147.938 57.7286C148.843 57.9463 149.672 58.164 150.275 58.3818C150.879 58.5995 151.331 58.7447 151.331 58.7447C151.331 58.7447 150.954 58.9624 150.275 59.2528C149.672 59.5431 148.767 59.8334 147.787 59.9786C146.807 60.1237 145.826 60.1237 144.921 59.906C143.941 59.6882 143.187 59.1802 142.961 58.3092Z" fill="#34343D"/>
<path d="M145.597 54.607C145.22 55.3328 144.768 56.0586 144.089 56.4941C143.787 56.7118 143.41 56.9296 143.033 57.0021C142.656 57.0747 142.204 57.0747 141.827 56.857C141.827 55.986 142.053 55.2602 142.43 54.6796C142.807 54.0989 143.41 53.5183 143.938 53.0828C144.541 52.6473 145.069 52.2844 145.522 51.9941C145.974 51.7038 146.276 51.5586 146.276 51.5586C146.276 51.5586 146.276 51.6312 146.276 51.8489C146.276 51.9941 146.2 52.2118 146.2 52.5021C146.125 53.0828 145.974 53.8086 145.597 54.607Z" fill="#34343D"/>
<path d="M151.934 56.5676C151.029 56.495 150.275 56.2047 149.747 55.4789C150.199 54.7531 150.878 54.3176 151.632 54.0999C152.386 53.8821 153.367 53.8096 154.272 53.8096C155.176 53.8096 156.081 53.8096 156.76 53.8096C157.439 53.8096 157.891 53.8096 157.891 53.8096C157.891 53.8096 157.816 53.8821 157.665 54.0273C157.514 54.1725 157.288 54.3902 156.986 54.608C156.383 55.0434 155.629 55.5515 154.724 55.987C153.744 56.3499 152.763 56.5676 151.934 56.5676Z" fill="#34343D"/>
<path d="M150.274 53.2291C149.746 53.8097 149.067 54.2452 148.238 54.1726C147.861 53.3742 147.936 52.5758 148.162 51.85C148.388 51.1242 148.841 50.471 149.218 49.8903C149.67 49.3097 150.047 48.8742 150.424 48.5113C150.575 48.3662 150.726 48.221 150.802 48.0758C150.877 48.0032 150.952 47.9307 150.952 47.9307C150.952 47.9307 150.952 48.0032 151.028 48.1484C151.103 48.2936 151.103 48.5113 151.179 48.8016C151.254 49.3823 151.329 50.1081 151.179 50.9065C151.028 51.7774 150.726 52.5758 150.274 53.2291Z" fill="#34343D"/>
<path d="M160.982 47.2044C161.586 46.9866 162.038 46.9141 162.038 46.9141C162.038 46.9141 161.963 46.9866 161.887 47.2044C161.812 47.3495 161.661 47.5673 161.51 47.8576C161.359 48.1479 161.133 48.4382 160.907 48.8012C160.756 48.9463 160.681 49.1641 160.53 49.3092L160.455 49.4544L160.304 49.5995C160.228 49.6721 160.153 49.8173 160.077 49.8899C159.323 50.6882 158.418 51.3415 157.589 51.6318C156.684 51.9221 155.855 51.8495 155.101 51.2689C155.327 50.3979 155.779 49.8173 156.458 49.3818C156.609 49.2366 156.835 49.1641 156.986 49.0189C157.137 48.8737 157.363 48.8012 157.589 48.656C157.815 48.5108 157.966 48.4383 158.192 48.2931C158.418 48.2205 158.569 48.0754 158.796 48.0028C159.55 47.6399 160.379 47.3495 160.982 47.2044Z" fill="#34343D"/>
<path d="M154.874 48.6562C154.648 49.382 154.12 49.9626 153.291 50.1804C152.687 49.5271 152.536 48.7287 152.461 48.0755C152.386 47.3497 152.536 46.6965 152.612 46.1158C152.612 45.8981 152.763 45.4626 152.838 45.1723C152.913 44.882 153.064 44.5916 153.14 44.3013C153.215 44.0836 153.29 43.8658 153.366 43.7207C153.441 43.5755 153.441 43.5029 153.441 43.5029C153.441 43.5029 153.517 43.5755 153.592 43.7207C153.668 43.8658 153.818 44.0836 153.969 44.3013C154.271 44.8094 154.572 45.5352 154.799 46.261C154.874 46.4787 154.874 46.6239 154.949 46.8416C155.025 47.0594 155.025 47.2045 155.025 47.4223C155.025 47.64 155.025 47.7852 155.025 48.0029C155.025 48.2933 154.949 48.511 154.874 48.6562Z" fill="#34343D"/>
<path d="M161.887 44.2282C161.736 44.3734 161.585 44.5185 161.434 44.6637C161.283 44.8088 161.057 44.954 160.906 45.0266C160.152 45.4621 159.398 45.6798 158.493 45.3895C158.418 44.954 158.418 44.5911 158.569 44.2282C158.644 44.083 158.719 43.8653 158.795 43.7201C158.87 43.575 159.021 43.4298 159.096 43.2121C159.549 42.5588 160.303 42.0508 160.982 41.5427C161.66 41.0346 162.414 40.5992 163.018 40.3088C163.621 40.0185 163.998 39.8008 163.998 39.8008C163.998 39.8008 163.998 39.8734 163.923 40.0911C163.847 40.3088 163.772 40.5266 163.696 40.8169C163.47 41.3976 163.169 42.2685 162.641 42.9943C162.49 43.5024 162.188 43.8653 161.887 44.2282Z" fill="#34343D"/>
<path d="M157.213 43.865C157.062 44.2279 156.76 44.5183 156.458 44.736C155.704 44.3005 155.252 43.6473 154.95 42.9215C154.875 42.7763 154.875 42.5586 154.799 42.4134C154.799 42.3409 154.799 42.1957 154.724 42.1231C154.724 42.0505 154.724 41.9054 154.649 41.8328C154.573 41.4699 154.573 41.107 154.573 40.7441C154.649 40.0183 154.649 39.365 154.799 38.857C154.875 38.6392 154.875 38.4215 154.95 38.2763C154.95 38.1312 155.026 38.0586 155.026 38.0586C155.026 38.0586 155.101 38.1312 155.252 38.2763C155.403 38.4215 155.554 38.5667 155.704 38.7844C156.081 39.2199 156.534 39.8731 156.911 40.5989C157.288 41.3247 157.514 42.1231 157.514 42.9215C157.514 43.1392 157.514 43.2844 157.439 43.5021C157.363 43.5747 157.288 43.7199 157.213 43.865Z" fill="#34343D"/>
<path d="M163.471 37.3343C163.395 37.552 163.245 37.6972 163.094 37.9149C162.943 38.0601 162.792 38.2778 162.641 38.423C162.038 39.0036 161.284 39.3665 160.379 39.2214C160.228 38.8585 160.153 38.423 160.228 38.0601C160.228 37.8423 160.304 37.6972 160.379 37.4794C160.454 37.3343 160.53 37.1165 160.605 36.9714C160.756 36.6085 160.982 36.2456 161.284 35.9552C161.435 35.8101 161.585 35.5923 161.661 35.4472C161.812 35.302 161.963 35.1569 162.113 34.9391C162.717 34.2859 163.395 33.7052 163.848 33.2698C164.3 32.8343 164.677 32.5439 164.677 32.5439C164.677 32.5439 164.677 32.9794 164.677 33.6327C164.677 33.9956 164.602 34.3585 164.526 34.7214C164.451 34.9391 164.451 35.1568 164.376 35.3746C164.3 35.5923 164.3 35.8101 164.149 36.0278C163.848 36.4633 163.622 36.8988 163.471 37.3343Z" fill="#34343D"/>
<path d="M158.191 38.713C157.361 38.4227 156.758 37.842 156.381 37.2614C156.306 37.1162 156.23 36.9711 156.155 36.7533C156.08 36.6082 156.004 36.3904 155.929 36.2452C155.778 35.8823 155.702 35.5194 155.627 35.2291C155.552 34.8662 155.476 34.5759 155.476 34.213C155.476 34.0678 155.476 33.9227 155.401 33.7775C155.401 33.6323 155.401 33.4872 155.401 33.4146C155.325 32.9065 155.325 32.6162 155.325 32.6162C155.325 32.6162 155.627 32.7614 156.155 33.1243C156.306 33.1969 156.381 33.2694 156.532 33.4146C156.683 33.4872 156.834 33.6323 156.909 33.7775C157.211 33.9952 157.437 34.2856 157.739 34.5759C157.889 34.7211 157.965 34.8662 158.116 35.084C158.191 35.1565 158.266 35.2291 158.266 35.3743C158.342 35.4469 158.342 35.5194 158.417 35.6646C158.568 36.0275 158.719 36.3904 158.794 36.7533C158.794 36.9711 158.87 37.1162 158.87 37.334C158.87 37.5517 158.794 37.6969 158.794 37.842C158.643 38.0598 158.493 38.4227 158.191 38.713Z" fill="#34343D"/>
<path d="M161.36 28.1884C161.586 27.8255 161.812 27.4626 161.963 27.0997C162.19 26.7368 162.416 26.4464 162.567 26.1561C162.944 25.6481 163.17 25.2852 163.17 25.2852C163.17 25.2852 163.321 25.7206 163.396 26.3739C163.471 26.6642 163.471 27.0997 163.547 27.4626C163.547 27.6803 163.547 27.8981 163.547 28.1158C163.547 28.3335 163.547 28.5513 163.547 28.769C163.471 29.2045 163.471 29.64 163.321 30.0755C163.17 30.511 163.019 30.9464 162.793 31.2368C162.34 31.9626 161.662 32.4706 160.757 32.5432C160.606 32.3981 160.531 32.1803 160.455 32.0352C160.38 31.89 160.304 31.6722 160.304 31.5271C160.229 31.1642 160.304 30.8013 160.38 30.4384C160.455 30.0755 160.606 29.64 160.757 29.2771C160.908 28.9868 161.134 28.5513 161.36 28.1884Z" fill="#34343D"/>
<path d="M156.457 31.5271C156.155 31.2367 155.929 31.019 155.778 30.6561C155.552 30.3658 155.401 30.0754 155.25 29.7125C155.175 29.5674 155.099 29.4222 155.024 29.2771C154.948 29.1319 154.873 28.9867 154.798 28.8416C154.647 28.5512 154.571 28.3335 154.496 28.0432C154.345 27.6077 154.27 27.3174 154.27 27.3174C154.27 27.3174 154.647 27.39 155.175 27.6077C155.702 27.8254 156.381 28.1158 157.06 28.6238C157.211 28.769 157.361 28.8416 157.512 28.9867C157.663 29.1319 157.814 29.2771 157.965 29.4222C158.266 29.7125 158.493 30.0754 158.643 30.3658C158.794 30.7287 158.87 31.0916 158.87 31.4545C158.87 31.5996 158.87 31.8174 158.794 31.9625C158.719 32.1077 158.643 32.3254 158.568 32.4706C157.663 32.398 156.984 32.0351 156.457 31.5271Z" fill="#34343D"/>
<path d="M159.098 25.8662C158.947 25.721 158.872 25.5758 158.796 25.3581C158.721 25.2129 158.646 24.9952 158.646 24.85C158.646 24.7049 158.57 24.4871 158.57 24.2694C158.57 23.9065 158.57 23.471 158.646 23.0355C158.721 22.6 158.796 22.2371 158.872 21.8016C159.098 21.0032 159.324 20.2049 159.551 19.6242C159.777 19.0436 159.928 18.6807 159.928 18.6807C159.928 18.6807 160.003 18.7532 160.078 18.8984C160.154 19.0436 160.305 19.3339 160.455 19.6242C160.757 20.2049 161.059 21.0033 161.21 21.8742C161.285 22.3097 161.36 22.7452 161.36 23.1807C161.36 23.3984 161.36 23.6162 161.285 23.8339C161.285 24.0516 161.21 24.2694 161.134 24.4871C160.983 24.85 160.832 25.2129 160.531 25.5758C160.229 25.8661 159.928 26.1565 159.475 26.3016C159.324 26.2291 159.174 26.0839 159.098 25.8662Z" fill="#34343D"/>
<path d="M151.933 22.7441C151.857 22.599 151.782 22.5264 151.782 22.5264C151.782 22.5264 151.857 22.5264 152.083 22.5264C152.234 22.5264 152.461 22.5264 152.762 22.599C153.064 22.599 153.365 22.6715 153.742 22.7441C153.893 22.8167 154.12 22.8167 154.27 22.8893C154.421 22.9619 154.647 23.0344 154.798 23.107C155.175 23.2522 155.552 23.3973 155.929 23.6151C156.231 23.8328 156.533 24.1231 156.834 24.3409C156.985 24.486 157.06 24.6312 157.136 24.7764C157.211 24.9215 157.287 25.1393 157.362 25.2844C157.437 25.4296 157.438 25.6473 157.438 25.7925C157.438 26.0102 157.362 26.1554 157.362 26.3731C156.91 26.4457 156.533 26.4457 156.156 26.3731C155.779 26.3006 155.401 26.1554 155.1 25.9377C154.949 25.8651 154.798 25.7199 154.647 25.6473C154.572 25.5748 154.497 25.5022 154.421 25.5022C154.346 25.4296 154.27 25.357 154.195 25.357C153.893 25.1393 153.667 24.8489 153.441 24.6312C153.215 24.3409 152.988 24.1231 152.838 23.9054C152.762 23.8328 152.762 23.7602 152.687 23.6877C152.611 23.6151 152.611 23.5425 152.536 23.5425C152.461 23.3973 152.385 23.3248 152.31 23.2522C152.159 23.0344 152.008 22.8893 151.933 22.7441Z" fill="#34343D"/>
<path d="M156.611 20.5676C156.234 20.3499 155.932 20.1321 155.706 19.8418C155.48 19.5515 155.329 19.1886 155.178 18.8257C154.952 18.0999 154.877 17.2289 154.877 16.4305C154.877 16.2128 154.877 15.995 154.877 15.7773C154.877 15.5595 154.877 15.3418 154.877 15.1966C154.877 14.8337 154.952 14.4708 154.952 14.1079C155.027 13.5273 155.103 13.0918 155.103 13.0918C155.103 13.0918 155.178 13.1644 155.329 13.3095C155.48 13.4547 155.631 13.6724 155.857 13.8902C156.083 14.1805 156.309 14.4708 156.46 14.7612C156.686 15.1241 156.913 15.487 157.064 15.8499C157.214 16.2853 157.365 16.6482 157.516 17.0837C157.591 17.5192 157.667 17.9547 157.667 18.3176C157.742 19.2611 157.365 20.0595 156.611 20.5676Z" fill="#34343D"/>
<path d="M150.276 20.1319C149.974 19.9141 149.673 19.6964 149.446 19.4786C149.22 19.2609 148.994 19.1157 148.768 18.898C148.617 18.7528 148.466 18.6077 148.315 18.4625C148.24 18.3899 148.164 18.3174 148.164 18.3174C148.164 18.3174 148.542 18.2448 149.145 18.1722C149.446 18.1722 149.748 18.0996 150.125 18.0996C150.502 18.0996 150.879 18.0996 151.332 18.1722C152.161 18.3174 152.991 18.5351 153.594 18.9706C153.896 19.1883 154.122 19.4786 154.348 19.769C154.499 20.0593 154.574 20.4222 154.574 20.8577C153.745 21.2206 152.915 21.148 152.237 21.0028C151.86 20.9303 151.558 20.7851 151.181 20.5674C150.879 20.4948 150.578 20.3496 150.276 20.1319Z" fill="#34343D"/>
<path d="M143.788 57.3658C146.653 56.2771 149.519 54.9706 151.932 53.0835C154.496 51.0513 156.306 48.2932 157.588 45.0996C159.171 41.398 160.302 37.5513 160.152 33.4867C160.001 30.0029 159.02 26.5916 157.512 23.398C156.23 20.8577 154.647 18.3174 152.686 16.0674C152.837 15.7771 152.837 15.4142 152.762 15.1238C152.686 14.7609 152.535 14.398 152.309 14.1077C151.857 13.4545 151.178 12.8738 150.424 12.5109C149.67 12.0754 148.916 11.8577 148.312 11.7126C148.011 11.64 147.785 11.5674 147.634 11.5674H147.408H147.332V11.64C147.332 11.64 147.332 11.7125 147.408 11.7851C147.483 11.9303 147.558 12.148 147.709 12.3658C147.935 12.8738 148.312 13.4545 148.765 14.1077C148.991 14.398 149.293 14.6884 149.519 14.9787L149.896 15.3416L149.896 15.3417C150.047 15.4868 150.198 15.6319 150.348 15.7045C150.65 15.8496 150.952 16.0674 151.329 16.14C151.555 16.2125 151.857 16.2126 152.158 16.2126C152.988 17.2287 153.817 18.2448 154.496 19.2609C157.286 23.2529 159.247 27.898 159.548 32.7609C159.775 36.9706 158.794 40.89 157.135 44.7367C156.306 46.769 155.25 48.7287 153.742 50.398C152.234 52.0674 150.424 53.3738 148.463 54.4625C144.693 56.4948 139.188 58.8174 133.985 60.4867L135.418 61.14C138.434 59.7609 141.45 58.2367 143.788 57.3658Z" fill="#34343D"/>
<g clip-path="url(#clip0_4310_61733)">
<path d="M71.1248 4.70996C71.4205 4.70996 71.6936 4.73294 71.9443 4.80189C72.1949 4.84785 72.4005 4.94265 72.5835 5.05756C72.7666 5.17247 72.9018 5.33621 72.9947 5.54592C73.0848 5.75563 73.1327 6.0113 73.1327 6.28995C73.1327 6.61457 73.0651 6.89322 72.9046 7.10293C72.7666 7.31264 72.5413 7.49936 72.2653 7.63725C72.654 7.75216 72.9496 7.96187 73.1299 8.24052C73.3101 8.51917 73.4256 8.86677 73.4256 9.26321C73.4256 9.58782 73.358 9.86647 73.2425 10.0992C73.1299 10.3319 72.9468 10.5416 72.7413 10.6795C72.5357 10.8202 72.285 10.9351 72.0119 11.0041C71.7387 11.073 71.4655 11.119 71.1924 11.119L68.1396 11.1247V4.70996H71.1248ZM70.9417 7.31264C71.1924 7.31264 71.3979 7.24369 71.5556 7.12591C71.7134 7.00813 71.7838 6.80129 71.7838 6.54562C71.7838 6.40486 71.7612 6.26697 71.7162 6.17504C71.6711 6.08312 71.6035 6.0113 71.5106 5.94235C71.4205 5.89639 71.3275 5.85043 71.2149 5.82744C71.1022 5.80446 70.9868 5.80446 70.8516 5.80446H69.5308V7.31551C69.5308 7.31264 70.9417 7.31264 70.9417 7.31264ZM71.0093 10.0561C71.1473 10.0561 71.2825 10.0331 71.3979 10.0101C71.5106 9.98713 71.6261 9.94116 71.7162 9.86935C71.8063 9.79753 71.8767 9.72858 71.9443 9.61368C71.9893 9.49877 72.0344 9.358 72.0344 9.19426C72.0344 8.86964 71.9443 8.63695 71.7612 8.47321C71.5782 8.33245 71.3275 8.2635 71.0318 8.2635H69.5308V10.0532H71.0093V10.0561Z" fill="#C5C5CB"/>
<path d="M75.4086 10.0331C75.5916 10.2198 75.8648 10.3117 76.2281 10.3117C76.4787 10.3117 76.7068 10.2428 76.8899 10.125C77.0729 9.98424 77.1856 9.84635 77.2306 9.70559H78.3458C78.1628 10.2629 77.8896 10.6593 77.5263 10.915C77.163 11.1477 76.7293 11.2856 76.2055 11.2856C75.8423 11.2856 75.5212 11.2166 75.2255 11.0989C74.9298 10.9839 74.7017 10.8202 74.4961 10.5875C74.2906 10.3778 74.1328 10.1221 74.0399 9.8205C73.9273 9.51886 73.8794 9.19425 73.8794 8.82079C73.8794 8.4732 73.9245 8.14571 74.0399 7.84407C74.1554 7.54244 74.3131 7.28677 74.5187 7.05408C74.7242 6.84437 74.9749 6.65764 75.248 6.54274C75.5437 6.42783 75.8394 6.35601 76.2055 6.35601C76.5942 6.35601 76.9349 6.42495 77.2306 6.5887C77.5263 6.75244 77.7544 6.9363 77.9375 7.21495C78.1205 7.47062 78.2557 7.77225 78.3486 8.09687C78.3937 8.42149 78.4162 8.74898 78.3937 9.11956H75.0903C75.0903 9.49875 75.2255 9.84635 75.4086 10.0331ZM76.8448 7.59127C76.6843 7.42753 76.4337 7.3356 76.138 7.3356C75.9324 7.3356 75.7747 7.38157 75.6367 7.45051C75.4987 7.51946 75.4086 7.61426 75.3185 7.70618C75.2283 7.79811 75.1805 7.91589 75.1579 8.0308C75.1354 8.14571 75.1129 8.24051 75.1129 8.33243H77.163C77.118 7.98771 77.0025 7.75502 76.8448 7.59127ZM74.8397 5.15234H77.3911V5.77859H74.8397V5.15234Z" fill="#C5C5CB"/>
<path d="M80.1697 4.70996V7.12591H80.1922C80.3527 6.84726 80.5555 6.66053 80.8061 6.54562C81.0568 6.43071 81.2849 6.3589 81.5355 6.3589C81.8763 6.3589 82.1495 6.40486 82.355 6.49966C82.5606 6.59159 82.7437 6.73235 82.8563 6.89609C82.969 7.05984 83.0619 7.26667 83.1069 7.49936C83.152 7.73205 83.1745 7.98772 83.1745 8.28936V11.1477H81.9213V8.52205C81.9213 8.12561 81.8538 7.84696 81.7383 7.66311C81.6228 7.47925 81.4229 7.38158 81.1272 7.38158C80.7864 7.38158 80.5358 7.49649 80.3978 7.68321C80.2373 7.89292 80.1697 8.24052 80.1697 8.7059V11.1477H78.9165V4.70996H80.1697Z" fill="#C5C5CB"/>
<path d="M84.0931 7.1743C84.231 6.9646 84.3887 6.82671 84.5943 6.68594C84.7999 6.57104 85.028 6.47624 85.2787 6.43027C85.5293 6.38431 85.7799 6.36133 86.0306 6.36133C86.2587 6.36133 86.4868 6.38431 86.7374 6.40729C86.9655 6.43027 87.1936 6.49922 87.3767 6.59402C87.5823 6.68594 87.7174 6.82671 87.8554 6.99045C87.9681 7.1542 88.0385 7.38689 88.0385 7.66554V10.1073C88.0385 10.317 88.061 10.5268 88.0835 10.7106C88.1061 10.8973 88.1737 11.0582 88.2441 11.153H86.9683C86.9233 11.107 86.9008 11.0122 86.8782 10.9433C86.8557 10.8744 86.8557 10.7796 86.8557 10.7106C86.6501 10.9203 86.422 11.0582 86.1488 11.153C85.8757 11.2449 85.6025 11.2679 85.3293 11.2679C85.1012 11.2679 84.9182 11.2449 84.7154 11.176C84.5324 11.13 84.3747 11.0352 84.2141 10.9203C84.0762 10.8054 83.9635 10.6646 83.8734 10.4779C83.8058 10.2912 83.7607 10.1073 83.7607 9.85167C83.7607 9.596 83.8058 9.36331 83.8987 9.19956C83.9889 9.03582 84.1043 8.89793 84.2395 8.78015C84.3775 8.68822 84.5577 8.59342 84.7408 8.54746C84.9238 8.5015 85.104 8.45553 85.3096 8.43255C85.4927 8.40957 85.6729 8.38659 85.856 8.36361C86.039 8.34062 86.1967 8.31764 86.3347 8.29466C86.4727 8.2487 86.5853 8.20273 86.6755 8.13092C86.7656 8.06197 86.7881 7.96717 86.7881 7.82928C86.7881 7.68852 86.7656 7.57361 86.7205 7.50467C86.6755 7.43572 86.6079 7.3639 86.5375 7.31794C86.4699 7.27198 86.377 7.249 86.2868 7.22601C86.1967 7.20303 86.0813 7.20303 85.9686 7.20303C85.718 7.20303 85.5349 7.249 85.3997 7.36678C85.2618 7.48168 85.1716 7.66841 85.1491 7.9011H83.8959C83.8875 7.61383 83.9776 7.35816 84.0931 7.1743ZM86.5769 8.98698C86.5093 9.00997 86.4164 9.03295 86.3263 9.05593C86.2361 9.07891 86.1432 9.07891 86.0306 9.10189C85.9405 9.12487 85.825 9.12487 85.7349 9.14786C85.6448 9.17084 85.5518 9.19382 85.4617 9.2168C85.3716 9.23978 85.2787 9.28575 85.2336 9.33171C85.166 9.37767 85.1209 9.44662 85.0731 9.51844C85.0055 9.61036 85.0055 9.70516 85.0055 9.82007C85.0055 9.93498 85.028 10.0298 85.0731 10.0987C85.1181 10.1677 85.1632 10.2395 85.2336 10.2854C85.3012 10.3314 85.3941 10.3544 85.4842 10.3774C85.5743 10.4004 85.6673 10.4004 85.7799 10.4004C86.0306 10.4004 86.2136 10.3544 86.3488 10.2854C86.4868 10.1935 86.5769 10.0987 86.6445 9.98381C86.7121 9.86891 86.7571 9.75112 86.7571 9.63622C86.7797 9.52131 86.7797 9.42651 86.7797 9.35756V8.8692C86.7121 8.91517 86.6445 8.964 86.5769 8.98698Z" fill="#C5C5CB"/>
<path d="M89.9218 6.47624V7.12834H89.9444C90.1049 6.84969 90.3077 6.66296 90.5583 6.54805C90.8089 6.43315 91.0821 6.36133 91.3327 6.36133C91.6735 6.36133 91.9467 6.40729 92.1522 6.50209C92.3803 6.59402 92.5409 6.73478 92.6535 6.89852C92.7662 7.06227 92.8591 7.2691 92.9267 7.50179C92.9717 7.73448 92.9943 7.99015 92.9943 8.29179V11.1501H91.7411V8.52448C91.7411 8.12804 91.6735 7.84939 91.558 7.66554C91.4454 7.47881 91.2398 7.3639 90.9188 7.3639C90.578 7.3639 90.3274 7.50467 90.1668 7.7115C90.0063 7.92121 89.9387 8.26881 89.9387 8.73419V11.176H88.6855V6.47624C88.6912 6.47624 89.9218 6.47624 89.9218 6.47624Z" fill="#C5C5CB"/>
<path d="M95.8008 7.31214C95.5952 7.31214 95.4375 7.3581 95.2995 7.4529C95.1615 7.54483 95.0488 7.66261 94.9587 7.82348C94.8686 7.96424 94.8207 8.12511 94.7757 8.31184C94.7306 8.49857 94.7306 8.65944 94.7306 8.84616C94.7306 9.00991 94.7531 9.19376 94.7757 9.35751C94.8207 9.54423 94.8658 9.68212 94.9587 9.82289C95.0488 9.96365 95.1418 10.0786 95.277 10.1705C95.4149 10.2624 95.5726 10.3112 95.7782 10.3112C96.0739 10.3112 96.302 10.2193 96.4851 10.0556C96.6456 9.89183 96.7582 9.65914 96.7808 9.35751H97.9889C97.8988 9.98376 97.6707 10.4491 97.2821 10.7766C96.8934 11.1012 96.3921 11.265 95.7782 11.265C95.4375 11.265 95.1164 11.196 94.8433 11.0783C94.5476 10.9634 94.3195 10.7996 94.1139 10.5899C93.9083 10.3802 93.7506 10.1245 93.6351 9.84587C93.5225 9.54423 93.4746 9.2426 93.4746 8.89213C93.4746 8.52155 93.5197 8.19406 93.6351 7.89243C93.7478 7.59079 93.8858 7.31214 94.0913 7.07945C94.2969 6.84676 94.5476 6.68301 94.8207 6.54512C95.1164 6.43022 95.4347 6.3584 95.8008 6.3584C96.0739 6.3584 96.3246 6.40436 96.5752 6.47331C96.8258 6.54225 97.0539 6.66003 97.237 6.79792C97.4426 6.93869 97.6003 7.12254 97.7157 7.35523C97.8284 7.56494 97.8988 7.84359 97.9213 8.14522H96.6907C96.6428 7.59079 96.3471 7.31214 95.8008 7.31214Z" fill="#C5C5CB"/>
<path d="M99.8803 10.0325C100.063 10.2193 100.359 10.3112 100.7 10.3112C100.95 10.3112 101.179 10.2422 101.362 10.1245C101.545 9.9837 101.657 9.84581 101.702 9.70505H102.795C102.612 10.2624 102.339 10.6588 101.976 10.9145C101.612 11.1471 101.179 11.285 100.655 11.285C100.291 11.285 99.9704 11.2161 99.6747 11.0983C99.379 10.9834 99.1509 10.8197 98.9454 10.587C98.7398 10.3773 98.5821 10.1216 98.4891 9.81996C98.3765 9.51832 98.3286 9.19371 98.3286 8.82025C98.3286 8.47266 98.3737 8.14517 98.4891 7.84353C98.6018 7.5419 98.7623 7.28623 98.9679 7.05354C99.1735 6.84383 99.4241 6.6571 99.6973 6.54219C99.993 6.42729 100.311 6.35547 100.655 6.35547C101.043 6.35547 101.384 6.42441 101.657 6.58816C101.953 6.7519 102.181 6.93576 102.364 7.21441C102.547 7.47008 102.682 7.77171 102.775 8.09633C102.865 8.42095 102.888 8.77142 102.865 9.142H99.5621C99.5621 9.49821 99.6973 9.84581 99.8803 10.0325ZM101.339 7.59073C101.179 7.42699 100.928 7.33506 100.632 7.33506C100.427 7.33506 100.269 7.38103 100.131 7.44997C99.993 7.51892 99.8803 7.61372 99.8127 7.70564C99.7451 7.79757 99.6747 7.91535 99.6522 8.03026C99.6297 8.14517 99.6071 8.23997 99.6071 8.33189H101.657C101.59 7.98717 101.474 7.75448 101.339 7.59073Z" fill="#C5C5CB"/>
</g>
<defs>
<clipPath id="clip0_4310_61733">
<rect width="34.7345" height="6.5785" fill="white" transform="translate(68.1396 4.70996)"/>
</clipPath>
</defs>
</svg>
