<svg width="198" height="76" viewBox="0 0 198 76" fill="none" xmlns="http://www.w3.org/2000/svg">
<path d="M61.6914 37.6445V26.1161H63.4308V31.126H69.1781V26.1161H70.9232V37.6445H69.1781V32.6177H63.4308V37.6445H61.6914ZM76.3291 37.819C75.5185 37.819 74.8111 37.6333 74.207 37.2618C73.6028 36.8902 73.1337 36.3705 72.7997 35.7025C72.4657 35.0345 72.2987 34.2539 72.2987 33.3608C72.2987 32.4639 72.4657 31.6795 72.7997 31.0078C73.1337 30.3361 73.6028 29.8144 74.207 29.4429C74.8111 29.0714 75.5185 28.8856 76.3291 28.8856C77.1397 28.8856 77.8471 29.0714 78.4513 29.4429C79.0555 29.8144 79.5246 30.3361 79.8586 31.0078C80.1926 31.6795 80.3596 32.4639 80.3596 33.3608C80.3596 34.2539 80.1926 35.0345 79.8586 35.7025C79.5246 36.3705 79.0555 36.8902 78.4513 37.2618C77.8471 37.6333 77.1397 37.819 76.3291 37.819ZM76.3348 36.4061C76.8601 36.4061 77.2955 36.2673 77.6407 35.9896C77.986 35.7119 78.2412 35.3422 78.4063 34.8806C78.5751 34.419 78.6596 33.9106 78.6596 33.3551C78.6596 32.8035 78.5751 32.2969 78.4063 31.8353C78.2412 31.3699 77.986 30.9965 77.6407 30.7151C77.2955 30.4336 76.8601 30.2929 76.3348 30.2929C75.8056 30.2929 75.3666 30.4336 75.0175 30.7151C74.6723 30.9965 74.4152 31.3699 74.2464 31.8353C74.0812 32.2969 73.9987 32.8035 73.9987 33.3551C73.9987 33.9106 74.0812 34.419 74.2464 34.8806C74.4152 35.3422 74.6723 35.7119 75.0175 35.9896C75.3666 36.2673 75.8056 36.4061 76.3348 36.4061ZM83.2873 32.5108V37.6445H81.6042V28.9982H83.2198V30.4055H83.3267C83.5256 29.9477 83.8371 29.5799 84.2612 29.3022C84.689 29.0245 85.2275 28.8856 85.8767 28.8856C86.4659 28.8856 86.9819 29.0095 87.4247 29.2572C87.8676 29.5011 88.2109 29.8651 88.4549 30.3492C88.6988 30.8333 88.8208 31.4319 88.8208 32.1449V37.6445H87.1376V32.3475C87.1376 31.7208 86.9744 31.2311 86.6479 30.8783C86.3214 30.5218 85.873 30.3436 85.3026 30.3436C84.9123 30.3436 84.5651 30.428 84.2612 30.5969C83.961 30.7658 83.7227 31.0134 83.5463 31.3399C83.3736 31.6627 83.2873 32.0529 83.2873 32.5108ZM94.086 37.819C93.2754 37.819 92.568 37.6333 91.9638 37.2618C91.3596 36.8902 90.8905 36.3705 90.5565 35.7025C90.2226 35.0345 90.0556 34.2539 90.0556 33.3608C90.0556 32.4639 90.2226 31.6795 90.5565 31.0078C90.8905 30.3361 91.3596 29.8144 91.9638 29.4429C92.568 29.0714 93.2754 28.8856 94.086 28.8856C94.8966 28.8856 95.604 29.0714 96.2082 29.4429C96.8124 29.8144 97.2815 30.3361 97.6155 31.0078C97.9494 31.6795 98.1164 32.4639 98.1164 33.3608C98.1164 34.2539 97.9494 35.0345 97.6155 35.7025C97.2815 36.3705 96.8124 36.8902 96.2082 37.2618C95.604 37.6333 94.8966 37.819 94.086 37.819ZM94.0916 36.4061C94.617 36.4061 95.0523 36.2673 95.3976 35.9896C95.7428 35.7119 95.998 35.3422 96.1631 34.8806C96.332 34.419 96.4165 33.9106 96.4165 33.3551C96.4165 32.8035 96.332 32.2969 96.1631 31.8353C95.998 31.3699 95.7428 30.9965 95.3976 30.7151C95.0523 30.4336 94.617 30.2929 94.0916 30.2929C93.5625 30.2929 93.1234 30.4336 92.7744 30.7151C92.4292 30.9965 92.1721 31.3699 92.0032 31.8353C91.8381 32.2969 91.7555 32.8035 91.7555 33.3551C91.7555 33.9106 91.8381 34.419 92.0032 34.8806C92.1721 35.3422 92.4292 35.7119 92.7744 35.9896C93.1234 36.2673 93.5625 36.4061 94.0916 36.4061ZM99.3611 37.6445V28.9982H100.988V30.3717H101.078C101.236 29.9064 101.513 29.5405 101.911 29.274C102.313 29.0038 102.767 28.8687 103.273 28.8687C103.378 28.8687 103.502 28.8725 103.645 28.88C103.791 28.8875 103.906 28.8969 103.988 28.9081V30.5181C103.921 30.4993 103.801 30.4787 103.628 30.4562C103.455 30.4299 103.283 30.4167 103.11 30.4167C102.712 30.4167 102.358 30.5012 102.046 30.6701C101.738 30.8352 101.495 31.066 101.314 31.3624C101.134 31.6552 101.044 31.9891 101.044 32.3644V37.6445H99.3611ZM107.25 37.8359C106.702 37.8359 106.206 37.7346 105.763 37.5319C105.321 37.3255 104.97 37.0272 104.711 36.6369C104.456 36.2466 104.328 35.7682 104.328 35.2015C104.328 34.7136 104.422 34.3121 104.609 33.9969C104.797 33.6816 105.05 33.4321 105.369 33.2482C105.688 33.0643 106.045 32.9255 106.439 32.8316C106.833 32.7378 107.234 32.6665 107.644 32.6177C108.161 32.5577 108.582 32.5089 108.904 32.4714C109.227 32.4301 109.462 32.3644 109.608 32.2744C109.754 32.1843 109.828 32.0379 109.828 31.8353V31.7959C109.828 31.3043 109.689 30.9234 109.411 30.6532C109.137 30.383 108.728 30.2479 108.184 30.2479C107.617 30.2479 107.171 30.3736 106.844 30.625C106.521 30.8727 106.298 31.1485 106.174 31.4525L104.593 31.0922C104.78 30.5669 105.054 30.1428 105.414 29.8201C105.778 29.4936 106.197 29.2572 106.67 29.1108C107.143 28.9607 107.64 28.8856 108.161 28.8856C108.507 28.8856 108.873 28.9269 109.259 29.0095C109.649 29.0883 110.013 29.2346 110.351 29.4485C110.693 29.6624 110.972 29.9683 111.19 30.3661C111.408 30.7601 111.516 31.2724 111.516 31.9028V37.6445H109.873V36.4624H109.805C109.696 36.6801 109.533 36.894 109.315 37.1041C109.098 37.3143 108.818 37.4888 108.477 37.6276C108.135 37.7665 107.726 37.8359 107.25 37.8359ZM107.615 36.4849C108.081 36.4849 108.479 36.393 108.809 36.2091C109.143 36.0252 109.396 35.785 109.569 35.4886C109.745 35.1884 109.833 34.8675 109.833 34.526V33.4114C109.773 33.4715 109.657 33.5278 109.484 33.5803C109.315 33.6291 109.122 33.6723 108.904 33.7098C108.687 33.7436 108.475 33.7755 108.268 33.8055C108.062 33.8317 107.889 33.8543 107.751 33.873C107.424 33.9143 107.126 33.9837 106.855 34.0813C106.589 34.1789 106.375 34.3196 106.214 34.5035C106.056 34.6836 105.977 34.9238 105.977 35.224C105.977 35.6406 106.131 35.9558 106.439 36.1697C106.747 36.3799 107.139 36.4849 107.615 36.4849ZM113.259 37.6445V26.1161H114.942V30.3999H115.044C115.141 30.2197 115.282 30.0115 115.466 29.775C115.65 29.5386 115.905 29.3322 116.231 29.1558C116.558 28.9757 116.989 28.8856 117.526 28.8856C118.224 28.8856 118.847 29.062 119.395 29.4148C119.943 29.7675 120.373 30.276 120.684 30.9403C120.999 31.6045 121.157 32.4038 121.157 33.3383C121.157 34.2727 121.001 35.0739 120.69 35.7419C120.378 36.4061 119.95 36.9184 119.406 37.2786C118.862 37.6351 118.241 37.8134 117.543 37.8134C117.018 37.8134 116.588 37.7252 116.254 37.5488C115.924 37.3725 115.665 37.1661 115.477 36.9296C115.289 36.6932 115.145 36.4831 115.044 36.2992H114.903V37.6445H113.259ZM114.909 33.3214C114.909 33.9293 114.997 34.4622 115.173 34.92C115.349 35.3779 115.605 35.7363 115.939 35.9952C116.273 36.2504 116.682 36.378 117.166 36.378C117.669 36.378 118.089 36.2448 118.427 35.9783C118.764 35.7081 119.02 35.3422 119.192 34.8806C119.369 34.419 119.457 33.8993 119.457 33.3214C119.457 32.751 119.371 32.2387 119.198 31.7846C119.029 31.3305 118.774 30.9722 118.432 30.7095C118.095 30.4468 117.672 30.3154 117.166 30.3154C116.678 30.3154 116.265 30.4411 115.927 30.6926C115.593 30.944 115.34 31.2949 115.167 31.7452C114.995 32.1955 114.909 32.7209 114.909 33.3214ZM124.096 26.1161V37.6445H122.413V26.1161H124.096ZM129.453 37.819C128.601 37.819 127.867 37.637 127.252 37.273C126.64 36.9052 126.167 36.3892 125.833 35.725C125.503 35.057 125.338 34.2746 125.338 33.3777C125.338 32.492 125.503 31.7114 125.833 31.036C126.167 30.3605 126.632 29.8332 127.229 29.4542C127.83 29.0751 128.531 28.8856 129.334 28.8856C129.822 28.8856 130.295 28.9663 130.753 29.1277C131.211 29.2891 131.622 29.5424 131.986 29.8876C132.35 30.2329 132.637 30.6813 132.847 31.233C133.057 31.7809 133.162 32.447 133.162 33.2313V33.828H126.289V32.5671H131.513C131.513 32.1242 131.423 31.7321 131.243 31.3906C131.063 31.0453 130.809 30.7733 130.483 30.5744C130.16 30.3755 129.781 30.276 129.346 30.276C128.873 30.276 128.46 30.3924 128.107 30.625C127.758 30.8539 127.488 31.1542 127.297 31.5257C127.109 31.8935 127.015 32.2931 127.015 32.7247V33.7098C127.015 34.2877 127.117 34.7793 127.319 35.1846C127.526 35.5899 127.813 35.8995 128.18 36.1134C128.548 36.3236 128.978 36.4286 129.469 36.4286C129.788 36.4286 130.079 36.3836 130.342 36.2935C130.605 36.1997 130.832 36.0609 131.023 35.877C131.215 35.6931 131.361 35.4661 131.462 35.1959L133.055 35.483C132.928 35.952 132.699 36.363 132.368 36.7157C132.042 37.0647 131.631 37.3368 131.136 37.5319C130.644 37.7233 130.083 37.819 129.453 37.819ZM71.1739 44.1161H73.2848L76.955 53.0777H77.0901L80.7603 44.1161H82.8712V55.6445H81.2162V47.3022H81.1093L77.7093 55.6276H76.3358L72.9358 47.2966H72.8288V55.6445H71.1739V44.1161ZM88.3574 55.819C87.5055 55.819 86.7718 55.637 86.1564 55.273C85.5447 54.9052 85.0718 54.3892 84.7378 53.725C84.4076 53.057 84.2425 52.2746 84.2425 51.3777C84.2425 50.492 84.4076 49.7114 84.7378 49.036C85.0718 48.3605 85.5372 47.8332 86.1339 47.4542C86.7343 47.0751 87.4361 46.8856 88.2391 46.8856C88.727 46.8856 89.1999 46.9663 89.6577 47.1277C90.1155 47.2891 90.5264 47.5424 90.8905 47.8876C91.2545 48.2329 91.5416 48.6813 91.7517 49.233C91.9619 49.7809 92.0669 50.447 92.0669 51.2313V51.828H85.1938V50.5671H90.4176C90.4176 50.1242 90.3275 49.7321 90.1474 49.3906C89.9673 49.0453 89.714 48.7733 89.3875 48.5744C89.0648 48.3755 88.6857 48.276 88.2504 48.276C87.7776 48.276 87.3648 48.3924 87.012 48.625C86.663 48.8539 86.3928 49.1542 86.2014 49.5257C86.0138 49.8935 85.92 50.2931 85.92 50.7247V51.7098C85.92 52.2877 86.0213 52.7793 86.2239 53.1846C86.4303 53.5899 86.7174 53.8995 87.0852 54.1134C87.4529 54.3236 87.8826 54.4286 88.3742 54.4286C88.6932 54.4286 88.9841 54.3836 89.2468 54.2935C89.5095 54.1997 89.7365 54.0609 89.9279 53.877C90.1193 53.6931 90.2656 53.4661 90.367 53.1959L91.96 53.483C91.8324 53.952 91.6035 54.363 91.2732 54.7157C90.9468 55.0647 90.5358 55.3368 90.0405 55.5319C89.5489 55.7233 88.9878 55.819 88.3574 55.819ZM94.9834 50.5108V55.6445H93.3003V46.9982H94.9159V48.4055H95.0229C95.2217 47.9477 95.5332 47.5799 95.9573 47.3022C96.3851 47.0245 96.9236 46.8856 97.5728 46.8856C98.162 46.8856 98.678 47.0095 99.1208 47.2572C99.5637 47.5011 99.907 47.8651 100.151 48.3492C100.395 48.8333 100.517 49.4319 100.517 50.1449V55.6445H98.8338V50.3475C98.8338 49.7208 98.6705 49.2311 98.344 48.8783C98.0175 48.5218 97.5691 48.3436 96.9987 48.3436C96.6084 48.3436 96.2613 48.428 95.9573 48.5969C95.6571 48.7658 95.4188 49.0134 95.2424 49.3399C95.0698 49.6627 94.9834 50.0529 94.9834 50.5108ZM106.176 46.9982V48.3492H101.453V46.9982H106.176ZM102.72 44.9267H104.403V53.1058C104.403 53.4323 104.452 53.6781 104.549 53.8432C104.647 54.0046 104.773 54.1153 104.926 54.1753C105.084 54.2316 105.255 54.2598 105.439 54.2598C105.574 54.2598 105.692 54.2504 105.793 54.2316C105.895 54.2129 105.974 54.1978 106.03 54.1866L106.334 55.577C106.236 55.6145 106.097 55.652 105.917 55.6896C105.737 55.7308 105.512 55.7534 105.242 55.7571C104.799 55.7646 104.386 55.6858 104.003 55.5207C103.621 55.3556 103.311 55.1004 103.075 54.7551C102.838 54.4099 102.72 53.9764 102.72 53.4548V44.9267ZM107.404 55.6445V46.9982H109.087V55.6445H107.404ZM108.254 45.6641C107.961 45.6641 107.71 45.5665 107.5 45.3714C107.293 45.1725 107.19 44.9361 107.19 44.6621C107.19 44.3844 107.293 44.148 107.5 43.9529C107.71 43.754 107.961 43.6545 108.254 43.6545C108.547 43.6545 108.796 43.754 109.003 43.9529C109.213 44.148 109.318 44.3844 109.318 44.6621C109.318 44.9361 109.213 45.1725 109.003 45.3714C108.796 45.5665 108.547 45.6641 108.254 45.6641ZM114.359 55.819C113.549 55.819 112.841 55.6333 112.237 55.2618C111.633 54.8902 111.164 54.3705 110.83 53.7025C110.496 53.0345 110.329 52.2539 110.329 51.3608C110.329 50.4639 110.496 49.6795 110.83 49.0078C111.164 48.3361 111.633 47.8144 112.237 47.4429C112.841 47.0714 113.549 46.8856 114.359 46.8856C115.17 46.8856 115.877 47.0714 116.481 47.4429C117.086 47.8144 117.555 48.3361 117.889 49.0078C118.223 49.6795 118.39 50.4639 118.39 51.3608C118.39 52.2539 118.223 53.0345 117.889 53.7025C117.555 54.3705 117.086 54.8902 116.481 55.2618C115.877 55.6333 115.17 55.819 114.359 55.819ZM114.365 54.4061C114.89 54.4061 115.326 54.2673 115.671 53.9896C116.016 53.7119 116.271 53.3422 116.436 52.8806C116.605 52.419 116.69 51.9106 116.69 51.3551C116.69 50.8035 116.605 50.2969 116.436 49.8353C116.271 49.3699 116.016 48.9965 115.671 48.7151C115.326 48.4336 114.89 48.2929 114.365 48.2929C113.836 48.2929 113.397 48.4336 113.048 48.7151C112.702 48.9965 112.445 49.3699 112.277 49.8353C112.111 50.2969 112.029 50.8035 112.029 51.3551C112.029 51.9106 112.111 52.419 112.277 52.8806C112.445 53.3422 112.702 53.7119 113.048 53.9896C113.397 54.2673 113.836 54.4061 114.365 54.4061ZM121.318 50.5108V55.6445H119.634V46.9982H121.25V48.4055H121.357C121.556 47.9477 121.867 47.5799 122.291 47.3022C122.719 47.0245 123.258 46.8856 123.907 46.8856C124.496 46.8856 125.012 47.0095 125.455 47.2572C125.898 47.5011 126.241 47.8651 126.485 48.3492C126.729 48.8333 126.851 49.4319 126.851 50.1449V55.6445H125.168V50.3475C125.168 49.7208 125.005 49.2311 124.678 48.8783C124.352 48.5218 123.903 48.3436 123.333 48.3436C122.942 48.3436 122.595 48.428 122.291 48.5969C121.991 48.7658 121.753 49.0134 121.576 49.3399C121.404 49.6627 121.318 50.0529 121.318 50.5108Z" fill="white"/>
<g clip-path="url(#clip0_5702_62748)">
<path d="M70.314 7.09583C70.5171 6.03974 71.4514 5.30859 72.7512 5.30859C74.2541 5.30859 75.432 5.9585 75.432 7.98945V11.767H74.1322L73.9697 10.9546C73.5229 11.5233 72.9136 11.8889 72.02 11.8889C70.9233 11.8889 70.0703 11.1984 70.0703 9.93916C70.0703 8.67997 71.2076 7.86759 72.7918 7.86759H73.8479V7.58326C73.8479 6.85212 73.3198 6.64902 72.7106 6.64902C72.2637 6.64902 71.8169 6.8115 71.6138 7.38017L70.314 7.09583ZM72.3856 10.5485C73.1167 10.5485 73.8479 10.061 73.8479 9.24864V9.12678H72.8324C72.1419 9.08616 71.7357 9.3705 71.7357 9.93916C71.7357 10.2235 71.9794 10.5485 72.3856 10.5485Z" fill="#FFF7F7"/>
<path d="M100.947 7.09583C101.15 6.03974 102.084 5.30859 103.384 5.30859C104.887 5.30859 106.065 5.9585 106.065 7.98945V11.767H104.765L104.603 10.9546C104.156 11.5233 103.546 11.8889 102.653 11.8889C101.556 11.8889 100.703 11.1984 100.703 9.93916C100.703 8.67997 101.84 7.86759 103.425 7.86759H104.481V7.58326C104.481 6.85212 103.953 6.64902 103.343 6.64902C102.897 6.64902 102.45 6.8115 102.247 7.38017L100.947 7.09583ZM103.018 10.5485C103.75 10.5485 104.481 10.061 104.481 9.24864V9.12678H103.425C102.734 9.12678 102.328 9.3705 102.328 9.93916C102.369 10.2235 102.612 10.5485 103.018 10.5485Z" fill="#FFF7F7"/>
<path d="M107.484 11.8076V5.38983H109.069V6.44593C109.515 5.67417 110.246 5.30859 110.937 5.30859C111.221 5.30859 111.465 5.34921 111.709 5.43045L111.424 6.89274C111.221 6.77088 111.018 6.68964 110.775 6.68964C109.84 6.68964 109.069 7.4614 109.069 9.49236V11.767L107.484 11.8076Z" fill="#FFF7F7"/>
<path d="M115.071 5.30979C115.721 5.30979 116.331 5.63475 116.615 6.00032V2.83203H118.199V11.8088H116.615V11.1589C116.412 11.4839 115.843 11.9307 115.071 11.9307C113.162 11.9307 112.188 10.5903 112.188 8.64055C112.188 6.69084 113.162 5.30979 115.071 5.30979ZM115.315 10.5496C116.128 10.5496 116.777 9.85913 116.777 8.59994C116.777 7.34075 116.128 6.65022 115.315 6.65022C114.503 6.65022 113.853 7.34075 113.853 8.59994C113.853 9.85913 114.503 10.5496 115.315 10.5496Z" fill="#FFF7F7"/>
<path d="M123.89 6.32718L122.956 7.18018C122.671 6.77399 122.225 6.61152 121.9 6.61152C121.575 6.61152 121.29 6.81461 121.29 7.13956C121.29 7.4239 121.534 7.62699 121.9 7.74885C122.793 8.0738 124.215 8.35814 124.215 9.69856C124.215 10.8765 123.321 11.8108 121.94 11.8108C120.6 11.8108 119.706 10.8765 119.422 10.1048L120.681 9.41423C120.925 10.0235 121.331 10.4703 121.981 10.4703C122.468 10.4703 122.793 10.2266 122.793 9.7798C122.793 9.25175 121.981 9.1299 121.209 8.80494C120.519 8.52061 119.909 8.0738 119.909 7.09894C119.909 6.12409 120.722 5.23047 121.94 5.23047C122.753 5.27109 123.524 5.7179 123.89 6.32718Z" fill="#FFF7F7"/>
<path d="M91.146 5.39062L90.0086 9.8181L88.9119 5.39062H87.4496L86.3935 9.8181L85.4999 7.2591L85.3781 7.54343L84.8906 9.20882L85.703 11.8084H87.0841L88.1808 7.66529L89.2775 11.8084H90.6991L92.7301 5.39062H91.146Z" fill="#FFF7F7"/>
<path d="M98.7491 5.39062L97.6117 9.8181L96.515 5.39062H95.0527L93.9967 9.8181L93.103 7.2591L92.9812 7.54343L92.4531 9.20882L93.3061 11.8084H94.6872L95.7839 7.66529L96.8806 11.8084H98.2617L100.333 5.39062H98.7491Z" fill="#FFF7F7"/>
<path d="M85.1424 5.39062L83.1115 11.7678H81.7304L80.6337 7.66529L79.537 11.8084H78.156L76.125 5.43124H77.7091L78.8465 9.8181L79.9432 5.43124H81.4055L82.5022 9.8181L83.6395 5.43124L85.1424 5.39062Z" fill="#FFF7F7"/>
<path d="M126.29 9.73828C126.9 9.73828 127.347 10.1851 127.347 10.7944C127.347 11.4037 126.9 11.8505 126.29 11.8505C125.681 11.8505 125.234 11.4037 125.234 10.7944C125.234 10.1851 125.681 9.73828 126.29 9.73828Z" fill="#FFF7F7"/>
</g>
<path d="M68.6715 72.4062H67.7483L69.8226 66.642H70.8274L72.9017 72.4062H71.9786L70.3489 67.6891H70.3039L68.6715 72.4062ZM68.8263 70.149H71.8209V70.8808H68.8263V70.149ZM73.8243 72.4062L72.5521 68.0831H73.4218L74.269 71.2579H74.3112L75.1612 68.0831H76.0309L76.8752 71.2438H76.9175L77.759 68.0831H78.6287L77.3593 72.4062H76.5009L75.6228 69.2849H75.558L74.6799 72.4062H73.8243ZM80.1268 72.4062L78.8546 68.0831H79.7243L80.5715 71.2579H80.6137L81.4637 68.0831H82.3334L83.1778 71.2438H83.22L84.0616 68.0831H84.9313L83.6619 72.4062H82.8035L81.9253 69.2849H81.8606L80.9824 72.4062H80.1268ZM86.4294 72.4062L85.1572 68.0831H86.0269L86.8741 71.2579H86.9163L87.7663 68.0831H88.636L89.4803 71.2438H89.5226L90.3641 68.0831H91.2338L89.9644 72.4062H89.106L88.2279 69.2849H88.1631L87.285 72.4062H86.4294ZM93.0528 72.5019C92.7788 72.5019 92.5311 72.4513 92.3097 72.35C92.0883 72.2468 91.9129 72.0976 91.7834 71.9024C91.6558 71.7073 91.592 71.4681 91.592 71.1847C91.592 70.9408 91.6389 70.74 91.7327 70.5824C91.8266 70.4248 91.9532 70.3 92.1127 70.2081C92.2722 70.1161 92.4505 70.0467 92.6475 69.9998C92.8445 69.9529 93.0453 69.9172 93.2498 69.8929C93.5087 69.8628 93.7189 69.8384 93.8803 69.8197C94.0416 69.799 94.1589 69.7662 94.2321 69.7212C94.3052 69.6761 94.3418 69.603 94.3418 69.5016V69.4819C94.3418 69.2361 94.2724 69.0457 94.1336 68.9106C93.9966 68.7755 93.7921 68.7079 93.52 68.7079C93.2367 68.7079 93.0134 68.7708 92.8501 68.8965C92.6888 69.0203 92.5771 69.1583 92.5152 69.3102L91.7243 69.1301C91.8181 68.8674 91.9551 68.6554 92.1352 68.494C92.3172 68.3308 92.5264 68.2126 92.7629 68.1394C92.9993 68.0643 93.2479 68.0268 93.5087 68.0268C93.6814 68.0268 93.8643 68.0474 94.0576 68.0887C94.2527 68.1281 94.4347 68.2013 94.6036 68.3083C94.7743 68.4152 94.9141 68.5681 95.023 68.767C95.1318 68.964 95.1862 69.2202 95.1862 69.5354V72.4062H94.3644V71.8152H94.3306C94.2762 71.924 94.1945 72.031 94.0857 72.1361C93.9769 72.2411 93.8371 72.3284 93.6663 72.3978C93.4956 72.4672 93.2911 72.5019 93.0528 72.5019ZM93.2357 71.8265C93.4684 71.8265 93.6673 71.7805 93.8324 71.6885C93.9994 71.5966 94.1261 71.4765 94.2124 71.3283C94.3006 71.1782 94.3447 71.0177 94.3447 70.847V70.2897C94.3146 70.3197 94.2565 70.3479 94.1702 70.3741C94.0857 70.3985 93.9891 70.4201 93.8803 70.4389C93.7714 70.4558 93.6654 70.4717 93.5622 70.4867C93.459 70.4999 93.3727 70.5111 93.3033 70.5205C93.14 70.5411 92.9909 70.5759 92.8558 70.6246C92.7225 70.6734 92.6156 70.7438 92.5349 70.8357C92.4561 70.9258 92.4167 71.0459 92.4167 71.196C92.4167 71.4043 92.4936 71.5619 92.6475 71.6688C92.8013 71.7739 92.9974 71.8265 93.2357 71.8265ZM96.0693 72.4062V68.0831H96.8827V68.7698H96.9278C97.0066 68.5372 97.1454 68.3542 97.3443 68.221C97.5451 68.0859 97.7721 68.0184 98.0254 68.0184C98.078 68.0184 98.1399 68.0202 98.2112 68.024C98.2844 68.0277 98.3416 68.0324 98.3829 68.0381V68.843C98.3491 68.8336 98.2891 68.8233 98.2028 68.8121C98.1164 68.7989 98.0301 68.7924 97.9438 68.7924C97.7449 68.7924 97.5676 68.8346 97.4119 68.919C97.258 69.0016 97.136 69.117 97.046 69.2652C96.9559 69.4116 96.9109 69.5786 96.9109 69.7662V72.4062H96.0693ZM100.337 72.4907C99.988 72.4907 99.6765 72.4016 99.4025 72.2233C99.1304 72.0432 98.9165 71.787 98.7608 71.4549C98.6069 71.1209 98.53 70.7203 98.53 70.2531C98.53 69.7859 98.6079 69.3862 98.7636 69.0541C98.9212 68.722 99.137 68.4677 99.411 68.2914C99.6849 68.115 99.9955 68.0268 100.343 68.0268C100.611 68.0268 100.827 68.0718 100.99 68.1619C101.155 68.2501 101.283 68.3533 101.373 68.4715C101.465 68.5897 101.536 68.6938 101.587 68.7839H101.637V66.642H102.479V72.4062H101.657V71.7336H101.587C101.536 71.8255 101.463 71.9306 101.367 72.0488C101.273 72.167 101.144 72.2702 100.979 72.3584C100.814 72.4466 100.6 72.4907 100.337 72.4907ZM100.523 71.773C100.765 71.773 100.969 71.7092 101.136 71.5816C101.305 71.4521 101.433 71.2729 101.519 71.044C101.607 70.8151 101.651 70.5486 101.651 70.2447C101.651 69.9445 101.608 69.6818 101.522 69.4566C101.436 69.2314 101.309 69.056 101.142 68.9303C100.975 68.8046 100.769 68.7417 100.523 68.7417C100.269 68.7417 100.058 68.8074 99.8894 68.9387C99.7206 69.0701 99.593 69.2493 99.5067 69.4763C99.4222 69.7033 99.38 69.9595 99.38 70.2447C99.38 70.5336 99.4232 70.7935 99.5095 71.0243C99.5958 71.2551 99.7234 71.438 99.8923 71.5731C100.063 71.7064 100.273 71.773 100.523 71.773ZM106.682 69.1385L105.919 69.2736C105.887 69.1761 105.836 69.0832 105.767 68.995C105.699 68.9068 105.608 68.8346 105.491 68.7783C105.375 68.722 105.229 68.6938 105.055 68.6938C104.817 68.6938 104.618 68.7473 104.458 68.8543C104.299 68.9594 104.219 69.0954 104.219 69.2624C104.219 69.4069 104.272 69.5232 104.379 69.6114C104.486 69.6996 104.659 69.7718 104.897 69.8281L105.584 69.9857C105.982 70.0777 106.278 70.2193 106.473 70.4107C106.669 70.6021 106.766 70.8507 106.766 71.1566C106.766 71.4155 106.691 71.6463 106.541 71.849C106.393 72.0497 106.185 72.2074 105.919 72.3218C105.654 72.4363 105.348 72.4935 104.999 72.4935C104.515 72.4935 104.12 72.3903 103.814 72.1839C103.508 71.9756 103.32 71.6801 103.251 71.2973L104.064 71.1735C104.115 71.3855 104.219 71.5459 104.377 71.6548C104.534 71.7617 104.74 71.8152 104.993 71.8152C105.269 71.8152 105.489 71.758 105.654 71.6435C105.82 71.5272 105.902 71.3855 105.902 71.2185C105.902 71.0834 105.851 70.9699 105.75 70.8779C105.651 70.786 105.498 70.7166 105.291 70.6697L104.56 70.5092C104.156 70.4173 103.858 70.2709 103.665 70.0702C103.473 69.8694 103.377 69.6151 103.377 69.3074C103.377 69.0522 103.449 68.8289 103.591 68.6376C103.734 68.4462 103.931 68.297 104.182 68.19C104.434 68.0812 104.722 68.0268 105.046 68.0268C105.514 68.0268 105.881 68.1281 106.15 68.3308C106.418 68.5315 106.595 68.8008 106.682 69.1385ZM108.549 71.6182L108.506 71.925C108.478 72.1501 108.43 72.3847 108.363 72.6286C108.297 72.8744 108.229 73.1024 108.157 73.3125C108.088 73.5227 108.031 73.6897 107.986 73.8135H107.389C107.413 73.6972 107.447 73.5396 107.49 73.3407C107.533 73.1437 107.576 72.9232 107.617 72.6793C107.658 72.4353 107.689 72.1867 107.71 71.9334L107.738 71.6182H108.549ZM111.255 72.4062V71.7758L113.205 69.7549C113.414 69.5354 113.585 69.3431 113.72 69.178C113.857 69.011 113.96 68.8524 114.027 68.7023C114.095 68.5522 114.129 68.3927 114.129 68.2238C114.129 68.0324 114.083 67.8673 113.993 67.7285C113.903 67.5877 113.78 67.4798 113.625 67.4048C113.469 67.3279 113.294 67.2894 113.098 67.2894C112.892 67.2894 112.712 67.3316 112.558 67.416C112.404 67.5005 112.286 67.6196 112.203 67.7735C112.121 67.9274 112.08 68.1075 112.08 68.3139H111.249C111.249 67.963 111.33 67.6562 111.491 67.3935C111.653 67.1308 111.874 66.9272 112.156 66.7828C112.437 66.6364 112.757 66.5632 113.115 66.5632C113.477 66.5632 113.796 66.6355 114.072 66.78C114.35 66.9226 114.567 67.1177 114.722 67.3654C114.878 67.6112 114.956 67.8889 114.956 68.1985C114.956 68.4124 114.916 68.6216 114.835 68.8261C114.756 69.0307 114.618 69.2586 114.421 69.5101C114.224 69.7596 113.95 70.0627 113.599 70.4192L112.454 71.6182V71.6604H115.049V72.4062H111.255ZM117.885 72.5019C117.44 72.5001 117.06 72.3828 116.745 72.1501C116.429 71.9175 116.188 71.5788 116.021 71.1341C115.854 70.6894 115.771 70.1537 115.771 69.527C115.771 68.9021 115.854 68.3683 116.021 67.9255C116.19 67.4827 116.432 67.1449 116.748 66.9122C117.065 66.6796 117.444 66.5632 117.885 66.5632C118.326 66.5632 118.704 66.6805 119.019 66.915C119.334 67.1477 119.575 67.4855 119.742 67.9283C119.911 68.3692 119.996 68.9021 119.996 69.527C119.996 70.1555 119.912 70.6922 119.745 71.1369C119.578 71.5797 119.337 71.9184 119.022 72.1529C118.706 72.3856 118.327 72.5019 117.885 72.5019ZM117.885 71.7505C118.275 71.7505 118.58 71.56 118.799 71.1791C119.021 70.7982 119.131 70.2475 119.131 69.527C119.131 69.0485 119.081 68.6441 118.979 68.3139C118.88 67.9818 118.736 67.7303 118.549 67.5596C118.363 67.387 118.142 67.3006 117.885 67.3006C117.496 67.3006 117.191 67.492 116.97 67.8748C116.748 68.2576 116.637 68.8083 116.635 69.527C116.635 70.0073 116.685 70.4135 116.784 70.7457C116.885 71.0759 117.029 71.3264 117.215 71.4971C117.4 71.666 117.624 71.7505 117.885 71.7505ZM120.756 72.4062V71.7758L122.707 69.7549C122.915 69.5354 123.087 69.3431 123.222 69.178C123.359 69.011 123.461 68.8524 123.529 68.7023C123.596 68.5522 123.63 68.3927 123.63 68.2238C123.63 68.0324 123.585 67.8673 123.495 67.7285C123.405 67.5877 123.282 67.4798 123.126 67.4048C122.97 67.3279 122.795 67.2894 122.6 67.2894C122.393 67.2894 122.213 67.3316 122.059 67.416C121.905 67.5005 121.787 67.6196 121.705 67.7735C121.622 67.9274 121.581 68.1075 121.581 68.3139H120.751C120.751 67.963 120.831 67.6562 120.993 67.3935C121.154 67.1308 121.375 66.9272 121.657 66.7828C121.938 66.6364 122.258 66.5632 122.617 66.5632C122.979 66.5632 123.298 66.6355 123.574 66.78C123.851 66.9226 124.068 67.1177 124.224 67.3654C124.379 67.6112 124.457 67.8889 124.457 68.1985C124.457 68.4124 124.417 68.6216 124.336 68.8261C124.258 69.0307 124.12 69.2586 123.923 69.5101C123.726 69.7596 123.452 70.0627 123.101 70.4192L121.955 71.6182V71.6604H124.55V72.4062H120.756ZM127.386 72.4851C126.999 72.4851 126.654 72.4184 126.35 72.2852C126.048 72.152 125.809 71.9672 125.632 71.7308C125.458 71.4925 125.364 71.2166 125.351 70.9033H126.235C126.246 71.074 126.303 71.2223 126.406 71.348C126.512 71.4718 126.649 71.5675 126.817 71.6351C126.986 71.7026 127.174 71.7364 127.38 71.7364C127.607 71.7364 127.808 71.697 127.983 71.6182C128.159 71.5394 128.297 71.4296 128.396 71.2889C128.496 71.1463 128.546 70.9821 128.546 70.7963C128.546 70.6031 128.496 70.4332 128.396 70.2869C128.299 70.1387 128.155 70.0223 127.966 69.9379C127.778 69.8534 127.551 69.8112 127.285 69.8112H126.798V69.102H127.285C127.499 69.102 127.686 69.0635 127.848 68.9866C128.011 68.9096 128.138 68.8027 128.23 68.6657C128.322 68.5269 128.368 68.3645 128.368 68.1788C128.368 68.0005 128.328 67.8457 128.247 67.7144C128.168 67.5812 128.056 67.477 127.909 67.402C127.765 67.3269 127.594 67.2894 127.397 67.2894C127.21 67.2894 127.034 67.3241 126.871 67.3935C126.71 67.4611 126.578 67.5586 126.477 67.6862C126.376 67.812 126.321 67.963 126.314 68.1394H125.472C125.481 67.8279 125.573 67.554 125.748 67.3175C125.924 67.0811 126.157 66.8963 126.446 66.7631C126.735 66.6298 127.056 66.5632 127.408 66.5632C127.778 66.5632 128.097 66.6355 128.365 66.78C128.636 66.9226 128.844 67.113 128.99 67.3513C129.138 67.5896 129.212 67.8504 129.21 68.1338C129.212 68.4565 129.122 68.7304 128.94 68.9556C128.759 69.1808 128.519 69.3318 128.219 69.4087V69.4538C128.602 69.5119 128.898 69.6639 129.108 69.9097C129.32 70.1555 129.426 70.4605 129.424 70.8245C129.426 71.1416 129.337 71.4258 129.159 71.6773C128.983 71.9287 128.742 72.1267 128.436 72.2712C128.13 72.4138 127.78 72.4851 127.386 72.4851Z" fill="#B4B5BB"/>
<path d="M30.5823 67.1414C30.1412 66.8017 29.7001 66.5469 29.2589 66.3771C28.8178 66.2072 28.3766 66.1223 27.8473 66.1223C26.8768 66.0374 25.818 66.2922 24.7593 66.462C23.7006 66.7168 22.7301 66.9715 22.0242 67.2263C21.3184 67.481 20.7891 67.6509 20.7891 67.6509C20.7891 67.6509 21.2302 67.9056 22.0242 68.2453C22.7301 68.585 23.7888 68.9247 24.9358 69.0945C26.0827 69.2643 27.2297 69.2643 28.2884 69.0096C29.4354 68.7548 30.3177 68.1604 30.5823 67.1414Z" fill="#FFCB6D"/>
<path d="M27.4972 62.8088C27.9383 63.658 28.4677 64.5072 29.2617 65.0167C29.6146 65.2715 30.0558 65.5262 30.4969 65.6111C30.938 65.696 31.4674 65.696 31.9086 65.4413C31.9086 64.4223 31.6439 63.5731 31.2027 62.8937C30.7616 62.2144 30.0558 61.535 29.4382 61.0255C28.7324 60.516 28.1148 60.0914 27.5854 59.7517C27.056 59.412 26.7031 59.2422 26.7031 59.2422C26.7031 59.2422 26.7031 59.3271 26.7031 59.5819C26.7031 59.7517 26.7914 60.0065 26.7914 60.3461C26.8796 61.0255 27.056 61.8747 27.4972 62.8088Z" fill="#FFCB6D"/>
<path d="M20.0794 65.1019C21.1381 65.017 22.0204 64.6773 22.638 63.8281C22.1086 62.9789 21.3145 62.4694 20.4323 62.2147C19.55 61.9599 18.403 61.875 17.3443 61.875C16.2856 61.875 15.2268 61.875 14.4328 61.875C13.6387 61.875 13.1094 61.875 13.1094 61.875C13.1094 61.875 13.1976 61.9599 13.374 62.1297C13.5505 62.2996 13.8152 62.5543 14.1681 62.8091C14.8739 63.3186 15.7562 63.9131 16.8149 64.4226C17.9619 64.8472 19.1089 65.1019 20.0794 65.1019Z" fill="#FFCB6D"/>
<path d="M22.0278 61.1952C22.6454 61.8746 23.4394 62.3841 24.4099 62.2991C24.8511 61.365 24.7629 60.4309 24.4982 59.5817C24.2335 58.7325 23.7041 57.9683 23.263 57.2889C22.7336 56.6096 22.2925 56.1 21.8513 55.6754C21.6749 55.5056 21.4984 55.3358 21.4102 55.1659C21.322 55.081 21.2337 54.9961 21.2337 54.9961C21.2337 54.9961 21.2337 55.081 21.1455 55.2509C21.0573 55.4207 21.0573 55.6754 20.9691 56.0151C20.8808 56.6945 20.7926 57.5437 20.9691 58.4778C21.1455 59.4968 21.4984 60.4309 22.0278 61.1952Z" fill="#FFCB6D"/>
<path d="M9.493 54.1483C8.78717 53.8935 8.25781 53.8086 8.25781 53.8086C8.25781 53.8086 8.34602 53.8935 8.43425 54.1483C8.52248 54.3181 8.69894 54.5729 8.87539 54.9125C9.05185 55.2522 9.31655 55.5919 9.58123 56.0165C9.75768 56.1863 9.84591 56.4411 10.0224 56.6109L10.1106 56.7808L10.287 56.9506C10.3753 57.0355 10.4635 57.2054 10.5517 57.2903C11.434 58.2244 12.4927 58.9887 13.4632 59.3283C14.522 59.668 15.4925 59.5831 16.3747 58.9037C16.1101 57.8847 15.5807 57.2054 14.7867 56.6958C14.6102 56.526 14.3455 56.4411 14.1691 56.2712C13.9926 56.1014 13.7279 56.0165 13.4632 55.8466C13.1986 55.6768 13.0221 55.5919 12.7574 55.4221C12.4927 55.3371 12.3163 55.1673 12.0516 55.0824C11.1693 54.6578 10.1988 54.3181 9.493 54.1483Z" fill="#FFCB6D"/>
<path d="M16.6452 55.8457C16.9099 56.6949 17.5275 57.3742 18.498 57.629C19.2038 56.8647 19.3803 55.9306 19.4685 55.1663C19.5567 54.3171 19.3803 53.5529 19.292 52.8735C19.292 52.6187 19.1156 52.1092 19.0273 51.7696C18.9391 51.4299 18.7627 51.0902 18.6744 50.7505C18.5862 50.4958 18.498 50.241 18.4098 50.0712C18.3215 49.9013 18.3215 49.8164 18.3215 49.8164C18.3215 49.8164 18.2333 49.9013 18.1451 50.0712C18.0568 50.241 17.8804 50.4958 17.7039 50.7505C17.351 51.345 16.9981 52.1941 16.7334 53.0433C16.6452 53.2981 16.6452 53.4679 16.557 53.7227C16.4688 53.9775 16.4688 54.1473 16.4688 54.4021C16.4688 54.6568 16.4688 54.8266 16.4688 55.0814C16.4688 55.4211 16.557 55.6758 16.6452 55.8457Z" fill="#FFCB6D"/>
<path d="M8.43912 50.6683C8.61557 50.8382 8.79203 51.008 8.96849 51.1779C9.14494 51.3477 9.40964 51.5175 9.58609 51.6025C10.4684 52.112 11.3506 52.3667 12.4094 52.0271C12.4976 51.5175 12.4976 51.0929 12.3211 50.6683C12.2329 50.4985 12.1447 50.2438 12.0565 50.0739C11.9682 49.9041 11.7918 49.7342 11.7036 49.4795C11.1742 48.7152 10.2919 48.1208 9.49786 47.5263C8.70381 46.9319 7.82152 46.4224 7.1157 46.0827C6.40988 45.743 5.96875 45.4883 5.96875 45.4883C5.96875 45.4883 5.96876 45.5732 6.05698 45.828C6.14521 46.0827 6.23343 46.3375 6.32166 46.6771C6.58634 47.3565 6.93924 48.3755 7.55684 49.2247C7.73329 49.8192 8.0862 50.2437 8.43912 50.6683Z" fill="#FFCB6D"/>
<path d="M13.9076 50.2428C14.084 50.6673 14.437 51.007 14.7899 51.2618C15.6721 50.7523 16.2015 49.988 16.5544 49.1388C16.6427 48.969 16.6426 48.7142 16.7309 48.5444C16.7309 48.4595 16.7309 48.2896 16.8191 48.2047C16.8191 48.1198 16.8191 47.9499 16.9073 47.865C16.9956 47.4404 16.9956 47.0158 16.9956 46.5912C16.9073 45.742 16.9073 44.9778 16.7309 44.3833C16.6426 44.1286 16.6427 43.8738 16.5544 43.704C16.5544 43.5341 16.4662 43.4492 16.4662 43.4492C16.4662 43.4492 16.378 43.5341 16.2015 43.704C16.0251 43.8738 15.8486 44.0437 15.6721 44.2984C15.231 44.8079 14.7016 45.5722 14.2605 46.4214C13.8194 47.2706 13.5547 48.2047 13.5547 49.1388C13.5547 49.3936 13.5547 49.5634 13.6429 49.8182C13.7311 49.9031 13.8194 50.0729 13.9076 50.2428Z" fill="#FFCB6D"/>
<path d="M6.5835 42.6008C6.67172 42.8555 6.84818 43.0254 7.02464 43.2801C7.20109 43.4499 7.37755 43.7047 7.55401 43.8745C8.25983 44.5539 9.14211 44.9785 10.2008 44.8087C10.3773 44.3841 10.4655 43.8745 10.3773 43.4499C10.3773 43.1952 10.2891 43.0254 10.2008 42.7706C10.1126 42.6008 10.0244 42.346 9.93617 42.1762C9.75971 41.7516 9.49503 41.327 9.14212 40.9873C8.96567 40.8175 8.78921 40.5627 8.70098 40.3929C8.52453 40.223 8.34807 40.0532 8.17161 39.7984C7.46579 39.0342 6.67172 38.3548 6.14236 37.8453C5.61299 37.3358 5.17188 36.9961 5.17188 36.9961C5.17188 36.9961 5.17188 37.5056 5.17188 38.2699C5.17188 38.6945 5.26009 39.1191 5.34831 39.5437C5.43654 39.7984 5.43655 40.0532 5.52478 40.3079C5.61301 40.5627 5.613 40.8175 5.78945 41.0722C6.14236 41.5817 6.40704 42.0912 6.5835 42.6008Z" fill="#FFCB6D"/>
<path d="M12.7628 44.2113C13.7333 43.8717 14.4391 43.1923 14.8803 42.513C14.9685 42.3431 15.0567 42.1733 15.145 41.9185C15.2332 41.7487 15.3214 41.4939 15.4096 41.3241C15.5861 40.8995 15.6743 40.4749 15.7626 40.1352C15.8508 39.7106 15.939 39.371 15.939 38.9464C15.939 38.7765 15.939 38.6067 16.0272 38.4368C16.0272 38.267 16.0272 38.0972 16.0272 38.0122C16.1155 37.4178 16.1155 37.0781 16.1155 37.0781C16.1155 37.0781 15.7625 37.248 15.145 37.6726C14.9685 37.7575 14.8803 37.8424 14.7038 38.0122C14.5274 38.0972 14.3509 38.267 14.2627 38.4368C13.9098 38.6916 13.6451 39.0313 13.2922 39.371C13.1157 39.5408 13.0275 39.7106 12.851 39.9654C12.7628 40.0503 12.6746 40.1352 12.6746 40.3051C12.5864 40.39 12.5863 40.4749 12.4981 40.6447C12.3217 41.0693 12.1452 41.4939 12.057 41.9185C12.057 42.1733 11.9688 42.3431 11.9688 42.5979C11.9688 42.8526 12.057 43.0225 12.057 43.1923C12.2334 43.4471 12.4099 43.8717 12.7628 44.2113Z" fill="#FFCB6D"/>
<path d="M9.05079 31.9007C8.7861 31.4761 8.5214 31.0515 8.34495 30.6269C8.08027 30.2023 7.81559 29.8626 7.63914 29.5229C7.198 28.9285 6.93333 28.5039 6.93333 28.5039C6.93333 28.5039 6.75685 29.0134 6.66863 29.7777C6.5804 30.1174 6.58042 30.6269 6.49219 31.0515C6.49219 31.3062 6.49219 31.561 6.49219 31.8157C6.49219 32.0705 6.49219 32.3253 6.49219 32.58C6.58042 33.0895 6.5804 33.5991 6.75686 34.1086C6.93332 34.6181 7.10978 35.1276 7.37446 35.4673C7.90383 36.3165 8.69786 36.9109 9.7566 36.9958C9.93305 36.826 10.0213 36.5712 10.1095 36.4014C10.1977 36.2316 10.286 35.9768 10.286 35.8069C10.3742 35.3824 10.286 34.9578 10.1977 34.5332C10.1095 34.1086 9.93305 33.5991 9.7566 33.1745C9.58014 32.8348 9.31547 32.3253 9.05079 31.9007Z" fill="#FFCB6D"/>
<path d="M14.792 35.8042C15.145 35.4645 15.4096 35.2098 15.5861 34.7852C15.8508 34.4455 16.0272 34.1058 16.2037 33.6812C16.2919 33.5114 16.3801 33.3416 16.4684 33.1717C16.5566 33.0019 16.6448 32.832 16.733 32.6622C16.9095 32.3225 16.9977 32.0678 17.086 31.7281C17.2624 31.2186 17.3506 30.8789 17.3506 30.8789C17.3506 30.8789 16.9095 30.9638 16.2919 31.2186C15.6743 31.4733 14.8803 31.813 14.0862 32.4074C13.9098 32.5773 13.7333 32.6622 13.5569 32.832C13.3804 33.0019 13.2039 33.1717 13.0275 33.3416C12.6746 33.6812 12.4099 34.1058 12.2334 34.4455C12.057 34.8701 11.9688 35.2947 11.9688 35.7193C11.9688 35.8891 11.9688 36.1439 12.057 36.3137C12.1452 36.4836 12.2334 36.7383 12.3217 36.9082C13.3804 36.8232 14.1745 36.3986 14.792 35.8042Z" fill="#FFCB6D"/>
<path d="M11.7015 29.1804C11.878 29.0106 11.9662 28.8408 12.0544 28.586C12.1427 28.4162 12.2309 28.1614 12.2309 27.9916C12.2309 27.8217 12.3191 27.567 12.3191 27.3122C12.3191 26.8876 12.3191 26.3781 12.2309 25.8686C12.1427 25.3591 12.0544 24.9345 11.9662 24.425C11.7015 23.4909 11.4368 22.5567 11.1721 21.8774C10.9075 21.198 10.731 20.7734 10.731 20.7734C10.731 20.7734 10.6428 20.8584 10.5545 21.0282C10.4663 21.198 10.2899 21.5377 10.1134 21.8774C9.76049 22.5567 9.40758 23.4909 9.23113 24.5099C9.1429 25.0194 9.05469 25.5289 9.05469 26.0384C9.05469 26.2932 9.05469 26.5479 9.14292 26.8027C9.14292 27.0575 9.23113 27.3122 9.31936 27.567C9.49582 27.9916 9.67229 28.4162 10.0252 28.8408C10.3781 29.1804 10.731 29.5201 11.2604 29.69C11.4368 29.605 11.6133 29.4352 11.7015 29.1804Z" fill="#FFCB6D"/>
<path d="M20.0813 25.5321C20.1695 25.3623 20.2577 25.2773 20.2577 25.2773C20.2577 25.2773 20.1695 25.2773 19.9048 25.2773C19.7283 25.2773 19.4637 25.2773 19.1108 25.3623C18.7578 25.3623 18.4049 25.4472 17.9638 25.5321C17.7874 25.617 17.5227 25.617 17.3462 25.7019C17.1697 25.7869 16.9051 25.8718 16.7286 25.9567C16.2875 26.1265 15.8463 26.2964 15.4052 26.5511C15.0523 26.8059 14.6994 27.1456 14.3465 27.4003C14.17 27.5702 14.0818 27.74 13.9936 27.9098C13.9053 28.0797 13.8171 28.3344 13.7289 28.5043C13.6406 28.6741 13.6406 28.9289 13.6406 29.0987C13.6406 29.3535 13.7289 29.5233 13.7289 29.7781C14.2582 29.863 14.6994 29.863 15.1405 29.7781C15.5816 29.6931 16.0228 29.5233 16.3757 29.2685C16.5521 29.1836 16.7286 29.0138 16.9051 28.9289C16.9933 28.844 17.0815 28.759 17.1697 28.759C17.258 28.6741 17.3462 28.5892 17.4344 28.5892C17.7873 28.3344 18.052 27.9948 18.3167 27.74C18.5814 27.4003 18.8461 27.1456 19.0225 26.8908C19.1108 26.8059 19.1108 26.721 19.199 26.6361C19.2872 26.5511 19.2872 26.4662 19.3754 26.4662C19.4637 26.2964 19.5519 26.2115 19.6401 26.1265C19.8166 25.8718 19.993 25.7019 20.0813 25.5321Z" fill="#FFCB6D"/>
<path d="M14.6056 22.9811C15.0468 22.7263 15.3997 22.4715 15.6644 22.1319C15.9291 21.7922 16.1055 21.3676 16.282 20.943C16.5466 20.0938 16.6349 19.0748 16.6349 18.1407C16.6349 17.8859 16.6349 17.6311 16.6349 17.3764C16.6349 17.1216 16.6349 16.8669 16.6349 16.697C16.6349 16.2724 16.5467 15.8478 16.5467 15.4232C16.4584 14.7439 16.3702 14.2344 16.3702 14.2344C16.3702 14.2344 16.282 14.3193 16.1055 14.4891C15.9291 14.659 15.7526 14.9137 15.4879 15.1685C15.2232 15.5082 14.9586 15.8478 14.7821 16.1875C14.5174 16.6121 14.2527 17.0367 14.0763 17.4613C13.8998 17.9708 13.7234 18.3954 13.5469 18.9049C13.4587 19.4144 13.3705 19.924 13.3705 20.3486C13.2822 21.4525 13.7234 22.3866 14.6056 22.9811Z" fill="#FFCB6D"/>
<path d="M22.0212 22.4715C22.3741 22.2167 22.727 21.962 22.9917 21.7072C23.2563 21.4525 23.521 21.2826 23.7857 21.0279C23.9622 20.858 24.1386 20.6882 24.3151 20.5183C24.4033 20.4334 24.4915 20.3485 24.4915 20.3485C24.4915 20.3485 24.0504 20.2636 23.3446 20.1787C22.9917 20.1787 22.6388 20.0938 22.1976 20.0938C21.7565 20.0938 21.3153 20.0938 20.786 20.1787C19.8155 20.3485 18.845 20.6033 18.1391 21.1128C17.7862 21.3675 17.5215 21.7072 17.2569 22.0469C17.0804 22.3866 16.9922 22.8112 16.9922 23.3207C17.9627 23.7453 18.9332 23.6604 19.7273 23.4905C20.1684 23.4056 20.5213 23.2358 20.9624 22.981C21.3153 22.8961 21.6682 22.7262 22.0212 22.4715Z" fill="#FFCB6D"/>
<path d="M29.6143 66.0371C26.2616 64.7634 22.909 63.2348 20.0857 61.0269C17.086 58.6492 14.9685 55.4222 13.4686 51.6858C11.6159 47.3549 10.2924 42.8542 10.4689 38.0987C10.6454 34.0226 11.7923 30.0314 13.5569 26.295C15.0567 23.3228 16.9095 20.3506 19.2034 17.7181C19.027 17.3784 19.027 16.9539 19.1152 16.6142C19.2034 16.1896 19.3799 15.765 19.6446 15.4253C20.1739 14.661 20.968 13.9817 21.8503 13.5571C22.7325 13.0476 23.6148 12.7928 24.3206 12.623C24.6735 12.5381 24.9382 12.4531 25.1147 12.4531H25.3794H25.4676V12.538C25.4676 12.538 25.4676 12.623 25.3794 12.7079C25.2912 12.8777 25.2029 13.1325 25.0265 13.3872C24.7618 13.9817 24.3206 14.661 23.7913 15.4253C23.5266 15.765 23.1737 16.1047 22.909 16.4443L22.4678 16.8689L22.4677 16.8691C22.2913 17.0389 22.1149 17.2086 21.9385 17.2935C21.5856 17.4634 21.2327 17.7181 20.7915 17.803C20.5268 17.888 20.1739 17.888 19.821 17.888C18.8505 19.0768 17.88 20.2657 17.086 21.4546C13.8216 26.1251 11.5276 31.56 11.1747 37.2495C10.91 42.1749 12.057 46.7605 13.998 51.2612C14.9685 53.6389 16.2037 55.9318 17.9683 57.8849C19.7328 59.838 21.8503 61.3666 24.1442 62.6404C28.5556 65.0181 34.9962 67.7355 41.0839 69.6887L39.4076 70.4529C35.8785 68.8395 32.3494 67.0562 29.6143 66.0371Z" fill="#FFCB6D"/>
<path d="M167.308 67.1414C167.749 66.8017 168.191 66.5469 168.632 66.3771C169.073 66.2072 169.514 66.1223 170.043 66.1223C171.014 66.0374 172.073 66.2922 173.131 66.462C174.19 66.7168 175.161 66.9715 175.866 67.2263C176.572 67.481 177.102 67.6509 177.102 67.6509C177.102 67.6509 176.66 67.9056 175.866 68.2453C175.161 68.585 174.102 68.9247 172.955 69.0945C171.808 69.2643 170.661 69.2643 169.602 69.0096C168.455 68.7548 167.573 68.1604 167.308 67.1414Z" fill="#FFCB6D"/>
<path d="M170.393 62.8088C169.952 63.658 169.423 64.5072 168.629 65.0167C168.276 65.2715 167.835 65.5262 167.394 65.6111C166.953 65.696 166.423 65.696 165.982 65.4413C165.982 64.4223 166.247 63.5731 166.688 62.8937C167.129 62.2144 167.835 61.535 168.452 61.0255C169.158 60.516 169.776 60.0914 170.305 59.7517C170.835 59.412 171.188 59.2422 171.188 59.2422C171.188 59.2422 171.188 59.3271 171.188 59.5819C171.188 59.7517 171.099 60.0065 171.099 60.3461C171.011 61.0255 170.835 61.8747 170.393 62.8088Z" fill="#FFCB6D"/>
<path d="M177.811 65.1019C176.753 65.017 175.87 64.6773 175.253 63.8281C175.782 62.9789 176.576 62.4694 177.458 62.2147C178.341 61.9599 179.488 61.875 180.546 61.875C181.605 61.875 182.664 61.875 183.458 61.875C184.252 61.875 184.781 61.875 184.781 61.875C184.781 61.875 184.693 61.9599 184.517 62.1297C184.34 62.2996 184.075 62.5543 183.723 62.8091C183.017 63.3186 182.134 63.9131 181.076 64.4226C179.929 64.8472 178.782 65.1019 177.811 65.1019Z" fill="#FFCB6D"/>
<path d="M175.863 61.1952C175.245 61.8746 174.451 62.3841 173.481 62.2991C173.04 61.365 173.128 60.4309 173.392 59.5817C173.657 58.7325 174.186 57.9683 174.628 57.2889C175.157 56.6096 175.598 56.1 176.039 55.6754C176.216 55.5056 176.392 55.3358 176.48 55.1659C176.569 55.081 176.657 54.9961 176.657 54.9961C176.657 54.9961 176.657 55.081 176.745 55.2509C176.833 55.4207 176.833 55.6754 176.922 56.0151C177.01 56.6945 177.098 57.5437 176.922 58.4778C176.745 59.4968 176.392 60.4309 175.863 61.1952Z" fill="#FFCB6D"/>
<path d="M188.398 54.1483C189.103 53.8935 189.633 53.8086 189.633 53.8086C189.633 53.8086 189.545 53.8935 189.456 54.1483C189.368 54.3181 189.192 54.5729 189.015 54.9125C188.839 55.2522 188.574 55.5919 188.309 56.0165C188.133 56.1863 188.045 56.4411 187.868 56.6109L187.78 56.7808L187.604 56.9506C187.515 57.0355 187.427 57.2054 187.339 57.2903C186.457 58.2244 185.398 58.9887 184.427 59.3283C183.369 59.668 182.398 59.5831 181.516 58.9037C181.781 57.8847 182.31 57.2054 183.104 56.6958C183.28 56.526 183.545 56.4411 183.722 56.2712C183.898 56.1014 184.163 56.0165 184.427 55.8466C184.692 55.6768 184.869 55.5919 185.133 55.4221C185.398 55.3371 185.574 55.1673 185.839 55.0824C186.721 54.6578 187.692 54.3181 188.398 54.1483Z" fill="#FFCB6D"/>
<path d="M181.245 55.8457C180.981 56.6949 180.363 57.3742 179.393 57.629C178.687 56.8647 178.51 55.9306 178.422 55.1663C178.334 54.3171 178.51 53.5529 178.599 52.8735C178.599 52.6187 178.775 52.1092 178.863 51.7696C178.952 51.4299 179.128 51.0902 179.216 50.7505C179.304 50.4958 179.393 50.241 179.481 50.0712C179.569 49.9013 179.569 49.8164 179.569 49.8164C179.569 49.8164 179.657 49.9013 179.746 50.0712C179.834 50.241 180.01 50.4958 180.187 50.7505C180.54 51.345 180.893 52.1941 181.157 53.0433C181.245 53.2981 181.245 53.4679 181.334 53.7227C181.422 53.9775 181.422 54.1473 181.422 54.4021C181.422 54.6568 181.422 54.8266 181.422 55.0814C181.422 55.4211 181.334 55.6758 181.245 55.8457Z" fill="#FFCB6D"/>
<path d="M189.452 50.6683C189.275 50.8382 189.099 51.008 188.922 51.1779C188.746 51.3477 188.481 51.5175 188.305 51.6025C187.422 52.112 186.54 52.3667 185.481 52.0271C185.393 51.5175 185.393 51.0929 185.569 50.6683C185.658 50.4985 185.746 50.2438 185.834 50.0739C185.922 49.9041 186.099 49.7342 186.187 49.4795C186.716 48.7152 187.599 48.1208 188.393 47.5263C189.187 46.9319 190.069 46.4224 190.775 46.0827C191.481 45.743 191.922 45.4883 191.922 45.4883C191.922 45.4883 191.922 45.5732 191.834 45.828C191.745 46.0827 191.657 46.3375 191.569 46.6771C191.304 47.3565 190.951 48.3755 190.334 49.2247C190.157 49.8192 189.804 50.2437 189.452 50.6683Z" fill="#FFCB6D"/>
<path d="M183.983 50.2428C183.807 50.6673 183.454 51.007 183.101 51.2618C182.218 50.7523 181.689 49.988 181.336 49.1388C181.248 48.969 181.248 48.7142 181.16 48.5444C181.16 48.4595 181.16 48.2896 181.072 48.2047C181.072 48.1198 181.072 47.9499 180.983 47.865C180.895 47.4404 180.895 47.0158 180.895 46.5912C180.983 45.742 180.983 44.9778 181.16 44.3833C181.248 44.1286 181.248 43.8738 181.336 43.704C181.336 43.5341 181.424 43.4492 181.424 43.4492C181.424 43.4492 181.513 43.5341 181.689 43.704C181.866 43.8738 182.042 44.0437 182.218 44.2984C182.66 44.8079 183.189 45.5722 183.63 46.4214C184.071 47.2706 184.336 48.2047 184.336 49.1388C184.336 49.3936 184.336 49.5634 184.248 49.8182C184.16 49.9031 184.071 50.0729 183.983 50.2428Z" fill="#FFCB6D"/>
<path d="M191.307 42.6008C191.219 42.8555 191.042 43.0254 190.866 43.2801C190.69 43.4499 190.513 43.7047 190.337 43.8745C189.631 44.5539 188.749 44.9785 187.69 44.8087C187.513 44.3841 187.425 43.8745 187.513 43.4499C187.513 43.1952 187.602 43.0254 187.69 42.7706C187.778 42.6008 187.866 42.346 187.954 42.1762C188.131 41.7516 188.396 41.327 188.749 40.9873C188.925 40.8175 189.101 40.5627 189.19 40.3929C189.366 40.223 189.543 40.0532 189.719 39.7984C190.425 39.0342 191.219 38.3548 191.748 37.8453C192.278 37.3358 192.719 36.9961 192.719 36.9961C192.719 36.9961 192.719 37.5056 192.719 38.2699C192.719 38.6945 192.631 39.1191 192.542 39.5437C192.454 39.7984 192.454 40.0532 192.366 40.3079C192.278 40.5627 192.278 40.8175 192.101 41.0722C191.748 41.5817 191.484 42.0912 191.307 42.6008Z" fill="#FFCB6D"/>
<path d="M185.128 44.2113C184.157 43.8717 183.451 43.1923 183.01 42.513C182.922 42.3431 182.834 42.1733 182.746 41.9185C182.657 41.7487 182.569 41.4939 182.481 41.3241C182.305 40.8995 182.216 40.4749 182.128 40.1352C182.04 39.7106 181.952 39.371 181.952 38.9464C181.952 38.7765 181.952 38.6067 181.863 38.4368C181.863 38.267 181.863 38.0972 181.863 38.0122C181.775 37.4178 181.775 37.0781 181.775 37.0781C181.775 37.0781 182.128 37.248 182.746 37.6726C182.922 37.7575 183.01 37.8424 183.187 38.0122C183.363 38.0972 183.54 38.267 183.628 38.4368C183.981 38.6916 184.246 39.0313 184.598 39.371C184.775 39.5408 184.863 39.7106 185.04 39.9654C185.128 40.0503 185.216 40.1352 185.216 40.3051C185.304 40.39 185.304 40.4749 185.393 40.6447C185.569 41.0693 185.745 41.4939 185.834 41.9185C185.834 42.1733 185.922 42.3431 185.922 42.5979C185.922 42.8526 185.834 43.0225 185.834 43.1923C185.657 43.4471 185.481 43.8717 185.128 44.2113Z" fill="#FFCB6D"/>
<path d="M188.84 31.9007C189.105 31.4761 189.369 31.0515 189.546 30.6269C189.81 30.2023 190.075 29.8626 190.251 29.5229C190.693 28.9285 190.957 28.5039 190.957 28.5039C190.957 28.5039 191.134 29.0134 191.222 29.7777C191.31 30.1174 191.31 30.6269 191.398 31.0515C191.398 31.3062 191.398 31.561 191.398 31.8157C191.398 32.0705 191.398 32.3253 191.398 32.58C191.31 33.0895 191.31 33.5991 191.134 34.1086C190.957 34.6181 190.781 35.1276 190.516 35.4673C189.987 36.3165 189.193 36.9109 188.134 36.9958C187.958 36.826 187.869 36.5712 187.781 36.4014C187.693 36.2316 187.605 35.9768 187.605 35.8069C187.516 35.3824 187.605 34.9578 187.693 34.5332C187.781 34.1086 187.958 33.5991 188.134 33.1745C188.31 32.8348 188.575 32.3253 188.84 31.9007Z" fill="#FFCB6D"/>
<path d="M183.099 35.8042C182.746 35.4645 182.481 35.2098 182.305 34.7852C182.04 34.4455 181.863 34.1058 181.687 33.6812C181.599 33.5114 181.51 33.3416 181.422 33.1717C181.334 33.0019 181.246 32.832 181.158 32.6622C180.981 32.3225 180.893 32.0678 180.805 31.7281C180.628 31.2186 180.54 30.8789 180.54 30.8789C180.54 30.8789 180.981 30.9638 181.599 31.2186C182.216 31.4733 183.01 31.813 183.804 32.4074C183.981 32.5773 184.157 32.6622 184.334 32.832C184.51 33.0019 184.687 33.1717 184.863 33.3416C185.216 33.6812 185.481 34.1058 185.657 34.4455C185.834 34.8701 185.922 35.2947 185.922 35.7193C185.922 35.8891 185.922 36.1439 185.834 36.3137C185.745 36.4836 185.657 36.7383 185.569 36.9082C184.51 36.8232 183.716 36.3986 183.099 35.8042Z" fill="#FFCB6D"/>
<path d="M186.189 29.1804C186.013 29.0106 185.924 28.8408 185.836 28.586C185.748 28.4162 185.66 28.1614 185.66 27.9916C185.66 27.8217 185.572 27.567 185.572 27.3122C185.572 26.8876 185.572 26.3781 185.66 25.8686C185.748 25.3591 185.836 24.9345 185.924 24.425C186.189 23.4909 186.454 22.5567 186.718 21.8774C186.983 21.198 187.16 20.7734 187.16 20.7734C187.16 20.7734 187.248 20.8584 187.336 21.0282C187.424 21.198 187.601 21.5377 187.777 21.8774C188.13 22.5567 188.483 23.4909 188.659 24.5099C188.748 25.0194 188.836 25.5289 188.836 26.0384C188.836 26.2932 188.836 26.5479 188.748 26.8027C188.748 27.0575 188.659 27.3122 188.571 27.567C188.395 27.9916 188.218 28.4162 187.865 28.8408C187.513 29.1804 187.16 29.5201 186.63 29.69C186.454 29.605 186.277 29.4352 186.189 29.1804Z" fill="#FFCB6D"/>
<path d="M177.809 25.5321C177.721 25.3623 177.633 25.2773 177.633 25.2773C177.633 25.2773 177.721 25.2773 177.986 25.2773C178.162 25.2773 178.427 25.2773 178.78 25.3623C179.133 25.3623 179.486 25.4472 179.927 25.5321C180.103 25.617 180.368 25.617 180.544 25.7019C180.721 25.7869 180.986 25.8718 181.162 25.9567C181.603 26.1265 182.044 26.2964 182.485 26.5511C182.838 26.8059 183.191 27.1456 183.544 27.4003C183.721 27.5702 183.809 27.74 183.897 27.9098C183.985 28.0797 184.074 28.3344 184.162 28.5043C184.25 28.6741 184.25 28.9289 184.25 29.0987C184.25 29.3535 184.162 29.5233 184.162 29.7781C183.632 29.863 183.191 29.863 182.75 29.7781C182.309 29.6931 181.868 29.5233 181.515 29.2685C181.338 29.1836 181.162 29.0138 180.986 28.9289C180.897 28.844 180.809 28.759 180.721 28.759C180.633 28.6741 180.544 28.5892 180.456 28.5892C180.103 28.3344 179.839 27.9948 179.574 27.74C179.309 27.4003 179.045 27.1456 178.868 26.8908C178.78 26.8059 178.78 26.721 178.692 26.6361C178.603 26.5511 178.603 26.4662 178.515 26.4662C178.427 26.2964 178.339 26.2115 178.25 26.1265C178.074 25.8718 177.898 25.7019 177.809 25.5321Z" fill="#FFCB6D"/>
<path d="M183.285 22.9811C182.844 22.7263 182.491 22.4715 182.226 22.1319C181.962 21.7922 181.785 21.3676 181.609 20.943C181.344 20.0938 181.256 19.0748 181.256 18.1407C181.256 17.8859 181.256 17.6311 181.256 17.3764C181.256 17.1216 181.256 16.8669 181.256 16.697C181.256 16.2724 181.344 15.8478 181.344 15.4232C181.432 14.7439 181.52 14.2344 181.52 14.2344C181.52 14.2344 181.609 14.3193 181.785 14.4891C181.962 14.659 182.138 14.9137 182.403 15.1685C182.667 15.5082 182.932 15.8478 183.109 16.1875C183.373 16.6121 183.638 17.0367 183.814 17.4613C183.991 17.9708 184.167 18.3954 184.344 18.9049C184.432 19.4144 184.52 19.924 184.52 20.3486C184.608 21.4525 184.167 22.3866 183.285 22.9811Z" fill="#FFCB6D"/>
<path d="M175.869 22.4715C175.517 22.2167 175.164 21.962 174.899 21.7072C174.634 21.4525 174.37 21.2826 174.105 21.0279C173.928 20.858 173.752 20.6882 173.576 20.5183C173.487 20.4334 173.399 20.3485 173.399 20.3485C173.399 20.3485 173.84 20.2636 174.546 20.1787C174.899 20.1787 175.252 20.0938 175.693 20.0938C176.134 20.0938 176.575 20.0938 177.105 20.1787C178.075 20.3485 179.046 20.6033 179.751 21.1128C180.104 21.3675 180.369 21.7072 180.634 22.0469C180.81 22.3866 180.898 22.8112 180.898 23.3207C179.928 23.7453 178.957 23.6604 178.163 23.4905C177.722 23.4056 177.369 23.2358 176.928 22.981C176.575 22.8961 176.222 22.7262 175.869 22.4715Z" fill="#FFCB6D"/>
<path d="M168.276 66.0371C171.629 64.7634 174.982 63.2348 177.805 61.0269C180.805 58.6492 182.922 55.4222 184.422 51.6858C186.275 47.3549 187.598 42.8542 187.422 38.0987C187.245 34.0226 186.098 30.0314 184.334 26.295C182.834 23.3228 180.981 20.3506 178.687 17.7181C178.864 17.3784 178.864 16.9539 178.775 16.6142C178.687 16.1896 178.511 15.765 178.246 15.4253C177.717 14.661 176.923 13.9817 176.04 13.5571C175.158 13.0476 174.276 12.7928 173.57 12.623C173.217 12.5381 172.952 12.4531 172.776 12.4531H172.511H172.423V12.538C172.423 12.538 172.423 12.623 172.511 12.7079C172.599 12.8777 172.688 13.1325 172.864 13.3872C173.129 13.9817 173.57 14.661 174.099 15.4253C174.364 15.765 174.717 16.1047 174.982 16.4443L175.423 16.8689L175.423 16.8691C175.599 17.0389 175.776 17.2086 175.952 17.2935C176.305 17.4634 176.658 17.7181 177.099 17.803C177.364 17.888 177.717 17.888 178.07 17.888C179.04 19.0768 180.011 20.2657 180.805 21.4546C184.069 26.1251 186.363 31.56 186.716 37.2495C186.981 42.1749 185.834 46.7605 183.893 51.2612C182.922 53.6389 181.687 55.9318 179.922 57.8849C178.158 59.838 176.04 61.3666 173.746 62.6404C169.335 65.0181 162.894 67.7355 156.807 69.6887L158.483 70.4529C162.012 68.8395 165.541 67.0562 168.276 66.0371Z" fill="#FFCB6D"/>
<defs>
<clipPath id="clip0_5702_62748">
<rect width="57.2729" height="9.05805" fill="white" transform="translate(70.0703 2.83203)"/>
</clipPath>
</defs>
</svg>
