<svg width="198" height="76" viewBox="0 0 198 76" fill="none" xmlns="http://www.w3.org/2000/svg">
<path d="M58.4358 35.7306L51.9624 29.2572L53.0263 28.1933L59.4997 34.6667L58.4358 35.7306ZM53.0263 35.7306L51.9624 34.6667L58.4358 28.1933L59.4997 29.2572L53.0263 35.7306ZM65.5108 37.8021C64.9967 37.7946 64.4901 37.7008 63.991 37.5207C63.4956 37.3406 63.0453 37.0403 62.64 36.62C62.2347 36.1997 61.9101 35.6349 61.6662 34.9257C61.426 34.2164 61.3059 33.3308 61.3059 32.2687C61.3059 31.263 61.4053 30.3698 61.6042 29.5893C61.8069 28.8087 62.0977 28.1501 62.4768 27.6135C62.8558 27.0731 63.3136 26.6621 63.8503 26.3807C64.3869 26.0992 64.9892 25.9585 65.6572 25.9585C66.344 25.9585 66.9538 26.0936 67.4867 26.3638C68.0196 26.634 68.4511 27.0074 68.7814 27.484C69.1154 27.9606 69.3274 28.5029 69.4174 29.1108H67.7006C67.5842 28.6304 67.3534 28.2383 67.0082 27.9343C66.6629 27.6303 66.2126 27.4784 65.6572 27.4784C64.8128 27.4784 64.1542 27.8461 63.6814 28.5817C63.2123 29.3172 62.9759 30.3398 62.9721 31.6495H63.0566C63.2554 31.323 63.4994 31.0453 63.7883 30.8164C64.081 30.5837 64.4075 30.4055 64.7678 30.2817C65.1318 30.1541 65.5146 30.0903 65.9161 30.0903C66.5841 30.0903 67.1883 30.2535 67.7287 30.58C68.2729 30.9027 68.7063 31.3493 69.029 31.9197C69.3518 32.4901 69.5131 33.1431 69.5131 33.8787C69.5131 34.6142 69.3461 35.2803 69.0122 35.877C68.6819 36.4737 68.2166 36.9465 67.6161 37.2955C67.0157 37.6408 66.3139 37.8097 65.5108 37.8021ZM65.5052 36.3386C65.948 36.3386 66.344 36.2297 66.693 36.0121C67.042 35.7944 67.3178 35.5017 67.5204 35.1339C67.7231 34.7662 67.8244 34.3553 67.8244 33.9012C67.8244 33.4583 67.725 33.0549 67.5261 32.6909C67.3309 32.3269 67.0607 32.0379 66.7155 31.824C66.374 31.6101 65.9837 31.5032 65.5446 31.5032C65.2106 31.5032 64.901 31.567 64.6158 31.6946C64.3344 31.8222 64.0867 31.9985 63.8728 32.2237C63.6589 32.4489 63.49 32.7078 63.3662 33.0005C63.2461 33.2895 63.186 33.5953 63.186 33.9181C63.186 34.3496 63.2855 34.7493 63.4844 35.1171C63.687 35.4848 63.9628 35.7813 64.3118 36.0065C64.6646 36.2279 65.0624 36.3386 65.5052 36.3386ZM75.622 37.6445H73.7756L77.9243 26.1161H79.9339L84.0825 37.6445H82.2362L78.9769 28.2101H78.8869L75.622 37.6445ZM75.9316 33.13H81.9209V34.5936H75.9316V33.13ZM85.7691 37.6445L83.2247 28.9982H84.9641L86.6585 35.3479H86.7429L88.4429 28.9982H90.1823L91.871 35.3197H91.9555L93.6386 28.9982H95.378L92.8392 37.6445H91.1224L89.3661 31.4018H89.2366L87.4803 37.6445H85.7691ZM98.8574 37.8359C98.3095 37.8359 97.8141 37.7346 97.3713 37.5319C96.9285 37.3255 96.5776 37.0272 96.3186 36.6369C96.0635 36.2466 95.9359 35.7682 95.9359 35.2015C95.9359 34.7136 96.0297 34.3121 96.2173 33.9969C96.405 33.6816 96.6583 33.4321 96.9772 33.2482C97.2962 33.0643 97.6527 32.9255 98.0468 32.8316C98.4408 32.7378 98.8424 32.6665 99.2514 32.6177C99.7693 32.5577 100.19 32.5089 100.512 32.4714C100.835 32.4301 101.07 32.3644 101.216 32.2744C101.362 32.1843 101.436 32.0379 101.436 31.8353V31.7959C101.436 31.3043 101.297 30.9234 101.019 30.6532C100.745 30.383 100.336 30.2479 99.7918 30.2479C99.2251 30.2479 98.7786 30.3736 98.4521 30.625C98.1293 30.8727 97.9061 31.1485 97.7822 31.4525L96.2004 31.0922C96.3881 30.5669 96.662 30.1428 97.0223 29.8201C97.3863 29.4936 97.8047 29.2572 98.2776 29.1108C98.7504 28.9607 99.2477 28.8856 99.7693 28.8856C100.115 28.8856 100.48 28.9269 100.867 29.0095C101.257 29.0883 101.621 29.2346 101.959 29.4485C102.301 29.6624 102.58 29.9683 102.798 30.3661C103.015 30.7601 103.124 31.2724 103.124 31.9028V37.6445H101.481V36.4624H101.413C101.304 36.6801 101.141 36.894 100.923 37.1041C100.706 37.3143 100.426 37.4888 100.085 37.6276C99.743 37.7665 99.334 37.8359 98.8574 37.8359ZM99.2233 36.4849C99.6886 36.4849 100.086 36.393 100.417 36.2091C100.751 36.0252 101.004 35.785 101.177 35.4886C101.353 35.1884 101.441 34.8675 101.441 34.526V33.4114C101.381 33.4715 101.265 33.5278 101.092 33.5803C100.923 33.6291 100.73 33.6723 100.512 33.7098C100.295 33.7436 100.083 33.7755 99.8762 33.8055C99.6698 33.8317 99.4972 33.8543 99.3584 33.873C99.0319 33.9143 98.7335 33.9837 98.4633 34.0813C98.1969 34.1789 97.983 34.3196 97.8216 34.5035C97.664 34.6836 97.5852 34.9238 97.5852 35.224C97.5852 35.6406 97.7391 35.9558 98.0468 36.1697C98.3545 36.3799 98.7467 36.4849 99.2233 36.4849ZM104.732 37.6445V28.9982H106.359V30.3717H106.449C106.606 29.9064 106.884 29.5405 107.282 29.274C107.684 29.0038 108.138 28.8687 108.644 28.8687C108.749 28.8687 108.873 28.8725 109.016 28.88C109.162 28.8875 109.277 28.8969 109.359 28.9081V30.5181C109.292 30.4993 109.171 30.4787 108.999 30.4562C108.826 30.4299 108.654 30.4167 108.481 30.4167C108.083 30.4167 107.729 30.5012 107.417 30.6701C107.109 30.8352 106.865 31.066 106.685 31.3624C106.505 31.6552 106.415 31.9891 106.415 32.3644V37.6445H104.732ZM113.109 37.8134C112.411 37.8134 111.788 37.6351 111.24 37.2786C110.696 36.9184 110.268 36.4061 109.956 35.7419C109.649 35.0739 109.495 34.2727 109.495 33.3383C109.495 32.4038 109.651 31.6045 109.962 30.9403C110.277 30.276 110.709 29.7675 111.257 29.4148C111.805 29.062 112.426 28.8856 113.12 28.8856C113.657 28.8856 114.088 28.9757 114.415 29.1558C114.745 29.3322 115 29.5386 115.18 29.775C115.364 30.0115 115.507 30.2197 115.608 30.3999H115.709V26.1161H117.392V37.6445H115.749V36.2992H115.608C115.507 36.4831 115.36 36.6932 115.169 36.9296C114.981 37.1661 114.722 37.3725 114.392 37.5488C114.062 37.7252 113.634 37.8134 113.109 37.8134ZM113.48 36.378C113.964 36.378 114.373 36.2504 114.707 35.9952C115.045 35.7363 115.3 35.3779 115.473 34.92C115.649 34.4622 115.738 33.9293 115.738 33.3214C115.738 32.7209 115.651 32.1955 115.479 31.7452C115.306 31.2949 115.053 30.944 114.719 30.6926C114.385 30.4411 113.972 30.3154 113.48 30.3154C112.974 30.3154 112.551 30.4468 112.214 30.7095C111.876 30.9722 111.621 31.3305 111.448 31.7846C111.279 32.2387 111.195 32.751 111.195 33.3214C111.195 33.8993 111.281 34.419 111.454 34.8806C111.626 35.3422 111.882 35.7081 112.219 35.9783C112.561 36.2448 112.981 36.378 113.48 36.378ZM125.64 31.1091L124.114 31.3793C124.05 31.1842 123.949 30.9984 123.81 30.822C123.675 30.6457 123.491 30.5012 123.259 30.3886C123.026 30.276 122.735 30.2197 122.386 30.2197C121.91 30.2197 121.512 30.3267 121.193 30.5406C120.874 30.7507 120.714 31.0228 120.714 31.3568C120.714 31.6458 120.821 31.8784 121.035 32.0548C121.249 32.2312 121.594 32.3757 122.071 32.4883L123.444 32.8035C124.24 32.9874 124.833 33.2707 125.223 33.6535C125.613 34.0363 125.809 34.5335 125.809 35.1452C125.809 35.6631 125.658 36.1247 125.358 36.53C125.062 36.9315 124.647 37.2467 124.114 37.4757C123.585 37.7046 122.972 37.819 122.274 37.819C121.305 37.819 120.515 37.6126 119.904 37.1998C119.292 36.7833 118.917 36.1922 118.778 35.4267L120.405 35.179C120.506 35.603 120.714 35.9239 121.029 36.1416C121.345 36.3555 121.756 36.4624 122.262 36.4624C122.814 36.4624 123.255 36.348 123.585 36.119C123.915 35.8864 124.08 35.603 124.08 35.269C124.08 34.9988 123.979 34.7718 123.776 34.5879C123.578 34.404 123.272 34.2652 122.859 34.1714L121.395 33.8505C120.589 33.6666 119.992 33.3739 119.605 32.9724C119.223 32.5708 119.031 32.0623 119.031 31.4469C119.031 30.9365 119.174 30.4899 119.459 30.1071C119.744 29.7244 120.138 29.426 120.641 29.2121C121.144 28.9945 121.72 28.8856 122.369 28.8856C123.304 28.8856 124.039 29.0883 124.576 29.4936C125.112 29.8951 125.467 30.4336 125.64 31.1091ZM134.228 37.819C133.418 37.819 132.71 37.6333 132.106 37.2618C131.502 36.8902 131.033 36.3705 130.699 35.7025C130.365 35.0345 130.198 34.2539 130.198 33.3608C130.198 32.4639 130.365 31.6795 130.699 31.0078C131.033 30.3361 131.502 29.8144 132.106 29.4429C132.71 29.0714 133.418 28.8856 134.228 28.8856C135.039 28.8856 135.746 29.0714 136.35 29.4429C136.955 29.8144 137.424 30.3361 137.758 31.0078C138.092 31.6795 138.259 32.4639 138.259 33.3608C138.259 34.2539 138.092 35.0345 137.758 35.7025C137.424 36.3705 136.955 36.8902 136.35 37.2618C135.746 37.6333 135.039 37.819 134.228 37.819ZM134.234 36.4061C134.759 36.4061 135.195 36.2673 135.54 35.9896C135.885 35.7119 136.14 35.3422 136.305 34.8806C136.474 34.419 136.559 33.9106 136.559 33.3551C136.559 32.8035 136.474 32.2969 136.305 31.8353C136.14 31.3699 135.885 30.9965 135.54 30.7151C135.195 30.4336 134.759 30.2929 134.234 30.2929C133.705 30.2929 133.266 30.4336 132.917 30.7151C132.571 30.9965 132.314 31.3699 132.145 31.8353C131.98 32.2969 131.898 32.8035 131.898 33.3551C131.898 33.9106 131.98 34.419 132.145 34.8806C132.314 35.3422 132.571 35.7119 132.917 35.9896C133.266 36.2673 133.705 36.4061 134.234 36.4061ZM141.186 32.5108V37.6445H139.503V28.9982H141.119V30.4055H141.226C141.425 29.9477 141.736 29.5799 142.16 29.3022C142.588 29.0245 143.127 28.8856 143.776 28.8856C144.365 28.8856 144.881 29.0095 145.324 29.2572C145.767 29.5011 146.11 29.8651 146.354 30.3492C146.598 30.8333 146.72 31.4319 146.72 32.1449V37.6445H145.037V32.3475C145.037 31.7208 144.873 31.2311 144.547 30.8783C144.22 30.5218 143.772 30.3436 143.202 30.3436C142.811 30.3436 142.464 30.428 142.16 30.5969C141.86 30.7658 141.622 31.0134 141.445 31.3399C141.273 31.6627 141.186 32.0529 141.186 32.5108ZM69.3149 55.6445V44.1161H73.5368C74.3549 44.1161 75.0322 44.2512 75.5689 44.5214C76.1055 44.7878 76.5071 45.15 76.7735 45.6078C77.04 46.0619 77.1732 46.5742 77.1732 47.1446C77.1732 47.6249 77.085 48.0302 76.9086 48.3605C76.7322 48.6869 76.4958 48.9496 76.1993 49.1485C75.9066 49.3437 75.5839 49.4863 75.2311 49.5763V49.6889C75.6139 49.7077 75.9873 49.8315 76.3513 50.0605C76.7191 50.2856 77.0231 50.6065 77.2633 51.023C77.5034 51.4396 77.6235 51.9462 77.6235 52.5429C77.6235 53.1321 77.4847 53.6612 77.207 54.1303C76.933 54.5956 76.5089 54.9653 75.9348 55.2392C75.3606 55.5094 74.6269 55.6445 73.7338 55.6445H69.3149ZM71.0543 54.1528H73.5649C74.398 54.1528 74.9947 53.9914 75.355 53.6687C75.7152 53.346 75.8954 52.9426 75.8954 52.4585C75.8954 52.0944 75.8034 51.7604 75.6195 51.4565C75.4357 51.1525 75.173 50.9104 74.8315 50.7303C74.4937 50.5502 74.0922 50.4601 73.6268 50.4601H71.0543V54.1528ZM71.0543 49.1035H73.3848C73.7751 49.1035 74.126 49.0284 74.4374 48.8783C74.7527 48.7282 75.0022 48.5181 75.1861 48.2479C75.3737 47.9739 75.4676 47.6512 75.4676 47.2797C75.4676 46.8031 75.3006 46.4034 74.9666 46.0807C74.6326 45.7579 74.1203 45.5966 73.4298 45.5966H71.0543V49.1035ZM82.6439 55.819C81.792 55.819 81.0584 55.637 80.4429 55.273C79.8312 54.9052 79.3584 54.3892 79.0244 53.725C78.6941 53.057 78.529 52.2746 78.529 51.3777C78.529 50.492 78.6941 49.7114 79.0244 49.036C79.3584 48.3605 79.8237 47.8332 80.4204 47.4542C81.0208 47.0751 81.7226 46.8856 82.5257 46.8856C83.0135 46.8856 83.4864 46.9663 83.9442 47.1277C84.4021 47.2891 84.813 47.5424 85.177 47.8876C85.541 48.2329 85.8281 48.6813 86.0382 49.233C86.2484 49.7809 86.3535 50.447 86.3535 51.2313V51.828H79.4803V50.5671H84.7041C84.7041 50.1242 84.6141 49.7321 84.434 49.3906C84.2538 49.0453 84.0005 48.7733 83.674 48.5744C83.3513 48.3755 82.9723 48.276 82.5369 48.276C82.0641 48.276 81.6513 48.3924 81.2985 48.625C80.9495 48.8539 80.6793 49.1542 80.4879 49.5257C80.3003 49.8935 80.2065 50.2931 80.2065 50.7247V51.7098C80.2065 52.2877 80.3078 52.7793 80.5105 53.1846C80.7169 53.5899 81.0039 53.8995 81.3717 54.1134C81.7395 54.3236 82.1692 54.4286 82.6608 54.4286C82.9798 54.4286 83.2706 54.3836 83.5333 54.2935C83.796 54.1997 84.023 54.0609 84.2144 53.877C84.4058 53.6931 84.5522 53.4661 84.6535 53.1959L86.2465 53.483C86.1189 53.952 85.89 54.363 85.5598 54.7157C85.2333 55.0647 84.8224 55.3368 84.327 55.5319C83.8354 55.7233 83.2744 55.819 82.6439 55.819ZM89.27 50.5108V55.6445H87.5869V44.1161H89.2475V48.4055H89.3544C89.5571 47.9402 89.8667 47.5705 90.2832 47.2966C90.6998 47.0226 91.2439 46.8856 91.9157 46.8856C92.5086 46.8856 93.0265 47.0076 93.4693 47.2515C93.9159 47.4955 94.2611 47.8595 94.5051 48.3436C94.7527 48.8239 94.8766 49.4244 94.8766 50.1449V55.6445H93.1935V50.3475C93.1935 49.7133 93.0302 49.2217 92.7037 48.8727C92.3772 48.52 91.9232 48.3436 91.3415 48.3436C90.9437 48.3436 90.5872 48.428 90.272 48.5969C89.9605 48.7658 89.7147 49.0134 89.5345 49.3399C89.3582 49.6627 89.27 50.0529 89.27 50.5108ZM99.0047 55.8359C98.4568 55.8359 97.9615 55.7346 97.5187 55.5319C97.0758 55.3255 96.725 55.0272 96.466 54.6369C96.2108 54.2466 96.0832 53.7682 96.0832 53.2015C96.0832 52.7136 96.1771 52.3121 96.3647 51.9969C96.5523 51.6816 96.8056 51.4321 97.1246 51.2482C97.4436 51.0643 97.8001 50.9255 98.1942 50.8316C98.5882 50.7378 98.9897 50.6665 99.3988 50.6177C99.9167 50.5577 100.337 50.5089 100.66 50.4714C100.982 50.4301 101.217 50.3644 101.363 50.2744C101.51 50.1843 101.583 50.0379 101.583 49.8353V49.7959C101.583 49.3043 101.444 48.9234 101.166 48.6532C100.892 48.383 100.483 48.2479 99.9392 48.2479C99.3725 48.2479 98.9259 48.3736 98.5994 48.625C98.2767 48.8727 98.0534 49.1485 97.9296 49.4525L96.3478 49.0922C96.5354 48.5669 96.8094 48.1428 97.1697 47.8201C97.5337 47.4936 97.9521 47.2572 98.4249 47.1108C98.8978 46.9607 99.395 46.8856 99.9167 46.8856C100.262 46.8856 100.628 46.9269 101.014 47.0095C101.405 47.0883 101.769 47.2346 102.106 47.4485C102.448 47.6624 102.727 47.9683 102.945 48.3661C103.163 48.7601 103.272 49.2724 103.272 49.9028V55.6445H101.628V54.4624H101.56C101.452 54.6801 101.288 54.894 101.071 55.1041C100.853 55.3143 100.573 55.4888 100.232 55.6276C99.8904 55.7665 99.4813 55.8359 99.0047 55.8359ZM99.3706 54.4849C99.836 54.4849 100.234 54.393 100.564 54.2091C100.898 54.0252 101.151 53.785 101.324 53.4886C101.5 53.1884 101.589 52.8675 101.589 52.526V51.4114C101.528 51.4715 101.412 51.5278 101.24 51.5803C101.071 51.6291 100.877 51.6723 100.66 51.7098C100.442 51.7436 100.23 51.7755 100.024 51.8055C99.8172 51.8317 99.6446 51.8543 99.5057 51.873C99.1792 51.9143 98.8809 51.9837 98.6107 52.0813C98.3443 52.1789 98.1304 52.3196 97.969 52.5035C97.8114 52.6836 97.7326 52.9238 97.7326 53.224C97.7326 53.6406 97.8864 53.9558 98.1942 54.1697C98.5019 54.3799 98.894 54.4849 99.3706 54.4849ZM106.562 50.5108V55.6445H104.879V46.9982H106.495V48.4055H106.602C106.801 47.9477 107.112 47.5799 107.536 47.3022C107.964 47.0245 108.503 46.8856 109.152 46.8856C109.741 46.8856 110.257 47.0095 110.7 47.2572C111.143 47.5011 111.486 47.8651 111.73 48.3492C111.974 48.8333 112.096 49.4319 112.096 50.1449V55.6445H110.413V50.3475C110.413 49.7208 110.25 49.2311 109.923 48.8783C109.597 48.5218 109.148 48.3436 108.578 48.3436C108.187 48.3436 107.84 48.428 107.536 48.5969C107.236 48.7658 106.998 49.0134 106.821 49.3399C106.649 49.6627 106.562 50.0529 106.562 50.5108ZM117.361 55.819C116.524 55.819 115.804 55.6295 115.2 55.2505C114.599 54.8677 114.138 54.3405 113.815 53.6687C113.492 52.997 113.331 52.2277 113.331 51.3608C113.331 50.4826 113.496 49.7077 113.826 49.036C114.156 48.3605 114.622 47.8332 115.222 47.4542C115.822 47.0751 116.53 46.8856 117.344 46.8856C118.001 46.8856 118.586 47.0076 119.101 47.2515C119.615 47.4917 120.029 47.8294 120.345 48.2648C120.664 48.7001 120.853 49.2086 120.913 49.7903H119.275C119.185 49.385 118.979 49.036 118.656 48.7432C118.337 48.4505 117.909 48.3042 117.372 48.3042C116.903 48.3042 116.492 48.428 116.14 48.6757C115.791 48.9196 115.519 49.2686 115.323 49.7227C115.128 50.173 115.031 50.7059 115.031 51.3214C115.031 51.9518 115.126 52.496 115.318 52.9538C115.509 53.4116 115.779 53.7663 116.128 54.0177C116.481 54.2692 116.896 54.3949 117.372 54.3949C117.691 54.3949 117.98 54.3367 118.239 54.2204C118.502 54.1003 118.721 53.9295 118.898 53.7081C119.078 53.4867 119.204 53.2203 119.275 52.9088H120.913C120.853 53.4679 120.671 53.9671 120.367 54.4061C120.063 54.8452 119.656 55.1904 119.146 55.4419C118.639 55.6933 118.044 55.819 117.361 55.819ZM125.805 55.819C124.954 55.819 124.22 55.637 123.604 55.273C122.993 54.9052 122.52 54.3892 122.186 53.725C121.856 53.057 121.691 52.2746 121.691 51.3777C121.691 50.492 121.856 49.7114 122.186 49.036C122.52 48.3605 122.985 47.8332 123.582 47.4542C124.182 47.0751 124.884 46.8856 125.687 46.8856C126.175 46.8856 126.648 46.9663 127.106 47.1277C127.564 47.2891 127.974 47.5424 128.339 47.8876C128.703 48.2329 128.99 48.6813 129.2 49.233C129.41 49.7809 129.515 50.447 129.515 51.2313V51.828H122.642V50.5671H127.866C127.866 50.1242 127.776 49.7321 127.595 49.3906C127.415 49.0453 127.162 48.7733 126.836 48.5744C126.513 48.3755 126.134 48.276 125.698 48.276C125.226 48.276 124.813 48.3924 124.46 48.625C124.111 48.8539 123.841 49.1542 123.649 49.5257C123.462 49.8935 123.368 50.2931 123.368 50.7247V51.7098C123.368 52.2877 123.469 52.7793 123.672 53.1846C123.878 53.5899 124.165 53.8995 124.533 54.1134C124.901 54.3236 125.331 54.4286 125.822 54.4286C126.141 54.4286 126.432 54.3836 126.695 54.2935C126.957 54.1997 127.185 54.0609 127.376 53.877C127.567 53.6931 127.714 53.4661 127.815 53.1959L129.408 53.483C129.28 53.952 129.052 54.363 128.721 54.7157C128.395 55.0647 127.984 55.3368 127.489 55.5319C126.997 55.7233 126.436 55.819 125.805 55.819Z" fill="white"/>
<path d="M83.3292 72.4062V66.642H85.4401C85.8492 66.642 86.1879 66.7096 86.4562 66.8447C86.7245 66.9779 86.9253 67.159 87.0585 67.3879C87.1917 67.6149 87.2583 67.8711 87.2583 68.1563C87.2583 68.3964 87.2143 68.5991 87.1261 68.7642C87.0379 68.9275 86.9197 69.0588 86.7714 69.1583C86.6251 69.2558 86.4637 69.3271 86.2873 69.3722V69.4284C86.4787 69.4378 86.6654 69.4998 86.8474 69.6142C87.0313 69.7268 87.1833 69.8872 87.3034 70.0955C87.4235 70.3038 87.4835 70.5571 87.4835 70.8554C87.4835 71.15 87.4141 71.4146 87.2752 71.6491C87.1383 71.8818 86.9262 72.0666 86.6391 72.2036C86.3521 72.3387 85.9852 72.4062 85.5387 72.4062H83.3292ZM84.1989 71.6604H85.4542C85.8708 71.6604 86.1691 71.5797 86.3492 71.4183C86.5294 71.257 86.6194 71.0553 86.6194 70.8132C86.6194 70.6312 86.5735 70.4642 86.4815 70.3122C86.3896 70.1602 86.2582 70.0392 86.0875 69.9491C85.9186 69.8591 85.7178 69.814 85.4852 69.814H84.1989V71.6604ZM84.1989 69.1357H85.3642C85.5593 69.1357 85.7347 69.0982 85.8905 69.0232C86.0481 68.9481 86.1729 68.843 86.2648 68.7079C86.3586 68.5709 86.4055 68.4096 86.4055 68.2238C86.4055 67.9855 86.322 67.7857 86.155 67.6243C85.988 67.463 85.7319 67.3823 85.3867 67.3823H84.1989V69.1357ZM90.073 72.4935C89.647 72.4935 89.2802 72.4025 88.9725 72.2205C88.6666 72.0366 88.4302 71.7786 88.2632 71.4465C88.0981 71.1125 88.0155 70.7213 88.0155 70.2728C88.0155 69.83 88.0981 69.4397 88.2632 69.102C88.4302 68.7642 88.6629 68.5006 88.9612 68.3111C89.2614 68.1216 89.6123 68.0268 90.0139 68.0268C90.2578 68.0268 90.4942 68.0671 90.7231 68.1478C90.952 68.2285 91.1575 68.3552 91.3395 68.5278C91.5215 68.7004 91.6651 68.9246 91.7701 69.2005C91.8752 69.4744 91.9278 69.8075 91.9278 70.1996V70.498H88.4912V69.8675H91.1031C91.1031 69.6461 91.0581 69.45 90.968 69.2793C90.8779 69.1067 90.7513 68.9706 90.588 68.8712C90.4267 68.7717 90.2371 68.722 90.0195 68.722C89.7831 68.722 89.5767 68.7802 89.4003 68.8965C89.2258 69.011 89.0907 69.1611 88.995 69.3468C88.9012 69.5307 88.8543 69.7305 88.8543 69.9463V70.4389C88.8543 70.7278 88.9049 70.9736 89.0062 71.1763C89.1094 71.3789 89.253 71.5337 89.4369 71.6407C89.6208 71.7458 89.8356 71.7983 90.0814 71.7983C90.2409 71.7983 90.3863 71.7758 90.5177 71.7308C90.649 71.6838 90.7625 71.6144 90.8582 71.5225C90.9539 71.4305 91.0271 71.317 91.0778 71.1819L91.8743 71.3255C91.8105 71.56 91.696 71.7655 91.5309 71.9418C91.3677 72.1164 91.1622 72.2524 90.9145 72.35C90.6687 72.4457 90.3882 72.4935 90.073 72.4935ZM93.4653 69.8394V72.4062H92.6237V66.642H93.454V68.7867H93.5075C93.6088 68.5541 93.7636 68.3692 93.9719 68.2323C94.1802 68.0953 94.4522 68.0268 94.7881 68.0268C95.0846 68.0268 95.3435 68.0878 95.5649 68.2097C95.7882 68.3317 95.9608 68.5137 96.0828 68.7558C96.2066 68.9959 96.2686 69.2962 96.2686 69.6564V72.4062H95.427V69.7578C95.427 69.4406 95.3454 69.1948 95.1821 69.0203C95.0189 68.844 94.7919 68.7558 94.501 68.7558C94.3021 68.7558 94.1239 68.798 93.9663 68.8824C93.8105 68.9669 93.6876 69.0907 93.5975 69.2539C93.5094 69.4153 93.4653 69.6105 93.4653 69.8394ZM98.4119 72.5019C98.1379 72.5019 97.8903 72.4513 97.6689 72.35C97.4474 72.2468 97.272 72.0976 97.1425 71.9024C97.0149 71.7073 96.9511 71.4681 96.9511 71.1847C96.9511 70.9408 96.9981 70.74 97.0919 70.5824C97.1857 70.4248 97.3123 70.3 97.4718 70.2081C97.6313 70.1161 97.8096 70.0467 98.0066 69.9998C98.2036 69.9529 98.4044 69.9172 98.6089 69.8929C98.8679 69.8628 99.078 69.8384 99.2394 69.8197C99.4007 69.799 99.518 69.7662 99.5912 69.7212C99.6644 69.6761 99.701 69.603 99.701 69.5016V69.4819C99.701 69.2361 99.6315 69.0457 99.4927 68.9106C99.3557 68.7755 99.1512 68.7079 98.8791 68.7079C98.5958 68.7079 98.3725 68.7708 98.2093 68.8965C98.0479 69.0203 97.9362 69.1583 97.8743 69.3102L97.0834 69.1301C97.1772 68.8674 97.3142 68.6554 97.4944 68.494C97.6764 68.3308 97.8856 68.2126 98.122 68.1394C98.3584 68.0643 98.607 68.0268 98.8679 68.0268C99.0405 68.0268 99.2234 68.0474 99.4167 68.0887C99.6118 68.1281 99.7938 68.2013 99.9627 68.3083C100.133 68.4152 100.273 68.5681 100.382 68.767C100.491 68.964 100.545 69.2202 100.545 69.5354V72.4062H99.7235V71.8152H99.6897C99.6353 71.924 99.5537 72.031 99.4448 72.1361C99.336 72.2411 99.1962 72.3284 99.0255 72.3978C98.8547 72.4672 98.6502 72.5019 98.4119 72.5019ZM98.5948 71.8265C98.8275 71.8265 99.0264 71.7805 99.1915 71.6885C99.3585 71.5966 99.4852 71.4765 99.5715 71.3283C99.6597 71.1782 99.7038 71.0177 99.7038 70.847V70.2897C99.6738 70.3197 99.6156 70.3479 99.5293 70.3741C99.4448 70.3985 99.3482 70.4201 99.2394 70.4389C99.1305 70.4558 99.0245 70.4717 98.9213 70.4867C98.8181 70.4999 98.7318 70.5111 98.6624 70.5205C98.4992 70.5411 98.35 70.5759 98.2149 70.6246C98.0817 70.6734 97.9747 70.7438 97.894 70.8357C97.8152 70.9258 97.7758 71.0459 97.7758 71.196C97.7758 71.4043 97.8527 71.5619 98.0066 71.6688C98.1605 71.7739 98.3565 71.8265 98.5948 71.8265ZM102.27 69.8394V72.4062H101.428V68.0831H102.236V68.7867H102.29C102.389 68.5578 102.545 68.3739 102.757 68.2351C102.971 68.0962 103.24 68.0268 103.565 68.0268C103.859 68.0268 104.117 68.0887 104.339 68.2126C104.56 68.3345 104.732 68.5165 104.854 68.7586C104.976 69.0006 105.037 69.2999 105.037 69.6564V72.4062H104.195V69.7578C104.195 69.4444 104.114 69.1995 103.95 69.0232C103.787 68.8449 103.563 68.7558 103.278 68.7558C103.082 68.7558 102.909 68.798 102.757 68.8824C102.607 68.9669 102.488 69.0907 102.399 69.2539C102.313 69.4153 102.27 69.6105 102.27 69.8394ZM107.749 72.4935C107.33 72.4935 106.97 72.3987 106.668 72.2092C106.368 72.0178 106.137 71.7542 105.975 71.4183C105.814 71.0825 105.733 70.6978 105.733 70.2644C105.733 69.8253 105.816 69.4378 105.981 69.102C106.146 68.7642 106.379 68.5006 106.679 68.3111C106.979 68.1216 107.333 68.0268 107.74 68.0268C108.069 68.0268 108.361 68.0878 108.618 68.2097C108.875 68.3298 109.083 68.4987 109.24 68.7164C109.4 68.934 109.495 69.1883 109.525 69.4791H108.706C108.661 69.2765 108.557 69.102 108.396 68.9556C108.236 68.8092 108.023 68.7361 107.754 68.7361C107.52 68.7361 107.314 68.798 107.138 68.9218C106.963 69.0438 106.827 69.2183 106.73 69.4453C106.632 69.6705 106.583 69.9369 106.583 70.2447C106.583 70.5599 106.631 70.832 106.727 71.0609C106.823 71.2898 106.958 71.4671 107.132 71.5928C107.309 71.7186 107.516 71.7814 107.754 71.7814C107.914 71.7814 108.058 71.7523 108.188 71.6942C108.319 71.6341 108.429 71.5487 108.517 71.438C108.607 71.3273 108.67 71.1941 108.706 71.0384H109.525C109.495 71.318 109.404 71.5675 109.252 71.787C109.1 72.0066 108.896 72.1792 108.641 72.3049C108.388 72.4306 108.09 72.4935 107.749 72.4935ZM112.05 72.4935C111.624 72.4935 111.257 72.4025 110.95 72.2205C110.644 72.0366 110.407 71.7786 110.24 71.4465C110.075 71.1125 109.993 70.7213 109.993 70.2728C109.993 69.83 110.075 69.4397 110.24 69.102C110.407 68.7642 110.64 68.5006 110.938 68.3111C111.238 68.1216 111.589 68.0268 111.991 68.0268C112.235 68.0268 112.471 68.0671 112.7 68.1478C112.929 68.2285 113.135 68.3552 113.317 68.5278C113.499 68.7004 113.642 68.9246 113.747 69.2005C113.852 69.4744 113.905 69.8075 113.905 70.1996V70.498H110.468V69.8675H113.08C113.08 69.6461 113.035 69.45 112.945 69.2793C112.855 69.1067 112.728 68.9706 112.565 68.8712C112.404 68.7717 112.214 68.722 111.997 68.722C111.76 68.722 111.554 68.7802 111.377 68.8965C111.203 69.011 111.068 69.1611 110.972 69.3468C110.878 69.5307 110.831 69.7305 110.831 69.9463V70.4389C110.831 70.7278 110.882 70.9736 110.983 71.1763C111.086 71.3789 111.23 71.5337 111.414 71.6407C111.598 71.7458 111.813 71.7983 112.058 71.7983C112.218 71.7983 112.363 71.7758 112.495 71.7308C112.626 71.6838 112.74 71.6144 112.835 71.5225C112.931 71.4305 113.004 71.317 113.055 71.1819L113.851 71.3255C113.788 71.56 113.673 71.7655 113.508 71.9418C113.345 72.1164 113.139 72.2524 112.892 72.35C112.646 72.4457 112.365 72.4935 112.05 72.4935Z" fill="#B4B5BB"/>
<path d="M30.473 67.1414C30.0318 66.8017 29.5907 66.5469 29.1496 66.3771C28.7084 66.2072 28.2673 66.1223 27.7379 66.1223C26.7674 66.0374 25.7087 66.2922 24.6499 66.462C23.5912 66.7168 22.6207 66.9715 21.9149 67.2263C21.209 67.481 20.6797 67.6509 20.6797 67.6509C20.6797 67.6509 21.1208 67.9056 21.9149 68.2453C22.6207 68.585 23.6794 68.9247 24.8264 69.0945C25.9734 69.2643 27.1203 69.2643 28.179 69.0096C29.326 68.7548 30.2083 68.1604 30.473 67.1414Z" fill="#FFCB6D"/>
<path d="M27.3878 62.8088C27.8289 63.658 28.3583 64.5072 29.1523 65.0167C29.5053 65.2715 29.9464 65.5262 30.3875 65.6111C30.8287 65.696 31.358 65.696 31.7992 65.4413C31.7992 64.4223 31.5345 63.5731 31.0934 62.8937C30.6522 62.2144 29.9464 61.535 29.3288 61.0255C28.623 60.516 28.0054 60.0914 27.476 59.7517C26.9467 59.412 26.5938 59.2422 26.5938 59.2422C26.5938 59.2422 26.5938 59.3271 26.5938 59.5819C26.5938 59.7517 26.682 60.0065 26.682 60.3461C26.7702 61.0255 26.9467 61.8747 27.3878 62.8088Z" fill="#FFCB6D"/>
<path d="M19.97 65.1019C21.0287 65.017 21.911 64.6773 22.5286 63.8281C21.9992 62.9789 21.2052 62.4694 20.3229 62.2147C19.4406 61.9599 18.2937 61.875 17.2349 61.875C16.1762 61.875 15.1175 61.875 14.3234 61.875C13.5294 61.875 13 61.875 13 61.875C13 61.875 13.0882 61.9599 13.2647 62.1297C13.4411 62.2996 13.7058 62.5543 14.0587 62.8091C14.7645 63.3186 15.6468 63.9131 16.7055 64.4226C17.8525 64.8472 18.9995 65.1019 19.97 65.1019Z" fill="#FFCB6D"/>
<path d="M21.9184 61.1952C22.536 61.8746 23.3301 62.3841 24.3006 62.2991C24.7417 61.365 24.6535 60.4309 24.3888 59.5817C24.1241 58.7325 23.5948 57.9683 23.1536 57.2889C22.6242 56.6096 22.1831 56.1 21.742 55.6754C21.5655 55.5056 21.3891 55.3358 21.3008 55.1659C21.2126 55.081 21.1244 54.9961 21.1244 54.9961C21.1244 54.9961 21.1244 55.081 21.0361 55.2509C20.9479 55.4207 20.9479 55.6754 20.8597 56.0151C20.7715 56.6945 20.6832 57.5437 20.8597 58.4778C21.0361 59.4968 21.389 60.4309 21.9184 61.1952Z" fill="#FFCB6D"/>
<path d="M9.38362 54.1483C8.6778 53.8935 8.14844 53.8086 8.14844 53.8086C8.14844 53.8086 8.23665 53.8935 8.32488 54.1483C8.4131 54.3181 8.58956 54.5729 8.76602 54.9125C8.94247 55.2522 9.20717 55.5919 9.47185 56.0165C9.64831 56.1863 9.73654 56.4411 9.91299 56.6109L10.0012 56.7808L10.1777 56.9506C10.2659 57.0355 10.3541 57.2054 10.4423 57.2903C11.3246 58.2244 12.3834 58.9887 13.3539 59.3283C14.4126 59.668 15.3831 59.5831 16.2654 58.9037C16.0007 57.8847 15.4713 57.2054 14.6773 56.6958C14.5008 56.526 14.2361 56.4411 14.0597 56.2712C13.8832 56.1014 13.6186 56.0165 13.3539 55.8466C13.0892 55.6768 12.9127 55.5919 12.648 55.4221C12.3833 55.3371 12.2069 55.1673 11.9422 55.0824C11.0599 54.6578 10.0894 54.3181 9.38362 54.1483Z" fill="#FFCB6D"/>
<path d="M16.5358 55.8457C16.8005 56.6949 17.4181 57.3742 18.3886 57.629C19.0944 56.8647 19.2709 55.9306 19.3591 55.1663C19.4473 54.3171 19.2709 53.5529 19.1827 52.8735C19.1827 52.6187 19.0062 52.1092 18.918 51.7696C18.8297 51.4299 18.6533 51.0902 18.5651 50.7505C18.4768 50.4958 18.3886 50.241 18.3004 50.0712C18.2122 49.9013 18.2122 49.8164 18.2122 49.8164C18.2122 49.8164 18.1239 49.9013 18.0357 50.0712C17.9475 50.241 17.771 50.4958 17.5946 50.7505C17.2416 51.345 16.8887 52.1941 16.624 53.0433C16.5358 53.2981 16.5358 53.4679 16.4476 53.7227C16.3594 53.9775 16.3594 54.1473 16.3594 54.4021C16.3594 54.6568 16.3594 54.8266 16.3594 55.0814C16.3594 55.4211 16.4476 55.6758 16.5358 55.8457Z" fill="#FFCB6D"/>
<path d="M8.32974 50.6683C8.5062 50.8382 8.68266 51.008 8.85911 51.1779C9.03557 51.3477 9.30026 51.5175 9.47672 51.6025C10.359 52.112 11.2413 52.3667 12.3 52.0271C12.3882 51.5175 12.3882 51.0929 12.2118 50.6683C12.1235 50.4985 12.0353 50.2438 11.9471 50.0739C11.8589 49.9041 11.6824 49.7342 11.5942 49.4795C11.0648 48.7152 10.1825 48.1208 9.38848 47.5263C8.59443 46.9319 7.71215 46.4224 7.00632 46.0827C6.3005 45.743 5.85938 45.4883 5.85938 45.4883C5.85938 45.4883 5.85938 45.5732 5.94761 45.828C6.03584 46.0827 6.12405 46.3375 6.21228 46.6771C6.47696 47.3565 6.82987 48.3755 7.44746 49.2247C7.62392 49.8192 7.97683 50.2437 8.32974 50.6683Z" fill="#FFCB6D"/>
<path d="M13.7982 50.2428C13.9747 50.6673 14.3276 51.007 14.6805 51.2618C15.5628 50.7523 16.0921 49.988 16.4451 49.1388C16.5333 48.969 16.5333 48.7142 16.6215 48.5444C16.6215 48.4595 16.6215 48.2896 16.7097 48.2047C16.7097 48.1198 16.7097 47.9499 16.798 47.865C16.8862 47.4404 16.8862 47.0158 16.8862 46.5912C16.798 45.742 16.7979 44.9778 16.6215 44.3833C16.5333 44.1286 16.5333 43.8738 16.4451 43.704C16.4451 43.5341 16.3568 43.4492 16.3568 43.4492C16.3568 43.4492 16.2686 43.5341 16.0921 43.704C15.9157 43.8738 15.7392 44.0437 15.5628 44.2984C15.1216 44.8079 14.5923 45.5722 14.1511 46.4214C13.71 47.2706 13.4453 48.2047 13.4453 49.1388C13.4453 49.3936 13.4453 49.5634 13.5335 49.8182C13.6217 49.9031 13.71 50.0729 13.7982 50.2428Z" fill="#FFCB6D"/>
<path d="M6.47412 42.6008C6.56235 42.8555 6.73881 43.0254 6.91526 43.2801C7.09172 43.4499 7.26818 43.7047 7.44463 43.8745C8.15045 44.5539 9.03273 44.9785 10.0915 44.8087C10.2679 44.3841 10.3562 43.8745 10.2679 43.4499C10.2679 43.1952 10.1797 43.0254 10.0915 42.7706C10.0032 42.6008 9.91502 42.346 9.82679 42.1762C9.65034 41.7516 9.38566 41.327 9.03275 40.9873C8.85629 40.8175 8.67984 40.5627 8.59161 40.3929C8.41515 40.223 8.23869 40.0532 8.06224 39.7984C7.35642 39.0342 6.56235 38.3548 6.03298 37.8453C5.50362 37.3358 5.0625 36.9961 5.0625 36.9961C5.0625 36.9961 5.0625 37.5056 5.0625 38.2699C5.0625 38.6945 5.15071 39.1191 5.23894 39.5437C5.32717 39.7984 5.32718 40.0532 5.41541 40.3079C5.50363 40.5627 5.50362 40.8175 5.68008 41.0722C6.03299 41.5817 6.29767 42.0912 6.47412 42.6008Z" fill="#FFCB6D"/>
<path d="M12.6534 44.2113C13.6239 43.8717 14.3298 43.1923 14.7709 42.513C14.8591 42.3431 14.9474 42.1733 15.0356 41.9185C15.1238 41.7487 15.212 41.4939 15.3003 41.3241C15.4767 40.8995 15.565 40.4749 15.6532 40.1352C15.7414 39.7106 15.8296 39.371 15.8296 38.9464C15.8296 38.7765 15.8296 38.6067 15.9179 38.4368C15.9179 38.267 15.9179 38.0972 15.9179 38.0122C16.0061 37.4178 16.0061 37.0781 16.0061 37.0781C16.0061 37.0781 15.6532 37.248 15.0356 37.6726C14.8591 37.7575 14.7709 37.8424 14.5944 38.0122C14.418 38.0972 14.2415 38.267 14.1533 38.4368C13.8004 38.6916 13.5357 39.0313 13.1828 39.371C13.0063 39.5408 12.9181 39.7106 12.7417 39.9654C12.6534 40.0503 12.5652 40.1352 12.5652 40.3051C12.477 40.39 12.477 40.4749 12.3887 40.6447C12.2123 41.0693 12.0358 41.4939 11.9476 41.9185C11.9476 42.1733 11.8594 42.3431 11.8594 42.5979C11.8594 42.8526 11.9476 43.0225 11.9476 43.1923C12.1241 43.4471 12.3005 43.8717 12.6534 44.2113Z" fill="#FFCB6D"/>
<path d="M8.94141 31.9007C8.67673 31.4761 8.41203 31.0515 8.23557 30.6269C7.97089 30.2023 7.70622 29.8626 7.52976 29.5229C7.08862 28.9285 6.82395 28.5039 6.82395 28.5039C6.82395 28.5039 6.64748 29.0134 6.55925 29.7777C6.47102 30.1174 6.47104 30.6269 6.38281 31.0515C6.38281 31.3062 6.38281 31.561 6.38281 31.8157C6.38281 32.0705 6.38281 32.3253 6.38281 32.58C6.47104 33.0895 6.47103 33.5991 6.64748 34.1086C6.82394 34.6181 7.00041 35.1276 7.26509 35.4673C7.79446 36.3165 8.58849 36.9109 9.64722 36.9958C9.82368 36.826 9.9119 36.5712 10.0001 36.4014C10.0884 36.2316 10.1766 35.9768 10.1766 35.8069C10.2648 35.3824 10.1766 34.9578 10.0884 34.5332C10.0001 34.1086 9.82368 33.5991 9.64722 33.1745C9.47077 32.8348 9.20609 32.3253 8.94141 31.9007Z" fill="#FFCB6D"/>
<path d="M14.6827 35.8042C15.0356 35.4645 15.3003 35.2098 15.4767 34.7852C15.7414 34.4455 15.9179 34.1058 16.0943 33.6812C16.1826 33.5114 16.2708 33.3416 16.359 33.1717C16.4472 33.0019 16.5354 32.832 16.6237 32.6622C16.8001 32.3225 16.8884 32.0678 16.9766 31.7281C17.1531 31.2186 17.2413 30.8789 17.2413 30.8789C17.2413 30.8789 16.8001 30.9638 16.1825 31.2186C15.5649 31.4733 14.7709 31.813 13.9768 32.4074C13.8004 32.5773 13.6239 32.6622 13.4475 32.832C13.271 33.0019 13.0946 33.1717 12.9181 33.3416C12.5652 33.6812 12.3005 34.1058 12.1241 34.4455C11.9476 34.8701 11.8594 35.2947 11.8594 35.7193C11.8594 35.8891 11.8594 36.1439 11.9476 36.3137C12.0358 36.4836 12.1241 36.7383 12.2123 36.9082C13.271 36.8232 14.0651 36.3986 14.6827 35.8042Z" fill="#FFCB6D"/>
<path d="M11.5921 29.1804C11.7686 29.0106 11.8568 28.8408 11.9451 28.586C12.0333 28.4162 12.1215 28.1614 12.1215 27.9916C12.1215 27.8217 12.2097 27.567 12.2097 27.3122C12.2097 26.8876 12.2097 26.3781 12.1215 25.8686C12.0333 25.3591 11.945 24.9345 11.8568 24.425C11.5921 23.4909 11.3275 22.5567 11.0628 21.8774C10.7981 21.198 10.6216 20.7734 10.6216 20.7734C10.6216 20.7734 10.5334 20.8584 10.4452 21.0282C10.3569 21.198 10.1805 21.5377 10.004 21.8774C9.65112 22.5567 9.29821 23.4909 9.12175 24.5099C9.03352 25.0194 8.94531 25.5289 8.94531 26.0384C8.94531 26.2932 8.94532 26.5479 9.03355 26.8027C9.03355 27.0575 9.12176 27.3122 9.20998 27.567C9.38644 27.9916 9.56291 28.4162 9.91582 28.8408C10.2687 29.1804 10.6216 29.5201 11.151 29.69C11.3275 29.605 11.5039 29.4352 11.5921 29.1804Z" fill="#FFCB6D"/>
<path d="M19.9719 25.5321C20.0601 25.3623 20.1483 25.2773 20.1483 25.2773C20.1483 25.2773 20.0601 25.2773 19.7954 25.2773C19.619 25.2773 19.3543 25.2773 19.0014 25.3623C18.6485 25.3623 18.2956 25.4472 17.8544 25.5321C17.678 25.617 17.4133 25.617 17.2368 25.7019C17.0604 25.7869 16.7957 25.8718 16.6192 25.9567C16.1781 26.1265 15.7369 26.2964 15.2958 26.5511C14.9429 26.8059 14.59 27.1456 14.2371 27.4003C14.0606 27.5702 13.9724 27.74 13.8842 27.9098C13.796 28.0797 13.7077 28.3344 13.6195 28.5043C13.5313 28.6741 13.5312 28.9289 13.5312 29.0987C13.5312 29.3535 13.6195 29.5233 13.6195 29.7781C14.1488 29.863 14.59 29.863 15.0311 29.7781C15.4723 29.6931 15.9134 29.5233 16.2663 29.2685C16.4428 29.1836 16.6192 29.0138 16.7957 28.9289C16.8839 28.844 16.9721 28.759 17.0604 28.759C17.1486 28.6741 17.2368 28.5892 17.3251 28.5892C17.678 28.3344 17.9427 27.9948 18.2073 27.74C18.472 27.4003 18.7367 27.1456 18.9131 26.8908C19.0014 26.8059 19.0014 26.721 19.0896 26.6361C19.1778 26.5511 19.1778 26.4662 19.2661 26.4662C19.3543 26.2964 19.4425 26.2115 19.5308 26.1265C19.7072 25.8718 19.8837 25.7019 19.9719 25.5321Z" fill="#FFCB6D"/>
<path d="M14.4963 22.9811C14.9374 22.7263 15.2903 22.4715 15.555 22.1319C15.8197 21.7922 15.9961 21.3676 16.1726 20.943C16.4373 20.0938 16.5255 19.0748 16.5255 18.1407C16.5255 17.8859 16.5255 17.6311 16.5255 17.3764C16.5255 17.1216 16.5255 16.8669 16.5255 16.697C16.5255 16.2724 16.4373 15.8478 16.4373 15.4232C16.3491 14.7439 16.2608 14.2344 16.2608 14.2344C16.2608 14.2344 16.1726 14.3193 15.9961 14.4891C15.8197 14.659 15.6432 14.9137 15.3785 15.1685C15.1139 15.5082 14.8492 15.8478 14.6727 16.1875C14.408 16.6121 14.1433 17.0367 13.9669 17.4613C13.7904 17.9708 13.614 18.3954 13.4375 18.9049C13.3493 19.4144 13.2611 19.924 13.2611 20.3486C13.1729 21.4525 13.614 22.3866 14.4963 22.9811Z" fill="#FFCB6D"/>
<path d="M21.9118 22.4715C22.2647 22.2167 22.6176 21.962 22.8823 21.7072C23.147 21.4525 23.4116 21.2826 23.6763 21.0279C23.8528 20.858 24.0292 20.6882 24.2057 20.5183C24.2939 20.4334 24.3822 20.3485 24.3822 20.3485C24.3822 20.3485 23.941 20.2636 23.2352 20.1787C22.8823 20.1787 22.5294 20.0938 22.0882 20.0938C21.6471 20.0938 21.206 20.0938 20.6766 20.1787C19.7061 20.3485 18.7356 20.6033 18.0298 21.1128C17.6769 21.3675 17.4122 21.7072 17.1475 22.0469C16.971 22.3866 16.8828 22.8112 16.8828 23.3207C17.8533 23.7453 18.8238 23.6604 19.6179 23.4905C20.059 23.4056 20.4119 23.2358 20.8531 22.981C21.206 22.8961 21.5589 22.7262 21.9118 22.4715Z" fill="#FFCB6D"/>
<path d="M29.5049 66.0371C26.1523 64.7634 22.7996 63.2348 19.9763 61.0269C16.9766 58.6492 14.8591 55.4222 13.3593 51.6858C11.5065 47.3549 10.1831 42.8542 10.3595 38.0987C10.536 34.0226 11.6829 30.0314 13.4475 26.295C14.9474 23.3228 16.8001 20.3506 19.0941 17.7181C18.9176 17.3784 18.9176 16.9539 19.0058 16.6142C19.0941 16.1896 19.2705 15.765 19.5352 15.4253C20.0646 14.661 20.8586 13.9817 21.7409 13.5571C22.6232 13.0476 23.5054 12.7928 24.2113 12.623C24.5642 12.5381 24.8289 12.4531 25.0053 12.4531H25.27H25.3582V12.538C25.3582 12.538 25.3582 12.623 25.27 12.7079C25.1818 12.8777 25.0936 13.1325 24.9171 13.3872C24.6524 13.9817 24.2113 14.661 23.6819 15.4253C23.4172 15.765 23.0643 16.1047 22.7996 16.4443L22.3585 16.8689L22.3583 16.8691C22.1819 17.0389 22.0055 17.2086 21.8291 17.2935C21.4762 17.4634 21.1233 17.7181 20.6822 17.803C20.4175 17.888 20.0646 17.888 19.7116 17.888C18.7411 19.0768 17.7707 20.2657 16.9766 21.4546C13.7122 26.1251 11.4182 31.56 11.0653 37.2495C10.8007 42.1749 11.9476 46.7605 13.8886 51.2612C14.8591 53.6389 16.0943 55.9318 17.8589 57.8849C19.6234 59.838 21.7409 61.3666 24.0348 62.6404C28.4462 65.0181 34.8868 67.7355 40.9745 69.6887L39.2982 70.4529C35.7691 68.8395 32.24 67.0562 29.5049 66.0371Z" fill="#FFCB6D"/>
<path d="M167.191 67.1414C167.632 66.8017 168.073 66.5469 168.515 66.3771C168.956 66.2072 169.397 66.1223 169.926 66.1223C170.897 66.0374 171.955 66.2922 173.014 66.462C174.073 66.7168 175.043 66.9715 175.749 67.2263C176.455 67.481 176.984 67.6509 176.984 67.6509C176.984 67.6509 176.543 67.9056 175.749 68.2453C175.043 68.585 173.985 68.9247 172.838 69.0945C171.691 69.2643 170.544 69.2643 169.485 69.0096C168.338 68.7548 167.456 68.1604 167.191 67.1414Z" fill="#FFCB6D"/>
<path d="M170.276 62.8088C169.835 63.658 169.306 64.5072 168.512 65.0167C168.159 65.2715 167.718 65.5262 167.277 65.6111C166.835 65.696 166.306 65.696 165.865 65.4413C165.865 64.4223 166.13 63.5731 166.571 62.8937C167.012 62.2144 167.718 61.535 168.335 61.0255C169.041 60.516 169.659 60.0914 170.188 59.7517C170.717 59.412 171.07 59.2422 171.07 59.2422C171.07 59.2422 171.07 59.3271 171.07 59.5819C171.07 59.7517 170.982 60.0065 170.982 60.3461C170.894 61.0255 170.717 61.8747 170.276 62.8088Z" fill="#FFCB6D"/>
<path d="M177.694 65.1019C176.635 65.017 175.753 64.6773 175.135 63.8281C175.665 62.9789 176.459 62.4694 177.341 62.2147C178.223 61.9599 179.37 61.875 180.429 61.875C181.488 61.875 182.547 61.875 183.341 61.875C184.135 61.875 184.664 61.875 184.664 61.875C184.664 61.875 184.576 61.9599 184.399 62.1297C184.223 62.2996 183.958 62.5543 183.605 62.8091C182.9 63.3186 182.017 63.9131 180.959 64.4226C179.812 64.8472 178.665 65.1019 177.694 65.1019Z" fill="#FFCB6D"/>
<path d="M175.746 61.1952C175.128 61.8746 174.334 62.3841 173.363 62.2991C172.922 61.365 173.011 60.4309 173.275 59.5817C173.54 58.7325 174.069 57.9683 174.51 57.2889C175.04 56.6096 175.481 56.1 175.922 55.6754C176.099 55.5056 176.275 55.3358 176.363 55.1659C176.451 55.081 176.54 54.9961 176.54 54.9961C176.54 54.9961 176.54 55.081 176.628 55.2509C176.716 55.4207 176.716 55.6754 176.804 56.0151C176.893 56.6945 176.981 57.5437 176.804 58.4778C176.628 59.4968 176.275 60.4309 175.746 61.1952Z" fill="#FFCB6D"/>
<path d="M188.28 54.1483C188.986 53.8935 189.516 53.8086 189.516 53.8086C189.516 53.8086 189.427 53.8935 189.339 54.1483C189.251 54.3181 189.075 54.5729 188.898 54.9125C188.722 55.2522 188.457 55.5919 188.192 56.0165C188.016 56.1863 187.928 56.4411 187.751 56.6109L187.663 56.7808L187.486 56.9506C187.398 57.0355 187.31 57.2054 187.222 57.2903C186.339 58.2244 185.281 58.9887 184.31 59.3283C183.251 59.668 182.281 59.5831 181.399 58.9037C181.663 57.8847 182.193 57.2054 182.987 56.6958C183.163 56.526 183.428 56.4411 183.604 56.2712C183.781 56.1014 184.046 56.0165 184.31 55.8466C184.575 55.6768 184.751 55.5919 185.016 55.4221C185.281 55.3371 185.457 55.1673 185.722 55.0824C186.604 54.6578 187.575 54.3181 188.28 54.1483Z" fill="#FFCB6D"/>
<path d="M181.136 55.8457C180.871 56.6949 180.254 57.3742 179.283 57.629C178.577 56.8647 178.401 55.9306 178.313 55.1663C178.225 54.3171 178.401 53.5529 178.489 52.8735C178.489 52.6187 178.666 52.1092 178.754 51.7696C178.842 51.4299 179.019 51.0902 179.107 50.7505C179.195 50.4958 179.283 50.241 179.371 50.0712C179.46 49.9013 179.46 49.8164 179.46 49.8164C179.46 49.8164 179.548 49.9013 179.636 50.0712C179.724 50.241 179.901 50.4958 180.077 50.7505C180.43 51.345 180.783 52.1941 181.048 53.0433C181.136 53.2981 181.136 53.4679 181.224 53.7227C181.312 53.9775 181.312 54.1473 181.312 54.4021C181.312 54.6568 181.312 54.8266 181.312 55.0814C181.312 55.4211 181.224 55.6758 181.136 55.8457Z" fill="#FFCB6D"/>
<path d="M189.334 50.6683C189.158 50.8382 188.981 51.008 188.805 51.1779C188.628 51.3477 188.364 51.5175 188.187 51.6025C187.305 52.112 186.423 52.3667 185.364 52.0271C185.276 51.5175 185.276 51.0929 185.452 50.6683C185.541 50.4985 185.629 50.2438 185.717 50.0739C185.805 49.9041 185.982 49.7342 186.07 49.4795C186.599 48.7152 187.482 48.1208 188.276 47.5263C189.07 46.9319 189.952 46.4224 190.658 46.0827C191.364 45.743 191.805 45.4883 191.805 45.4883C191.805 45.4883 191.805 45.5732 191.716 45.828C191.628 46.0827 191.54 46.3375 191.452 46.6771C191.187 47.3565 190.834 48.3755 190.217 49.2247C190.04 49.8192 189.687 50.2437 189.334 50.6683Z" fill="#FFCB6D"/>
<path d="M183.866 50.2428C183.689 50.6673 183.336 51.007 182.984 51.2618C182.101 50.7523 181.572 49.988 181.219 49.1388C181.131 48.969 181.131 48.7142 181.043 48.5444C181.043 48.4595 181.043 48.2896 180.954 48.2047C180.954 48.1198 180.954 47.9499 180.866 47.865C180.778 47.4404 180.778 47.0158 180.778 46.5912C180.866 45.742 180.866 44.9778 181.043 44.3833C181.131 44.1286 181.131 43.8738 181.219 43.704C181.219 43.5341 181.307 43.4492 181.307 43.4492C181.307 43.4492 181.395 43.5341 181.572 43.704C181.748 43.8738 181.925 44.0437 182.101 44.2984C182.542 44.8079 183.072 45.5722 183.513 46.4214C183.954 47.2706 184.219 48.2047 184.219 49.1388C184.219 49.3936 184.219 49.5634 184.131 49.8182C184.042 49.9031 183.954 50.0729 183.866 50.2428Z" fill="#FFCB6D"/>
<path d="M191.19 42.6008C191.102 42.8555 190.925 43.0254 190.749 43.2801C190.572 43.4499 190.396 43.7047 190.219 43.8745C189.514 44.5539 188.631 44.9785 187.573 44.8087C187.396 44.3841 187.308 43.8745 187.396 43.4499C187.396 43.1952 187.484 43.0254 187.573 42.7706C187.661 42.6008 187.749 42.346 187.837 42.1762C188.014 41.7516 188.278 41.327 188.631 40.9873C188.808 40.8175 188.984 40.5627 189.072 40.3929C189.249 40.223 189.425 40.0532 189.602 39.7984C190.308 39.0342 191.102 38.3548 191.631 37.8453C192.16 37.3358 192.602 36.9961 192.602 36.9961C192.602 36.9961 192.602 37.5056 192.602 38.2699C192.602 38.6945 192.513 39.1191 192.425 39.5437C192.337 39.7984 192.337 40.0532 192.249 40.3079C192.16 40.5627 192.16 40.8175 191.984 41.0722C191.631 41.5817 191.366 42.0912 191.19 42.6008Z" fill="#FFCB6D"/>
<path d="M185.011 44.2113C184.04 43.8717 183.334 43.1923 182.893 42.513C182.805 42.3431 182.717 42.1733 182.628 41.9185C182.54 41.7487 182.452 41.4939 182.364 41.3241C182.187 40.8995 182.099 40.4749 182.011 40.1352C181.923 39.7106 181.834 39.371 181.834 38.9464C181.834 38.7765 181.834 38.6067 181.746 38.4368C181.746 38.267 181.746 38.0972 181.746 38.0122C181.658 37.4178 181.658 37.0781 181.658 37.0781C181.658 37.0781 182.011 37.248 182.628 37.6726C182.805 37.7575 182.893 37.8424 183.07 38.0122C183.246 38.0972 183.423 38.267 183.511 38.4368C183.864 38.6916 184.128 39.0313 184.481 39.371C184.658 39.5408 184.746 39.7106 184.922 39.9654C185.011 40.0503 185.099 40.1352 185.099 40.3051C185.187 40.39 185.187 40.4749 185.275 40.6447C185.452 41.0693 185.628 41.4939 185.716 41.9185C185.716 42.1733 185.805 42.3431 185.805 42.5979C185.805 42.8526 185.716 43.0225 185.716 43.1923C185.54 43.4471 185.364 43.8717 185.011 44.2113Z" fill="#FFCB6D"/>
<path d="M188.723 31.9007C188.987 31.4761 189.252 31.0515 189.428 30.6269C189.693 30.2023 189.958 29.8626 190.134 29.5229C190.575 28.9285 190.84 28.5039 190.84 28.5039C190.84 28.5039 191.017 29.0134 191.105 29.7777C191.193 30.1174 191.193 30.6269 191.281 31.0515C191.281 31.3062 191.281 31.561 191.281 31.8157C191.281 32.0705 191.281 32.3253 191.281 32.58C191.193 33.0895 191.193 33.5991 191.017 34.1086C190.84 34.6181 190.664 35.1276 190.399 35.4673C189.87 36.3165 189.076 36.9109 188.017 36.9958C187.84 36.826 187.752 36.5712 187.664 36.4014C187.576 36.2316 187.487 35.9768 187.487 35.8069C187.399 35.3824 187.487 34.9578 187.576 34.5332C187.664 34.1086 187.84 33.5991 188.017 33.1745C188.193 32.8348 188.458 32.3253 188.723 31.9007Z" fill="#FFCB6D"/>
<path d="M182.981 35.8042C182.628 35.4645 182.364 35.2098 182.187 34.7852C181.923 34.4455 181.746 34.1058 181.57 33.6812C181.482 33.5114 181.393 33.3416 181.305 33.1717C181.217 33.0019 181.129 32.832 181.04 32.6622C180.864 32.3225 180.776 32.0678 180.687 31.7281C180.511 31.2186 180.423 30.8789 180.423 30.8789C180.423 30.8789 180.864 30.9638 181.482 31.2186C182.099 31.4733 182.893 31.813 183.687 32.4074C183.864 32.5773 184.04 32.6622 184.217 32.832C184.393 33.0019 184.569 33.1717 184.746 33.3416C185.099 33.6812 185.364 34.1058 185.54 34.4455C185.716 34.8701 185.805 35.2947 185.805 35.7193C185.805 35.8891 185.805 36.1439 185.716 36.3137C185.628 36.4836 185.54 36.7383 185.452 36.9082C184.393 36.8232 183.599 36.3986 182.981 35.8042Z" fill="#FFCB6D"/>
<path d="M186.072 29.1804C185.895 29.0106 185.807 28.8408 185.719 28.586C185.631 28.4162 185.543 28.1614 185.543 27.9916C185.543 27.8217 185.454 27.567 185.454 27.3122C185.454 26.8876 185.454 26.3781 185.543 25.8686C185.631 25.3591 185.719 24.9345 185.807 24.425C186.072 23.4909 186.337 22.5567 186.601 21.8774C186.866 21.198 187.042 20.7734 187.042 20.7734C187.042 20.7734 187.131 20.8584 187.219 21.0282C187.307 21.198 187.484 21.5377 187.66 21.8774C188.013 22.5567 188.366 23.4909 188.542 24.5099C188.631 25.0194 188.719 25.5289 188.719 26.0384C188.719 26.2932 188.719 26.5479 188.631 26.8027C188.631 27.0575 188.542 27.3122 188.454 27.567C188.278 27.9916 188.101 28.4162 187.748 28.8408C187.395 29.1804 187.042 29.5201 186.513 29.69C186.337 29.605 186.16 29.4352 186.072 29.1804Z" fill="#FFCB6D"/>
<path d="M177.692 25.5321C177.604 25.3623 177.516 25.2773 177.516 25.2773C177.516 25.2773 177.604 25.2773 177.869 25.2773C178.045 25.2773 178.31 25.2773 178.663 25.3623C179.016 25.3623 179.368 25.4472 179.81 25.5321C179.986 25.617 180.251 25.617 180.427 25.7019C180.604 25.7869 180.868 25.8718 181.045 25.9567C181.486 26.1265 181.927 26.2964 182.368 26.5511C182.721 26.8059 183.074 27.1456 183.427 27.4003C183.603 27.5702 183.692 27.74 183.78 27.9098C183.868 28.0797 183.956 28.3344 184.045 28.5043C184.133 28.6741 184.133 28.9289 184.133 29.0987C184.133 29.3535 184.045 29.5233 184.045 29.7781C183.515 29.863 183.074 29.863 182.633 29.7781C182.192 29.6931 181.751 29.5233 181.398 29.2685C181.221 29.1836 181.045 29.0138 180.868 28.9289C180.78 28.844 180.692 28.759 180.604 28.759C180.515 28.6741 180.427 28.5892 180.339 28.5892C179.986 28.3344 179.721 27.9948 179.457 27.74C179.192 27.4003 178.927 27.1456 178.751 26.8908C178.663 26.8059 178.663 26.721 178.574 26.6361C178.486 26.5511 178.486 26.4662 178.398 26.4662C178.31 26.2964 178.222 26.2115 178.133 26.1265C177.957 25.8718 177.78 25.7019 177.692 25.5321Z" fill="#FFCB6D"/>
<path d="M183.16 22.9811C182.719 22.7263 182.366 22.4715 182.101 22.1319C181.837 21.7922 181.66 21.3676 181.484 20.943C181.219 20.0938 181.131 19.0748 181.131 18.1407C181.131 17.8859 181.131 17.6311 181.131 17.3764C181.131 17.1216 181.131 16.8669 181.131 16.697C181.131 16.2724 181.219 15.8478 181.219 15.4232C181.307 14.7439 181.395 14.2344 181.395 14.2344C181.395 14.2344 181.484 14.3193 181.66 14.4891C181.837 14.659 182.013 14.9137 182.278 15.1685C182.542 15.5082 182.807 15.8478 182.984 16.1875C183.248 16.6121 183.513 17.0367 183.689 17.4613C183.866 17.9708 184.042 18.3954 184.219 18.9049C184.307 19.4144 184.395 19.924 184.395 20.3486C184.483 21.4525 184.042 22.3866 183.16 22.9811Z" fill="#FFCB6D"/>
<path d="M175.752 22.4715C175.399 22.2167 175.046 21.962 174.782 21.7072C174.517 21.4525 174.252 21.2826 173.988 21.0279C173.811 20.858 173.635 20.6882 173.458 20.5183C173.37 20.4334 173.282 20.3485 173.282 20.3485C173.282 20.3485 173.723 20.2636 174.429 20.1787C174.782 20.1787 175.135 20.0938 175.576 20.0938C176.017 20.0938 176.458 20.0938 176.987 20.1787C177.958 20.3485 178.928 20.6033 179.634 21.1128C179.987 21.3675 180.252 21.7072 180.517 22.0469C180.693 22.3866 180.781 22.8112 180.781 23.3207C179.811 23.7453 178.84 23.6604 178.046 23.4905C177.605 23.4056 177.252 23.2358 176.811 22.981C176.458 22.8961 176.105 22.7262 175.752 22.4715Z" fill="#FFCB6D"/>
<path d="M168.159 66.0371C171.512 64.7634 174.864 63.2348 177.688 61.0269C180.687 58.6492 182.805 55.4222 184.305 51.6858C186.158 47.3549 187.481 42.8542 187.305 38.0987C187.128 34.0226 185.981 30.0314 184.217 26.295C182.717 23.3228 180.864 20.3506 178.57 17.7181C178.746 17.3784 178.746 16.9539 178.658 16.6142C178.57 16.1896 178.394 15.765 178.129 15.4253C177.599 14.661 176.805 13.9817 175.923 13.5571C175.041 13.0476 174.159 12.7928 173.453 12.623C173.1 12.5381 172.835 12.4531 172.659 12.4531H172.394H172.306V12.538C172.306 12.538 172.306 12.623 172.394 12.7079C172.482 12.8777 172.571 13.1325 172.747 13.3872C173.012 13.9817 173.453 14.661 173.982 15.4253C174.247 15.765 174.6 16.1047 174.864 16.4443L175.306 16.8689L175.306 16.8691C175.482 17.0389 175.659 17.2086 175.835 17.2935C176.188 17.4634 176.541 17.7181 176.982 17.803C177.247 17.888 177.6 17.888 177.952 17.888C178.923 19.0768 179.893 20.2657 180.687 21.4546C183.952 26.1251 186.246 31.56 186.599 37.2495C186.863 42.1749 185.716 46.7605 183.775 51.2612C182.805 53.6389 181.57 55.9318 179.805 57.8849C178.041 59.838 175.923 61.3666 173.629 62.6404C169.218 65.0181 162.777 67.7355 156.69 69.6887L158.366 70.4529C161.895 68.8395 165.424 67.0562 168.159 66.0371Z" fill="#FFCB6D"/>
<g clip-path="url(#clip0_5702_62850)">
<path d="M79.8261 3.58203C80.2167 3.58203 80.5775 3.61239 80.9086 3.70346C81.2397 3.76418 81.5112 3.88941 81.753 4.0412C81.9949 4.19299 82.1734 4.40929 82.2962 4.6863C82.4152 4.96332 82.4785 5.30105 82.4785 5.66914C82.4785 6.09795 82.3892 6.46604 82.1771 6.74306C81.9949 7.02007 81.6972 7.26673 81.3327 7.44888C81.846 7.60067 82.2367 7.87769 82.4747 8.24578C82.7128 8.61387 82.8653 9.07303 82.8653 9.59671C82.8653 10.0255 82.7761 10.3936 82.6235 10.701C82.4747 11.0084 82.2329 11.2854 81.9614 11.4675C81.6898 11.6535 81.3587 11.8053 80.9979 11.8963C80.637 11.9874 80.2762 12.0481 79.9153 12.0481L75.8828 12.0557V3.58203H79.8261ZM79.5843 7.02007C79.9153 7.02007 80.1869 6.929 80.3952 6.77342C80.6036 6.61783 80.6966 6.34461 80.6966 6.00688C80.6966 5.82093 80.6668 5.63879 80.6073 5.51735C80.5478 5.39592 80.4585 5.30105 80.3357 5.20998C80.2167 5.14926 80.0939 5.08855 79.9451 5.05819C79.7963 5.02783 79.6438 5.02783 79.4652 5.02783H77.7205V7.02387C77.7205 7.02007 79.5843 7.02007 79.5843 7.02007ZM79.6735 10.6441C79.8558 10.6441 80.0344 10.6137 80.1869 10.5833C80.3357 10.553 80.4882 10.4923 80.6073 10.3974C80.7263 10.3025 80.8193 10.2115 80.9086 10.0597C80.9681 9.90788 81.0276 9.72194 81.0276 9.50563C81.0276 9.07683 80.9086 8.76945 80.6668 8.55315C80.425 8.36721 80.0939 8.27614 79.7033 8.27614H77.7205V10.6403H79.6735V10.6441Z" fill="white"/>
<path d="M85.4887 10.6113C85.7305 10.858 86.0914 10.9794 86.5713 10.9794C86.9024 10.9794 87.2037 10.8884 87.4455 10.7328C87.6873 10.5468 87.8361 10.3647 87.8956 10.1787H89.3687C89.1269 10.9149 88.7661 11.4386 88.2862 11.7763C87.8063 12.0837 87.2334 12.2659 86.5415 12.2659C86.0616 12.2659 85.6375 12.1748 85.2469 12.0192C84.8563 11.8674 84.555 11.6511 84.2834 11.3437C84.0119 11.0667 83.8036 10.729 83.6808 10.3305C83.532 9.93208 83.4688 9.50327 83.4688 9.00996C83.4688 8.55079 83.5283 8.11819 83.6808 7.71974C83.8333 7.32129 84.0416 6.98356 84.3132 6.67619C84.5848 6.39917 84.9158 6.15251 85.2767 6.00072C85.6673 5.84893 86.0579 5.75406 86.5415 5.75406C87.0549 5.75406 87.505 5.84514 87.8956 6.06144C88.2862 6.27774 88.5875 6.5206 88.8293 6.88869C89.0711 7.22642 89.2497 7.62487 89.3725 8.05368C89.432 8.48249 89.4617 8.91509 89.432 9.40461H85.0684C85.0684 9.90552 85.2469 10.3647 85.4887 10.6113ZM87.386 7.3858C87.1739 7.1695 86.8428 7.04807 86.4522 7.04807C86.1807 7.04807 85.9723 7.10879 85.7901 7.19986C85.6078 7.29094 85.4887 7.41616 85.3697 7.53759C85.2507 7.65903 85.1874 7.81461 85.1577 7.9664C85.1279 8.11819 85.0981 8.24342 85.0981 8.36485H87.8063C87.7468 7.90948 87.5943 7.6021 87.386 7.3858ZM84.7373 4.16406H88.1076V4.99132H84.7373V4.16406Z" fill="white"/>
<path d="M91.7726 3.58203V6.77341H91.8024C92.0144 6.40532 92.2823 6.15867 92.6133 6.00688C92.9444 5.85509 93.2457 5.76022 93.5768 5.76022C94.027 5.76022 94.3878 5.82093 94.6594 5.94616C94.9309 6.06759 95.1727 6.25353 95.3215 6.46983C95.4703 6.68614 95.5931 6.95936 95.6526 7.26673C95.7121 7.57411 95.7419 7.91184 95.7419 8.31029V12.0861H94.0865V8.61766C94.0865 8.09399 93.9972 7.7259 93.8447 7.48303C93.6922 7.24017 93.428 7.11115 93.0374 7.11115C92.5873 7.11115 92.2562 7.26294 92.0739 7.5096C91.8619 7.78661 91.7726 8.24578 91.7726 8.86053V12.0861H90.1172V3.58203H91.7726Z" fill="white"/>
<path d="M96.9546 6.83954C97.1369 6.56252 97.3452 6.38037 97.6168 6.19443C97.8883 6.04264 98.1896 5.91742 98.5207 5.8567C98.8518 5.79598 99.1829 5.76562 99.514 5.76562C99.8153 5.76562 100.117 5.79598 100.448 5.82634C100.749 5.8567 101.05 5.94777 101.292 6.073C101.564 6.19443 101.742 6.38037 101.925 6.59668C102.073 6.81298 102.166 7.12035 102.166 7.48844V10.714C102.166 10.991 102.196 11.268 102.226 11.5109C102.256 11.7575 102.345 11.97 102.438 12.0953H100.753C100.693 12.0345 100.663 11.9093 100.634 11.8182C100.604 11.7272 100.604 11.6019 100.604 11.5109C100.332 11.7879 100.031 11.97 99.6702 12.0953C99.3094 12.2167 98.9485 12.2471 98.5877 12.2471C98.2864 12.2471 98.0446 12.2167 97.7767 12.1256C97.5349 12.0649 97.3266 11.9397 97.1146 11.7879C96.9323 11.6361 96.7835 11.4502 96.6644 11.2035C96.5751 10.9568 96.5156 10.714 96.5156 10.3762C96.5156 10.0385 96.5751 9.73114 96.6979 9.51484C96.8169 9.29854 96.9695 9.11639 97.148 8.9608C97.3303 8.83937 97.5684 8.71414 97.8102 8.65343C98.052 8.59271 98.2901 8.532 98.5617 8.50164C98.8035 8.47128 99.0415 8.44092 99.2833 8.41056C99.5251 8.38021 99.7335 8.34985 99.9157 8.31949C100.098 8.25878 100.247 8.19806 100.366 8.10319C100.485 8.01212 100.515 7.88689 100.515 7.70474C100.515 7.5188 100.485 7.36701 100.425 7.27594C100.366 7.18486 100.277 7.08999 100.184 7.02928C100.094 6.96856 99.9715 6.9382 99.8525 6.90784C99.7335 6.87749 99.5809 6.87749 99.4321 6.87749C99.1011 6.87749 98.8593 6.9382 98.6807 7.09379C98.4984 7.24558 98.3794 7.49224 98.3496 7.79961H96.6942C96.683 7.42014 96.8021 7.0824 96.9546 6.83954ZM100.236 9.23403C100.146 9.26438 100.024 9.29474 99.9046 9.3251C99.7855 9.35546 99.6628 9.35546 99.514 9.38582C99.3949 9.41617 99.2424 9.41617 99.1234 9.44653C99.0043 9.47689 98.8816 9.50725 98.7625 9.5376C98.6435 9.56796 98.5207 9.62868 98.4612 9.68939C98.3719 9.75011 98.3124 9.84118 98.2492 9.93605C98.1599 10.0575 98.1599 10.1827 98.1599 10.3345C98.1599 10.4863 98.1896 10.6115 98.2492 10.7026C98.3087 10.7937 98.3682 10.8885 98.4612 10.9493C98.5505 11.01 98.6733 11.0403 98.7923 11.0707C98.9113 11.101 99.0341 11.101 99.1829 11.101C99.514 11.101 99.7558 11.0403 99.9343 10.9493C100.117 10.8278 100.236 10.7026 100.325 10.5508C100.414 10.399 100.474 10.2434 100.474 10.0916C100.504 9.93985 100.504 9.81462 100.504 9.72355V9.07844C100.414 9.13916 100.325 9.20367 100.236 9.23403Z" fill="white"/>
<path d="M104.657 5.91741V6.77882H104.686C104.898 6.41073 105.166 6.16407 105.497 6.01228C105.828 5.86049 106.189 5.76562 106.52 5.76562C106.97 5.76562 107.331 5.82634 107.603 5.95157C107.904 6.073 108.116 6.25894 108.265 6.47524C108.414 6.69154 108.537 6.96477 108.626 7.27214C108.685 7.57951 108.715 7.91725 108.715 8.3157V12.0915H107.06V8.62307C107.06 8.0994 106.97 7.7313 106.818 7.48844C106.669 7.24178 106.398 7.08999 105.973 7.08999C105.523 7.08999 105.192 7.27593 104.98 7.54916C104.768 7.82617 104.679 8.28534 104.679 8.90009V12.1256H103.023V5.91741C103.031 5.91741 104.657 5.91741 104.657 5.91741Z" fill="white"/>
<path d="M112.424 7.02158C112.153 7.02158 111.944 7.08229 111.762 7.20752C111.58 7.32895 111.431 7.48453 111.312 7.69704C111.193 7.88298 111.13 8.09549 111.07 8.34215C111.011 8.58881 111.011 8.80131 111.011 9.04797C111.011 9.26427 111.04 9.50714 111.07 9.72344C111.13 9.9701 111.189 10.1522 111.312 10.3382C111.431 10.5241 111.554 10.6759 111.732 10.7974C111.915 10.9188 112.123 10.9833 112.395 10.9833C112.785 10.9833 113.086 10.8619 113.328 10.6456C113.54 10.4293 113.689 10.1219 113.719 9.72344H115.315C115.196 10.5507 114.894 11.1654 114.381 11.598C113.868 12.0268 113.206 12.2431 112.395 12.2431C111.944 12.2431 111.52 12.1521 111.16 11.9965C110.769 11.8447 110.468 11.6284 110.196 11.3514C109.924 11.0744 109.716 10.7366 109.564 10.3685C109.415 9.9701 109.352 9.57165 109.352 9.10869C109.352 8.61916 109.411 8.18656 109.564 7.78811C109.712 7.38967 109.895 7.02158 110.166 6.7142C110.438 6.40683 110.769 6.19053 111.13 6.00838C111.52 5.85659 111.941 5.76172 112.424 5.76172C112.785 5.76172 113.116 5.82243 113.447 5.91351C113.778 6.00458 114.08 6.16017 114.322 6.34232C114.593 6.52826 114.801 6.77112 114.954 7.0785C115.103 7.35551 115.196 7.7236 115.226 8.12205H113.6C113.537 7.38967 113.146 7.02158 112.424 7.02158Z" fill="white"/>
<path d="M117.815 10.6151C118.057 10.8618 118.448 10.9832 118.898 10.9832C119.229 10.9832 119.53 10.8921 119.772 10.7365C120.014 10.5506 120.163 10.3684 120.222 10.1825H121.666C121.424 10.9187 121.063 11.4423 120.583 11.7801C120.103 12.0875 119.53 12.2696 118.838 12.2696C118.358 12.2696 117.934 12.1785 117.544 12.0229C117.153 11.8712 116.852 11.6549 116.58 11.3475C116.309 11.0705 116.1 10.7327 115.978 10.3343C115.829 9.93583 115.766 9.50702 115.766 9.01371C115.766 8.55454 115.825 8.12194 115.978 7.72349C116.126 7.32504 116.339 6.98731 116.61 6.67994C116.882 6.40292 117.213 6.15626 117.574 6.00447C117.964 5.85268 118.385 5.75781 118.838 5.75781C119.352 5.75781 119.802 5.84889 120.163 6.06519C120.553 6.28149 120.855 6.52435 121.096 6.89244C121.338 7.23018 121.517 7.62862 121.64 8.05743C121.759 8.48624 121.788 8.9492 121.759 9.43872H117.395C117.395 9.90927 117.574 10.3684 117.815 10.6151ZM119.742 7.38955C119.53 7.17325 119.199 7.05182 118.809 7.05182C118.537 7.05182 118.329 7.11254 118.146 7.20361C117.964 7.29469 117.815 7.41991 117.726 7.54134C117.637 7.66278 117.544 7.81836 117.514 7.97015C117.484 8.12194 117.455 8.24717 117.455 8.3686H120.163C120.073 7.91323 119.921 7.60586 119.742 7.38955Z" fill="white"/>
</g>
<defs>
<clipPath id="clip0_5702_62850">
<rect width="45.8831" height="8.68997" fill="white" transform="translate(75.8828 3.58203)"/>
</clipPath>
</defs>
</svg>
