<svg width="198" height="76" viewBox="0 0 198 76" fill="none" xmlns="http://www.w3.org/2000/svg">
<path d="M54.2373 25.4604H56.1021L59.3443 33.377H59.4636L62.7059 25.4604H64.5706V35.6445H63.1087V28.2749H63.0142L60.0106 35.6296H58.7973L55.7938 28.27H55.6993V35.6445H54.2373V25.4604ZM69.3425 35.7987C68.6265 35.7987 68.0015 35.6346 67.4678 35.3064C66.9341 34.9782 66.5197 34.519 66.2246 33.9289C65.9296 33.3388 65.782 32.6493 65.782 31.8603C65.782 31.068 65.9296 30.3751 66.2246 29.7817C66.5197 29.1883 66.9341 28.7275 67.4678 28.3993C68.0015 28.0711 68.6265 27.907 69.3425 27.907C70.0586 27.907 70.6835 28.0711 71.2172 28.3993C71.751 28.7275 72.1654 29.1883 72.4604 29.7817C72.7555 30.3751 72.903 31.068 72.903 31.8603C72.903 32.6493 72.7555 33.3388 72.4604 33.9289C72.1654 34.519 71.751 34.9782 71.2172 35.3064C70.6835 35.6346 70.0586 35.7987 69.3425 35.7987ZM69.3475 34.5505C69.8116 34.5505 70.1962 34.4279 70.5012 34.1825C70.8062 33.9372 71.0316 33.6107 71.1775 33.2029C71.3266 32.7952 71.4012 32.346 71.4012 31.8553C71.4012 31.368 71.3266 30.9204 71.1775 30.5127C71.0316 30.1016 70.8062 29.7717 70.5012 29.5231C70.1962 29.2745 69.8116 29.1501 69.3475 29.1501C68.8801 29.1501 68.4922 29.2745 68.1839 29.5231C67.8789 29.7717 67.6518 30.1016 67.5026 30.5127C67.3567 30.9204 67.2838 31.368 67.2838 31.8553C67.2838 32.346 67.3567 32.7952 67.5026 33.2029C67.6518 33.6107 67.8789 33.9372 68.1839 34.1825C68.4922 34.4279 68.8801 34.5505 69.3475 34.5505ZM79.7261 29.8712L78.3785 30.1099C78.3222 29.9375 78.2327 29.7734 78.11 29.6176C77.9907 29.4618 77.8282 29.3341 77.6227 29.2347C77.4171 29.1352 77.1602 29.0855 76.8519 29.0855C76.4309 29.0855 76.0795 29.18 75.7977 29.3689C75.5159 29.5546 75.375 29.7949 75.375 30.09C75.375 30.3453 75.4695 30.5508 75.6584 30.7066C75.8474 30.8624 76.1524 30.9901 76.5734 31.0895L77.7868 31.368C78.4896 31.5304 79.0134 31.7807 79.3582 32.1189C79.7029 32.457 79.8753 32.8963 79.8753 33.4366C79.8753 33.8941 79.7427 34.3019 79.4775 34.6599C79.2156 35.0147 78.8493 35.2931 78.3785 35.4953C77.9111 35.6976 77.3691 35.7987 76.7524 35.7987C75.8971 35.7987 75.1993 35.6164 74.6589 35.2517C74.1186 34.8837 73.787 34.3616 73.6644 33.6853L75.1015 33.4665C75.191 33.8411 75.375 34.1245 75.6535 34.3168C75.9319 34.5058 76.295 34.6003 76.7425 34.6003C77.2298 34.6003 77.6194 34.4991 77.9111 34.2969C78.2028 34.0914 78.3487 33.8411 78.3487 33.546C78.3487 33.3073 78.2592 33.1068 78.0802 32.9443C77.9045 32.7819 77.6343 32.6592 77.2696 32.5764L75.9767 32.2929C75.2639 32.1305 74.7368 31.8719 74.3954 31.5172C74.0572 31.1624 73.8882 30.7132 73.8882 30.1696C73.8882 29.7187 74.0141 29.3242 74.2661 28.986C74.518 28.6479 74.8661 28.3843 75.3104 28.1954C75.7546 28.0031 76.2635 27.907 76.837 27.907C77.6625 27.907 78.3122 28.086 78.7863 28.444C79.2604 28.7987 79.5736 29.2745 79.7261 29.8712ZM84.5154 28.0064V29.1999H80.3433V28.0064H84.5154ZM81.4622 26.1764H82.949V33.4018C82.949 33.6902 82.9921 33.9074 83.0783 34.0533C83.1645 34.1958 83.2756 34.2936 83.4115 34.3466C83.5507 34.3964 83.7016 34.4212 83.864 34.4212C83.9833 34.4212 84.0878 34.413 84.1773 34.3964C84.2668 34.3798 84.3364 34.3665 84.3861 34.3566L84.6547 35.5849C84.5685 35.618 84.4458 35.6512 84.2867 35.6843C84.1276 35.7208 83.9286 35.7407 83.69 35.744C83.2988 35.7506 82.9341 35.681 82.596 35.5351C82.2578 35.3893 81.9843 35.1638 81.7755 34.8588C81.5666 34.5538 81.4622 34.1709 81.4622 33.7101V26.1764ZM88.7458 35.6445V28.0064H90.183V29.2198H90.2625C90.4018 28.8087 90.6471 28.4855 90.9985 28.2501C91.3532 28.0114 91.7543 27.892 92.2019 27.892C92.2947 27.892 92.4041 27.8954 92.5301 27.902C92.6594 27.9086 92.7605 27.9169 92.8334 27.9268V29.3491C92.7737 29.3325 92.6677 29.3142 92.5152 29.2944C92.3627 29.2711 92.2102 29.2595 92.0577 29.2595C91.7063 29.2595 91.393 29.3341 91.1178 29.4833C90.846 29.6292 90.6305 29.8331 90.4714 30.095C90.3122 30.3535 90.2327 30.6486 90.2327 30.9801V35.6445H88.7458ZM96.5784 35.7987C95.8259 35.7987 95.1778 35.6379 94.6341 35.3163C94.0937 34.9914 93.676 34.5356 93.381 33.9488C93.0892 33.3587 92.9434 32.6675 92.9434 31.8752C92.9434 31.0928 93.0892 30.4033 93.381 29.8065C93.676 29.2098 94.0871 28.744 94.6142 28.4092C95.1446 28.0744 95.7646 27.907 96.474 27.907C96.905 27.907 97.3227 27.9782 97.7271 28.1208C98.1316 28.2633 98.4946 28.4871 98.8162 28.7921C99.1377 29.0971 99.3913 29.4933 99.577 29.9806C99.7626 30.4646 99.8555 31.053 99.8555 31.7459V32.273H93.7838V31.1591H98.3985C98.3985 30.7679 98.3189 30.4215 98.1598 30.1198C98.0006 29.8148 97.7769 29.5745 97.4884 29.3988C97.2033 29.2231 96.8685 29.1352 96.484 29.1352C96.0662 29.1352 95.7016 29.238 95.39 29.4435C95.0816 29.6458 94.843 29.911 94.6739 30.2392C94.5081 30.5641 94.4252 30.9171 94.4252 31.2984V32.1686C94.4252 32.6791 94.5148 33.1134 94.6938 33.4714C94.8761 33.8295 95.1297 34.103 95.4546 34.2919C95.7795 34.4776 96.1591 34.5704 96.5934 34.5704C96.8751 34.5704 97.1321 34.5306 97.3641 34.4511C97.5962 34.3682 97.7968 34.2455 97.9658 34.0831C98.1349 33.9207 98.2642 33.7201 98.3537 33.4814L99.761 33.735C99.6483 34.1494 99.446 34.5124 99.1543 34.824C98.8659 35.1323 98.5029 35.3727 98.0653 35.5451C97.631 35.7141 97.1354 35.7987 96.5784 35.7987ZM107.26 28.0064L104.491 35.6445H102.899L100.125 28.0064H101.721L103.655 33.8842H103.735L105.664 28.0064H107.26ZM108.098 35.6445V28.0064H109.584V35.6445H108.098ZM108.849 26.8279C108.59 26.8279 108.368 26.7417 108.182 26.5693C108 26.3936 107.909 26.1847 107.909 25.9427C107.909 25.6974 108 25.4886 108.182 25.3162C108.368 25.1405 108.59 25.0526 108.849 25.0526C109.107 25.0526 109.328 25.1405 109.51 25.3162C109.696 25.4886 109.788 25.6974 109.788 25.9427C109.788 26.1847 109.696 26.3936 109.51 26.5693C109.328 26.7417 109.107 26.8279 108.849 26.8279ZM114.317 35.7987C113.564 35.7987 112.916 35.6379 112.372 35.3163C111.832 34.9914 111.414 34.5356 111.119 33.9488C110.827 33.3587 110.682 32.6675 110.682 31.8752C110.682 31.0928 110.827 30.4033 111.119 29.8065C111.414 29.2098 111.825 28.744 112.352 28.4092C112.883 28.0744 113.503 27.907 114.212 27.907C114.643 27.907 115.061 27.9782 115.465 28.1208C115.87 28.2633 116.233 28.4871 116.554 28.7921C116.876 29.0971 117.129 29.4933 117.315 29.9806C117.501 30.4646 117.594 31.053 117.594 31.7459V32.273H111.522V31.1591H116.137C116.137 30.7679 116.057 30.4215 115.898 30.1198C115.739 29.8148 115.515 29.5745 115.227 29.3988C114.941 29.2231 114.607 29.1352 114.222 29.1352C113.804 29.1352 113.44 29.238 113.128 29.4435C112.82 29.6458 112.581 29.911 112.412 30.2392C112.246 30.5641 112.163 30.9171 112.163 31.2984V32.1686C112.163 32.6791 112.253 33.1134 112.432 33.4714C112.614 33.8295 112.868 34.103 113.193 34.2919C113.518 34.4776 113.897 34.5704 114.331 34.5704C114.613 34.5704 114.87 34.5306 115.102 34.4511C115.334 34.3682 115.535 34.2455 115.704 34.0831C115.873 33.9207 116.002 33.7201 116.092 33.4814L117.499 33.735C117.386 34.1494 117.184 34.5124 116.892 34.824C116.604 35.1323 116.241 35.3727 115.803 35.5451C115.369 35.7141 114.874 35.7987 114.317 35.7987ZM120.325 35.6445L118.078 28.0064H119.614L121.111 33.6157H121.186L122.687 28.0064H124.224L125.716 33.5908H125.79L127.277 28.0064H128.814L126.571 35.6445H125.054L123.503 30.1298H123.389L121.837 35.6445H120.325ZM132.724 35.7987C131.972 35.7987 131.324 35.6379 130.78 35.3163C130.24 34.9914 129.822 34.5356 129.527 33.9488C129.235 33.3587 129.089 32.6675 129.089 31.8752C129.089 31.0928 129.235 30.4033 129.527 29.8065C129.822 29.2098 130.233 28.744 130.76 28.4092C131.29 28.0744 131.91 27.907 132.62 27.907C133.051 27.907 133.468 27.9782 133.873 28.1208C134.277 28.2633 134.64 28.4871 134.962 28.7921C135.284 29.0971 135.537 29.4933 135.723 29.9806C135.908 30.4646 136.001 31.053 136.001 31.7459V32.273H129.93V31.1591H134.544C134.544 30.7679 134.465 30.4215 134.306 30.1198C134.146 29.8148 133.923 29.5745 133.634 29.3988C133.349 29.2231 133.014 29.1352 132.63 29.1352C132.212 29.1352 131.847 29.238 131.536 29.4435C131.227 29.6458 130.989 29.911 130.82 30.2392C130.654 30.5641 130.571 30.9171 130.571 31.2984V32.1686C130.571 32.6791 130.661 33.1134 130.84 33.4714C131.022 33.8295 131.276 34.103 131.6 34.2919C131.925 34.4776 132.305 34.5704 132.739 34.5704C133.021 34.5704 133.278 34.5306 133.51 34.4511C133.742 34.3682 133.943 34.2455 134.112 34.0831C134.281 33.9207 134.41 33.7201 134.5 33.4814L135.907 33.735C135.794 34.1494 135.592 34.5124 135.3 34.824C135.012 35.1323 134.649 35.3727 134.211 35.5451C133.777 35.7141 133.281 35.7987 132.724 35.7987ZM139.95 35.7937C139.334 35.7937 138.783 35.6362 138.299 35.3213C137.819 35.003 137.441 34.5505 137.165 33.9637C136.894 33.3736 136.758 32.6659 136.758 31.8404C136.758 31.0149 136.895 30.3088 137.17 29.722C137.449 29.1352 137.83 28.686 138.314 28.3744C138.798 28.0628 139.347 27.907 139.96 27.907C140.434 27.907 140.815 27.9865 141.104 28.1456C141.396 28.3015 141.621 28.4838 141.78 28.6926C141.943 28.9015 142.069 29.0855 142.158 29.2446H142.248V25.4604H143.734V35.6445H142.282V34.456H142.158C142.069 34.6185 141.939 34.8041 141.77 35.013C141.604 35.2218 141.376 35.4042 141.084 35.56C140.792 35.7158 140.414 35.7937 139.95 35.7937ZM140.278 34.5257C140.706 34.5257 141.067 34.413 141.362 34.1875C141.661 33.9588 141.886 33.6422 142.039 33.2377C142.195 32.8333 142.272 32.3625 142.272 31.8255C142.272 31.295 142.196 30.8309 142.044 30.4331C141.891 30.0353 141.667 29.7253 141.372 29.5032C141.077 29.2811 140.713 29.17 140.278 29.17C139.831 29.17 139.458 29.2861 139.16 29.5181C138.861 29.7502 138.636 30.0668 138.483 30.4679C138.334 30.869 138.259 31.3216 138.259 31.8255C138.259 32.336 138.336 32.7952 138.488 33.2029C138.641 33.6107 138.866 33.9339 139.164 34.1726C139.466 34.408 139.837 34.5257 140.278 34.5257ZM51.1968 44.1357C51.1438 43.665 50.925 43.3003 50.5404 43.0417C50.1559 42.7798 49.6719 42.6489 49.0884 42.6489C48.6707 42.6489 48.3093 42.7152 48.0043 42.8478C47.6993 42.9771 47.4623 43.1561 47.2932 43.3848C47.1275 43.6103 47.0446 43.8672 47.0446 44.1556C47.0446 44.3976 47.1009 44.6065 47.2137 44.7822C47.3297 44.9579 47.4805 45.1054 47.6662 45.2247C47.8551 45.3408 48.0574 45.4386 48.2729 45.5181C48.4883 45.5944 48.6955 45.6574 48.8944 45.7071L49.889 45.9657C50.2139 46.0452 50.5471 46.153 50.8885 46.2889C51.23 46.4248 51.5466 46.6038 51.8383 46.826C52.13 47.0481 52.3654 47.3232 52.5444 47.6514C52.7268 47.9796 52.8179 48.3725 52.8179 48.83C52.8179 49.4068 52.6688 49.919 52.3704 50.3665C52.0753 50.8141 51.646 51.1671 51.0825 51.4257C50.5222 51.6843 49.8442 51.8136 49.0486 51.8136C48.2861 51.8136 47.6264 51.6926 47.0695 51.4506C46.5125 51.2086 46.0766 50.8655 45.7616 50.4212C45.4467 49.9737 45.2726 49.4433 45.2395 48.83H46.781C46.8109 49.1979 46.9302 49.5046 47.1391 49.7499C47.3512 49.9919 47.6214 50.1726 47.9496 50.2919C48.2811 50.408 48.6442 50.466 49.0387 50.466C49.4729 50.466 49.8592 50.398 50.1973 50.2621C50.5388 50.1229 50.8073 49.9306 51.0029 49.6853C51.1985 49.4366 51.2963 49.1466 51.2963 48.815C51.2963 48.5134 51.2101 48.2664 51.0377 48.0741C50.8686 47.8818 50.6382 47.7227 50.3465 47.5967C50.0581 47.4708 49.7315 47.3597 49.3669 47.2636L48.1635 46.9354C47.3479 46.7132 46.7015 46.3867 46.2241 45.9557C45.75 45.5248 45.513 44.9545 45.513 44.2451C45.513 43.6583 45.6721 43.1461 45.9904 42.7085C46.3086 42.2709 46.7396 41.9311 47.2833 41.6891C47.827 41.4438 48.4403 41.3211 49.1232 41.3211C49.8127 41.3211 50.4211 41.4421 50.9482 41.6841C51.4786 41.9262 51.8963 42.2593 52.2013 42.6837C52.5063 43.1047 52.6654 43.5887 52.6787 44.1357H51.1968ZM55.4615 47.1094V51.6445H53.9746V41.4604H55.4416V45.2496H55.5361C55.7151 44.8385 55.9886 44.512 56.3566 44.27C56.7246 44.028 57.2053 43.907 57.7987 43.907C58.3225 43.907 58.78 44.0147 59.1711 44.2302C59.5657 44.4457 59.8706 44.7672 60.0861 45.1949C60.3049 45.6192 60.4143 46.1497 60.4143 46.7862V51.6445H58.9275V46.9652C58.9275 46.4049 58.7833 45.9706 58.4949 45.6623C58.2064 45.3507 57.8053 45.1949 57.2915 45.1949C56.94 45.1949 56.6251 45.2695 56.3466 45.4187C56.0715 45.5679 55.8543 45.7867 55.6952 46.0751C55.5394 46.3602 55.4615 46.7049 55.4615 47.1094ZM65.0557 51.7987C64.3396 51.7987 63.7147 51.6346 63.181 51.3064C62.6472 50.9782 62.2328 50.519 61.9378 49.9289C61.6427 49.3388 61.4952 48.6493 61.4952 47.8603C61.4952 47.068 61.6427 46.3751 61.9378 45.7817C62.2328 45.1883 62.6472 44.7275 63.181 44.3993C63.7147 44.0711 64.3396 43.907 65.0557 43.907C65.7718 43.907 66.3967 44.0711 66.9304 44.3993C67.4641 44.7275 67.8785 45.1883 68.1736 45.7817C68.4686 46.3751 68.6162 47.068 68.6162 47.8603C68.6162 48.6493 68.4686 49.3388 68.1736 49.9289C67.8785 50.519 67.4641 50.9782 66.9304 51.3064C66.3967 51.6346 65.7718 51.7987 65.0557 51.7987ZM65.0607 50.5505C65.5248 50.5505 65.9093 50.4279 66.2143 50.1825C66.5193 49.9372 66.7448 49.6107 66.8906 49.2029C67.0398 48.7952 67.1144 48.346 67.1144 47.8553C67.1144 47.368 67.0398 46.9204 66.8906 46.5127C66.7448 46.1016 66.5193 45.7717 66.2143 45.5231C65.9093 45.2745 65.5248 45.1501 65.0607 45.1501C64.5932 45.1501 64.2053 45.2745 63.897 45.5231C63.592 45.7717 63.365 46.1016 63.2158 46.5127C63.0699 46.9204 62.997 47.368 62.997 47.8553C62.997 48.346 63.0699 48.7952 63.2158 49.2029C63.365 49.6107 63.592 49.9372 63.897 50.1825C64.2053 50.4279 64.5932 50.5505 65.0607 50.5505ZM69.7157 54.5088V44.0064H71.1677V45.2446H71.292C71.3782 45.0855 71.5026 44.9015 71.665 44.6926C71.8274 44.4838 72.0529 44.3015 72.3413 44.1456C72.6297 43.9865 73.0109 43.907 73.485 43.907C74.1016 43.907 74.6519 44.0628 75.136 44.3744C75.62 44.686 75.9996 45.1352 76.2747 45.722C76.5532 46.3088 76.6924 47.0149 76.6924 47.8404C76.6924 48.6659 76.5548 49.3736 76.2797 49.9637C76.0045 50.5505 75.6266 51.003 75.1459 51.3213C74.6652 51.6362 74.1166 51.7937 73.4999 51.7937C73.0358 51.7937 72.6562 51.7158 72.3612 51.56C72.0694 51.4042 71.8407 51.2218 71.6749 51.013C71.5092 50.8041 71.3815 50.6185 71.292 50.456H71.2025V54.5088H69.7157ZM71.1727 47.8255C71.1727 48.3625 71.2506 48.8333 71.4064 49.2377C71.5622 49.6422 71.7877 49.9588 72.0827 50.1875C72.3778 50.413 72.7391 50.5257 73.1668 50.5257C73.611 50.5257 73.9823 50.408 74.2807 50.1726C74.579 49.9339 74.8044 49.6107 74.9569 49.2029C75.1128 48.7952 75.1907 48.336 75.1907 47.8255C75.1907 47.3216 75.1144 46.869 74.9619 46.4679C74.8127 46.0668 74.5873 45.7502 74.2856 45.5181C73.9873 45.2861 73.6143 45.17 73.1668 45.17C72.7358 45.17 72.3711 45.2811 72.0728 45.5032C71.7777 45.7253 71.5539 46.0353 71.4014 46.4331C71.2489 46.8309 71.1727 47.295 71.1727 47.8255ZM77.7982 51.6445V44.0064H79.285V51.6445H77.7982ZM78.549 42.8279C78.2905 42.8279 78.0683 42.7417 77.8827 42.5693C77.7004 42.3936 77.6092 42.1847 77.6092 41.9427C77.6092 41.6974 77.7004 41.4886 77.8827 41.3162C78.0683 41.1405 78.2905 41.0526 78.549 41.0526C78.8076 41.0526 79.0281 41.1405 79.2104 41.3162C79.3961 41.4886 79.4889 41.6974 79.4889 41.9427C79.4889 42.1847 79.3961 42.3936 79.2104 42.5693C79.0281 42.7417 78.8076 42.8279 78.549 42.8279ZM84.3602 44.0064V45.1999H80.0439V44.0064H84.3602ZM81.2274 51.6445V43.1213C81.2274 42.6439 81.3318 42.2477 81.5407 41.9328C81.7495 41.6145 82.0264 41.3775 82.3711 41.2217C82.7159 41.0626 83.0905 40.983 83.495 40.983C83.7933 40.983 84.0486 41.0079 84.2608 41.0576C84.4729 41.104 84.6304 41.1471 84.7332 41.1869L84.3851 42.3903C84.3155 42.3704 84.226 42.3472 84.1166 42.3207C84.0072 42.2908 83.8746 42.2759 83.7187 42.2759C83.3574 42.2759 83.0988 42.3654 82.943 42.5444C82.7905 42.7234 82.7143 42.982 82.7143 43.3202V51.6445H81.2274ZM86.274 54.5088C86.0519 54.5088 85.8497 54.4906 85.6674 54.4541C85.485 54.421 85.3491 54.3845 85.2596 54.3447L85.6176 53.1264C85.8895 53.1993 86.1315 53.2308 86.3437 53.2209C86.5558 53.2109 86.7431 53.1314 86.9056 52.9822C87.0713 52.833 87.2172 52.5894 87.3432 52.2512L87.5272 51.744L84.7325 44.0064H86.3238L88.2582 49.9339H88.3377L90.2721 44.0064H91.8684L88.7206 52.6639C88.5748 53.0618 88.3891 53.3982 88.1637 53.6734C87.9382 53.9519 87.6697 54.1607 87.3581 54.3C87.0465 54.4392 86.6851 54.5088 86.274 54.5088ZM99.0687 51.7987C98.3295 51.7987 97.6929 51.6313 97.1592 51.2964C96.6288 50.9583 96.221 50.4925 95.9359 49.8991C95.6508 49.3057 95.5083 48.6261 95.5083 47.8603C95.5083 47.0845 95.6541 46.4 95.9459 45.8065C96.2376 45.2098 96.6487 44.744 97.1791 44.4092C97.7095 44.0744 98.3344 43.907 99.0538 43.907C99.634 43.907 100.151 44.0147 100.605 44.2302C101.059 44.4424 101.426 44.7407 101.704 45.1253C101.986 45.5098 102.153 45.959 102.207 46.4729H100.759C100.68 46.1149 100.498 45.8065 100.212 45.548C99.9307 45.2894 99.5527 45.1601 99.0787 45.1601C98.6643 45.1601 98.3013 45.2695 97.9896 45.4883C97.6813 45.7038 97.441 46.0121 97.2686 46.4132C97.0962 46.811 97.01 47.2818 97.01 47.8255C97.01 48.3824 97.0946 48.8631 97.2636 49.2676C97.4327 49.672 97.6714 49.9853 97.9797 50.2074C98.2913 50.4295 98.6577 50.5406 99.0787 50.5406C99.3605 50.5406 99.6157 50.4892 99.8445 50.3864C100.077 50.2803 100.27 50.1295 100.426 49.9339C100.585 49.7383 100.696 49.5029 100.759 49.2278H102.207C102.153 49.7217 101.993 50.1627 101.724 50.5505C101.456 50.9384 101.096 51.2434 100.645 51.4655C100.198 51.6876 99.6721 51.7987 99.0687 51.7987ZM106.454 51.7987C105.738 51.7987 105.113 51.6346 104.579 51.3064C104.045 50.9782 103.631 50.519 103.336 49.9289C103.041 49.3388 102.893 48.6493 102.893 47.8603C102.893 47.068 103.041 46.3751 103.336 45.7817C103.631 45.1883 104.045 44.7275 104.579 44.3993C105.113 44.0711 105.738 43.907 106.454 43.907C107.17 43.907 107.795 44.0711 108.329 44.3993C108.862 44.7275 109.277 45.1883 109.572 45.7817C109.867 46.3751 110.014 47.068 110.014 47.8603C110.014 48.6493 109.867 49.3388 109.572 49.9289C109.277 50.519 108.862 50.9782 108.329 51.3064C107.795 51.6346 107.17 51.7987 106.454 51.7987ZM106.459 50.5505C106.923 50.5505 107.307 50.4279 107.612 50.1825C107.917 49.9372 108.143 49.6107 108.289 49.2029C108.438 48.7952 108.513 48.346 108.513 47.8553C108.513 47.368 108.438 46.9204 108.289 46.5127C108.143 46.1016 107.917 45.7717 107.612 45.5231C107.307 45.2745 106.923 45.1501 106.459 45.1501C105.991 45.1501 105.603 45.2745 105.295 45.5231C104.99 45.7717 104.763 46.1016 104.614 46.5127C104.468 46.9204 104.395 47.368 104.395 47.8553C104.395 48.346 104.468 48.7952 104.614 49.2029C104.763 49.6107 104.99 49.9372 105.295 50.1825C105.603 50.4279 105.991 50.5505 106.459 50.5505ZM111.114 51.6445V44.0064H112.541V45.2496H112.635C112.795 44.8286 113.055 44.5004 113.416 44.265C113.778 44.0263 114.21 43.907 114.714 43.907C115.225 43.907 115.652 44.0263 115.997 44.265C116.345 44.5037 116.602 44.8319 116.768 45.2496H116.847C117.03 44.8418 117.32 44.5169 117.718 44.2749C118.115 44.0296 118.589 43.907 119.14 43.907C119.833 43.907 120.398 44.1241 120.835 44.5584C121.276 44.9927 121.497 45.6474 121.497 46.5226V51.6445H120.01V46.6619C120.01 46.1447 119.869 45.7701 119.587 45.538C119.306 45.306 118.969 45.1899 118.578 45.1899C118.094 45.1899 117.718 45.3391 117.449 45.6375C117.181 45.9325 117.046 46.3121 117.046 46.7762V51.6445H115.564V46.5674C115.564 46.153 115.435 45.8198 115.177 45.5679C114.918 45.3159 114.581 45.1899 114.167 45.1899C113.885 45.1899 113.625 45.2645 113.386 45.4137C113.151 45.5596 112.96 45.7634 112.814 46.0253C112.672 46.2872 112.601 46.5906 112.601 46.9354V51.6445H111.114ZM122.93 54.5088V44.0064H124.382V45.2446H124.506C124.592 45.0855 124.716 44.9015 124.879 44.6926C125.041 44.4838 125.267 44.3015 125.555 44.1456C125.844 43.9865 126.225 43.907 126.699 43.907C127.316 43.907 127.866 44.0628 128.35 44.3744C128.834 44.686 129.213 45.1352 129.489 45.722C129.767 46.3088 129.906 47.0149 129.906 47.8404C129.906 48.6659 129.769 49.3736 129.494 49.9637C129.218 50.5505 128.84 51.003 128.36 51.3213C127.879 51.6362 127.33 51.7937 126.714 51.7937C126.25 51.7937 125.87 51.7158 125.575 51.56C125.283 51.4042 125.055 51.2218 124.889 51.013C124.723 50.8041 124.595 50.6185 124.506 50.456H124.416V54.5088H122.93ZM124.387 47.8255C124.387 48.3625 124.464 48.8333 124.62 49.2377C124.776 49.6422 125.002 49.9588 125.297 50.1875C125.592 50.413 125.953 50.5257 126.381 50.5257C126.825 50.5257 127.196 50.408 127.495 50.1726C127.793 49.9339 128.018 49.6107 128.171 49.2029C128.327 48.7952 128.405 48.336 128.405 47.8255C128.405 47.3216 128.328 46.869 128.176 46.4679C128.027 46.0668 127.801 45.7502 127.499 45.5181C127.201 45.2861 126.828 45.17 126.381 45.17C125.95 45.17 125.585 45.2811 125.287 45.5032C124.992 45.7253 124.768 46.0353 124.615 46.4331C124.463 46.8309 124.387 47.295 124.387 47.8255ZM133.235 51.8136C132.751 51.8136 132.313 51.7241 131.922 51.5451C131.531 51.3627 131.221 51.0992 130.992 50.7544C130.767 50.4096 130.654 49.987 130.654 49.4864C130.654 49.0554 130.737 48.7007 130.903 48.4222C131.068 48.1437 131.292 47.9233 131.574 47.7608C131.856 47.5984 132.171 47.4757 132.519 47.3928C132.867 47.31 133.222 47.247 133.583 47.2039C134.04 47.1508 134.412 47.1077 134.697 47.0746C134.982 47.0381 135.189 46.9801 135.318 46.9005C135.448 46.821 135.512 46.6917 135.512 46.5127V46.4779C135.512 46.0436 135.39 45.7071 135.144 45.4684C134.902 45.2297 134.541 45.1104 134.06 45.1104C133.56 45.1104 133.165 45.2214 132.877 45.4435C132.592 45.6623 132.394 45.906 132.285 46.1745L130.888 45.8563C131.053 45.3921 131.295 45.0175 131.614 44.7324C131.935 44.444 132.305 44.2352 132.723 44.1059C133.14 43.9733 133.58 43.907 134.04 43.907C134.345 43.907 134.669 43.9434 135.01 44.0164C135.355 44.086 135.676 44.2153 135.975 44.4042C136.276 44.5932 136.523 44.8634 136.716 45.2148C136.908 45.5629 137.004 46.0154 137.004 46.5723V51.6445H135.552V50.6003H135.492C135.396 50.7925 135.252 50.9815 135.06 51.1671C134.868 51.3528 134.621 51.507 134.319 51.6296C134.017 51.7523 133.656 51.8136 133.235 51.8136ZM133.558 50.6201C133.969 50.6201 134.321 50.5389 134.612 50.3765C134.907 50.214 135.131 50.0019 135.284 49.74C135.439 49.4748 135.517 49.1913 135.517 48.8896V47.905C135.464 47.9581 135.362 48.0078 135.209 48.0542C135.06 48.0973 134.889 48.1354 134.697 48.1686C134.505 48.1984 134.317 48.2266 134.135 48.2531C133.953 48.2763 133.8 48.2962 133.677 48.3128C133.389 48.3493 133.125 48.4106 132.887 48.4968C132.651 48.583 132.462 48.7073 132.32 48.8697C132.181 49.0289 132.111 49.241 132.111 49.5063C132.111 49.8742 132.247 50.1527 132.519 50.3417C132.791 50.5273 133.137 50.6201 133.558 50.6201ZM139.911 47.1094V51.6445H138.424V44.0064H139.852V45.2496H139.946C140.122 44.8451 140.397 44.5203 140.772 44.2749C141.149 44.0296 141.625 43.907 142.199 43.907C142.719 43.907 143.175 44.0164 143.566 44.2352C143.957 44.4506 144.261 44.7722 144.476 45.1999C144.692 45.6275 144.799 46.1563 144.799 46.7862V51.6445H143.313V46.9652C143.313 46.4116 143.168 45.9789 142.88 45.6673C142.592 45.3524 142.195 45.1949 141.692 45.1949C141.347 45.1949 141.04 45.2695 140.772 45.4187C140.506 45.5679 140.296 45.7867 140.14 46.0751C139.988 46.3602 139.911 46.7049 139.911 47.1094ZM146.9 54.5088C146.678 54.5088 146.475 54.4906 146.293 54.4541C146.111 54.421 145.975 54.3845 145.885 54.3447L146.243 53.1264C146.515 53.1993 146.757 53.2308 146.969 53.2209C147.182 53.2109 147.369 53.1314 147.531 52.9822C147.697 52.833 147.843 52.5894 147.969 52.2512L148.153 51.744L145.358 44.0064H146.949L148.884 49.9339H148.963L150.898 44.0064H152.494L149.346 52.6639C149.2 53.0618 149.015 53.3982 148.789 53.6734C148.564 53.9519 148.295 54.1607 147.984 54.3C147.672 54.4392 147.311 54.5088 146.9 54.5088Z" fill="white"/>
<path d="M63.3877 67.3907V66.642H67.8488V67.3907H66.0503V72.4062H65.1834V67.3907H63.3877ZM69.3708 69.8394V72.4062H68.5293V66.642H69.3596V68.7867H69.413C69.5144 68.5541 69.6692 68.3692 69.8774 68.2323C70.0857 68.0953 70.3578 68.0268 70.6937 68.0268C70.9901 68.0268 71.2491 68.0878 71.4705 68.2097C71.6938 68.3317 71.8664 68.5137 71.9883 68.7558C72.1122 68.9959 72.1741 69.2962 72.1741 69.6564V72.4062H71.3326V69.7578C71.3326 69.4406 71.2509 69.1948 71.0877 69.0203C70.9244 68.844 70.6974 68.7558 70.4066 68.7558C70.2077 68.7558 70.0294 68.798 69.8718 68.8824C69.7161 68.9669 69.5932 69.0907 69.5031 69.2539C69.4149 69.4153 69.3708 69.6105 69.3708 69.8394ZM74.9226 72.4935C74.4966 72.4935 74.1298 72.4025 73.8221 72.2205C73.5162 72.0366 73.2798 71.7786 73.1128 71.4465C72.9477 71.1125 72.8651 70.7213 72.8651 70.2728C72.8651 69.83 72.9477 69.4397 73.1128 69.102C73.2798 68.7642 73.5125 68.5006 73.8108 68.3111C74.111 68.1216 74.4619 68.0268 74.8635 68.0268C75.1074 68.0268 75.3438 68.0671 75.5727 68.1478C75.8017 68.2285 76.0071 68.3552 76.1891 68.5278C76.3711 68.7004 76.5147 68.9246 76.6198 69.2005C76.7248 69.4744 76.7774 69.8075 76.7774 70.1996V70.498H73.3408V69.8675H75.9527C75.9527 69.6461 75.9077 69.45 75.8176 69.2793C75.7275 69.1067 75.6009 68.9706 75.4376 68.8712C75.2763 68.7717 75.0868 68.722 74.8691 68.722C74.6327 68.722 74.4263 68.7802 74.2499 68.8965C74.0754 69.011 73.9403 69.1611 73.8446 69.3468C73.7508 69.5307 73.7039 69.7305 73.7039 69.9463V70.4389C73.7039 70.7278 73.7545 70.9736 73.8559 71.1763C73.9591 71.3789 74.1026 71.5337 74.2865 71.6407C74.4704 71.7458 74.6852 71.7983 74.931 71.7983C75.0905 71.7983 75.2359 71.7758 75.3673 71.7308C75.4986 71.6838 75.6121 71.6144 75.7078 71.5225C75.8035 71.4305 75.8767 71.317 75.9274 71.1819L76.7239 71.3255C76.6601 71.56 76.5456 71.7655 76.3805 71.9418C76.2173 72.1164 76.0118 72.2524 75.7641 72.35C75.5183 72.4457 75.2378 72.4935 74.9226 72.4935ZM79.4007 66.642H80.4561L82.2912 71.1228H82.3587L84.1938 66.642H85.2493V72.4062H84.4218V68.2351H84.3683L82.6684 72.3978H81.9816L80.2816 68.2323H80.2281V72.4062H79.4007V66.642ZM87.4665 72.5019C87.1926 72.5019 86.9449 72.4513 86.7235 72.35C86.5021 72.2468 86.3266 72.0976 86.1972 71.9024C86.0696 71.7073 86.0058 71.4681 86.0058 71.1847C86.0058 70.9408 86.0527 70.74 86.1465 70.5824C86.2403 70.4248 86.367 70.3 86.5265 70.2081C86.686 70.1161 86.8642 70.0467 87.0612 69.9998C87.2582 69.9529 87.459 69.9172 87.6635 69.8929C87.9225 69.8628 88.1326 69.8384 88.294 69.8197C88.4554 69.799 88.5726 69.7662 88.6458 69.7212C88.719 69.6761 88.7556 69.603 88.7556 69.5016V69.4819C88.7556 69.2361 88.6862 69.0457 88.5473 68.9106C88.4103 68.7755 88.2058 68.7079 87.9337 68.7079C87.6504 68.7079 87.4271 68.7708 87.2639 68.8965C87.1025 69.0203 86.9909 69.1583 86.9289 69.3102L86.1381 69.1301C86.2319 68.8674 86.3688 68.6554 86.549 68.494C86.731 68.3308 86.9402 68.2126 87.1766 68.1394C87.413 68.0643 87.6617 68.0268 87.9225 68.0268C88.0951 68.0268 88.2781 68.0474 88.4713 68.0887C88.6665 68.1281 88.8485 68.2013 89.0173 68.3083C89.1881 68.4152 89.3279 68.5681 89.4367 68.767C89.5455 68.964 89.6 69.2202 89.6 69.5354V72.4062H88.7781V71.8152H88.7443C88.6899 71.924 88.6083 72.031 88.4995 72.1361C88.3906 72.2411 88.2508 72.3284 88.0801 72.3978C87.9093 72.4672 87.7048 72.5019 87.4665 72.5019ZM87.6495 71.8265C87.8821 71.8265 88.081 71.7805 88.2462 71.6885C88.4132 71.5966 88.5398 71.4765 88.6261 71.3283C88.7143 71.1782 88.7584 71.0177 88.7584 70.847V70.2897C88.7284 70.3197 88.6702 70.3479 88.5839 70.3741C88.4995 70.3985 88.4028 70.4201 88.294 70.4389C88.1852 70.4558 88.0792 70.4717 87.976 70.4867C87.8728 70.4999 87.7864 70.5111 87.717 70.5205C87.5538 70.5411 87.4046 70.5759 87.2695 70.6246C87.1363 70.6734 87.0293 70.7438 86.9486 70.8357C86.8698 70.9258 86.8304 71.0459 86.8304 71.196C86.8304 71.4043 86.9074 71.5619 87.0612 71.6688C87.2151 71.7739 87.4112 71.8265 87.6495 71.8265ZM91.3246 69.8394V72.4062H90.4831V68.0831H91.2909V68.7867H91.3443C91.4438 68.5578 91.5995 68.3739 91.8115 68.2351C92.0255 68.0962 92.2947 68.0268 92.6193 68.0268C92.9139 68.0268 93.1719 68.0887 93.3933 68.2126C93.6147 68.3345 93.7864 68.5165 93.9084 68.7586C94.0304 69.0006 94.0913 69.2999 94.0913 69.6564V72.4062H93.2498V69.7578C93.2498 69.4444 93.1682 69.1995 93.0049 69.0232C92.8417 68.8449 92.6175 68.7558 92.3322 68.7558C92.1371 68.7558 91.9635 68.798 91.8115 68.8824C91.6614 68.9669 91.5423 69.0907 91.4541 69.2539C91.3678 69.4153 91.3246 69.6105 91.3246 69.8394ZM94.9822 72.4062V68.0831H95.8238V72.4062H94.9822ZM95.4072 67.416C95.2608 67.416 95.1351 67.3673 95.0301 67.2697C94.9269 67.1702 94.8753 67.052 94.8753 66.915C94.8753 66.7762 94.9269 66.658 95.0301 66.5604C95.1351 66.461 95.2608 66.4112 95.4072 66.4112C95.5536 66.4112 95.6783 66.461 95.7815 66.5604C95.8866 66.658 95.9392 66.7762 95.9392 66.915C95.9392 67.052 95.8866 67.1702 95.7815 67.2697C95.6783 67.3673 95.5536 67.416 95.4072 67.416ZM98.7756 68.0831V68.7586H96.3325V68.0831H98.7756ZM97.0024 72.4062V67.5821C97.0024 67.3119 97.0615 67.0877 97.1797 66.9094C97.2979 66.7293 97.4546 66.5951 97.6498 66.5069C97.8449 66.4169 98.0569 66.3718 98.2858 66.3718C98.4547 66.3718 98.5992 66.3859 98.7193 66.4141C98.8394 66.4403 98.9285 66.4647 98.9867 66.4872L98.7897 67.1684C98.7502 67.1571 98.6996 67.144 98.6377 67.129C98.5757 67.1121 98.5007 67.1036 98.4125 67.1036C98.208 67.1036 98.0616 67.1543 97.9734 67.2556C97.8871 67.3569 97.844 67.5033 97.844 67.6947V72.4062H97.0024ZM101.099 72.4935C100.673 72.4935 100.306 72.4025 99.9986 72.2205C99.6927 72.0366 99.4563 71.7786 99.2893 71.4465C99.1242 71.1125 99.0416 70.7213 99.0416 70.2728C99.0416 69.83 99.1242 69.4397 99.2893 69.102C99.4563 68.7642 99.689 68.5006 99.9873 68.3111C100.288 68.1216 100.638 68.0268 101.04 68.0268C101.284 68.0268 101.52 68.0671 101.749 68.1478C101.978 68.2285 102.184 68.3552 102.366 68.5278C102.548 68.7004 102.691 68.9246 102.796 69.2005C102.901 69.4744 102.954 69.8075 102.954 70.1996V70.498H99.5173V69.8675H102.129C102.129 69.6461 102.084 69.45 101.994 69.2793C101.904 69.1067 101.777 68.9706 101.614 68.8712C101.453 68.7717 101.263 68.722 101.046 68.722C100.809 68.722 100.603 68.7802 100.426 68.8965C100.252 69.011 100.117 69.1611 100.021 69.3468C99.9273 69.5307 99.8803 69.7305 99.8803 69.9463V70.4389C99.8803 70.7278 99.931 70.9736 100.032 71.1763C100.136 71.3789 100.279 71.5337 100.463 71.6407C100.647 71.7458 100.862 71.7983 101.107 71.7983C101.267 71.7983 101.412 71.7758 101.544 71.7308C101.675 71.6838 101.789 71.6144 101.884 71.5225C101.98 71.4305 102.053 71.317 102.104 71.1819L102.9 71.3255C102.837 71.56 102.722 71.7655 102.557 71.9418C102.394 72.1164 102.188 72.2524 101.941 72.35C101.695 72.4457 101.414 72.4935 101.099 72.4935ZM106.889 69.1385L106.127 69.2736C106.095 69.1761 106.044 69.0832 105.975 68.995C105.907 68.9068 105.815 68.8346 105.699 68.7783C105.582 68.722 105.437 68.6938 105.263 68.6938C105.024 68.6938 104.825 68.7473 104.666 68.8543C104.506 68.9594 104.427 69.0954 104.427 69.2624C104.427 69.4069 104.48 69.5232 104.587 69.6114C104.694 69.6996 104.867 69.7718 105.105 69.8281L105.792 69.9857C106.189 70.0777 106.486 70.2193 106.681 70.4107C106.876 70.6021 106.974 70.8507 106.974 71.1566C106.974 71.4155 106.899 71.6463 106.749 71.849C106.6 72.0497 106.393 72.2074 106.127 72.3218C105.862 72.4363 105.555 72.4935 105.206 72.4935C104.722 72.4935 104.327 72.3903 104.021 72.1839C103.715 71.9756 103.528 71.6801 103.458 71.2973L104.272 71.1735C104.322 71.3855 104.427 71.5459 104.584 71.6548C104.742 71.7617 104.947 71.8152 105.201 71.8152C105.476 71.8152 105.697 71.758 105.862 71.6435C106.027 71.5272 106.11 71.3855 106.11 71.2185C106.11 71.0834 106.059 70.9699 105.958 70.8779C105.858 70.786 105.705 70.7166 105.499 70.6697L104.767 70.5092C104.364 70.4173 104.065 70.2709 103.872 70.0702C103.681 69.8694 103.585 69.6151 103.585 69.3074C103.585 69.0522 103.656 68.8289 103.799 68.6376C103.942 68.4462 104.139 68.297 104.39 68.19C104.641 68.0812 104.929 68.0268 105.254 68.0268C105.721 68.0268 106.089 68.1281 106.357 68.3308C106.626 68.5315 106.803 68.8008 106.889 69.1385ZM109.679 68.0831V68.7586H107.318V68.0831H109.679ZM107.951 67.0473H108.793V71.1369C108.793 71.3001 108.817 71.423 108.866 71.5056C108.915 71.5863 108.978 71.6416 109.055 71.6717C109.133 71.6998 109.219 71.7139 109.311 71.7139C109.378 71.7139 109.437 71.7092 109.488 71.6998C109.539 71.6904 109.578 71.6829 109.606 71.6773L109.758 72.3725C109.709 72.3912 109.64 72.41 109.55 72.4288C109.46 72.4494 109.347 72.4607 109.212 72.4625C108.991 72.4663 108.784 72.4269 108.593 72.3443C108.402 72.2618 108.247 72.1342 108.129 71.9616C108.01 71.7889 107.951 71.5722 107.951 71.3114V67.0473ZM111.467 71.6182L111.425 71.925C111.397 72.1501 111.349 72.3847 111.282 72.6286C111.216 72.8744 111.147 73.1024 111.076 73.3125C111.007 73.5227 110.949 73.6897 110.904 73.8135H110.308C110.332 73.6972 110.366 73.5396 110.409 73.3407C110.452 73.1437 110.494 72.9232 110.536 72.6793C110.577 72.4353 110.608 72.1867 110.629 71.9334L110.657 71.6182H111.467ZM114.174 72.4062V71.7758L116.124 69.7549C116.332 69.5354 116.504 69.3431 116.639 69.178C116.776 69.011 116.878 68.8524 116.946 68.7023C117.014 68.5522 117.047 68.3927 117.047 68.2238C117.047 68.0324 117.002 67.8673 116.912 67.7285C116.822 67.5877 116.699 67.4798 116.544 67.4048C116.388 67.3279 116.212 67.2894 116.017 67.2894C115.811 67.2894 115.631 67.3316 115.477 67.416C115.323 67.5005 115.205 67.6196 115.122 67.7735C115.04 67.9274 114.998 68.1075 114.998 68.3139H114.168C114.168 67.963 114.249 67.6562 114.41 67.3935C114.571 67.1308 114.793 66.9272 115.074 66.7828C115.356 66.6364 115.676 66.5632 116.034 66.5632C116.396 66.5632 116.715 66.6355 116.991 66.78C117.269 66.9226 117.485 67.1177 117.641 67.3654C117.797 67.6112 117.875 67.8889 117.875 68.1985C117.875 68.4124 117.834 68.6216 117.754 68.8261C117.675 69.0307 117.537 69.2586 117.34 69.5101C117.143 69.7596 116.869 70.0627 116.518 70.4192L115.373 71.6182V71.6604H117.968V72.4062H114.174ZM120.803 72.5019C120.359 72.5001 119.979 72.3828 119.664 72.1501C119.348 71.9175 119.107 71.5788 118.94 71.1341C118.773 70.6894 118.69 70.1537 118.69 69.527C118.69 68.9021 118.773 68.3683 118.94 67.9255C119.109 67.4827 119.351 67.1449 119.666 66.9122C119.983 66.6796 120.362 66.5632 120.803 66.5632C121.244 66.5632 121.622 66.6805 121.938 66.915C122.253 67.1477 122.494 67.4855 122.661 67.9283C122.83 68.3692 122.914 68.9021 122.914 69.527C122.914 70.1555 122.831 70.6922 122.664 71.1369C122.497 71.5797 122.256 71.9184 121.94 72.1529C121.625 72.3856 121.246 72.5019 120.803 72.5019ZM120.803 71.7505C121.194 71.7505 121.499 71.56 121.718 71.1791C121.94 70.7982 122.05 70.2475 122.05 69.527C122.05 69.0485 122 68.6441 121.898 68.3139C121.799 67.9818 121.655 67.7303 121.468 67.5596C121.282 67.387 121.06 67.3006 120.803 67.3006C120.415 67.3006 120.11 67.492 119.889 67.8748C119.667 68.2576 119.556 68.8083 119.554 69.527C119.554 70.0073 119.603 70.4135 119.703 70.7457C119.804 71.0759 119.948 71.3264 120.134 71.4971C120.319 71.666 120.543 71.7505 120.803 71.7505ZM123.675 72.4062V71.7758L125.625 69.7549C125.834 69.5354 126.005 69.3431 126.141 69.178C126.278 69.011 126.38 68.8524 126.447 68.7023C126.515 68.5522 126.549 68.3927 126.549 68.2238C126.549 68.0324 126.504 67.8673 126.414 67.7285C126.324 67.5877 126.201 67.4798 126.045 67.4048C125.889 67.3279 125.714 67.2894 125.519 67.2894C125.312 67.2894 125.132 67.3316 124.978 67.416C124.824 67.5005 124.706 67.6196 124.624 67.7735C124.541 67.9274 124.5 68.1075 124.5 68.3139H123.669C123.669 67.963 123.75 67.6562 123.911 67.3935C124.073 67.1308 124.294 66.9272 124.576 66.7828C124.857 66.6364 125.177 66.5632 125.535 66.5632C125.898 66.5632 126.217 66.6355 126.492 66.78C126.77 66.9226 126.987 67.1177 127.143 67.3654C127.298 67.6112 127.376 67.8889 127.376 68.1985C127.376 68.4124 127.336 68.6216 127.255 68.8261C127.176 69.0307 127.038 69.2586 126.841 69.5101C126.644 69.7596 126.37 70.0627 126.02 70.4192L124.874 71.6182V71.6604H127.469V72.4062H123.675ZM130.305 72.4851C129.918 72.4851 129.573 72.4184 129.269 72.2852C128.967 72.152 128.728 71.9672 128.551 71.7308C128.377 71.4925 128.283 71.2166 128.27 70.9033H129.154C129.165 71.074 129.222 71.2223 129.325 71.348C129.43 71.4718 129.567 71.5675 129.736 71.6351C129.905 71.7026 130.093 71.7364 130.299 71.7364C130.526 71.7364 130.727 71.697 130.901 71.6182C131.078 71.5394 131.216 71.4296 131.315 71.2889C131.415 71.1463 131.464 70.9821 131.464 70.7963C131.464 70.6031 131.415 70.4332 131.315 70.2869C131.218 70.1387 131.074 70.0223 130.885 69.9379C130.697 69.8534 130.47 69.8112 130.203 69.8112H129.717V69.102H130.203C130.417 69.102 130.605 69.0635 130.766 68.9866C130.93 68.9096 131.057 68.8027 131.149 68.6657C131.241 68.5269 131.287 68.3645 131.287 68.1788C131.287 68.0005 131.247 67.8457 131.166 67.7144C131.087 67.5812 130.975 67.477 130.828 67.402C130.684 67.3269 130.513 67.2894 130.316 67.2894C130.128 67.2894 129.953 67.3241 129.79 67.3935C129.628 67.4611 129.497 67.5586 129.396 67.6862C129.294 67.812 129.24 67.963 129.232 68.1394H128.391C128.4 67.8279 128.492 67.554 128.667 67.3175C128.843 67.0811 129.076 66.8963 129.365 66.7631C129.654 66.6298 129.975 66.5632 130.327 66.5632C130.697 66.5632 131.016 66.6355 131.284 66.78C131.554 66.9226 131.763 67.113 131.909 67.3513C132.057 67.5896 132.13 67.8504 132.129 68.1338C132.13 68.4565 132.04 68.7304 131.858 68.9556C131.678 69.1808 131.438 69.3318 131.138 69.4087V69.4538C131.521 69.5119 131.817 69.6639 132.027 69.9097C132.239 70.1555 132.344 70.4605 132.342 70.8245C132.344 71.1416 132.256 71.4258 132.078 71.6773C131.902 71.9287 131.66 72.1267 131.355 72.2712C131.049 72.4138 130.699 72.4851 130.305 72.4851Z" fill="#B4B5BB"/>
<path d="M30.3402 67.1414C29.899 66.8017 29.4579 66.5469 29.0167 66.3771C28.5756 66.2072 28.1345 66.1223 27.6051 66.1223C26.6346 66.0374 25.5759 66.2922 24.5171 66.462C23.4584 66.7168 22.4879 66.9715 21.7821 67.2263C21.0762 67.481 20.5469 67.6509 20.5469 67.6509C20.5469 67.6509 20.988 67.9056 21.7821 68.2453C22.4879 68.585 23.5466 68.9247 24.6936 69.0945C25.8405 69.2643 26.9875 69.2643 28.0462 69.0096C29.1932 68.7548 30.0755 68.1604 30.3402 67.1414Z" fill="#FFCB6D"/>
<path d="M27.255 62.8088C27.6961 63.658 28.2255 64.5072 29.0195 65.0167C29.3724 65.2715 29.8136 65.5262 30.2547 65.6111C30.6959 65.696 31.2252 65.696 31.6664 65.4413C31.6664 64.4223 31.4017 63.5731 30.9606 62.8937C30.5194 62.2144 29.8136 61.535 29.196 61.0255C28.4902 60.516 27.8726 60.0914 27.3432 59.7517C26.8138 59.412 26.4609 59.2422 26.4609 59.2422C26.4609 59.2422 26.4609 59.3271 26.4609 59.5819C26.4609 59.7517 26.5492 60.0065 26.5492 60.3461C26.6374 61.0255 26.8138 61.8747 27.255 62.8088Z" fill="#FFCB6D"/>
<path d="M19.8372 65.1019C20.8959 65.017 21.7782 64.6773 22.3958 63.8281C21.8664 62.9789 21.0724 62.4694 20.1901 62.2147C19.3078 61.9599 18.1608 61.875 17.1021 61.875C16.0434 61.875 14.9847 61.875 14.1906 61.875C13.3966 61.875 12.8672 61.875 12.8672 61.875C12.8672 61.875 12.9554 61.9599 13.1319 62.1297C13.3083 62.2996 13.573 62.5543 13.9259 62.8091C14.6317 63.3186 15.514 63.9131 16.5727 64.4226C17.7197 64.8472 18.8667 65.1019 19.8372 65.1019Z" fill="#FFCB6D"/>
<path d="M21.7856 61.1952C22.4032 61.8746 23.1972 62.3841 24.1678 62.2991C24.6089 61.365 24.5207 60.4309 24.256 59.5817C23.9913 58.7325 23.4619 57.9683 23.0208 57.2889C22.4914 56.6096 22.0503 56.1 21.6092 55.6754C21.4327 55.5056 21.2562 55.3358 21.168 55.1659C21.0798 55.081 20.9915 54.9961 20.9915 54.9961C20.9915 54.9961 20.9915 55.081 20.9033 55.2509C20.8151 55.4207 20.8151 55.6754 20.7269 56.0151C20.6386 56.6945 20.5504 57.5437 20.7269 58.4778C20.9033 59.4968 21.2562 60.4309 21.7856 61.1952Z" fill="#FFCB6D"/>
<path d="M9.25081 54.1483C8.54499 53.8935 8.01562 53.8086 8.01562 53.8086C8.01562 53.8086 8.10384 53.8935 8.19206 54.1483C8.28029 54.3181 8.45675 54.5729 8.6332 54.9125C8.80966 55.2522 9.07436 55.5919 9.33904 56.0165C9.5155 56.1863 9.60372 56.4411 9.78018 56.6109L9.86839 56.7808L10.0449 56.9506C10.1331 57.0355 10.2213 57.2054 10.3095 57.2903C11.1918 58.2244 12.2506 58.9887 13.2211 59.3283C14.2798 59.668 15.2503 59.5831 16.1326 58.9037C15.8679 57.8847 15.3385 57.2054 14.5445 56.6958C14.368 56.526 14.1033 56.4411 13.9269 56.2712C13.7504 56.1014 13.4857 56.0165 13.2211 55.8466C12.9564 55.6768 12.7799 55.5919 12.5152 55.4221C12.2505 55.3371 12.0741 55.1673 11.8094 55.0824C10.9271 54.6578 9.95663 54.3181 9.25081 54.1483Z" fill="#FFCB6D"/>
<path d="M16.3952 55.8457C16.6599 56.6949 17.2775 57.3742 18.248 57.629C18.9538 56.8647 19.1303 55.9306 19.2185 55.1663C19.3067 54.3171 19.1303 53.5529 19.042 52.8735C19.042 52.6187 18.8656 52.1092 18.7773 51.7696C18.6891 51.4299 18.5127 51.0902 18.4244 50.7505C18.3362 50.4958 18.248 50.241 18.1598 50.0712C18.0715 49.9013 18.0715 49.8164 18.0715 49.8164C18.0715 49.8164 17.9833 49.9013 17.8951 50.0712C17.8068 50.241 17.6304 50.4958 17.4539 50.7505C17.101 51.345 16.7481 52.1941 16.4834 53.0433C16.3952 53.2981 16.3952 53.4679 16.307 53.7227C16.2188 53.9775 16.2188 54.1473 16.2188 54.4021C16.2188 54.6568 16.2188 54.8266 16.2188 55.0814C16.2188 55.4211 16.307 55.6758 16.3952 55.8457Z" fill="#FFCB6D"/>
<path d="M8.19693 50.6683C8.37338 50.8382 8.54984 51.008 8.7263 51.1779C8.90276 51.3477 9.16745 51.5175 9.3439 51.6025C10.2262 52.112 11.1084 52.3667 12.1672 52.0271C12.2554 51.5175 12.2554 51.0929 12.0789 50.6683C11.9907 50.4985 11.9025 50.2438 11.8143 50.0739C11.726 49.9041 11.5496 49.7342 11.4614 49.4795C10.932 48.7152 10.0497 48.1208 9.25567 47.5263C8.46162 46.9319 7.57933 46.4224 6.87351 46.0827C6.16769 45.743 5.72656 45.4883 5.72656 45.4883C5.72656 45.4883 5.72657 45.5732 5.8148 45.828C5.90302 46.0827 5.99124 46.3375 6.07947 46.6771C6.34415 47.3565 6.69706 48.3755 7.31465 49.2247C7.49111 49.8192 7.84402 50.2437 8.19693 50.6683Z" fill="#FFCB6D"/>
<path d="M13.6654 50.2428C13.8419 50.6673 14.1948 51.007 14.5477 51.2618C15.43 50.7523 15.9593 49.988 16.3122 49.1388C16.4005 48.969 16.4004 48.7142 16.4887 48.5444C16.4887 48.4595 16.4887 48.2896 16.5769 48.2047C16.5769 48.1198 16.5769 47.9499 16.6651 47.865C16.7534 47.4404 16.7534 47.0158 16.7534 46.5912C16.6651 45.742 16.6651 44.9778 16.4887 44.3833C16.4004 44.1286 16.4005 43.8738 16.3122 43.704C16.3122 43.5341 16.224 43.4492 16.224 43.4492C16.224 43.4492 16.1358 43.5341 15.9593 43.704C15.7829 43.8738 15.6064 44.0437 15.43 44.2984C14.9888 44.8079 14.4594 45.5722 14.0183 46.4214C13.5772 47.2706 13.3125 48.2047 13.3125 49.1388C13.3125 49.3936 13.3125 49.5634 13.4007 49.8182C13.4889 49.9031 13.5772 50.0729 13.6654 50.2428Z" fill="#FFCB6D"/>
<path d="M6.34131 42.6008C6.42954 42.8555 6.60599 43.0254 6.78245 43.2801C6.9589 43.4499 7.13536 43.7047 7.31182 43.8745C8.01764 44.5539 8.89992 44.9785 9.95865 44.8087C10.1351 44.3841 10.2233 43.8745 10.1351 43.4499C10.1351 43.1952 10.0469 43.0254 9.95865 42.7706C9.87042 42.6008 9.78221 42.346 9.69398 42.1762C9.51752 41.7516 9.25285 41.327 8.89994 40.9873C8.72348 40.8175 8.54702 40.5627 8.4588 40.3929C8.28234 40.223 8.10588 40.0532 7.92942 39.7984C7.2236 39.0342 6.42954 38.3548 5.90017 37.8453C5.3708 37.3358 4.92969 36.9961 4.92969 36.9961C4.92969 36.9961 4.92969 37.5056 4.92969 38.2699C4.92969 38.6945 5.0179 39.1191 5.10613 39.5437C5.19435 39.7984 5.19437 40.0532 5.28259 40.3079C5.37082 40.5627 5.37081 40.8175 5.54727 41.0722C5.90018 41.5817 6.16485 42.0912 6.34131 42.6008Z" fill="#FFCB6D"/>
<path d="M12.5206 44.2113C13.4911 43.8717 14.197 43.1923 14.6381 42.513C14.7263 42.3431 14.8145 42.1733 14.9028 41.9185C14.991 41.7487 15.0792 41.4939 15.1674 41.3241C15.3439 40.8995 15.4321 40.4749 15.5204 40.1352C15.6086 39.7106 15.6968 39.371 15.6968 38.9464C15.6968 38.7765 15.6968 38.6067 15.785 38.4368C15.785 38.267 15.785 38.0972 15.785 38.0122C15.8733 37.4178 15.8733 37.0781 15.8733 37.0781C15.8733 37.0781 15.5204 37.248 14.9028 37.6726C14.7263 37.7575 14.6381 37.8424 14.4616 38.0122C14.2852 38.0972 14.1087 38.267 14.0205 38.4368C13.6676 38.6916 13.4029 39.0313 13.05 39.371C12.8735 39.5408 12.7853 39.7106 12.6088 39.9654C12.5206 40.0503 12.4324 40.1352 12.4324 40.3051C12.3442 40.39 12.3442 40.4749 12.2559 40.6447C12.0795 41.0693 11.903 41.4939 11.8148 41.9185C11.8148 42.1733 11.7266 42.3431 11.7266 42.5979C11.7266 42.8526 11.8148 43.0225 11.8148 43.1923C11.9913 43.4471 12.1677 43.8717 12.5206 44.2113Z" fill="#FFCB6D"/>
<path d="M8.8086 31.9007C8.54392 31.4761 8.27922 31.0515 8.10276 30.6269C7.83808 30.2023 7.57341 29.8626 7.39695 29.5229C6.95581 28.9285 6.69114 28.5039 6.69114 28.5039C6.69114 28.5039 6.51467 29.0134 6.42644 29.7777C6.33821 30.1174 6.33823 30.6269 6.25 31.0515C6.25 31.3062 6.25 31.561 6.25 31.8157C6.25 32.0705 6.25 32.3253 6.25 32.58C6.33823 33.0895 6.33822 33.5991 6.51467 34.1086C6.69113 34.6181 6.86759 35.1276 7.13228 35.4673C7.66164 36.3165 8.45568 36.9109 9.51441 36.9958C9.69087 36.826 9.77909 36.5712 9.86732 36.4014C9.95554 36.2316 10.0438 35.9768 10.0438 35.8069C10.132 35.3824 10.0438 34.9578 9.95555 34.5332C9.86732 34.1086 9.69087 33.5991 9.51441 33.1745C9.33795 32.8348 9.07328 32.3253 8.8086 31.9007Z" fill="#FFCB6D"/>
<path d="M14.5499 35.8042C14.9028 35.4645 15.1675 35.2098 15.3439 34.7852C15.6086 34.4455 15.7851 34.1058 15.9615 33.6812C16.0497 33.5114 16.138 33.3416 16.2262 33.1717C16.3144 33.0019 16.4026 32.832 16.4909 32.6622C16.6673 32.3225 16.7556 32.0678 16.8438 31.7281C17.0202 31.2186 17.1085 30.8789 17.1085 30.8789C17.1085 30.8789 16.6673 30.9638 16.0497 31.2186C15.4321 31.4733 14.6381 31.813 13.844 32.4074C13.6676 32.5773 13.4911 32.6622 13.3147 32.832C13.1382 33.0019 12.9618 33.1717 12.7853 33.3416C12.4324 33.6812 12.1677 34.1058 11.9913 34.4455C11.8148 34.8701 11.7266 35.2947 11.7266 35.7193C11.7266 35.8891 11.7266 36.1439 11.8148 36.3137C11.903 36.4836 11.9912 36.7383 12.0795 36.9082C13.1382 36.8232 13.9323 36.3986 14.5499 35.8042Z" fill="#FFCB6D"/>
<path d="M11.4593 29.1804C11.6358 29.0106 11.724 28.8408 11.8122 28.586C11.9005 28.4162 11.9887 28.1614 11.9887 27.9916C11.9887 27.8217 12.0769 27.567 12.0769 27.3122C12.0769 26.8876 12.0769 26.3781 11.9887 25.8686C11.9005 25.3591 11.8122 24.9345 11.724 24.425C11.4593 23.4909 11.1946 22.5567 10.93 21.8774C10.6653 21.198 10.4888 20.7734 10.4888 20.7734C10.4888 20.7734 10.4006 20.8584 10.3124 21.0282C10.2241 21.198 10.0477 21.5377 9.87122 21.8774C9.51831 22.5567 9.16539 23.4909 8.98894 24.5099C8.90071 25.0194 8.8125 25.5289 8.8125 26.0384C8.8125 26.2932 8.81251 26.5479 8.90073 26.8027C8.90073 27.0575 8.98894 27.3122 9.07717 27.567C9.25363 27.9916 9.4301 28.4162 9.78301 28.8408C10.1359 29.1804 10.4888 29.5201 11.0182 29.69C11.1946 29.605 11.3711 29.4352 11.4593 29.1804Z" fill="#FFCB6D"/>
<path d="M19.8391 25.5321C19.9273 25.3623 20.0155 25.2773 20.0155 25.2773C20.0155 25.2773 19.9273 25.2773 19.6626 25.2773C19.4862 25.2773 19.2215 25.2773 18.8686 25.3623C18.5157 25.3623 18.1628 25.4472 17.7216 25.5321C17.5452 25.617 17.2805 25.617 17.104 25.7019C16.9276 25.7869 16.6629 25.8718 16.4864 25.9567C16.0453 26.1265 15.6041 26.2964 15.163 26.5511C14.8101 26.8059 14.4572 27.1456 14.1043 27.4003C13.9278 27.5702 13.8396 27.74 13.7514 27.9098C13.6631 28.0797 13.5749 28.3344 13.4867 28.5043C13.3984 28.6741 13.3984 28.9289 13.3984 29.0987C13.3984 29.3535 13.4867 29.5233 13.4867 29.7781C14.016 29.863 14.4572 29.863 14.8983 29.7781C15.3395 29.6931 15.7806 29.5233 16.1335 29.2685C16.31 29.1836 16.4864 29.0138 16.6629 28.9289C16.7511 28.844 16.8393 28.759 16.9275 28.759C17.0158 28.6741 17.104 28.5892 17.1922 28.5892C17.5452 28.3344 17.8098 27.9948 18.0745 27.74C18.3392 27.4003 18.6039 27.1456 18.7803 26.8908C18.8686 26.8059 18.8686 26.721 18.9568 26.6361C19.045 26.5511 19.045 26.4662 19.1332 26.4662C19.2215 26.2964 19.3097 26.2115 19.3979 26.1265C19.5744 25.8718 19.7509 25.7019 19.8391 25.5321Z" fill="#FFCB6D"/>
<path d="M14.3713 22.9811C14.8124 22.7263 15.1653 22.4715 15.43 22.1319C15.6947 21.7922 15.8711 21.3676 16.0476 20.943C16.3123 20.0938 16.4005 19.0748 16.4005 18.1407C16.4005 17.8859 16.4005 17.6311 16.4005 17.3764C16.4005 17.1216 16.4005 16.8669 16.4005 16.697C16.4005 16.2724 16.3123 15.8478 16.3123 15.4232C16.2241 14.7439 16.1358 14.2344 16.1358 14.2344C16.1358 14.2344 16.0476 14.3193 15.8711 14.4891C15.6947 14.659 15.5182 14.9137 15.2535 15.1685C14.9889 15.5082 14.7242 15.8478 14.5477 16.1875C14.283 16.6121 14.0183 17.0367 13.8419 17.4613C13.6654 17.9708 13.489 18.3954 13.3125 18.9049C13.2243 19.4144 13.1361 19.924 13.1361 20.3486C13.0479 21.4525 13.489 22.3866 14.3713 22.9811Z" fill="#FFCB6D"/>
<path d="M21.779 22.4715C22.1319 22.2167 22.4848 21.962 22.7495 21.7072C23.0142 21.4525 23.2788 21.2826 23.5435 21.0279C23.72 20.858 23.8964 20.6882 24.0729 20.5183C24.1611 20.4334 24.2494 20.3485 24.2494 20.3485C24.2494 20.3485 23.8082 20.2636 23.1024 20.1787C22.7495 20.1787 22.3966 20.0938 21.9554 20.0938C21.5143 20.0938 21.0731 20.0938 20.5438 20.1787C19.5733 20.3485 18.6028 20.6033 17.8969 21.1128C17.544 21.3675 17.2794 21.7072 17.0147 22.0469C16.8382 22.3866 16.75 22.8112 16.75 23.3207C17.7205 23.7453 18.691 23.6604 19.4851 23.4905C19.9262 23.4056 20.2791 23.2358 20.7202 22.981C21.0732 22.8961 21.4261 22.7262 21.779 22.4715Z" fill="#FFCB6D"/>
<path d="M29.3721 66.0371C26.0195 64.7634 22.6668 63.2348 19.8435 61.0269C16.8438 58.6492 14.7263 55.4222 13.2264 51.6858C11.3737 47.3549 10.0503 42.8542 10.2267 38.0987C10.4032 34.0226 11.5501 30.0314 13.3147 26.295C14.8146 23.3228 16.6673 20.3506 18.9613 17.7181C18.7848 17.3784 18.7848 16.9539 18.873 16.6142C18.9612 16.1896 19.1377 15.765 19.4024 15.4253C19.9318 14.661 20.7258 13.9817 21.6081 13.5571C22.4904 13.0476 23.3726 12.7928 24.0785 12.623C24.4314 12.5381 24.696 12.4531 24.8725 12.4531H25.1372H25.2254V12.538C25.2254 12.538 25.2254 12.623 25.1372 12.7079C25.049 12.8777 24.9607 13.1325 24.7843 13.3872C24.5196 13.9817 24.0784 14.661 23.5491 15.4253C23.2844 15.765 22.9315 16.1047 22.6668 16.4443L22.2257 16.8689L22.2255 16.8691C22.0491 17.0389 21.8727 17.2086 21.6963 17.2935C21.3434 17.4634 20.9905 17.7181 20.5493 17.803C20.2847 17.888 19.9317 17.888 19.5788 17.888C18.6083 19.0768 17.6378 20.2657 16.8438 21.4546C13.5794 26.1251 11.2854 31.56 10.9325 37.2495C10.6678 42.1749 11.8148 46.7605 13.7558 51.2612C14.7263 53.6389 15.9615 55.9318 17.7261 57.8849C19.4906 59.838 21.6081 61.3666 23.902 62.6404C28.3134 65.0181 34.754 67.7355 40.8417 69.6887L39.1654 70.4529C35.6363 68.8395 32.1072 67.0562 29.3721 66.0371Z" fill="#FFCB6D"/>
<path d="M167.058 67.1414C167.499 66.8017 167.941 66.5469 168.382 66.3771C168.823 66.2072 169.264 66.1223 169.793 66.1223C170.764 66.0374 171.823 66.2922 172.881 66.462C173.94 66.7168 174.911 66.9715 175.616 67.2263C176.322 67.481 176.852 67.6509 176.852 67.6509C176.852 67.6509 176.41 67.9056 175.616 68.2453C174.911 68.585 173.852 68.9247 172.705 69.0945C171.558 69.2643 170.411 69.2643 169.352 69.0096C168.205 68.7548 167.323 68.1604 167.058 67.1414Z" fill="#FFCB6D"/>
<path d="M170.143 62.8088C169.702 63.658 169.173 64.5072 168.379 65.0167C168.026 65.2715 167.585 65.5262 167.144 65.6111C166.703 65.696 166.173 65.696 165.732 65.4413C165.732 64.4223 165.997 63.5731 166.438 62.8937C166.879 62.2144 167.585 61.535 168.202 61.0255C168.908 60.516 169.526 60.0914 170.055 59.7517C170.585 59.412 170.938 59.2422 170.938 59.2422C170.938 59.2422 170.938 59.3271 170.938 59.5819C170.938 59.7517 170.849 60.0065 170.849 60.3461C170.761 61.0255 170.585 61.8747 170.143 62.8088Z" fill="#FFCB6D"/>
<path d="M177.561 65.1019C176.503 65.017 175.62 64.6773 175.003 63.8281C175.532 62.9789 176.326 62.4694 177.208 62.2147C178.091 61.9599 179.238 61.875 180.296 61.875C181.355 61.875 182.414 61.875 183.208 61.875C184.002 61.875 184.531 61.875 184.531 61.875C184.531 61.875 184.443 61.9599 184.267 62.1297C184.09 62.2996 183.825 62.5543 183.473 62.8091C182.767 63.3186 181.884 63.9131 180.826 64.4226C179.679 64.8472 178.532 65.1019 177.561 65.1019Z" fill="#FFCB6D"/>
<path d="M175.613 61.1952C174.995 61.8746 174.201 62.3841 173.231 62.2991C172.79 61.365 172.878 60.4309 173.142 59.5817C173.407 58.7325 173.936 57.9683 174.378 57.2889C174.907 56.6096 175.348 56.1 175.789 55.6754C175.966 55.5056 176.142 55.3358 176.23 55.1659C176.319 55.081 176.407 54.9961 176.407 54.9961C176.407 54.9961 176.407 55.081 176.495 55.2509C176.583 55.4207 176.583 55.6754 176.672 56.0151C176.76 56.6945 176.848 57.5437 176.672 58.4778C176.495 59.4968 176.142 60.4309 175.613 61.1952Z" fill="#FFCB6D"/>
<path d="M188.148 54.1483C188.853 53.8935 189.383 53.8086 189.383 53.8086C189.383 53.8086 189.295 53.8935 189.206 54.1483C189.118 54.3181 188.942 54.5729 188.765 54.9125C188.589 55.2522 188.324 55.5919 188.059 56.0165C187.883 56.1863 187.795 56.4411 187.618 56.6109L187.53 56.7808L187.354 56.9506C187.265 57.0355 187.177 57.2054 187.089 57.2903C186.207 58.2244 185.148 58.9887 184.177 59.3283C183.119 59.668 182.148 59.5831 181.266 58.9037C181.531 57.8847 182.06 57.2054 182.854 56.6958C183.03 56.526 183.295 56.4411 183.472 56.2712C183.648 56.1014 183.913 56.0165 184.177 55.8466C184.442 55.6768 184.619 55.5919 184.883 55.4221C185.148 55.3371 185.324 55.1673 185.589 55.0824C186.471 54.6578 187.442 54.3181 188.148 54.1483Z" fill="#FFCB6D"/>
<path d="M180.995 55.8457C180.731 56.6949 180.113 57.3742 179.143 57.629C178.437 56.8647 178.26 55.9306 178.172 55.1663C178.084 54.3171 178.26 53.5529 178.349 52.8735C178.349 52.6187 178.525 52.1092 178.613 51.7696C178.702 51.4299 178.878 51.0902 178.966 50.7505C179.054 50.4958 179.143 50.241 179.231 50.0712C179.319 49.9013 179.319 49.8164 179.319 49.8164C179.319 49.8164 179.407 49.9013 179.496 50.0712C179.584 50.241 179.76 50.4958 179.937 50.7505C180.29 51.345 180.643 52.1941 180.907 53.0433C180.995 53.2981 180.995 53.4679 181.084 53.7227C181.172 53.9775 181.172 54.1473 181.172 54.4021C181.172 54.6568 181.172 54.8266 181.172 55.0814C181.172 55.4211 181.084 55.6758 180.995 55.8457Z" fill="#FFCB6D"/>
<path d="M189.202 50.6683C189.025 50.8382 188.849 51.008 188.672 51.1779C188.496 51.3477 188.231 51.5175 188.055 51.6025C187.172 52.112 186.29 52.3667 185.231 52.0271C185.143 51.5175 185.143 51.0929 185.319 50.6683C185.408 50.4985 185.496 50.2438 185.584 50.0739C185.672 49.9041 185.849 49.7342 185.937 49.4795C186.466 48.7152 187.349 48.1208 188.143 47.5263C188.937 46.9319 189.819 46.4224 190.525 46.0827C191.231 45.743 191.672 45.4883 191.672 45.4883C191.672 45.4883 191.672 45.5732 191.584 45.828C191.495 46.0827 191.407 46.3375 191.319 46.6771C191.054 47.3565 190.701 48.3755 190.084 49.2247C189.907 49.8192 189.554 50.2437 189.202 50.6683Z" fill="#FFCB6D"/>
<path d="M183.733 50.2428C183.557 50.6673 183.204 51.007 182.851 51.2618C181.968 50.7523 181.439 49.988 181.086 49.1388C180.998 48.969 180.998 48.7142 180.91 48.5444C180.91 48.4595 180.91 48.2896 180.822 48.2047C180.822 48.1198 180.822 47.9499 180.733 47.865C180.645 47.4404 180.645 47.0158 180.645 46.5912C180.733 45.742 180.733 44.9778 180.91 44.3833C180.998 44.1286 180.998 43.8738 181.086 43.704C181.086 43.5341 181.174 43.4492 181.174 43.4492C181.174 43.4492 181.263 43.5341 181.439 43.704C181.616 43.8738 181.792 44.0437 181.968 44.2984C182.41 44.8079 182.939 45.5722 183.38 46.4214C183.821 47.2706 184.086 48.2047 184.086 49.1388C184.086 49.3936 184.086 49.5634 183.998 49.8182C183.91 49.9031 183.821 50.0729 183.733 50.2428Z" fill="#FFCB6D"/>
<path d="M191.057 42.6008C190.969 42.8555 190.792 43.0254 190.616 43.2801C190.44 43.4499 190.263 43.7047 190.087 43.8745C189.381 44.5539 188.499 44.9785 187.44 44.8087C187.263 44.3841 187.175 43.8745 187.263 43.4499C187.263 43.1952 187.352 43.0254 187.44 42.7706C187.528 42.6008 187.616 42.346 187.704 42.1762C187.881 41.7516 188.146 41.327 188.499 40.9873C188.675 40.8175 188.851 40.5627 188.94 40.3929C189.116 40.223 189.293 40.0532 189.469 39.7984C190.175 39.0342 190.969 38.3548 191.498 37.8453C192.028 37.3358 192.469 36.9961 192.469 36.9961C192.469 36.9961 192.469 37.5056 192.469 38.2699C192.469 38.6945 192.381 39.1191 192.292 39.5437C192.204 39.7984 192.204 40.0532 192.116 40.3079C192.028 40.5627 192.028 40.8175 191.851 41.0722C191.498 41.5817 191.234 42.0912 191.057 42.6008Z" fill="#FFCB6D"/>
<path d="M184.878 44.2113C183.907 43.8717 183.201 43.1923 182.76 42.513C182.672 42.3431 182.584 42.1733 182.496 41.9185C182.407 41.7487 182.319 41.4939 182.231 41.3241C182.055 40.8995 181.966 40.4749 181.878 40.1352C181.79 39.7106 181.702 39.371 181.702 38.9464C181.702 38.7765 181.702 38.6067 181.613 38.4368C181.613 38.267 181.613 38.0972 181.613 38.0122C181.525 37.4178 181.525 37.0781 181.525 37.0781C181.525 37.0781 181.878 37.248 182.496 37.6726C182.672 37.7575 182.76 37.8424 182.937 38.0122C183.113 38.0972 183.29 38.267 183.378 38.4368C183.731 38.6916 183.996 39.0313 184.348 39.371C184.525 39.5408 184.613 39.7106 184.79 39.9654C184.878 40.0503 184.966 40.1352 184.966 40.3051C185.054 40.39 185.054 40.4749 185.143 40.6447C185.319 41.0693 185.495 41.4939 185.584 41.9185C185.584 42.1733 185.672 42.3431 185.672 42.5979C185.672 42.8526 185.584 43.0225 185.584 43.1923C185.407 43.4471 185.231 43.8717 184.878 44.2113Z" fill="#FFCB6D"/>
<path d="M188.59 31.9007C188.855 31.4761 189.119 31.0515 189.296 30.6269C189.56 30.2023 189.825 29.8626 190.001 29.5229C190.443 28.9285 190.707 28.5039 190.707 28.5039C190.707 28.5039 190.884 29.0134 190.972 29.7777C191.06 30.1174 191.06 30.6269 191.148 31.0515C191.148 31.3062 191.148 31.561 191.148 31.8157C191.148 32.0705 191.148 32.3253 191.148 32.58C191.06 33.0895 191.06 33.5991 190.884 34.1086C190.707 34.6181 190.531 35.1276 190.266 35.4673C189.737 36.3165 188.943 36.9109 187.884 36.9958C187.708 36.826 187.619 36.5712 187.531 36.4014C187.443 36.2316 187.355 35.9768 187.355 35.8069C187.266 35.3824 187.355 34.9578 187.443 34.5332C187.531 34.1086 187.708 33.5991 187.884 33.1745C188.06 32.8348 188.325 32.3253 188.59 31.9007Z" fill="#FFCB6D"/>
<path d="M182.849 35.8042C182.496 35.4645 182.231 35.2098 182.055 34.7852C181.79 34.4455 181.613 34.1058 181.437 33.6812C181.349 33.5114 181.26 33.3416 181.172 33.1717C181.084 33.0019 180.996 32.832 180.908 32.6622C180.731 32.3225 180.643 32.0678 180.555 31.7281C180.378 31.2186 180.29 30.8789 180.29 30.8789C180.29 30.8789 180.731 30.9638 181.349 31.2186C181.966 31.4733 182.76 31.813 183.554 32.4074C183.731 32.5773 183.907 32.6622 184.084 32.832C184.26 33.0019 184.437 33.1717 184.613 33.3416C184.966 33.6812 185.231 34.1058 185.407 34.4455C185.584 34.8701 185.672 35.2947 185.672 35.7193C185.672 35.8891 185.672 36.1439 185.584 36.3137C185.495 36.4836 185.407 36.7383 185.319 36.9082C184.26 36.8232 183.466 36.3986 182.849 35.8042Z" fill="#FFCB6D"/>
<path d="M185.939 29.1804C185.763 29.0106 185.674 28.8408 185.586 28.586C185.498 28.4162 185.41 28.1614 185.41 27.9916C185.41 27.8217 185.322 27.567 185.322 27.3122C185.322 26.8876 185.322 26.3781 185.41 25.8686C185.498 25.3591 185.586 24.9345 185.674 24.425C185.939 23.4909 186.204 22.5567 186.468 21.8774C186.733 21.198 186.91 20.7734 186.91 20.7734C186.91 20.7734 186.998 20.8584 187.086 21.0282C187.174 21.198 187.351 21.5377 187.527 21.8774C187.88 22.5567 188.233 23.4909 188.409 24.5099C188.498 25.0194 188.586 25.5289 188.586 26.0384C188.586 26.2932 188.586 26.5479 188.498 26.8027C188.498 27.0575 188.409 27.3122 188.321 27.567C188.145 27.9916 187.968 28.4162 187.615 28.8408C187.263 29.1804 186.91 29.5201 186.38 29.69C186.204 29.605 186.027 29.4352 185.939 29.1804Z" fill="#FFCB6D"/>
<path d="M177.559 25.5321C177.471 25.3623 177.383 25.2773 177.383 25.2773C177.383 25.2773 177.471 25.2773 177.736 25.2773C177.912 25.2773 178.177 25.2773 178.53 25.3623C178.883 25.3623 179.236 25.4472 179.677 25.5321C179.853 25.617 180.118 25.617 180.294 25.7019C180.471 25.7869 180.736 25.8718 180.912 25.9567C181.353 26.1265 181.794 26.2964 182.235 26.5511C182.588 26.8059 182.941 27.1456 183.294 27.4003C183.471 27.5702 183.559 27.74 183.647 27.9098C183.735 28.0797 183.824 28.3344 183.912 28.5043C184 28.6741 184 28.9289 184 29.0987C184 29.3535 183.912 29.5233 183.912 29.7781C183.382 29.863 182.941 29.863 182.5 29.7781C182.059 29.6931 181.618 29.5233 181.265 29.2685C181.088 29.1836 180.912 29.0138 180.736 28.9289C180.647 28.844 180.559 28.759 180.471 28.759C180.383 28.6741 180.294 28.5892 180.206 28.5892C179.853 28.3344 179.589 27.9948 179.324 27.74C179.059 27.4003 178.795 27.1456 178.618 26.8908C178.53 26.8059 178.53 26.721 178.442 26.6361C178.353 26.5511 178.353 26.4662 178.265 26.4662C178.177 26.2964 178.089 26.2115 178 26.1265C177.824 25.8718 177.648 25.7019 177.559 25.5321Z" fill="#FFCB6D"/>
<path d="M183.035 22.9811C182.594 22.7263 182.241 22.4715 181.976 22.1319C181.712 21.7922 181.535 21.3676 181.359 20.943C181.094 20.0938 181.006 19.0748 181.006 18.1407C181.006 17.8859 181.006 17.6311 181.006 17.3764C181.006 17.1216 181.006 16.8669 181.006 16.697C181.006 16.2724 181.094 15.8478 181.094 15.4232C181.182 14.7439 181.27 14.2344 181.27 14.2344C181.27 14.2344 181.359 14.3193 181.535 14.4891C181.712 14.659 181.888 14.9137 182.153 15.1685C182.417 15.5082 182.682 15.8478 182.859 16.1875C183.123 16.6121 183.388 17.0367 183.564 17.4613C183.741 17.9708 183.917 18.3954 184.094 18.9049C184.182 19.4144 184.27 19.924 184.27 20.3486C184.358 21.4525 183.917 22.3866 183.035 22.9811Z" fill="#FFCB6D"/>
<path d="M175.619 22.4715C175.267 22.2167 174.914 21.962 174.649 21.7072C174.384 21.4525 174.12 21.2826 173.855 21.0279C173.678 20.858 173.502 20.6882 173.326 20.5183C173.237 20.4334 173.149 20.3485 173.149 20.3485C173.149 20.3485 173.59 20.2636 174.296 20.1787C174.649 20.1787 175.002 20.0938 175.443 20.0938C175.884 20.0938 176.325 20.0938 176.855 20.1787C177.825 20.3485 178.796 20.6033 179.501 21.1128C179.854 21.3675 180.119 21.7072 180.384 22.0469C180.56 22.3866 180.648 22.8112 180.648 23.3207C179.678 23.7453 178.707 23.6604 177.913 23.4905C177.472 23.4056 177.119 23.2358 176.678 22.981C176.325 22.8961 175.972 22.7262 175.619 22.4715Z" fill="#FFCB6D"/>
<path d="M168.026 66.0371C171.379 64.7634 174.732 63.2348 177.555 61.0269C180.555 58.6492 182.672 55.4222 184.172 51.6858C186.025 47.3549 187.348 42.8542 187.172 38.0987C186.995 34.0226 185.848 30.0314 184.084 26.295C182.584 23.3228 180.731 20.3506 178.437 17.7181C178.614 17.3784 178.614 16.9539 178.525 16.6142C178.437 16.1896 178.261 15.765 177.996 15.4253C177.467 14.661 176.673 13.9817 175.79 13.5571C174.908 13.0476 174.026 12.7928 173.32 12.623C172.967 12.5381 172.702 12.4531 172.526 12.4531H172.261H172.173V12.538C172.173 12.538 172.173 12.623 172.261 12.7079C172.349 12.8777 172.438 13.1325 172.614 13.3872C172.879 13.9817 173.32 14.661 173.849 15.4253C174.114 15.765 174.467 16.1047 174.732 16.4443L175.173 16.8689L175.173 16.8691C175.349 17.0389 175.526 17.2086 175.702 17.2935C176.055 17.4634 176.408 17.7181 176.849 17.803C177.114 17.888 177.467 17.888 177.82 17.888C178.79 19.0768 179.761 20.2657 180.555 21.4546C183.819 26.1251 186.113 31.56 186.466 37.2495C186.731 42.1749 185.584 46.7605 183.643 51.2612C182.672 53.6389 181.437 55.9318 179.672 57.8849C177.908 59.838 175.79 61.3666 173.496 62.6404C169.085 65.0181 162.644 67.7355 156.557 69.6887L158.233 70.4529C161.762 68.8395 165.291 67.0562 168.026 66.0371Z" fill="#FFCB6D"/>
<g clip-path="url(#clip0_5702_62957)">
<g clip-path="url(#clip1_5702_62957)">
<path fill-rule="evenodd" clip-rule="evenodd" d="M100.911 7.57812H100.526L99.4844 9.96121H99.9107L100.154 9.39008H101.273L101.514 9.96121H101.957L100.911 7.57812ZM101.12 9.02105H100.306L100.708 8.07485L101.12 9.02105Z" fill="white"/>
<path fill-rule="evenodd" clip-rule="evenodd" d="M113.701 7.98277H114.451V7.59766H112.531V7.98277H113.281V9.96365H113.701V7.98277Z" fill="white"/>
<path fill-rule="evenodd" clip-rule="evenodd" d="M110.934 8.21913C110.934 8.1801 110.944 8.14161 110.961 8.10671C110.978 8.0718 111.004 8.04144 111.035 8.01803C111.117 7.9585 111.217 7.92936 111.319 7.93557C111.428 7.93593 111.537 7.95708 111.639 7.99792C111.754 8.04436 111.861 8.10518 111.96 8.17891L112.183 7.86418C112.066 7.76988 111.934 7.69517 111.793 7.64297C111.643 7.59012 111.484 7.56425 111.325 7.56655C111.215 7.56552 111.105 7.58216 111.001 7.61582C110.908 7.64533 110.821 7.69319 110.746 7.75659C110.677 7.817 110.62 7.89132 110.581 7.97479C110.54 8.06327 110.519 8.15983 110.52 8.25734C110.517 8.35351 110.535 8.44917 110.572 8.53788C110.607 8.6161 110.659 8.68503 110.725 8.73898C110.8 8.79719 110.883 8.84272 110.973 8.87373C111.083 8.91418 111.196 8.94776 111.311 8.97428C111.421 9.00143 111.512 9.02757 111.58 9.0517C111.638 9.07099 111.692 9.09769 111.743 9.13114C111.778 9.154 111.806 9.18598 111.824 9.22365C111.84 9.25993 111.847 9.29895 111.846 9.33828C111.848 9.38159 111.838 9.42451 111.818 9.46302C111.798 9.50153 111.769 9.53437 111.733 9.55849C111.643 9.61617 111.538 9.64462 111.431 9.63993C111.293 9.64278 111.156 9.61568 111.029 9.5605C110.902 9.49941 110.784 9.42015 110.68 9.3252L110.43 9.62686C110.565 9.75084 110.722 9.84778 110.893 9.91243C111.061 9.9744 111.238 10.0057 111.417 10.0049C111.533 10.0062 111.648 9.99027 111.759 9.95768C111.856 9.92954 111.946 9.88236 112.024 9.81892C112.098 9.75828 112.157 9.68202 112.197 9.59569C112.24 9.50097 112.261 9.39796 112.26 9.29403C112.262 9.20539 112.245 9.11733 112.21 9.03561C112.177 8.96153 112.128 8.89564 112.067 8.84255C111.995 8.78245 111.915 8.73486 111.827 8.70178C111.72 8.66119 111.61 8.6276 111.498 8.60123C111.384 8.57408 111.291 8.54794 111.218 8.5238C111.157 8.50465 111.099 8.47724 111.045 8.44236C111.008 8.41895 110.979 8.38636 110.959 8.34784C110.941 8.30737 110.932 8.26332 110.934 8.21913Z" fill="white"/>
<path fill-rule="evenodd" clip-rule="evenodd" d="M110.064 7.59766H108.312V9.96365H110.081V9.58859H108.726V8.95612H109.912V8.58106H108.726V7.97272H110.064V7.59766Z" fill="white"/>
<path fill-rule="evenodd" clip-rule="evenodd" d="M107.859 7.59766H106.102V9.96365H106.514V9.00036H107.707V8.6253H106.514V7.97272H107.859V7.59766Z" fill="white"/>
<path d="M105.467 7.59766H105.055V9.96466H105.467V7.59766Z" fill="white"/>
<path fill-rule="evenodd" clip-rule="evenodd" d="M104.009 9.23364L102.744 7.59766H102.359V9.96365H102.772V8.28041L104.074 9.96365H104.422V7.59766H104.009V9.23364Z" fill="white"/>
<path fill-rule="evenodd" clip-rule="evenodd" d="M98.6635 8.26633V9.96365H99.0768V7.59766H98.6333L97.9134 8.7158L97.1934 7.59766H96.75V9.96365H97.1623V8.27337L97.9033 9.38246H97.9164L98.6635 8.26633Z" fill="white"/>
<path fill-rule="evenodd" clip-rule="evenodd" d="M95.2282 7.59766H93.4766V9.96365H95.2443V9.58859H93.8888V8.95612H95.0753V8.58106H93.8888V7.97272H95.2282V7.59766Z" fill="white"/>
<path fill-rule="evenodd" clip-rule="evenodd" d="M92.4537 8.96617V9.96365H92.867V7.59766H92.4537V8.58106H91.3185V7.59766H90.9062V9.96365H91.3185V8.96617H92.4537Z" fill="white"/>
<path fill-rule="evenodd" clip-rule="evenodd" d="M89.7163 7.98277H90.4664V7.59766H88.5469V7.98277H89.297V9.96365H89.7163V7.98277Z" fill="white"/>
<path fill-rule="evenodd" clip-rule="evenodd" d="M98.6704 10.6312V15.4577H85.3221V14.1143H97.0948V10.6312H96.6986V13.7191H85.3221V2.10537H96.6976V6.93187H97.0938V2.10537H98.6694V6.93187H99.0656V1.70919H97.0948V-0.0273438H82.9531V14.1143H84.925V15.8498H99.0666V10.6312H98.6704ZM84.925 13.7171H83.3493V0.369837H96.6976V1.70919H84.925V13.7171Z" fill="white"/>
</g>
</g>
<defs>
<clipPath id="clip0_5702_62957">
<rect width="65.6708" height="15.8516" fill="white" transform="translate(65.8672)"/>
</clipPath>
<clipPath id="clip1_5702_62957">
<rect width="31.495" height="15.8772" fill="white" transform="translate(82.9531 -0.0273438)"/>
</clipPath>
</defs>
</svg>
