<svg width="198" height="76" viewBox="0 0 198 76" fill="none" xmlns="http://www.w3.org/2000/svg">
<path d="M54.7998 25.4604H56.6646L59.9068 33.377H60.0261L63.2684 25.4604H65.1331V35.6445H63.6712V28.2749H63.5767L60.5731 35.6296H59.3598L56.3563 28.27H56.2618V35.6445H54.7998V25.4604ZM69.905 35.7987C69.189 35.7987 68.564 35.6346 68.0303 35.3064C67.4966 34.9782 67.0822 34.519 66.7871 33.9289C66.4921 33.3388 66.3445 32.6493 66.3445 31.8603C66.3445 31.068 66.4921 30.3751 66.7871 29.7817C67.0822 29.1883 67.4966 28.7275 68.0303 28.3993C68.564 28.0711 69.189 27.907 69.905 27.907C70.6211 27.907 71.246 28.0711 71.7797 28.3993C72.3135 28.7275 72.7279 29.1883 73.0229 29.7817C73.318 30.3751 73.4655 31.068 73.4655 31.8603C73.4655 32.6493 73.318 33.3388 73.0229 33.9289C72.7279 34.519 72.3135 34.9782 71.7797 35.3064C71.246 35.6346 70.6211 35.7987 69.905 35.7987ZM69.91 34.5505C70.3741 34.5505 70.7587 34.4279 71.0637 34.1825C71.3687 33.9372 71.5941 33.6107 71.74 33.2029C71.8891 32.7952 71.9637 32.346 71.9637 31.8553C71.9637 31.368 71.8891 30.9204 71.74 30.5127C71.5941 30.1016 71.3687 29.7717 71.0637 29.5231C70.7587 29.2745 70.3741 29.1501 69.91 29.1501C69.4426 29.1501 69.0547 29.2745 68.7464 29.5231C68.4414 29.7717 68.2143 30.1016 68.0651 30.5127C67.9192 30.9204 67.8463 31.368 67.8463 31.8553C67.8463 32.346 67.9192 32.7952 68.0651 33.2029C68.2143 33.6107 68.4414 33.9372 68.7464 34.1825C69.0547 34.4279 69.4426 34.5505 69.91 34.5505ZM80.2886 29.8712L78.941 30.1099C78.8847 29.9375 78.7952 29.7734 78.6725 29.6176C78.5532 29.4618 78.3907 29.3341 78.1852 29.2347C77.9796 29.1352 77.7227 29.0855 77.4144 29.0855C76.9934 29.0855 76.642 29.18 76.3602 29.3689C76.0784 29.5546 75.9375 29.7949 75.9375 30.09C75.9375 30.3453 76.032 30.5508 76.2209 30.7066C76.4099 30.8624 76.7149 30.9901 77.1359 31.0895L78.3493 31.368C79.0521 31.5304 79.5759 31.7807 79.9207 32.1189C80.2654 32.457 80.4378 32.8963 80.4378 33.4366C80.4378 33.8941 80.3052 34.3019 80.04 34.6599C79.7781 35.0147 79.4118 35.2931 78.941 35.4953C78.4736 35.6976 77.9316 35.7987 77.3149 35.7987C76.4596 35.7987 75.7618 35.6164 75.2214 35.2517C74.6811 34.8837 74.3495 34.3616 74.2269 33.6853L75.664 33.4665C75.7535 33.8411 75.9375 34.1245 76.216 34.3168C76.4944 34.5058 76.8575 34.6003 77.305 34.6003C77.7923 34.6003 78.1819 34.4991 78.4736 34.2969C78.7653 34.0914 78.9112 33.8411 78.9112 33.546C78.9112 33.3073 78.8217 33.1068 78.6427 32.9443C78.467 32.7819 78.1968 32.6592 77.8321 32.5764L76.5392 32.2929C75.8264 32.1305 75.2993 31.8719 74.9579 31.5172C74.6197 31.1624 74.4507 30.7132 74.4507 30.1696C74.4507 29.7187 74.5766 29.3242 74.8286 28.986C75.0805 28.6479 75.4286 28.3843 75.8729 28.1954C76.3171 28.0031 76.826 27.907 77.3995 27.907C78.225 27.907 78.8747 28.086 79.3488 28.444C79.8229 28.7987 80.1361 29.2745 80.2886 29.8712ZM85.0779 28.0064V29.1999H80.9058V28.0064H85.0779ZM82.0247 26.1764H83.5115V33.4018C83.5115 33.6902 83.5546 33.9074 83.6408 34.0533C83.727 34.1958 83.8381 34.2936 83.974 34.3466C84.1132 34.3964 84.2641 34.4212 84.4265 34.4212C84.5458 34.4212 84.6503 34.413 84.7398 34.3964C84.8293 34.3798 84.8989 34.3665 84.9486 34.3566L85.2172 35.5849C85.131 35.618 85.0083 35.6512 84.8492 35.6843C84.6901 35.7208 84.4911 35.7407 84.2525 35.744C83.8613 35.7506 83.4966 35.681 83.1585 35.5351C82.8203 35.3893 82.5468 35.1638 82.338 34.8588C82.1291 34.5538 82.0247 34.1709 82.0247 33.7101V26.1764ZM89.3083 35.6445V28.0064H90.7455V29.2198H90.825C90.9643 28.8087 91.2096 28.4855 91.561 28.2501C91.9157 28.0114 92.3168 27.892 92.7644 27.892C92.8572 27.892 92.9666 27.8954 93.0926 27.902C93.2219 27.9086 93.323 27.9169 93.3959 27.9268V29.3491C93.3362 29.3325 93.2302 29.3142 93.0777 29.2944C92.9252 29.2711 92.7727 29.2595 92.6202 29.2595C92.2688 29.2595 91.9555 29.3341 91.6803 29.4833C91.4085 29.6292 91.193 29.8331 91.0339 30.095C90.8747 30.3535 90.7952 30.6486 90.7952 30.9801V35.6445H89.3083ZM97.1409 35.7987C96.3884 35.7987 95.7403 35.6379 95.1966 35.3163C94.6562 34.9914 94.2385 34.5356 93.9435 33.9488C93.6517 33.3587 93.5059 32.6675 93.5059 31.8752C93.5059 31.0928 93.6517 30.4033 93.9435 29.8065C94.2385 29.2098 94.6496 28.744 95.1767 28.4092C95.7071 28.0744 96.3271 27.907 97.0365 27.907C97.4675 27.907 97.8852 27.9782 98.2896 28.1208C98.6941 28.2633 99.0571 28.4871 99.3787 28.7921C99.7002 29.0971 99.9538 29.4933 100.139 29.9806C100.325 30.4646 100.418 31.053 100.418 31.7459V32.273H94.3463V31.1591H98.961C98.961 30.7679 98.8814 30.4215 98.7223 30.1198C98.5631 29.8148 98.3394 29.5745 98.0509 29.3988C97.7658 29.2231 97.431 29.1352 97.0465 29.1352C96.6287 29.1352 96.2641 29.238 95.9525 29.4435C95.6441 29.6458 95.4055 29.911 95.2364 30.2392C95.0706 30.5641 94.9877 30.9171 94.9877 31.2984V32.1686C94.9877 32.6791 95.0773 33.1134 95.2563 33.4714C95.4386 33.8295 95.6922 34.103 96.0171 34.2919C96.342 34.4776 96.7216 34.5704 97.1559 34.5704C97.4376 34.5704 97.6946 34.5306 97.9266 34.4511C98.1587 34.3682 98.3593 34.2455 98.5283 34.0831C98.6974 33.9207 98.8267 33.7201 98.9162 33.4814L100.323 33.735C100.211 34.1494 100.009 34.5124 99.7168 34.824C99.4284 35.1323 99.0654 35.3727 98.6278 35.5451C98.1935 35.7141 97.6979 35.7987 97.1409 35.7987ZM107.823 28.0064L105.053 35.6445H103.462L100.687 28.0064H102.283L104.218 33.8842H104.297L106.227 28.0064H107.823ZM108.66 35.6445V28.0064H110.147V35.6445H108.66ZM109.411 26.8279C109.152 26.8279 108.93 26.7417 108.745 26.5693C108.562 26.3936 108.471 26.1847 108.471 25.9427C108.471 25.6974 108.562 25.4886 108.745 25.3162C108.93 25.1405 109.152 25.0526 109.411 25.0526C109.67 25.0526 109.89 25.1405 110.072 25.3162C110.258 25.4886 110.351 25.6974 110.351 25.9427C110.351 26.1847 110.258 26.3936 110.072 26.5693C109.89 26.7417 109.67 26.8279 109.411 26.8279ZM114.879 35.7987C114.127 35.7987 113.478 35.6379 112.935 35.3163C112.394 34.9914 111.977 34.5356 111.682 33.9488C111.39 33.3587 111.244 32.6675 111.244 31.8752C111.244 31.0928 111.39 30.4033 111.682 29.8065C111.977 29.2098 112.388 28.744 112.915 28.4092C113.445 28.0744 114.065 27.907 114.775 27.907C115.206 27.907 115.623 27.9782 116.028 28.1208C116.432 28.2633 116.795 28.4871 117.117 28.7921C117.438 29.0971 117.692 29.4933 117.878 29.9806C118.063 30.4646 118.156 31.053 118.156 31.7459V32.273H112.084V31.1591H116.699C116.699 30.7679 116.62 30.4215 116.46 30.1198C116.301 29.8148 116.077 29.5745 115.789 29.3988C115.504 29.2231 115.169 29.1352 114.785 29.1352C114.367 29.1352 114.002 29.238 113.691 29.4435C113.382 29.6458 113.144 29.911 112.975 30.2392C112.809 30.5641 112.726 30.9171 112.726 31.2984V32.1686C112.726 32.6791 112.815 33.1134 112.994 33.4714C113.177 33.8295 113.43 34.103 113.755 34.2919C114.08 34.4776 114.46 34.5704 114.894 34.5704C115.176 34.5704 115.433 34.5306 115.665 34.4511C115.897 34.3682 116.097 34.2455 116.266 34.0831C116.436 33.9207 116.565 33.7201 116.654 33.4814L118.062 33.735C117.949 34.1494 117.747 34.5124 117.455 34.824C117.167 35.1323 116.804 35.3727 116.366 35.5451C115.932 35.7141 115.436 35.7987 114.879 35.7987ZM120.888 35.6445L118.64 28.0064H120.177L121.674 33.6157H121.748L123.25 28.0064H124.787L126.278 33.5908H126.353L127.84 28.0064H129.376L127.134 35.6445H125.617L124.065 30.1298H123.951L122.4 35.6445H120.888ZM133.287 35.7987C132.534 35.7987 131.886 35.6379 131.342 35.3163C130.802 34.9914 130.384 34.5356 130.089 33.9488C129.798 33.3587 129.652 32.6675 129.652 31.8752C129.652 31.0928 129.798 30.4033 130.089 29.8065C130.384 29.2098 130.795 28.744 131.323 28.4092C131.853 28.0744 132.473 27.907 133.182 27.907C133.613 27.907 134.031 27.9782 134.435 28.1208C134.84 28.2633 135.203 28.4871 135.524 28.7921C135.846 29.0971 136.1 29.4933 136.285 29.9806C136.471 30.4646 136.564 31.053 136.564 31.7459V32.273H130.492V31.1591H135.107C135.107 30.7679 135.027 30.4215 134.868 30.1198C134.709 29.8148 134.485 29.5745 134.197 29.3988C133.912 29.2231 133.577 29.1352 133.192 29.1352C132.775 29.1352 132.41 29.238 132.098 29.4435C131.79 29.6458 131.551 29.911 131.382 30.2392C131.216 30.5641 131.134 30.9171 131.134 31.2984V32.1686C131.134 32.6791 131.223 33.1134 131.402 33.4714C131.584 33.8295 131.838 34.103 132.163 34.2919C132.488 34.4776 132.867 34.5704 133.302 34.5704C133.583 34.5704 133.84 34.5306 134.072 34.4511C134.304 34.3682 134.505 34.2455 134.674 34.0831C134.843 33.9207 134.972 33.7201 135.062 33.4814L136.469 33.735C136.357 34.1494 136.154 34.5124 135.863 34.824C135.574 35.1323 135.211 35.3727 134.774 35.5451C134.339 35.7141 133.844 35.7987 133.287 35.7987ZM140.513 35.7937C139.896 35.7937 139.346 35.6362 138.862 35.3213C138.381 35.003 138.003 34.5505 137.728 33.9637C137.456 33.3736 137.32 32.6659 137.32 31.8404C137.32 31.0149 137.458 30.3088 137.733 29.722C138.011 29.1352 138.393 28.686 138.877 28.3744C139.361 28.0628 139.909 27.907 140.523 27.907C140.997 27.907 141.378 27.9865 141.666 28.1456C141.958 28.3015 142.184 28.4838 142.343 28.6926C142.505 28.9015 142.631 29.0855 142.721 29.2446H142.81V25.4604H144.297V35.6445H142.845V34.456H142.721C142.631 34.6185 142.502 34.8041 142.333 35.013C142.167 35.2218 141.938 35.4042 141.646 35.56C141.355 35.7158 140.977 35.7937 140.513 35.7937ZM140.841 34.5257C141.269 34.5257 141.63 34.413 141.925 34.1875C142.223 33.9588 142.449 33.6422 142.601 33.2377C142.757 32.8333 142.835 32.3625 142.835 31.8255C142.835 31.295 142.759 30.8309 142.606 30.4331C142.454 30.0353 142.23 29.7253 141.935 29.5032C141.64 29.2811 141.275 29.17 140.841 29.17C140.393 29.17 140.02 29.2861 139.722 29.5181C139.424 29.7502 139.198 30.0668 139.046 30.4679C138.897 30.869 138.822 31.3216 138.822 31.8255C138.822 32.336 138.898 32.7952 139.051 33.2029C139.203 33.6107 139.429 33.9339 139.727 34.1726C140.029 34.408 140.4 34.5257 140.841 34.5257ZM50.6631 51.7987C49.9106 51.7987 49.2625 51.6379 48.7188 51.3163C48.1784 50.9914 47.7607 50.5356 47.4656 49.9488C47.1739 49.3587 47.028 48.6675 47.028 47.8752C47.028 47.0928 47.1739 46.4033 47.4656 45.8065C47.7607 45.2098 48.1718 44.744 48.6989 44.4092C49.2293 44.0744 49.8492 43.907 50.5587 43.907C50.9897 43.907 51.4074 43.9782 51.8118 44.1208C52.2163 44.2633 52.5793 44.4871 52.9008 44.7921C53.2224 45.0971 53.476 45.4933 53.6617 45.9806C53.8473 46.4646 53.9401 47.053 53.9401 47.7459V48.273H47.8684V47.1591H52.4831C52.4831 46.7679 52.4036 46.4215 52.2444 46.1198C52.0853 45.8148 51.8615 45.5745 51.5731 45.3988C51.288 45.2231 50.9532 45.1352 50.5686 45.1352C50.1509 45.1352 49.7862 45.238 49.4746 45.4435C49.1663 45.6458 48.9276 45.911 48.7586 46.2392C48.5928 46.5641 48.5099 46.9171 48.5099 47.2984V48.1686C48.5099 48.6791 48.5994 49.1134 48.7784 49.4714C48.9608 49.8295 49.2144 50.103 49.5393 50.2919C49.8642 50.4776 50.2437 50.5704 50.678 50.5704C50.9598 50.5704 51.2167 50.5306 51.4488 50.4511C51.6809 50.3682 51.8814 50.2455 52.0505 50.0831C52.2196 49.9207 52.3489 49.7201 52.4384 49.4814L53.8457 49.735C53.7329 50.1494 53.5307 50.5124 53.239 50.824C52.9506 51.1323 52.5876 51.3727 52.15 51.5451C51.7157 51.7141 51.2201 51.7987 50.6631 51.7987ZM63.6077 44.7722H62.0562C61.9965 44.4407 61.8855 44.149 61.723 43.897C61.5606 43.6451 61.3617 43.4312 61.1263 43.2555C60.8909 43.0798 60.6274 42.9472 60.3356 42.8577C60.0472 42.7682 59.7406 42.7234 59.4157 42.7234C58.8289 42.7234 58.3034 42.871 57.8393 43.166C57.3785 43.4611 57.0138 43.8937 56.7453 44.4639C56.4801 45.0341 56.3475 45.7303 56.3475 46.5525C56.3475 47.3812 56.4801 48.0807 56.7453 48.6509C57.0138 49.2212 57.3802 49.6521 57.8443 49.9439C58.3084 50.2356 58.8305 50.3815 59.4107 50.3815C59.7323 50.3815 60.0373 50.3384 60.3257 50.2522C60.6174 50.1627 60.881 50.0317 61.1163 49.8593C61.3517 49.6869 61.5506 49.4764 61.7131 49.2278C61.8788 48.9758 61.9932 48.6874 62.0562 48.3625L63.6077 48.3675C63.5248 48.8681 63.364 49.3289 63.1253 49.7499C62.8899 50.1676 62.5866 50.529 62.2153 50.834C61.8473 51.1357 61.4263 51.3694 60.9522 51.5351C60.4782 51.7009 59.961 51.7838 59.4007 51.7838C58.5189 51.7838 57.7332 51.5749 57.0437 51.1572C56.3541 50.7362 55.8104 50.1345 55.4126 49.3521C55.0181 48.5697 54.8209 47.6365 54.8209 46.5525C54.8209 45.4651 55.0198 44.5319 55.4176 43.7528C55.8154 42.9704 56.3591 42.3704 57.0486 41.9527C57.7382 41.5316 58.5222 41.3211 59.4007 41.3211C59.9411 41.3211 60.445 41.399 60.9125 41.5549C61.3832 41.7074 61.8059 41.9328 62.1805 42.2311C62.5551 42.5262 62.8651 42.8875 63.1104 43.3152C63.3557 43.7395 63.5215 44.2252 63.6077 44.7722ZM67.9842 51.7987C67.2682 51.7987 66.6433 51.6346 66.1095 51.3064C65.5758 50.9782 65.1614 50.519 64.8663 49.9289C64.5713 49.3388 64.4238 48.6493 64.4238 47.8603C64.4238 47.068 64.5713 46.3751 64.8663 45.7817C65.1614 45.1883 65.5758 44.7275 66.1095 44.3993C66.6433 44.0711 67.2682 43.907 67.9842 43.907C68.7003 43.907 69.3252 44.0711 69.859 44.3993C70.3927 44.7275 70.8071 45.1883 71.1021 45.7817C71.3972 46.3751 71.5447 47.068 71.5447 47.8603C71.5447 48.6493 71.3972 49.3388 71.1021 49.9289C70.8071 50.519 70.3927 50.9782 69.859 51.3064C69.3252 51.6346 68.7003 51.7987 67.9842 51.7987ZM67.9892 50.5505C68.4533 50.5505 68.8379 50.4279 69.1429 50.1825C69.4479 49.9372 69.6733 49.6107 69.8192 49.2029C69.9684 48.7952 70.0429 48.346 70.0429 47.8553C70.0429 47.368 69.9684 46.9204 69.8192 46.5127C69.6733 46.1016 69.4479 45.7717 69.1429 45.5231C68.8379 45.2745 68.4533 45.1501 67.9892 45.1501C67.5218 45.1501 67.1339 45.2745 66.8256 45.5231C66.5206 45.7717 66.2935 46.1016 66.1443 46.5127C65.9985 46.9204 65.9255 47.368 65.9255 47.8553C65.9255 48.346 65.9985 48.7952 66.1443 49.2029C66.2935 49.6107 66.5206 49.9372 66.8256 50.1825C67.1339 50.4279 67.5218 50.5505 67.9892 50.5505ZM72.6442 51.6445V44.0064H74.0714V45.2496H74.1659C74.325 44.8286 74.5853 44.5004 74.9466 44.265C75.308 44.0263 75.7406 43.907 76.2445 43.907C76.755 43.907 77.1827 44.0263 77.5275 44.265C77.8755 44.5037 78.1325 44.8319 78.2982 45.2496H78.3778C78.5601 44.8418 78.8502 44.5169 79.248 44.2749C79.6458 44.0296 80.1199 43.907 80.6702 43.907C81.3631 43.907 81.9283 44.1241 82.3659 44.5584C82.8068 44.9927 83.0273 45.6474 83.0273 46.5226V51.6445H81.5405V46.6619C81.5405 46.1447 81.3996 45.7701 81.1178 45.538C80.836 45.306 80.4995 45.1899 80.1083 45.1899C79.6243 45.1899 79.248 45.3391 78.9795 45.6375C78.711 45.9325 78.5767 46.3121 78.5767 46.7762V51.6445H77.0948V46.5674C77.0948 46.153 76.9655 45.8198 76.707 45.5679C76.4484 45.3159 76.1119 45.1899 75.6975 45.1899C75.4157 45.1899 75.1555 45.2645 74.9168 45.4137C74.6814 45.5596 74.4908 45.7634 74.3449 46.0253C74.2024 46.2872 74.1311 46.5906 74.1311 46.9354V51.6445H72.6442ZM84.46 51.6445V44.0064H85.8872V45.2496H85.9817C86.1408 44.8286 86.401 44.5004 86.7624 44.265C87.1237 44.0263 87.5564 43.907 88.0603 43.907C88.5708 43.907 88.9984 44.0263 89.3432 44.265C89.6913 44.5037 89.9482 44.8319 90.114 45.2496H90.1936C90.3759 44.8418 90.666 44.5169 91.0638 44.2749C91.4616 44.0296 91.9357 43.907 92.486 43.907C93.1789 43.907 93.7441 44.1241 94.1817 44.5584C94.6226 44.9927 94.8431 45.6474 94.8431 46.5226V51.6445H93.3562V46.6619C93.3562 46.1447 93.2153 45.7701 92.9335 45.538C92.6517 45.306 92.3153 45.1899 91.9241 45.1899C91.4401 45.1899 91.0638 45.3391 90.7953 45.6375C90.5267 45.9325 90.3925 46.3121 90.3925 46.7762V51.6445H88.9106V46.5674C88.9106 46.153 88.7813 45.8198 88.5227 45.5679C88.2641 45.3159 87.9276 45.1899 87.5133 45.1899C87.2315 45.1899 86.9712 45.2645 86.7325 45.4137C86.4972 45.5596 86.3065 45.7634 86.1607 46.0253C86.0181 46.2872 85.9468 46.5906 85.9468 46.9354V51.6445H84.46ZM99.5677 51.7987C98.8152 51.7987 98.1671 51.6379 97.6234 51.3163C97.083 50.9914 96.6653 50.5356 96.3702 49.9488C96.0785 49.3587 95.9326 48.6675 95.9326 47.8752C95.9326 47.0928 96.0785 46.4033 96.3702 45.8065C96.6653 45.2098 97.0764 44.744 97.6035 44.4092C98.1339 44.0744 98.7538 43.907 99.4633 43.907C99.8942 43.907 100.312 43.9782 100.716 44.1208C101.121 44.2633 101.484 44.4871 101.805 44.7921C102.127 45.0971 102.381 45.4933 102.566 45.9806C102.752 46.4646 102.845 47.053 102.845 47.7459V48.273H96.773V47.1591H101.388C101.388 46.7679 101.308 46.4215 101.149 46.1198C100.99 45.8148 100.766 45.5745 100.478 45.3988C100.193 45.2231 99.8578 45.1352 99.4732 45.1352C99.0555 45.1352 98.6908 45.238 98.3792 45.4435C98.0709 45.6458 97.8322 45.911 97.6631 46.2392C97.4974 46.5641 97.4145 46.9171 97.4145 47.2984V48.1686C97.4145 48.6791 97.504 49.1134 97.683 49.4714C97.8654 49.8295 98.119 50.103 98.4439 50.2919C98.7688 50.4776 99.1483 50.5704 99.5826 50.5704C99.8644 50.5704 100.121 50.5306 100.353 50.4511C100.585 50.3682 100.786 50.2455 100.955 50.0831C101.124 49.9207 101.253 49.7201 101.343 49.4814L102.75 49.735C102.638 50.1494 102.435 50.5124 102.144 50.824C101.855 51.1323 101.492 51.3727 101.055 51.5451C100.62 51.7141 100.125 51.7987 99.5677 51.7987ZM103.934 51.6445V44.0064H105.371V45.2198H105.451C105.59 44.8087 105.836 44.4855 106.187 44.2501C106.542 44.0114 106.943 43.892 107.39 43.892C107.483 43.892 107.593 43.8954 107.719 43.902C107.848 43.9086 107.949 43.9169 108.022 43.9268V45.3491C107.962 45.3325 107.856 45.3142 107.704 45.2944C107.551 45.2711 107.399 45.2595 107.246 45.2595C106.895 45.2595 106.581 45.3341 106.306 45.4833C106.034 45.6292 105.819 45.8331 105.66 46.095C105.501 46.3535 105.421 46.6486 105.421 46.9801V51.6445H103.934ZM111.692 51.7987C110.953 51.7987 110.317 51.6313 109.783 51.2964C109.252 50.9583 108.845 50.4925 108.56 49.8991C108.274 49.3057 108.132 48.6261 108.132 47.8603C108.132 47.0845 108.278 46.4 108.569 45.8065C108.861 45.2098 109.272 44.744 109.803 44.4092C110.333 44.0744 110.958 43.907 111.677 43.907C112.258 43.907 112.775 44.0147 113.229 44.2302C113.683 44.4424 114.049 44.7407 114.328 45.1253C114.61 45.5098 114.777 45.959 114.83 46.4729H113.383C113.303 46.1149 113.121 45.8065 112.836 45.548C112.554 45.2894 112.176 45.1601 111.702 45.1601C111.288 45.1601 110.925 45.2695 110.613 45.4883C110.305 45.7038 110.065 46.0121 109.892 46.4132C109.72 46.811 109.634 47.2818 109.634 47.8255C109.634 48.3824 109.718 48.8631 109.887 49.2676C110.056 49.672 110.295 49.9853 110.603 50.2074C110.915 50.4295 111.281 50.5406 111.702 50.5406C111.984 50.5406 112.239 50.4892 112.468 50.3864C112.7 50.2803 112.894 50.1295 113.05 49.9339C113.209 49.7383 113.32 49.5029 113.383 49.2278H114.83C114.777 49.7217 114.616 50.1627 114.348 50.5505C114.079 50.9384 113.72 51.2434 113.269 51.4655C112.821 51.6876 112.296 51.7987 111.692 51.7987ZM119.152 51.7987C118.399 51.7987 117.751 51.6379 117.208 51.3163C116.667 50.9914 116.25 50.5356 115.955 49.9488C115.663 49.3587 115.517 48.6675 115.517 47.8752C115.517 47.0928 115.663 46.4033 115.955 45.8065C116.25 45.2098 116.661 44.744 117.188 44.4092C117.718 44.0744 118.338 43.907 119.048 43.907C119.479 43.907 119.896 43.9782 120.301 44.1208C120.705 44.2633 121.068 44.4871 121.39 44.7921C121.711 45.0971 121.965 45.4933 122.151 45.9806C122.336 46.4646 122.429 47.053 122.429 47.7459V48.273H116.357V47.1591H120.972C120.972 46.7679 120.892 46.4215 120.733 46.1198C120.574 45.8148 120.35 45.5745 120.062 45.3988C119.777 45.2231 119.442 45.1352 119.057 45.1352C118.64 45.1352 118.275 45.238 117.963 45.4435C117.655 45.6458 117.416 45.911 117.247 46.2392C117.082 46.5641 116.999 46.9171 116.999 47.2984V48.1686C116.999 48.6791 117.088 49.1134 117.267 49.4714C117.45 49.8295 117.703 50.103 118.028 50.2919C118.353 50.4776 118.733 50.5704 119.167 50.5704C119.449 50.5704 119.706 50.5306 119.938 50.4511C120.17 50.3682 120.37 50.2455 120.539 50.0831C120.708 49.9207 120.838 49.7201 120.927 49.4814L122.335 49.735C122.222 50.1494 122.02 50.5124 121.728 50.824C121.439 51.1323 121.076 51.3727 120.639 51.5451C120.205 51.7141 119.709 51.7987 119.152 51.7987ZM129.524 51.7937C128.907 51.7937 128.357 51.6362 127.873 51.3213C127.392 51.003 127.014 50.5505 126.739 49.9637C126.467 49.3736 126.331 48.6659 126.331 47.8404C126.331 47.0149 126.469 46.3088 126.744 45.722C127.022 45.1352 127.404 44.686 127.888 44.3744C128.372 44.0628 128.92 43.907 129.534 43.907C130.008 43.907 130.389 43.9865 130.677 44.1456C130.969 44.3015 131.195 44.4838 131.354 44.6926C131.516 44.9015 131.642 45.0855 131.732 45.2446H131.821V41.4604H133.308V51.6445H131.856V50.456H131.732C131.642 50.6185 131.513 50.8041 131.344 51.013C131.178 51.2218 130.949 51.4042 130.657 51.56C130.366 51.7158 129.988 51.7937 129.524 51.7937ZM129.852 50.5257C130.28 50.5257 130.641 50.413 130.936 50.1875C131.234 49.9588 131.46 49.6422 131.612 49.2377C131.768 48.8333 131.846 48.3625 131.846 47.8255C131.846 47.295 131.77 46.8309 131.617 46.4331C131.465 46.0353 131.241 45.7253 130.946 45.5032C130.651 45.2811 130.286 45.17 129.852 45.17C129.404 45.17 129.031 45.2861 128.733 45.5181C128.435 45.7502 128.209 46.0668 128.057 46.4679C127.908 46.869 127.833 47.3216 127.833 47.8255C127.833 48.336 127.909 48.7952 128.062 49.2029C128.214 49.6107 128.44 49.9339 128.738 50.1726C129.04 50.408 129.411 50.5257 129.852 50.5257ZM138.162 51.7987C137.409 51.7987 136.761 51.6379 136.218 51.3163C135.677 50.9914 135.259 50.5356 134.964 49.9488C134.673 49.3587 134.527 48.6675 134.527 47.8752C134.527 47.0928 134.673 46.4033 134.964 45.8065C135.259 45.2098 135.671 44.744 136.198 44.4092C136.728 44.0744 137.348 43.907 138.057 43.907C138.488 43.907 138.906 43.9782 139.311 44.1208C139.715 44.2633 140.078 44.4871 140.4 44.7921C140.721 45.0971 140.975 45.4933 141.16 45.9806C141.346 46.4646 141.439 47.053 141.439 47.7459V48.273H135.367V47.1591H139.982C139.982 46.7679 139.902 46.4215 139.743 46.1198C139.584 45.8148 139.36 45.5745 139.072 45.3988C138.787 45.2231 138.452 45.1352 138.067 45.1352C137.65 45.1352 137.285 45.238 136.973 45.4435C136.665 45.6458 136.426 45.911 136.257 46.2392C136.092 46.5641 136.009 46.9171 136.009 47.2984V48.1686C136.009 48.6791 136.098 49.1134 136.277 49.4714C136.46 49.8295 136.713 50.103 137.038 50.2919C137.363 50.4776 137.743 50.5704 138.177 50.5704C138.459 50.5704 138.716 50.5306 138.948 50.4511C139.18 50.3682 139.38 50.2455 139.549 50.0831C139.718 49.9207 139.848 49.7201 139.937 49.4814L141.344 49.735C141.232 50.1494 141.03 50.5124 140.738 50.824C140.449 51.1323 140.086 51.3727 139.649 51.5451C139.214 51.7141 138.719 51.7987 138.162 51.7987ZM148.844 44.0064L146.074 51.6445H144.483L141.708 44.0064H143.304L145.239 49.8842H145.318L147.248 44.0064H148.844ZM150.182 51.739C149.91 51.739 149.677 51.6429 149.481 51.4506C149.285 51.255 149.188 51.0196 149.188 50.7445C149.188 50.4726 149.285 50.2406 149.481 50.0483C149.677 49.8527 149.91 49.7549 150.182 49.7549C150.454 49.7549 150.688 49.8527 150.883 50.0483C151.079 50.2406 151.177 50.4726 151.177 50.7445C151.177 50.9268 151.13 51.0942 151.037 51.2467C150.948 51.3959 150.829 51.5152 150.679 51.6047C150.53 51.6943 150.364 51.739 150.182 51.739Z" fill="white"/>
<path d="M63.9502 67.3907V66.642H68.4113V67.3907H66.6128V72.4062H65.7459V67.3907H63.9502ZM69.9333 69.8394V72.4062H69.0918V66.642H69.9221V68.7867H69.9755C70.0769 68.5541 70.2317 68.3692 70.4399 68.2323C70.6482 68.0953 70.9203 68.0268 71.2562 68.0268C71.5526 68.0268 71.8116 68.0878 72.033 68.2097C72.2563 68.3317 72.4289 68.5137 72.5508 68.7558C72.6747 68.9959 72.7366 69.2962 72.7366 69.6564V72.4062H71.8951V69.7578C71.8951 69.4406 71.8134 69.1948 71.6502 69.0203C71.4869 68.844 71.2599 68.7558 70.9691 68.7558C70.7702 68.7558 70.5919 68.798 70.4343 68.8824C70.2786 68.9669 70.1557 69.0907 70.0656 69.2539C69.9774 69.4153 69.9333 69.6105 69.9333 69.8394ZM75.4851 72.4935C75.0591 72.4935 74.6923 72.4025 74.3846 72.2205C74.0787 72.0366 73.8423 71.7786 73.6753 71.4465C73.5102 71.1125 73.4276 70.7213 73.4276 70.2728C73.4276 69.83 73.5102 69.4397 73.6753 69.102C73.8423 68.7642 74.075 68.5006 74.3733 68.3111C74.6735 68.1216 75.0244 68.0268 75.426 68.0268C75.6699 68.0268 75.9063 68.0671 76.1352 68.1478C76.3642 68.2285 76.5696 68.3552 76.7516 68.5278C76.9336 68.7004 77.0772 68.9246 77.1823 69.2005C77.2873 69.4744 77.3399 69.8075 77.3399 70.1996V70.498H73.9033V69.8675H76.5152C76.5152 69.6461 76.4702 69.45 76.3801 69.2793C76.29 69.1067 76.1634 68.9706 76.0001 68.8712C75.8388 68.7717 75.6493 68.722 75.4316 68.722C75.1952 68.722 74.9888 68.7802 74.8124 68.8965C74.6379 69.011 74.5028 69.1611 74.4071 69.3468C74.3133 69.5307 74.2664 69.7305 74.2664 69.9463V70.4389C74.2664 70.7278 74.317 70.9736 74.4184 71.1763C74.5216 71.3789 74.6651 71.5337 74.849 71.6407C75.0329 71.7458 75.2477 71.7983 75.4935 71.7983C75.653 71.7983 75.7984 71.7758 75.9298 71.7308C76.0611 71.6838 76.1746 71.6144 76.2703 71.5225C76.366 71.4305 76.4392 71.317 76.4899 71.1819L77.2864 71.3255C77.2226 71.56 77.1081 71.7655 76.943 71.9418C76.7798 72.1164 76.5743 72.2524 76.3266 72.35C76.0808 72.4457 75.8003 72.4935 75.4851 72.4935ZM79.9632 66.642H81.0186L82.8537 71.1228H82.9212L84.7563 66.642H85.8118V72.4062H84.9843V68.2351H84.9308L83.2309 72.3978H82.5441L80.8441 68.2323H80.7906V72.4062H79.9632V66.642ZM88.029 72.5019C87.7551 72.5019 87.5074 72.4513 87.286 72.35C87.0646 72.2468 86.8891 72.0976 86.7597 71.9024C86.6321 71.7073 86.5683 71.4681 86.5683 71.1847C86.5683 70.9408 86.6152 70.74 86.709 70.5824C86.8028 70.4248 86.9295 70.3 87.089 70.2081C87.2485 70.1161 87.4267 70.0467 87.6237 69.9998C87.8207 69.9529 88.0215 69.9172 88.226 69.8929C88.485 69.8628 88.6951 69.8384 88.8565 69.8197C89.0179 69.799 89.1351 69.7662 89.2083 69.7212C89.2815 69.6761 89.3181 69.603 89.3181 69.5016V69.4819C89.3181 69.2361 89.2487 69.0457 89.1098 68.9106C88.9728 68.7755 88.7683 68.7079 88.4962 68.7079C88.2129 68.7079 87.9896 68.7708 87.8264 68.8965C87.665 69.0203 87.5534 69.1583 87.4914 69.3102L86.7006 69.1301C86.7944 68.8674 86.9313 68.6554 87.1115 68.494C87.2935 68.3308 87.5027 68.2126 87.7391 68.1394C87.9755 68.0643 88.2242 68.0268 88.485 68.0268C88.6576 68.0268 88.8406 68.0474 89.0338 68.0887C89.229 68.1281 89.411 68.2013 89.5798 68.3083C89.7506 68.4152 89.8904 68.5681 89.9992 68.767C90.108 68.964 90.1625 69.2202 90.1625 69.5354V72.4062H89.3406V71.8152H89.3068C89.2524 71.924 89.1708 72.031 89.062 72.1361C88.9531 72.2411 88.8133 72.3284 88.6426 72.3978C88.4718 72.4672 88.2673 72.5019 88.029 72.5019ZM88.212 71.8265C88.4446 71.8265 88.6435 71.7805 88.8087 71.6885C88.9757 71.5966 89.1023 71.4765 89.1886 71.3283C89.2768 71.1782 89.3209 71.0177 89.3209 70.847V70.2897C89.2909 70.3197 89.2327 70.3479 89.1464 70.3741C89.062 70.3985 88.9653 70.4201 88.8565 70.4389C88.7477 70.4558 88.6417 70.4717 88.5385 70.4867C88.4353 70.4999 88.3489 70.5111 88.2795 70.5205C88.1163 70.5411 87.9671 70.5759 87.832 70.6246C87.6988 70.6734 87.5918 70.7438 87.5111 70.8357C87.4323 70.9258 87.3929 71.0459 87.3929 71.196C87.3929 71.4043 87.4699 71.5619 87.6237 71.6688C87.7776 71.7739 87.9737 71.8265 88.212 71.8265ZM91.8871 69.8394V72.4062H91.0456V68.0831H91.8534V68.7867H91.9068C92.0063 68.5578 92.162 68.3739 92.374 68.2351C92.588 68.0962 92.8572 68.0268 93.1818 68.0268C93.4764 68.0268 93.7344 68.0887 93.9558 68.2126C94.1772 68.3345 94.3489 68.5165 94.4709 68.7586C94.5929 69.0006 94.6538 69.2999 94.6538 69.6564V72.4062H93.8123V69.7578C93.8123 69.4444 93.7307 69.1995 93.5674 69.0232C93.4042 68.8449 93.18 68.7558 92.8947 68.7558C92.6996 68.7558 92.526 68.798 92.374 68.8824C92.2239 68.9669 92.1048 69.0907 92.0166 69.2539C91.9303 69.4153 91.8871 69.6105 91.8871 69.8394ZM95.5447 72.4062V68.0831H96.3863V72.4062H95.5447ZM95.9697 67.416C95.8233 67.416 95.6976 67.3673 95.5926 67.2697C95.4894 67.1702 95.4378 67.052 95.4378 66.915C95.4378 66.7762 95.4894 66.658 95.5926 66.5604C95.6976 66.461 95.8233 66.4112 95.9697 66.4112C96.1161 66.4112 96.2408 66.461 96.344 66.5604C96.4491 66.658 96.5017 66.7762 96.5017 66.915C96.5017 67.052 96.4491 67.1702 96.344 67.2697C96.2408 67.3673 96.1161 67.416 95.9697 67.416ZM99.3381 68.0831V68.7586H96.895V68.0831H99.3381ZM97.5649 72.4062V67.5821C97.5649 67.3119 97.624 67.0877 97.7422 66.9094C97.8604 66.7293 98.0171 66.5951 98.2123 66.5069C98.4074 66.4169 98.6194 66.3718 98.8483 66.3718C99.0172 66.3718 99.1617 66.3859 99.2818 66.4141C99.4019 66.4403 99.491 66.4647 99.5492 66.4872L99.3522 67.1684C99.3127 67.1571 99.2621 67.144 99.2002 67.129C99.1382 67.1121 99.0632 67.1036 98.975 67.1036C98.7705 67.1036 98.6241 67.1543 98.5359 67.2556C98.4496 67.3569 98.4065 67.5033 98.4065 67.6947V72.4062H97.5649ZM101.662 72.4935C101.236 72.4935 100.869 72.4025 100.561 72.2205C100.255 72.0366 100.019 71.7786 99.8518 71.4465C99.6867 71.1125 99.6041 70.7213 99.6041 70.2728C99.6041 69.83 99.6867 69.4397 99.8518 69.102C100.019 68.7642 100.251 68.5006 100.55 68.3111C100.85 68.1216 101.201 68.0268 101.602 68.0268C101.846 68.0268 102.083 68.0671 102.312 68.1478C102.541 68.2285 102.746 68.3552 102.928 68.5278C103.11 68.7004 103.254 68.9246 103.359 69.2005C103.464 69.4744 103.516 69.8075 103.516 70.1996V70.498H100.08V69.8675H102.692C102.692 69.6461 102.647 69.45 102.557 69.2793C102.467 69.1067 102.34 68.9706 102.177 68.8712C102.015 68.7717 101.826 68.722 101.608 68.722C101.372 68.722 101.165 68.7802 100.989 68.8965C100.814 69.011 100.679 69.1611 100.584 69.3468C100.49 69.5307 100.443 69.7305 100.443 69.9463V70.4389C100.443 70.7278 100.494 70.9736 100.595 71.1763C100.698 71.3789 100.842 71.5337 101.025 71.6407C101.209 71.7458 101.424 71.7983 101.67 71.7983C101.829 71.7983 101.975 71.7758 102.106 71.7308C102.238 71.6838 102.351 71.6144 102.447 71.5225C102.543 71.4305 102.616 71.317 102.666 71.1819L103.463 71.3255C103.399 71.56 103.285 71.7655 103.119 71.9418C102.956 72.1164 102.751 72.2524 102.503 72.35C102.257 72.4457 101.977 72.4935 101.662 72.4935ZM107.452 69.1385L106.689 69.2736C106.657 69.1761 106.607 69.0832 106.537 68.995C106.47 68.9068 106.378 68.8346 106.261 68.7783C106.145 68.722 106 68.6938 105.825 68.6938C105.587 68.6938 105.388 68.7473 105.228 68.8543C105.069 68.9594 104.989 69.0954 104.989 69.2624C104.989 69.4069 105.043 69.5232 105.15 69.6114C105.257 69.6996 105.429 69.7718 105.667 69.8281L106.354 69.9857C106.752 70.0777 107.048 70.2193 107.244 70.4107C107.439 70.6021 107.536 70.8507 107.536 71.1566C107.536 71.4155 107.461 71.6463 107.311 71.849C107.163 72.0497 106.956 72.2074 106.689 72.3218C106.425 72.4363 106.118 72.4935 105.769 72.4935C105.285 72.4935 104.89 72.3903 104.584 72.1839C104.278 71.9756 104.09 71.6801 104.021 71.2973L104.834 71.1735C104.885 71.3855 104.989 71.5459 105.147 71.6548C105.304 71.7617 105.51 71.8152 105.763 71.8152C106.039 71.8152 106.259 71.758 106.425 71.6435C106.59 71.5272 106.672 71.3855 106.672 71.2185C106.672 71.0834 106.622 70.9699 106.52 70.8779C106.421 70.786 106.268 70.7166 106.061 70.6697L105.33 70.5092C104.926 70.4173 104.628 70.2709 104.435 70.0702C104.243 69.8694 104.148 69.6151 104.148 69.3074C104.148 69.0522 104.219 68.8289 104.361 68.6376C104.504 68.4462 104.701 68.297 104.953 68.19C105.204 68.0812 105.492 68.0268 105.817 68.0268C106.284 68.0268 106.652 68.1281 106.92 68.3308C107.188 68.5315 107.366 68.8008 107.452 69.1385ZM110.242 68.0831V68.7586H107.88V68.0831H110.242ZM108.514 67.0473H109.355V71.1369C109.355 71.3001 109.38 71.423 109.428 71.5056C109.477 71.5863 109.54 71.6416 109.617 71.6717C109.696 71.6998 109.781 71.7139 109.873 71.7139C109.941 71.7139 110 71.7092 110.05 71.6998C110.101 71.6904 110.141 71.6829 110.169 71.6773L110.321 72.3725C110.272 72.3912 110.202 72.41 110.112 72.4288C110.022 72.4494 109.91 72.4607 109.775 72.4625C109.553 72.4663 109.347 72.4269 109.155 72.3443C108.964 72.2618 108.809 72.1342 108.691 71.9616C108.573 71.7889 108.514 71.5722 108.514 71.3114V67.0473ZM112.03 71.6182L111.988 71.925C111.959 72.1501 111.912 72.3847 111.844 72.6286C111.778 72.8744 111.71 73.1024 111.639 73.3125C111.569 73.5227 111.512 73.6897 111.467 73.8135H110.87C110.895 73.6972 110.928 73.5396 110.972 73.3407C111.015 73.1437 111.057 72.9232 111.098 72.6793C111.14 72.4353 111.17 72.1867 111.191 71.9334L111.219 71.6182H112.03ZM114.736 72.4062V71.7758L116.687 69.7549C116.895 69.5354 117.067 69.3431 117.202 69.178C117.339 69.011 117.441 68.8524 117.508 68.7023C117.576 68.5522 117.61 68.3927 117.61 68.2238C117.61 68.0324 117.565 67.8673 117.475 67.7285C117.385 67.5877 117.262 67.4798 117.106 67.4048C116.95 67.3279 116.775 67.2894 116.58 67.2894C116.373 67.2894 116.193 67.3316 116.039 67.416C115.885 67.5005 115.767 67.6196 115.685 67.7735C115.602 67.9274 115.561 68.1075 115.561 68.3139H114.731C114.731 67.963 114.811 67.6562 114.973 67.3935C115.134 67.1308 115.355 66.9272 115.637 66.7828C115.918 66.6364 116.238 66.5632 116.597 66.5632C116.959 66.5632 117.278 66.6355 117.554 66.78C117.831 66.9226 118.048 67.1177 118.204 67.3654C118.359 67.6112 118.437 67.8889 118.437 68.1985C118.437 68.4124 118.397 68.6216 118.316 68.8261C118.237 69.0307 118.1 69.2586 117.903 69.5101C117.706 69.7596 117.432 70.0627 117.081 70.4192L115.935 71.6182V71.6604H118.53V72.4062H114.736ZM121.366 72.5019C120.921 72.5001 120.541 72.3828 120.226 72.1501C119.911 71.9175 119.67 71.5788 119.503 71.1341C119.336 70.6894 119.252 70.1537 119.252 69.527C119.252 68.9021 119.336 68.3683 119.503 67.9255C119.672 67.4827 119.914 67.1449 120.229 66.9122C120.546 66.6796 120.925 66.5632 121.366 66.5632C121.807 66.5632 122.185 66.6805 122.5 66.915C122.815 67.1477 123.057 67.4855 123.224 67.9283C123.392 68.3692 123.477 68.9021 123.477 69.527C123.477 70.1555 123.393 70.6922 123.226 71.1369C123.059 71.5797 122.818 71.9184 122.503 72.1529C122.188 72.3856 121.809 72.5019 121.366 72.5019ZM121.366 71.7505C121.756 71.7505 122.061 71.56 122.281 71.1791C122.502 70.7982 122.613 70.2475 122.613 69.527C122.613 69.0485 122.562 68.6441 122.461 68.3139C122.361 67.9818 122.218 67.7303 122.03 67.5596C121.844 67.387 121.623 67.3006 121.366 67.3006C120.977 67.3006 120.673 67.492 120.451 67.8748C120.23 68.2576 120.118 68.8083 120.116 69.527C120.116 70.0073 120.166 70.4135 120.265 70.7457C120.367 71.0759 120.51 71.3264 120.696 71.4971C120.882 71.666 121.105 71.7505 121.366 71.7505ZM124.238 72.4062V71.7758L126.188 69.7549C126.396 69.5354 126.568 69.3431 126.703 69.178C126.84 69.011 126.942 68.8524 127.01 68.7023C127.077 68.5522 127.111 68.3927 127.111 68.2238C127.111 68.0324 127.066 67.8673 126.976 67.7285C126.886 67.5877 126.763 67.4798 126.607 67.4048C126.452 67.3279 126.276 67.2894 126.081 67.2894C125.875 67.2894 125.695 67.3316 125.541 67.416C125.387 67.5005 125.269 67.6196 125.186 67.7735C125.103 67.9274 125.062 68.1075 125.062 68.3139H124.232C124.232 67.963 124.313 67.6562 124.474 67.3935C124.635 67.1308 124.857 66.9272 125.138 66.7828C125.42 66.6364 125.74 66.5632 126.098 66.5632C126.46 66.5632 126.779 66.6355 127.055 66.78C127.333 66.9226 127.549 67.1177 127.705 67.3654C127.861 67.6112 127.939 67.8889 127.939 68.1985C127.939 68.4124 127.898 68.6216 127.818 68.8261C127.739 69.0307 127.601 69.2586 127.404 69.5101C127.207 69.7596 126.933 70.0627 126.582 70.4192L125.437 71.6182V71.6604H128.032V72.4062H124.238ZM130.867 72.4851C130.481 72.4851 130.135 72.4184 129.831 72.2852C129.529 72.152 129.29 71.9672 129.114 71.7308C128.939 71.4925 128.845 71.2166 128.832 70.9033H129.716C129.727 71.074 129.785 71.2223 129.888 71.348C129.993 71.4718 130.13 71.5675 130.299 71.6351C130.468 71.7026 130.655 71.7364 130.862 71.7364C131.089 71.7364 131.289 71.697 131.464 71.6182C131.64 71.5394 131.778 71.4296 131.878 71.2889C131.977 71.1463 132.027 70.9821 132.027 70.7963C132.027 70.6031 131.977 70.4332 131.878 70.2869C131.78 70.1387 131.637 70.0223 131.447 69.9379C131.259 69.8534 131.032 69.8112 130.766 69.8112H130.279V69.102H130.766C130.98 69.102 131.167 69.0635 131.329 68.9866C131.492 68.9096 131.62 68.8027 131.712 68.6657C131.804 68.5269 131.85 68.3645 131.85 68.1788C131.85 68.0005 131.809 67.8457 131.729 67.7144C131.65 67.5812 131.537 67.477 131.391 67.402C131.246 67.3269 131.076 67.2894 130.879 67.2894C130.691 67.2894 130.515 67.3241 130.352 67.3935C130.191 67.4611 130.059 67.5586 129.958 67.6862C129.857 67.812 129.802 67.963 129.795 68.1394H128.953C128.963 67.8279 129.055 67.554 129.229 67.3175C129.406 67.0811 129.638 66.8963 129.927 66.7631C130.216 66.6298 130.537 66.5632 130.89 66.5632C131.259 66.5632 131.578 66.6355 131.847 66.78C132.117 66.9226 132.325 67.113 132.472 67.3513C132.62 67.5896 132.693 67.8504 132.691 68.1338C132.693 68.4565 132.603 68.7304 132.421 68.9556C132.241 69.1808 132.001 69.3318 131.7 69.4087V69.4538C132.083 69.5119 132.38 69.6639 132.59 69.9097C132.802 70.1555 132.907 70.4605 132.905 70.8245C132.907 71.1416 132.819 71.4258 132.64 71.6773C132.464 71.9287 132.223 72.1267 131.917 72.2712C131.611 72.4138 131.261 72.4851 130.867 72.4851Z" fill="#B4B5BB"/>
<path d="M30.9105 67.1414C30.4693 66.8017 30.0282 66.5469 29.5871 66.3771C29.1459 66.2072 28.7048 66.1223 28.1754 66.1223C27.2049 66.0374 26.1462 66.2922 25.0874 66.462C24.0287 66.7168 23.0582 66.9715 22.3524 67.2263C21.6465 67.481 21.1172 67.6509 21.1172 67.6509C21.1172 67.6509 21.5583 67.9056 22.3524 68.2453C23.0582 68.585 24.1169 68.9247 25.2639 69.0945C26.4109 69.2643 27.5578 69.2643 28.6165 69.0096C29.7635 68.7548 30.6458 68.1604 30.9105 67.1414Z" fill="#FFCB6D"/>
<path d="M27.8253 62.8088C28.2664 63.658 28.7958 64.5072 29.5898 65.0167C29.9428 65.2715 30.3839 65.5262 30.825 65.6111C31.2662 65.696 31.7955 65.696 32.2367 65.4413C32.2367 64.4223 31.972 63.5731 31.5309 62.8937C31.0897 62.2144 30.3839 61.535 29.7663 61.0255C29.0605 60.516 28.4429 60.0914 27.9135 59.7517C27.3842 59.412 27.0312 59.2422 27.0312 59.2422C27.0312 59.2422 27.0312 59.3271 27.0312 59.5819C27.0312 59.7517 27.1195 60.0065 27.1195 60.3461C27.2077 61.0255 27.3842 61.8747 27.8253 62.8088Z" fill="#FFCB6D"/>
<path d="M20.4075 65.1019C21.4662 65.017 22.3485 64.6773 22.9661 63.8281C22.4367 62.9789 21.6427 62.4694 20.7604 62.2147C19.8781 61.9599 18.7312 61.875 17.6724 61.875C16.6137 61.875 15.555 61.875 14.7609 61.875C13.9669 61.875 13.4375 61.875 13.4375 61.875C13.4375 61.875 13.5257 61.9599 13.7022 62.1297C13.8786 62.2996 14.1433 62.5543 14.4962 62.8091C15.202 63.3186 16.0843 63.9131 17.143 64.4226C18.29 64.8472 19.437 65.1019 20.4075 65.1019Z" fill="#FFCB6D"/>
<path d="M22.3559 61.1952C22.9735 61.8746 23.7676 62.3841 24.7381 62.2991C25.1792 61.365 25.091 60.4309 24.8263 59.5817C24.5616 58.7325 24.0323 57.9683 23.5911 57.2889C23.0617 56.6096 22.6206 56.1 22.1795 55.6754C22.003 55.5056 21.8266 55.3358 21.7383 55.1659C21.6501 55.081 21.5619 54.9961 21.5619 54.9961C21.5619 54.9961 21.5619 55.081 21.4736 55.2509C21.3854 55.4207 21.3854 55.6754 21.2972 56.0151C21.209 56.6945 21.1207 57.5437 21.2972 58.4778C21.4736 59.4968 21.8265 60.4309 22.3559 61.1952Z" fill="#FFCB6D"/>
<path d="M9.82112 54.1483C9.1153 53.8935 8.58594 53.8086 8.58594 53.8086C8.58594 53.8086 8.67415 53.8935 8.76238 54.1483C8.8506 54.3181 9.02706 54.5729 9.20352 54.9125C9.37997 55.2522 9.64467 55.5919 9.90935 56.0165C10.0858 56.1863 10.174 56.4411 10.3505 56.6109L10.4387 56.7808L10.6152 56.9506C10.7034 57.0355 10.7916 57.2054 10.8798 57.2903C11.7621 58.2244 12.8209 58.9887 13.7914 59.3283C14.8501 59.668 15.8206 59.5831 16.7029 58.9037C16.4382 57.8847 15.9088 57.2054 15.1148 56.6958C14.9383 56.526 14.6736 56.4411 14.4972 56.2712C14.3207 56.1014 14.0561 56.0165 13.7914 55.8466C13.5267 55.6768 13.3502 55.5919 13.0855 55.4221C12.8208 55.3371 12.6444 55.1673 12.3797 55.0824C11.4974 54.6578 10.5269 54.3181 9.82112 54.1483Z" fill="#FFCB6D"/>
<path d="M16.9733 55.8457C17.238 56.6949 17.8556 57.3742 18.8261 57.629C19.5319 56.8647 19.7084 55.9306 19.7966 55.1663C19.8848 54.3171 19.7084 53.5529 19.6202 52.8735C19.6202 52.6187 19.4437 52.1092 19.3555 51.7696C19.2672 51.4299 19.0908 51.0902 19.0026 50.7505C18.9143 50.4958 18.8261 50.241 18.7379 50.0712C18.6497 49.9013 18.6497 49.8164 18.6497 49.8164C18.6497 49.8164 18.5614 49.9013 18.4732 50.0712C18.385 50.241 18.2085 50.4958 18.0321 50.7505C17.6791 51.345 17.3262 52.1941 17.0615 53.0433C16.9733 53.2981 16.9733 53.4679 16.8851 53.7227C16.7969 53.9775 16.7969 54.1473 16.7969 54.4021C16.7969 54.6568 16.7969 54.8266 16.7969 55.0814C16.7969 55.4211 16.8851 55.6758 16.9733 55.8457Z" fill="#FFCB6D"/>
<path d="M8.76724 50.6683C8.9437 50.8382 9.12016 51.008 9.29661 51.1779C9.47307 51.3477 9.73776 51.5175 9.91422 51.6025C10.7965 52.112 11.6788 52.3667 12.7375 52.0271C12.8257 51.5175 12.8257 51.0929 12.6493 50.6683C12.561 50.4985 12.4728 50.2438 12.3846 50.0739C12.2964 49.9041 12.1199 49.7342 12.0317 49.4795C11.5023 48.7152 10.62 48.1208 9.82598 47.5263C9.03193 46.9319 8.14965 46.4224 7.44382 46.0827C6.738 45.743 6.29688 45.4883 6.29688 45.4883C6.29688 45.4883 6.29688 45.5732 6.38511 45.828C6.47334 46.0827 6.56155 46.3375 6.64978 46.6771C6.91446 47.3565 7.26737 48.3755 7.88496 49.2247C8.06142 49.8192 8.41433 50.2437 8.76724 50.6683Z" fill="#FFCB6D"/>
<path d="M14.2357 50.2428C14.4122 50.6673 14.7651 51.007 15.118 51.2618C16.0003 50.7523 16.5296 49.988 16.8826 49.1388C16.9708 48.969 16.9708 48.7142 17.059 48.5444C17.059 48.4595 17.059 48.2896 17.1472 48.2047C17.1472 48.1198 17.1472 47.9499 17.2355 47.865C17.3237 47.4404 17.3237 47.0158 17.3237 46.5912C17.2355 45.742 17.2354 44.9778 17.059 44.3833C16.9708 44.1286 16.9708 43.8738 16.8826 43.704C16.8826 43.5341 16.7943 43.4492 16.7943 43.4492C16.7943 43.4492 16.7061 43.5341 16.5296 43.704C16.3532 43.8738 16.1767 44.0437 16.0003 44.2984C15.5591 44.8079 15.0298 45.5722 14.5886 46.4214C14.1475 47.2706 13.8828 48.2047 13.8828 49.1388C13.8828 49.3936 13.8828 49.5634 13.971 49.8182C14.0592 49.9031 14.1475 50.0729 14.2357 50.2428Z" fill="#FFCB6D"/>
<path d="M6.91162 42.6008C6.99985 42.8555 7.17631 43.0254 7.35276 43.2801C7.52922 43.4499 7.70568 43.7047 7.88213 43.8745C8.58795 44.5539 9.47023 44.9785 10.529 44.8087C10.7054 44.3841 10.7937 43.8745 10.7054 43.4499C10.7054 43.1952 10.6172 43.0254 10.529 42.7706C10.4407 42.6008 10.3525 42.346 10.2643 42.1762C10.0878 41.7516 9.82316 41.327 9.47025 40.9873C9.29379 40.8175 9.11734 40.5627 9.02911 40.3929C8.85265 40.223 8.67619 40.0532 8.49974 39.7984C7.79392 39.0342 6.99985 38.3548 6.47048 37.8453C5.94112 37.3358 5.5 36.9961 5.5 36.9961C5.5 36.9961 5.5 37.5056 5.5 38.2699C5.5 38.6945 5.58821 39.1191 5.67644 39.5437C5.76467 39.7984 5.76468 40.0532 5.85291 40.3079C5.94113 40.5627 5.94112 40.8175 6.11758 41.0722C6.47049 41.5817 6.73517 42.0912 6.91162 42.6008Z" fill="#FFCB6D"/>
<path d="M13.0909 44.2113C14.0614 43.8717 14.7673 43.1923 15.2084 42.513C15.2966 42.3431 15.3849 42.1733 15.4731 41.9185C15.5613 41.7487 15.6495 41.4939 15.7378 41.3241C15.9142 40.8995 16.0025 40.4749 16.0907 40.1352C16.1789 39.7106 16.2671 39.371 16.2671 38.9464C16.2671 38.7765 16.2671 38.6067 16.3554 38.4368C16.3554 38.267 16.3554 38.0972 16.3554 38.0122C16.4436 37.4178 16.4436 37.0781 16.4436 37.0781C16.4436 37.0781 16.0907 37.248 15.4731 37.6726C15.2966 37.7575 15.2084 37.8424 15.0319 38.0122C14.8555 38.0972 14.679 38.267 14.5908 38.4368C14.2379 38.6916 13.9732 39.0313 13.6203 39.371C13.4438 39.5408 13.3556 39.7106 13.1792 39.9654C13.0909 40.0503 13.0027 40.1352 13.0027 40.3051C12.9145 40.39 12.9145 40.4749 12.8262 40.6447C12.6498 41.0693 12.4733 41.4939 12.3851 41.9185C12.3851 42.1733 12.2969 42.3431 12.2969 42.5979C12.2969 42.8526 12.3851 43.0225 12.3851 43.1923C12.5616 43.4471 12.738 43.8717 13.0909 44.2113Z" fill="#FFCB6D"/>
<path d="M9.37891 31.9007C9.11423 31.4761 8.84953 31.0515 8.67307 30.6269C8.40839 30.2023 8.14372 29.8626 7.96726 29.5229C7.52612 28.9285 7.26145 28.5039 7.26145 28.5039C7.26145 28.5039 7.08498 29.0134 6.99675 29.7777C6.90852 30.1174 6.90854 30.6269 6.82031 31.0515C6.82031 31.3062 6.82031 31.561 6.82031 31.8157C6.82031 32.0705 6.82031 32.3253 6.82031 32.58C6.90854 33.0895 6.90853 33.5991 7.08498 34.1086C7.26144 34.6181 7.43791 35.1276 7.70259 35.4673C8.23196 36.3165 9.02599 36.9109 10.0847 36.9958C10.2612 36.826 10.3494 36.5712 10.4376 36.4014C10.5259 36.2316 10.6141 35.9768 10.6141 35.8069C10.7023 35.3824 10.6141 34.9578 10.5259 34.5332C10.4376 34.1086 10.2612 33.5991 10.0847 33.1745C9.90827 32.8348 9.64359 32.3253 9.37891 31.9007Z" fill="#FFCB6D"/>
<path d="M15.1202 35.8042C15.4731 35.4645 15.7378 35.2098 15.9142 34.7852C16.1789 34.4455 16.3554 34.1058 16.5318 33.6812C16.6201 33.5114 16.7083 33.3416 16.7965 33.1717C16.8847 33.0019 16.9729 32.832 17.0612 32.6622C17.2376 32.3225 17.3259 32.0678 17.4141 31.7281C17.5906 31.2186 17.6788 30.8789 17.6788 30.8789C17.6788 30.8789 17.2376 30.9638 16.62 31.2186C16.0024 31.4733 15.2084 31.813 14.4143 32.4074C14.2379 32.5773 14.0614 32.6622 13.885 32.832C13.7085 33.0019 13.5321 33.1717 13.3556 33.3416C13.0027 33.6812 12.738 34.1058 12.5616 34.4455C12.3851 34.8701 12.2969 35.2947 12.2969 35.7193C12.2969 35.8891 12.2969 36.1439 12.3851 36.3137C12.4733 36.4836 12.5616 36.7383 12.6498 36.9082C13.7085 36.8232 14.5026 36.3986 15.1202 35.8042Z" fill="#FFCB6D"/>
<path d="M12.0296 29.1804C12.2061 29.0106 12.2943 28.8408 12.3826 28.586C12.4708 28.4162 12.559 28.1614 12.559 27.9916C12.559 27.8217 12.6472 27.567 12.6472 27.3122C12.6472 26.8876 12.6472 26.3781 12.559 25.8686C12.4708 25.3591 12.3825 24.9345 12.2943 24.425C12.0296 23.4909 11.765 22.5567 11.5003 21.8774C11.2356 21.198 11.0591 20.7734 11.0591 20.7734C11.0591 20.7734 10.9709 20.8584 10.8827 21.0282C10.7944 21.198 10.618 21.5377 10.4415 21.8774C10.0886 22.5567 9.73571 23.4909 9.55925 24.5099C9.47102 25.0194 9.38281 25.5289 9.38281 26.0384C9.38281 26.2932 9.38282 26.5479 9.47105 26.8027C9.47105 27.0575 9.55926 27.3122 9.64748 27.567C9.82394 27.9916 10.0004 28.4162 10.3533 28.8408C10.7062 29.1804 11.0591 29.5201 11.5885 29.69C11.765 29.605 11.9414 29.4352 12.0296 29.1804Z" fill="#FFCB6D"/>
<path d="M20.4094 25.5321C20.4976 25.3623 20.5858 25.2773 20.5858 25.2773C20.5858 25.2773 20.4976 25.2773 20.2329 25.2773C20.0565 25.2773 19.7918 25.2773 19.4389 25.3623C19.086 25.3623 18.7331 25.4472 18.2919 25.5321C18.1155 25.617 17.8508 25.617 17.6743 25.7019C17.4979 25.7869 17.2332 25.8718 17.0567 25.9567C16.6156 26.1265 16.1744 26.2964 15.7333 26.5511C15.3804 26.8059 15.0275 27.1456 14.6746 27.4003C14.4981 27.5702 14.4099 27.74 14.3217 27.9098C14.2335 28.0797 14.1452 28.3344 14.057 28.5043C13.9688 28.6741 13.9688 28.9289 13.9688 29.0987C13.9688 29.3535 14.057 29.5233 14.057 29.7781C14.5863 29.863 15.0275 29.863 15.4686 29.7781C15.9098 29.6931 16.3509 29.5233 16.7038 29.2685C16.8803 29.1836 17.0567 29.0138 17.2332 28.9289C17.3214 28.844 17.4096 28.759 17.4979 28.759C17.5861 28.6741 17.6743 28.5892 17.7626 28.5892C18.1155 28.3344 18.3802 27.9948 18.6448 27.74C18.9095 27.4003 19.1742 27.1456 19.3506 26.8908C19.4389 26.8059 19.4389 26.721 19.5271 26.6361C19.6153 26.5511 19.6153 26.4662 19.7036 26.4662C19.7918 26.2964 19.88 26.2115 19.9683 26.1265C20.1447 25.8718 20.3212 25.7019 20.4094 25.5321Z" fill="#FFCB6D"/>
<path d="M14.9338 22.9811C15.3749 22.7263 15.7278 22.4715 15.9925 22.1319C16.2572 21.7922 16.4336 21.3676 16.6101 20.943C16.8748 20.0938 16.963 19.0748 16.963 18.1407C16.963 17.8859 16.963 17.6311 16.963 17.3764C16.963 17.1216 16.963 16.8669 16.963 16.697C16.963 16.2724 16.8748 15.8478 16.8748 15.4232C16.7866 14.7439 16.6983 14.2344 16.6983 14.2344C16.6983 14.2344 16.6101 14.3193 16.4336 14.4891C16.2572 14.659 16.0807 14.9137 15.816 15.1685C15.5514 15.5082 15.2867 15.8478 15.1102 16.1875C14.8455 16.6121 14.5808 17.0367 14.4044 17.4613C14.2279 17.9708 14.0515 18.3954 13.875 18.9049C13.7868 19.4144 13.6986 19.924 13.6986 20.3486C13.6104 21.4525 14.0515 22.3866 14.9338 22.9811Z" fill="#FFCB6D"/>
<path d="M22.3493 22.4715C22.7022 22.2167 23.0551 21.962 23.3198 21.7072C23.5845 21.4525 23.8491 21.2826 24.1138 21.0279C24.2903 20.858 24.4667 20.6882 24.6432 20.5183C24.7314 20.4334 24.8197 20.3485 24.8197 20.3485C24.8197 20.3485 24.3785 20.2636 23.6727 20.1787C23.3198 20.1787 22.9669 20.0938 22.5257 20.0938C22.0846 20.0938 21.6435 20.0938 21.1141 20.1787C20.1436 20.3485 19.1731 20.6033 18.4673 21.1128C18.1144 21.3675 17.8497 21.7072 17.585 22.0469C17.4085 22.3866 17.3203 22.8112 17.3203 23.3207C18.2908 23.7453 19.2613 23.6604 20.0554 23.4905C20.4965 23.4056 20.8494 23.2358 21.2906 22.981C21.6435 22.8961 21.9964 22.7262 22.3493 22.4715Z" fill="#FFCB6D"/>
<path d="M29.9424 66.0371C26.5898 64.7634 23.2371 63.2348 20.4138 61.0269C17.4141 58.6492 15.2966 55.4222 13.7968 51.6858C11.944 47.3549 10.6206 42.8542 10.797 38.0987C10.9735 34.0226 12.1204 30.0314 13.885 26.295C15.3849 23.3228 17.2376 20.3506 19.5316 17.7181C19.3551 17.3784 19.3551 16.9539 19.4433 16.6142C19.5316 16.1896 19.708 15.765 19.9727 15.4253C20.5021 14.661 21.2961 13.9817 22.1784 13.5571C23.0607 13.0476 23.9429 12.7928 24.6488 12.623C25.0017 12.5381 25.2664 12.4531 25.4428 12.4531H25.7075H25.7957V12.538C25.7957 12.538 25.7957 12.623 25.7075 12.7079C25.6193 12.8777 25.5311 13.1325 25.3546 13.3872C25.0899 13.9817 24.6488 14.661 24.1194 15.4253C23.8547 15.765 23.5018 16.1047 23.2371 16.4443L22.796 16.8689L22.7958 16.8691C22.6194 17.0389 22.443 17.2086 22.2666 17.2935C21.9137 17.4634 21.5608 17.7181 21.1197 17.803C20.855 17.888 20.5021 17.888 20.1491 17.888C19.1786 19.0768 18.2082 20.2657 17.4141 21.4546C14.1497 26.1251 11.8557 31.56 11.5028 37.2495C11.2382 42.1749 12.3851 46.7605 14.3261 51.2612C15.2966 53.6389 16.5318 55.9318 18.2964 57.8849C20.0609 59.838 22.1784 61.3666 24.4723 62.6404C28.8837 65.0181 35.3243 67.7355 41.412 69.6887L39.7357 70.4529C36.2066 68.8395 32.6775 67.0562 29.9424 66.0371Z" fill="#FFCB6D"/>
<path d="M167.629 67.1414C168.07 66.8017 168.511 66.5469 168.952 66.3771C169.393 66.2072 169.834 66.1223 170.364 66.1223C171.334 66.0374 172.393 66.2922 173.452 66.462C174.51 66.7168 175.481 66.9715 176.187 67.2263C176.893 67.481 177.422 67.6509 177.422 67.6509C177.422 67.6509 176.981 67.9056 176.187 68.2453C175.481 68.585 174.422 68.9247 173.275 69.0945C172.128 69.2643 170.981 69.2643 169.923 69.0096C168.776 68.7548 167.893 68.1604 167.629 67.1414Z" fill="#FFCB6D"/>
<path d="M170.714 62.8088C170.273 63.658 169.743 64.5072 168.949 65.0167C168.596 65.2715 168.155 65.5262 167.714 65.6111C167.273 65.696 166.744 65.696 166.302 65.4413C166.302 64.4223 166.567 63.5731 167.008 62.8937C167.449 62.2144 168.155 61.535 168.773 61.0255C169.479 60.516 170.096 60.0914 170.626 59.7517C171.155 59.412 171.508 59.2422 171.508 59.2422C171.508 59.2422 171.508 59.3271 171.508 59.5819C171.508 59.7517 171.42 60.0065 171.42 60.3461C171.331 61.0255 171.155 61.8747 170.714 62.8088Z" fill="#FFCB6D"/>
<path d="M178.132 65.1019C177.073 65.017 176.191 64.6773 175.573 63.8281C176.102 62.9789 176.896 62.4694 177.779 62.2147C178.661 61.9599 179.808 61.875 180.867 61.875C181.925 61.875 182.984 61.875 183.778 61.875C184.572 61.875 185.102 61.875 185.102 61.875C185.102 61.875 185.013 61.9599 184.837 62.1297C184.66 62.2996 184.396 62.5543 184.043 62.8091C183.337 63.3186 182.455 63.9131 181.396 64.4226C180.249 64.8472 179.102 65.1019 178.132 65.1019Z" fill="#FFCB6D"/>
<path d="M176.183 61.1952C175.566 61.8746 174.772 62.3841 173.801 62.2991C173.36 61.365 173.448 60.4309 173.713 59.5817C173.977 58.7325 174.507 57.9683 174.948 57.2889C175.477 56.6096 175.918 56.1 176.36 55.6754C176.536 55.5056 176.713 55.3358 176.801 55.1659C176.889 55.081 176.977 54.9961 176.977 54.9961C176.977 54.9961 176.977 55.081 177.065 55.2509C177.154 55.4207 177.154 55.6754 177.242 56.0151C177.33 56.6945 177.418 57.5437 177.242 58.4778C177.065 59.4968 176.713 60.4309 176.183 61.1952Z" fill="#FFCB6D"/>
<path d="M188.718 54.1483C189.424 53.8935 189.953 53.8086 189.953 53.8086C189.953 53.8086 189.865 53.8935 189.777 54.1483C189.688 54.3181 189.512 54.5729 189.336 54.9125C189.159 55.2522 188.894 55.5919 188.63 56.0165C188.453 56.1863 188.365 56.4411 188.189 56.6109L188.1 56.7808L187.924 56.9506C187.836 57.0355 187.747 57.2054 187.659 57.2903C186.777 58.2244 185.718 58.9887 184.748 59.3283C183.689 59.668 182.718 59.5831 181.836 58.9037C182.101 57.8847 182.63 57.2054 183.424 56.6958C183.601 56.526 183.865 56.4411 184.042 56.2712C184.218 56.1014 184.483 56.0165 184.748 55.8466C185.012 55.6768 185.189 55.5919 185.454 55.4221C185.718 55.3371 185.895 55.1673 186.159 55.0824C187.042 54.6578 188.012 54.3181 188.718 54.1483Z" fill="#FFCB6D"/>
<path d="M181.574 55.8457C181.309 56.6949 180.691 57.3742 179.721 57.629C179.015 56.8647 178.838 55.9306 178.75 55.1663C178.662 54.3171 178.838 53.5529 178.927 52.8735C178.927 52.6187 179.103 52.1092 179.191 51.7696C179.28 51.4299 179.456 51.0902 179.544 50.7505C179.633 50.4958 179.721 50.241 179.809 50.0712C179.897 49.9013 179.897 49.8164 179.897 49.8164C179.897 49.8164 179.985 49.9013 180.074 50.0712C180.162 50.241 180.338 50.4958 180.515 50.7505C180.868 51.345 181.221 52.1941 181.485 53.0433C181.574 53.2981 181.574 53.4679 181.662 53.7227C181.75 53.9775 181.75 54.1473 181.75 54.4021C181.75 54.6568 181.75 54.8266 181.75 55.0814C181.75 55.4211 181.662 55.6758 181.574 55.8457Z" fill="#FFCB6D"/>
<path d="M189.772 50.6683C189.595 50.8382 189.419 51.008 189.242 51.1779C189.066 51.3477 188.801 51.5175 188.625 51.6025C187.743 52.112 186.86 52.3667 185.802 52.0271C185.713 51.5175 185.713 51.0929 185.89 50.6683C185.978 50.4985 186.066 50.2438 186.154 50.0739C186.243 49.9041 186.419 49.7342 186.507 49.4795C187.037 48.7152 187.919 48.1208 188.713 47.5263C189.507 46.9319 190.389 46.4224 191.095 46.0827C191.801 45.743 192.242 45.4883 192.242 45.4883C192.242 45.4883 192.242 45.5732 192.154 45.828C192.066 46.0827 191.978 46.3375 191.889 46.6771C191.625 47.3565 191.272 48.3755 190.654 49.2247C190.478 49.8192 190.125 50.2437 189.772 50.6683Z" fill="#FFCB6D"/>
<path d="M184.303 50.2428C184.127 50.6673 183.774 51.007 183.421 51.2618C182.539 50.7523 182.009 49.988 181.657 49.1388C181.568 48.969 181.568 48.7142 181.48 48.5444C181.48 48.4595 181.48 48.2896 181.392 48.2047C181.392 48.1198 181.392 47.9499 181.304 47.865C181.215 47.4404 181.215 47.0158 181.215 46.5912C181.304 45.742 181.304 44.9778 181.48 44.3833C181.568 44.1286 181.568 43.8738 181.657 43.704C181.657 43.5341 181.745 43.4492 181.745 43.4492C181.745 43.4492 181.833 43.5341 182.009 43.704C182.186 43.8738 182.362 44.0437 182.539 44.2984C182.98 44.8079 183.509 45.5722 183.95 46.4214C184.392 47.2706 184.656 48.2047 184.656 49.1388C184.656 49.3936 184.656 49.5634 184.568 49.8182C184.48 49.9031 184.392 50.0729 184.303 50.2428Z" fill="#FFCB6D"/>
<path d="M191.627 42.6008C191.539 42.8555 191.363 43.0254 191.186 43.2801C191.01 43.4499 190.833 43.7047 190.657 43.8745C189.951 44.5539 189.069 44.9785 188.01 44.8087C187.834 44.3841 187.745 43.8745 187.834 43.4499C187.834 43.1952 187.922 43.0254 188.01 42.7706C188.098 42.6008 188.187 42.346 188.275 42.1762C188.451 41.7516 188.716 41.327 189.069 40.9873C189.245 40.8175 189.422 40.5627 189.51 40.3929C189.686 40.223 189.863 40.0532 190.039 39.7984C190.745 39.0342 191.539 38.3548 192.069 37.8453C192.598 37.3358 193.039 36.9961 193.039 36.9961C193.039 36.9961 193.039 37.5056 193.039 38.2699C193.039 38.6945 192.951 39.1191 192.863 39.5437C192.774 39.7984 192.774 40.0532 192.686 40.3079C192.598 40.5627 192.598 40.8175 192.421 41.0722C192.069 41.5817 191.804 42.0912 191.627 42.6008Z" fill="#FFCB6D"/>
<path d="M185.448 44.2113C184.478 43.8717 183.772 43.1923 183.331 42.513C183.242 42.3431 183.154 42.1733 183.066 41.9185C182.978 41.7487 182.89 41.4939 182.801 41.3241C182.625 40.8995 182.537 40.4749 182.448 40.1352C182.36 39.7106 182.272 39.371 182.272 38.9464C182.272 38.7765 182.272 38.6067 182.184 38.4368C182.184 38.267 182.184 38.0972 182.184 38.0122C182.095 37.4178 182.095 37.0781 182.095 37.0781C182.095 37.0781 182.448 37.248 183.066 37.6726C183.242 37.7575 183.331 37.8424 183.507 38.0122C183.684 38.0972 183.86 38.267 183.948 38.4368C184.301 38.6916 184.566 39.0313 184.919 39.371C185.095 39.5408 185.183 39.7106 185.36 39.9654C185.448 40.0503 185.536 40.1352 185.536 40.3051C185.625 40.39 185.625 40.4749 185.713 40.6447C185.889 41.0693 186.066 41.4939 186.154 41.9185C186.154 42.1733 186.242 42.3431 186.242 42.5979C186.242 42.8526 186.154 43.0225 186.154 43.1923C185.977 43.4471 185.801 43.8717 185.448 44.2113Z" fill="#FFCB6D"/>
<path d="M189.16 31.9007C189.425 31.4761 189.69 31.0515 189.866 30.6269C190.131 30.2023 190.395 29.8626 190.572 29.5229C191.013 28.9285 191.278 28.5039 191.278 28.5039C191.278 28.5039 191.454 29.0134 191.542 29.7777C191.631 30.1174 191.631 30.6269 191.719 31.0515C191.719 31.3062 191.719 31.561 191.719 31.8157C191.719 32.0705 191.719 32.3253 191.719 32.58C191.631 33.0895 191.631 33.5991 191.454 34.1086C191.278 34.6181 191.101 35.1276 190.836 35.4673C190.307 36.3165 189.513 36.9109 188.454 36.9958C188.278 36.826 188.19 36.5712 188.101 36.4014C188.013 36.2316 187.925 35.9768 187.925 35.8069C187.837 35.3824 187.925 34.9578 188.013 34.5332C188.101 34.1086 188.278 33.5991 188.454 33.1745C188.631 32.8348 188.895 32.3253 189.16 31.9007Z" fill="#FFCB6D"/>
<path d="M183.419 35.8042C183.066 35.4645 182.801 35.2098 182.625 34.7852C182.36 34.4455 182.184 34.1058 182.007 33.6812C181.919 33.5114 181.831 33.3416 181.743 33.1717C181.654 33.0019 181.566 32.832 181.478 32.6622C181.301 32.3225 181.213 32.0678 181.125 31.7281C180.949 31.2186 180.86 30.8789 180.86 30.8789C180.86 30.8789 181.301 30.9638 181.919 31.2186C182.537 31.4733 183.331 31.813 184.125 32.4074C184.301 32.5773 184.478 32.6622 184.654 32.832C184.831 33.0019 185.007 33.1717 185.183 33.3416C185.536 33.6812 185.801 34.1058 185.977 34.4455C186.154 34.8701 186.242 35.2947 186.242 35.7193C186.242 35.8891 186.242 36.1439 186.154 36.3137C186.066 36.4836 185.978 36.7383 185.889 36.9082C184.831 36.8232 184.036 36.3986 183.419 35.8042Z" fill="#FFCB6D"/>
<path d="M186.509 29.1804C186.333 29.0106 186.245 28.8408 186.157 28.586C186.068 28.4162 185.98 28.1614 185.98 27.9916C185.98 27.8217 185.892 27.567 185.892 27.3122C185.892 26.8876 185.892 26.3781 185.98 25.8686C186.068 25.3591 186.157 24.9345 186.245 24.425C186.509 23.4909 186.774 22.5567 187.039 21.8774C187.303 21.198 187.48 20.7734 187.48 20.7734C187.48 20.7734 187.568 20.8584 187.656 21.0282C187.745 21.198 187.921 21.5377 188.098 21.8774C188.45 22.5567 188.803 23.4909 188.98 24.5099C189.068 25.0194 189.156 25.5289 189.156 26.0384C189.156 26.2932 189.156 26.5479 189.068 26.8027C189.068 27.0575 188.98 27.3122 188.892 27.567C188.715 27.9916 188.539 28.4162 188.186 28.8408C187.833 29.1804 187.48 29.5201 186.951 29.69C186.774 29.605 186.598 29.4352 186.509 29.1804Z" fill="#FFCB6D"/>
<path d="M178.13 25.5321C178.041 25.3623 177.953 25.2773 177.953 25.2773C177.953 25.2773 178.041 25.2773 178.306 25.2773C178.483 25.2773 178.747 25.2773 179.1 25.3623C179.453 25.3623 179.806 25.4472 180.247 25.5321C180.424 25.617 180.688 25.617 180.865 25.7019C181.041 25.7869 181.306 25.8718 181.482 25.9567C181.923 26.1265 182.365 26.2964 182.806 26.5511C183.159 26.8059 183.512 27.1456 183.864 27.4003C184.041 27.5702 184.129 27.74 184.217 27.9098C184.306 28.0797 184.394 28.3344 184.482 28.5043C184.57 28.6741 184.57 28.9289 184.57 29.0987C184.57 29.3535 184.482 29.5233 184.482 29.7781C183.953 29.863 183.512 29.863 183.07 29.7781C182.629 29.6931 182.188 29.5233 181.835 29.2685C181.659 29.1836 181.482 29.0138 181.306 28.9289C181.218 28.844 181.129 28.759 181.041 28.759C180.953 28.6741 180.865 28.5892 180.777 28.5892C180.424 28.3344 180.159 27.9948 179.894 27.74C179.63 27.4003 179.365 27.1456 179.188 26.8908C179.1 26.8059 179.1 26.721 179.012 26.6361C178.924 26.5511 178.924 26.4662 178.836 26.4662C178.747 26.2964 178.659 26.2115 178.571 26.1265C178.394 25.8718 178.218 25.7019 178.13 25.5321Z" fill="#FFCB6D"/>
<path d="M183.597 22.9811C183.156 22.7263 182.803 22.4715 182.539 22.1319C182.274 21.7922 182.098 21.3676 181.921 20.943C181.656 20.0938 181.568 19.0748 181.568 18.1407C181.568 17.8859 181.568 17.6311 181.568 17.3764C181.568 17.1216 181.568 16.8669 181.568 16.697C181.568 16.2724 181.656 15.8478 181.656 15.4232C181.745 14.7439 181.833 14.2344 181.833 14.2344C181.833 14.2344 181.921 14.3193 182.098 14.4891C182.274 14.659 182.451 14.9137 182.715 15.1685C182.98 15.5082 183.245 15.8478 183.421 16.1875C183.686 16.6121 183.95 17.0367 184.127 17.4613C184.303 17.9708 184.48 18.3954 184.656 18.9049C184.744 19.4144 184.833 19.924 184.833 20.3486C184.921 21.4525 184.48 22.3866 183.597 22.9811Z" fill="#FFCB6D"/>
<path d="M176.19 22.4715C175.837 22.2167 175.484 21.962 175.219 21.7072C174.955 21.4525 174.69 21.2826 174.425 21.0279C174.249 20.858 174.072 20.6882 173.896 20.5183C173.808 20.4334 173.719 20.3485 173.719 20.3485C173.719 20.3485 174.161 20.2636 174.866 20.1787C175.219 20.1787 175.572 20.0938 176.013 20.0938C176.454 20.0938 176.896 20.0938 177.425 20.1787C178.395 20.3485 179.366 20.6033 180.072 21.1128C180.425 21.3675 180.689 21.7072 180.954 22.0469C181.131 22.3866 181.219 22.8112 181.219 23.3207C180.248 23.7453 179.278 23.6604 178.484 23.4905C178.043 23.4056 177.69 23.2358 177.249 22.981C176.896 22.8961 176.543 22.7262 176.19 22.4715Z" fill="#FFCB6D"/>
<path d="M168.597 66.0371C171.949 64.7634 175.302 63.2348 178.125 61.0269C181.125 58.6492 183.242 55.4222 184.742 51.6858C186.595 47.3549 187.918 42.8542 187.742 38.0987C187.566 34.0226 186.419 30.0314 184.654 26.295C183.154 23.3228 181.301 20.3506 179.007 17.7181C179.184 17.3784 179.184 16.9539 179.096 16.6142C179.008 16.1896 178.831 15.765 178.566 15.4253C178.037 14.661 177.243 13.9817 176.361 13.5571C175.478 13.0476 174.596 12.7928 173.89 12.623C173.537 12.5381 173.273 12.4531 173.096 12.4531H172.832H172.743V12.538C172.743 12.538 172.743 12.623 172.832 12.7079C172.92 12.8777 173.008 13.1325 173.184 13.3872C173.449 13.9817 173.89 14.661 174.42 15.4253C174.684 15.765 175.037 16.1047 175.302 16.4443L175.743 16.8689L175.743 16.8691C175.92 17.0389 176.096 17.2086 176.272 17.2935C176.625 17.4634 176.978 17.7181 177.419 17.803C177.684 17.888 178.037 17.888 178.39 17.888C179.36 19.0768 180.331 20.2657 181.125 21.4546C184.389 26.1251 186.683 31.56 187.036 37.2495C187.301 42.1749 186.154 46.7605 184.213 51.2612C183.242 53.6389 182.007 55.9318 180.243 57.8849C178.478 59.838 176.361 61.3666 174.067 62.6404C169.655 65.0181 163.215 67.7355 157.127 69.6887L158.803 70.4529C162.332 68.8395 165.862 67.0562 168.597 66.0371Z" fill="#FFCB6D"/>
<g clip-path="url(#clip0_5702_62900)">
<g clip-path="url(#clip1_5702_62900)">
<path fill-rule="evenodd" clip-rule="evenodd" d="M101.482 7.57812H101.096L100.055 9.96121H100.481L100.724 9.39008H101.844L102.084 9.96121H102.527L101.482 7.57812ZM101.691 9.02105H100.876L101.278 8.07485L101.691 9.02105Z" fill="white"/>
<path fill-rule="evenodd" clip-rule="evenodd" d="M114.271 7.98277H115.021V7.59766H113.102V7.98277H113.852V9.96365H114.271V7.98277Z" fill="white"/>
<path fill-rule="evenodd" clip-rule="evenodd" d="M111.505 8.21913C111.505 8.1801 111.514 8.14161 111.531 8.10671C111.549 8.0718 111.574 8.04144 111.605 8.01803C111.687 7.9585 111.788 7.92936 111.889 7.93557C111.999 7.93593 112.108 7.95708 112.21 7.99792C112.324 8.04436 112.432 8.10518 112.53 8.17891L112.754 7.86418C112.636 7.76988 112.505 7.69517 112.363 7.64297C112.213 7.59012 112.054 7.56425 111.895 7.56655C111.785 7.56552 111.676 7.58216 111.571 7.61582C111.478 7.64533 111.391 7.69319 111.317 7.75659C111.247 7.817 111.19 7.89132 111.151 7.97479C111.11 8.06327 111.089 8.15983 111.09 8.25734C111.088 8.35351 111.106 8.44917 111.143 8.53788C111.177 8.6161 111.229 8.68503 111.296 8.73898C111.37 8.79719 111.454 8.84272 111.543 8.87373C111.653 8.91418 111.766 8.94776 111.881 8.97428C111.991 9.00143 112.082 9.02757 112.15 9.0517C112.208 9.07099 112.263 9.09769 112.313 9.13114C112.348 9.154 112.376 9.18598 112.395 9.22365C112.41 9.25993 112.417 9.29895 112.417 9.33828C112.418 9.38159 112.408 9.42451 112.388 9.46302C112.368 9.50153 112.339 9.53437 112.303 9.55849C112.213 9.61617 112.108 9.64462 112.002 9.63993C111.863 9.64278 111.726 9.61568 111.599 9.5605C111.472 9.49941 111.355 9.42015 111.25 9.3252L111 9.62686C111.135 9.75084 111.292 9.84778 111.464 9.91243C111.631 9.9744 111.809 10.0057 111.987 10.0049C112.103 10.0062 112.218 9.99027 112.329 9.95768C112.426 9.92954 112.516 9.88236 112.595 9.81892C112.668 9.75828 112.727 9.68202 112.768 9.59569C112.811 9.50097 112.832 9.39796 112.83 9.29403C112.832 9.20539 112.815 9.11733 112.781 9.03561C112.748 8.96153 112.698 8.89564 112.637 8.84255C112.566 8.78245 112.485 8.73486 112.398 8.70178C112.29 8.66119 112.18 8.6276 112.068 8.60123C111.954 8.57408 111.862 8.54794 111.788 8.5238C111.727 8.50465 111.669 8.47724 111.615 8.44236C111.579 8.41895 111.549 8.38636 111.529 8.34784C111.511 8.30737 111.503 8.26332 111.505 8.21913Z" fill="white"/>
<path fill-rule="evenodd" clip-rule="evenodd" d="M110.642 7.59766H108.891V9.96365H110.659V9.58859H109.304V8.95612H110.49V8.58106H109.304V7.97272H110.642V7.59766Z" fill="white"/>
<path fill-rule="evenodd" clip-rule="evenodd" d="M108.43 7.59766H106.672V9.96365H107.084V9.00036H108.278V8.6253H107.084V7.97272H108.43V7.59766Z" fill="white"/>
<path d="M106.037 7.59766H105.625V9.96466H106.037V7.59766Z" fill="white"/>
<path fill-rule="evenodd" clip-rule="evenodd" d="M104.58 9.23364L103.315 7.59766H102.93V9.96365H103.342V8.28041L104.644 9.96365H104.992V7.59766H104.58V9.23364Z" fill="white"/>
<path fill-rule="evenodd" clip-rule="evenodd" d="M99.2416 8.26633V9.96365H99.6549V7.59766H99.2115L98.4915 8.7158L97.7716 7.59766H97.3281V9.96365H97.7404V8.27337L98.4815 9.38246H98.4945L99.2416 8.26633Z" fill="white"/>
<path fill-rule="evenodd" clip-rule="evenodd" d="M95.7985 7.59766H94.0469V9.96365H95.8146V9.58859H94.4591V8.95612H95.6457V8.58106H94.4591V7.97272H95.7985V7.59766Z" fill="white"/>
<path fill-rule="evenodd" clip-rule="evenodd" d="M93.0241 8.96617V9.96365H93.4373V7.59766H93.0241V8.58106H91.8888V7.59766H91.4766V9.96365H91.8888V8.96617H93.0241Z" fill="white"/>
<path fill-rule="evenodd" clip-rule="evenodd" d="M90.2866 7.98277H91.0367V7.59766H89.1172V7.98277H89.8673V9.96365H90.2866V7.98277Z" fill="white"/>
<path fill-rule="evenodd" clip-rule="evenodd" d="M99.2408 10.6312V15.4577H85.8924V14.1143H97.6651V10.6312H97.2689V13.7191H85.8924V2.10537H97.2679V6.93187H97.6641V2.10537H99.2397V6.93187H99.6359V1.70919H97.6651V-0.0273438H83.5234V14.1143H85.4953V15.8498H99.6369V10.6312H99.2408ZM85.4953 13.7171H83.9196V0.369837H97.2679V1.70919H85.4953V13.7171Z" fill="white"/>
</g>
</g>
<defs>
<clipPath id="clip0_5702_62900">
<rect width="65.6708" height="15.8516" fill="white" transform="translate(66.4297)"/>
</clipPath>
<clipPath id="clip1_5702_62900">
<rect width="31.495" height="15.8772" fill="white" transform="translate(83.5156 -0.0273438)"/>
</clipPath>
</defs>
</svg>
