<svg width="198" height="76" viewBox="0 0 198 76" fill="none" xmlns="http://www.w3.org/2000/svg">
<path d="M41.0695 27.6135V26.1161H49.9917V27.6135H46.3946V37.6445H44.6609V27.6135H41.0695ZM53.5822 37.819C52.7716 37.819 52.0643 37.6333 51.4601 37.2618C50.8559 36.8902 50.3868 36.3705 50.0528 35.7025C49.7188 35.0345 49.5518 34.2539 49.5518 33.3608C49.5518 32.4639 49.7188 31.6795 50.0528 31.0078C50.3868 30.3361 50.8559 29.8144 51.4601 29.4429C52.0643 29.0714 52.7716 28.8856 53.5822 28.8856C54.3928 28.8856 55.1002 29.0714 55.7044 29.4429C56.3086 29.8144 56.7777 30.3361 57.1117 31.0078C57.4457 31.6795 57.6127 32.4639 57.6127 33.3608C57.6127 34.2539 57.4457 35.0345 57.1117 35.7025C56.7777 36.3705 56.3086 36.8902 55.7044 37.2618C55.1002 37.6333 54.3928 37.819 53.5822 37.819ZM53.5879 36.4061C54.1133 36.4061 54.5486 36.2673 54.8938 35.9896C55.2391 35.7119 55.4943 35.3422 55.6594 34.8806C55.8283 34.419 55.9127 33.9106 55.9127 33.3551C55.9127 32.8035 55.8283 32.2969 55.6594 31.8353C55.4943 31.3699 55.2391 30.9965 54.8938 30.7151C54.5486 30.4336 54.1133 30.2929 53.5879 30.2929C53.0587 30.2929 52.6197 30.4336 52.2707 30.7151C51.9254 30.9965 51.6683 31.3699 51.4995 31.8353C51.3343 32.2969 51.2518 32.8035 51.2518 33.3551C51.2518 33.9106 51.3343 34.419 51.4995 34.8806C51.6683 35.3422 51.9254 35.7119 52.2707 35.9896C52.6197 36.2673 53.0587 36.4061 53.5879 36.4061ZM58.8573 40.8869V28.9982H60.501V30.3999H60.6418C60.7393 30.2197 60.8801 30.0115 61.0639 29.775C61.2478 29.5386 61.503 29.3322 61.8295 29.1558C62.156 28.9757 62.5876 28.8856 63.1242 28.8856C63.8222 28.8856 64.4452 29.062 64.9931 29.4148C65.541 29.7675 65.9707 30.276 66.2821 30.9403C66.5974 31.6045 66.755 32.4038 66.755 33.3383C66.755 34.2727 66.5992 35.0739 66.2878 35.7419C65.9763 36.4061 65.5485 36.9184 65.0043 37.2786C64.4602 37.6351 63.8391 37.8134 63.1411 37.8134C62.6157 37.8134 62.186 37.7252 61.852 37.5488C61.5218 37.3725 61.2628 37.1661 61.0752 36.9296C60.8876 36.6932 60.7431 36.4831 60.6418 36.2992H60.5404V40.8869H58.8573ZM60.5067 33.3214C60.5067 33.9293 60.5949 34.4622 60.7712 34.92C60.9476 35.3779 61.2028 35.7363 61.5368 35.9952C61.8708 36.2504 62.2798 36.378 62.7639 36.378C63.2668 36.378 63.6871 36.2448 64.0249 35.9783C64.3626 35.7081 64.6178 35.3422 64.7904 34.8806C64.9668 34.419 65.055 33.8993 65.055 33.3214C65.055 32.751 64.9687 32.2387 64.7961 31.7846C64.6272 31.3305 64.372 30.9722 64.0305 30.7095C63.6927 30.4468 63.2706 30.3154 62.7639 30.3154C62.2761 30.3154 61.8633 30.4411 61.5255 30.6926C61.1915 30.944 60.9382 31.2949 60.7656 31.7452C60.593 32.1955 60.5067 32.7209 60.5067 33.3214ZM75.2942 37.819C74.4423 37.819 73.7086 37.637 73.0932 37.273C72.4815 36.9052 72.0087 36.3892 71.6747 35.725C71.3444 35.057 71.1793 34.2746 71.1793 33.3777C71.1793 32.492 71.3444 31.7114 71.6747 31.036C72.0087 30.3605 72.474 29.8332 73.0707 29.4542C73.6711 29.0751 74.3729 28.8856 75.176 28.8856C75.6638 28.8856 76.1367 28.9663 76.5945 29.1277C77.0523 29.2891 77.4633 29.5424 77.8273 29.8876C78.1913 30.2329 78.4784 30.6813 78.6885 31.233C78.8987 31.7809 79.0038 32.447 79.0038 33.2313V33.828H72.1306V32.5671H77.3544C77.3544 32.1242 77.2644 31.7321 77.0842 31.3906C76.9041 31.0453 76.6508 30.7733 76.3243 30.5744C76.0016 30.3755 75.6225 30.276 75.1872 30.276C74.7144 30.276 74.3016 30.3924 73.9488 30.625C73.5998 30.8539 73.3296 31.1542 73.1382 31.5257C72.9506 31.8935 72.8568 32.2931 72.8568 32.7247V33.7098C72.8568 34.2877 72.9581 34.7793 73.1607 35.1846C73.3671 35.5899 73.6542 35.8995 74.022 36.1134C74.3898 36.3236 74.8195 36.4286 75.3111 36.4286C75.6301 36.4286 75.9209 36.3836 76.1836 36.2935C76.4463 36.1997 76.6733 36.0609 76.8647 35.877C77.0561 35.6931 77.2025 35.4661 77.3038 35.1959L78.8968 35.483C78.7692 35.952 78.5403 36.363 78.2101 36.7157C77.8836 37.0647 77.4726 37.3368 76.9773 37.5319C76.4857 37.7233 75.9246 37.819 75.2942 37.819ZM89.9474 29.8651H88.1911C88.1235 29.4898 87.9978 29.1596 87.8139 28.8744C87.6301 28.5892 87.4049 28.3471 87.1385 28.1482C86.872 27.9493 86.5737 27.7992 86.2434 27.6979C85.9169 27.5966 85.5698 27.5459 85.202 27.5459C84.5378 27.5459 83.943 27.7129 83.4176 28.0469C82.896 28.3809 82.4832 28.8706 82.1792 29.5161C81.879 30.1616 81.7289 30.9496 81.7289 31.8803C81.7289 32.8185 81.879 33.6103 82.1792 34.2558C82.4832 34.9013 82.8979 35.3891 83.4232 35.7194C83.9486 36.0496 84.5397 36.2147 85.1964 36.2147C85.5604 36.2147 85.9057 36.166 86.2322 36.0684C86.5624 35.9671 86.8607 35.8188 87.1272 35.6237C87.3936 35.4285 87.6188 35.1902 87.8027 34.9088C87.9903 34.6236 88.1198 34.2971 88.1911 33.9293L89.9474 33.9349C89.8536 34.5016 89.6716 35.0232 89.4014 35.4998C89.1349 35.9727 88.7915 36.3817 88.3712 36.727C87.9547 37.0685 87.4781 37.3331 86.9414 37.5207C86.4048 37.7083 85.8194 37.8021 85.1851 37.8021C84.1869 37.8021 83.2975 37.5657 82.5169 37.0929C81.7364 36.6163 81.1209 35.9352 80.6706 35.0495C80.224 34.1639 80.0007 33.1075 80.0007 31.8803C80.0007 30.6494 80.2259 29.593 80.6762 28.7111C81.1266 27.8255 81.742 27.1462 82.5226 26.6734C83.3031 26.1968 84.1907 25.9585 85.1851 25.9585C85.7968 25.9585 86.3673 26.0467 86.8964 26.2231C87.4293 26.3957 87.9078 26.6509 88.3318 26.9886C88.7559 27.3226 89.1068 27.7317 89.3845 28.2158C89.6622 28.6961 89.8498 29.2459 89.9474 29.8651ZM94.9016 37.819C94.091 37.819 93.3836 37.6333 92.7794 37.2618C92.1752 36.8902 91.7062 36.3705 91.3722 35.7025C91.0382 35.0345 90.8712 34.2539 90.8712 33.3608C90.8712 32.4639 91.0382 31.6795 91.3722 31.0078C91.7062 30.3361 92.1752 29.8144 92.7794 29.4429C93.3836 29.0714 94.091 28.8856 94.9016 28.8856C95.7122 28.8856 96.4196 29.0714 97.0238 29.4429C97.628 29.8144 98.0971 30.3361 98.4311 31.0078C98.7651 31.6795 98.9321 32.4639 98.9321 33.3608C98.9321 34.2539 98.7651 35.0345 98.4311 35.7025C98.0971 36.3705 97.628 36.8902 97.0238 37.2618C96.4196 37.6333 95.7122 37.819 94.9016 37.819ZM94.9072 36.4061C95.4326 36.4061 95.8679 36.2673 96.2132 35.9896C96.5585 35.7119 96.8136 35.3422 96.9788 34.8806C97.1476 34.419 97.2321 33.9106 97.2321 33.3551C97.2321 32.8035 97.1476 32.2969 96.9788 31.8353C96.8136 31.3699 96.5585 30.9965 96.2132 30.7151C95.8679 30.4336 95.4326 30.2929 94.9072 30.2929C94.3781 30.2929 93.939 30.4336 93.59 30.7151C93.2448 30.9965 92.9877 31.3699 92.8188 31.8353C92.6537 32.2969 92.5712 32.8035 92.5712 33.3551C92.5712 33.9106 92.6537 34.419 92.8188 34.8806C92.9877 35.3422 93.2448 35.7119 93.59 35.9896C93.939 36.2673 94.3781 36.4061 94.9072 36.4061ZM100.177 37.6445V28.9982H101.792V30.4055H101.899C102.079 29.9289 102.374 29.5574 102.783 29.2909C103.192 29.0207 103.682 28.8856 104.252 28.8856C104.83 28.8856 105.314 29.0207 105.705 29.2909C106.099 29.5611 106.389 29.9326 106.577 30.4055H106.667C106.873 29.9439 107.202 29.5761 107.652 29.3022C108.103 29.0245 108.639 28.8856 109.262 28.8856C110.046 28.8856 110.686 29.1314 111.182 29.623C111.681 30.1147 111.93 30.8558 111.93 31.8465V37.6445H110.247V32.0042C110.247 31.4187 110.088 30.9947 109.769 30.732C109.45 30.4693 109.069 30.3379 108.626 30.3379C108.078 30.3379 107.652 30.5068 107.348 30.8446C107.044 31.1786 106.892 31.6082 106.892 32.1336V37.6445H105.215V31.8972C105.215 31.4281 105.068 31.051 104.776 30.7658C104.483 30.4805 104.102 30.3379 103.633 30.3379C103.314 30.3379 103.019 30.4224 102.749 30.5913C102.483 30.7564 102.267 30.9872 102.102 31.2836C101.941 31.5801 101.86 31.9235 101.86 32.3138V37.6445H100.177ZM113.552 37.6445V28.9982H115.168V30.4055H115.275C115.455 29.9289 115.749 29.5574 116.158 29.2909C116.567 29.0207 117.057 28.8856 117.628 28.8856C118.206 28.8856 118.69 29.0207 119.08 29.2909C119.474 29.5611 119.765 29.9326 119.952 30.4055H120.042C120.249 29.9439 120.577 29.5761 121.028 29.3022C121.478 29.0245 122.015 28.8856 122.637 28.8856C123.422 28.8856 124.062 29.1314 124.557 29.623C125.056 30.1147 125.306 30.8558 125.306 31.8465V37.6445H123.623V32.0042C123.623 31.4187 123.463 30.9947 123.144 30.732C122.825 30.4693 122.444 30.3379 122.001 30.3379C121.454 30.3379 121.028 30.5068 120.724 30.8446C120.42 31.1786 120.268 31.6082 120.268 32.1336V37.6445H118.59V31.8972C118.59 31.4281 118.444 31.051 118.151 30.7658C117.858 30.4805 117.477 30.3379 117.008 30.3379C116.689 30.3379 116.395 30.4224 116.125 30.5913C115.858 30.7564 115.642 30.9872 115.477 31.2836C115.316 31.5801 115.235 31.9235 115.235 32.3138V37.6445H113.552ZM130.654 37.819C129.802 37.819 129.068 37.637 128.453 37.273C127.841 36.9052 127.368 36.3892 127.034 35.725C126.704 35.057 126.539 34.2746 126.539 33.3777C126.539 32.492 126.704 31.7114 127.034 31.036C127.368 30.3605 127.834 29.8332 128.43 29.4542C129.031 29.0751 129.733 28.8856 130.536 28.8856C131.024 28.8856 131.496 28.9663 131.954 29.1277C132.412 29.2891 132.823 29.5424 133.187 29.8876C133.551 30.2329 133.838 30.6813 134.048 31.233C134.258 31.7809 134.364 32.447 134.364 33.2313V33.828H127.49V32.5671H132.714C132.714 32.1242 132.624 31.7321 132.444 31.3906C132.264 31.0453 132.011 30.7733 131.684 30.5744C131.361 30.3755 130.982 30.276 130.547 30.276C130.074 30.276 129.661 30.3924 129.309 30.625C128.96 30.8539 128.689 31.1542 128.498 31.5257C128.31 31.8935 128.217 32.2931 128.217 32.7247V33.7098C128.217 34.2877 128.318 34.7793 128.521 35.1846C128.727 35.5899 129.014 35.8995 129.382 36.1134C129.75 36.3236 130.179 36.4286 130.671 36.4286C130.99 36.4286 131.281 36.3836 131.543 36.2935C131.806 36.1997 132.033 36.0609 132.224 35.877C132.416 35.6931 132.562 35.4661 132.664 35.1959L134.257 35.483C134.129 35.952 133.9 36.363 133.57 36.7157C133.243 37.0647 132.832 37.3368 132.337 37.5319C131.845 37.7233 131.284 37.819 130.654 37.819ZM135.597 37.6445V28.9982H137.224V30.3717H137.314C137.471 29.9064 137.749 29.5405 138.147 29.274C138.548 29.0038 139.003 28.8687 139.509 28.8687C139.614 28.8687 139.738 28.8725 139.881 28.88C140.027 28.8875 140.142 28.8969 140.224 28.9081V30.5181C140.157 30.4993 140.036 30.4787 139.864 30.4562C139.691 30.4299 139.519 30.4167 139.346 30.4167C138.948 30.4167 138.594 30.5012 138.282 30.6701C137.974 30.8352 137.73 31.066 137.55 31.3624C137.37 31.6552 137.28 31.9891 137.28 32.3644V37.6445H135.597ZM144.379 37.819C143.542 37.819 142.822 37.6295 142.217 37.2505C141.617 36.8677 141.155 36.3405 140.833 35.6687C140.51 34.997 140.349 34.2277 140.349 33.3608C140.349 32.4826 140.514 31.7077 140.844 31.036C141.174 30.3605 141.639 29.8332 142.24 29.4542C142.84 29.0751 143.548 28.8856 144.362 28.8856C145.019 28.8856 145.604 29.0076 146.118 29.2515C146.633 29.4917 147.047 29.8294 147.362 30.2648C147.681 30.7001 147.871 31.2086 147.931 31.7903H146.293C146.203 31.385 145.996 31.036 145.674 30.7432C145.355 30.4505 144.927 30.3042 144.39 30.3042C143.921 30.3042 143.51 30.428 143.157 30.6757C142.808 30.9196 142.536 31.2686 142.341 31.7227C142.146 32.173 142.049 32.7059 142.049 33.3214C142.049 33.9518 142.144 34.496 142.336 34.9538C142.527 35.4116 142.797 35.7663 143.146 36.0177C143.499 36.2692 143.914 36.3949 144.39 36.3949C144.709 36.3949 144.998 36.3367 145.257 36.2204C145.52 36.1003 145.739 35.9295 145.916 35.7081C146.096 35.4867 146.222 35.2203 146.293 34.9088H147.931C147.871 35.4679 147.689 35.9671 147.385 36.4061C147.081 36.8452 146.674 37.1904 146.163 37.4419C145.657 37.6933 145.062 37.819 144.379 37.819ZM152.823 37.819C151.971 37.819 151.238 37.637 150.622 37.273C150.011 36.9052 149.538 36.3892 149.204 35.725C148.874 35.057 148.708 34.2746 148.708 33.3777C148.708 32.492 148.874 31.7114 149.204 31.036C149.538 30.3605 150.003 29.8332 150.6 29.4542C151.2 29.0751 151.902 28.8856 152.705 28.8856C153.193 28.8856 153.666 28.9663 154.124 29.1277C154.581 29.2891 154.992 29.5424 155.356 29.8876C155.72 30.2329 156.007 30.6813 156.218 31.233C156.428 31.7809 156.533 32.447 156.533 33.2313V33.828H149.66V32.5671H154.884C154.884 32.1242 154.793 31.7321 154.613 31.3906C154.433 31.0453 154.18 30.7733 153.853 30.5744C153.531 30.3755 153.152 30.276 152.716 30.276C152.243 30.276 151.831 30.3924 151.478 30.625C151.129 30.8539 150.859 31.1542 150.667 31.5257C150.48 31.8935 150.386 32.2931 150.386 32.7247V33.7098C150.386 34.2877 150.487 34.7793 150.69 35.1846C150.896 35.5899 151.183 35.8995 151.551 36.1134C151.919 36.3236 152.349 36.4286 152.84 36.4286C153.159 36.4286 153.45 36.3836 153.713 36.2935C153.975 36.1997 154.202 36.0609 154.394 35.877C154.585 35.6931 154.732 35.4661 154.833 35.1959L156.426 35.483C156.298 35.952 156.069 36.363 155.739 36.7157C155.413 37.0647 155.002 37.3368 154.506 37.5319C154.015 37.7233 153.454 37.819 152.823 37.819ZM63.6576 55.8134C62.9596 55.8134 62.3366 55.6351 61.7887 55.2786C61.2446 54.9184 60.8167 54.4061 60.5053 53.7419C60.1975 53.0739 60.0437 52.2727 60.0437 51.3383C60.0437 50.4038 60.1994 49.6045 60.5109 48.9403C60.8261 48.276 61.2577 47.7675 61.8056 47.4148C62.3535 47.062 62.9746 46.8856 63.6688 46.8856C64.2055 46.8856 64.637 46.9757 64.9635 47.1558C65.2938 47.3322 65.5489 47.5386 65.7291 47.775C65.913 48.0115 66.0556 48.2197 66.1569 48.3999H66.2582V44.1161H67.9413V55.6445H66.2976V54.2992H66.1569C66.0556 54.4831 65.9092 54.6932 65.7178 54.9296C65.5302 55.1661 65.2712 55.3725 64.941 55.5488C64.6108 55.7252 64.1829 55.8134 63.6576 55.8134ZM64.0291 54.378C64.5132 54.378 64.9222 54.2504 65.2562 53.9952C65.594 53.7363 65.8492 53.3779 66.0218 52.92C66.1982 52.4622 66.2864 51.9293 66.2864 51.3214C66.2864 50.7209 66.2 50.1955 66.0274 49.7452C65.8548 49.2949 65.6015 48.944 65.2675 48.6926C64.9335 48.4411 64.5207 48.3154 64.0291 48.3154C63.5225 48.3154 63.1003 48.4468 62.7625 48.7095C62.4248 48.9722 62.1696 49.3305 61.997 49.7846C61.8281 50.2387 61.7437 50.751 61.7437 51.3214C61.7437 51.8993 61.83 52.419 62.0026 52.8806C62.1752 53.3422 62.4304 53.7081 62.7682 53.9783C63.1097 54.2448 63.53 54.378 64.0291 54.378ZM73.436 55.819C72.5841 55.819 71.8504 55.637 71.235 55.273C70.6233 54.9052 70.1504 54.3892 69.8164 53.725C69.4862 53.057 69.3211 52.2746 69.3211 51.3777C69.3211 50.492 69.4862 49.7114 69.8164 49.036C70.1504 48.3605 70.6158 47.8332 71.2125 47.4542C71.8129 47.0751 72.5147 46.8856 73.3177 46.8856C73.8056 46.8856 74.2784 46.9663 74.7363 47.1277C75.1941 47.2891 75.605 47.5424 75.9691 47.8876C76.3331 48.2329 76.6202 48.6813 76.8303 49.233C77.0405 49.7809 77.1455 50.447 77.1455 51.2313V51.828H70.2724V50.5671H75.4962C75.4962 50.1242 75.4061 49.7321 75.226 49.3906C75.0459 49.0453 74.7926 48.7733 74.4661 48.5744C74.1433 48.3755 73.7643 48.276 73.329 48.276C72.8562 48.276 72.4434 48.3924 72.0906 48.625C71.7416 48.8539 71.4714 49.1542 71.28 49.5257C71.0924 49.8935 70.9985 50.2931 70.9985 50.7247V51.7098C70.9985 52.2877 71.0999 52.7793 71.3025 53.1846C71.5089 53.5899 71.796 53.8995 72.1638 54.1134C72.5315 54.3236 72.9612 54.4286 73.4528 54.4286C73.7718 54.4286 74.0627 54.3836 74.3254 54.2935C74.588 54.1997 74.8151 54.0609 75.0065 53.877C75.1979 53.6931 75.3442 53.4661 75.4455 53.1959L77.0386 53.483C76.911 53.952 76.6821 54.363 76.3518 54.7157C76.0253 55.0647 75.6144 55.3368 75.1191 55.5319C74.6274 55.7233 74.0664 55.819 73.436 55.819ZM85.5279 46.9982L82.3925 55.6445H80.5912L77.4501 46.9982H79.2571L81.4468 53.6518H81.5369L83.721 46.9982H85.5279ZM89.908 55.819C89.0561 55.819 88.3224 55.637 87.707 55.273C87.0953 54.9052 86.6224 54.3892 86.2885 53.725C85.9582 53.057 85.7931 52.2746 85.7931 51.3777C85.7931 50.492 85.9582 49.7114 86.2885 49.036C86.6224 48.3605 87.0878 47.8332 87.6845 47.4542C88.2849 47.0751 88.9867 46.8856 89.7898 46.8856C90.2776 46.8856 90.7505 46.9663 91.2083 47.1277C91.6661 47.2891 92.0771 47.5424 92.4411 47.8876C92.8051 48.2329 93.0922 48.6813 93.3023 49.233C93.5125 49.7809 93.6176 50.447 93.6176 51.2313V51.828H86.7444V50.5671H91.9682C91.9682 50.1242 91.8782 49.7321 91.698 49.3906C91.5179 49.0453 91.2646 48.7733 90.9381 48.5744C90.6154 48.3755 90.2363 48.276 89.801 48.276C89.3282 48.276 88.9154 48.3924 88.5626 48.625C88.2136 48.8539 87.9434 49.1542 87.752 49.5257C87.5644 49.8935 87.4706 50.2931 87.4706 50.7247V51.7098C87.4706 52.2877 87.5719 52.7793 87.7745 53.1846C87.9809 53.5899 88.268 53.8995 88.6358 54.1134C89.0036 54.3236 89.4333 54.4286 89.9249 54.4286C90.2438 54.4286 90.5347 54.3836 90.7974 54.2935C91.0601 54.1997 91.2871 54.0609 91.4785 53.877C91.6699 53.6931 91.8162 53.4661 91.9176 53.1959L93.5106 53.483C93.383 53.952 93.1541 54.363 92.8239 54.7157C92.4974 55.0647 92.0864 55.3368 91.5911 55.5319C91.0995 55.7233 90.5384 55.819 89.908 55.819ZM96.5341 44.1161V55.6445H94.851V44.1161H96.5341ZM101.806 55.819C100.996 55.819 100.288 55.6333 99.6842 55.2618C99.08 54.8902 98.6109 54.3705 98.2769 53.7025C97.9429 53.0345 97.7759 52.2539 97.7759 51.3608C97.7759 50.4639 97.9429 49.6795 98.2769 49.0078C98.6109 48.3361 99.08 47.8144 99.6842 47.4429C100.288 47.0714 100.996 46.8856 101.806 46.8856C102.617 46.8856 103.324 47.0714 103.929 47.4429C104.533 47.8144 105.002 48.3361 105.336 49.0078C105.67 49.6795 105.837 50.4639 105.837 51.3608C105.837 52.2539 105.67 53.0345 105.336 53.7025C105.002 54.3705 104.533 54.8902 103.929 55.2618C103.324 55.6333 102.617 55.819 101.806 55.819ZM101.812 54.4061C102.337 54.4061 102.773 54.2673 103.118 53.9896C103.463 53.7119 103.718 53.3422 103.883 52.8806C104.052 52.419 104.137 51.9106 104.137 51.3551C104.137 50.8035 104.052 50.2969 103.883 49.8353C103.718 49.3699 103.463 48.9965 103.118 48.7151C102.773 48.4336 102.337 48.2929 101.812 48.2929C101.283 48.2929 100.844 48.4336 100.495 48.7151C100.15 48.9965 99.8924 49.3699 99.7236 49.8353C99.5585 50.2969 99.4759 50.8035 99.4759 51.3551C99.4759 51.9106 99.5585 52.419 99.7236 52.8806C99.8924 53.3422 100.15 53.7119 100.495 53.9896C100.844 54.2673 101.283 54.4061 101.812 54.4061ZM107.081 58.8869V46.9982H108.725V48.3999H108.866C108.963 48.2197 109.104 48.0115 109.288 47.775C109.472 47.5386 109.727 47.3322 110.054 47.1558C110.38 46.9757 110.812 46.8856 111.348 46.8856C112.046 46.8856 112.669 47.062 113.217 47.4148C113.765 47.7675 114.195 48.276 114.506 48.9403C114.821 49.6045 114.979 50.4038 114.979 51.3383C114.979 52.2727 114.823 53.0739 114.512 53.7419C114.2 54.4061 113.773 54.9184 113.228 55.2786C112.684 55.6351 112.063 55.8134 111.365 55.8134C110.84 55.8134 110.41 55.7252 110.076 55.5488C109.746 55.3725 109.487 55.1661 109.299 54.9296C109.112 54.6932 108.967 54.4831 108.866 54.2992H108.765V58.8869H107.081ZM108.731 51.3214C108.731 51.9293 108.819 52.4622 108.995 52.92C109.172 53.3779 109.427 53.7363 109.761 53.9952C110.095 54.2504 110.504 54.378 110.988 54.378C111.491 54.378 111.911 54.2448 112.249 53.9783C112.587 53.7081 112.842 53.3422 113.015 52.8806C113.191 52.419 113.279 51.8993 113.279 51.3214C113.279 50.751 113.193 50.2387 113.02 49.7846C112.851 49.3305 112.596 48.9722 112.255 48.7095C111.917 48.4468 111.495 48.3154 110.988 48.3154C110.5 48.3154 110.087 48.4411 109.75 48.6926C109.416 48.944 109.162 49.2949 108.99 49.7452C108.817 50.1955 108.731 50.7209 108.731 51.3214ZM119.957 55.819C119.105 55.819 118.372 55.637 117.756 55.273C117.145 54.9052 116.672 54.3892 116.338 53.725C116.007 53.057 115.842 52.2746 115.842 51.3777C115.842 50.492 116.007 49.7114 116.338 49.036C116.672 48.3605 117.137 47.8332 117.734 47.4542C118.334 47.0751 119.036 46.8856 119.839 46.8856C120.327 46.8856 120.8 46.9663 121.258 47.1277C121.715 47.2891 122.126 47.5424 122.49 47.8876C122.854 48.2329 123.141 48.6813 123.352 49.233C123.562 49.7809 123.667 50.447 123.667 51.2313V51.828H116.794V50.5671H122.018C122.018 50.1242 121.927 49.7321 121.747 49.3906C121.567 49.0453 121.314 48.7733 120.987 48.5744C120.665 48.3755 120.286 48.276 119.85 48.276C119.377 48.276 118.965 48.3924 118.612 48.625C118.263 48.8539 117.993 49.1542 117.801 49.5257C117.614 49.8935 117.52 50.2931 117.52 50.7247V51.7098C117.52 52.2877 117.621 52.7793 117.824 53.1846C118.03 53.5899 118.317 53.8995 118.685 54.1134C119.053 54.3236 119.483 54.4286 119.974 54.4286C120.293 54.4286 120.584 54.3836 120.847 54.2935C121.109 54.1997 121.336 54.0609 121.528 53.877C121.719 53.6931 121.866 53.4661 121.967 53.1959L123.56 53.483C123.432 53.952 123.203 54.363 122.873 54.7157C122.547 55.0647 122.136 55.3368 121.64 55.5319C121.149 55.7233 120.588 55.819 119.957 55.819ZM124.9 55.6445V46.9982H126.527V48.3717H126.617C126.775 47.9064 127.052 47.5405 127.45 47.274C127.852 47.0038 128.306 46.8687 128.812 46.8687C128.918 46.8687 129.041 46.8725 129.184 46.88C129.33 46.8875 129.445 46.8969 129.527 46.9081V48.5181C129.46 48.4993 129.34 48.4787 129.167 48.4562C128.994 48.4299 128.822 48.4167 128.649 48.4167C128.251 48.4167 127.897 48.5012 127.585 48.6701C127.278 48.8352 127.034 49.066 126.854 49.3624C126.673 49.6552 126.583 49.9891 126.583 50.3644V55.6445H124.9ZM136.829 49.1091L135.303 49.3793C135.24 49.1842 135.138 48.9984 134.999 48.822C134.864 48.6457 134.681 48.5012 134.448 48.3886C134.215 48.276 133.924 48.2197 133.575 48.2197C133.099 48.2197 132.701 48.3267 132.382 48.5406C132.063 48.7507 131.903 49.0228 131.903 49.3568C131.903 49.6458 132.01 49.8784 132.224 50.0548C132.438 50.2312 132.783 50.3757 133.26 50.4883L134.634 50.8035C135.429 50.9874 136.022 51.2707 136.412 51.6535C136.803 52.0363 136.998 52.5335 136.998 53.1452C136.998 53.6631 136.848 54.1247 136.547 54.53C136.251 54.9315 135.836 55.2467 135.303 55.4757C134.774 55.7046 134.161 55.819 133.463 55.819C132.495 55.819 131.705 55.6126 131.093 55.1998C130.481 54.7833 130.106 54.1922 129.967 53.4267L131.594 53.179C131.695 53.603 131.903 53.9239 132.219 54.1416C132.534 54.3555 132.945 54.4624 133.451 54.4624C134.003 54.4624 134.444 54.348 134.774 54.119C135.105 53.8864 135.27 53.603 135.27 53.269C135.27 52.9988 135.168 52.7718 134.966 52.5879C134.767 52.404 134.461 52.2652 134.048 52.1714L132.585 51.8505C131.778 51.6666 131.181 51.3739 130.795 50.9724C130.412 50.5708 130.22 50.0623 130.22 49.4469C130.22 48.9365 130.363 48.4899 130.648 48.1071C130.933 47.7244 131.327 47.426 131.83 47.2121C132.333 46.9945 132.909 46.8856 133.558 46.8856C134.493 46.8856 135.228 47.0883 135.765 47.4936C136.302 47.8951 136.656 48.4336 136.829 49.1091Z" fill="white"/>
<path d="M71.8346 66.642H72.7071V70.4332C72.7071 70.8367 72.6123 71.1941 72.4228 71.5056C72.2333 71.8152 71.9669 72.0591 71.6235 72.2374C71.2801 72.4138 70.8776 72.5019 70.416 72.5019C69.9563 72.5019 69.5548 72.4138 69.2114 72.2374C68.868 72.0591 68.6016 71.8152 68.4121 71.5056C68.2226 71.1941 68.1278 70.8367 68.1278 70.4332V66.642H68.9975V70.3629C68.9975 70.6237 69.0547 70.8554 69.1692 71.0581C69.2855 71.2607 69.4497 71.4202 69.6617 71.5366C69.8738 71.651 70.1252 71.7082 70.416 71.7082C70.7088 71.7082 70.9611 71.651 71.1732 71.5366C71.3871 71.4202 71.5503 71.2607 71.6629 71.0581C71.7774 70.8554 71.8346 70.6237 71.8346 70.3629V66.642ZM73.7338 72.4062V66.642H74.6035V69.3947H74.6738L77.0915 66.642H78.1864L75.8616 69.2371L78.1948 72.4062H77.1478L75.2846 69.8309L74.6035 70.6134V72.4062H73.7338ZM79.7865 71.6182L79.7443 71.925C79.7162 72.1501 79.6683 72.3847 79.6008 72.6286C79.5351 72.8744 79.4666 73.1024 79.3953 73.3125C79.3259 73.5227 79.2686 73.6897 79.2236 73.8135H78.6269C78.6513 73.6972 78.6851 73.5396 78.7282 73.3407C78.7714 73.1437 78.8136 72.9232 78.8549 72.6793C78.8962 72.4353 78.9271 72.1867 78.9478 71.9334L78.9759 71.6182H79.7865ZM87.3592 68.5165H86.4811C86.4473 68.3289 86.3844 68.1638 86.2925 68.0212C86.2005 67.8786 86.088 67.7575 85.9547 67.6581C85.8215 67.5586 85.6723 67.4836 85.5072 67.4329C85.344 67.3823 85.1704 67.3569 84.9865 67.3569C84.6544 67.3569 84.357 67.4404 84.0943 67.6074C83.8335 67.7744 83.6271 68.0193 83.4751 68.342C83.325 68.6648 83.2499 69.0588 83.2499 69.5241C83.2499 69.9932 83.325 70.3892 83.4751 70.7119C83.6271 71.0346 83.8344 71.2786 84.0971 71.4437C84.3598 71.6088 84.6553 71.6914 84.9837 71.6914C85.1657 71.6914 85.3383 71.667 85.5016 71.6182C85.6667 71.5675 85.8159 71.4934 85.9491 71.3958C86.0823 71.2983 86.1949 71.1791 86.2868 71.0384C86.3807 70.8958 86.4454 70.7325 86.4811 70.5486L87.3592 70.5515C87.3123 70.8348 87.2213 71.0956 87.0862 71.3339C86.953 71.5703 86.7813 71.7749 86.5711 71.9475C86.3628 72.1182 86.1245 72.2505 85.8562 72.3443C85.5879 72.4381 85.2952 72.4851 84.9781 72.4851C84.479 72.4851 84.0343 72.3668 83.644 72.1304C83.2537 71.8921 82.946 71.5516 82.7208 71.1087C82.4975 70.6659 82.3859 70.1377 82.3859 69.5241C82.3859 68.9087 82.4985 68.3805 82.7236 67.9395C82.9488 67.4967 83.2565 67.1571 83.6468 66.9207C84.0371 66.6824 84.4808 66.5632 84.9781 66.5632C85.2839 66.5632 85.5691 66.6073 85.8337 66.6955C86.1002 66.7818 86.3394 66.9094 86.5514 67.0783C86.7634 67.2453 86.9389 67.4498 87.0777 67.6919C87.2166 67.932 87.3104 68.2069 87.3592 68.5165ZM88.9361 66.642V72.4062H88.0946V66.642H88.9361ZM92.5691 70.6134V68.0831H93.4134V72.4062H92.5859V71.6576H92.5409C92.4415 71.8884 92.282 72.0807 92.0624 72.2346C91.8448 72.3865 91.5736 72.4625 91.249 72.4625C90.9713 72.4625 90.7255 72.4016 90.5116 72.2796C90.2996 72.1558 90.1326 71.9728 90.0106 71.7308C89.8905 71.4887 89.8305 71.1894 89.8305 70.8329V68.0831H90.672V70.7316C90.672 71.0262 90.7537 71.2607 90.9169 71.4352C91.0802 71.6097 91.2922 71.697 91.553 71.697C91.7106 71.697 91.8673 71.6576 92.023 71.5788C92.1806 71.5 92.3111 71.3808 92.4143 71.2213C92.5193 71.0618 92.5709 70.8592 92.5691 70.6134ZM96.3244 68.0831V68.7586H93.963V68.0831H96.3244ZM94.5963 67.0473H95.4378V71.1369C95.4378 71.3001 95.4622 71.423 95.511 71.5056C95.5598 71.5863 95.6227 71.6416 95.6996 71.6717C95.7784 71.6998 95.8638 71.7139 95.9557 71.7139C96.0233 71.7139 96.0824 71.7092 96.133 71.6998C96.1837 71.6904 96.2231 71.6829 96.2513 71.6773L96.4032 72.3725C96.3545 72.3912 96.285 72.41 96.195 72.4288C96.1049 72.4494 95.9923 72.4607 95.8572 72.4625C95.6358 72.4663 95.4294 72.4269 95.238 72.3443C95.0466 72.2618 94.8918 72.1342 94.7736 71.9616C94.6554 71.7889 94.5963 71.5722 94.5963 71.3114V67.0473ZM98.7921 72.4935C98.3737 72.4935 98.0135 72.3987 97.7114 72.2092C97.4111 72.0178 97.1803 71.7542 97.019 71.4183C96.8576 71.0825 96.7769 70.6978 96.7769 70.2644C96.7769 69.8253 96.8595 69.4378 97.0246 69.102C97.1897 68.7642 97.4224 68.5006 97.7226 68.3111C98.0228 68.1216 98.3765 68.0268 98.7837 68.0268C99.1121 68.0268 99.4048 68.0878 99.6618 68.2097C99.9189 68.3298 100.126 68.4987 100.284 68.7164C100.443 68.934 100.538 69.1883 100.568 69.4791H99.7491C99.7041 69.2765 99.6009 69.102 99.4395 68.9556C99.28 68.8092 99.0661 68.7361 98.7978 68.7361C98.5632 68.7361 98.3578 68.798 98.1814 68.9218C98.0069 69.0438 97.8709 69.2183 97.7733 69.4453C97.6757 69.6705 97.6269 69.9369 97.6269 70.2447C97.6269 70.5599 97.6748 70.832 97.7705 71.0609C97.8662 71.2898 98.0013 71.4671 98.1758 71.5928C98.3521 71.7186 98.5595 71.7814 98.7978 71.7814C98.9573 71.7814 99.1018 71.7523 99.2312 71.6942C99.3626 71.6341 99.4723 71.5487 99.5605 71.438C99.6506 71.3273 99.7134 71.1941 99.7491 71.0384H100.568C100.538 71.318 100.447 71.5675 100.295 71.787C100.143 72.0066 99.9395 72.1792 99.6844 72.3049C99.4311 72.4306 99.1336 72.4935 98.7921 72.4935ZM102.072 69.8394V72.4062H101.23V66.642H102.061V68.7867H102.114C102.215 68.5541 102.37 68.3692 102.578 68.2323C102.787 68.0953 103.059 68.0268 103.395 68.0268C103.691 68.0268 103.95 68.0878 104.172 68.2097C104.395 68.3317 104.567 68.5137 104.689 68.7558C104.813 68.9959 104.875 69.2962 104.875 69.6564V72.4062H104.034V69.7578C104.034 69.4406 103.952 69.1948 103.789 69.0203C103.626 68.844 103.398 68.7558 103.108 68.7558C102.909 68.7558 102.73 68.798 102.573 68.8824C102.417 68.9669 102.294 69.0907 102.204 69.2539C102.116 69.4153 102.072 69.6105 102.072 69.8394ZM106.855 71.6182L106.813 71.925C106.785 72.1501 106.737 72.3847 106.67 72.6286C106.604 72.8744 106.535 73.1024 106.464 73.3125C106.395 73.5227 106.337 73.6897 106.292 73.8135H105.696C105.72 73.6972 105.754 73.5396 105.797 73.3407C105.84 73.1437 105.882 72.9232 105.924 72.6793C105.965 72.4353 105.996 72.1867 106.017 71.9334L106.045 71.6182H106.855ZM109.562 72.4062V71.7758L111.512 69.7549C111.72 69.5354 111.892 69.3431 112.027 69.178C112.164 69.011 112.266 68.8524 112.334 68.7023C112.401 68.5522 112.435 68.3927 112.435 68.2238C112.435 68.0324 112.39 67.8673 112.3 67.7285C112.21 67.5877 112.087 67.4798 111.931 67.4048C111.776 67.3279 111.6 67.2894 111.405 67.2894C111.199 67.2894 111.019 67.3316 110.865 67.416C110.711 67.5005 110.593 67.6196 110.51 67.7735C110.428 67.9274 110.386 68.1075 110.386 68.3139H109.556C109.556 67.963 109.637 67.6562 109.798 67.3935C109.959 67.1308 110.181 66.9272 110.462 66.7828C110.744 66.6364 111.064 66.5632 111.422 66.5632C111.784 66.5632 112.103 66.6355 112.379 66.78C112.657 66.9226 112.873 67.1177 113.029 67.3654C113.185 67.6112 113.263 67.8889 113.263 68.1985C113.263 68.4124 113.222 68.6216 113.142 68.8261C113.063 69.0307 112.925 69.2586 112.728 69.5101C112.531 69.7596 112.257 70.0627 111.906 70.4192L110.761 71.6182V71.6604H113.356V72.4062H109.562ZM116.191 72.5019C115.747 72.5001 115.367 72.3828 115.051 72.1501C114.736 71.9175 114.495 71.5788 114.328 71.1341C114.161 70.6894 114.078 70.1537 114.078 69.527C114.078 68.9021 114.161 68.3683 114.328 67.9255C114.497 67.4827 114.739 67.1449 115.054 66.9122C115.371 66.6796 115.75 66.5632 116.191 66.5632C116.632 66.5632 117.01 66.6805 117.326 66.915C117.641 67.1477 117.882 67.4855 118.049 67.9283C118.218 68.3692 118.302 68.9021 118.302 69.527C118.302 70.1555 118.219 70.6922 118.052 71.1369C117.885 71.5797 117.644 71.9184 117.328 72.1529C117.013 72.3856 116.634 72.5019 116.191 72.5019ZM116.191 71.7505C116.582 71.7505 116.887 71.56 117.106 71.1791C117.327 70.7982 117.438 70.2475 117.438 69.527C117.438 69.0485 117.388 68.6441 117.286 68.3139C117.187 67.9818 117.043 67.7303 116.856 67.5596C116.67 67.387 116.448 67.3006 116.191 67.3006C115.803 67.3006 115.498 67.492 115.277 67.8748C115.055 68.2576 114.944 68.8083 114.942 69.527C114.942 70.0073 114.991 70.4135 115.091 70.7457C115.192 71.0759 115.336 71.3264 115.521 71.4971C115.707 71.666 115.931 71.7505 116.191 71.7505ZM119.063 72.4062V71.7758L121.013 69.7549C121.222 69.5354 121.393 69.3431 121.528 69.178C121.665 69.011 121.768 68.8524 121.835 68.7023C121.903 68.5522 121.937 68.3927 121.937 68.2238C121.937 68.0324 121.892 67.8673 121.801 67.7285C121.711 67.5877 121.589 67.4798 121.433 67.4048C121.277 67.3279 121.102 67.2894 120.906 67.2894C120.7 67.2894 120.52 67.3316 120.366 67.416C120.212 67.5005 120.094 67.6196 120.011 67.7735C119.929 67.9274 119.888 68.1075 119.888 68.3139H119.057C119.057 67.963 119.138 67.6562 119.299 67.3935C119.461 67.1308 119.682 66.9272 119.964 66.7828C120.245 66.6364 120.565 66.5632 120.923 66.5632C121.285 66.5632 121.604 66.6355 121.88 66.78C122.158 66.9226 122.375 67.1177 122.53 67.3654C122.686 67.6112 122.764 67.8889 122.764 68.1985C122.764 68.4124 122.724 68.6216 122.643 68.8261C122.564 69.0307 122.426 69.2586 122.229 69.5101C122.032 69.7596 121.758 70.0627 121.407 70.4192L120.262 71.6182V71.6604H122.857V72.4062H119.063ZM125.693 72.4851C125.306 72.4851 124.961 72.4184 124.657 72.2852C124.355 72.152 124.116 71.9672 123.939 71.7308C123.765 71.4925 123.671 71.2166 123.658 70.9033H124.542C124.553 71.074 124.61 71.2223 124.713 71.348C124.818 71.4718 124.955 71.5675 125.124 71.6351C125.293 71.7026 125.481 71.7364 125.687 71.7364C125.914 71.7364 126.115 71.697 126.289 71.6182C126.466 71.5394 126.604 71.4296 126.703 71.2889C126.803 71.1463 126.852 70.9821 126.852 70.7963C126.852 70.6031 126.803 70.4332 126.703 70.2869C126.606 70.1387 126.462 70.0223 126.272 69.9379C126.085 69.8534 125.858 69.8112 125.591 69.8112H125.104V69.102H125.591C125.805 69.102 125.993 69.0635 126.154 68.9866C126.317 68.9096 126.445 68.8027 126.537 68.6657C126.629 68.5269 126.675 68.3645 126.675 68.1788C126.675 68.0005 126.635 67.8457 126.554 67.7144C126.475 67.5812 126.363 67.477 126.216 67.402C126.072 67.3269 125.901 67.2894 125.704 67.2894C125.516 67.2894 125.341 67.3241 125.178 67.3935C125.016 67.4611 124.885 67.5586 124.784 67.6862C124.682 67.812 124.628 67.963 124.62 68.1394H123.779C123.788 67.8279 123.88 67.554 124.055 67.3175C124.231 67.0811 124.464 66.8963 124.753 66.7631C125.042 66.6298 125.362 66.5632 125.715 66.5632C126.085 66.5632 126.404 66.6355 126.672 66.78C126.942 66.9226 127.151 67.113 127.297 67.3513C127.445 67.5896 127.518 67.8504 127.516 68.1338C127.518 68.4565 127.428 68.7304 127.246 68.9556C127.066 69.1808 126.826 69.3318 126.526 69.4087V69.4538C126.909 69.5119 127.205 69.6639 127.415 69.9097C127.627 70.1555 127.732 70.4605 127.73 70.8245C127.732 71.1416 127.644 71.4258 127.466 71.6773C127.289 71.9287 127.048 72.1267 126.742 72.2712C126.437 72.4138 126.087 72.4851 125.693 72.4851Z" fill="#B4B5BB"/>
<path d="M30.1448 67.1414C29.7037 66.8017 29.2626 66.5469 28.8214 66.3771C28.3803 66.2072 27.9391 66.1223 27.4098 66.1223C26.4393 66.0374 25.3805 66.2922 24.3218 66.462C23.2631 66.7168 22.2926 66.9715 21.5867 67.2263C20.8809 67.481 20.3516 67.6509 20.3516 67.6509C20.3516 67.6509 20.7927 67.9056 21.5867 68.2453C22.2926 68.585 23.3513 68.9247 24.4983 69.0945C25.6452 69.2643 26.7922 69.2643 27.8509 69.0096C28.9979 68.7548 29.8802 68.1604 30.1448 67.1414Z" fill="#FFCB6D"/>
<path d="M27.0597 62.8088C27.5008 63.658 28.0302 64.5072 28.8242 65.0167C29.1771 65.2715 29.6183 65.5262 30.0594 65.6111C30.5005 65.696 31.0299 65.696 31.4711 65.4413C31.4711 64.4223 31.2064 63.5731 30.7652 62.8937C30.3241 62.2144 29.6183 61.535 29.0007 61.0255C28.2949 60.516 27.6773 60.0914 27.1479 59.7517C26.6185 59.412 26.2656 59.2422 26.2656 59.2422C26.2656 59.2422 26.2656 59.3271 26.2656 59.5819C26.2656 59.7517 26.3539 60.0065 26.3539 60.3461C26.4421 61.0255 26.6185 61.8747 27.0597 62.8088Z" fill="#FFCB6D"/>
<path d="M19.6419 65.1019C20.7006 65.017 21.5829 64.6773 22.2005 63.8281C21.6711 62.9789 20.877 62.4694 19.9948 62.2147C19.1125 61.9599 17.9655 61.875 16.9068 61.875C15.8481 61.875 14.7893 61.875 13.9953 61.875C13.2012 61.875 12.6719 61.875 12.6719 61.875C12.6719 61.875 12.7601 61.9599 12.9365 62.1297C13.113 62.2996 13.3777 62.5543 13.7306 62.8091C14.4364 63.3186 15.3187 63.9131 16.3774 64.4226C17.5244 64.8472 18.6714 65.1019 19.6419 65.1019Z" fill="#FFCB6D"/>
<path d="M21.5903 61.1952C22.2079 61.8746 23.0019 62.3841 23.9724 62.2991C24.4136 61.365 24.3254 60.4309 24.0607 59.5817C23.796 58.7325 23.2666 57.9683 22.8255 57.2889C22.2961 56.6096 21.855 56.1 21.4138 55.6754C21.2374 55.5056 21.0609 55.3358 20.9727 55.1659C20.8845 55.081 20.7962 54.9961 20.7962 54.9961C20.7962 54.9961 20.7962 55.081 20.708 55.2509C20.6198 55.4207 20.6198 55.6754 20.5316 56.0151C20.4433 56.6945 20.3551 57.5437 20.5316 58.4778C20.708 59.4968 21.0609 60.4309 21.5903 61.1952Z" fill="#FFCB6D"/>
<path d="M9.0555 54.1483C8.34967 53.8935 7.82031 53.8086 7.82031 53.8086C7.82031 53.8086 7.90852 53.8935 7.99675 54.1483C8.08498 54.3181 8.26144 54.5729 8.43789 54.9125C8.61435 55.2522 8.87905 55.5919 9.14373 56.0165C9.32018 56.1863 9.40841 56.4411 9.58487 56.6109L9.67307 56.7808L9.84954 56.9506C9.93777 57.0355 10.026 57.2054 10.1142 57.2903C10.9965 58.2244 12.0552 58.9887 13.0257 59.3283C14.0845 59.668 15.055 59.5831 15.9372 58.9037C15.6726 57.8847 15.1432 57.2054 14.3492 56.6958C14.1727 56.526 13.908 56.4411 13.7316 56.2712C13.5551 56.1014 13.2904 56.0165 13.0257 55.8466C12.7611 55.6768 12.5846 55.5919 12.3199 55.4221C12.0552 55.3371 11.8788 55.1673 11.6141 55.0824C10.7318 54.6578 9.76132 54.3181 9.0555 54.1483Z" fill="#FFCB6D"/>
<path d="M16.2077 55.8457C16.4724 56.6949 17.09 57.3742 18.0605 57.629C18.7663 56.8647 18.9428 55.9306 19.031 55.1663C19.1192 54.3171 18.9428 53.5529 18.8545 52.8735C18.8545 52.6187 18.6781 52.1092 18.5898 51.7696C18.5016 51.4299 18.3252 51.0902 18.2369 50.7505C18.1487 50.4958 18.0605 50.241 17.9723 50.0712C17.884 49.9013 17.884 49.8164 17.884 49.8164C17.884 49.8164 17.7958 49.9013 17.7076 50.0712C17.6193 50.241 17.4429 50.4958 17.2664 50.7505C16.9135 51.345 16.5606 52.1941 16.2959 53.0433C16.2077 53.2981 16.2077 53.4679 16.1195 53.7227C16.0313 53.9775 16.0312 54.1473 16.0312 54.4021C16.0312 54.6568 16.0312 54.8266 16.0312 55.0814C16.0312 55.4211 16.1195 55.6758 16.2077 55.8457Z" fill="#FFCB6D"/>
<path d="M8.00162 50.6683C8.17807 50.8382 8.35453 51.008 8.53099 51.1779C8.70744 51.3477 8.97214 51.5175 9.14859 51.6025C10.0309 52.112 10.9131 52.3667 11.9719 52.0271C12.0601 51.5175 12.0601 51.0929 11.8836 50.6683C11.7954 50.4985 11.7072 50.2438 11.619 50.0739C11.5307 49.9041 11.3543 49.7342 11.2661 49.4795C10.7367 48.7152 9.85441 48.1208 9.06036 47.5263C8.26631 46.9319 7.38402 46.4224 6.6782 46.0827C5.97238 45.743 5.53125 45.4883 5.53125 45.4883C5.53125 45.4883 5.53126 45.5732 5.61948 45.828C5.70771 46.0827 5.79593 46.3375 5.88416 46.6771C6.14884 47.3565 6.50174 48.3755 7.11934 49.2247C7.29579 49.8192 7.6487 50.2437 8.00162 50.6683Z" fill="#FFCB6D"/>
<path d="M13.4701 50.2428C13.6465 50.6673 13.9995 51.007 14.3524 51.2618C15.2346 50.7523 15.764 49.988 16.1169 49.1388C16.2052 48.969 16.2051 48.7142 16.2934 48.5444C16.2934 48.4595 16.2934 48.2896 16.3816 48.2047C16.3816 48.1198 16.3816 47.9499 16.4698 47.865C16.5581 47.4404 16.5581 47.0158 16.5581 46.5912C16.4698 45.742 16.4698 44.9778 16.2934 44.3833C16.2051 44.1286 16.2052 43.8738 16.1169 43.704C16.1169 43.5341 16.0287 43.4492 16.0287 43.4492C16.0287 43.4492 15.9405 43.5341 15.764 43.704C15.5876 43.8738 15.4111 44.0437 15.2346 44.2984C14.7935 44.8079 14.2641 45.5722 13.823 46.4214C13.3819 47.2706 13.1172 48.2047 13.1172 49.1388C13.1172 49.3936 13.1172 49.5634 13.2054 49.8182C13.2936 49.9031 13.3819 50.0729 13.4701 50.2428Z" fill="#FFCB6D"/>
<path d="M6.146 42.6008C6.23422 42.8555 6.41068 43.0254 6.58714 43.2801C6.76359 43.4499 6.94005 43.7047 7.11651 43.8745C7.82233 44.5539 8.70461 44.9785 9.76334 44.8087C9.93979 44.3841 10.028 43.8745 9.93981 43.4499C9.93981 43.1952 9.85157 43.0254 9.76334 42.7706C9.67511 42.6008 9.58689 42.346 9.49867 42.1762C9.32221 41.7516 9.05753 41.327 8.70462 40.9873C8.52817 40.8175 8.35171 40.5627 8.26348 40.3929C8.08703 40.223 7.91057 40.0532 7.73411 39.7984C7.02829 39.0342 6.23422 38.3548 5.70486 37.8453C5.17549 37.3358 4.73438 36.9961 4.73438 36.9961C4.73438 36.9961 4.73438 37.5056 4.73438 38.2699C4.73438 38.6945 4.82259 39.1191 4.91081 39.5437C4.99904 39.7984 4.99905 40.0532 5.08728 40.3079C5.17551 40.5627 5.1755 40.8175 5.35195 41.0722C5.70486 41.5817 5.96954 42.0912 6.146 42.6008Z" fill="#FFCB6D"/>
<path d="M12.3253 44.2113C13.2958 43.8717 14.0016 43.1923 14.4428 42.513C14.531 42.3431 14.6192 42.1733 14.7075 41.9185C14.7957 41.7487 14.8839 41.4939 14.9721 41.3241C15.1486 40.8995 15.2368 40.4749 15.3251 40.1352C15.4133 39.7106 15.5015 39.371 15.5015 38.9464C15.5015 38.7765 15.5015 38.6067 15.5897 38.4368C15.5897 38.267 15.5897 38.0972 15.5897 38.0122C15.678 37.4178 15.678 37.0781 15.678 37.0781C15.678 37.0781 15.325 37.248 14.7075 37.6726C14.531 37.7575 14.4428 37.8424 14.2663 38.0122C14.0899 38.0972 13.9134 38.267 13.8252 38.4368C13.4723 38.6916 13.2076 39.0313 12.8547 39.371C12.6782 39.5408 12.59 39.7106 12.4135 39.9654C12.3253 40.0503 12.2371 40.1352 12.2371 40.3051C12.1489 40.39 12.1488 40.4749 12.0606 40.6447C11.8842 41.0693 11.7077 41.4939 11.6195 41.9185C11.6195 42.1733 11.5312 42.3431 11.5312 42.5979C11.5312 42.8526 11.6195 43.0225 11.6195 43.1923C11.7959 43.4471 11.9724 43.8717 12.3253 44.2113Z" fill="#FFCB6D"/>
<path d="M8.61329 31.9007C8.3486 31.4761 8.0839 31.0515 7.90745 30.6269C7.64277 30.2023 7.37809 29.8626 7.20164 29.5229C6.7605 28.9285 6.49583 28.5039 6.49583 28.5039C6.49583 28.5039 6.31935 29.0134 6.23113 29.7777C6.1429 30.1174 6.14292 30.6269 6.05469 31.0515C6.05469 31.3062 6.05469 31.561 6.05469 31.8157C6.05469 32.0705 6.05469 32.3253 6.05469 32.58C6.14292 33.0895 6.1429 33.5991 6.31936 34.1086C6.49582 34.6181 6.67228 35.1276 6.93696 35.4673C7.46633 36.3165 8.26036 36.9109 9.3191 36.9958C9.49555 36.826 9.58378 36.5712 9.672 36.4014C9.76023 36.2316 9.84847 35.9768 9.84847 35.8069C9.9367 35.3824 9.84846 34.9578 9.76024 34.5332C9.67201 34.1086 9.49555 33.5991 9.3191 33.1745C9.14264 32.8348 8.87797 32.3253 8.61329 31.9007Z" fill="#FFCB6D"/>
<path d="M14.3545 35.8042C14.7075 35.4645 14.9721 35.2098 15.1486 34.7852C15.4133 34.4455 15.5897 34.1058 15.7662 33.6812C15.8544 33.5114 15.9426 33.3416 16.0309 33.1717C16.1191 33.0019 16.2073 32.832 16.2955 32.6622C16.472 32.3225 16.5602 32.0678 16.6485 31.7281C16.8249 31.2186 16.9131 30.8789 16.9131 30.8789C16.9131 30.8789 16.472 30.9638 15.8544 31.2186C15.2368 31.4733 14.4428 31.813 13.6487 32.4074C13.4723 32.5773 13.2958 32.6622 13.1194 32.832C12.9429 33.0019 12.7664 33.1717 12.59 33.3416C12.2371 33.6812 11.9724 34.1058 11.7959 34.4455C11.6195 34.8701 11.5312 35.2947 11.5312 35.7193C11.5312 35.8891 11.5313 36.1439 11.6195 36.3137C11.7077 36.4836 11.7959 36.7383 11.8842 36.9082C12.9429 36.8232 13.737 36.3986 14.3545 35.8042Z" fill="#FFCB6D"/>
<path d="M11.264 29.1804C11.4405 29.0106 11.5287 28.8408 11.6169 28.586C11.7052 28.4162 11.7934 28.1614 11.7934 27.9916C11.7934 27.8217 11.8816 27.567 11.8816 27.3122C11.8816 26.8876 11.8816 26.3781 11.7934 25.8686C11.7052 25.3591 11.6169 24.9345 11.5287 24.425C11.264 23.4909 10.9993 22.5567 10.7346 21.8774C10.47 21.198 10.2935 20.7734 10.2935 20.7734C10.2935 20.7734 10.2053 20.8584 10.117 21.0282C10.0288 21.198 9.85236 21.5377 9.6759 21.8774C9.32299 22.5567 8.97008 23.4909 8.79363 24.5099C8.7054 25.0194 8.61719 25.5289 8.61719 26.0384C8.61719 26.2932 8.61719 26.5479 8.70542 26.8027C8.70542 27.0575 8.79363 27.3122 8.88186 27.567C9.05832 27.9916 9.23479 28.4162 9.5877 28.8408C9.94061 29.1804 10.2935 29.5201 10.8229 29.69C10.9993 29.605 11.1758 29.4352 11.264 29.1804Z" fill="#FFCB6D"/>
<path d="M19.6438 25.5321C19.732 25.3623 19.8202 25.2773 19.8202 25.2773C19.8202 25.2773 19.732 25.2773 19.4673 25.2773C19.2908 25.2773 19.0262 25.2773 18.6733 25.3623C18.3203 25.3623 17.9674 25.4472 17.5263 25.5321C17.3499 25.617 17.0852 25.617 16.9087 25.7019C16.7322 25.7869 16.4676 25.8718 16.2911 25.9567C15.85 26.1265 15.4088 26.2964 14.9677 26.5511C14.6148 26.8059 14.2619 27.1456 13.909 27.4003C13.7325 27.5702 13.6443 27.74 13.5561 27.9098C13.4678 28.0797 13.3796 28.3344 13.2914 28.5043C13.2031 28.6741 13.2031 28.9289 13.2031 29.0987C13.2031 29.3535 13.2914 29.5233 13.2914 29.7781C13.8207 29.863 14.2619 29.863 14.703 29.7781C15.1441 29.6931 15.5853 29.5233 15.9382 29.2685C16.1146 29.1836 16.2911 29.0138 16.4676 28.9289C16.5558 28.844 16.644 28.759 16.7322 28.759C16.8205 28.6741 16.9087 28.5892 16.9969 28.5892C17.3498 28.3344 17.6145 27.9948 17.8792 27.74C18.1439 27.4003 18.4086 27.1456 18.585 26.8908C18.6733 26.8059 18.6733 26.721 18.7615 26.6361C18.8497 26.5511 18.8497 26.4662 18.9379 26.4662C19.0262 26.2964 19.1144 26.2115 19.2026 26.1265C19.3791 25.8718 19.5555 25.7019 19.6438 25.5321Z" fill="#FFCB6D"/>
<path d="M14.1681 22.9811C14.6093 22.7263 14.9622 22.4715 15.2269 22.1319C15.4916 21.7922 15.668 21.3676 15.8445 20.943C16.1091 20.0938 16.1974 19.0748 16.1974 18.1407C16.1974 17.8859 16.1974 17.6311 16.1974 17.3764C16.1974 17.1216 16.1974 16.8669 16.1974 16.697C16.1974 16.2724 16.1092 15.8478 16.1092 15.4232C16.0209 14.7439 15.9327 14.2344 15.9327 14.2344C15.9327 14.2344 15.8445 14.3193 15.668 14.4891C15.4916 14.659 15.3151 14.9137 15.0504 15.1685C14.7857 15.5082 14.5211 15.8478 14.3446 16.1875C14.0799 16.6121 13.8152 17.0367 13.6388 17.4613C13.4623 17.9708 13.2859 18.3954 13.1094 18.9049C13.0212 19.4144 12.933 19.924 12.933 20.3486C12.8447 21.4525 13.2859 22.3866 14.1681 22.9811Z" fill="#FFCB6D"/>
<path d="M21.5837 22.4715C21.9366 22.2167 22.2895 21.962 22.5542 21.7072C22.8188 21.4525 23.0835 21.2826 23.3482 21.0279C23.5247 20.858 23.7011 20.6882 23.8776 20.5183C23.9658 20.4334 24.054 20.3485 24.054 20.3485C24.054 20.3485 23.6129 20.2636 22.9071 20.1787C22.5542 20.1787 22.2013 20.0938 21.7601 20.0938C21.319 20.0938 20.8778 20.0938 20.3485 20.1787C19.378 20.3485 18.4075 20.6033 17.7016 21.1128C17.3487 21.3675 17.084 21.7072 16.8194 22.0469C16.6429 22.3866 16.5547 22.8112 16.5547 23.3207C17.5252 23.7453 18.4957 23.6604 19.2898 23.4905C19.7309 23.4056 20.0838 23.2358 20.5249 22.981C20.8778 22.8961 21.2307 22.7262 21.5837 22.4715Z" fill="#FFCB6D"/>
<path d="M29.1768 66.0371C25.8241 64.7634 22.4715 63.2348 19.6482 61.0269C16.6485 58.6492 14.531 55.4222 13.0311 51.6858C11.1784 47.3549 9.85494 42.8542 10.0314 38.0987C10.2079 34.0226 11.3548 30.0314 13.1194 26.295C14.6192 23.3228 16.472 20.3506 18.7659 17.7181C18.5895 17.3784 18.5895 16.9539 18.6777 16.6142C18.7659 16.1896 18.9424 15.765 19.2071 15.4253C19.7364 14.661 20.5305 13.9817 21.4128 13.5571C22.295 13.0476 23.1773 12.7928 23.8831 12.623C24.236 12.5381 24.5007 12.4531 24.6772 12.4531H24.9419H25.0301V12.538C25.0301 12.538 25.0301 12.623 24.9419 12.7079C24.8537 12.8777 24.7654 13.1325 24.589 13.3872C24.3243 13.9817 23.8831 14.661 23.3538 15.4253C23.0891 15.765 22.7362 16.1047 22.4715 16.4443L22.0303 16.8689L22.0302 16.8691C21.8538 17.0389 21.6774 17.2086 21.501 17.2935C21.1481 17.4634 20.7952 17.7181 20.354 17.803C20.0893 17.888 19.7364 17.888 19.3835 17.888C18.413 19.0768 17.4425 20.2657 16.6485 21.4546C13.3841 26.1251 11.0901 31.56 10.7372 37.2495C10.4725 42.1749 11.6195 46.7605 13.5605 51.2612C14.531 53.6389 15.7662 55.9318 17.5308 57.8849C19.2953 59.838 21.4128 61.3666 23.7067 62.6404C28.1181 65.0181 34.5587 67.7355 40.6464 69.6887L38.9701 70.4529C35.441 68.8395 31.9119 67.0562 29.1768 66.0371Z" fill="#FFCB6D"/>
<path d="M166.871 67.1414C167.312 66.8017 167.753 66.5469 168.194 66.3771C168.635 66.2072 169.076 66.1223 169.606 66.1223C170.576 66.0374 171.635 66.2922 172.694 66.462C173.753 66.7168 174.723 66.9715 175.429 67.2263C176.135 67.481 176.664 67.6509 176.664 67.6509C176.664 67.6509 176.223 67.9056 175.429 68.2453C174.723 68.585 173.664 68.9247 172.517 69.0945C171.37 69.2643 170.223 69.2643 169.165 69.0096C168.018 68.7548 167.135 68.1604 166.871 67.1414Z" fill="#FFCB6D"/>
<path d="M169.956 62.8088C169.515 63.658 168.985 64.5072 168.191 65.0167C167.838 65.2715 167.397 65.5262 166.956 65.6111C166.515 65.696 165.986 65.696 165.545 65.4413C165.545 64.4223 165.809 63.5731 166.25 62.8937C166.692 62.2144 167.397 61.535 168.015 61.0255C168.721 60.516 169.338 60.0914 169.868 59.7517C170.397 59.412 170.75 59.2422 170.75 59.2422C170.75 59.2422 170.75 59.3271 170.75 59.5819C170.75 59.7517 170.662 60.0065 170.662 60.3461C170.574 61.0255 170.397 61.8747 169.956 62.8088Z" fill="#FFCB6D"/>
<path d="M177.374 65.1019C176.315 65.017 175.433 64.6773 174.815 63.8281C175.345 62.9789 176.139 62.4694 177.021 62.2147C177.903 61.9599 179.05 61.875 180.109 61.875C181.168 61.875 182.226 61.875 183.02 61.875C183.814 61.875 184.344 61.875 184.344 61.875C184.344 61.875 184.256 61.9599 184.079 62.1297C183.903 62.2996 183.638 62.5543 183.285 62.8091C182.579 63.3186 181.697 63.9131 180.638 64.4226C179.491 64.8472 178.344 65.1019 177.374 65.1019Z" fill="#FFCB6D"/>
<path d="M175.425 61.1952C174.808 61.8746 174.014 62.3841 173.043 62.2991C172.602 61.365 172.69 60.4309 172.955 59.5817C173.22 58.7325 173.749 57.9683 174.19 57.2889C174.72 56.6096 175.161 56.1 175.602 55.6754C175.778 55.5056 175.955 55.3358 176.043 55.1659C176.131 55.081 176.219 54.9961 176.219 54.9961C176.219 54.9961 176.219 55.081 176.308 55.2509C176.396 55.4207 176.396 55.6754 176.484 56.0151C176.572 56.6945 176.661 57.5437 176.484 58.4778C176.308 59.4968 175.955 60.4309 175.425 61.1952Z" fill="#FFCB6D"/>
<path d="M187.96 54.1483C188.666 53.8935 189.195 53.8086 189.195 53.8086C189.195 53.8086 189.107 53.8935 189.019 54.1483C188.931 54.3181 188.754 54.5729 188.578 54.9125C188.401 55.2522 188.137 55.5919 187.872 56.0165C187.695 56.1863 187.607 56.4411 187.431 56.6109L187.343 56.7808L187.166 56.9506C187.078 57.0355 186.99 57.2054 186.901 57.2903C186.019 58.2244 184.96 58.9887 183.99 59.3283C182.931 59.668 181.961 59.5831 181.078 58.9037C181.343 57.8847 181.872 57.2054 182.666 56.6958C182.843 56.526 183.108 56.4411 183.284 56.2712C183.461 56.1014 183.725 56.0165 183.99 55.8466C184.255 55.6768 184.431 55.5919 184.696 55.4221C184.96 55.3371 185.137 55.1673 185.402 55.0824C186.284 54.6578 187.254 54.3181 187.96 54.1483Z" fill="#FFCB6D"/>
<path d="M180.808 55.8457C180.543 56.6949 179.926 57.3742 178.955 57.629C178.249 56.8647 178.073 55.9306 177.985 55.1663C177.896 54.3171 178.073 53.5529 178.161 52.8735C178.161 52.6187 178.338 52.1092 178.426 51.7696C178.514 51.4299 178.69 51.0902 178.779 50.7505C178.867 50.4958 178.955 50.241 179.043 50.0712C179.132 49.9013 179.132 49.8164 179.132 49.8164C179.132 49.8164 179.22 49.9013 179.308 50.0712C179.396 50.241 179.573 50.4958 179.749 50.7505C180.102 51.345 180.455 52.1941 180.72 53.0433C180.808 53.2981 180.808 53.4679 180.896 53.7227C180.984 53.9775 180.984 54.1473 180.984 54.4021C180.984 54.6568 180.984 54.8266 180.984 55.0814C180.984 55.4211 180.896 55.6758 180.808 55.8457Z" fill="#FFCB6D"/>
<path d="M189.014 50.6683C188.838 50.8382 188.661 51.008 188.485 51.1779C188.308 51.3477 188.043 51.5175 187.867 51.6025C186.985 52.112 186.102 52.3667 185.044 52.0271C184.956 51.5175 184.956 51.0929 185.132 50.6683C185.22 50.4985 185.308 50.2438 185.397 50.0739C185.485 49.9041 185.661 49.7342 185.75 49.4795C186.279 48.7152 187.161 48.1208 187.955 47.5263C188.749 46.9319 189.632 46.4224 190.337 46.0827C191.043 45.743 191.484 45.4883 191.484 45.4883C191.484 45.4883 191.484 45.5732 191.396 45.828C191.308 46.0827 191.22 46.3375 191.131 46.6771C190.867 47.3565 190.514 48.3755 189.896 49.2247C189.72 49.8192 189.367 50.2437 189.014 50.6683Z" fill="#FFCB6D"/>
<path d="M183.546 50.2428C183.369 50.6673 183.016 51.007 182.663 51.2618C181.781 50.7523 181.252 49.988 180.899 49.1388C180.81 48.969 180.81 48.7142 180.722 48.5444C180.722 48.4595 180.722 48.2896 180.634 48.2047C180.634 48.1198 180.634 47.9499 180.546 47.865C180.458 47.4404 180.458 47.0158 180.458 46.5912C180.546 45.742 180.546 44.9778 180.722 44.3833C180.81 44.1286 180.81 43.8738 180.899 43.704C180.899 43.5341 180.987 43.4492 180.987 43.4492C180.987 43.4492 181.075 43.5341 181.252 43.704C181.428 43.8738 181.605 44.0437 181.781 44.2984C182.222 44.8079 182.751 45.5722 183.193 46.4214C183.634 47.2706 183.898 48.2047 183.898 49.1388C183.898 49.3936 183.898 49.5634 183.81 49.8182C183.722 49.9031 183.634 50.0729 183.546 50.2428Z" fill="#FFCB6D"/>
<path d="M190.87 42.6008C190.781 42.8555 190.605 43.0254 190.428 43.2801C190.252 43.4499 190.076 43.7047 189.899 43.8745C189.193 44.5539 188.311 44.9785 187.252 44.8087C187.076 44.3841 186.988 43.8745 187.076 43.4499C187.076 43.1952 187.164 43.0254 187.252 42.7706C187.341 42.6008 187.429 42.346 187.517 42.1762C187.693 41.7516 187.958 41.327 188.311 40.9873C188.487 40.8175 188.664 40.5627 188.752 40.3929C188.929 40.223 189.105 40.0532 189.282 39.7984C189.987 39.0342 190.781 38.3548 191.311 37.8453C191.84 37.3358 192.281 36.9961 192.281 36.9961C192.281 36.9961 192.281 37.5056 192.281 38.2699C192.281 38.6945 192.193 39.1191 192.105 39.5437C192.017 39.7984 192.017 40.0532 191.928 40.3079C191.84 40.5627 191.84 40.8175 191.664 41.0722C191.311 41.5817 191.046 42.0912 190.87 42.6008Z" fill="#FFCB6D"/>
<path d="M184.69 44.2113C183.72 43.8717 183.014 43.1923 182.573 42.513C182.485 42.3431 182.396 42.1733 182.308 41.9185C182.22 41.7487 182.132 41.4939 182.043 41.3241C181.867 40.8995 181.779 40.4749 181.691 40.1352C181.602 39.7106 181.514 39.371 181.514 38.9464C181.514 38.7765 181.514 38.6067 181.426 38.4368C181.426 38.267 181.426 38.0972 181.426 38.0122C181.338 37.4178 181.338 37.0781 181.338 37.0781C181.338 37.0781 181.691 37.248 182.308 37.6726C182.485 37.7575 182.573 37.8424 182.749 38.0122C182.926 38.0972 183.102 38.267 183.19 38.4368C183.543 38.6916 183.808 39.0313 184.161 39.371C184.337 39.5408 184.426 39.7106 184.602 39.9654C184.69 40.0503 184.779 40.1352 184.779 40.3051C184.867 40.39 184.867 40.4749 184.955 40.6447C185.131 41.0693 185.308 41.4939 185.396 41.9185C185.396 42.1733 185.484 42.3431 185.484 42.5979C185.484 42.8526 185.396 43.0225 185.396 43.1923C185.22 43.4471 185.043 43.8717 184.69 44.2113Z" fill="#FFCB6D"/>
<path d="M188.402 31.9007C188.667 31.4761 188.932 31.0515 189.108 30.6269C189.373 30.2023 189.638 29.8626 189.814 29.5229C190.255 28.9285 190.52 28.5039 190.52 28.5039C190.52 28.5039 190.696 29.0134 190.784 29.7777C190.873 30.1174 190.873 30.6269 190.961 31.0515C190.961 31.3062 190.961 31.561 190.961 31.8157C190.961 32.0705 190.961 32.3253 190.961 32.58C190.873 33.0895 190.873 33.5991 190.696 34.1086C190.52 34.6181 190.343 35.1276 190.079 35.4673C189.549 36.3165 188.755 36.9109 187.697 36.9958C187.52 36.826 187.432 36.5712 187.344 36.4014C187.255 36.2316 187.167 35.9768 187.167 35.8069C187.079 35.3824 187.167 34.9578 187.255 34.5332C187.344 34.1086 187.52 33.5991 187.697 33.1745C187.873 32.8348 188.138 32.3253 188.402 31.9007Z" fill="#FFCB6D"/>
<path d="M182.661 35.8042C182.308 35.4645 182.043 35.2098 181.867 34.7852C181.602 34.4455 181.426 34.1058 181.249 33.6812C181.161 33.5114 181.073 33.3416 180.985 33.1717C180.897 33.0019 180.808 32.832 180.72 32.6622C180.544 32.3225 180.455 32.0678 180.367 31.7281C180.191 31.2186 180.102 30.8789 180.102 30.8789C180.102 30.8789 180.544 30.9638 181.161 31.2186C181.779 31.4733 182.573 31.813 183.367 32.4074C183.543 32.5773 183.72 32.6622 183.896 32.832C184.073 33.0019 184.249 33.1717 184.426 33.3416C184.779 33.6812 185.043 34.1058 185.22 34.4455C185.396 34.8701 185.484 35.2947 185.484 35.7193C185.484 35.8891 185.484 36.1439 185.396 36.3137C185.308 36.4836 185.22 36.7383 185.131 36.9082C184.073 36.8232 183.279 36.3986 182.661 35.8042Z" fill="#FFCB6D"/>
<path d="M185.752 29.1804C185.575 29.0106 185.487 28.8408 185.399 28.586C185.31 28.4162 185.222 28.1614 185.222 27.9916C185.222 27.8217 185.134 27.567 185.134 27.3122C185.134 26.8876 185.134 26.3781 185.222 25.8686C185.31 25.3591 185.399 24.9345 185.487 24.425C185.752 23.4909 186.016 22.5567 186.281 21.8774C186.546 21.198 186.722 20.7734 186.722 20.7734C186.722 20.7734 186.81 20.8584 186.899 21.0282C186.987 21.198 187.163 21.5377 187.34 21.8774C187.693 22.5567 188.046 23.4909 188.222 24.5099C188.31 25.0194 188.398 25.5289 188.398 26.0384C188.398 26.2932 188.398 26.5479 188.31 26.8027C188.31 27.0575 188.222 27.3122 188.134 27.567C187.957 27.9916 187.781 28.4162 187.428 28.8408C187.075 29.1804 186.722 29.5201 186.193 29.69C186.016 29.605 185.84 29.4352 185.752 29.1804Z" fill="#FFCB6D"/>
<path d="M177.372 25.5321C177.284 25.3623 177.195 25.2773 177.195 25.2773C177.195 25.2773 177.284 25.2773 177.548 25.2773C177.725 25.2773 177.989 25.2773 178.342 25.3623C178.695 25.3623 179.048 25.4472 179.489 25.5321C179.666 25.617 179.93 25.617 180.107 25.7019C180.283 25.7869 180.548 25.8718 180.725 25.9567C181.166 26.1265 181.607 26.2964 182.048 26.5511C182.401 26.8059 182.754 27.1456 183.107 27.4003C183.283 27.5702 183.371 27.74 183.46 27.9098C183.548 28.0797 183.636 28.3344 183.724 28.5043C183.812 28.6741 183.812 28.9289 183.812 29.0987C183.812 29.3535 183.724 29.5233 183.724 29.7781C183.195 29.863 182.754 29.863 182.313 29.7781C181.871 29.6931 181.43 29.5233 181.077 29.2685C180.901 29.1836 180.725 29.0138 180.548 28.9289C180.46 28.844 180.372 28.759 180.283 28.759C180.195 28.6741 180.107 28.5892 180.019 28.5892C179.666 28.3344 179.401 27.9948 179.136 27.74C178.872 27.4003 178.607 27.1456 178.431 26.8908C178.342 26.8059 178.342 26.721 178.254 26.6361C178.166 26.5511 178.166 26.4662 178.078 26.4662C177.989 26.2964 177.901 26.2115 177.813 26.1265C177.637 25.8718 177.46 25.7019 177.372 25.5321Z" fill="#FFCB6D"/>
<path d="M182.847 22.9811C182.406 22.7263 182.053 22.4715 181.789 22.1319C181.524 21.7922 181.348 21.3676 181.171 20.943C180.906 20.0938 180.818 19.0748 180.818 18.1407C180.818 17.8859 180.818 17.6311 180.818 17.3764C180.818 17.1216 180.818 16.8669 180.818 16.697C180.818 16.2724 180.906 15.8478 180.906 15.4232C180.995 14.7439 181.083 14.2344 181.083 14.2344C181.083 14.2344 181.171 14.3193 181.348 14.4891C181.524 14.659 181.701 14.9137 181.965 15.1685C182.23 15.5082 182.495 15.8478 182.671 16.1875C182.936 16.6121 183.2 17.0367 183.377 17.4613C183.553 17.9708 183.73 18.3954 183.906 18.9049C183.994 19.4144 184.083 19.924 184.083 20.3486C184.171 21.4525 183.73 22.3866 182.847 22.9811Z" fill="#FFCB6D"/>
<path d="M175.432 22.4715C175.079 22.2167 174.726 21.962 174.461 21.7072C174.197 21.4525 173.932 21.2826 173.667 21.0279C173.491 20.858 173.315 20.6882 173.138 20.5183C173.05 20.4334 172.962 20.3485 172.962 20.3485C172.962 20.3485 173.403 20.2636 174.109 20.1787C174.461 20.1787 174.814 20.0938 175.256 20.0938C175.697 20.0938 176.138 20.0938 176.667 20.1787C177.638 20.3485 178.608 20.6033 179.314 21.1128C179.667 21.3675 179.932 21.7072 180.196 22.0469C180.373 22.3866 180.461 22.8112 180.461 23.3207C179.49 23.7453 178.52 23.6604 177.726 23.4905C177.285 23.4056 176.932 23.2358 176.491 22.981C176.138 22.8961 175.785 22.7262 175.432 22.4715Z" fill="#FFCB6D"/>
<path d="M167.839 66.0371C171.191 64.7634 174.544 63.2348 177.367 61.0269C180.367 58.6492 182.485 55.4222 183.984 51.6858C185.837 47.3549 187.161 42.8542 186.984 38.0987C186.808 34.0226 185.661 30.0314 183.896 26.295C182.396 23.3228 180.544 20.3506 178.25 17.7181C178.426 17.3784 178.426 16.9539 178.338 16.6142C178.25 16.1896 178.073 15.765 177.809 15.4253C177.279 14.661 176.485 13.9817 175.603 13.5571C174.721 13.0476 173.838 12.7928 173.132 12.623C172.78 12.5381 172.515 12.4531 172.338 12.4531H172.074H171.986V12.538C171.986 12.538 171.986 12.623 172.074 12.7079C172.162 12.8777 172.25 13.1325 172.427 13.3872C172.691 13.9817 173.132 14.661 173.662 15.4253C173.927 15.765 174.279 16.1047 174.544 16.4443L174.985 16.8689L174.985 16.8691C175.162 17.0389 175.338 17.2086 175.515 17.2935C175.868 17.4634 176.22 17.7181 176.662 17.803C176.926 17.888 177.279 17.888 177.632 17.888C178.603 19.0768 179.573 20.2657 180.367 21.4546C183.632 26.1251 185.926 31.56 186.278 37.2495C186.543 42.1749 185.396 46.7605 183.455 51.2612C182.485 53.6389 181.249 55.9318 179.485 57.8849C177.72 59.838 175.603 61.3666 173.309 62.6404C168.898 65.0181 162.457 67.7355 156.369 69.6887L158.046 70.4529C161.575 68.8395 165.104 67.0562 167.839 66.0371Z" fill="#FFCB6D"/>
<path d="M89.4375 2.51562H91.0947V12.7471H89.4375V2.51562Z" fill="white"/>
<path d="M96.8596 9.50281C96.8596 11.088 95.5627 11.2321 95.1304 11.2321C94.1216 11.2321 93.9775 10.2954 93.9775 9.79102V5.82812H92.3203V9.71897C92.3203 10.6557 92.6085 11.5203 93.1849 12.0247C93.6893 12.529 94.3378 12.7452 95.1304 12.7452C95.7068 12.7452 96.4273 12.6011 96.8596 12.1688V12.7452H98.5168V5.82812H96.8596V9.50281Z" fill="white"/>
<path d="M101.757 3.30859H100.1V5.83044H98.875V7.41559H100.1V12.7475H101.757V7.41559H102.982V5.83044H101.757V3.30859Z" fill="white"/>
<path d="M108.173 10.6591C107.813 10.9473 107.308 11.1635 106.804 11.1635C105.651 11.1635 104.859 10.2989 104.859 9.14603C104.859 7.99318 105.651 7.2006 106.804 7.2006C107.308 7.2006 107.813 7.34471 108.173 7.70497L108.389 7.92113L109.542 6.84034L109.254 6.62418C108.605 6.04776 107.741 5.6875 106.804 5.6875C104.787 5.6875 103.273 7.2006 103.273 9.21808C103.273 11.2356 104.787 12.7487 106.804 12.7487C107.741 12.7487 108.605 12.3884 109.254 11.812L109.542 11.5958L108.389 10.443L108.173 10.6591Z" fill="white"/>
<path d="M115.372 6.40647C114.867 5.9021 114.363 5.68594 113.57 5.68594C112.994 5.68594 112.418 5.83005 111.985 6.26236V2.51562H110.328V12.7471H111.985V8.92831C111.985 7.34315 113.066 7.19905 113.498 7.19905C114.507 7.19905 114.435 8.13573 114.435 8.6401V12.675H116.092V8.71215C116.092 7.77547 115.876 6.91084 115.372 6.40647Z" fill="white"/>
<path d="M106.731 10.3682C107.368 10.3682 107.884 9.85204 107.884 9.21534C107.884 8.57865 107.368 8.0625 106.731 8.0625C106.094 8.0625 105.578 8.57865 105.578 9.21534C105.578 9.85204 106.094 10.3682 106.731 10.3682Z" fill="#E14942"/>
<path d="M87.1315 10.2261C86.5551 10.8025 85.6904 11.1628 84.7537 11.1628C82.9524 11.1628 81.6555 9.72175 81.6555 7.77633C81.6555 5.83091 82.9524 4.38986 84.8258 4.38986C85.6904 4.38986 86.5551 4.75012 87.2035 5.39859L87.4197 5.61475L88.5005 4.53396L88.2843 4.3178C87.3476 3.38112 86.1227 2.87675 84.8258 2.87675C82.0878 2.8047 80.0703 4.96628 80.0703 7.77633C80.0703 10.5864 82.0878 12.748 84.7537 12.748C86.0507 12.748 87.3476 12.2436 88.2123 11.3069L88.4284 11.0908L87.3476 10.01L87.1315 10.2261Z" fill="white"/>
</svg>
