<svg width="60" height="60" viewBox="0 0 60 60" fill="none" xmlns="http://www.w3.org/2000/svg">
<rect width="60" height="60" rx="30" fill="white"/>
<path fill-rule="evenodd" clip-rule="evenodd" d="M20.9232 15.1064C20.5917 15.97 21.0695 16.4654 22.2339 16.4654C24.4227 16.4654 24.5199 16.9135 24.5199 27.0307C24.5199 37.1913 24.5045 37.258 22.0857 37.5277C21.3789 37.6068 20.9176 37.8959 20.8392 38.3092C20.7264 38.905 21.1355 38.9654 25.2946 38.9654H29.8741L29.6619 41.305C29.4871 43.2344 29.273 43.7965 28.4405 44.5124C27.2967 45.4964 26.0975 45.4139 23.6664 44.1839L22.2504 43.4673L21.8851 44.4284C20.8482 47.1558 21.9714 48.5204 25.0441 48.2654C26.7256 48.1259 27.4644 47.8143 29.1755 46.5224C31.5207 44.7517 32.4477 43.288 32.7504 40.8775L32.9574 39.2268L35.2929 38.5889C39.3125 37.4909 41.8482 35.2927 43.1064 31.8145C43.9246 29.5533 43.9246 24.2515 43.1067 21.7889C42.2675 19.2614 40.0197 16.7823 37.5654 15.6764C35.7384 14.8533 35.0146 14.773 28.3629 14.6579C22.1544 14.5507 21.1126 14.6133 20.9232 15.1064ZM28.1457 17.0894C28.0077 17.2274 27.8949 21.3528 27.8949 26.257V35.1734L28.8204 36.2257L29.7462 37.2779L29.7579 27.6798C29.7687 18.844 29.7155 18.0322 29.0832 17.4603C28.7056 17.1183 28.2837 16.9518 28.1457 17.0894ZM33.9459 17.7164C33.6867 18.0288 33.4246 21.7405 33.2446 27.6532C32.9206 38.2934 32.7946 37.8584 35.7631 36.3438C41.6206 33.3554 41.6956 21.2924 35.8764 18.0603C34.6347 17.3707 34.2845 17.3084 33.9459 17.7164Z" fill="black"/>
</svg>
