<svg width="60" height="60" viewBox="0 0 60 60" fill="none" xmlns="http://www.w3.org/2000/svg">
<rect width="60" height="60" rx="30" fill="white"/>
<path d="M35.6893 35.748V25.7734H24.8594V35.748H35.6893Z" fill="#FBE54D"/>
<path d="M44.75 16.25V16.5638C44.75 21.4947 40.9031 25.5292 36.1129 25.8542C35.9356 25.8653 35.7529 25.8709 35.5701 25.8766H35.4926L32.4711 25.8569C31.9411 25.8569 31.4804 26.1511 31.2002 26.5916C31.1509 26.6689 31.1093 26.7496 31.0745 26.8336C30.9814 27.055 30.9195 27.3001 30.919 27.5427V29.8943C30.7029 29.9952 30.4747 30.0499 30.2205 30.0499C29.9957 30.0499 29.7831 29.9745 29.5866 29.8943L29.5887 26.7244L29.5903 25.8676C28.3781 26.0609 27.2688 26.6442 26.6873 27.1821C25.9674 27.8489 25.4413 28.7398 25.2198 29.7485C25.1367 30.1015 25.1481 30.4653 25.1481 30.8467V34.8087C25.1481 35.0102 24.9837 35.1731 24.7846 35.1669C24.6286 35.1621 24.483 35.1542 24.3393 35.1445C24.2396 35.1333 24.1399 35.1278 24.0402 35.1165C21.7032 34.8475 19.6376 33.7213 18.1479 32.0459C17.5388 31.3622 17.0237 30.5945 16.6416 29.7541C16.0878 28.5773 15.7721 27.2718 15.75 25.8878V25.7084C15.75 20.4806 19.9422 16.25 25.098 16.25H44.75Z" fill="#633AB1"/>
<path d="M15.75 45.2501V44.9363C15.75 40.0053 19.5933 35.971 24.3836 35.646C24.5608 35.6347 24.7435 35.6291 24.9263 35.6236H25.0038L28.0253 35.6431C28.5552 35.6431 29.016 35.349 29.2963 34.9086C29.3455 34.8312 29.3871 34.7506 29.4219 34.6665C29.5149 34.4452 29.5851 34.2012 29.5858 33.9586V31.6134C29.8017 31.5125 30.0217 31.4502 30.2759 31.4502C30.5007 31.4502 30.7222 31.5369 30.9188 31.6171L30.9078 34.7758L30.9061 35.6325C32.1184 35.4392 33.2276 34.8559 33.8091 34.3179C34.529 33.6511 35.0551 32.7602 35.2766 31.7517C35.3596 31.3987 35.3984 31.0344 35.3984 30.6534V26.7032C35.3984 26.4955 35.568 26.3273 35.7731 26.335C35.9021 26.3399 36.0303 26.3471 36.1571 26.3556C36.2568 26.3668 36.3565 26.3724 36.4562 26.3836C38.7932 26.6526 40.8588 27.7789 42.3485 29.4542C42.9577 30.1379 43.4727 30.9055 43.8548 31.7461C44.4086 32.9227 44.7242 34.2283 44.7464 35.6124V35.7916C44.7464 41.0196 40.5542 45.2501 35.3984 45.2501H15.75Z" fill="#633AB1"/>
</svg>
