<?xml version="1.0" encoding="utf-8"?>
<!-- Generator: Adobe Illustrator 26.0.2, SVG Export Plug-In . SVG Version: 6.00 Build 0)  -->
<svg version="1.1" id="Layer_1" xmlns="http://www.w3.org/2000/svg" xmlns:xlink="http://www.w3.org/1999/xlink" x="0px" y="0px"
	 viewBox="0 0 47.6 31" style="enable-background:new 0 0 47.6 31;" xml:space="preserve">
<style type="text/css">
	.st0{opacity:0.93;}
	.st1{fill:url(#Path_6_00000045614608077536199600000002757889645153870505_);}
	.st2{fill:url(#Path_7_00000065075768268811078440000008071242597069262725_);}
</style>
<g id="Group_551" class="st0">
	<g id="Group_8" transform="translate(0 0)">
		<g id="Group_7">
			
				<linearGradient id="Path_6_00000047764852389364291830000011069111744133348516_" gradientUnits="userSpaceOnUse" x1="2.8098" y1="498.0857" x2="2.8098" y2="497.5722" gradientTransform="matrix(36.7012 0 0 -50.4412 -91.7012 25126.0527)">
				<stop  offset="0" style="stop-color:#973694"/>
				<stop  offset="1" style="stop-color:#43499F"/>
			</linearGradient>
			<path id="Path_6" style="fill:url(#Path_6_00000047764852389364291830000011069111744133348516_);" d="M2,10.5
				c0,4.7,3.8,8.5,8.5,8.5c0.9,0,1.8-0.1,2.6-0.4c-0.6,3.4-2.8,7.5-10,9.3c15.5,1,17.6-11.8,17.7-14.2c0.3-5.9-2.6-9.4-6.1-10.9
				c-2-1-4.8-0.8-5-0.7C5.4,2.4,2,6.1,2,10.5z"/>
		</g>
	</g>
	<g id="Group_10" transform="translate(46.69 0)">
		<g id="Group_9">
			
				<linearGradient id="Path_7_00000138572006806823263280000015574526769039287955_" gradientUnits="userSpaceOnUse" x1="-44.4991" y1="498.0857" x2="-44.4991" y2="497.5722" gradientTransform="matrix(36.7002 0 0 -50.4412 1621.8319 25126.0527)">
				<stop  offset="0" style="stop-color:#973694"/>
				<stop  offset="1" style="stop-color:#43499F"/>
			</linearGradient>
			<path id="Path_7" style="fill:url(#Path_7_00000138572006806823263280000015574526769039287955_);" d="M-20.7,10.5
				c0,4.7,3.8,8.5,8.5,8.5c0.9,0,1.8-0.1,2.6-0.4c-0.6,3.4-2.8,7.5-10,9.3C-4.1,28.8-2,16-1.9,13.6C-1.6,7.7-4.5,4.2-8,2.8
				c-2-1-4.8-0.8-5-0.7C-17.4,2.4-20.7,6.1-20.7,10.5z"/>
		</g>
	</g>
</g>
</svg>
