<svg width="89" height="88" viewBox="0 0 89 88" fill="none" xmlns="http://www.w3.org/2000/svg">
<rect x="0.5" width="88" height="88" rx="44" fill="white"/>
<path fill-rule="evenodd" clip-rule="evenodd" d="M45.5026 45.0923C45.4138 45.0923 45.3303 45.1218 45.2626 45.1792C42.9691 47.1197 38.3179 51.0514 37.0799 52.0978C36.9122 52.2395 36.9044 52.4922 37.065 52.6419C39.1876 54.6225 42.0341 55.8373 45.159 55.8373C51.1845 55.8373 56.1726 51.3244 56.9315 45.5025C56.9601 45.2833 56.7865 45.0923 56.5653 45.0923H45.5026Z" fill="#1C211C"/>
<path fill-rule="evenodd" clip-rule="evenodd" d="M45.9609 42.8432C45.9609 43.0502 46.1288 43.2182 46.3359 43.2182H56.5993C56.8156 43.2182 56.9876 43.0351 56.9669 42.8199C56.4276 37.2044 51.9684 32.728 46.3611 32.1618C46.1452 32.14 45.9609 32.3122 45.9609 32.5292V42.8432Z" fill="#1C211C"/>
<path fill-rule="evenodd" clip-rule="evenodd" d="M43.9545 43.8333C44.0387 43.762 44.0852 43.659 44.0852 43.5486V32.5543C44.0852 32.3339 43.8953 32.1605 43.6766 32.1879C37.8273 32.9212 33.2852 37.9202 33.2852 43.9651C33.2852 46.4258 34.0469 48.7069 35.3355 50.604C35.4579 50.7843 35.706 50.8168 35.8722 50.6759C37.0725 49.6595 41.5279 45.8866 43.9545 43.8333Z" fill="#1C211C"/>
</svg>
