<svg width="14" height="8" viewBox="0 0 14 8" fill="none" xmlns="http://www.w3.org/2000/svg">
<path fill-rule="evenodd" clip-rule="evenodd" d="M13.9502 0.472059C13.8829 0.308725 13.7529 0.178725 13.5896 0.111392C13.5082 0.077392 13.4216 0.0600586 13.3349 0.0600586H10.0622C9.69357 0.0600586 9.39557 0.358059 9.39557 0.726725C9.39557 1.09539 9.69357 1.39339 10.0622 1.39339H11.7249L8.1529 4.96403L5.89757 2.70803C5.64755 2.45806 5.20555 2.45806 4.95489 2.70803L0.862886 6.80203C0.602886 7.0627 0.602885 7.4847 0.863552 7.7447C0.993552 7.8747 1.16422 7.94003 1.33489 7.94003C1.50555 7.94003 1.67622 7.8747 1.80622 7.7447L5.42622 4.1227L7.6809 6.37803C7.94157 6.6387 8.36356 6.6387 8.62423 6.37803L12.6682 2.33539V4.00003C12.6682 4.3687 12.9662 4.6667 13.3349 4.6667C13.7036 4.6667 14.0016 4.3687 14.0016 4.00003V0.726725C14.0016 0.640059 13.9836 0.553392 13.9502 0.472059Z" fill="#1C211C"/>
</svg>
