<svg width="44" height="44" viewBox="0 0 44 44" fill="none" xmlns="http://www.w3.org/2000/svg">
<g clip-path="url(#clip0_582_18878)">
<path d="M13.7106 31.898L7.19533 38.4133C6.94475 38.6639 6.97423 39.0619 7.22481 39.283C9.89282 41.5677 12.9588 43.1302 16.1722 43.9851C16.467 44.0588 16.7766 43.9114 16.8798 43.6314L20.3437 34.5513C20.5648 33.9617 21.0808 33.5047 21.7146 33.3868C22.5548 33.2394 23.3655 33.7258 23.6603 34.4923L27.1391 43.6166C27.2422 43.8967 27.5518 44.0588 27.8466 43.9704C31.06 43.1155 34.126 41.553 36.794 39.2682C37.0593 39.0471 37.0741 38.6491 36.8235 38.3985L30.3082 31.8833C25.7092 27.3138 18.2948 27.3138 13.7106 31.898Z" fill="#1C211C"/>
<path d="M12.104 13.7072L5.58876 7.19191C5.33818 6.94133 4.94019 6.97081 4.71908 7.2214C2.43432 9.8894 0.871845 12.9554 0.0169037 16.1688C-0.0567981 16.4636 0.0906056 16.7732 0.370673 16.8763L9.46548 20.3403C10.0551 20.5614 10.512 21.0773 10.63 21.7112C10.7774 22.5514 10.2909 23.3621 9.52444 23.6569L0.385413 27.1209C0.105346 27.2241 -0.0567981 27.5336 0.0316441 27.8284C0.886586 31.0418 2.44906 34.1078 4.73382 36.7758C4.95493 37.0412 5.35292 37.0559 5.6035 36.8053L12.1187 30.2901C16.6883 25.7058 16.6883 18.2914 12.104 13.7072Z" fill="#1C211C"/>
<path d="M30.2929 12.1011L36.8081 5.58583C37.0587 5.33525 37.0292 4.93726 36.7786 4.71615C34.1106 2.43139 31.0446 0.868915 27.8312 0.0139741C27.5364 -0.0597278 27.2269 0.0876759 27.1237 0.367743L23.6597 9.44781C23.4386 10.0374 22.9227 10.4944 22.2888 10.6123C21.4486 10.7597 20.6379 10.2733 20.3431 9.50677L16.8791 0.382483C16.7759 0.102416 16.4664 -0.0597278 16.1716 0.0287144C12.9582 0.868915 9.89219 2.43139 7.22419 4.71615C6.95886 4.93726 6.94412 5.33525 7.19471 5.58583L13.7099 12.1011C18.2942 16.6853 25.7086 16.6853 30.2929 12.1011Z" fill="#1C211C"/>
<path d="M34.4934 23.6425C33.7269 23.3477 33.2405 22.5517 33.3879 21.6968C33.4911 21.0629 33.948 20.5618 34.5524 20.3259L43.6325 16.8619C43.9125 16.7588 44.0747 16.4492 43.9862 16.1544C43.1313 12.9557 41.5688 9.88975 39.2841 7.22175C39.0629 6.95642 38.665 6.94168 38.4144 7.19227L31.8991 13.7075C27.3149 18.2918 27.3149 25.7062 31.8991 30.2904L38.4144 36.8057C38.665 37.0562 39.0629 37.0268 39.2841 36.7762C41.5688 34.1082 43.1313 31.0422 43.9862 27.8288C44.0599 27.534 43.9125 27.2244 43.6325 27.1212L34.4934 23.6425Z" fill="#1C211C"/>
</g>
<defs>
<clipPath id="clip0_582_18878">
<rect width="44" height="44" fill="white"/>
</clipPath>
</defs>
</svg>
