<svg width="80" height="80" viewBox="0 0 80 80" fill="none" xmlns="http://www.w3.org/2000/svg">
<path d="M26.48 49.7333C31.8667 44.3466 31.8667 35.6266 26.48 30.2666L11.76 15.52C7.41333 11.2 0 14.2666 0 20.4C0 22.2133 0.72 23.9733 2.02667 25.28L26.48 49.7333Z" fill="#191919"/>
<path d="M36.2397 12.9867L25.2797 2.02667C23.9731 0.72 22.2131 0 20.3997 0C14.2664 0 11.1997 7.41333 15.5197 11.76L16.7464 12.9867C22.1331 18.3467 30.8531 18.3467 36.2397 12.9867Z" fill="#191919"/>
<path d="M67.0122 36.24L77.9722 25.28C79.2522 24 79.9989 22.24 79.9989 20.4C79.9989 14.2666 72.5855 11.2 68.2389 15.52L67.0122 16.7466C61.6522 22.1333 61.6522 30.8533 67.0122 36.24Z" fill="#191919"/>
<path d="M49.7056 7.04L30.2656 26.48C35.6523 31.8667 44.3723 31.8667 49.7323 26.48L64.4523 11.76C68.799 7.41333 65.7323 0 59.599 0C57.7856 0 56.0256 0.72 54.719 2.02667L49.7056 7.04Z" fill="#191919"/>
<path d="M43.7617 67.0134L54.7217 77.9734C56.0017 79.2534 57.7617 80.0001 59.6017 80.0001C65.735 80.0001 68.8017 72.5867 64.4817 68.2401L63.255 67.0134C57.8684 61.6534 49.1484 61.6534 43.7617 67.0134Z" fill="#191919"/>
<path d="M63.2538 39.9999L53.5205 30.2666C48.1338 35.6533 48.1338 44.3733 53.5205 49.7333L68.2405 64.4533C72.5871 68.7999 80.0005 65.7066 80.0005 59.5733C80.0005 57.7599 79.2805 55.9999 77.9738 54.6933L63.2538 39.9999Z" fill="#191919"/>
<path d="M12.9867 43.76L2.02667 54.72C0.72 56.0267 0 57.7867 0 59.6C0 65.7333 7.41333 68.8 11.76 64.48L12.9867 63.2533C18.3467 57.8667 18.3467 49.1467 12.9867 43.76Z" fill="#191919"/>
<path d="M49.7326 53.52C44.3459 48.1333 35.6259 48.1333 30.2659 53.52L15.5459 68.24C11.1993 72.5866 14.2659 80 20.3993 80C22.2126 80 23.9726 79.28 25.2793 77.9733L49.7326 53.52Z" fill="#191919"/>
</svg>
