<svg width="88" height="88" viewBox="0 0 88 88" fill="none" xmlns="http://www.w3.org/2000/svg">
<rect width="88" height="88" rx="44" fill="white"/>
<path fill-rule="evenodd" clip-rule="evenodd" d="M36.4791 46.3186C34.9441 46.3186 33.6953 47.5686 33.6953 49.1049V53.2424C33.6953 54.7799 34.9441 56.0311 36.4791 56.0311C38.0141 56.0311 39.2628 54.7799 39.2628 53.2424V49.1049C39.2628 47.5686 38.0141 46.3186 36.4791 46.3186Z" fill="#1C211C"/>
<path fill-rule="evenodd" clip-rule="evenodd" d="M44.7837 43.2214C43.2487 43.2214 42 44.4664 42 45.9964V53.2464C42 54.7827 43.2487 56.0339 44.7837 56.0339C46.3187 56.0339 47.5675 54.7827 47.5675 53.2464V45.9964C47.5675 44.4664 46.3187 43.2214 44.7837 43.2214Z" fill="#1C211C"/>
<path fill-rule="evenodd" clip-rule="evenodd" d="M53.0845 37.9524C51.5495 37.9524 50.3008 39.1974 50.3008 40.7274V53.2386C50.3008 54.7761 51.5495 56.0274 53.0845 56.0274C54.6195 56.0274 55.8683 54.7761 55.8683 53.2386V40.7274C55.8683 39.1974 54.6195 37.9524 53.0845 37.9524Z" fill="#1C211C"/>
<path fill-rule="evenodd" clip-rule="evenodd" d="M44.9131 40.7732L53.6543 33.6357C54.0556 33.3082 54.1156 32.7182 53.7881 32.3157C53.4593 31.9144 52.8706 31.8557 52.4693 32.1832L44.4018 38.7694L42.2718 36.5269C41.9506 36.1869 41.4281 36.1369 41.0469 36.4094L33.7756 41.6094C33.3531 41.9107 33.2569 42.4969 33.5581 42.9182C33.7406 43.1732 34.0281 43.3094 34.3206 43.3094C34.5106 43.3094 34.7006 43.2519 34.8656 43.1357L41.4744 38.4094L43.6406 40.6932C43.9793 41.0482 44.5343 41.0819 44.9131 40.7732Z" fill="#1C211C"/>
</svg>
