<svg width="100" height="100" viewBox="0 0 100 100" fill="none" xmlns="http://www.w3.org/2000/svg">
<g clip-path="url(#clip0_251_7201)">
<path d="M50 33C59.1127 33 66.5 25.6127 66.5 16.5C66.5 7.3873 59.1127 0 50 0C40.8873 0 33.5 7.3873 33.5 16.5C33.5 25.6127 40.8873 33 50 33Z" fill="#1C211C"/>
<path d="M67.0335 49.0001C67.0002 49.3668 67.0002 49.7668 67.0002 50.1334C67.0335 54.4668 65.4335 58.6335 62.3669 61.7001L61.6669 62.4001C58.6335 65.4334 54.5002 67.0668 50.2002 67.0335C50.1335 67.0335 50.0335 67.0335 49.9669 67.0335C49.9002 67.0335 49.8002 67.0335 49.7335 67.0335C45.4335 67.1001 41.3002 65.4334 38.2669 62.4001L37.5669 61.7001C34.5002 58.6335 32.9002 54.4668 32.9335 50.1334C32.9335 49.7668 32.9335 49.3668 32.9002 49.0001C32.4335 40.8668 25.9669 34.2334 17.8335 33.5668C7.60019 32.7001 -0.866477 41.2001 -0.0331435 51.4334C0.633523 59.5334 7.30019 66.0001 15.4002 66.5001C15.7669 66.5334 16.1669 66.5335 16.5335 66.5335C20.8669 66.5001 25.0335 68.1001 28.1002 71.1668L28.8002 71.8668C31.8669 74.9335 33.4669 79.1001 33.4335 83.4334C33.4335 84.0001 33.4669 84.5668 33.5002 85.1334C34.2335 93.1001 40.7669 99.4668 48.7669 100.033C58.4002 100.7 66.4335 93.0668 66.4335 83.5668C66.4335 83.5001 66.4335 83.4001 66.4335 83.3334C66.3669 79.0334 68.0335 74.9001 71.0669 71.8668L71.7669 71.1668C74.8335 68.1001 79.0002 66.5001 83.3335 66.5335C83.7002 66.5335 84.0669 66.5334 84.4669 66.5001C92.6002 66.0334 99.2335 59.5668 99.9002 51.4334C100.767 41.2001 92.2669 32.7334 82.0335 33.5668C73.9669 34.2334 67.5002 40.9001 67.0335 49.0001Z" fill="#1C211C"/>
</g>
<defs>
<clipPath id="clip0_251_7201">
<rect width="100" height="100" fill="white"/>
</clipPath>
</defs>
</svg>
