<svg width="80" height="80" viewBox="0 0 80 80" fill="none" xmlns="http://www.w3.org/2000/svg">
<path d="M78.6667 32.3256H67.3067C66.4 32.3256 65.68 31.6062 65.68 30.7002V19.3752C65.68 18.6291 65.0933 18.0428 64.3467 18.0428H52.9867C52.08 18.0428 51.36 17.3234 51.36 16.4174L51.3067 8.23674C51.3067 7.49063 50.8533 6.82445 50.1867 6.53133C45.76 4.69269 41.04 3.7334 36.16 3.7334C16.2133 3.7334 0 19.9348 0 39.8667C0 59.7987 16.2133 76.0001 36.16 76.0001C41.04 76.0001 45.7333 75.0408 50.1867 73.1755C50.88 72.8824 51.3067 72.2162 51.3067 71.4701L51.36 62.7299C51.36 61.8239 52.08 61.1044 52.9867 61.1044H64.3467C65.0933 61.1044 65.68 60.5182 65.68 59.772V48.4204C65.68 47.5144 66.4 46.7949 67.3067 46.7949H78.6667C79.4133 46.7949 80 46.2087 80 45.4626V33.6047C80 32.9119 79.4133 32.3256 78.6667 32.3256ZM35.2267 46.6351H24.4C23.4933 46.6351 22.7733 45.9156 22.7733 45.0096V34.1643C22.7733 33.2583 23.4933 32.5388 24.4 32.5388H35.2533C36.16 32.5388 36.88 33.2583 36.88 34.1643V45.0096C36.8533 45.889 36.1333 46.6351 35.2267 46.6351ZM49.5467 32.3256H38.6933C37.7867 32.3256 37.0667 31.6062 37.0667 30.7002V19.8815C37.0667 18.9755 37.7867 18.256 38.6933 18.256H49.5467C50.4533 18.256 51.1733 18.9755 51.1733 19.8815V30.7268C51.1467 31.6062 50.4267 32.3256 49.5467 32.3256ZM38.6933 46.8482H49.5467C50.4533 46.8482 51.1733 47.5677 51.1733 48.4737V59.319C51.1733 60.225 50.4533 60.9445 49.5467 60.9445H38.6933C37.7867 60.9445 37.0667 60.225 37.0667 59.319V48.4737C37.0667 47.5677 37.8133 46.8482 38.6933 46.8482ZM53.0133 32.5655H63.8667C64.7733 32.5655 65.4933 33.2849 65.4933 34.1909V45.0362C65.4933 45.9422 64.7733 46.6617 63.8667 46.6617H53.0133C52.1067 46.6617 51.3867 45.9422 51.3867 45.0362V34.1909C51.3867 33.2849 52.1067 32.5655 53.0133 32.5655Z" fill="#191919"/>
</svg>
